<?xml version="1.0" encoding="utf-8"?>
<!-- Generator: Adobe Illustrator 17.0.0, SVG Export Plug-In . SVG Version: 6.00 Build 0)  -->
<!DOCTYPE svg PUBLIC "-//W3C//DTD SVG 1.1//EN" "http://www.w3.org/Graphics/SVG/1.1/DTD/svg11.dtd">
<svg version="1.1" id="Layer_1" xmlns="http://www.w3.org/2000/svg" xmlns:xlink="http://www.w3.org/1999/xlink" x="0px" y="0px"
	 width="70px" height="70px" viewBox="-3.33 -5.23 70 70" enable-background="new -3.33 -5.23 70 70" xml:space="preserve">
<g>
	<g>
		
			<linearGradient id="SVGID_1_" gradientUnits="userSpaceOnUse" x1="-536.02" y1="271.775" x2="-475.66" y2="271.775" gradientTransform="matrix(1 0 0 -1 539 303.0399)">
			<stop  offset="0.0816" style="stop-color:#931B21"/>
			<stop  offset="0.2092" style="stop-color:#A11D24"/>
			<stop  offset="0.7092" style="stop-color:#721816"/>
			<stop  offset="0.9133" style="stop-color:#630C0D"/>
		</linearGradient>
		<path fill="url(#SVGID_1_)" d="M58.62,6.73v1.89h2.83v5.66H4.87V8.61h8.49v1.89H7.7v1.89h50.92V10.5h-1.89V5.79
			c0-0.75-0.29-1.47-0.83-2c-1.07-1.07-2.93-1.07-4,0c-0.53,0.53-0.83,1.25-0.83,2v0.94H17.13v1.89h37.72v1.89H15.24V5.79
			c0-0.76-0.29-1.47-0.83-2c-1.07-1.07-2.93-1.07-4,0c-0.53,0.53-0.83,1.24-0.83,2v0.94h-6.6v7.54v1.89v43.38h34.89v-1.89h-33V16.16
			h56.58v17.92h1.89V16.16v-1.89V6.73H58.62z M52.96,6.73V5.79c0-0.25,0.1-0.49,0.28-0.67c0.36-0.36,0.98-0.36,1.33,0
			c0.18,0.18,0.28,0.42,0.28,0.67v0.94H52.96z M11.47,5.79c0-0.25,0.1-0.49,0.28-0.67c0.36-0.36,0.98-0.36,1.33,0
			c0.18,0.18,0.28,0.41,0.28,0.67v0.94h-1.89C11.47,6.73,11.47,5.79,11.47,5.79z"/>
		
			<linearGradient id="SVGID_2_" gradientUnits="userSpaceOnUse" x1="-529.4152" y1="281.2237" x2="-527.5292" y2="281.2237" gradientTransform="matrix(1 0 0 -1 539 303.0399)">
			<stop  offset="0.0816" style="stop-color:#931B21"/>
			<stop  offset="0.2092" style="stop-color:#A11D24"/>
			<stop  offset="0.7092" style="stop-color:#721816"/>
			<stop  offset="0.9133" style="stop-color:#630C0D"/>
		</linearGradient>
		<rect x="9.58" y="20.87" fill="url(#SVGID_2_)" width="1.89" height="1.89"/>
		
			<linearGradient id="SVGID_3_" gradientUnits="userSpaceOnUse" x1="-521.87" y1="281.2237" x2="-519.984" y2="281.2237" gradientTransform="matrix(1 0 0 -1 539 303.0399)">
			<stop  offset="0.0816" style="stop-color:#931B21"/>
			<stop  offset="0.2092" style="stop-color:#A11D24"/>
			<stop  offset="0.7092" style="stop-color:#721816"/>
			<stop  offset="0.9133" style="stop-color:#630C0D"/>
		</linearGradient>
		<rect x="17.13" y="20.87" fill="url(#SVGID_3_)" width="1.89" height="1.89"/>
		
			<linearGradient id="SVGID_4_" gradientUnits="userSpaceOnUse" x1="-514.3271" y1="281.2237" x2="-512.4411" y2="281.2237" gradientTransform="matrix(1 0 0 -1 539 303.0399)">
			<stop  offset="0.0816" style="stop-color:#931B21"/>
			<stop  offset="0.2092" style="stop-color:#A11D24"/>
			<stop  offset="0.7092" style="stop-color:#721816"/>
			<stop  offset="0.9133" style="stop-color:#630C0D"/>
		</linearGradient>
		<rect x="24.67" y="20.87" fill="url(#SVGID_4_)" width="1.89" height="1.89"/>
		
			<linearGradient id="SVGID_5_" gradientUnits="userSpaceOnUse" x1="-506.783" y1="251.0437" x2="-504.897" y2="251.0437" gradientTransform="matrix(1 0 0 -1 539 303.0399)">
			<stop  offset="0.0816" style="stop-color:#931B21"/>
			<stop  offset="0.2092" style="stop-color:#A11D24"/>
			<stop  offset="0.7092" style="stop-color:#721816"/>
			<stop  offset="0.9133" style="stop-color:#630C0D"/>
		</linearGradient>
		<rect x="32.22" y="51.05" fill="url(#SVGID_5_)" width="1.89" height="1.89"/>
		
			<linearGradient id="SVGID_6_" gradientUnits="userSpaceOnUse" x1="-508.67" y1="281.2187" x2="-503.01" y2="281.2187" gradientTransform="matrix(1 0 0 -1 539 303.0399)">
			<stop  offset="0.0816" style="stop-color:#931B21"/>
			<stop  offset="0.2092" style="stop-color:#A11D24"/>
			<stop  offset="0.7092" style="stop-color:#721816"/>
			<stop  offset="0.9133" style="stop-color:#630C0D"/>
		</linearGradient>
		<path fill="url(#SVGID_6_)" d="M35.99,18.99h-5.66v5.66h5.66V18.99z M34.1,22.76h-1.89v-1.89h1.89V22.76z"/>
		
			<linearGradient id="SVGID_7_" gradientUnits="userSpaceOnUse" x1="-501.13" y1="281.2187" x2="-495.47" y2="281.2187" gradientTransform="matrix(1 0 0 -1 539 303.0399)">
			<stop  offset="0.0816" style="stop-color:#931B21"/>
			<stop  offset="0.2092" style="stop-color:#A11D24"/>
			<stop  offset="0.7092" style="stop-color:#721816"/>
			<stop  offset="0.9133" style="stop-color:#630C0D"/>
		</linearGradient>
		<path fill="url(#SVGID_7_)" d="M43.53,18.99h-5.66v5.66h5.66V18.99z M41.65,22.76h-1.89v-1.89h1.89V22.76z"/>
		
			<linearGradient id="SVGID_8_" gradientUnits="userSpaceOnUse" x1="-493.58" y1="281.2187" x2="-487.92" y2="281.2187" gradientTransform="matrix(1 0 0 -1 539 303.0399)">
			<stop  offset="0.0816" style="stop-color:#931B21"/>
			<stop  offset="0.2092" style="stop-color:#A11D24"/>
			<stop  offset="0.7092" style="stop-color:#721816"/>
			<stop  offset="0.9133" style="stop-color:#630C0D"/>
		</linearGradient>
		<path fill="url(#SVGID_8_)" d="M51.08,18.99h-5.66v5.66h5.66V18.99z M49.19,22.76H47.3v-1.89h1.89V22.76z"/>
		
			<linearGradient id="SVGID_9_" gradientUnits="userSpaceOnUse" x1="-486.04" y1="281.2187" x2="-480.38" y2="281.2187" gradientTransform="matrix(1 0 0 -1 539 303.0399)">
			<stop  offset="0.0816" style="stop-color:#931B21"/>
			<stop  offset="0.2092" style="stop-color:#A11D24"/>
			<stop  offset="0.7092" style="stop-color:#721816"/>
			<stop  offset="0.9133" style="stop-color:#630C0D"/>
		</linearGradient>
		<path fill="url(#SVGID_9_)" d="M58.62,18.99h-5.66v5.66h5.66V18.99z M56.74,22.76h-1.89v-1.89h1.89V22.76z"/>
		
			<linearGradient id="SVGID_10_" gradientUnits="userSpaceOnUse" x1="-508.67" y1="273.6787" x2="-503.01" y2="273.6787" gradientTransform="matrix(1 0 0 -1 539 303.0399)">
			<stop  offset="0.0816" style="stop-color:#931B21"/>
			<stop  offset="0.2092" style="stop-color:#A11D24"/>
			<stop  offset="0.7092" style="stop-color:#721816"/>
			<stop  offset="0.9133" style="stop-color:#630C0D"/>
		</linearGradient>
		<path fill="url(#SVGID_10_)" d="M35.99,26.53h-5.66v5.66h5.66V26.53z M34.1,30.3h-1.89v-1.89h1.89V30.3z"/>
		
			<linearGradient id="SVGID_11_" gradientUnits="userSpaceOnUse" x1="-516.2131" y1="273.6787" x2="-510.5531" y2="273.6787" gradientTransform="matrix(1 0 0 -1 539 303.0399)">
			<stop  offset="0.0816" style="stop-color:#931B21"/>
			<stop  offset="0.2092" style="stop-color:#A11D24"/>
			<stop  offset="0.7092" style="stop-color:#721816"/>
			<stop  offset="0.9133" style="stop-color:#630C0D"/>
		</linearGradient>
		<path fill="url(#SVGID_11_)" d="M28.44,26.53h-5.66v5.66h5.66V26.53z M26.56,30.3h-1.89v-1.89h1.89V30.3z"/>
		
			<linearGradient id="SVGID_12_" gradientUnits="userSpaceOnUse" x1="-523.76" y1="273.6787" x2="-518.1" y2="273.6787" gradientTransform="matrix(1 0 0 -1 539 303.0399)">
			<stop  offset="0.0816" style="stop-color:#931B21"/>
			<stop  offset="0.2092" style="stop-color:#A11D24"/>
			<stop  offset="0.7092" style="stop-color:#721816"/>
			<stop  offset="0.9133" style="stop-color:#630C0D"/>
		</linearGradient>
		<path fill="url(#SVGID_12_)" d="M20.9,26.53h-5.66v5.66h5.66V26.53z M19.01,30.3h-1.89v-1.89h1.89V30.3z"/>
		
			<linearGradient id="SVGID_13_" gradientUnits="userSpaceOnUse" x1="-531.3" y1="273.6787" x2="-525.64" y2="273.6787" gradientTransform="matrix(1 0 0 -1 539 303.0399)">
			<stop  offset="0.0816" style="stop-color:#931B21"/>
			<stop  offset="0.2092" style="stop-color:#A11D24"/>
			<stop  offset="0.7092" style="stop-color:#721816"/>
			<stop  offset="0.9133" style="stop-color:#630C0D"/>
		</linearGradient>
		<path fill="url(#SVGID_13_)" d="M13.36,26.53H7.7v5.66h5.66V26.53z M11.47,30.3H9.58v-1.89h1.89V30.3z"/>
		
			<linearGradient id="SVGID_14_" gradientUnits="userSpaceOnUse" x1="-508.67" y1="266.1287" x2="-503.01" y2="266.1287" gradientTransform="matrix(1 0 0 -1 539 303.0399)">
			<stop  offset="0.0816" style="stop-color:#931B21"/>
			<stop  offset="0.2092" style="stop-color:#A11D24"/>
			<stop  offset="0.7092" style="stop-color:#721816"/>
			<stop  offset="0.9133" style="stop-color:#630C0D"/>
		</linearGradient>
		<path fill="url(#SVGID_14_)" d="M35.99,34.08h-5.66v5.66h5.66V34.08z M34.1,37.85h-1.89v-1.89h1.89V37.85z"/>
		
			<linearGradient id="SVGID_15_" gradientUnits="userSpaceOnUse" x1="-516.2131" y1="266.1287" x2="-510.5531" y2="266.1287" gradientTransform="matrix(1 0 0 -1 539 303.0399)">
			<stop  offset="0.0816" style="stop-color:#931B21"/>
			<stop  offset="0.2092" style="stop-color:#A11D24"/>
			<stop  offset="0.7092" style="stop-color:#721816"/>
			<stop  offset="0.9133" style="stop-color:#630C0D"/>
		</linearGradient>
		<path fill="url(#SVGID_15_)" d="M28.44,34.08h-5.66v5.66h5.66V34.08z M26.56,37.85h-1.89v-1.89h1.89V37.85z"/>
		
			<linearGradient id="SVGID_16_" gradientUnits="userSpaceOnUse" x1="-523.76" y1="266.1287" x2="-518.1" y2="266.1287" gradientTransform="matrix(1 0 0 -1 539 303.0399)">
			<stop  offset="0.0816" style="stop-color:#931B21"/>
			<stop  offset="0.2092" style="stop-color:#A11D24"/>
			<stop  offset="0.7092" style="stop-color:#721816"/>
			<stop  offset="0.9133" style="stop-color:#630C0D"/>
		</linearGradient>
		<path fill="url(#SVGID_16_)" d="M20.9,34.08h-5.66v5.66h5.66V34.08z M19.01,37.85h-1.89v-1.89h1.89V37.85z"/>
		
			<linearGradient id="SVGID_17_" gradientUnits="userSpaceOnUse" x1="-531.3" y1="266.1287" x2="-525.64" y2="266.1287" gradientTransform="matrix(1 0 0 -1 539 303.0399)">
			<stop  offset="0.0816" style="stop-color:#931B21"/>
			<stop  offset="0.2092" style="stop-color:#A11D24"/>
			<stop  offset="0.7092" style="stop-color:#721816"/>
			<stop  offset="0.9133" style="stop-color:#630C0D"/>
		</linearGradient>
		<path fill="url(#SVGID_17_)" d="M13.36,34.08H7.7v5.66h5.66V34.08z M11.47,37.85H9.58v-1.89h1.89V37.85z"/>
		
			<linearGradient id="SVGID_18_" gradientUnits="userSpaceOnUse" x1="-508.67" y1="258.5887" x2="-503.01" y2="258.5887" gradientTransform="matrix(1 0 0 -1 539 303.0399)">
			<stop  offset="0.0816" style="stop-color:#931B21"/>
			<stop  offset="0.2092" style="stop-color:#A11D24"/>
			<stop  offset="0.7092" style="stop-color:#721816"/>
			<stop  offset="0.9133" style="stop-color:#630C0D"/>
		</linearGradient>
		<path fill="url(#SVGID_18_)" d="M35.99,41.62h-5.66v5.66h5.66V41.62z M34.1,45.39h-1.89V43.5h1.89V45.39z"/>
		
			<linearGradient id="SVGID_19_" gradientUnits="userSpaceOnUse" x1="-516.2131" y1="258.5887" x2="-510.5531" y2="258.5887" gradientTransform="matrix(1 0 0 -1 539 303.0399)">
			<stop  offset="0.0816" style="stop-color:#931B21"/>
			<stop  offset="0.2092" style="stop-color:#A11D24"/>
			<stop  offset="0.7092" style="stop-color:#721816"/>
			<stop  offset="0.9133" style="stop-color:#630C0D"/>
		</linearGradient>
		<path fill="url(#SVGID_19_)" d="M28.44,41.62h-5.66v5.66h5.66V41.62z M26.56,45.39h-1.89V43.5h1.89V45.39z"/>
		
			<linearGradient id="SVGID_20_" gradientUnits="userSpaceOnUse" x1="-523.76" y1="258.5887" x2="-518.1" y2="258.5887" gradientTransform="matrix(1 0 0 -1 539 303.0399)">
			<stop  offset="0.0816" style="stop-color:#931B21"/>
			<stop  offset="0.2092" style="stop-color:#A11D24"/>
			<stop  offset="0.7092" style="stop-color:#721816"/>
			<stop  offset="0.9133" style="stop-color:#630C0D"/>
		</linearGradient>
		<path fill="url(#SVGID_20_)" d="M20.9,41.62h-5.66v5.66h5.66V41.62z M19.01,45.39h-1.89V43.5h1.89V45.39z"/>
		
			<linearGradient id="SVGID_21_" gradientUnits="userSpaceOnUse" x1="-531.3" y1="258.5887" x2="-525.64" y2="258.5887" gradientTransform="matrix(1 0 0 -1 539 303.0399)">
			<stop  offset="0.0816" style="stop-color:#931B21"/>
			<stop  offset="0.2092" style="stop-color:#A11D24"/>
			<stop  offset="0.7092" style="stop-color:#721816"/>
			<stop  offset="0.9133" style="stop-color:#630C0D"/>
		</linearGradient>
		<path fill="url(#SVGID_21_)" d="M13.36,41.62H7.7v5.66h5.66V41.62z M11.47,45.39H9.58V43.5h1.89V45.39z"/>
		
			<linearGradient id="SVGID_22_" gradientUnits="userSpaceOnUse" x1="-516.21" y1="251.0487" x2="-510.55" y2="251.0487" gradientTransform="matrix(1 0 0 -1 539 303.0399)">
			<stop  offset="0.0816" style="stop-color:#931B21"/>
			<stop  offset="0.2092" style="stop-color:#A11D24"/>
			<stop  offset="0.7092" style="stop-color:#721816"/>
			<stop  offset="0.9133" style="stop-color:#630C0D"/>
		</linearGradient>
		<path fill="url(#SVGID_22_)" d="M22.79,54.82h5.66v-5.66h-5.66V54.82z M24.67,51.05h1.89v1.89h-1.89V51.05z"/>
		
			<linearGradient id="SVGID_23_" gradientUnits="userSpaceOnUse" x1="-523.76" y1="251.0487" x2="-518.1" y2="251.0487" gradientTransform="matrix(1 0 0 -1 539 303.0399)">
			<stop  offset="0.0816" style="stop-color:#931B21"/>
			<stop  offset="0.2092" style="stop-color:#A11D24"/>
			<stop  offset="0.7092" style="stop-color:#721816"/>
			<stop  offset="0.9133" style="stop-color:#630C0D"/>
		</linearGradient>
		<path fill="url(#SVGID_23_)" d="M15.24,54.82h5.66v-5.66h-5.66V54.82z M17.13,51.05h1.89v1.89h-1.89V51.05z"/>
		
			<linearGradient id="SVGID_24_" gradientUnits="userSpaceOnUse" x1="-531.3" y1="251.0487" x2="-525.64" y2="251.0487" gradientTransform="matrix(1 0 0 -1 539 303.0399)">
			<stop  offset="0.0816" style="stop-color:#931B21"/>
			<stop  offset="0.2092" style="stop-color:#A11D24"/>
			<stop  offset="0.7092" style="stop-color:#721816"/>
			<stop  offset="0.9133" style="stop-color:#630C0D"/>
		</linearGradient>
		<path fill="url(#SVGID_24_)" d="M7.7,54.82h5.66v-5.66H7.7V54.82z M9.58,51.05h1.89v1.89H9.58V51.05z"/>
		
			<linearGradient id="SVGID_25_" gradientUnits="userSpaceOnUse" x1="-501.12" y1="273.6787" x2="-495.46" y2="273.6787" gradientTransform="matrix(1 0 0 -1 539 303.0399)">
			<stop  offset="0.0816" style="stop-color:#931B21"/>
			<stop  offset="0.2092" style="stop-color:#A11D24"/>
			<stop  offset="0.7092" style="stop-color:#721816"/>
			<stop  offset="0.9133" style="stop-color:#630C0D"/>
		</linearGradient>
		<path fill="url(#SVGID_25_)" d="M37.88,32.19h5.66v-5.66h-5.66V32.19z M39.76,28.42h1.89v1.89h-1.89V28.42z"/>
		
			<linearGradient id="SVGID_26_" gradientUnits="userSpaceOnUse" x1="-493.58" y1="273.6787" x2="-487.92" y2="273.6787" gradientTransform="matrix(1 0 0 -1 539 303.0399)">
			<stop  offset="0.0816" style="stop-color:#931B21"/>
			<stop  offset="0.2092" style="stop-color:#A11D24"/>
			<stop  offset="0.7092" style="stop-color:#721816"/>
			<stop  offset="0.9133" style="stop-color:#630C0D"/>
		</linearGradient>
		<path fill="url(#SVGID_26_)" d="M45.42,32.19h5.66v-5.66h-5.66V32.19z M47.31,28.42h1.89v1.89h-1.89V28.42z"/>
		
			<linearGradient id="SVGID_27_" gradientUnits="userSpaceOnUse" x1="-486.04" y1="273.6787" x2="-480.38" y2="273.6787" gradientTransform="matrix(1 0 0 -1 539 303.0399)">
			<stop  offset="0.0816" style="stop-color:#931B21"/>
			<stop  offset="0.2092" style="stop-color:#A11D24"/>
			<stop  offset="0.7092" style="stop-color:#721816"/>
			<stop  offset="0.9133" style="stop-color:#630C0D"/>
		</linearGradient>
		<path fill="url(#SVGID_27_)" d="M52.96,32.19h5.66v-5.66h-5.66V32.19z M54.85,28.42h1.89v1.89h-1.89V28.42z"/>
		
			<linearGradient id="SVGID_28_" gradientUnits="userSpaceOnUse" x1="-501.12" y1="256.2287" x2="-475.66" y2="256.2287" gradientTransform="matrix(1 0 0 -1 539 303.0399)">
			<stop  offset="0.0816" style="stop-color:#931B21"/>
			<stop  offset="0.2092" style="stop-color:#A11D24"/>
			<stop  offset="0.7092" style="stop-color:#721816"/>
			<stop  offset="0.9133" style="stop-color:#630C0D"/>
		</linearGradient>
		<path fill="url(#SVGID_28_)" d="M50.61,34.08c-7.02,0-12.73,5.71-12.73,12.73s5.71,12.73,12.73,12.73
			c7.02,0,12.73-5.71,12.73-12.73S57.63,34.08,50.61,34.08z M50.61,57.65c-5.98,0-10.84-4.86-10.84-10.84s4.86-10.84,10.84-10.84
			c5.98,0,10.84,4.86,10.84,10.84S56.59,57.65,50.61,57.65z"/>
		
			<linearGradient id="SVGID_29_" gradientUnits="userSpaceOnUse" x1="-493.3" y1="255.4287" x2="-483.48" y2="255.4287" gradientTransform="matrix(1 0 0 -1 539 303.0399)">
			<stop  offset="0.0816" style="stop-color:#931B21"/>
			<stop  offset="0.2092" style="stop-color:#A11D24"/>
			<stop  offset="0.7092" style="stop-color:#721816"/>
			<stop  offset="0.9133" style="stop-color:#630C0D"/>
		</linearGradient>
		<polygon fill="url(#SVGID_29_)" points="49.19,48.77 47.03,46.61 45.7,47.94 49.19,51.44 55.52,45.12 54.18,43.78 		"/>
	</g>
	<g>
		<path fill="#FFFFFF" d="M55.64,3.75v1.89h2.83v5.66H1.89V5.63h8.49v1.89H4.72V9.4h50.92V7.52h-1.89V2.8c0-0.75-0.29-1.47-0.83-2
			c-1.07-1.07-2.93-1.07-4,0c-0.53,0.53-0.83,1.25-0.83,2v0.94H14.15v1.89h37.72v1.89H12.26V2.8c0-0.76-0.29-1.47-0.83-2
			c-1.07-1.07-2.93-1.07-4,0C6.9,1.34,6.6,2.05,6.6,2.8v0.94H0v7.54v1.89v43.38h34.89v-1.89h-33V13.18h56.58V31.1h1.89V13.18v-1.89
			V3.75H55.64z M49.98,3.75V2.8c0-0.25,0.1-0.49,0.28-0.67c0.36-0.36,0.98-0.36,1.33,0c0.18,0.18,0.28,0.42,0.28,0.67v0.94
			L49.98,3.75L49.98,3.75z M8.49,2.8c0-0.25,0.1-0.49,0.28-0.67c0.36-0.36,0.98-0.36,1.33,0c0.18,0.18,0.28,0.41,0.28,0.67v0.94
			H8.49V2.8z"/>
		<rect x="6.6" y="17.89" fill="#FFFFFF" width="1.89" height="1.89"/>
		<rect x="14.15" y="17.89" fill="#FFFFFF" width="1.89" height="1.89"/>
		<rect x="21.69" y="17.89" fill="#FFFFFF" width="1.89" height="1.89"/>
		<rect x="29.23" y="48.07" fill="#FFFFFF" width="1.89" height="1.89"/>
		<path fill="#FFFFFF" d="M33.01,16h-5.66v5.66h5.66V16z M31.12,19.78h-1.89v-1.89h1.89V19.78z"/>
		<path fill="#FFFFFF" d="M40.55,16h-5.66v5.66h5.66V16z M38.66,19.78h-1.89v-1.89h1.89V19.78z"/>
		<path fill="#FFFFFF" d="M48.09,16h-5.66v5.66h5.66V16z M46.21,19.78h-1.89v-1.89h1.89V19.78z"/>
		<path fill="#FFFFFF" d="M55.64,16h-5.66v5.66h5.66V16z M53.75,19.78h-1.89v-1.89h1.89V19.78z"/>
		<path fill="#FFFFFF" d="M33.01,23.55h-5.66v5.66h5.66V23.55z M31.12,27.32h-1.89v-1.89h1.89V27.32z"/>
		<path fill="#FFFFFF" d="M25.46,23.55H19.8v5.66h5.66V23.55z M23.58,27.32h-1.89v-1.89h1.89V27.32z"/>
		<path fill="#FFFFFF" d="M17.92,23.55h-5.66v5.66h5.66V23.55z M16.03,27.32h-1.89v-1.89h1.89V27.32z"/>
		<path fill="#FFFFFF" d="M10.37,23.55H4.72v5.66h5.66L10.37,23.55L10.37,23.55z M8.49,27.32H6.6v-1.89h1.89V27.32z"/>
		<path fill="#FFFFFF" d="M33.01,31.09h-5.66v5.66h5.66V31.09z M31.12,34.86h-1.89v-1.89h1.89V34.86z"/>
		<path fill="#FFFFFF" d="M25.46,31.09H19.8v5.66h5.66V31.09z M23.58,34.86h-1.89v-1.89h1.89V34.86z"/>
		<path fill="#FFFFFF" d="M17.92,31.09h-5.66v5.66h5.66V31.09z M16.03,34.86h-1.89v-1.89h1.89V34.86z"/>
		<path fill="#FFFFFF" d="M10.37,31.09H4.72v5.66h5.66L10.37,31.09L10.37,31.09z M8.49,34.86H6.6v-1.89h1.89V34.86z"/>
		<path fill="#FFFFFF" d="M33.01,38.64h-5.66v5.66h5.66V38.64z M31.12,42.41h-1.89v-1.89h1.89V42.41z"/>
		<path fill="#FFFFFF" d="M25.46,38.64H19.8v5.66h5.66V38.64z M23.58,42.41h-1.89v-1.89h1.89V42.41z"/>
		<path fill="#FFFFFF" d="M17.92,38.64h-5.66v5.66h5.66V38.64z M16.03,42.41h-1.89v-1.89h1.89V42.41z"/>
		<path fill="#FFFFFF" d="M10.37,38.64H4.72v5.66h5.66L10.37,38.64L10.37,38.64z M8.49,42.41H6.6v-1.89h1.89V42.41z"/>
		<path fill="#FFFFFF" d="M19.8,51.84h5.66v-5.66H19.8V51.84z M21.69,48.07h1.89v1.89h-1.89V48.07z"/>
		<path fill="#FFFFFF" d="M12.26,51.84h5.66v-5.66h-5.66V51.84z M14.15,48.07h1.89v1.89h-1.89C14.15,49.96,14.15,48.07,14.15,48.07z
			"/>
		<path fill="#FFFFFF" d="M4.72,51.84h5.66v-5.66H4.72V51.84z M6.6,48.07h1.89v1.89H6.6V48.07z"/>
		<path fill="#FFFFFF" d="M34.89,29.21h5.66v-5.66h-5.66V29.21z M36.78,25.43h1.89v1.89h-1.89V25.43z"/>
		<path fill="#FFFFFF" d="M42.44,29.21h5.66v-5.66h-5.66V29.21z M44.32,25.43h1.89v1.89h-1.89V25.43z"/>
		<path fill="#FFFFFF" d="M49.98,29.21h5.66v-5.66h-5.66V29.21z M51.87,25.43h1.89v1.89h-1.89V25.43z"/>
		<path fill="#FFFFFF" d="M47.62,31.09c-7.02,0-12.73,5.71-12.73,12.73s5.71,12.73,12.73,12.73c7.02,0,12.73-5.71,12.73-12.73
			S54.64,31.09,47.62,31.09z M47.62,54.67c-5.98,0-10.84-4.86-10.84-10.84s4.86-10.84,10.84-10.84c5.98,0,10.84,4.86,10.84,10.84
			S53.6,54.67,47.62,54.67z"/>
		<polygon fill="#FFFFFF" points="46.21,45.79 44.05,43.63 42.71,44.96 46.21,48.46 52.53,42.13 51.2,40.8 		"/>
	</g>
</g>
</svg>
