<?xml version="1.0" encoding="utf-8"?>
<!-- Generator: Adobe Illustrator 17.0.0, SVG Export Plug-In . SVG Version: 6.00 Build 0)  -->
<!DOCTYPE svg PUBLIC "-//W3C//DTD SVG 1.1//EN" "http://www.w3.org/Graphics/SVG/1.1/DTD/svg11.dtd">
<svg version="1.1" id="Layer_1" xmlns="http://www.w3.org/2000/svg" xmlns:xlink="http://www.w3.org/1999/xlink" x="0px" y="0px"
	 width="70px" height="70px" viewBox="-0.54 -12.37 70 70" enable-background="new -0.54 -12.37 70 70" xml:space="preserve">
<g>
	<g>
		<g transform="translate(1.000000, 1.000000)">
			<g>
				
					<linearGradient id="SVGID_1_" gradientUnits="userSpaceOnUse" x1="-491.5551" y1="249.86" x2="-478.8351" y2="249.86" gradientTransform="matrix(1 0 0 -1 540 287.76)">
					<stop  offset="0.0816" style="stop-color:#931B21"/>
					<stop  offset="0.2092" style="stop-color:#A11D24"/>
					<stop  offset="0.7092" style="stop-color:#721816"/>
					<stop  offset="0.9133" style="stop-color:#630C0D"/>
				</linearGradient>
				<path fill="url(#SVGID_1_)" d="M54.8,44.26c-3.51,0-6.36-2.85-6.36-6.36s2.85-6.36,6.36-6.36c3.51,0,6.36,2.85,6.36,6.36
					S58.31,44.26,54.8,44.26z M54.8,32.99c-2.71,0-4.91,2.2-4.91,4.91s2.2,4.91,4.91,4.91s4.91-2.2,4.91-4.91
					S57.51,32.99,54.8,32.99z"/>
			</g>
			<g>
				
					<linearGradient id="SVGID_2_" gradientUnits="userSpaceOnUse" x1="-492.2943" y1="256.615" x2="-474.9043" y2="256.615" gradientTransform="matrix(1 0 0 -1 540 287.76)">
					<stop  offset="0.0816" style="stop-color:#931B21"/>
					<stop  offset="0.2092" style="stop-color:#A11D24"/>
					<stop  offset="0.7092" style="stop-color:#721816"/>
					<stop  offset="0.9133" style="stop-color:#630C0D"/>
				</linearGradient>
				<path fill="url(#SVGID_2_)" d="M64.36,35.25c-0.3,0-0.58-0.19-0.68-0.48c-1.33-3.75-4.9-6.28-8.88-6.28
					c-2.18,0-4.23,0.72-5.92,2.09c-0.31,0.25-0.77,0.2-1.02-0.11c-0.25-0.31-0.2-0.77,0.11-1.02c1.92-1.56,4.35-2.41,6.83-2.41
					c4.6,0,8.71,2.91,10.25,7.24c0.13,0.38-0.06,0.79-0.44,0.93C64.52,35.23,64.44,35.25,64.36,35.25z"/>
			</g>
			<g>
				
					<linearGradient id="SVGID_3_" gradientUnits="userSpaceOnUse" x1="-476.3597" y1="253.24" x2="-472.0779" y2="253.24" gradientTransform="matrix(1 0 0 -1 540 287.76)">
					<stop  offset="0.0816" style="stop-color:#931B21"/>
					<stop  offset="0.2092" style="stop-color:#A11D24"/>
					<stop  offset="0.7092" style="stop-color:#721816"/>
					<stop  offset="0.9133" style="stop-color:#630C0D"/>
				</linearGradient>
				<path fill="url(#SVGID_3_)" d="M67.19,35.25h-2.83c-0.4,0-0.73-0.32-0.73-0.73c0-0.4,0.33-0.73,0.73-0.73h2.83
					c0.4,0,0.73,0.32,0.73,0.73C67.92,34.92,67.59,35.25,67.19,35.25z"/>
			</g>
			<g>
				
					<linearGradient id="SVGID_4_" gradientUnits="userSpaceOnUse" x1="-473.5295" y1="259.435" x2="-472.0776" y2="259.435" gradientTransform="matrix(1 0 0 -1 540 287.76)">
					<stop  offset="0.0816" style="stop-color:#931B21"/>
					<stop  offset="0.2092" style="stop-color:#A11D24"/>
					<stop  offset="0.7092" style="stop-color:#721816"/>
					<stop  offset="0.9133" style="stop-color:#630C0D"/>
				</linearGradient>
				<path fill="url(#SVGID_4_)" d="M67.19,35.25c-0.4,0-0.73-0.32-0.73-0.73V22.13c0-0.4,0.33-0.73,0.73-0.73s0.73,0.32,0.73,0.73
					v12.39C67.92,34.92,67.59,35.25,67.19,35.25z"/>
			</g>
			<g>
				
					<linearGradient id="SVGID_5_" gradientUnits="userSpaceOnUse" x1="-479.1648" y1="270.6971" x2="-472.0853" y2="270.6971" gradientTransform="matrix(1 0 0 -1 540 287.76)">
					<stop  offset="0.0816" style="stop-color:#931B21"/>
					<stop  offset="0.2092" style="stop-color:#A11D24"/>
					<stop  offset="0.7092" style="stop-color:#721816"/>
					<stop  offset="0.9133" style="stop-color:#630C0D"/>
				</linearGradient>
				<path fill="url(#SVGID_5_)" d="M67.19,22.86c-0.26,0-0.5-0.13-0.64-0.37l-5.63-10.14c-0.19-0.35-0.07-0.79,0.28-0.99
					s0.79-0.07,0.99,0.28l5.63,10.14c0.19,0.35,0.07,0.79-0.28,0.99C67.43,22.83,67.31,22.86,67.19,22.86z"/>
			</g>
			<g>
				
					<linearGradient id="SVGID_6_" gradientUnits="userSpaceOnUse" x1="-492.685" y1="275.77" x2="-477.705" y2="275.77" gradientTransform="matrix(1 0 0 -1 540 287.76)">
					<stop  offset="0.0816" style="stop-color:#931B21"/>
					<stop  offset="0.2092" style="stop-color:#A11D24"/>
					<stop  offset="0.7092" style="stop-color:#721816"/>
					<stop  offset="0.9133" style="stop-color:#630C0D"/>
				</linearGradient>
				<path fill="url(#SVGID_6_)" d="M61.56,12.72H48.04c-0.4,0-0.73-0.32-0.73-0.73c0-0.4,0.33-0.73,0.73-0.73h13.52
					c0.4,0,0.73,0.32,0.73,0.73C62.28,12.39,61.96,12.72,61.56,12.72z"/>
			</g>
			<g>
				
					<linearGradient id="SVGID_7_" gradientUnits="userSpaceOnUse" x1="-492.6806" y1="266.76" x2="-491.2286" y2="266.76" gradientTransform="matrix(1 0 0 -1 540 287.76)">
					<stop  offset="0.0816" style="stop-color:#931B21"/>
					<stop  offset="0.2092" style="stop-color:#A11D24"/>
					<stop  offset="0.7092" style="stop-color:#721816"/>
					<stop  offset="0.9133" style="stop-color:#630C0D"/>
				</linearGradient>
				<path fill="url(#SVGID_7_)" d="M48.04,30.74c-0.4,0-0.73-0.32-0.73-0.73V11.99c0-0.4,0.33-0.73,0.73-0.73
					c0.4,0,0.73,0.32,0.73,0.73v18.02C48.77,30.42,48.44,30.74,48.04,30.74z"/>
			</g>
			<g>
				
					<linearGradient id="SVGID_8_" gradientUnits="userSpaceOnUse" x1="-488.175" y1="270.7" x2="-486.7231" y2="270.7" gradientTransform="matrix(1 0 0 -1 540 287.76)">
					<stop  offset="0.0816" style="stop-color:#931B21"/>
					<stop  offset="0.2092" style="stop-color:#A11D24"/>
					<stop  offset="0.7092" style="stop-color:#721816"/>
					<stop  offset="0.9133" style="stop-color:#630C0D"/>
				</linearGradient>
				<path fill="url(#SVGID_8_)" d="M52.55,22.86c-0.4,0-0.73-0.32-0.73-0.73V11.99c0-0.4,0.33-0.73,0.73-0.73
					c0.4,0,0.73,0.32,0.73,0.73v10.14C53.27,22.53,52.95,22.86,52.55,22.86z"/>
			</g>
			<g>
				
					<linearGradient id="SVGID_9_" gradientUnits="userSpaceOnUse" x1="-488.175" y1="265.63" x2="-472.075" y2="265.63" gradientTransform="matrix(1 0 0 -1 540 287.76)">
					<stop  offset="0.0816" style="stop-color:#931B21"/>
					<stop  offset="0.2092" style="stop-color:#A11D24"/>
					<stop  offset="0.7092" style="stop-color:#721816"/>
					<stop  offset="0.9133" style="stop-color:#630C0D"/>
				</linearGradient>
				<path fill="url(#SVGID_9_)" d="M67.19,22.86H52.55c-0.4,0-0.73-0.32-0.73-0.73s0.33-0.73,0.73-0.73h14.64
					c0.4,0,0.73,0.32,0.73,0.73S67.59,22.86,67.19,22.86z"/>
			</g>
			<g>
				
					<linearGradient id="SVGID_10_" gradientUnits="userSpaceOnUse" x1="-532.1151" y1="249.86" x2="-519.395" y2="249.86" gradientTransform="matrix(1 0 0 -1 540 287.76)">
					<stop  offset="0.0816" style="stop-color:#931B21"/>
					<stop  offset="0.2092" style="stop-color:#A11D24"/>
					<stop  offset="0.7092" style="stop-color:#721816"/>
					<stop  offset="0.9133" style="stop-color:#630C0D"/>
				</linearGradient>
				<path fill="url(#SVGID_10_)" d="M14.24,44.26c-3.51,0-6.36-2.85-6.36-6.36s2.85-6.36,6.36-6.36s6.36,2.85,6.36,6.36
					S17.75,44.26,14.24,44.26z M14.24,32.99c-2.71,0-4.91,2.2-4.91,4.91s2.2,4.91,4.91,4.91s4.91-2.2,4.91-4.91
					S16.95,32.99,14.24,32.99z"/>
			</g>
			<g>
				
					<linearGradient id="SVGID_11_" gradientUnits="userSpaceOnUse" x1="-536.0358" y1="256.615" x2="-515.4643" y2="256.615" gradientTransform="matrix(1 0 0 -1 540 287.76)">
					<stop  offset="0.0816" style="stop-color:#931B21"/>
					<stop  offset="0.2092" style="stop-color:#A11D24"/>
					<stop  offset="0.7092" style="stop-color:#721816"/>
					<stop  offset="0.9133" style="stop-color:#630C0D"/>
				</linearGradient>
				<path fill="url(#SVGID_11_)" d="M23.81,35.25c-0.3,0-0.58-0.19-0.68-0.48c-1.33-3.75-4.9-6.28-8.88-6.28s-7.55,2.52-8.88,6.27
					c-0.13,0.38-0.55,0.58-0.93,0.44C4.06,35.07,3.87,34.65,4,34.28c1.53-4.33,5.65-7.24,10.24-7.24c4.6,0,8.71,2.91,10.25,7.24
					c0.13,0.38-0.06,0.79-0.44,0.93C23.97,35.23,23.89,35.25,23.81,35.25z"/>
			</g>
			<g>
				
					<linearGradient id="SVGID_12_" gradientUnits="userSpaceOnUse" x1="-516.915" y1="253.24" x2="-494.605" y2="253.24" gradientTransform="matrix(1 0 0 -1 540 287.76)">
					<stop  offset="0.0816" style="stop-color:#931B21"/>
					<stop  offset="0.2092" style="stop-color:#A11D24"/>
					<stop  offset="0.7092" style="stop-color:#721816"/>
					<stop  offset="0.9133" style="stop-color:#630C0D"/>
				</linearGradient>
				<path fill="url(#SVGID_12_)" d="M44.66,35.25H23.81c-0.4,0-0.73-0.32-0.73-0.73c0-0.4,0.33-0.73,0.73-0.73h20.85
					c0.4,0,0.73,0.32,0.73,0.73C45.39,34.92,45.06,35.25,44.66,35.25z"/>
			</g>
			<g>
				
					<linearGradient id="SVGID_13_" gradientUnits="userSpaceOnUse" x1="-496.0603" y1="267.885" x2="-494.6083" y2="267.885" gradientTransform="matrix(1 0 0 -1 540 287.76)">
					<stop  offset="0.0816" style="stop-color:#931B21"/>
					<stop  offset="0.2092" style="stop-color:#A11D24"/>
					<stop  offset="0.7092" style="stop-color:#721816"/>
					<stop  offset="0.9133" style="stop-color:#630C0D"/>
				</linearGradient>
				<path fill="url(#SVGID_13_)" d="M44.66,35.25c-0.4,0-0.73-0.32-0.73-0.73V5.23c0-0.4,0.33-0.73,0.73-0.73s0.73,0.32,0.73,0.73
					v29.29C45.39,34.92,45.06,35.25,44.66,35.25z"/>
			</g>
			<g>
				
					<linearGradient id="SVGID_14_" gradientUnits="userSpaceOnUse" x1="-538.8683" y1="253.24" x2="-535.1636" y2="253.24" gradientTransform="matrix(1 0 0 -1 540 287.76)">
					<stop  offset="0.0816" style="stop-color:#931B21"/>
					<stop  offset="0.2092" style="stop-color:#A11D24"/>
					<stop  offset="0.7092" style="stop-color:#721816"/>
					<stop  offset="0.9133" style="stop-color:#630C0D"/>
				</linearGradient>
				<path fill="url(#SVGID_14_)" d="M4.11,35.25H1.85c-0.4,0-0.73-0.32-0.73-0.73c0-0.4,0.33-0.73,0.73-0.73H4.1
					c0.4,0,0.73,0.32,0.73,0.73C4.83,34.92,4.51,35.25,4.11,35.25z"/>
			</g>
			<g>
				
					<linearGradient id="SVGID_15_" gradientUnits="userSpaceOnUse" x1="-538.8683" y1="256.055" x2="-537.4164" y2="256.055" gradientTransform="matrix(1 0 0 -1 540 287.76)">
					<stop  offset="0.0816" style="stop-color:#931B21"/>
					<stop  offset="0.2092" style="stop-color:#A11D24"/>
					<stop  offset="0.7092" style="stop-color:#721816"/>
					<stop  offset="0.9133" style="stop-color:#630C0D"/>
				</linearGradient>
				<path fill="url(#SVGID_15_)" d="M1.85,35.25c-0.4,0-0.73-0.32-0.73-0.73v-5.63c0-0.4,0.33-0.73,0.73-0.73s0.73,0.32,0.73,0.73
					v5.63C2.58,34.92,2.25,35.25,1.85,35.25z"/>
			</g>
			<g>
				
					<linearGradient id="SVGID_16_" gradientUnits="userSpaceOnUse" x1="-538.8683" y1="258.87" x2="-536.2899" y2="258.87" gradientTransform="matrix(1 0 0 -1 540 287.76)">
					<stop  offset="0.0816" style="stop-color:#931B21"/>
					<stop  offset="0.2092" style="stop-color:#A11D24"/>
					<stop  offset="0.7092" style="stop-color:#721816"/>
					<stop  offset="0.9133" style="stop-color:#630C0D"/>
				</linearGradient>
				<path fill="url(#SVGID_16_)" d="M2.98,29.62H1.85c-0.4,0-0.73-0.32-0.73-0.73c0-0.4,0.33-0.73,0.73-0.73h1.13
					c0.4,0,0.73,0.32,0.73,0.73C3.71,29.29,3.38,29.62,2.98,29.62z"/>
			</g>
			<g>
				
					<linearGradient id="SVGID_17_" gradientUnits="userSpaceOnUse" x1="-537.7418" y1="272.39" x2="-536.2899" y2="272.39" gradientTransform="matrix(1 0 0 -1 540 287.76)">
					<stop  offset="0.0816" style="stop-color:#931B21"/>
					<stop  offset="0.2092" style="stop-color:#A11D24"/>
					<stop  offset="0.7092" style="stop-color:#721816"/>
					<stop  offset="0.9133" style="stop-color:#630C0D"/>
				</linearGradient>
				<path fill="url(#SVGID_17_)" d="M2.98,29.62c-0.4,0-0.73-0.32-0.73-0.73V1.85c0-0.4,0.33-0.73,0.73-0.73s0.73,0.32,0.73,0.73
					v27.04C3.71,29.29,3.38,29.62,2.98,29.62z"/>
			</g>
			<g>
				
					<linearGradient id="SVGID_18_" gradientUnits="userSpaceOnUse" x1="-537.7451" y1="285.91" x2="-497.985" y2="285.91" gradientTransform="matrix(1 0 0 -1 540 287.76)">
					<stop  offset="0.0816" style="stop-color:#931B21"/>
					<stop  offset="0.2092" style="stop-color:#A11D24"/>
					<stop  offset="0.7092" style="stop-color:#721816"/>
					<stop  offset="0.9133" style="stop-color:#630C0D"/>
				</linearGradient>
				<path fill="url(#SVGID_18_)" d="M41.28,2.58H2.98c-0.4,0-0.73-0.32-0.73-0.73s0.33-0.73,0.73-0.73h38.3
					c0.4,0,0.73,0.32,0.73,0.73S41.68,2.58,41.28,2.58z"/>
			</g>
			<g>
				
					<linearGradient id="SVGID_19_" gradientUnits="userSpaceOnUse" x1="-499.44" y1="284.22" x2="-494.6083" y2="284.22" gradientTransform="matrix(1 0 0 -1 540 287.76)">
					<stop  offset="0.0816" style="stop-color:#931B21"/>
					<stop  offset="0.2092" style="stop-color:#A11D24"/>
					<stop  offset="0.7092" style="stop-color:#721816"/>
					<stop  offset="0.9133" style="stop-color:#630C0D"/>
				</linearGradient>
				<path fill="url(#SVGID_19_)" d="M44.66,5.96c-0.4,0-0.73-0.32-0.73-0.73c0-1.46-1.19-2.65-2.65-2.65c-0.4,0-0.73-0.32-0.73-0.73
					s0.33-0.73,0.73-0.73c2.26,0,4.11,1.84,4.11,4.11C45.39,5.63,45.06,5.96,44.66,5.96z"/>
			</g>
			<g>
				
					<linearGradient id="SVGID_20_" gradientUnits="userSpaceOnUse" x1="-475.785" y1="262.25" x2="-472.6194" y2="262.25" gradientTransform="matrix(1 0 0 -1 540 287.76)">
					<stop  offset="0.0816" style="stop-color:#931B21"/>
					<stop  offset="0.2092" style="stop-color:#A11D24"/>
					<stop  offset="0.7092" style="stop-color:#721816"/>
					<stop  offset="0.9133" style="stop-color:#630C0D"/>
				</linearGradient>
				<path fill="url(#SVGID_20_)" d="M66.65,26.24h-1.71c-0.4,0-0.73-0.32-0.73-0.73c0-0.4,0.33-0.73,0.73-0.73h1.71
					c0.4,0,0.73,0.32,0.73,0.73C67.38,25.91,67.05,26.24,66.65,26.24z"/>
			</g>
			<g>
				
					<linearGradient id="SVGID_21_" gradientUnits="userSpaceOnUse" x1="-536.6151" y1="263.38" x2="-534.0366" y2="263.38" gradientTransform="matrix(1 0 0 -1 540 287.76)">
					<stop  offset="0.0816" style="stop-color:#931B21"/>
					<stop  offset="0.2092" style="stop-color:#A11D24"/>
					<stop  offset="0.7092" style="stop-color:#721816"/>
					<stop  offset="0.9133" style="stop-color:#630C0D"/>
				</linearGradient>
				<path fill="url(#SVGID_21_)" d="M5.23,25.11H4.11c-0.4,0-0.73-0.32-0.73-0.73c0-0.4,0.33-0.73,0.73-0.73h1.13
					c0.4,0,0.73,0.32,0.73,0.73C5.96,24.79,5.63,25.11,5.23,25.11z"/>
			</g>
			<g>
				
					<linearGradient id="SVGID_22_" gradientUnits="userSpaceOnUse" x1="-496.065" y1="257.75" x2="-490.864" y2="257.75" gradientTransform="matrix(1 0 0 -1 540 287.76)">
					<stop  offset="0.0816" style="stop-color:#931B21"/>
					<stop  offset="0.2092" style="stop-color:#A11D24"/>
					<stop  offset="0.7092" style="stop-color:#721816"/>
					<stop  offset="0.9133" style="stop-color:#630C0D"/>
				</linearGradient>
				<path fill="url(#SVGID_22_)" d="M48.41,30.74h-3.75c-0.4,0-0.73-0.32-0.73-0.73c0-0.4,0.33-0.73,0.73-0.73h3.75
					c0.4,0,0.73,0.32,0.73,0.73S48.81,30.74,48.41,30.74z"/>
			</g>
			<g>
				
					<linearGradient id="SVGID_23_" gradientUnits="userSpaceOnUse" x1="-537.7451" y1="274.65" x2="-502.485" y2="274.65" gradientTransform="matrix(1 0 0 -1 540 287.76)">
					<stop  offset="0.0816" style="stop-color:#931B21"/>
					<stop  offset="0.2092" style="stop-color:#A11D24"/>
					<stop  offset="0.7092" style="stop-color:#721816"/>
					<stop  offset="0.9133" style="stop-color:#630C0D"/>
				</linearGradient>
				<path fill="url(#SVGID_23_)" d="M36.77,13.84H2.98c-0.4,0-0.73-0.32-0.73-0.73c0-0.4,0.33-0.73,0.73-0.73h33.8
					c0.4,0,0.73,0.32,0.73,0.73C37.5,13.52,37.18,13.84,36.77,13.84z"/>
			</g>
			<g>
				
					<linearGradient id="SVGID_24_" gradientUnits="userSpaceOnUse" x1="-508.455" y1="276.9" x2="-502.4951" y2="276.9" gradientTransform="matrix(1 0 0 -1 540 287.76)">
					<stop  offset="0.0816" style="stop-color:#931B21"/>
					<stop  offset="0.2092" style="stop-color:#A11D24"/>
					<stop  offset="0.7092" style="stop-color:#721816"/>
					<stop  offset="0.9133" style="stop-color:#630C0D"/>
				</linearGradient>
				<path fill="url(#SVGID_24_)" d="M36.77,13.84c-0.19,0-0.37-0.07-0.51-0.21l-4.51-4.51c-0.28-0.28-0.28-0.74,0-1.03
					c0.28-0.28,0.74-0.28,1.03,0l4.51,4.51c0.28,0.28,0.28,0.74,0,1.03C37.15,13.77,36.96,13.84,36.77,13.84z"/>
			</g>
			<g>
				
					<linearGradient id="SVGID_25_" gradientUnits="userSpaceOnUse" x1="-508.4521" y1="272.39" x2="-502.4883" y2="272.39" gradientTransform="matrix(1 0 0 -1 540 287.76)">
					<stop  offset="0.0816" style="stop-color:#931B21"/>
					<stop  offset="0.2092" style="stop-color:#A11D24"/>
					<stop  offset="0.7092" style="stop-color:#721816"/>
					<stop  offset="0.9133" style="stop-color:#630C0D"/>
				</linearGradient>
				<path fill="url(#SVGID_25_)" d="M32.27,18.35c-0.19,0-0.37-0.07-0.51-0.21c-0.28-0.28-0.28-0.74,0-1.03l4.51-4.51
					c0.28-0.28,0.74-0.28,1.03,0s0.28,0.74,0,1.03l-4.51,4.51C32.64,18.28,32.45,18.35,32.27,18.35z"/>
			</g>
		</g>
	</g>
	<g>
		<g transform="translate(1.000000, 1.000000)">
			<g>
				<path fill="#FFFFFF" d="M52.67,42.13c-3.51,0-6.36-2.85-6.36-6.36s2.85-6.36,6.36-6.36c3.51,0,6.36,2.85,6.36,6.36
					S56.18,42.13,52.67,42.13z M52.67,30.87c-2.71,0-4.91,2.2-4.91,4.91s2.2,4.91,4.91,4.91s4.91-2.2,4.91-4.91
					S55.38,30.87,52.67,30.87z"/>
			</g>
			<g>
				<path fill="#FFFFFF" d="M62.23,33.12c-0.3,0-0.58-0.19-0.68-0.48c-1.33-3.75-4.9-6.28-8.88-6.28c-2.18,0-4.23,0.72-5.92,2.09
					c-0.31,0.25-0.77,0.2-1.02-0.11c-0.25-0.31-0.2-0.77,0.11-1.02c1.92-1.56,4.35-2.41,6.83-2.41c4.6,0,8.71,2.91,10.25,7.24
					c0.13,0.38-0.06,0.79-0.44,0.93C62.4,33.11,62.32,33.12,62.23,33.12z"/>
			</g>
			<g>
				<path fill="#FFFFFF" d="M65.06,33.12h-2.83c-0.4,0-0.73-0.32-0.73-0.73c0-0.4,0.33-0.73,0.73-0.73h2.83
					c0.4,0,0.73,0.32,0.73,0.73C65.79,32.8,65.47,33.12,65.06,33.12z"/>
			</g>
			<g>
				<path fill="#FFFFFF" d="M65.06,33.12c-0.4,0-0.73-0.32-0.73-0.73V20c0-0.4,0.33-0.73,0.73-0.73s0.73,0.32,0.73,0.73v12.4
					C65.79,32.8,65.47,33.12,65.06,33.12z"/>
			</g>
			<g>
				<path fill="#FFFFFF" d="M65.07,20.73c-0.26,0-0.5-0.13-0.64-0.37L58.8,10.22c-0.19-0.35-0.07-0.79,0.28-0.99
					s0.79-0.07,0.99,0.28l5.63,10.14c0.19,0.35,0.07,0.79-0.28,0.99C65.31,20.7,65.18,20.73,65.07,20.73z"/>
			</g>
			<g>
				<path fill="#FFFFFF" d="M59.43,10.59H45.91c-0.4,0-0.73-0.32-0.73-0.73c0-0.4,0.33-0.73,0.73-0.73h13.52
					c0.4,0,0.73,0.32,0.73,0.73S59.83,10.59,59.43,10.59z"/>
			</g>
			<g>
				<path fill="#FFFFFF" d="M45.91,28.62c-0.4,0-0.73-0.32-0.73-0.73V9.87c0-0.4,0.33-0.73,0.73-0.73s0.73,0.32,0.73,0.73v18.02
					C46.64,28.29,46.31,28.62,45.91,28.62z"/>
			</g>
			<g>
				<path fill="#FFFFFF" d="M50.42,20.73c-0.4,0-0.73-0.32-0.73-0.73V9.87c0-0.4,0.33-0.73,0.73-0.73c0.4,0,0.73,0.32,0.73,0.73V20
					C51.15,20.41,50.82,20.73,50.42,20.73z"/>
			</g>
			<g>
				<path fill="#FFFFFF" d="M65.06,20.73H50.42c-0.4,0-0.73-0.32-0.73-0.73c0-0.4,0.33-0.73,0.73-0.73h14.64
					c0.4,0,0.73,0.32,0.73,0.73S65.47,20.73,65.06,20.73z"/>
			</g>
			<g>
				<path fill="#FFFFFF" d="M12.12,42.13c-3.51,0-6.36-2.85-6.36-6.36s2.85-6.36,6.36-6.36s6.36,2.85,6.36,6.36
					S15.62,42.13,12.12,42.13z M12.12,30.87c-2.71,0-4.91,2.2-4.91,4.91s2.2,4.91,4.91,4.91s4.91-2.2,4.91-4.91
					S14.82,30.87,12.12,30.87z"/>
			</g>
			<g>
				<path fill="#FFFFFF" d="M21.68,33.12c-0.3,0-0.58-0.19-0.68-0.48c-1.33-3.75-4.9-6.28-8.88-6.28s-7.55,2.52-8.88,6.27
					c-0.13,0.38-0.55,0.58-0.93,0.44c-0.38-0.13-0.58-0.55-0.44-0.93c1.53-4.33,5.65-7.24,10.24-7.24c4.6,0,8.71,2.91,10.25,7.24
					c0.13,0.38-0.06,0.79-0.44,0.93C21.84,33.11,21.76,33.12,21.68,33.12z"/>
			</g>
			<g>
				<path fill="#FFFFFF" d="M42.53,33.12H21.68c-0.4,0-0.73-0.32-0.73-0.73c0-0.4,0.33-0.73,0.73-0.73h20.85
					c0.4,0,0.73,0.32,0.73,0.73C43.26,32.8,42.93,33.12,42.53,33.12z"/>
			</g>
			<g>
				<path fill="#FFFFFF" d="M42.53,33.12c-0.4,0-0.73-0.32-0.73-0.73V3.11c0-0.4,0.33-0.73,0.73-0.73c0.4,0,0.73,0.32,0.73,0.73
					V32.4C43.26,32.8,42.93,33.12,42.53,33.12z"/>
			</g>
			<g>
				<path fill="#FFFFFF" d="M1.98,33.12h-2.25C-0.67,33.12-1,32.8-1,32.4c0-0.4,0.33-0.73,0.73-0.73h2.25c0.4,0,0.73,0.32,0.73,0.73
					C2.7,32.8,2.38,33.12,1.98,33.12z"/>
			</g>
			<g>
				<path fill="#FFFFFF" d="M-0.27,33.12C-0.67,33.12-1,32.8-1,32.4v-5.63c0-0.4,0.33-0.73,0.73-0.73s0.73,0.32,0.73,0.73v5.63
					C0.45,32.8,0.13,33.12-0.27,33.12z"/>
			</g>
			<g>
				<path fill="#FFFFFF" d="M0.85,27.49h-1.13c-0.4,0-0.73-0.32-0.73-0.73s0.33-0.73,0.73-0.73h1.13c0.4,0,0.73,0.32,0.73,0.73
					S1.25,27.49,0.85,27.49z"/>
			</g>
			<g>
				<path fill="#FFFFFF" d="M0.85,27.49c-0.4,0-0.73-0.32-0.73-0.73V-0.27C0.13-0.68,0.45-1,0.85-1s0.73,0.32,0.73,0.73v27.04
					C1.58,27.16,1.25,27.49,0.85,27.49z"/>
			</g>
			<g>
				<path fill="#FFFFFF" d="M39.15,0.45H0.85c-0.4,0-0.73-0.32-0.73-0.73S0.45-1,0.85-1h38.3c0.4,0,0.73,0.32,0.73,0.73
					S39.56,0.45,39.15,0.45z"/>
			</g>
			<g>
				<path fill="#FFFFFF" d="M42.53,3.83c-0.4,0-0.73-0.32-0.73-0.73c0-1.46-1.19-2.65-2.65-2.65c-0.4,0-0.73-0.32-0.73-0.73
					S38.75-1,39.15-1c2.26,0,4.11,1.84,4.11,4.11C43.26,3.51,42.93,3.83,42.53,3.83z"/>
			</g>
			<g>
				<path fill="#FFFFFF" d="M64.52,24.11h-1.71c-0.4,0-0.73-0.32-0.73-0.73s0.33-0.73,0.73-0.73h1.71c0.4,0,0.73,0.32,0.73,0.73
					S64.93,24.11,64.52,24.11z"/>
			</g>
			<g>
				<path fill="#FFFFFF" d="M3.11,22.98H1.98c-0.4,0-0.73-0.32-0.73-0.73s0.33-0.73,0.73-0.73h1.13c0.4,0,0.73,0.32,0.73,0.73
					S3.51,22.98,3.11,22.98z"/>
			</g>
			<g>
				<path fill="#FFFFFF" d="M46.28,28.62h-3.75c-0.4,0-0.73-0.32-0.73-0.73s0.33-0.73,0.73-0.73h3.75c0.4,0,0.73,0.32,0.73,0.73
					S46.68,28.62,46.28,28.62z"/>
			</g>
			<g>
				<path fill="#FFFFFF" d="M34.65,11.72H0.85c-0.4,0-0.73-0.32-0.73-0.73c0-0.4,0.33-0.73,0.73-0.73h33.8
					c0.4,0,0.73,0.32,0.73,0.73C35.37,11.39,35.05,11.72,34.65,11.72z"/>
			</g>
			<g>
				<path fill="#FFFFFF" d="M34.65,11.72c-0.19,0-0.37-0.07-0.51-0.21L29.63,7c-0.28-0.28-0.28-0.74,0-1.03
					c0.28-0.28,0.74-0.28,1.03,0l4.51,4.51c0.28,0.28,0.28,0.74,0,1.03C35.02,11.65,34.83,11.72,34.65,11.72z"/>
			</g>
			<g>
				<path fill="#FFFFFF" d="M30.14,16.22c-0.19,0-0.37-0.07-0.51-0.21c-0.28-0.28-0.28-0.74,0-1.03l4.51-4.51
					c0.28-0.28,0.74-0.28,1.03,0c0.28,0.28,0.28,0.74,0,1.03l-4.51,4.51C30.51,16.15,30.33,16.22,30.14,16.22z"/>
			</g>
		</g>
	</g>
</g>
</svg>
