<?xml version="1.0" encoding="utf-8"?>
<!-- Generator: Adobe Illustrator 17.0.0, SVG Export Plug-In . SVG Version: 6.00 Build 0)  -->
<!DOCTYPE svg PUBLIC "-//W3C//DTD SVG 1.1//EN" "http://www.w3.org/Graphics/SVG/1.1/DTD/svg11.dtd">
<svg version="1.1" id="Layer_1" xmlns="http://www.w3.org/2000/svg" xmlns:xlink="http://www.w3.org/1999/xlink" x="0px" y="0px"
	 width="70px" height="70px" viewBox="-6.69 -6.69 70 70" enable-background="new -6.69 -6.69 70 70" xml:space="preserve">
<g>
	<g>
		
			<linearGradient id="SVGID_1_" gradientUnits="userSpaceOnUse" x1="-536.39" y1="270.51" x2="-520.19" y2="270.51" gradientTransform="matrix(1 0 0 -1 539 300.12)">
			<stop  offset="0.0816" style="stop-color:#931B21"/>
			<stop  offset="0.2092" style="stop-color:#A11D24"/>
			<stop  offset="0.7092" style="stop-color:#721816"/>
			<stop  offset="0.9133" style="stop-color:#630C0D"/>
		</linearGradient>
		<path fill="url(#SVGID_1_)" d="M10.71,37.71c4.47,0,8.1-3.63,8.1-8.1s-3.63-8.1-8.1-8.1s-8.1,3.63-8.1,8.1l0,0
			C2.61,34.09,6.24,37.71,10.71,37.71z M10.71,23.31c3.48,0,6.3,2.82,6.3,6.3c0,3.48-2.82,6.3-6.3,6.3s-6.3-2.82-6.3-6.3
			C4.41,26.13,7.23,23.32,10.71,23.31z"/>
		
			<linearGradient id="SVGID_2_" gradientUnits="userSpaceOnUse" x1="-498.58" y1="271.6342" x2="-482.3824" y2="271.6342" gradientTransform="matrix(1 0 0 -1 539 300.12)">
			<stop  offset="0.0816" style="stop-color:#931B21"/>
			<stop  offset="0.2092" style="stop-color:#A11D24"/>
			<stop  offset="0.7092" style="stop-color:#721816"/>
			<stop  offset="0.9133" style="stop-color:#630C0D"/>
		</linearGradient>
		<path fill="url(#SVGID_2_)" d="M48.52,21.51c-4.47,0-8.1,3.62-8.1,8.09c0,2.08,0.8,4.08,2.23,5.58c0.34,0.36,0.91,0.38,1.27,0.03
			c0.01-0.01,0.02-0.02,0.03-0.03c2.38-2.52,6.36-2.64,8.88-0.26c0.09,0.08,0.17,0.17,0.26,0.26c0.34,0.36,0.91,0.38,1.27,0.03
			c0.01-0.01,0.02-0.02,0.03-0.03c3.08-3.24,2.95-8.37-0.29-11.45C52.59,22.31,50.6,21.51,48.52,21.51z M53.65,33.25
			c-2.98-2.46-7.29-2.46-10.27,0c-2.02-2.84-1.35-6.77,1.48-8.79c2.84-2.02,6.77-1.35,8.79,1.48
			C55.21,28.14,55.21,31.07,53.65,33.25z"/>
		
			<linearGradient id="SVGID_3_" gradientUnits="userSpaceOnUse" x1="-536.39" y1="289.41" x2="-520.19" y2="289.41" gradientTransform="matrix(1 0 0 -1 539 300.12)">
			<stop  offset="0.0816" style="stop-color:#931B21"/>
			<stop  offset="0.2092" style="stop-color:#A11D24"/>
			<stop  offset="0.7092" style="stop-color:#721816"/>
			<stop  offset="0.9133" style="stop-color:#630C0D"/>
		</linearGradient>
		<path fill="url(#SVGID_3_)" d="M3.51,18.81h14.4c0.5,0,0.9-0.4,0.9-0.9l0,0V3.51c0-0.5-0.4-0.9-0.9-0.9l0,0H3.51
			c-0.5,0-0.9,0.4-0.9,0.9l0,0v14.4C2.61,18.41,3.01,18.81,3.51,18.81L3.51,18.81z M4.41,4.41h12.6v12.6H4.41V4.41z"/>
		
			<linearGradient id="SVGID_4_" gradientUnits="userSpaceOnUse" x1="-498.59" y1="289.41" x2="-482.38" y2="289.41" gradientTransform="matrix(1 0 0 -1 539 300.12)">
			<stop  offset="0.0816" style="stop-color:#931B21"/>
			<stop  offset="0.2092" style="stop-color:#A11D24"/>
			<stop  offset="0.7092" style="stop-color:#721816"/>
			<stop  offset="0.9133" style="stop-color:#630C0D"/>
		</linearGradient>
		<path fill="url(#SVGID_4_)" d="M56.48,3.03c-0.16-0.27-0.45-0.43-0.77-0.43h-14.4c-0.5,0-0.9,0.4-0.9,0.9
			c0,0.11,0.02,0.22,0.06,0.32l0.58,1.55c1.29,3.44,1.29,7.23,0,10.68l-0.58,1.55c-0.17,0.47,0.06,0.98,0.53,1.16
			c0.1,0.04,0.21,0.06,0.32,0.06h14.4c0.5,0,0.9-0.4,0.9-0.9c0-0.14-0.03-0.28-0.09-0.4c-2.13-4.28-2.13-9.32,0-13.6
			C56.66,3.63,56.65,3.3,56.48,3.03z M54.33,17.01H42.61l0.12-0.33c1.44-3.85,1.44-8.09,0-11.94l-0.12-0.33h11.72
			C52.73,8.45,52.73,12.96,54.33,17.01z"/>
		
			<linearGradient id="SVGID_5_" gradientUnits="userSpaceOnUse" x1="-536.3939" y1="251.5889" x2="-520.2" y2="251.5889" gradientTransform="matrix(1 0 0 -1 539 300.12)">
			<stop  offset="0.0816" style="stop-color:#931B21"/>
			<stop  offset="0.2092" style="stop-color:#A11D24"/>
			<stop  offset="0.7092" style="stop-color:#721816"/>
			<stop  offset="0.9133" style="stop-color:#630C0D"/>
		</linearGradient>
		<path fill="url(#SVGID_5_)" d="M9.9,40.91l-7.2,14.4c-0.22,0.44-0.04,0.99,0.4,1.21c0.12,0.06,0.26,0.09,0.4,0.09h14.4
			c0.5,0,0.9-0.4,0.9-0.9c0-0.14-0.03-0.28-0.09-0.4l-7.2-14.4c-0.26-0.44-0.84-0.59-1.29-0.33C10.09,40.67,9.98,40.78,9.9,40.91z
			 M4.96,54.82l5.75-11.49l5.75,11.49H4.96z"/>
		
			<linearGradient id="SVGID_6_" gradientUnits="userSpaceOnUse" x1="-498.5895" y1="251.6036" x2="-482.39" y2="251.6036" gradientTransform="matrix(1 0 0 -1 539 300.12)">
			<stop  offset="0.0816" style="stop-color:#931B21"/>
			<stop  offset="0.2092" style="stop-color:#A11D24"/>
			<stop  offset="0.7092" style="stop-color:#721816"/>
			<stop  offset="0.9133" style="stop-color:#630C0D"/>
		</linearGradient>
		<path fill="url(#SVGID_6_)" d="M49.62,41.79l-0.25-0.76c-0.16-0.47-0.67-0.73-1.14-0.57c-0.27,0.09-0.48,0.3-0.57,0.57l-0.25,0.75
			c-1.6,4.79-3.9,9.31-6.83,13.41c-0.29,0.4-0.2,0.97,0.21,1.26c0.21,0.15,0.49,0.2,0.74,0.14l2.98-0.75c2.63-0.65,5.37-0.65,8,0
			l2.98,0.75c0.07,0.02,0.14,0.03,0.22,0.03c0.5,0,0.9-0.4,0.9-0.9c0-0.19-0.06-0.37-0.17-0.52C53.52,51.09,51.22,46.57,49.62,41.79
			z M52.95,54.1c-2.91-0.73-5.96-0.73-8.87,0l-0.69,0.17c2.08-3.21,3.8-6.63,5.13-10.21c1.33,3.58,3.05,7,5.13,10.21L52.95,54.1z"/>
		
			<linearGradient id="SVGID_7_" gradientUnits="userSpaceOnUse" x1="-514.14" y1="271.3825" x2="-504.63" y2="271.3825" gradientTransform="matrix(1 0 0 -1 539 300.12)">
			<stop  offset="0.0816" style="stop-color:#931B21"/>
			<stop  offset="0.2092" style="stop-color:#A11D24"/>
			<stop  offset="0.7092" style="stop-color:#721816"/>
			<stop  offset="0.9133" style="stop-color:#630C0D"/>
		</linearGradient>
		<path fill="url(#SVGID_7_)" d="M34.27,28.49l-3.19-3.19c-0.14-0.14-0.36-0.14-0.49,0c-0.14,0.14-0.14,0.36,0,0.49l2.6,2.6h-7.98
			c-0.19,0-0.35,0.16-0.35,0.35s0.16,0.35,0.35,0.35h7.97l-2.6,2.6c-0.14,0.14-0.14,0.36,0,0.49c0.07,0.07,0.16,0.1,0.25,0.1
			s0.18-0.03,0.25-0.1l3.19-3.19c0.07-0.07,0.1-0.15,0.1-0.25S34.33,28.56,34.27,28.49z"/>
		
			<linearGradient id="SVGID_8_" gradientUnits="userSpaceOnUse" x1="-514.14" y1="251.6025" x2="-504.63" y2="251.6025" gradientTransform="matrix(1 0 0 -1 539 300.12)">
			<stop  offset="0.0816" style="stop-color:#931B21"/>
			<stop  offset="0.2092" style="stop-color:#A11D24"/>
			<stop  offset="0.7092" style="stop-color:#721816"/>
			<stop  offset="0.9133" style="stop-color:#630C0D"/>
		</linearGradient>
		<path fill="url(#SVGID_8_)" d="M34.27,48.27l-3.19-3.19c-0.14-0.14-0.36-0.14-0.49,0c-0.14,0.14-0.14,0.36,0,0.49l2.6,2.6h-7.98
			c-0.19,0-0.35,0.16-0.35,0.35c0,0.19,0.16,0.35,0.35,0.35h7.97l-2.6,2.6c-0.14,0.14-0.14,0.36,0,0.49c0.07,0.07,0.16,0.1,0.25,0.1
			s0.18-0.03,0.25-0.1l3.19-3.19c0.07-0.07,0.1-0.15,0.1-0.25S34.33,48.34,34.27,48.27z"/>
		
			<linearGradient id="SVGID_9_" gradientUnits="userSpaceOnUse" x1="-514.14" y1="289.4125" x2="-504.63" y2="289.4125" gradientTransform="matrix(1 0 0 -1 539 300.12)">
			<stop  offset="0.0816" style="stop-color:#931B21"/>
			<stop  offset="0.2092" style="stop-color:#A11D24"/>
			<stop  offset="0.7092" style="stop-color:#721816"/>
			<stop  offset="0.9133" style="stop-color:#630C0D"/>
		</linearGradient>
		<path fill="url(#SVGID_9_)" d="M34.27,10.46l-3.19-3.19c-0.14-0.14-0.36-0.14-0.49,0c-0.14,0.14-0.14,0.36,0,0.49l2.6,2.6h-7.98
			c-0.19,0-0.35,0.16-0.35,0.35s0.16,0.35,0.35,0.35h7.97l-2.6,2.6c-0.14,0.14-0.14,0.36,0,0.49c0.07,0.07,0.16,0.1,0.25,0.1
			s0.18-0.03,0.25-0.1l3.19-3.19c0.07-0.07,0.1-0.15,0.1-0.25S34.33,10.53,34.27,10.46z"/>
	</g>
	<g>
		<path fill="#FFFFFF" d="M8.1,35.11c4.47,0,8.1-3.63,8.1-8.1s-3.63-8.1-8.1-8.1S0,22.53,0,27.01l0,0C0,31.48,3.63,35.1,8.1,35.11z
			 M8.1,20.7c3.48,0,6.3,2.82,6.3,6.3s-2.82,6.3-6.3,6.3S1.8,30.48,1.8,27C1.8,23.53,4.62,20.71,8.1,20.7z"/>
		<path fill="#FFFFFF" d="M45.91,18.9c-4.47,0-8.1,3.62-8.1,8.09c0,2.08,0.8,4.08,2.23,5.58c0.34,0.36,0.91,0.38,1.27,0.03
			c0.01-0.01,0.02-0.02,0.03-0.03c2.38-2.52,6.36-2.64,8.88-0.26c0.09,0.08,0.17,0.17,0.26,0.26c0.34,0.36,0.91,0.38,1.27,0.03
			c0.01-0.01,0.02-0.02,0.03-0.03c3.08-3.24,2.95-8.37-0.29-11.45C49.99,19.7,47.99,18.9,45.91,18.9z M51.05,30.65
			c-2.98-2.46-7.29-2.46-10.27,0c-2.02-2.84-1.35-6.77,1.48-8.79s6.77-1.35,8.79,1.48C52.6,25.53,52.6,28.46,51.05,30.65z"/>
		<path fill="#FFFFFF" d="M0.9,16.2h14.4c0.5,0,0.9-0.4,0.9-0.9l0,0V0.9c0-0.5-0.4-0.9-0.9-0.9l0,0H0.9C0.4,0,0,0.4,0,0.9l0,0v14.4
			C0,15.8,0.4,16.2,0.9,16.2L0.9,16.2z M1.8,1.8h12.6v12.6H1.8V1.8z"/>
		<path fill="#FFFFFF" d="M53.88,0.43C53.71,0.16,53.42,0,53.11,0h-14.4c-0.5,0-0.9,0.4-0.9,0.9c0,0.11,0.02,0.22,0.06,0.32
			l0.58,1.55c1.29,3.44,1.29,7.23,0,10.68L37.87,15c-0.17,0.47,0.06,0.98,0.53,1.16c0.1,0.04,0.21,0.06,0.32,0.06h14.4
			c0.5,0,0.9-0.4,0.9-0.9c0-0.14-0.03-0.28-0.09-0.4c-2.13-4.28-2.13-9.32,0-13.6C54.06,1.02,54.04,0.69,53.88,0.43z M51.72,14.4
			H40.01l0.12-0.33c1.44-3.85,1.44-8.09,0-11.94L40.01,1.8h11.72C50.12,5.85,50.12,10.36,51.72,14.4z"/>
		<path fill="#FFFFFF" d="M7.3,38.31l-7.2,14.4c-0.22,0.44-0.04,0.99,0.4,1.21c0.12,0.06,0.26,0.09,0.4,0.09h14.4
			c0.5,0,0.9-0.4,0.9-0.9c0-0.14-0.03-0.28-0.09-0.4l-7.2-14.4c-0.26-0.44-0.84-0.59-1.29-0.33C7.49,38.06,7.38,38.17,7.3,38.31z
			 M2.36,52.21L8.1,40.72l5.75,11.49H2.36z"/>
		<path fill="#FFFFFF" d="M47.02,39.18l-0.25-0.76c-0.16-0.47-0.67-0.73-1.14-0.57c-0.27,0.09-0.48,0.3-0.57,0.57l-0.25,0.75
			c-1.6,4.79-3.9,9.31-6.83,13.41c-0.29,0.4-0.2,0.97,0.21,1.26c0.21,0.15,0.49,0.2,0.74,0.14l2.98-0.75c2.63-0.65,5.37-0.65,8,0
			l2.98,0.75c0.07,0.02,0.14,0.03,0.22,0.03c0.5,0,0.9-0.4,0.9-0.9c0-0.19-0.06-0.37-0.17-0.52C50.91,48.49,48.61,43.97,47.02,39.18
			z M50.35,51.49c-2.91-0.73-5.96-0.73-8.87,0l-0.69,0.17c2.08-3.21,3.8-6.63,5.13-10.21c1.33,3.58,3.05,7,5.13,10.21L50.35,51.49z"
			/>
		<path fill="#FFFFFF" d="M31.66,25.88l-3.19-3.19c-0.14-0.14-0.36-0.14-0.49,0c-0.14,0.14-0.14,0.36,0,0.49l2.6,2.6H22.6
			c-0.19,0-0.35,0.16-0.35,0.35s0.16,0.35,0.35,0.35h7.97l-2.6,2.6c-0.14,0.14-0.14,0.36,0,0.49c0.07,0.07,0.16,0.1,0.25,0.1
			s0.18-0.03,0.25-0.1l3.19-3.19c0.07-0.07,0.1-0.15,0.1-0.25C31.76,26.03,31.72,25.95,31.66,25.88z"/>
		<path fill="#FFFFFF" d="M31.66,45.66l-3.19-3.19c-0.14-0.14-0.36-0.14-0.49,0c-0.14,0.14-0.14,0.36,0,0.49l2.6,2.6H22.6
			c-0.19,0-0.35,0.16-0.35,0.35c0,0.19,0.16,0.35,0.35,0.35h7.97l-2.6,2.6c-0.14,0.14-0.14,0.36,0,0.49c0.07,0.07,0.16,0.1,0.25,0.1
			s0.18-0.03,0.25-0.1l3.19-3.19c0.07-0.07,0.1-0.15,0.1-0.25S31.72,45.73,31.66,45.66z"/>
		<path fill="#FFFFFF" d="M31.66,7.85l-3.19-3.19c-0.14-0.14-0.36-0.14-0.49,0c-0.14,0.14-0.14,0.36,0,0.49l2.6,2.6H22.6
			c-0.19,0-0.35,0.16-0.35,0.35c0,0.19,0.16,0.35,0.35,0.35h7.97l-2.6,2.6c-0.14,0.14-0.14,0.36,0,0.49c0.07,0.07,0.16,0.1,0.25,0.1
			s0.18-0.03,0.25-0.1l3.19-3.19c0.07-0.07,0.1-0.15,0.1-0.25C31.76,8,31.72,7.92,31.66,7.85z"/>
	</g>
</g>
</svg>
