<?xml version="1.0" encoding="utf-8"?>
<!-- Generator: Adobe Illustrator 17.0.0, SVG Export Plug-In . SVG Version: 6.00 Build 0)  -->
<!DOCTYPE svg PUBLIC "-//W3C//DTD SVG 1.1//EN" "http://www.w3.org/Graphics/SVG/1.1/DTD/svg11.dtd">
<svg version="1.1" id="Layer_1" xmlns="http://www.w3.org/2000/svg" xmlns:xlink="http://www.w3.org/1999/xlink" x="0px" y="0px"
	 width="400px" height="400px" viewBox="0 -25 400 400" enable-background="new 0 -25 400 400" xml:space="preserve">
<g>
	<path fill="#FFFFFF" d="M40.02,251.82l0.3-0.04c16.12-2.02,29.62-4.17,40.94-6.33v0.02l0.35-0.07c1.01-0.2,2-0.4,2.98-0.59
		c47.39-9.43,54.09-18.97,54.41-19.46l0.04-0.06V177.2h-14.06H91.94H73.15l-0.06,0.04c-28.9,19.5-33.01,73.73-33.05,74.27
		L40.02,251.82z M138.54,177.7v47.43c-0.37,0.49-3.46,4.13-15.98,8.91c-1.98,0.76-4.27,1.56-6.9,2.41l9.23-58.75H138.54
		L138.54,177.7z M124.39,177.7l-9.2,58.54c-5.84,1.9-14.5,4.54-26.13,7.1c-2.28,0.48-4.68,0.97-7.19,1.46l10.5-67.1
		C92.36,177.7,124.39,177.7,124.39,177.7z M73.31,177.7h18.55l-10.52,67.2c-11.2,2.16-24.65,4.32-40.78,6.35
		C40.93,246.84,45.78,196.34,73.31,177.7z"/>
	<path fill="#FFFFFF" d="M118.78,319.5h11.79v-3.31h-11.79V319.5z M119.28,316.69h10.79V319h-10.79V316.69z"/>
	<path fill="#FFFFFF" d="M118.78,354.61h11.79v-3.31h-11.79V354.61z M119.28,351.8h10.79v2.31h-10.79V351.8z"/>
	<path fill="#FFFFFF" d="M384.55,335.13c0,3.49,2.85,6.32,6.36,6.32c0.61,0,1.23-0.09,1.82-0.27l-0.14-0.48
		c-0.55,0.16-1.12,0.25-1.68,0.25c-3.23,0-5.86-2.61-5.86-5.82c0-1.1,0.31-2.12,0.85-3h6.76v-0.5h-6.42
		c1.07-1.41,2.76-2.32,4.67-2.32c0.56,0,1.13,0.08,1.68,0.25l0.14-0.48c-0.6-0.18-1.21-0.27-1.82-0.27c-2.2,0-4.15,1.12-5.29,2.82
		h-0.59c1.2-1.99,3.38-3.32,5.87-3.32c0.55,0,1.12,0.07,1.69,0.22l0.12-0.48c-0.61-0.16-1.22-0.23-1.81-0.23
		c-2.78,0-5.21,1.55-6.46,3.82h-8.28v-1.4h-3.32v1.4h-4.02c1.69-10.61,10.95-18.74,22.08-18.74c0.52,0,1.07,0.02,1.73,0.07l0.04-0.5
		c-0.67-0.05-1.24-0.08-1.77-0.08c-11.41,0-20.89,8.36-22.59,19.24h-11.79c0.13-1.26,0.33-2.5,0.59-3.71h7.75v-10.33h-3.67
		c1.77-2.95,3.97-5.63,6.52-7.92h24.94v-0.5H368.3c6.07-5.23,13.97-8.41,22.61-8.41c0.56,0,1.15,0.01,1.74,0.04l0.02-0.5
		c-0.6-0.03-1.2-0.04-1.76-0.04c-8.9,0-17.02,3.32-23.21,8.77v-9.19h24.96v-0.5H367.7v-0.9h24.96v-0.5H367.2v1.4H179.98v-9.21
		l0.05,0.04l0.07,0.05h0.08c0.68,0,4.47,0,10.59-0.01v4.01h201.9v-0.5h-201.4v-3.51c43.58-0.04,199.6-0.17,201.4-0.17v-0.5
		c-1.8,0-157.81,0.14-201.4,0.17v-2.51h201.4v-0.5h-201.9v3.01c-5.89,0-9.63,0.01-10.51,0.01l-0.29-0.22V90.65h212.7v-0.5H179.48
		v198.97l-11.41-8.74v-79.44c0-0.82-0.56-1.52-1.35-1.7l-7.91-1.85v-18.06c0-5.2-4.06-10.15-8.94-11.56c3.78-0.8,6.64-6.8,6.76-7.05
		c4.31-7.31,1.67-44.99,1.56-46.59l-0.02-0.23h-0.93c-50.93,0-78,14.57-91.74,26.8c-14.92,13.27-17.8,26.73-17.83,26.87l-0.06,0.3
		h0.12l-0.96,1.59c-2.75,2.42-9.65,9.06-16.49,20c-7.63,12.21-16.62,32.28-17.51,59.84l-0.06,0.19l-0.01,4.33c0,0.12,0,0.24,0,0.36
		v0.23l0,0l-0.05,20.3c-0.69,0.54-1.14,1.37-1.14,2.31v39.52c0,0.89,0.41,1.68,1.04,2.23l-0.02,8.65h-0.26c-2.76,0-5,2.23-5,4.98
		v0.37c0,2.75,2.25,4.98,5,4.98h63.89c2.76,0,5.01-2.23,5.01-4.98v-0.37c0-0.1-0.02-0.19-0.03-0.29c0.52,0.01,1.05,0.02,1.59,0.02h7
		c-0.09,0.99-0.14,1.99-0.14,3c0,19.23,15.73,34.87,35.06,34.87s35.06-15.64,35.06-34.87c0-1.01-0.05-2.01-0.14-3h17.08v4.21h52.73
		v-4.21h53.14v4.21h42.85v-4.21H356c-0.09,0.99-0.14,1.99-0.14,3c0,19.23,15.73,34.87,35.06,34.87c0.57,0,1.16-0.01,1.76-0.04
		l-0.02-0.5c-0.59,0.03-1.18,0.04-1.74,0.04c-19.06,0-34.56-15.42-34.56-34.37c0-1.01,0.05-2.01,0.14-3h11.76
		c-0.13,0.98-0.21,1.98-0.21,3c0,12.54,10.26,22.74,22.86,22.74c0.54,0,1.11-0.02,1.77-0.07l-0.04-0.5
		c-0.64,0.05-1.21,0.07-1.73,0.07c-12.33,0-22.36-9.98-22.36-22.24c0-1.02,0.08-2.02,0.21-3h4.09v8.42h3.32v-8.42h8.04
		c-0.42,0.92-0.65,1.93-0.65,3c0,4.04,3.3,7.32,7.36,7.32c0.59,0,1.2-0.08,1.81-0.23l-0.12-0.48c-0.57,0.14-1.14,0.22-1.69,0.22
		c-3.78,0-6.86-3.06-6.86-6.82c0-1.08,0.26-2.09,0.71-3h0.55C384.83,333.04,384.55,334.05,384.55,335.13z M364.38,318.1v9.33h-7.14
		c0.77-3.32,2.02-6.45,3.68-9.33H364.38z M283.02,327.43v-3.71h41.85v3.71H283.02z M324.86,327.93v3.71h-41.85v-3.71H324.86z
		 M228.88,317.6h-18.35v10.33h18.35v3.71h-51.73v-17.76h51.73V317.6z M211.03,327.43v-9.33h17.85v9.33H211.03z M229.38,318.1h53.14
		v5.12v0.5v3.71h-53.14L229.38,318.1L229.38,318.1z M324.86,317.6h-41.85v-6.52h41.85V317.6z M324.86,318.1v5.12h-41.85v-5.12
		H324.86z M325.36,323.72v-0.5v-5.12h34.98c-1.63,2.88-2.86,6.02-3.61,9.33h-31.37L325.36,323.72L325.36,323.72z M166.6,199.72
		c0.57,0.13,0.97,0.63,0.97,1.22v79.05l-0.34-0.26l-0.07-0.05h-2.1v-77.75l-6.26-1.46v-2.57L166.6,199.72z M165.07,280.19h1.93
		l0.57,0.44v7.73c0,0.69-0.56,1.25-1.25,1.25s-1.25-0.56-1.25-1.25V280.19z M164.57,279.69h-5.76v-78.7l5.76,1.35V279.69z
		 M158.29,200.35l-8.53-1.99c-0.33-0.08-0.6-0.27-0.78-0.56c-0.18-0.28-0.23-0.62-0.15-0.94c0.13-0.57,0.63-0.96,1.22-0.96
		c0.09,0,0.19,0.01,0.28,0.03l7.96,1.86L158.29,200.35L158.29,200.35z M65.85,141.04c24.78-22.02,63.37-26.64,91.38-26.64h0.46
		c0.22,3.25,2.55,39.18-1.52,46.09c-0.03,0.07-3.28,6.88-7.14,6.88h-1.91h-0.76h-0.52H48.22C48.74,165.32,52.27,153.11,65.85,141.04
		z M30.68,189.74c5.93-9.5,11.93-15.75,15.17-18.79l-16.1,26.64l-16.41,49.95C14.55,221.02,23.26,201.63,30.68,189.74z
		 M47.67,169.34c-1.31,3.88-3.65,8.37-6.57,13.95c-7.42,14.21-18.62,35.68-22.49,68.51c-0.23,1.95-3.58,2.16-5.01,2.16l0,0
		c-0.17,0-0.31,0-0.42-0.01c0-1.56,0.04-3.08,0.09-4.59l16.94-51.55l16.94-28.03C47.34,169.62,47.52,169.46,47.67,169.34z
		 M13.14,274.98c0.39-0.25,0.84-0.4,1.34-0.4h0.21c1.36,0,2.47,1.1,2.47,2.45v39.52c0,1.35-1.11,2.45-2.47,2.45h-0.22
		c-0.53,0-1.03-0.17-1.43-0.46L13.14,274.98z M12,316.55v-39.52c0-0.63,0.25-1.2,0.64-1.63l-0.1,42.67
		C12.2,317.65,12,317.12,12,316.55z M13.03,319.12c0.43,0.24,0.91,0.38,1.43,0.38h0.21c1.64,0,2.97-1.33,2.97-2.95v-39.52
		c0-1.63-1.33-2.95-2.97-2.95h-0.21c-0.48,0-0.93,0.13-1.33,0.33l0.04-19.96c0.11,0,0.26,0.01,0.43,0.01l0,0
		c1.56,0,5.23-0.25,5.5-2.6c3.85-32.73,15.03-54.16,22.43-68.33c3.13-6,5.61-10.74,6.86-14.85l0.23-0.75L48,168.42
		c0,0-0.03,0.03-0.05,0.04l0.34-0.57h97.31l0.06,0.06l0.12-0.01c0.09-0.01,0.18-0.02,0.27-0.03c0.1-0.01,0.2-0.03,0.3-0.03h0.76
		c5.74,0,11.17,5.57,11.17,11.47v17.94l-7.85-1.84c-0.93-0.21-1.89,0.38-2.1,1.31c-0.11,0.46-0.03,0.92,0.22,1.32
		s0.63,0.67,1.09,0.78l8.65,2.02v78.82h-20.67v-5.62v-16.85h-16.03v16.85v5.62H82.72c-18.76,0-29.53,6.57-32.14,19.54l-17.61,0.02
		V256.2c-1.39-38.07,24.86-76.93,25.12-77.32l0.14-0.21l-1.24-0.85l-0.14,0.21c-0.27,0.39-26.79,39.67-25.38,78.19v44.54l18.85-0.03
		c-0.24,1.63-0.37,3.36-0.37,5.18c0,2.7,0.27,5.19,0.79,7.47H39.72h-6.29c-2.76,0-5,2.23-5,4.98v0.37c0,2.75,2.25,4.98,5,4.98h6.29
		h11.57h0.86c0.47,0,0.93-0.09,1.36-0.21c0.72-0.14,1.33-0.37,1.84-0.68c1.53,1.79,3.39,3.32,5.57,4.6H13.01L13.03,319.12z
		 M76.15,327.93c2.21,0,4.04,1.59,4.42,3.68c-7.14-0.2-13.01-1.43-17.63-3.68H75.5H76.15z M61.99,327.43
		c-2.45-1.32-4.51-2.95-6.18-4.89c0.91-0.73,1.36-1.8,1.36-3.23v-0.57v-0.37v-0.63c0-2.54-2.18-4.38-5.19-4.38
		c-0.23,0-0.47,0.01-0.68,0.03h-0.03c-0.54-2.28-0.82-4.77-0.82-7.47c0-1.83,0.13-3.55,0.38-5.18l23.58-0.03h0.47l0.21-0.42
		c0.02-0.04,1.89-3.84,6.67-7.63c4.45-3.53,12.36-7.73,24.83-7.73h0.25v-1.5h-0.25c-12.9,0-21.13,4.38-25.76,8.05
		c-4.17,3.31-6.24,6.61-6.86,7.73l-22.86,0.03c2.61-12.64,13.21-19.04,31.62-19.04h38.88v2.81h16.03v-2.81h20.67v13.54h-53.24
		c-0.08,0-7.6,0.4-15.02,4.77c-6.82,4.02-14.95,12.29-15.03,28.92L61.99,327.43L61.99,327.43z M51.31,323.22H40.22v-9.33h10.64
		c0.81,3.21,2.16,6.01,4.04,8.37c-0.45,0.35-0.97,0.61-1.53,0.77C52.76,323.15,52.08,323.22,51.31,323.22z M39.72,323.22h-6.29
		c-2.48,0-4.5-2.01-4.5-4.48v-0.37c0-2.47,2.02-4.48,4.5-4.48h6.29V323.22z M56.67,318.37v0.37c0,1.25-0.52,2.38-1.35,3.19
		c-1.81-2.28-3.12-4.96-3.92-8.04h0.76C54.64,313.88,56.67,315.9,56.67,318.37z M57.12,178.53l0.41,0.28
		c-2.08,3.13-26.41,40.62-25.07,77.4v43.55l18.01-0.02c-0.03,0.16-0.05,0.33-0.08,0.5l-18.43,0.03v-44.05
		C30.62,219.29,55.03,181.66,57.12,178.53z M50.99,299.73l23.11-0.03h0.15l0.07-0.13c0.52-0.95,2.54-4.32,6.81-7.7
		c4.54-3.6,12.59-7.89,25.2-7.94v0.5c-12.47,0.05-20.42,4.28-24.89,7.83c-4.92,3.9-6.79,7.77-6.81,7.8l-0.07,0.14l-23.66,0.03
		C50.93,300.06,50.96,299.91,50.99,299.73z M137.12,274.07h-15.03v-16.35h15.03V274.07z M137.12,274.57v5.12h-15.03v-5.12H137.12z
		 M137.12,280.19v2.31h-15.03v-2.31H137.12z M80.67,332.41v0.37c0,2.47-2.02,4.48-4.51,4.48H12.26c-2.48,0-4.5-2.01-4.5-4.48v-0.37
		c0-2.47,2.02-4.48,4.5-4.48h0.25h49.3c4.82,2.57,11.09,3.97,18.81,4.18C80.64,332.22,80.67,332.3,80.67,332.41z M159.21,335.15
		c0,18.95-15.5,34.37-34.56,34.37s-34.56-15.42-34.56-34.37c0-1.01,0.05-2.01,0.14-3h11.76c-0.13,0.98-0.21,1.98-0.21,3
		c0,12.54,10.26,22.74,22.86,22.74s22.86-10.2,22.86-22.74c0-1.02-0.07-2.02-0.21-3h11.76
		C159.15,333.12,159.21,334.12,159.21,335.15z M147.01,335.15c0,12.26-10.03,22.24-22.36,22.24s-22.36-9.98-22.36-22.24
		c0-1.02,0.08-2.02,0.21-3h3.58v8.42h3.32v-8.42h8.55c-0.42,0.92-0.65,1.93-0.65,3c0,4.04,3.3,7.32,7.36,7.32
		c4.06,0,7.36-3.28,7.36-7.32c0-1.07-0.24-2.08-0.65-3h7.19v8.42h3.32v-8.42h4.94C146.93,333.12,147.01,334.12,147.01,335.15z
		 M108.89,331.63h-2.32v-0.9h2.32V331.63z M108.89,332.13v7.92h-2.32v-7.92H108.89z M129.32,331.63h-9.34
		c1.07-1.41,2.76-2.32,4.67-2.32C126.54,329.31,128.25,330.23,129.32,331.63z M119.64,332.13h10.02c0.53,0.88,0.85,1.9,0.85,3
		c0,3.21-2.63,5.82-5.86,5.82s-5.86-2.61-5.86-5.82C118.78,334.04,119.09,333.01,119.64,332.13z M121.48,329.66
		c0.04-0.02,0.08-0.05,0.13-0.08C121.58,329.6,121.53,329.63,121.48,329.66z M121.67,329.56c0.89-0.47,1.9-0.74,2.98-0.74l0,0
		C123.56,328.81,122.56,329.09,121.67,329.56z M118.28,335.15c0,3.48,2.85,6.32,6.36,6.32l0,0
		C121.14,341.47,118.28,338.62,118.28,335.15L118.28,335.15z M131.5,335.15c0-1.08-0.26-2.09-0.71-3l0,0
		C131.24,333.04,131.5,334.06,131.5,335.15c0,3.76-3.07,6.82-6.85,6.82l0,0C128.43,341.96,131.5,338.91,131.5,335.15z
		 M130.51,331.63c-1.2-1.99-3.38-3.32-5.87-3.32l0,0C127.14,328.31,129.32,329.66,130.51,331.63L130.51,331.63z M118.76,331.63
		L118.76,331.63c0.44-0.73,1.02-1.38,1.7-1.9C119.78,330.26,119.22,330.91,118.76,331.63z M118.5,332.13
		c-0.45,0.91-0.71,1.92-0.71,3l0,0C117.78,334.06,118.04,333.04,118.5,332.13L118.5,332.13z M141.36,331.63h-2.32v-0.9h2.32V331.63z
		 M141.36,332.13v7.92h-2.32v-7.92H141.36z M141.86,331.63v-1.4h-3.32v1.4h-7.44c-1.25-2.27-3.68-3.82-6.46-3.82
		s-5.21,1.55-6.46,3.82h-8.79v-1.4h-3.32v1.4h-3.51c1.69-10.61,10.95-18.74,22.08-18.74s20.39,8.14,22.08,18.74H141.86z
		 M124.64,312.4c-11.41,0-20.89,8.36-22.59,19.24H90.26c1.77-17.32,16.51-30.87,34.38-30.87s32.61,13.56,34.38,30.87h-11.79
		C145.54,320.75,136.06,312.4,124.64,312.4z M159.53,331.63c-1.77-17.59-16.74-31.37-34.88-31.37s-33.11,13.78-34.88,31.37h-7.04
		c-0.55,0-1.1-0.01-1.64-0.02c-0.38-2.37-2.44-4.19-4.93-4.19h-0.63c0.08-16.38,8.06-24.53,14.76-28.48
		c7.31-4.31,14.73-4.71,14.79-4.71h53.72v-14.04h5.76v8.17c0,0.96,0.79,1.75,1.75,1.75s1.75-0.79,1.75-1.75v-7.35l11.41,8.74v10.09
		H367.2v9.63c-2.58,2.36-4.79,5.1-6.57,8.12h-35.27v-7.02h-42.85v7.02h-53.14v-4.21h-52.73v18.25L159.53,331.63L159.53,331.63z
		 M228.88,335.85h-51.73v-3.71h51.73V335.85z M229.38,331.63v-3.71h53.14v3.71H229.38z M324.86,335.85h-41.85v-3.71h41.85V335.85z
		 M325.36,331.63v-3.71h31.25c-0.26,1.22-0.46,2.45-0.58,3.71H325.36z M373.35,330.73h2.32v0.9h-2.32V330.73z M375.68,340.06h-2.32
		v-7.92h2.32V340.06z"/>
	<polygon fill="#FFFFFF" points="392.67,316.69 392.67,316.19 385.55,316.19 385.55,319.5 392.67,319.5 392.67,319 386.05,319 
		386.05,316.69 	"/>
	<polygon fill="#FFFFFF" points="392.67,351.8 392.67,351.3 385.55,351.3 385.55,354.61 392.67,354.61 392.67,354.11 386.05,354.11 
		386.05,351.8 	"/>
	<path fill="#FFFFFF" d="M55.78,257.23H42.52c-1.54,0-2.79,1.25-2.79,2.78v0.56c0,1.53,1.25,2.78,2.79,2.78h13.27
		c1.54,0,2.79-1.25,2.79-2.78v-0.56C58.57,258.48,57.32,257.23,55.78,257.23z M58.07,260.57c0,1.26-1.03,2.28-2.29,2.28H42.52
		c-1.26,0-2.29-1.02-2.29-2.28v-0.56c0-1.26,1.03-2.28,2.29-2.28h13.27c1.26,0,2.29,1.02,2.29,2.28L58.07,260.57L58.07,260.57z"/>
	<path fill="#FFFFFF" d="M206.83,281.59h65.78c5.74,0,10.41-4.65,10.41-10.36V113.14c0-5.71-4.67-10.36-10.41-10.36h-65.78
		c-5.74,0-10.41,4.65-10.41,10.36v158.09C196.4,276.94,201.08,281.59,206.83,281.59z M196.9,113.14c0-5.44,4.45-9.86,9.91-9.86
		h65.78c5.47,0,9.91,4.42,9.91,9.86v158.09c0,5.44-4.45,9.86-9.91,9.86h-65.78c-5.47,0-9.91-4.42-9.91-9.86V113.14L196.9,113.14z"/>
	<path fill="#FFFFFF" d="M309.86,102.79c-5.74,0-10.41,4.65-10.41,10.36v158.09c0,5.71,4.67,10.36,10.41,10.36h65.77
		c5.74,0,10.42-4.65,10.42-10.36v-158.1c0-5.71-4.67-10.36-10.42-10.36h-65.77V102.79z M385.55,113.14v158.09
		c0,5.44-4.45,9.86-9.92,9.86h-65.77c-5.47,0-9.91-4.42-9.91-9.86V113.14c0-5.44,4.45-9.86,9.91-9.86h65.77
		C381.11,103.29,385.55,107.71,385.55,113.14z"/>
	<path fill="#FFFFFF" d="M198.32,97.53v-0.22c0-1.62-1.33-2.95-2.96-2.95h-8.69c-1.63,0-2.96,1.32-2.96,2.95v0.22
		c0,1.62,1.33,2.95,2.96,2.95h8.69C197,100.48,198.32,99.16,198.32,97.53z M195.36,99.98h-8.69c-1.36,0-2.46-1.1-2.46-2.45v-0.22
		c0-1.35,1.1-2.45,2.46-2.45h8.69c1.36,0,2.46,1.1,2.46,2.45v0.22C197.82,98.88,196.72,99.98,195.36,99.98z"/>
</g>
</svg>
