<?xml version="1.0" encoding="utf-8"?>
<!-- Generator: Adobe Illustrator 17.0.0, SVG Export Plug-In . SVG Version: 6.00 Build 0)  -->
<!DOCTYPE svg PUBLIC "-//W3C//DTD SVG 1.1//EN" "http://www.w3.org/Graphics/SVG/1.1/DTD/svg11.dtd">
<svg version="1.1" id="Layer_1" xmlns="http://www.w3.org/2000/svg" xmlns:xlink="http://www.w3.org/1999/xlink" x="0px" y="0px"
	 width="400px" height="400px" viewBox="0 -25 400 400" enable-background="new 0 -25 400 400" xml:space="preserve">
<g>
	<path fill="#FFFFFF" d="M39.79,236.23l0.3-0.04c16.05-1.94,29.5-4.01,40.77-6.1v0.02l0.35-0.07c0.9-0.17,1.78-0.34,2.66-0.52
		c47.47-9.1,54.18-18.35,54.49-18.83l0.04-0.06v-46.24h-14.01h-32.9H72.8l-0.06,0.04c-28.78,18.78-32.88,70.97-32.92,71.5
		L39.79,236.23z M137.91,164.89v45.59c-0.44,0.55-4.54,5.15-22.77,10.89l9.18-56.48H137.91z M123.81,164.89l-9.16,56.34
		c-8.27,2.6-16.37,4.74-24.94,6.59c-2.61,0.54-5.35,1.09-8.24,1.63l10.45-64.56H123.81z M72.95,164.89h18.48l-10.47,64.66
		c-11.23,2.1-24.63,4.17-40.62,6.11C40.71,231.36,45.56,182.82,72.95,164.89z"/>
	<path fill="#FFFFFF" d="M118.23,301.44h11.75v-3.2h-11.75V301.44z M118.73,298.73h10.75v2.2h-10.75V298.73z"/>
	<path fill="#FFFFFF" d="M118.23,335.24h11.75v-3.2h-11.75V335.24z M118.73,332.53h10.75v2.2h-10.75V332.53z"/>
	<path fill="#FFFFFF" d="M392.44,297.98c-0.8,0.5-1.56,1.04-2.28,1.61h-15.02c1.74-2.82,3.9-5.39,6.43-7.61h11.01v-0.5h-10.4
		c3.05-2.56,6.57-4.64,10.49-6.05l-0.17-0.47c-4.17,1.5-7.91,3.74-11.11,6.52h-15.24v-8.96h26.43v-0.5h-26.43v-0.85h26.43v-0.5
		h-26.93v1.35H179.17v-8.88l0.12,0.09h0.08c0.52,0,4.25,0,10.55-0.01v3.89h202.65v-0.5H190.42v-3.39
		c31.32-0.02,123.21-0.07,202.15-0.11v-0.5c-78.94,0.04-170.83,0.1-202.15,0.11v-2.37h202.15v-0.5H189.92v2.87
		c-6.02,0-9.71,0.01-10.46,0.01l-0.28-0.21V81.07h213.39v-0.5h-213.9v191.57l-4.23-3.12V187.2c0-4.02-2.83-7.46-6.87-8.37
		l-9.49-2.13v-10.31c0-4.97-4.03-9.7-8.87-11.06c3.74-0.8,6.58-6.56,6.7-6.8c4.29-7.04,1.67-43.35,1.55-44.89l-0.02-0.23h-0.92
		c-50.72,0-77.68,14.04-91.36,25.82C50.3,142.02,47.43,155,47.4,155.13l-0.06,0.3h0.11l-0.86,1.37c-2.68,2.27-9.63,8.69-16.51,19.33
		c-7.6,11.76-16.55,31.11-17.44,57.66l-0.07,0.2l-0.01,4.32c0,0.05,0,0.1,0,0.15v0.23l0,0l-0.05,19.6
		c-0.69,0.52-1.14,1.32-1.14,2.23v38.06c0,0.86,0.41,1.63,1.03,2.15l-0.02,8.32h-0.22c-2.75,0-4.99,2.16-4.99,4.8v0.35
		c0,2.65,2.24,4.81,4.99,4.81h63.63c2.75,0,4.99-2.16,4.99-4.81v-0.35c0-0.09-0.02-0.18-0.03-0.27c0.52,0.01,1.04,0.02,1.58,0.02
		h6.97c-0.08,0.93-0.13,1.87-0.13,2.81c0,18.52,15.66,33.59,34.92,33.59s34.92-15.07,34.92-33.59c0-0.95-0.05-1.89-0.13-2.81h39.5
		v4.06h52.51v-4.06h43.08v4.06h42.67v-4.06h33.31c-0.08,0.93-0.13,1.87-0.13,2.81c0,13.94,9.12,26.58,22.68,31.46l0.17-0.47
		c-13.37-4.81-22.35-17.27-22.35-30.99c0-0.95,0.05-1.88,0.14-2.81h11.7c-0.12,0.93-0.19,1.87-0.19,2.81
		c0,7.49,3.92,14.39,10.49,18.44l0.26-0.43c-6.42-3.96-10.25-10.7-10.25-18.02c0-0.95,0.07-1.89,0.19-2.81h4.08v8.11h3.31v-8.11
		h2.53v-0.5h-2.53v-1.35h-3.31v1.35h-4c0.2-1.22,0.5-2.4,0.9-3.56h8.94v-0.5h-8.76c1.32-3.45,3.54-6.55,6.52-8.96h2.24v-0.5h-1.59
		c0.55-0.42,1.12-0.82,1.72-1.19L392.44,297.98z M389.54,321.22h-2.31v-7.61h2.31V321.22z M387.23,312.26h2.31v0.85h-2.31V312.26z
		 M167.46,179.32c3.82,0.85,6.48,4.09,6.48,7.88v81.45l-7.54-5.56h-8.32v-85.87L167.46,179.32z M75.78,309.55
		c2.2,0,4.02,1.52,4.4,3.52c-7.09-0.19-12.93-1.37-17.52-3.52h12.48H75.78z M61.66,309.05c-2.45-1.28-4.51-2.86-6.18-4.74
		c0.89-0.75,1.39-1.82,1.39-3.14v-0.48v-0.35c0-2.96-1.57-4.55-4.63-4.77c-0.12-0.01-0.23-0.03-0.35-0.03h-0.22
		c-0.06,0-0.1-0.01-0.16-0.01c-0.16,0-0.32,0-0.48,0.01H51c-0.54-2.19-0.81-4.59-0.81-7.19c0-0.94,0.04-1.85,0.11-2.74l25.56-0.03
		h0.15l0.85-1.71c0.07-0.13,7.02-13.48,29.23-13.48h0.25v-6.06h-0.25c-21.19,0-30.67,10.53-33.83,15.19l-20.8,0.03
		c3.43-10.59,13.76-15.95,30.86-15.95h38.72v2.7H137v-2.7h19.69v7.86c0,1.34,0.33,2.6,0.89,3.73v1.43h-53
		c-0.08,0-7.57,0.39-14.96,4.6c-6.79,3.87-14.89,11.84-14.97,27.85H61.66V309.05z M51.84,304.99h-0.81H40v-8.96h10.6
		c0.81,3.09,2.14,5.77,4.01,8.05c-0.74,0.55-1.64,0.88-2.64,0.9C51.93,304.99,51.89,304.99,51.84,304.99z M39.5,304.99h-6.26
		c-2.47,0-4.49-1.93-4.49-4.3v-0.35c0-2.37,2.01-4.31,4.49-4.31h6.26V304.99z M52.76,296.12c0.01,0,0.03,0,0.04,0.01
		c2.04,0.41,3.57,2.14,3.57,4.21v0.35c0,1.2-0.52,2.29-1.35,3.07c-1.8-2.19-3.1-4.77-3.9-7.73c0.31-0.01,0.6,0,0.89,0.01
		C52.27,296.05,52.52,296.08,52.76,296.12z M54.86,164.31l4.34,2.86c-2.11,3.09-25.85,38.71-24.55,73.15v39.73l16.13-0.02
		c-0.46,1.58-0.77,3.27-0.94,5.07l-20.44,0.03v-44.71C28.01,203.76,52.54,167.64,54.86,164.31z M51.3,280.04l21.1-0.03h0.13
		l0.07-0.11c3.02-4.52,12.3-15,33.24-15.08v5.06c-22.39,0.1-29.36,13.62-29.43,13.76l-0.71,1.44l-25.36,0.03
		C50.51,283.3,50.83,281.61,51.3,280.04z M136.5,257.69h-14.96v-15.72h14.96V257.69z M136.5,258.19v4.91h-14.96v-4.91H136.5z
		 M136.5,263.58v2.2h-14.96v-2.2H136.5z M157.19,271.44v-7.86h0.39v10.31C157.33,273.12,157.19,272.3,157.19,271.44z M157.19,263.08
		v-69.46l-9.71-2.18c-2.23-0.5-4.1-1.81-5.28-3.71c-1.13-1.81-1.48-3.94-0.98-6c0.88-3.69,4.23-6.26,8.14-6.26
		c0.64,0,1.28,0.07,1.91,0.21l6.32,1.42v85.98H157.19L157.19,263.08z M158.09,263.58h8.16l7.7,5.69v2.17c0,4.46-3.76,8.09-8.38,8.09
		c-3.27,0-6.1-1.83-7.48-4.47V263.58z M65.49,129.6c24.68-21.24,63.13-25.7,91.04-25.7h0.46c0.22,3.18,2.54,37.74-1.51,44.38
		c-0.03,0.07-3.27,6.64-7.11,6.64h-1.9h-0.76h-0.52H47.97C48.5,152.91,52.02,141.2,65.49,129.6z M48.32,155.43l-0.52,0.39l0.24-0.39
		H48.32z M47.4,156.78c-1.3,3.73-3.63,8.05-6.53,13.42c-7.39,13.68-18.55,34.36-22.39,65.97c-0.23,1.87-3.56,2.07-4.98,2.07l0,0
		c-0.17,0-0.31,0-0.42-0.01c0-1.48,0.04-2.92,0.08-4.35l16.87-49.66l16.96-27.09C47.14,156.99,47.28,156.87,47.4,156.78z
		 M30.5,176.42c5.95-9.22,11.97-15.26,15.18-18.16L29.58,184l-16.36,48.12C14.42,206.56,23.1,187.88,30.5,176.42z M13.02,258.56
		c0.38-0.24,0.84-0.38,1.33-0.38h0.21c1.35,0,2.46,1.06,2.46,2.35v38.06c0,1.3-1.1,2.35-2.46,2.35h-0.21
		c-0.53,0-1.02-0.17-1.42-0.44L13.02,258.56z M11.89,298.59v-38.06c0-0.6,0.24-1.15,0.64-1.57l-0.1,41.07
		C12.09,299.64,11.89,299.14,11.89,298.59z M12.92,301.08c0.42,0.23,0.91,0.37,1.43,0.37h0.21c1.63,0,2.96-1.28,2.96-2.85v-38.06
		c0-1.57-1.33-2.85-2.96-2.85h-0.21c-0.48,0-0.93,0.12-1.33,0.32l0.04-19.27c0.11,0,0.25,0.01,0.43,0.01l0,0
		c1.56,0,5.21-0.24,5.48-2.51c1.53-12.55,3.83-31.52,22.34-65.8c3.12-5.78,5.59-10.35,6.83-14.3l0.22-0.7h96.59l0.05,0.06l0.12-0.01
		c0.09,0,0.18-0.02,0.27-0.03c0.1-0.01,0.2-0.03,0.3-0.03h0.76c5.72,0,11.12,5.33,11.12,10.97v10.2l-6.21-1.39
		c-0.66-0.15-1.34-0.22-2.02-0.22c-4.15,0-7.7,2.73-8.63,6.65c-0.53,2.19-0.15,4.45,1.05,6.38c1.25,2.01,3.24,3.4,5.6,3.93
		l9.32,2.09v69.06h-19.69v-5.41v-16.22h-15.96v16.22v5.41H82.32c-17.46,0-27.98,5.53-31.4,16.45l-15.78,0.02v-39.24
		c-1.35-35.71,24.34-72.7,24.6-73.06l0.15-0.21l-5.17-3.42l-0.14,0.2c-1.11,1.57-27.12,38.79-25.7,76.6v45.2l20.9-0.03
		c-0.07,0.89-0.11,1.8-0.11,2.74c0,2.59,0.26,4.99,0.79,7.19H39.5h-6.26c-2.75,0-4.99,2.16-4.99,4.81v0.35c0,2.65,2.24,4.8,4.99,4.8
		h6.26h11.51c0.19,0.01,0.38,0.02,0.57,0.02c0.09,0,0.17-0.01,0.25-0.02h0.05c0.04,0,0.07-0.01,0.11-0.01
		c1.23-0.06,2.26-0.36,3.05-0.88c1.52,1.73,3.37,3.21,5.54,4.44H12.9L12.92,301.08z M80.27,313.86v0.35c0,2.37-2.01,4.31-4.49,4.31
		H12.16c-2.47,0-4.49-1.93-4.49-4.31v-0.35c0-2.37,2.01-4.3,4.49-4.3h0.24h49.11c4.8,2.48,11.05,3.82,18.74,4.03
		C80.25,313.67,80.27,313.76,80.27,313.86z M158.49,316.42c0,18.25-15.44,33.09-34.42,33.09s-34.42-14.84-34.42-33.09
		c0-0.95,0.05-1.89,0.13-2.81h11.71c-0.12,0.92-0.19,1.86-0.19,2.81c0,12.08,10.21,21.91,22.77,21.91s22.77-9.83,22.77-21.91
		c0-0.95-0.07-1.89-0.19-2.81h11.71C158.44,314.54,158.49,315.47,158.49,316.42z M146.34,316.42c0,11.8-9.99,21.41-22.27,21.41
		s-22.27-9.6-22.27-21.41c0-0.95,0.07-1.89,0.2-2.81h3.57v8.11h3.31v-8.11h5.93c-0.29,0.89-0.45,1.83-0.45,2.81
		c0,5.16,4.35,9.36,9.7,9.36c5.35,0,9.7-4.2,9.7-9.36c0-0.98-0.16-1.92-0.45-2.81h4.58v8.11h3.31v-8.11h4.92
		C146.27,314.53,146.34,315.47,146.34,316.42z M108.39,313.11h-2.31v-0.85h2.31V313.11z M108.39,313.61v7.61h-2.31v-7.61H108.39z
		 M125.85,313.61c1,0.58,1.68,1.62,1.68,2.81c0,1.82-1.55,3.3-3.45,3.3s-3.45-1.48-3.45-3.3c0-1.2,0.68-2.23,1.68-2.81H125.85z
		 M120.12,316.42c0,2.09,1.77,3.8,3.95,3.8s3.95-1.7,3.95-3.8c0-1.12-0.52-2.12-1.32-2.81h2.97c0.46,0.84,0.72,1.8,0.72,2.81
		c0,3.35-2.84,6.08-6.33,6.08s-6.33-2.73-6.33-6.08c0-1.02,0.26-1.97,0.72-2.81h2.97C120.64,314.3,120.12,315.3,120.12,316.42z
		 M125.96,313.11c-0.56-0.3-1.2-0.48-1.89-0.48s-1.33,0.19-1.89,0.48h-3.41c1.13-1.66,3.08-2.76,5.3-2.76s4.17,1.1,5.3,2.76H125.96z
		 M124.07,309.84c-2.51,0-4.7,1.32-5.89,3.26h-2.64c1.37-3.25,4.67-5.54,8.53-5.54s7.16,2.3,8.53,5.54h-2.64
		C128.77,311.17,126.58,309.84,124.07,309.84z M117.91,313.61c-0.42,0.85-0.67,1.81-0.67,2.81c0,3.63,3.06,6.58,6.83,6.58
		s6.83-2.95,6.83-6.58c0-1.01-0.24-1.96-0.67-2.81h2.56c0.31,0.88,0.48,1.83,0.48,2.81c0,4.88-4.13,8.86-9.2,8.86
		c-5.07,0-9.2-3.97-9.2-8.86c0-0.98,0.17-1.93,0.48-2.81H117.91z M140.72,313.11h-2.31v-0.85h2.31V313.11z M140.72,313.61v7.61
		h-2.31v-7.61H140.72z M141.22,313.11v-1.35h-3.31v1.35h-4.77c-1.39-3.53-4.92-6.04-9.06-6.04s-7.67,2.52-9.06,6.04h-6.12v-1.35
		h-3.31v1.35h-3.51c1.66-10.24,10.89-18.09,22-18.09s20.34,7.86,22,18.09H141.22z M124.07,294.51c-11.38,0-20.84,8.08-22.51,18.59
		H89.83c1.73-16.7,16.43-29.78,34.24-29.78s32.51,13.08,34.24,29.78h-11.73C144.92,302.59,135.46,294.51,124.07,294.51z
		 M158.82,313.11c-1.74-16.97-16.65-30.28-34.74-30.28s-33.01,13.31-34.74,30.28h-7.01c-0.55,0-1.09-0.01-1.63-0.02
		c-0.39-2.28-2.43-4.04-4.91-4.04h-0.63c0.09-15.76,8.02-23.61,14.69-27.41c7.29-4.15,14.67-4.54,14.74-4.54h53.5v-1.06
		c1.58,2.39,4.34,3.99,7.48,3.99c4.89,0,8.88-3.85,8.88-8.59v-1.81l4.23,3.12v9.75h186.97v9.46h15.19c-2.46,2.24-4.58,4.8-6.28,7.61
		h-37.93v-6.76h-42.67v6.76h-43.08v-4.06h-52.51v17.58h-39.55V313.11L158.82,313.11z M294.45,309.05v-3.56h41.67v3.56H294.45z
		 M336.12,309.55v3.56h-41.67v-3.56H336.12z M250.38,299.59H209.6v9.96h40.77v3.56h-51.51v-17.08h51.51v3.56H250.38z M210.1,309.05
		v-8.96h40.27v8.96H210.1z M250.88,300.09h43.08V305v0.5v3.56h-43.08V300.09z M336.12,299.59h-41.67v-6.26h41.67V299.59z
		 M336.12,300.09V305h-41.67v-4.91H336.12z M336.62,305.49v-0.5v-4.91h37.65c-1.62,2.79-2.85,5.8-3.59,8.96h-34.05v-3.55H336.62z
		 M250.38,317.17h-51.51v-3.56h51.51V317.17z M250.88,313.11v-3.56h43.08v3.56H250.88z M336.12,317.17h-41.67v-3.56h41.67V317.17z
		 M336.62,313.11v-3.56h33.95c-0.26,1.17-0.45,2.35-0.58,3.56H336.62z M382.22,313.11H370.5c0.13-1.2,0.32-2.39,0.58-3.56h12.01
		C382.7,310.7,382.41,311.89,382.22,313.11z M383.28,309.05h-12.1c0.76-3.16,2.01-6.18,3.66-8.96h14.72
		C386.7,302.54,384.55,305.62,383.28,309.05z"/>
	<path fill="#FFFFFF" d="M55.5,241.45H42.28c-1.53,0-2.78,1.2-2.78,2.68v0.54c0,1.48,1.25,2.68,2.78,2.68h13.21
		c1.53,0,2.78-1.2,2.78-2.68v-0.54C58.28,242.67,57.03,241.45,55.5,241.45z M57.78,244.69c0,1.2-1.02,2.18-2.28,2.18H42.28
		c-1.26,0-2.28-0.98-2.28-2.18v-0.54c0-1.2,1.02-2.18,2.28-2.18h13.21c1.26,0,2.28,0.98,2.28,2.18v0.54H57.78z"/>
	<path fill="#FFFFFF" d="M185.84,84.62c-1.63,0-2.95,1.28-2.95,2.85v0.22c0,1.57,1.32,2.85,2.95,2.85h8.66
		c1.63,0,2.95-1.28,2.95-2.85v-0.22c0-1.57-1.32-2.85-2.95-2.85H185.84z M196.95,87.47v0.22c0,1.29-1.1,2.35-2.45,2.35h-8.66
		c-1.35,0-2.45-1.05-2.45-2.35v-0.22c0-1.29,1.1-2.35,2.45-2.35h8.66C195.85,85.12,196.95,86.17,196.95,87.47z"/>
	<path fill="#FFFFFF" d="M242.57,125.33h14.32l0.83,4.33h9.54l-5.77-21.55h-9.66l-23.15,21.55h9.41L242.57,125.33z M229.94,129.16
		l22.07-20.55h9.08l5.5,20.55h-8.47l-0.83-4.33h-14.93l-4.48,4.33C237.88,129.16,229.94,129.16,229.94,129.16z"/>
	<path fill="#FFFFFF" d="M254.74,112.68l-9.2,9.03h10.99L254.74,112.68z M254.43,113.68l1.49,7.52h-9.16L254.43,113.68z"/>
	<path fill="#FFFFFF" d="M358.87,108.11h-12.42l-13.48,16.14l-0.54-15.9l-0.01-0.24h-12.48l-8.64,21.55h8.27l5.74-14.38
		c0.19-0.44,0.42-1.02,0.7-1.73l0.06-0.17c0.04-0.1,0.08-0.21,0.11-0.3l0.38,16.59h8.42l13.63-16.52c-0.03,0.07-0.06,0.14-0.09,0.21
		c-0.31,0.74-0.56,1.31-0.74,1.73l-5.82,14.57h8.27l8.5-21.21L358.87,108.11z M349.9,129.16h-7.2l5.55-13.88
		c0.18-0.41,0.43-0.98,0.74-1.73c0.31-0.74,0.54-1.32,0.69-1.72l0.5-1.37l-15.42,18.7h-7.7l-0.43-18.77l-0.45,1.28
		c-0.13,0.36-0.32,0.88-0.57,1.53l-0.06,0.17c-0.27,0.7-0.5,1.28-0.69,1.72l-5.62,14.08h-7.19l8.23-20.55h11.66l0.58,16.96
		l14.17-16.96h11.45L349.9,129.16z"/>
	<path fill="#FFFFFF" d="M387.2,108.3l-0.05-0.19h-2.73v-5.46c0-5.47-4.65-9.92-10.37-9.92h-65.5c-5.72,0-10.37,4.45-10.37,9.92
		v5.46h-16.37v-5.39c0-5.5-4.65-9.98-10.37-9.98h-65.51c-5.72,0-10.37,4.48-10.37,9.98v152.23c0,5.5,4.65,9.98,10.37,9.98h65.51
		c5.72,0,10.37-4.48,10.37-9.98V147.98h16.37v106.9c0,5.54,4.65,10.05,10.37,10.05h65.5c5.72,0,10.37-4.51,10.37-10.05v-106.9h8.15
		v-0.5h-8.15v-3.44h0.57l2.72-7.88h-2.27l-1.02,3.06v-6.04h8.15v-0.5h-8.15v-3.02h8.15l0.25-0.05v-0.25L387.2,108.3z M298.16,108.61
		v3.19c-0.4-0.02-0.84-0.03-1.31-0.03h-9.81l-2.46,6.15h9.77c1.56,0,2.83-0.09,3.82-0.25v11.49h-1.79
		c-0.05-0.37-0.08-0.66-0.08-0.87c0.02-0.57,0.14-1.16,0.37-1.74l0.72-1.95c0.55-1.46,0.41-2.47-0.41-2.98
		c-0.75-0.48-2.34-0.71-4.86-0.71h-8.74l-1.58,3.96v-16.26H298.16z M302.48,119.6c1.6,0.37,2.63,0.9,3.07,1.56
		c0.42,0.65,0.36,1.68-0.2,3.06l-0.57,1.42c-0.4,1.02-0.58,1.67-0.58,2.05c0,0.58,0.32,1.03,0.96,1.34l-0.05,0.14h-6.45v-11.58
		c0.02-0.01,0.06-0.01,0.08-0.01c1.89-0.42,3.11-1.27,3.63-2.53c0.27-0.68,0.28-1.27,0.05-1.75c-0.25-0.52-0.78-0.9-1.59-1.15
		c-0.52-0.16-1.26-0.26-2.17-0.32v-3.22h1.39c2.74,0.03,4.81,0.21,6.14,0.54c1.32,0.33,2.37,0.8,3.13,1.42
		c0.61,0.5,1.04,1.07,1.26,1.67c0.22,0.59,0.18,1.27-0.12,2.03c-0.4,0.96-1.25,1.91-2.54,2.84s-3.12,1.61-5.43,2l-1.22,0.21
		L302.48,119.6z M298.16,117.17c-0.97,0.17-2.24,0.25-3.82,0.25h-9.03l2.06-5.15h9.47c0.47,0,0.91,0.01,1.31,0.03v4.87H298.16z
		 M298.66,112.33c0.86,0.06,1.55,0.15,2.02,0.3c0.67,0.21,1.1,0.51,1.28,0.89c0.17,0.35,0.15,0.8-0.06,1.34
		c-0.46,1.1-1.52,1.83-3.24,2.22V112.33z M295.91,129.45l0.03,0.21h2.22v3.03h-16.37v-6.47l1.92-4.81h8.4c2.39,0,3.93,0.21,4.6,0.63
		c0.59,0.37,0.66,1.18,0.21,2.38l-0.72,1.95c-0.24,0.63-0.37,1.27-0.4,1.9C295.79,128.57,295.83,128.95,295.91,129.45z
		 M281.29,126.13l-1.21,3.03h-7.57l8.23-20.55h0.54L281.29,126.13L281.29,126.13z M281.29,254.95c0,5.23-4.43,9.48-9.87,9.48h-65.51
		c-5.44,0-9.87-4.25-9.87-9.48V102.72c0-5.23,4.43-9.48,9.87-9.48h65.51c5.44,0,9.87,4.25,9.87,9.48v5.39h-0.88l-8.64,21.55h8.65
		l0.87-2.18v5.21h-53.47l-18.24,15.29h71.71L281.29,254.95L281.29,254.95z M281.79,140.6c0.25,0.08,0.49,0.16,0.7,0.21
		c0.28,0.08,0.56,0.15,0.83,0.21c0.28,0.07,0.51,0.14,0.7,0.21c0.17,0.07,0.32,0.15,0.44,0.26c0.08,0.08,0.12,0.18,0.12,0.31
		c0,0.12-0.03,0.22-0.1,0.3c-0.06,0.08-0.16,0.15-0.28,0.21s-0.26,0.1-0.41,0.12c-0.37,0.05-0.71,0.04-1.03-0.04
		c-0.19-0.05-0.34-0.12-0.47-0.2c-0.13-0.09-0.22-0.19-0.29-0.33c-0.07-0.13-0.11-0.3-0.11-0.51v-0.25h-0.1V140.6z M281.29,143.22
		c-0.05-0.03-0.11-0.05-0.15-0.09c-0.27-0.19-0.49-0.43-0.65-0.73c-0.13-0.23-0.2-0.5-0.22-0.81h1.02V143.22z M281.79,142.4
		c0.07,0.07,0.14,0.14,0.22,0.19c0.17,0.12,0.37,0.21,0.63,0.28c0.38,0.09,0.77,0.11,1.22,0.05c0.21-0.03,0.39-0.09,0.56-0.16
		c0.19-0.09,0.35-0.22,0.45-0.35c0.14-0.17,0.21-0.37,0.21-0.62c0-0.27-0.09-0.5-0.28-0.68c-0.17-0.15-0.37-0.27-0.6-0.36
		c-0.21-0.08-0.46-0.15-0.77-0.23c-0.27-0.06-0.54-0.13-0.82-0.21c-0.25-0.06-0.52-0.14-0.81-0.24c-0.01,0-0.01-0.01-0.02-0.01
		v-1.24c0.09,0.12,0.23,0.24,0.44,0.33c0.18,0.08,0.43,0.16,0.73,0.24l1.18,0.3c0.14,0.03,0.33,0.07,0.58,0.14
		c0.23,0.07,0.47,0.18,0.7,0.32c0.22,0.14,0.42,0.33,0.58,0.57c0.15,0.22,0.23,0.51,0.23,0.88c0,0.3-0.06,0.57-0.18,0.83
		c-0.11,0.24-0.29,0.47-0.53,0.66c-0.26,0.2-0.56,0.35-0.92,0.45c-0.37,0.11-0.79,0.16-1.31,0.16c-0.4,0-0.79-0.05-1.17-0.14
		c-0.12-0.03-0.22-0.07-0.32-0.11V142.4z M281.81,137.8c-0.01,0.01-0.01,0.02-0.01,0.03v-1.08c0.12-0.05,0.24-0.1,0.38-0.13
		c0.7-0.18,1.42-0.16,2.07,0c0.33,0.07,0.64,0.2,0.9,0.38c0.25,0.16,0.45,0.38,0.6,0.65c0.11,0.2,0.18,0.44,0.21,0.72h-1.15
		c-0.03-0.16-0.08-0.3-0.15-0.42c-0.1-0.18-0.25-0.33-0.42-0.43c-0.16-0.1-0.34-0.17-0.55-0.21c-0.31-0.06-0.67-0.09-1.08-0.01
		c-0.16,0.03-0.31,0.09-0.45,0.17C282.02,137.56,281.9,137.67,281.81,137.8z M281.29,139.81c-0.05-0.03-0.11-0.05-0.15-0.08
		c-0.19-0.14-0.34-0.31-0.45-0.51c-0.11-0.2-0.17-0.46-0.17-0.75c0-0.33,0.07-0.62,0.22-0.86c0.14-0.24,0.33-0.43,0.56-0.59
		L281.29,139.81L281.29,139.81z M281.05,136.58c-0.3,0.2-0.55,0.46-0.74,0.77c-0.19,0.32-0.29,0.7-0.29,1.12
		c0,0.37,0.08,0.7,0.23,0.99c0.15,0.26,0.35,0.49,0.59,0.67c0.14,0.1,0.3,0.16,0.45,0.24v0.72h-1.53v0.25
		c-0.01,0.5,0.09,0.94,0.29,1.3c0.2,0.36,0.47,0.67,0.8,0.9c0.14,0.1,0.29,0.18,0.44,0.25v3.69h-70.34L228,133.19h53.29v3.25
		C281.21,136.49,281.12,136.53,281.05,136.58z M281.79,147.48v-3.5c0.07,0.02,0.13,0.05,0.2,0.07c0.42,0.1,0.85,0.15,1.29,0.15
		c0.56,0,1.04-0.06,1.45-0.18c0.41-0.12,0.78-0.3,1.09-0.53c0.3-0.24,0.53-0.52,0.68-0.84c0.15-0.33,0.23-0.67,0.23-1.04
		c0-0.47-0.1-0.85-0.32-1.16c-0.2-0.29-0.44-0.53-0.72-0.71c-0.27-0.17-0.54-0.29-0.82-0.38c-0.27-0.07-0.47-0.12-0.61-0.15
		l-1.16-0.29c-0.28-0.07-0.51-0.14-0.66-0.21c-0.18-0.08-0.23-0.15-0.23-0.15c-0.03-0.05-0.05-0.13-0.05-0.22
		c0-0.11,0.02-0.19,0.06-0.25c0.06-0.08,0.12-0.14,0.2-0.19c0.09-0.05,0.19-0.09,0.29-0.11c0.3-0.06,0.63-0.04,0.88,0
		c0.15,0.03,0.28,0.08,0.39,0.15c0.1,0.06,0.18,0.14,0.24,0.25c0.06,0.11,0.1,0.26,0.11,0.44l0.01,0.24h2.12v-0.25
		c0-0.47-0.1-0.88-0.29-1.21c-0.19-0.34-0.45-0.62-0.76-0.82c-0.31-0.21-0.67-0.37-1.07-0.46c-0.73-0.17-1.54-0.2-2.31,0.01
		c-0.09,0.02-0.17,0.06-0.25,0.09v-3.03h16.37v2.98h-5.09v1.86h2.3v6.02h2.19v-6.02h0.61v9.45h-16.37V147.48z M298.16,137.53h-1.11
		v6.02h-1.19v-6.02h-2.3v-0.86h4.59L298.16,137.53L298.16,137.53z M298.66,136.67h0.69v0.86h-0.69V136.67z M383.91,254.89
		c0,5.27-4.43,9.55-9.87,9.55h-65.5c-5.44,0-9.87-4.28-9.87-9.55V147.98h85.25v106.91H383.91z M385.8,136.67h1.21l-2.37,6.88h-0.22
		v-2.74L385.8,136.67z M383.91,143.55h-0.83l-2.31-6.88h1.2l1.66,5.02l0.07,0.17h0.21L383.91,143.55L383.91,143.55z M383.91,140.72
		l-0.04,0.12l-1.54-4.67h-2.26l2.65,7.88h1.19v3.44h-85.25v-9.45h1.19v-1.86h-1.19v-2.98h85.25L383.91,140.72L383.91,140.72z
		 M383.91,132.69h-85.25v-3.03h6.8l0.32-0.92l-0.23-0.09c-0.77-0.3-0.86-0.69-0.86-0.97c0-0.21,0.1-0.7,0.55-1.86l0.57-1.42
		c0.62-1.54,0.67-2.73,0.15-3.52c-0.41-0.61-1.18-1.1-2.34-1.48c1.9-0.42,3.44-1.06,4.59-1.89c1.37-0.98,2.28-2.01,2.72-3.06
		c0.35-0.88,0.39-1.69,0.12-2.39c-0.26-0.68-0.73-1.31-1.41-1.88c-0.82-0.67-1.93-1.18-3.33-1.52c-1.39-0.34-3.44-0.52-6.26-0.55
		h-1.4v-5.46c0-5.19,4.43-9.42,9.87-9.42h65.5c5.44,0,9.87,4.22,9.87,9.42v5.46h-6.44l-23.12,21.55h9.41l4.47-4.33h14.32l0.84,4.33
		h0.54V132.69L383.91,132.69z M383.91,108.61v20.55h-0.12l-0.84-4.33h-14.94l-4.47,4.33h-7.94l22.07-20.55
		C377.67,108.61,383.91,108.61,383.91,108.61z M384.41,129.16v-20.55h2.35l5.5,20.55C392.26,129.16,384.41,129.16,384.41,129.16z"/>
	<path fill="#FFFFFF" d="M380.4,112.68l-9.2,9.03h10.99L380.4,112.68z M380.09,113.68l1.5,7.52h-9.16L380.09,113.68z"/>
	<path fill="#FFFFFF" d="M230.59,136.17h-2.19v7.88h5.93v-1.86h-3.74L230.59,136.17L230.59,136.17z M233.83,142.68v0.86h-4.93v-6.88
		h1.19v6.02H233.83z"/>
	<path fill="#FFFFFF" d="M247.86,137.19c-0.35-0.38-0.78-0.67-1.27-0.88c-0.5-0.21-1.05-0.32-1.69-0.32c-0.63,0-1.19,0.11-1.68,0.32
		s-0.92,0.51-1.28,0.89c-0.34,0.38-0.61,0.82-0.79,1.32c-0.18,0.51-0.27,1.05-0.27,1.62c0,0.56,0.09,1.09,0.27,1.59
		c0.18,0.49,0.45,0.93,0.79,1.3c0.35,0.37,0.78,0.66,1.27,0.87c0.49,0.21,1.06,0.31,1.68,0.31s1.19-0.11,1.69-0.31
		c0.49-0.21,0.92-0.5,1.27-0.87c0.34-0.37,0.61-0.81,0.79-1.3c0.18-0.5,0.27-1.03,0.27-1.59s-0.09-1.11-0.27-1.62
		C248.48,138.02,248.21,137.57,247.86,137.19z M248.19,141.55c-0.16,0.43-0.39,0.81-0.69,1.13s-0.67,0.57-1.1,0.75
		c-0.86,0.36-2.11,0.37-2.98,0c-0.43-0.18-0.8-0.43-1.1-0.75c-0.3-0.33-0.53-0.7-0.69-1.13c-0.16-0.44-0.24-0.92-0.24-1.42
		c0-0.51,0.08-0.99,0.24-1.44c0.16-0.44,0.4-0.83,0.69-1.15c0.31-0.33,0.67-0.58,1.11-0.77c0.43-0.18,0.93-0.28,1.48-0.28
		c0.57,0,1.06,0.09,1.49,0.28c0.43,0.18,0.8,0.44,1.1,0.76c0.3,0.33,0.53,0.72,0.69,1.15c0.16,0.45,0.24,0.94,0.24,1.45
		C248.43,140.64,248.35,141.11,248.19,141.55z"/>
	<path fill="#FFFFFF" d="M246.73,138.25c-0.18-0.27-0.43-0.49-0.73-0.65c-0.6-0.32-1.57-0.32-2.17,0c-0.31,0.16-0.55,0.38-0.73,0.65
		c-0.19,0.27-0.32,0.57-0.4,0.89c-0.08,0.33-0.12,0.66-0.12,1c0,0.32,0.04,0.65,0.12,0.97c0.08,0.31,0.21,0.6,0.4,0.87
		c0.18,0.26,0.43,0.48,0.73,0.64c0.3,0.16,0.66,0.24,1.08,0.24c0.42,0,0.78-0.08,1.08-0.24c0.31-0.17,0.56-0.38,0.73-0.64
		c0.19-0.27,0.32-0.56,0.4-0.87c0.08-0.3,0.12-0.63,0.12-0.97c0-0.36-0.04-0.69-0.12-1C247.04,138.81,246.91,138.51,246.73,138.25z
		 M246.63,140.98c-0.06,0.25-0.17,0.49-0.32,0.71c-0.13,0.2-0.32,0.36-0.56,0.49c-0.45,0.24-1.24,0.24-1.7,0
		c-0.24-0.13-0.42-0.29-0.56-0.49c-0.15-0.22-0.26-0.45-0.32-0.7c-0.07-0.28-0.1-0.56-0.1-0.85s0.04-0.59,0.11-0.88
		c0.06-0.27,0.17-0.51,0.32-0.73c0.14-0.2,0.32-0.37,0.56-0.49c0.23-0.12,0.51-0.18,0.85-0.18s0.62,0.06,0.85,0.18
		c0.23,0.12,0.42,0.29,0.56,0.49c0.15,0.21,0.26,0.46,0.32,0.73c0.07,0.27,0.1,0.56,0.1,0.88
		C246.74,140.44,246.7,140.72,246.63,140.98z"/>
	<path fill="#FFFFFF" d="M259.6,141.27h1.65c-0.07,0.32-0.21,0.57-0.41,0.75c-0.25,0.23-0.63,0.34-1.12,0.34
		c-0.34,0-0.62-0.06-0.85-0.18s-0.41-0.28-0.56-0.49c-0.15-0.2-0.25-0.43-0.32-0.7c-0.07-0.28-0.1-0.56-0.1-0.85s0.04-0.59,0.1-0.88
		c0.07-0.29,0.18-0.52,0.33-0.73c0.14-0.21,0.32-0.37,0.55-0.49c0.23-0.12,0.51-0.18,0.85-0.18c0.35,0,0.65,0.09,0.89,0.26
		c0.24,0.17,0.4,0.43,0.48,0.78l0.04,0.19h2.08l-0.03-0.27c-0.04-0.46-0.17-0.87-0.39-1.22c-0.2-0.35-0.47-0.65-0.8-0.9
		c-0.32-0.24-0.69-0.42-1.07-0.54s-0.79-0.18-1.21-0.18c-0.62,0-1.19,0.11-1.69,0.32s-0.93,0.51-1.27,0.89
		c-0.35,0.39-0.62,0.83-0.79,1.32c-0.18,0.49-0.27,1.04-0.27,1.62c0,0.57,0.09,1.11,0.27,1.59c0.17,0.48,0.44,0.92,0.79,1.3
		c0.34,0.37,0.77,0.66,1.27,0.87c0.5,0.21,1.07,0.31,1.69,0.31c0.41,0,0.81-0.08,1.2-0.24c0.27-0.11,0.52-0.27,0.75-0.49l0.11,0.56
		h1.53v-4.49h-3.72v1.73H259.6L259.6,141.27z M260.1,140.05h2.72v3.49h-0.62l-0.23-1.15l-0.33,0.41c-0.28,0.34-0.58,0.57-0.9,0.71
		c-0.33,0.13-0.67,0.2-1.01,0.2c-0.55,0-1.05-0.09-1.49-0.27c-0.43-0.18-0.8-0.43-1.1-0.75c-0.31-0.33-0.54-0.71-0.69-1.14
		c-0.16-0.43-0.24-0.9-0.24-1.42c0-0.52,0.08-1.01,0.24-1.45c0.15-0.43,0.39-0.82,0.69-1.15c0.3-0.32,0.67-0.58,1.1-0.76
		c0.44-0.19,0.93-0.28,1.49-0.28c0.37,0,0.73,0.05,1.07,0.16c0.34,0.1,0.64,0.26,0.92,0.46c0.28,0.21,0.5,0.46,0.67,0.75
		c0.13,0.22,0.23,0.46,0.28,0.73h-1.13c-0.12-0.38-0.33-0.67-0.62-0.88c-0.33-0.24-0.73-0.36-1.19-0.36c-0.42,0-0.78,0.08-1.09,0.24
		c-0.3,0.16-0.54,0.38-0.73,0.64c-0.18,0.25-0.31,0.54-0.41,0.9c-0.08,0.33-0.12,0.66-0.12,1c0,0.32,0.04,0.65,0.12,0.97
		c0.09,0.33,0.22,0.62,0.4,0.86c0.18,0.27,0.42,0.48,0.73,0.65c0.31,0.16,0.66,0.24,1.09,0.24c0.62,0,1.11-0.16,1.46-0.47
		s0.56-0.77,0.62-1.35l0.03-0.27h-1.72v-0.71C260.11,140.05,260.1,140.05,260.1,140.05z"/>
	<path fill="#FFFFFF" d="M270.63,144.05h2.19v-7.88h-2.19V144.05z M271.13,136.67h1.19v6.88h-1.19V136.67z"/>
	<path fill="#FFFFFF" d="M308.87,136.17h-2.19v7.88h2.19V136.17z M308.37,143.55h-1.19v-6.88h1.19V143.55z"/>
	<path fill="#FFFFFF" d="M317.04,143.03c0.35,0.37,0.78,0.66,1.28,0.87c0.49,0.21,1.06,0.31,1.68,0.31c0.51,0,0.97-0.07,1.38-0.22
		c0.42-0.15,0.79-0.36,1.11-0.65c0.32-0.28,0.58-0.62,0.78-1.03c0.19-0.41,0.31-0.85,0.35-1.33l0.03-0.27h-2.13l-0.03,0.22
		c-0.05,0.44-0.21,0.79-0.47,1.05c-0.24,0.25-0.58,0.38-1.03,0.38c-0.34,0-0.62-0.06-0.85-0.18c-0.24-0.13-0.42-0.29-0.56-0.49
		c-0.15-0.22-0.26-0.45-0.32-0.7c-0.07-0.28-0.1-0.57-0.1-0.85c0-0.29,0.04-0.59,0.11-0.88c0.06-0.27,0.17-0.51,0.32-0.73
		c0.14-0.2,0.32-0.37,0.56-0.49c0.23-0.12,0.51-0.18,0.85-0.18c0.18,0,0.35,0.03,0.51,0.08c0.16,0.06,0.31,0.13,0.44,0.24
		c0.12,0.09,0.23,0.21,0.32,0.35c0.08,0.11,0.13,0.25,0.16,0.42l0.04,0.21h2.12l-0.03-0.28c-0.06-0.47-0.19-0.89-0.4-1.23
		c-0.2-0.35-0.47-0.66-0.8-0.91c-0.31-0.24-0.68-0.42-1.09-0.55c-0.99-0.3-2.12-0.23-2.95,0.13c-0.49,0.21-0.92,0.51-1.28,0.89
		c-0.34,0.38-0.61,0.82-0.79,1.32c-0.18,0.51-0.27,1.05-0.27,1.62c0,0.56,0.09,1.09,0.27,1.59
		C316.42,142.22,316.69,142.65,317.04,143.03z M316.71,138.69c0.16-0.44,0.4-0.83,0.69-1.15c0.31-0.33,0.67-0.58,1.11-0.77
		c0.43-0.18,0.93-0.28,1.48-0.28c0.39,0,0.77,0.05,1.12,0.16c0.35,0.11,0.67,0.27,0.93,0.47c0.27,0.21,0.5,0.47,0.67,0.77
		c0.13,0.22,0.23,0.47,0.29,0.76h-1.14c-0.04-0.15-0.11-0.28-0.18-0.4c-0.12-0.18-0.27-0.34-0.43-0.47
		c-0.18-0.14-0.37-0.24-0.59-0.32c-0.22-0.07-0.44-0.11-0.68-0.11c-0.43,0-0.78,0.08-1.08,0.24c-0.3,0.16-0.55,0.38-0.73,0.65
		c-0.19,0.27-0.32,0.57-0.4,0.89c-0.08,0.33-0.12,0.67-0.12,1c0,0.32,0.04,0.65,0.12,0.97c0.08,0.31,0.21,0.6,0.4,0.87
		c0.18,0.26,0.43,0.48,0.73,0.65c0.3,0.16,0.66,0.24,1.08,0.24c0.59,0,1.05-0.18,1.39-0.53c0.29-0.29,0.48-0.67,0.57-1.12h1.14
		c-0.05,0.32-0.14,0.61-0.27,0.89c-0.17,0.35-0.39,0.64-0.66,0.87c-0.27,0.24-0.59,0.42-0.94,0.55c-0.81,0.29-1.92,0.25-2.71-0.08
		c-0.43-0.18-0.8-0.43-1.1-0.75c-0.3-0.33-0.53-0.7-0.69-1.13c-0.16-0.44-0.24-0.92-0.24-1.42
		C316.47,139.63,316.55,139.14,316.71,138.69z"/>
	<path fill="#FFFFFF" d="M340.75,143.54c0.32,0.23,0.69,0.4,1.14,0.51c0.42,0.1,0.85,0.15,1.29,0.15c0.57,0,1.04-0.06,1.45-0.18
		c0.41-0.12,0.78-0.3,1.09-0.53c0.3-0.24,0.53-0.52,0.68-0.84c0.15-0.33,0.22-0.67,0.22-1.04c0-0.47-0.1-0.85-0.32-1.16
		c-0.2-0.29-0.44-0.53-0.72-0.71c-0.27-0.17-0.54-0.29-0.82-0.38c-0.27-0.07-0.47-0.12-0.61-0.15l-1.16-0.29
		c-0.28-0.07-0.51-0.14-0.66-0.21c-0.14-0.06-0.21-0.12-0.23-0.15c-0.03-0.05-0.05-0.13-0.05-0.22c0-0.11,0.02-0.19,0.06-0.25
		c0.06-0.08,0.12-0.14,0.2-0.19c0.09-0.05,0.19-0.09,0.29-0.11c0.3-0.06,0.63-0.04,0.88,0.01c0.15,0.03,0.28,0.08,0.39,0.15
		c0.1,0.06,0.18,0.14,0.24,0.25s0.1,0.27,0.11,0.44l0.01,0.24h2.12v-0.25c0-0.47-0.1-0.88-0.29-1.21c-0.19-0.34-0.45-0.62-0.76-0.82
		c-0.31-0.21-0.67-0.37-1.07-0.46c-0.73-0.17-1.54-0.2-2.31,0.01c-0.38,0.1-0.72,0.25-1,0.45c-0.3,0.2-0.55,0.46-0.74,0.77
		c-0.19,0.32-0.29,0.7-0.29,1.12c0,0.37,0.08,0.7,0.23,0.99c0.15,0.27,0.35,0.49,0.59,0.67c0.24,0.17,0.5,0.31,0.79,0.42
		c0.32,0.11,0.6,0.2,0.86,0.25c0.28,0.08,0.56,0.15,0.83,0.21c0.28,0.07,0.51,0.14,0.7,0.21c0.17,0.07,0.32,0.15,0.44,0.26
		c0.08,0.08,0.12,0.18,0.12,0.31c0,0.12-0.03,0.22-0.1,0.3c-0.06,0.08-0.16,0.15-0.28,0.21s-0.26,0.1-0.42,0.12
		c-0.37,0.05-0.71,0.04-1.03-0.04c-0.19-0.05-0.35-0.12-0.47-0.2c-0.13-0.09-0.22-0.19-0.29-0.33c-0.07-0.13-0.11-0.3-0.11-0.51
		v-0.25h-2.13v0.25c-0.01,0.5,0.09,0.94,0.29,1.3C340.15,143.01,340.42,143.31,340.75,143.54z M341.31,141.6
		c0.02,0.19,0.07,0.35,0.15,0.49c0.11,0.21,0.25,0.37,0.45,0.51c0.17,0.12,0.37,0.21,0.63,0.28c0.38,0.09,0.77,0.11,1.22,0.05
		c0.21-0.03,0.39-0.09,0.56-0.16c0.19-0.09,0.35-0.21,0.45-0.35c0.14-0.17,0.21-0.37,0.21-0.62c0-0.27-0.09-0.5-0.28-0.68
		c-0.17-0.15-0.37-0.27-0.6-0.36c-0.21-0.08-0.46-0.15-0.77-0.23c-0.27-0.06-0.54-0.13-0.82-0.21c-0.25-0.06-0.52-0.14-0.81-0.24
		c-0.25-0.1-0.47-0.21-0.67-0.36c-0.19-0.14-0.34-0.31-0.45-0.51c-0.11-0.2-0.17-0.46-0.17-0.75c0-0.33,0.07-0.62,0.22-0.86
		c0.15-0.25,0.35-0.46,0.59-0.62c0.24-0.17,0.52-0.29,0.84-0.38c0.7-0.19,1.41-0.16,2.07,0c0.33,0.07,0.64,0.2,0.9,0.38
		c0.25,0.16,0.45,0.38,0.6,0.65c0.11,0.2,0.18,0.44,0.21,0.72h-1.15c-0.03-0.16-0.08-0.3-0.15-0.42c-0.1-0.18-0.25-0.33-0.42-0.43
		c-0.16-0.1-0.34-0.17-0.55-0.21c-0.31-0.06-0.66-0.09-1.08-0.01c-0.16,0.03-0.31,0.09-0.45,0.17c-0.14,0.09-0.25,0.19-0.35,0.33
		s-0.15,0.32-0.15,0.53c0,0.19,0.04,0.35,0.12,0.49c0.08,0.13,0.24,0.24,0.45,0.34c0.18,0.08,0.43,0.16,0.73,0.24l1.18,0.3
		c0.14,0.03,0.33,0.07,0.58,0.14c0.23,0.07,0.47,0.18,0.7,0.32c0.22,0.14,0.42,0.33,0.58,0.57c0.16,0.22,0.23,0.51,0.23,0.88
		c0,0.3-0.06,0.57-0.18,0.83c-0.11,0.24-0.29,0.47-0.53,0.66c-0.25,0.2-0.56,0.35-0.92,0.45c-0.37,0.11-0.79,0.16-1.31,0.16
		c-0.4,0-0.79-0.05-1.17-0.14c-0.39-0.1-0.71-0.24-0.98-0.44c-0.27-0.19-0.49-0.43-0.65-0.73c-0.13-0.23-0.2-0.5-0.22-0.81h1.16
		L341.31,141.6L341.31,141.6z"/>
	<path fill="#FFFFFF" d="M359.89,142.18h-4.13v-1.31h3.72v-1.76h-3.72v-1.09h4.05v-1.86h-6.24v7.88h6.32V142.18z M359.39,143.55
		h-5.32v-6.88h5.24v0.86h-4.05v2.09h3.72v0.76h-3.72v2.31h4.13V143.55z"/>
	<path fill="#FFFFFF" d="M371.79,139.7c0.25-0.21,0.38-0.54,0.38-1c0-0.44-0.13-0.77-0.38-0.97c-0.24-0.2-0.58-0.3-1.03-0.3h-2.1
		v2.58h2.1C371.22,140.01,371.56,139.9,371.79,139.7z M369.16,137.93h1.6c0.33,0,0.56,0.06,0.71,0.19c0.14,0.11,0.2,0.3,0.2,0.59
		c0,0.3-0.07,0.5-0.21,0.62c-0.14,0.12-0.38,0.19-0.7,0.19h-1.6V137.93z"/>
	<path fill="#FFFFFF" d="M369.16,141.16h1.44c0.35,0,0.6,0.07,0.74,0.2c0.15,0.14,0.24,0.38,0.29,0.71c0.05,0.31,0.08,0.6,0.09,0.91
		c0.02,0.34,0.09,0.64,0.19,0.91l0.06,0.16h2.36l-0.31-0.4c-0.06-0.07-0.1-0.17-0.13-0.29c-0.04-0.14-0.06-0.29-0.08-0.44
		c-0.02-0.16-0.03-0.31-0.04-0.46c0-0.1-0.01-0.19-0.01-0.27l-0.01-0.15c-0.01-0.19-0.04-0.39-0.08-0.59
		c-0.04-0.22-0.12-0.41-0.22-0.59s-0.23-0.34-0.39-0.47c-0.04-0.03-0.07-0.06-0.12-0.09c0.25-0.16,0.45-0.36,0.59-0.59
		c0.21-0.36,0.31-0.78,0.31-1.25c0-0.31-0.06-0.6-0.17-0.89c-0.12-0.27-0.29-0.51-0.51-0.72c-0.22-0.21-0.49-0.38-0.79-0.49
		c-0.31-0.12-0.64-0.18-1.02-0.18h-4.38v7.88h2.19L369.16,141.16L369.16,141.16z M368.66,143.55h-1.19v-6.88h3.88
		c0.32,0,0.59,0.05,0.84,0.15c0.25,0.09,0.45,0.22,0.62,0.39c0.17,0.16,0.3,0.35,0.39,0.55c0.09,0.22,0.13,0.45,0.13,0.7
		c0,0.38-0.08,0.72-0.25,1c-0.16,0.27-0.43,0.47-0.81,0.62l-0.16,0.08v0.36l0.19,0.05c0.18,0.05,0.32,0.11,0.42,0.2
		c0.11,0.1,0.21,0.21,0.28,0.33c0.08,0.13,0.13,0.28,0.16,0.45c0.04,0.18,0.06,0.35,0.07,0.51l0.01,0.15c0,0.08,0.01,0.17,0.01,0.26
		c0.01,0.17,0.02,0.34,0.04,0.51c0.02,0.18,0.05,0.35,0.09,0.51c0,0.02,0.01,0.04,0.02,0.06h-1.11c-0.05-0.18-0.09-0.38-0.1-0.6
		c-0.02-0.32-0.05-0.63-0.1-0.95c-0.06-0.44-0.21-0.77-0.44-0.99c-0.24-0.23-0.6-0.34-1.08-0.34h-1.94v2.88L368.66,143.55
		L368.66,143.55z"/>
</g>
</svg>
