<?xml version="1.0" encoding="utf-8"?>
<!-- Generator: Adobe Illustrator 17.0.0, SVG Export Plug-In . SVG Version: 6.00 Build 0)  -->
<!DOCTYPE svg PUBLIC "-//W3C//DTD SVG 1.1//EN" "http://www.w3.org/Graphics/SVG/1.1/DTD/svg11.dtd">
<svg version="1.1" id="Layer_1" xmlns="http://www.w3.org/2000/svg" xmlns:xlink="http://www.w3.org/1999/xlink" x="0px" y="0px"
	 width="284.48px" height="112.13px" viewBox="0 0 284.48 112.13" enable-background="new 0 0 284.48 112.13" xml:space="preserve">
<g>
	<g>
		<g>
			<rect x="249.35" y="87.37" fill="#4D4E4E" width="15.87" height="7.89"/>
		</g>
		<g>
			<rect x="251.05" y="87.37" fill="#E5E5E4" width="1.7" height="6.2"/>
		</g>
		<g>
			<rect x="261.82" y="87.37" fill="#E5E5E4" width="1.7" height="6.2"/>
		</g>
		<g>
			<path fill="#333333" d="M267.48,96.21c0,1.34-1.1,2.44-2.45,2.44H250.1c-1.35,0-2.45-1.09-2.45-2.44v-0.2
				c0-1.34,1.1-2.44,2.45-2.44h14.94c1.35,0,2.45,1.09,2.45,2.44v0.2H267.48z"/>
		</g>
	</g>
	<g>
		<rect x="144.51" y="83.42" fill="#333333" width="129.21" height="4.51"/>
	</g>
	<g>
		<g>
			<polygon fill="#D8D8D7" points="283.92,92.44 274.69,92.44 270.61,80.61 283.92,80.61 			"/>
		</g>
		<g>
			<path fill="#C0272D" d="M282.78,88.54c0,0.6-0.49,1.08-1.09,1.08h-5.19c-0.6,0-1.09-0.49-1.09-1.08v-0.08
				c0-0.6,0.49-1.08,1.09-1.08h5.19c0.6,0,1.09,0.49,1.09,1.08V88.54z"/>
		</g>
		<g>
			<path fill="#333333" d="M284.48,97.83c0,0.45-0.37,0.81-0.82,0.81h-8.57c-0.45,0-0.82-0.36-0.82-0.81v-5.7
				c0-0.45,0.37-0.81,0.82-0.81h8.57c0.45,0,0.82,0.36,0.82,0.81V97.83z"/>
		</g>
	</g>
	<g>
		<path fill="#333333" d="M63.75,80.98c-0.829,0-1.5-0.672-1.5-1.5V45.543l-5.358-1.241c-0.807-0.187-1.31-0.993-1.123-1.8
			c0.187-0.808,0.995-1.312,1.8-1.123l6.52,1.51c0.68,0.158,1.162,0.763,1.162,1.461v35.13C65.25,80.308,64.578,80.98,63.75,80.98z"
			/>
	</g>
	<g>
		<path fill="#333333" d="M218.75,96.95H30.19c-7.66,0-13.06-2.81-13.06-10.43l0,0c0-7.62,5.4-10.43,13.06-10.43h33.87l5.26,4.02
			c2.22,0,149.43-0.09,149.43-0.09V96.95z"/>
	</g>
	<g>
		<path fill="#A5C56F" d="M56.05,31h-0.31c-0.08,0-0.16,0.02-0.24,0.02L55.49,31H16.32L9.03,43.06L2.18,63.9L2.11,95.26H27.2
			c0-12.96,11.97-13.53,11.97-13.53h21.47V43.29v-6.24v-1.37C60.64,33.3,58.45,31,56.05,31z"/>
	</g>
	<g>
		<path fill="#333333" d="M52.7,34.95V54.1c0,0-3.91,6.12-39.54,10.58c0,0,1.53-21.84,13.23-29.73H52.7z"/>
	</g>
	<g>
		<rect x="45.9" y="67.08" fill="#4D4E4E" width="6.23" height="10.15"/>
	</g>
	<g>
		<rect x="45.9" y="73.84" fill="#676767" width="6.23" height="3.38"/>
	</g>
	<g>
		<path fill="#FFFFFF" d="M19.83,91.67c0,1.05-0.85,1.9-1.91,1.9H10.4c-1.05,0-1.91-0.85-1.91-1.9v-0.15c0-1.05,0.85-1.9,1.91-1.9
			h7.52c1.05,0,1.91,0.85,1.91,1.9V91.67z"/>
	</g>
	<g>
		<path fill="#F69220" d="M19.83,91.87c0,1.1-0.86,1.78-2.26,1.7h-4.54v-3.95h4.54c1.75-0.07,2.26,0.8,2.26,1.9V91.87z"/>
	</g>
	<g>
		<path fill="#333333" d="M16.32,31.37c0,0-14.21,11.03-14.14,34.36c0,0,2.25,0.15,2.38-0.95C6.73,46.28,14.59,37.05,16.32,31.37z"
			/>
	</g>
	<g>
		<path fill="#979797" d="M3.97,90.79c0,0.6-0.49,1.09-1.09,1.09H2.79c-0.6,0-1.09-0.49-1.09-1.09V74.93c0-0.6,0.49-1.09,1.09-1.09
			h0.08c0.6,0,1.09,0.49,1.09,1.09L3.97,90.79L3.97,90.79z"/>
	</g>
	<g>
		<path fill="#676767" d="M29.47,97.31c0,1.05-0.85,1.9-1.91,1.9H1.91c-1.05,0-1.91-0.85-1.91-1.9v-0.15c0-1.05,0.85-1.9,1.91-1.9
			h25.65c1.05,0,1.91,0.85,1.91,1.9V97.31z"/>
	</g>
	<g>
		<path fill="#E5E5E4" d="M16.22,31c0,0,4.39-21.58,44.17-21.48c0,0,1.12,15.71-0.61,18.65c0,0-1.33,2.83-2.96,2.83
			C55.19,31,16.22,31,16.22,31z"/>
	</g>
	<g>
		<g>
			<ellipse fill="#333333" cx="47.02" cy="98.23" rx="13.97" ry="13.9"/>
		</g>
		<g>
			<g>
				<ellipse fill="#CBCBCA" cx="47.02" cy="98.23" rx="9.08" ry="9.03"/>
			</g>
			<g>
				<ellipse fill="#E5E5E4" cx="47.02" cy="98.23" rx="2.65" ry="2.64"/>
				<path fill="#333333" d="M47.02,101.37c-1.737,0-3.15-1.408-3.15-3.14s1.413-3.14,3.15-3.14c1.737,0,3.15,1.408,3.15,3.14
					S48.757,101.37,47.02,101.37z M47.02,96.09c-1.186,0-2.15,0.96-2.15,2.14s0.964,2.14,2.15,2.14s2.15-0.96,2.15-2.14
					S48.205,96.09,47.02,96.09z"/>
			</g>
			<g>
				<rect x="44.77" y="90.75" fill="#333333" width="4.53" height="1.13"/>
			</g>
			<g>
				<rect x="44.77" y="104.84" fill="#333333" width="4.53" height="1.13"/>
			</g>
			<g>
				<rect x="52.7" y="96.39" fill="#333333" width="1.13" height="3.95"/>
			</g>
			<g>
				<rect x="39.67" y="96.39" fill="#333333" width="1.13" height="3.95"/>
			</g>
		</g>
	</g>
	<g>
		<rect x="81.6" y="91.32" fill="#808080" width="134.31" height="3.95"/>
	</g>
	<g>
		<g>
			<ellipse fill="#333333" cx="227.6" cy="98.23" rx="13.97" ry="13.9"/>
		</g>
		<g>
			<g>
				<ellipse fill="#CBCBCA" cx="227.6" cy="98.23" rx="9.08" ry="9.03"/>
			</g>
			<g>
				<ellipse fill="#E5E5E4" cx="227.6" cy="98.23" rx="2.65" ry="2.64"/>
				<path fill="#333333" d="M227.6,101.37c-1.737,0-3.15-1.408-3.15-3.14s1.413-3.14,3.15-3.14c1.736,0,3.149,1.408,3.149,3.14
					S229.337,101.37,227.6,101.37z M227.6,96.09c-1.186,0-2.15,0.96-2.15,2.14s0.965,2.14,2.15,2.14s2.149-0.96,2.149-2.14
					S228.786,96.09,227.6,96.09z"/>
			</g>
			<g>
				<rect x="225.55" y="90.75" fill="#333333" width="3.97" height="1.13"/>
			</g>
			<g>
				<rect x="225.55" y="104.84" fill="#333333" width="3.97" height="1.13"/>
			</g>
			<g>
				<rect x="233.48" y="96.39" fill="#333333" width="1.13" height="3.95"/>
			</g>
			<g>
				<rect x="220.45" y="96.39" fill="#333333" width="1.13" height="3.95"/>
			</g>
		</g>
	</g>
	<g>
		<path fill="#8AA25C" d="M9.42,84.621V66.54C8.861,51.014,19.539,35.196,19.647,35.038l0.826,0.564
			c-0.106,0.155-10.601,15.708-10.053,30.92l0,17.097L26.562,83.6c0.742-1.277,4.241-6.33,13.218-6.33v1
			c-9.402,0-12.35,5.802-12.47,6.049l-0.137,0.28L9.42,84.621z"/>
	</g>
	<g>
		<path fill="#676767" d="M20.4,68.32c0,0.56-0.46,1.02-1.02,1.02h-5.33c-0.56,0-1.02-0.45-1.02-1.02V68.1
			c0-0.56,0.46-1.02,1.02-1.02h5.33c0.56,0,1.02,0.45,1.02,1.02V68.32z"/>
	</g>
	<g>
		<rect x="77.07" y="89.62" fill="#676767" width="20.97" height="9.02"/>
	</g>
	<g>
		<g>
			<path fill="#4D4E4E" d="M33.98,34.95l-4.25,27.17c5.86-1.14,10.28-2.42,13.59-3.5l3.72-23.67
				C47.04,34.95,33.98,34.95,33.98,34.95z"/>
		</g>
	</g>
	<g>
		<g>
			<rect x="69.14" y="0" fill="#D8D8D7" width="214.78" height="83.99"/>
		</g>
		<g>
			<g>
				<path fill="#E5E5E4" d="M110.51,72.6c0,2.24-1.83,4.06-4.08,4.06H80.02c-2.25,0-4.08-1.82-4.08-4.06V9.13
					c0-2.24,1.83-4.06,4.08-4.06h26.41c2.25,0,4.08,1.82,4.08,4.06C110.51,9.13,110.51,72.6,110.51,72.6z"/>
			</g>
			<g>
				<path fill="#E5E5E4" d="M151.88,72.57c0,2.24-1.83,4.09-4.08,4.09h-26.41c-2.25,0-4.08-1.84-4.08-4.09V9.1
					c0-2.24,1.83-4.03,4.08-4.03h26.41c2.25,0,4.08,1.79,4.08,4.03V72.57z"/>
			</g>
			<g>
				<path fill="#E5E5E4" d="M194.38,72.6c0,2.24-1.83,4.06-4.08,4.06h-26.41c-2.25,0-4.08-1.82-4.08-4.06V9.13
					c0-2.24,1.83-4.06,4.08-4.06h26.41c2.25,0,4.08,1.82,4.08,4.06V72.6z"/>
			</g>
		</g>
		<g>
			<g>
				<path fill="#E5E5E4" d="M277.12,72.57c0,2.24-1.83,4.09-4.08,4.09h-26.41c-2.25,0-4.08-1.84-4.08-4.09V9.1
					c0-2.24,1.83-4.03,4.08-4.03h26.41c2.25,0,4.08,1.79,4.08,4.03V72.57z"/>
			</g>
		</g>
		<g>
			<rect x="73.67" y="78.91" fill="#E5E5E4" width="205.71" height="2.82"/>
		</g>
		<g>
			<path fill="#F69220" d="M76.5,2.86c0,0.6-0.49,1.08-1.09,1.08h-3.49c-0.6,0-1.09-0.48-1.09-1.08V2.77c0-0.6,0.49-1.08,1.09-1.08
				h3.49c0.6,0,1.09,0.48,1.09,1.08V2.86z"/>
		</g>
		<g>
			<path fill="#F69220" d="M281.65,2.86c0,0.6-0.49,1.08-1.09,1.08h-3.49c-0.6,0-1.09-0.48-1.09-1.08V2.77
				c0-0.6,0.49-1.08,1.09-1.08h3.49c0.6,0,1.09,0.48,1.09,1.08V2.86z"/>
		</g>
		<g>
			<g>
				<path fill="#E5E5E4" d="M235.75,72.57c0,2.24-1.83,4.09-4.08,4.09h-26.41c-2.25,0-4.08-1.84-4.08-4.09V9.1
					c0-2.24,1.83-4.03,4.08-4.03h26.41c2.25,0,4.08,1.79,4.08,4.03V72.57z"/>
			</g>
		</g>
	</g>
	<g>
		<rect x="115.61" y="88.5" fill="#B3B2B3" width="17" height="5.07"/>
	</g>
	<g>
		<rect x="115.61" y="93.57" fill="#333333" width="17" height="5.07"/>
	</g>
	<g enable-background="new    ">
		<path fill="#B03F42" d="M98.56,11.485h3.78l2.27,8.774h-3.627l-0.337-1.804h-5.898l-1.803,1.804h-3.498L98.56,11.485z
			 M96.236,16.944h4.062l-0.663-3.453L96.236,16.944z"/>
		<path fill="#B03F42" d="M121.772,12.325c0.261,0.222,0.44,0.468,0.538,0.738c0.098,0.27,0.082,0.578-0.049,0.923
			c-0.167,0.417-0.52,0.827-1.059,1.229s-1.283,0.688-2.232,0.854c0.673,0.163,1.106,0.394,1.298,0.693
			c0.192,0.3,0.168,0.757-0.07,1.373l-0.228,0.589c-0.152,0.401-0.229,0.672-0.229,0.815c0,0.226,0.138,0.393,0.413,0.5l-0.076,0.22
			h-3.682c-0.029-0.194-0.043-0.351-0.043-0.47c0.007-0.246,0.058-0.498,0.152-0.756l0.293-0.816
			c0.203-0.56,0.161-0.933-0.125-1.119s-0.921-0.28-1.906-0.28h-3.454l-1.325,3.441h-3.27l3.4-8.774h7.853
			c1.115,0.012,1.948,0.087,2.498,0.226C121.019,11.85,121.453,12.055,121.772,12.325z M112.789,13.009l-0.913,2.357h3.791
			c0.753,0,1.336-0.048,1.749-0.143c0.731-0.167,1.195-0.496,1.39-0.988c0.203-0.532,0.018-0.889-0.554-1.071
			c-0.326-0.104-0.851-0.155-1.575-0.155H112.789z"/>
		<path fill="#B03F42" d="M136.718,11.485h4.812l-3.399,8.774h-3.117l2.292-5.935c0.072-0.17,0.172-0.41,0.299-0.717
			c0.126-0.308,0.219-0.545,0.277-0.711l-5.876,7.364h-3.248l-0.163-7.364c-0.058,0.167-0.143,0.404-0.255,0.711
			s-0.205,0.547-0.277,0.717l-2.292,5.935h-3.117l3.4-8.774h4.866l0.228,6.899L136.718,11.485z"/>
		<path fill="#B03F42" d="M149.219,11.485H153l2.27,8.774h-3.627l-0.337-1.804h-5.898l-1.803,1.804h-3.498L149.219,11.485z
			 M146.895,16.944h4.062l-0.663-3.453L146.895,16.944z"/>
		<path fill="#B03F42" d="M160.765,17.551c-0.051,0.401,0.033,0.7,0.25,0.899c0.405,0.361,1.268,0.542,2.585,0.542
			c0.789,0,1.448-0.047,1.978-0.143c1.006-0.183,1.604-0.522,1.792-1.018c0.115-0.29-0.029-0.514-0.435-0.673
			c-0.398-0.155-1.072-0.292-2.021-0.411l-1.618-0.208c-1.586-0.206-2.65-0.431-3.193-0.672c-0.92-0.405-1.213-1.038-0.88-1.899
			c0.304-0.786,1.079-1.438,2.324-1.958c1.245-0.52,2.879-0.78,4.898-0.78c1.688,0,3.031,0.245,4.03,0.735s1.347,1.202,1.043,2.134
			h-3.216c0.152-0.528-0.119-0.903-0.814-1.125c-0.463-0.146-1.082-0.22-1.857-0.22c-0.861,0-1.588,0.095-2.178,0.286
			c-0.59,0.19-0.95,0.456-1.08,0.797c-0.124,0.313,0.039,0.548,0.488,0.703c0.282,0.103,0.931,0.224,1.944,0.363l2.617,0.363
			c1.145,0.159,1.974,0.371,2.487,0.637c0.797,0.413,1.043,1.01,0.739,1.792c-0.312,0.802-1.13,1.468-2.455,1.998
			s-3.009,0.794-5.051,0.794c-2.085,0-3.624-0.261-4.616-0.783s-1.311-1.239-0.956-2.152H160.765z"/>
	</g>
	<g>
		<polygon points="88.89,21.73 81.77,27.9 283.92,27.9 283.92,21.73 		"/>
	</g>
	<g enable-background="new    ">
		<path fill="#FFFFFF" d="M89.863,23.181v2.508h1.508v0.569h-2.188v-3.077H89.863z"/>
		<path fill="#FFFFFF" d="M92.713,24.093c0.069-0.197,0.169-0.369,0.299-0.515s0.29-0.261,0.479-0.345
			c0.189-0.083,0.402-0.125,0.639-0.125c0.24,0,0.454,0.042,0.641,0.125c0.188,0.083,0.347,0.198,0.477,0.345
			c0.13,0.146,0.23,0.318,0.299,0.515s0.104,0.41,0.104,0.64c0,0.224-0.034,0.433-0.104,0.627s-0.169,0.363-0.299,0.506
			c-0.13,0.144-0.289,0.256-0.477,0.338c-0.188,0.082-0.401,0.123-0.641,0.123c-0.237,0-0.45-0.041-0.639-0.123
			c-0.189-0.082-0.349-0.195-0.479-0.338s-0.229-0.312-0.299-0.506s-0.104-0.403-0.104-0.627
			C92.609,24.503,92.644,24.29,92.713,24.093z M93.335,25.109c0.03,0.122,0.079,0.232,0.145,0.33s0.153,0.176,0.26,0.235
			c0.107,0.059,0.237,0.088,0.39,0.088c0.153,0,0.283-0.029,0.39-0.088c0.107-0.059,0.193-0.137,0.26-0.235s0.115-0.208,0.145-0.33
			s0.046-0.248,0.046-0.377c0-0.135-0.016-0.266-0.046-0.392s-0.079-0.239-0.145-0.338s-0.153-0.178-0.26-0.237
			s-0.237-0.088-0.39-0.088c-0.153,0-0.283,0.029-0.39,0.088s-0.194,0.138-0.26,0.237s-0.115,0.212-0.145,0.338
			s-0.045,0.257-0.045,0.392C93.289,24.862,93.304,24.987,93.335,25.109z"/>
		<path fill="#FFFFFF" d="M98.938,26.234c-0.147,0.062-0.296,0.093-0.446,0.093c-0.237,0-0.45-0.041-0.639-0.123
			c-0.189-0.082-0.349-0.195-0.479-0.338s-0.229-0.312-0.299-0.506s-0.104-0.403-0.104-0.627c0-0.23,0.035-0.443,0.104-0.64
			s0.169-0.369,0.299-0.515s0.29-0.261,0.479-0.345c0.189-0.083,0.402-0.125,0.639-0.125c0.159,0,0.313,0.024,0.461,0.071
			c0.149,0.047,0.283,0.117,0.403,0.209c0.12,0.092,0.219,0.205,0.297,0.34s0.125,0.29,0.143,0.465h-0.65
			c-0.041-0.172-0.119-0.302-0.234-0.388c-0.116-0.086-0.256-0.129-0.42-0.129c-0.153,0-0.283,0.029-0.39,0.088
			s-0.194,0.138-0.26,0.237s-0.115,0.212-0.145,0.338s-0.045,0.257-0.045,0.392c0,0.129,0.015,0.255,0.045,0.377
			s0.079,0.232,0.145,0.33s0.153,0.176,0.26,0.235c0.107,0.059,0.237,0.088,0.39,0.088c0.226,0,0.399-0.057,0.522-0.17
			c0.123-0.114,0.194-0.278,0.215-0.494h-0.685v-0.504h1.299v1.663H99.41l-0.069-0.349C99.22,26.064,99.086,26.172,98.938,26.234z"
			/>
		<path fill="#FFFFFF" d="M102.066,23.181v3.077h-0.68v-3.077H102.066z"/>
		<path fill="#FFFFFF" d="M104.176,25.5c0.038,0.072,0.087,0.13,0.149,0.174c0.062,0.045,0.135,0.078,0.219,0.099
			c0.083,0.021,0.17,0.032,0.26,0.032c0.061,0,0.126-0.005,0.195-0.015c0.069-0.01,0.134-0.03,0.195-0.059
			c0.061-0.028,0.111-0.068,0.151-0.118s0.061-0.114,0.061-0.192c0-0.083-0.027-0.151-0.081-0.203
			c-0.053-0.052-0.123-0.095-0.21-0.129c-0.086-0.035-0.185-0.065-0.294-0.091s-0.221-0.054-0.333-0.086
			c-0.116-0.029-0.229-0.064-0.338-0.105c-0.11-0.042-0.208-0.096-0.295-0.162c-0.086-0.066-0.157-0.149-0.21-0.248
			c-0.054-0.099-0.08-0.219-0.08-0.36c0-0.158,0.034-0.295,0.102-0.411c0.068-0.117,0.157-0.213,0.267-0.291
			s0.234-0.135,0.373-0.172s0.277-0.056,0.416-0.056c0.162,0,0.317,0.018,0.466,0.054c0.148,0.036,0.281,0.094,0.396,0.174
			c0.116,0.081,0.208,0.183,0.275,0.308s0.102,0.276,0.102,0.455h-0.658c-0.006-0.092-0.025-0.168-0.059-0.229
			c-0.033-0.06-0.077-0.107-0.132-0.142c-0.055-0.035-0.118-0.059-0.188-0.073s-0.148-0.021-0.231-0.021
			c-0.055,0-0.11,0.006-0.165,0.017c-0.055,0.012-0.105,0.032-0.15,0.061c-0.044,0.029-0.082,0.064-0.11,0.107
			c-0.029,0.043-0.043,0.098-0.043,0.164c0,0.06,0.012,0.109,0.035,0.146c0.023,0.037,0.069,0.072,0.137,0.103
			c0.068,0.032,0.162,0.063,0.282,0.095c0.12,0.031,0.276,0.072,0.47,0.121c0.058,0.011,0.138,0.032,0.241,0.062
			c0.103,0.03,0.204,0.078,0.305,0.144c0.101,0.066,0.188,0.155,0.262,0.265s0.11,0.252,0.11,0.424c0,0.141-0.027,0.271-0.082,0.392
			c-0.055,0.121-0.137,0.225-0.245,0.312c-0.108,0.088-0.243,0.156-0.403,0.205s-0.346,0.073-0.557,0.073
			c-0.17,0-0.335-0.021-0.496-0.062c-0.16-0.042-0.302-0.107-0.424-0.196c-0.123-0.089-0.22-0.203-0.292-0.34
			c-0.072-0.138-0.107-0.302-0.104-0.491h0.659C104.12,25.34,104.138,25.428,104.176,25.5z"/>
		<path fill="#FFFFFF" d="M107.217,23.75v-0.569h2.535v0.569h-0.927v2.508h-0.68V23.75H107.217z"/>
		<path fill="#FFFFFF" d="M111.779,23.181v3.077h-0.68v-3.077H111.779z"/>
		<path fill="#FFFFFF" d="M115.353,24.002c-0.041-0.064-0.091-0.121-0.152-0.17s-0.129-0.087-0.206-0.114
			c-0.077-0.027-0.157-0.041-0.241-0.041c-0.153,0-0.283,0.029-0.39,0.088s-0.194,0.138-0.26,0.237s-0.115,0.212-0.145,0.338
			s-0.045,0.257-0.045,0.392c0,0.129,0.015,0.255,0.045,0.377s0.079,0.232,0.145,0.33s0.153,0.176,0.26,0.235
			c0.107,0.059,0.237,0.088,0.39,0.088c0.208,0,0.371-0.063,0.487-0.189c0.117-0.126,0.188-0.293,0.215-0.5h0.658
			c-0.017,0.192-0.062,0.366-0.134,0.521s-0.167,0.287-0.286,0.396c-0.119,0.109-0.257,0.192-0.416,0.25
			c-0.159,0.057-0.333,0.086-0.524,0.086c-0.237,0-0.45-0.041-0.639-0.123c-0.189-0.082-0.349-0.195-0.479-0.338
			s-0.229-0.312-0.299-0.506s-0.104-0.403-0.104-0.627c0-0.23,0.035-0.443,0.104-0.64s0.169-0.369,0.299-0.515
			s0.29-0.261,0.479-0.345c0.189-0.083,0.402-0.125,0.639-0.125c0.17,0,0.332,0.024,0.483,0.073c0.151,0.049,0.287,0.12,0.407,0.213
			c0.12,0.093,0.219,0.209,0.296,0.347c0.078,0.138,0.127,0.296,0.147,0.474h-0.659C115.419,24.138,115.393,24.067,115.353,24.002z"
			/>
		<path fill="#FFFFFF" d="M120.287,25.5c0.038,0.072,0.087,0.13,0.149,0.174c0.062,0.045,0.135,0.078,0.219,0.099
			c0.083,0.021,0.17,0.032,0.26,0.032c0.061,0,0.126-0.005,0.195-0.015c0.069-0.01,0.134-0.03,0.195-0.059
			c0.061-0.028,0.111-0.068,0.151-0.118s0.061-0.114,0.061-0.192c0-0.083-0.027-0.151-0.081-0.203
			c-0.053-0.052-0.123-0.095-0.21-0.129c-0.086-0.035-0.185-0.065-0.294-0.091s-0.221-0.054-0.333-0.086
			c-0.116-0.029-0.229-0.064-0.338-0.105c-0.11-0.042-0.208-0.096-0.295-0.162c-0.086-0.066-0.157-0.149-0.21-0.248
			c-0.054-0.099-0.08-0.219-0.08-0.36c0-0.158,0.034-0.295,0.102-0.411c0.068-0.117,0.157-0.213,0.267-0.291
			s0.234-0.135,0.373-0.172s0.277-0.056,0.416-0.056c0.162,0,0.317,0.018,0.466,0.054c0.148,0.036,0.281,0.094,0.396,0.174
			c0.116,0.081,0.208,0.183,0.275,0.308s0.102,0.276,0.102,0.455h-0.658c-0.006-0.092-0.025-0.168-0.059-0.229
			c-0.033-0.06-0.077-0.107-0.132-0.142c-0.055-0.035-0.118-0.059-0.188-0.073s-0.148-0.021-0.231-0.021
			c-0.055,0-0.11,0.006-0.165,0.017c-0.055,0.012-0.105,0.032-0.15,0.061c-0.044,0.029-0.082,0.064-0.11,0.107
			c-0.029,0.043-0.043,0.098-0.043,0.164c0,0.06,0.012,0.109,0.035,0.146c0.023,0.037,0.069,0.072,0.137,0.103
			c0.068,0.032,0.162,0.063,0.282,0.095c0.12,0.031,0.276,0.072,0.47,0.121c0.058,0.011,0.138,0.032,0.241,0.062
			c0.103,0.03,0.204,0.078,0.305,0.144c0.101,0.066,0.188,0.155,0.262,0.265s0.11,0.252,0.11,0.424c0,0.141-0.027,0.271-0.082,0.392
			c-0.055,0.121-0.137,0.225-0.245,0.312c-0.108,0.088-0.243,0.156-0.403,0.205s-0.346,0.073-0.557,0.073
			c-0.17,0-0.335-0.021-0.496-0.062c-0.16-0.042-0.302-0.107-0.424-0.196c-0.123-0.089-0.22-0.203-0.292-0.34
			c-0.072-0.138-0.107-0.302-0.104-0.491h0.659C120.231,25.34,120.25,25.428,120.287,25.5z"/>
		<path fill="#FFFFFF" d="M125.884,23.181v0.569h-1.633v0.659h1.499v0.526h-1.499v0.754h1.668v0.569h-2.348v-3.077H125.884z"/>
		<path fill="#FFFFFF" d="M129.038,23.181c0.139,0,0.264,0.022,0.375,0.067c0.111,0.044,0.207,0.105,0.286,0.183
			s0.14,0.167,0.182,0.27c0.042,0.102,0.062,0.212,0.062,0.33c0,0.181-0.038,0.337-0.115,0.47c-0.077,0.132-0.201,0.232-0.375,0.301
			v0.009c0.083,0.023,0.153,0.058,0.208,0.105c0.055,0.047,0.1,0.104,0.134,0.168c0.035,0.065,0.06,0.136,0.076,0.213
			c0.016,0.078,0.027,0.155,0.032,0.233c0.003,0.049,0.006,0.106,0.009,0.172c0.003,0.066,0.008,0.133,0.015,0.202
			c0.007,0.069,0.019,0.134,0.035,0.196c0.016,0.062,0.04,0.114,0.072,0.157h-0.68c-0.038-0.098-0.061-0.214-0.069-0.349
			c-0.009-0.135-0.022-0.264-0.039-0.388c-0.023-0.161-0.072-0.279-0.147-0.354s-0.198-0.112-0.368-0.112h-0.68v1.202h-0.68v-3.077
			H129.038z M128.795,24.573c0.156,0,0.273-0.035,0.351-0.104s0.117-0.181,0.117-0.336c0-0.149-0.039-0.258-0.117-0.325
			s-0.195-0.101-0.351-0.101h-0.745v0.866H128.795z"/>
		<path fill="#FFFFFF" d="M132.083,26.258l-1-3.077h0.697l0.689,2.163h0.009l0.697-2.163h0.702l-1.027,3.077H132.083z"/>
		<path fill="#FFFFFF" d="M135.813,23.181v3.077h-0.68v-3.077H135.813z"/>
		<path fill="#FFFFFF" d="M139.387,24.002c-0.041-0.064-0.091-0.121-0.152-0.17s-0.129-0.087-0.206-0.114
			c-0.077-0.027-0.157-0.041-0.241-0.041c-0.153,0-0.283,0.029-0.39,0.088s-0.194,0.138-0.26,0.237s-0.115,0.212-0.145,0.338
			s-0.045,0.257-0.045,0.392c0,0.129,0.015,0.255,0.045,0.377s0.079,0.232,0.145,0.33s0.153,0.176,0.26,0.235
			c0.107,0.059,0.237,0.088,0.39,0.088c0.208,0,0.371-0.063,0.487-0.189c0.117-0.126,0.188-0.293,0.215-0.5h0.658
			c-0.017,0.192-0.062,0.366-0.134,0.521s-0.167,0.287-0.286,0.396c-0.119,0.109-0.257,0.192-0.416,0.25
			c-0.159,0.057-0.333,0.086-0.524,0.086c-0.237,0-0.45-0.041-0.639-0.123c-0.189-0.082-0.349-0.195-0.479-0.338
			s-0.229-0.312-0.299-0.506s-0.104-0.403-0.104-0.627c0-0.23,0.035-0.443,0.104-0.64s0.169-0.369,0.299-0.515
			s0.29-0.261,0.479-0.345c0.189-0.083,0.402-0.125,0.639-0.125c0.17,0,0.332,0.024,0.483,0.073c0.151,0.049,0.287,0.12,0.407,0.213
			c0.12,0.093,0.219,0.209,0.296,0.347c0.078,0.138,0.127,0.296,0.147,0.474h-0.659C139.454,24.138,139.427,24.067,139.387,24.002z"
			/>
		<path fill="#FFFFFF" d="M143.919,23.181v0.569h-1.633v0.659h1.499v0.526h-1.499v0.754h1.667v0.569h-2.348v-3.077H143.919z"/>
	</g>
</g>
</svg>
