<?xml version="1.0" encoding="utf-8"?>
<!-- Generator: Adobe Illustrator 17.0.0, SVG Export Plug-In . SVG Version: 6.00 Build 0)  -->
<!DOCTYPE svg PUBLIC "-//W3C//DTD SVG 1.1//EN" "http://www.w3.org/Graphics/SVG/1.1/DTD/svg11.dtd">
<svg version="1.1" id="Layer_1" xmlns="http://www.w3.org/2000/svg" xmlns:xlink="http://www.w3.org/1999/xlink" x="0px" y="0px"
	 width="400px" height="400px" viewBox="0 -25 400 400" enable-background="new 0 -25 400 400" xml:space="preserve">
<g>
	<path fill="#FFFFFF" d="M40.54,242.39l0.31-0.04c16.41-2.06,30.08-4.25,41.47-6.45l-0.03,0.17l0.35-0.07
		c8.28-1.61,15.28-3.31,21.08-4.9c29.87-7.8,34.38-14.67,34.63-15.09l0.04-0.06v-47.82H125.8H92.93h-18.7l-0.06,0.04
		c-28.76,19.41-33.55,73.36-33.6,73.9L40.54,242.39z M137.89,168.63v47.17c-0.38,0.54-4.09,5.12-21.3,10.91l9.13-58.08H137.89z
		 M125.22,168.63l-9.15,58.25c-1.68,0.54-3.6,1.15-5.75,1.8c-7.16,2.12-16.15,4.34-27.38,6.55l10.43-66.61L125.22,168.63
		L125.22,168.63z M74.38,168.63h18.46L82.4,235.34c-11.34,2.22-24.96,4.42-41.31,6.47C41.53,237.4,47,187.18,74.38,168.63z"/>
	<path fill="#FFFFFF" d="M118.23,309.76h11.74v-3.29h-11.74V309.76z M118.73,306.96h10.74v2.29h-10.74V306.96z"/>
	<path fill="#FFFFFF" d="M118.23,344.7h11.74v-3.29h-11.74V344.7z M118.73,341.89h10.74v2.29h-10.74V341.89z"/>
	<path fill="#FFFFFF" d="M390.48,330.77c0.77,0,1.54-0.17,2.27-0.49l-0.21-0.46c-0.67,0.3-1.36,0.45-2.06,0.45
		c-2.77,0-5.03-2.24-5.03-4.99c0-1.11,0.38-2.12,0.99-2.95h6.2v-0.5h-5.78c0.92-0.95,2.2-1.54,3.62-1.54c0.7,0,1.4,0.15,2.06,0.45
		l0.21-0.46c-0.73-0.33-1.49-0.5-2.27-0.5c-1.73,0-3.28,0.8-4.3,2.04h-0.98c1.13-1.71,3.08-2.84,5.28-2.84c0.7,0,1.4,0.12,2.08,0.36
		l0.16-0.47c-0.73-0.25-1.49-0.38-2.24-0.38c-2.5,0-4.68,1.34-5.87,3.34h-0.91c0.88-1.71,2.4-3.04,4.24-3.69h4.7v-0.38l0.07-0.24
		c-0.74-0.21-1.49-0.32-2.23-0.32c-0.92,0-1.8,0.16-2.62,0.44H369.6c1.35-3.64,3.64-6.83,6.56-9.28h7.58v1.4h8.9v-0.5h-8.4v-0.9h8.4
		v-0.5h-8.4v-0.9h8.4v-0.5h-8.9v1.4h-6.96c3.78-2.95,8.54-4.71,13.7-4.71c0.69,0,1.41,0.04,2.14,0.1l0.05-0.5
		c-0.74-0.07-1.48-0.11-2.19-0.11c-5.51,0-10.57,1.96-14.51,5.21h-15.08c1.76-2.94,3.94-5.6,6.46-7.88h25.28v-0.5h-24.7
		c6.04-5.23,13.92-8.4,22.54-8.4c0.65,0,1.36,0.02,2.15,0.07l0.03-0.5c-0.8-0.05-1.51-0.08-2.18-0.08c-8.95,0-17.12,3.37-23.3,8.9
		h-1.2v-9.28h26.67v-0.5h-26.67v-0.9h26.67v-0.5h-27.17v1.4H179.13v-9.75l0.81,0.66h0.09c0.56,0,4.05,0,9.84-0.01v4.01h202.77v-0.5
		H190.37v-3.51c30.85-0.02,124.11-0.08,195.39-0.13h6.88v-0.5h-6.88c-71.27,0.05-164.54,0.11-195.39,0.13v-2.48h202.27v-0.5H189.87
		v2.98c-5.54,0-8.97,0.01-9.75,0.01l-0.99-0.8V81.99h213.51v-0.5H178.63V278.9l-8.96-7.24v-79.93c0-1.93-1.32-3.59-3.2-4.03
		l-8.41-1.96v-15.52c0-4.85-2.82-10-7.52-11.46c3.77-0.77,6.64-6.78,6.76-7.04c4.29-7.28,1.67-44.79,1.55-46.38l-0.02-0.23h-0.92
		c-50.69,0-77.63,14.51-91.3,26.68C51.76,145,48.89,158.41,48.86,158.54l-0.06,0.3h0.12l-0.91,1.51c-2.7,2.38-9.61,9-16.45,19.94
		c-7.59,12.15-16.54,32.14-17.42,59.57l-0.07,0.21l-0.01,4.51c0,0.04,0,0.08,0,0.12v0.23l0,0l-0.05,19.64
		c-1.43,0.2-2.54,1.42-2.54,2.9v39.34c0,1.45,1.05,2.64,2.44,2.89l-0.02,7.94h-1.66c-2.75,0-4.98,2.22-4.98,4.96v0.37
		c0,2.73,2.23,4.96,4.98,4.96h63.59c2.75,0,4.98-2.22,4.98-4.96v-0.37c0-0.11-0.03-0.22-0.03-0.33c0.97,0.04,1.96,0.07,2.99,0.07
		h6.96c-0.08,0.97-0.14,1.96-0.14,2.95c0,19.14,15.65,34.71,34.89,34.71s34.89-15.57,34.89-34.71c0-0.99-0.05-1.98-0.14-2.95h15.59
		v4.19h52.48v-4.19h52.88v4.19h42.65v-4.19h31.89c-0.08,0.97-0.14,1.96-0.14,2.95c0,19.14,15.65,34.71,34.89,34.71
		c0.66,0,1.37-0.02,2.18-0.07l-0.03-0.5c-0.8,0.05-1.5,0.07-2.15,0.07c-18.96,0-34.39-15.35-34.39-34.21c0-0.99,0.05-1.98,0.14-2.95
		h11.7c-0.13,0.97-0.2,1.95-0.2,2.95c0,12.48,10.21,22.63,22.75,22.63c0.71,0,1.45-0.04,2.19-0.11l-0.05-0.5
		c-0.72,0.07-1.44,0.1-2.14,0.1c-12.27,0-22.25-9.93-22.25-22.13c0-1,0.07-1.98,0.2-2.95h2.67v8.38h3.31v-8.38h8.52
		c-0.36,0.92-0.57,1.91-0.57,2.95c0,4.46,3.64,8.08,8.12,8.08c0.74,0,1.49-0.11,2.23-0.32l-0.14-0.48c-0.69,0.2-1.4,0.3-2.09,0.3
		c-4.2,0-7.62-3.4-7.62-7.58c0-1.05,0.21-2.04,0.6-2.95h0.88c-0.44,0.89-0.69,1.89-0.69,2.95c0,3.74,3.06,6.79,6.83,6.79
		c0.76,0,1.51-0.13,2.24-0.38l-0.16-0.47c-0.68,0.24-1.38,0.36-2.08,0.36c-3.49,0-6.33-2.82-6.33-6.29c0-1.07,0.27-2.07,0.74-2.95
		h0.93c-0.55,0.85-0.87,1.86-0.87,2.95C384.95,328.32,387.43,330.77,390.48,330.77z M375.39,308.36c-2.83,2.5-5.03,5.68-6.33,9.28
		h-12.1c0.76-3.3,2-6.42,3.65-9.28H375.39z M281.69,317.64v-3.69h41.65v3.69H281.69z M323.33,318.14v3.69h-41.65v-3.69H323.33z
		 M227.8,307.86h-18.26v10.28h18.26v3.69h-51.48v-17.67h51.48V307.86z M210.04,317.64v-9.28h17.76v9.28H210.04z M228.3,308.36h52.88
		v5.09v0.5v3.69H228.3V308.36L228.3,308.36z M323.33,307.86h-41.65v-6.49h41.65V307.86z M323.33,308.36v5.09h-41.65v-5.09H323.33z
		 M323.83,313.95v-0.5v-5.09h36.2c-1.62,2.87-2.83,5.99-3.58,9.28h-32.62L323.83,313.95L323.83,313.95z M166.36,188.18
		c1.66,0.39,2.81,1.84,2.81,3.54v79.52l-1.38-1.12h-5.89v-75.51l-3.84-0.89v-7.47L166.36,188.18z M161.9,270.64h5.71l1.56,1.26v6.87
		c0,2-1.63,3.64-3.64,3.64c-2.01,0-3.64-1.63-3.64-3.64L161.9,270.64L161.9,270.64z M161.4,270.14h-3.34v-75.9l3.34,0.78V270.14z
		 M157.56,193.6l-9.03-2.1c-0.95-0.22-1.75-0.79-2.26-1.62c-0.51-0.82-0.67-1.8-0.45-2.75c0.38-1.65,1.84-2.81,3.55-2.81
		c0.27,0,0.55,0.03,0.81,0.09l7.38,1.72L157.56,193.6L157.56,193.6z M66.97,132.15c24.66-21.93,63.06-26.53,90.94-26.53h0.46
		c0.22,3.24,2.54,39.01-1.51,45.88c-0.03,0.07-3.26,6.85-7.11,6.85h-1.9h-0.76h-0.52H49.42C49.94,156.3,53.46,144.15,66.97,132.15z
		 M31.96,180.58c5.93-9.49,11.92-15.73,15.14-18.74l-16.06,26.57L14.7,238.14C15.9,211.73,24.57,192.43,31.96,180.58z M48.86,160.27
		c-1.3,3.86-3.63,8.33-6.53,13.88c-7.38,14.14-18.54,35.51-22.38,68.18c-0.25,2.17-4.38,2.17-5.4,2.14c0-1.54,0.04-3.04,0.08-4.54
		l16.86-51.32l16.9-27.95C48.57,160.52,48.72,160.38,48.86,160.27z M14.49,265.04h0.13c1.35,0,2.46,1.09,2.46,2.44v39.33
		c0,1.35-1.1,2.44-2.46,2.44h-0.21c-0.01,0-0.01,0-0.02,0L14.49,265.04z M11.96,306.82v-39.33c0-1.21,0.88-2.2,2.04-2.4l-0.1,44.12
		C12.79,308.96,11.96,307.98,11.96,306.82z M14.39,309.76c0.01,0,0.01,0,0.02,0h0.21c1.63,0,2.96-1.32,2.96-2.94v-39.33
		c0-1.62-1.33-2.94-2.96-2.94h-0.13l0.04-19.57c0.11,0,0.25,0.01,0.43,0.01l0,0c1.56,0,5.2-0.25,5.48-2.59
		c1.53-12.97,3.83-32.58,22.33-68.01c3.12-5.97,5.58-10.69,6.83-14.78l0.23-0.75l-0.62,0.48l0,0l0.3-0.49h96.84l0.06,0.06l0.12-0.01
		c0.09-0.01,0.18-0.02,0.27-0.03c0.1-0.01,0.2-0.03,0.3-0.03h0.76c6,0,9.71,5.91,9.71,11.38v15.4l-7.27-1.69
		c-0.3-0.07-0.62-0.1-0.93-0.1c-1.94,0-3.6,1.31-4.04,3.2c-0.25,1.08-0.07,2.19,0.52,3.12c0.59,0.93,1.5,1.59,2.57,1.84l9.14,2.13
		v76.01h-20.57v-5.59v-16.77h-15.95v16.77v5.59H83.75c-18.27,0-28.93,6.25-31.82,18.62l-18.31,0.03v-42.09
		c-1.36-37.55,25.29-76.07,25.56-76.45l0.14-0.2l-2.53-1.77l-0.14,0.2c-0.28,0.39-27.52,39.66-26.11,78.29v45.13l20.86-0.03
		c-0.17,1.4-0.26,2.86-0.26,4.39c0,2.68,0.26,5.16,0.79,7.43H39.56H33.3c-2.75,0-4.98,2.22-4.98,4.96v0.37
		c0,2.73,2.23,4.96,4.98,4.96h6.26h12.38h0.55c1.62,0,2.82-0.52,3.56-1.48c1.61,2.04,3.62,3.77,6.02,5.18H14.38L14.39,309.76z
		 M80.21,321.74c-6.47-0.32-11.85-1.52-16.13-3.6h11.73C77.99,318.14,79.81,319.7,80.21,321.74z M75.81,317.64h-12.7
		c-2.75-1.48-5-3.36-6.76-5.63c0.37-0.67,0.57-1.5,0.57-2.49v-0.53v-0.37c0-3.06-1.7-4.96-4.44-4.96h-0.03
		c-0.54-2.27-0.81-4.75-0.81-7.43c0-1.53,0.09-3,0.27-4.39l22.87-0.03l0.96-0.01l0.42-0.86c0.3-0.61,7.52-14.83,30.64-14.83h0.25
		v-3.09h-0.25c-21.84,0-30.66,11.85-32.94,15.7l-21.4,0.03c2.89-12.03,13.38-18.12,31.29-18.12h37.29v2.79h15.95v-2.79h20.57v13.47
		h-51.57c-0.07,0-7.56,0.4-14.95,4.75c-6.79,4-14.88,12.23-14.96,28.79L75.81,317.64L75.81,317.64z M39.56,313.45H33.3
		c-2.47,0-4.48-2-4.48-4.46v-0.37c0-2.46,2.01-4.46,4.48-4.46h6.26V313.45z M40.06,304.17h11.88c0.04,0,0.08,0.01,0.12,0.01
		c0.72,2.84,1.85,5.35,3.41,7.52c-0.82,1.05-2.09,1.75-3.53,1.75H40.06V304.17z M56.41,308.99c0,0.82-0.24,1.59-0.63,2.25
		c-1.43-2.04-2.5-4.38-3.19-7.01c2.16,0.32,3.82,2.16,3.82,4.39V308.99z M56.92,168.94l1.71,1.2c-2.11,3.1-26.83,40.27-25.5,76.55
		v42.58l18.7-0.03c-0.15,0.68-0.27,1.38-0.37,2.09l-20.43,0.03v-44.64C29.68,209.71,54.78,172.07,56.92,168.94z M52.35,289.24
		l21.66-0.03h0.14l0.07-0.12c2.12-3.64,10.7-15.49,32.33-15.58v2.09c-23.23,0.1-30.53,14.5-30.83,15.11l-0.29,0.58l-23.46,0.03
		C52.07,290.63,52.2,289.92,52.35,289.24z M136.49,264.54h-14.95v-16.27h14.95V264.54z M136.49,265.04v5.09h-14.95v-5.09H136.49z
		 M136.49,270.64v2.29h-14.95v-2.29H136.49z M80.3,322.6v0.37c0,2.46-2.01,4.46-4.48,4.46H12.23c-2.47,0-4.48-2-4.48-4.46v-0.37
		c0-2.46,2.01-4.46,4.48-4.46h1.65h49.07c4.5,2.4,10.27,3.77,17.32,4.11C80.27,322.36,80.3,322.48,80.3,322.6z M159.87,325.29
		c0,18.86-15.43,34.21-34.39,34.21s-34.39-15.35-34.39-34.21c0-0.99,0.05-1.98,0.14-2.95h11.7c-0.13,0.97-0.2,1.95-0.2,2.95
		c0,12.48,10.21,22.63,22.76,22.63s22.76-10.15,22.76-22.63c0-1-0.07-1.98-0.2-2.95h11.7C159.81,323.3,159.87,324.29,159.87,325.29z
		 M147.73,325.29c0,12.21-9.98,22.13-22.26,22.13s-22.26-9.93-22.26-22.13c0-1,0.07-1.98,0.2-2.95h2.16v8.38h3.31v-8.38h9.03
		c-0.36,0.92-0.57,1.91-0.57,2.95c0,4.46,3.64,8.08,8.12,8.08c4.48,0,8.12-3.63,8.12-8.08c0-1.04-0.21-2.04-0.57-2.95h4.87v8.38
		h3.31v-8.38h6.32C147.65,323.3,147.73,324.29,147.73,325.29z M108.39,321.83h-2.31v-0.9h2.31V321.83z M108.39,322.33v7.88h-2.31
		v-7.88H108.39z M129.51,322.33c0.62,0.83,0.99,1.84,0.99,2.95c0,2.75-2.26,4.99-5.03,4.99c-2.77,0-5.03-2.24-5.03-4.99
		c0-1.11,0.38-2.12,0.99-2.95H129.51z M121.85,321.83c0.92-0.95,2.2-1.54,3.62-1.54s2.7,0.6,3.62,1.54H121.85z M119.94,325.29
		c0,3.03,2.48,5.49,5.53,5.49c3.05,0,5.53-2.46,5.53-5.49c0-1.09-0.32-2.1-0.87-2.95h0.93c0.47,0.88,0.74,1.88,0.74,2.95
		c0,3.47-2.84,6.29-6.32,6.29c-3.49,0-6.33-2.82-6.33-6.29c0-1.07,0.27-2.07,0.74-2.95h0.93
		C120.27,323.18,119.94,324.2,119.94,325.29z M129.77,321.83c-1.01-1.24-2.56-2.04-4.3-2.04c-1.73,0-3.28,0.8-4.3,2.04h-0.99
		c1.13-1.71,3.08-2.84,5.28-2.84c2.21,0,4.15,1.13,5.28,2.84H129.77z M125.47,318.49c-2.5,0-4.68,1.34-5.87,3.34h-0.91
		c1.26-2.45,3.83-4.13,6.78-4.13c2.95,0,5.51,1.68,6.78,4.13h-0.91C130.15,319.83,127.97,318.49,125.47,318.49z M119.33,322.33
		c-0.44,0.89-0.69,1.89-0.69,2.95c0,3.74,3.06,6.79,6.83,6.79c3.76,0,6.82-3.04,6.82-6.79c0-1.06-0.25-2.06-0.69-2.95h0.88
		c0.39,0.91,0.6,1.9,0.6,2.95c0,4.18-3.42,7.58-7.62,7.58c-4.2,0-7.62-3.4-7.62-7.58c0-1.05,0.21-2.04,0.6-2.95H119.33z
		 M140.7,321.83h-2.31v-0.9h2.31V321.83z M140.7,322.33v7.88h-2.31v-7.88H140.7z M141.2,321.83v-1.4h-3.31v1.4h-5.09
		c-1.3-2.73-4.09-4.63-7.33-4.63c-3.24,0-6.03,1.9-7.33,4.63h-9.25v-1.4h-3.31v1.4h-2.09c1.67-10.57,10.89-18.68,21.98-18.68
		s20.31,8.11,21.98,18.68H141.2L141.2,321.83z M125.47,302.65c-11.37,0-20.82,8.34-22.49,19.18H91.25
		c1.75-17.25,16.43-30.76,34.22-30.76s32.47,13.51,34.22,30.76h-11.73C146.29,310.98,136.84,302.65,125.47,302.65z M160.19,321.83
		c-1.75-17.52-16.65-31.26-34.72-31.26S92.5,304.3,90.75,321.83h-7c-1.04,0-2.05-0.03-3.04-0.07c-0.36-2.08-2.02-3.72-4.12-4.05
		c0.06-16.36,8.01-24.48,14.69-28.42c7.28-4.29,14.66-4.69,14.72-4.69h52.06v-13.97h3.34v8.13c0,2.28,1.86,4.14,4.14,4.14
		s4.14-1.86,4.14-4.14v-6.47l8.96,7.24v10.65h186.84v9.78h1.16c-2.47,2.3-4.6,4.96-6.32,7.88h-36.49v-6.99h-42.65v6.99H228.3v-4.19
		h-52.48v18.17L160.19,321.83L160.19,321.83L160.19,321.83z M227.8,326.02h-51.48v-3.69h51.48V326.02z M228.3,321.83v-3.69h52.88
		v3.69H228.3z M323.33,326.02h-41.65v-3.69h41.65V326.02z M323.83,321.83v-3.69h32.5c-0.26,1.21-0.45,2.44-0.57,3.69H323.83z
		 M356.26,321.83c0.13-1.25,0.33-2.48,0.59-3.69h12.05c-0.4,1.19-0.71,2.42-0.9,3.69H356.26z M373.9,330.21h-2.31v-7.88h2.31V330.21
		z M373.9,321.83h-2.31v-0.9h2.31V321.83z M374.4,321.83v-1.4h-3.31v1.4h-2.6c0.2-1.27,0.51-2.5,0.92-3.69h17.26
		c-1.54,0.82-2.79,2.12-3.54,3.69H374.4z"/>
	<polygon fill="#FFFFFF" points="392.64,341.89 392.64,341.39 383.74,341.39 383.74,344.7 392.64,344.7 392.64,344.2 384.24,344.2 
		384.24,341.89 	"/>
	<path fill="#FFFFFF" d="M55.54,247.78h-13.2c-1.53,0-2.78,1.24-2.78,2.77v0.56c0,1.53,1.25,2.77,2.78,2.77h13.2
		c1.53,0,2.78-1.24,2.78-2.77v-0.56C58.32,249.01,57.07,247.78,55.54,247.78z M57.82,251.1c0,1.25-1.02,2.27-2.28,2.27h-13.2
		c-1.26,0-2.28-1.02-2.28-2.27v-0.56c0-1.25,1.02-2.27,2.28-2.27h13.2c1.26,0,2.28,1.02,2.28,2.27V251.1z"/>
	<path fill="#FFFFFF" d="M197.4,88.84v-0.23c0-1.62-1.32-2.93-2.95-2.93h-8.65c-1.63,0-2.95,1.32-2.95,2.93v0.22
		c0,1.62,1.32,2.93,2.95,2.93h8.65C196.07,91.78,197.4,90.46,197.4,88.84z M194.45,91.28h-8.65c-1.35,0-2.45-1.09-2.45-2.43v-0.23
		c0-1.34,1.1-2.43,2.45-2.43h8.65c1.35,0,2.45,1.09,2.45,2.43v0.22C196.9,90.18,195.8,91.28,194.45,91.28z"/>
	<path fill="#FFFFFF" d="M254.65,114.68l-9.18,9.32h10.97L254.65,114.68z M254.33,115.69l1.5,7.79h-9.17L254.33,115.69z"/>
	<path fill="#FFFFFF" d="M242.48,127.75h14.31l0.83,4.47h9.52l-5.71-22.07l-0.05-0.19h-9.66l-23.11,22.26H238L242.48,127.75z
		 M229.85,131.72l22.07-21.25H261l5.5,21.25h-8.46l-0.83-4.47h-14.93l-4.47,4.47H229.85z"/>
	<path fill="#FFFFFF" d="M346.29,109.96l-13.46,16.68l-0.55-16.68h-12.47l-8.62,22.25h8.26l5.74-14.87
		c0.19-0.44,0.42-1.04,0.69-1.79c0.06-0.17,0.12-0.34,0.18-0.49l0.38,17.14h8.42l13.63-17.08c-0.03,0.08-0.07,0.16-0.1,0.24
		c-0.31,0.76-0.56,1.35-0.74,1.78l-5.81,15.05h8.26l8.62-22.25h-12.43L346.29,109.96L346.29,109.96z M349.74,131.72h-7.19
		l5.55-14.36c0.18-0.42,0.43-1.02,0.74-1.78c0.3-0.72,0.54-1.34,0.69-1.78l0.49-1.39l-15.41,19.31h-7.69l-0.43-19.39l-0.46,1.3
		c-0.14,0.41-0.35,1-0.63,1.76c-0.27,0.74-0.5,1.33-0.68,1.77l-5.62,14.55h-7.19l8.23-21.25h11.65l0.58,17.54l14.16-17.54h11.44
		L349.74,131.72z"/>
	<path fill="#FFFFFF" d="M392.72,132.22l-5.71-22.07l-0.05-0.19h-2.73v-5.61c0-6.15-3.6-10.28-8.96-10.28h-65.46
		c-6.74,0-11.77,5.43-11.77,10.28v5.61h-16.36v-5.58c0-5.68-4.65-10.31-10.37-10.31h-65.45c-5.72,0-10.36,4.62-10.36,10.31v157.34
		c0,5.68,4.65,10.31,10.36,10.31h65.46c5.72,0,10.37-4.62,10.37-10.31V151.17h16.36V261.7c0,4.88,5.03,10.34,11.77,10.34h65.46
		c5.36,0,8.96-4.16,8.96-10.34V151.17h8.4v-0.5h-8.4v-3.57h0.57l2.71-8.13h-2.26l-1.02,3.16v-6.25h8.4v-0.5h-8.4v-3.16H392.72z
		 M386.58,110.46l5.5,21.25h-7.84v-21.25H386.58z M383.74,131.72h-0.12l-0.83-4.47h-14.93l-4.47,4.47h-7.94l22.07-21.25h6.24v21.25
		H383.74z M298.04,110.46v3.31c-0.4-0.02-0.84-0.02-1.31-0.02h-9.81l-2.46,6.34h9.76c1.56,0,2.83-0.09,3.81-0.25v11.88h-1.79
		c-0.05-0.37-0.07-0.68-0.07-0.91c0.02-0.58,0.14-1.19,0.36-1.8l0.73-2.02c0.54-1.5,0.41-2.54-0.41-3.07
		c-0.76-0.49-2.35-0.73-4.86-0.73h-8.73l-1.58,4.1v-16.83H298.04z M302.36,121.82c1.6,0.38,2.63,0.93,3.07,1.61
		c0.43,0.67,0.36,1.74-0.2,3.18l-0.57,1.46c-0.39,1.03-0.58,1.72-0.58,2.11c0,0.61,0.32,1.07,0.96,1.38l-0.06,0.16h-6.44v-11.98
		c0.02-0.01,0.06-0.01,0.08-0.01c1.89-0.43,3.11-1.3,3.62-2.6c0.27-0.71,0.28-1.32,0.04-1.81c-0.25-0.52-0.78-0.92-1.57-1.17
		c-0.53-0.17-1.26-0.27-2.17-0.33v-3.34h1.39c2.73,0.03,4.8,0.22,6.14,0.55c1.32,0.33,2.37,0.83,3.13,1.47
		c0.61,0.52,1.03,1.1,1.26,1.72c0.22,0.61,0.18,1.32-0.12,2.11c-0.39,0.98-1.25,1.97-2.54,2.94c-1.3,0.97-3.13,1.67-5.43,2.07
		l-1.18,0.21L302.36,121.82z M298.04,119.32c-0.96,0.17-2.23,0.26-3.81,0.26h-9.03l2.07-5.34h9.47c0.47,0,0.91,0.01,1.31,0.03v5.05
		C298.05,119.32,298.04,119.32,298.04,119.32z M298.54,114.31c0.85,0.06,1.54,0.16,2.02,0.31c0.66,0.21,1.09,0.52,1.28,0.91
		c0.18,0.37,0.16,0.85-0.06,1.42c-0.45,1.13-1.54,1.89-3.24,2.29V114.31z M295.79,132l0.03,0.21h2.22v3.16h-16.36v-6.7l1.92-4.99
		h8.39c2.38,0,3.93,0.22,4.59,0.65c0.6,0.39,0.67,1.2,0.21,2.48l-0.73,2.02c-0.24,0.66-0.37,1.32-0.39,1.96
		C295.68,131.11,295.72,131.51,295.79,132z M281.19,128.57l-1.21,3.13h-7.57l8.23-21.25h0.54L281.19,128.57L281.19,128.57z
		 M281.19,261.73c0,5.41-4.43,9.81-9.87,9.81h-65.46c-5.44,0-9.86-4.4-9.86-9.81V104.37c0-5.41,4.43-9.81,9.86-9.81h65.46
		c5.44,0,9.87,4.4,9.87,9.81v5.58h-0.89l-8.62,22.25h8.64l0.86-2.24v5.41h-53.44l-18.21,15.79h71.65v110.56L281.19,261.73
		L281.19,261.73z M281.69,143.53c0.23,0.08,0.47,0.16,0.7,0.22c0.28,0.08,0.56,0.15,0.83,0.21c0.28,0.07,0.5,0.14,0.7,0.21
		c0.19,0.07,0.33,0.17,0.44,0.27c0.08,0.08,0.12,0.18,0.12,0.32s-0.03,0.24-0.09,0.32c-0.08,0.1-0.18,0.17-0.29,0.23
		c-0.13,0.06-0.26,0.1-0.41,0.12c-0.38,0.06-0.71,0.04-1.03-0.04c-0.18-0.05-0.33-0.11-0.46-0.21c-0.12-0.09-0.22-0.2-0.3-0.35
		c-0.07-0.14-0.11-0.32-0.11-0.54v-0.25h-0.1L281.69,143.53L281.69,143.53z M281.19,146.26c-0.05-0.03-0.1-0.05-0.15-0.09
		c-0.27-0.2-0.49-0.45-0.65-0.76c-0.13-0.24-0.2-0.53-0.22-0.85h1.02V146.26z M281.69,145.4c0.07,0.07,0.14,0.14,0.22,0.2
		c0.18,0.13,0.39,0.22,0.63,0.29c0.39,0.1,0.77,0.12,1.23,0.05c0.2-0.03,0.38-0.08,0.55-0.17c0.18-0.09,0.34-0.21,0.46-0.36
		c0.14-0.17,0.21-0.38,0.21-0.63c0-0.28-0.09-0.51-0.27-0.68c-0.15-0.15-0.35-0.28-0.6-0.38c-0.21-0.09-0.47-0.16-0.77-0.24
		c-0.27-0.06-0.54-0.13-0.82-0.21c-0.27-0.07-0.54-0.15-0.81-0.25c-0.01,0-0.01-0.01-0.02-0.01v-1.29c0.09,0.13,0.22,0.24,0.43,0.34
		c0.18,0.08,0.42,0.17,0.74,0.25c0.3,0.08,0.69,0.18,1.18,0.3c0.14,0.03,0.33,0.08,0.57,0.15c0.23,0.07,0.47,0.18,0.69,0.33
		c0.22,0.14,0.41,0.34,0.58,0.59c0.15,0.23,0.23,0.54,0.23,0.91c0,0.31-0.06,0.6-0.18,0.87c-0.12,0.26-0.3,0.49-0.54,0.68
		c-0.24,0.2-0.55,0.35-0.92,0.46c-0.67,0.21-1.62,0.25-2.48,0.02c-0.11-0.03-0.21-0.07-0.32-0.11v-1.11
		C281.68,145.4,281.69,145.4,281.69,145.4z M281.7,140.65c0,0.01-0.01,0.02-0.01,0.02v-1.13c0.12-0.05,0.25-0.1,0.38-0.14
		c0.7-0.19,1.43-0.16,2.06,0c0.34,0.08,0.64,0.21,0.9,0.4c0.25,0.17,0.45,0.4,0.6,0.67c0.12,0.22,0.19,0.47,0.21,0.76h-1.15
		c-0.03-0.17-0.08-0.31-0.15-0.44c-0.1-0.19-0.25-0.34-0.41-0.44s-0.34-0.17-0.55-0.22c-0.33-0.07-0.75-0.09-1.08-0.01
		c-0.16,0.03-0.32,0.09-0.45,0.18C281.9,140.4,281.79,140.51,281.7,140.65z M281.19,142.72c-0.05-0.03-0.11-0.05-0.15-0.08
		c-0.19-0.14-0.34-0.32-0.45-0.54c-0.11-0.21-0.17-0.47-0.17-0.77c0-0.35,0.07-0.65,0.22-0.9c0.14-0.24,0.33-0.44,0.55-0.61
		L281.19,142.72L281.19,142.72z M280.93,139.4c-0.3,0.21-0.54,0.48-0.73,0.8c-0.19,0.33-0.29,0.71-0.29,1.15
		c0,0.39,0.08,0.73,0.23,1.01c0.15,0.28,0.35,0.51,0.59,0.7c0.14,0.11,0.29,0.2,0.45,0.28v0.73h-1.53v0.25
		c-0.01,0.51,0.09,0.96,0.29,1.34s0.47,0.69,0.8,0.93c0.14,0.1,0.29,0.18,0.44,0.26v3.83h-70.31l17.06-14.79h53.25v3.38
		C281.1,139.29,281.01,139.33,280.93,139.4z M281.69,150.67v-3.63c0.07,0.02,0.12,0.05,0.19,0.07c0.42,0.11,0.85,0.17,1.29,0.17
		c0.54,0,1.03-0.06,1.45-0.19c0.43-0.13,0.79-0.32,1.08-0.55c0.3-0.24,0.53-0.53,0.68-0.86s0.23-0.69,0.23-1.08
		c0-0.48-0.11-0.88-0.32-1.19c-0.2-0.3-0.44-0.55-0.72-0.73c-0.27-0.17-0.54-0.3-0.82-0.39c-0.26-0.08-0.47-0.13-0.61-0.16
		c-0.48-0.12-0.87-0.22-1.16-0.3c-0.28-0.07-0.5-0.15-0.66-0.22c-0.17-0.08-0.22-0.14-0.23-0.17c-0.03-0.05-0.05-0.13-0.05-0.23
		c0-0.11,0.02-0.2,0.07-0.27c0.05-0.08,0.12-0.14,0.2-0.19c0.09-0.05,0.18-0.09,0.29-0.12c0.27-0.06,0.61-0.04,0.88,0.01
		c0.15,0.03,0.28,0.08,0.39,0.15c0.1,0.06,0.18,0.14,0.24,0.26c0.06,0.12,0.1,0.27,0.11,0.46l0.02,0.23h2.12v-0.25
		c0-0.48-0.09-0.9-0.28-1.25c-0.19-0.35-0.45-0.63-0.76-0.85s-0.67-0.38-1.06-0.47c-0.71-0.17-1.54-0.21-2.31,0.01
		c-0.09,0.02-0.17,0.06-0.25,0.09v-3.15h16.36v3.09h-5.09v1.91h2.3v6.22h2.19v-6.22h0.61v9.79h-16.38L281.69,150.67L281.69,150.67z
		 M298.04,140.37h-1.11v6.22h-1.19v-6.22h-2.3v-0.91h4.59L298.04,140.37L298.04,140.37z M298.54,139.47h0.69v0.91h-0.69V139.47z
		 M383.74,261.68c0,4.9-2.62,9.84-8.46,9.84h-65.46c-5.21,0-11.27-4.3-11.27-9.84V151.17h85.19L383.74,261.68L383.74,261.68z
		 M385.62,139.47h1.21l-2.38,7.13h-0.21v-2.85L385.62,139.47z M383.74,146.6h-0.83l-2.32-7.13h1.2l1.65,5.19l0.08,0.17h0.21v1.77
		C383.73,146.59,383.74,146.59,383.74,146.6z M383.74,143.68l-0.04,0.12l-1.54-4.82h-2.25l2.64,8.13h1.19v3.57h-85.19v-9.79h1.19
		v-1.91h-1.19v-3.09h85.19V143.68z M383.74,135.37h-85.19v-3.16h6.8l0.33-0.94l-0.22-0.09c-0.58-0.23-0.86-0.56-0.86-1.01
		c0-0.22,0.1-0.74,0.55-1.93l0.57-1.46c0.63-1.62,0.68-2.81,0.15-3.63c-0.41-0.64-1.19-1.15-2.37-1.54
		c1.91-0.44,3.46-1.09,4.62-1.96c1.37-1.02,2.28-2.09,2.71-3.16c0.34-0.91,0.39-1.74,0.12-2.46c-0.25-0.7-0.73-1.36-1.41-1.94
		c-0.82-0.69-1.94-1.22-3.33-1.57c-1.38-0.35-3.48-0.54-6.25-0.57h-1.4v-5.6c0-4.61,4.82-9.78,11.27-9.78h65.46
		c5.06,0,8.46,3.93,8.46,9.78v5.61h-6.44l-23.12,22.26h9.39l4.47-4.47h14.31l0.83,4.47h0.54v3.16h0.01V135.37z"/>
	<path fill="#FFFFFF" d="M382.01,124l-1.79-9.32l-9.18,9.32H382.01z M381.41,123.5h-9.17l7.67-7.79L381.41,123.5z"/>
	<path fill="#FFFFFF" d="M230.51,138.97h-2.19v8.13h5.92v-1.91h-3.74v-6.22C230.5,138.96,230.51,138.96,230.51,138.97z
		 M233.75,145.69v0.91h-4.92v-7.13h1.19v6.22C230.02,145.69,233.75,145.69,233.75,145.69z"/>
	<path fill="#FFFFFF" d="M247.78,140.04c-0.34-0.39-0.77-0.7-1.27-0.92c-0.99-0.44-2.36-0.44-3.38,0c-0.5,0.22-0.93,0.53-1.27,0.92
		c-0.34,0.38-0.61,0.84-0.79,1.36c-0.18,0.51-0.27,1.08-0.27,1.67c0,0.58,0.09,1.13,0.27,1.64c0.18,0.51,0.45,0.96,0.79,1.34
		c0.34,0.38,0.77,0.68,1.27,0.9s1.07,0.33,1.68,0.33c0.62,0,1.19-0.11,1.69-0.33s0.92-0.52,1.27-0.9c0.34-0.38,0.61-0.83,0.79-1.34
		c0.18-0.5,0.27-1.06,0.27-1.64c0-0.6-0.09-1.16-0.27-1.67C248.39,140.87,248.12,140.42,247.78,140.04z M248.1,144.53
		c-0.16,0.45-0.39,0.84-0.69,1.17s-0.67,0.59-1.1,0.78c-0.87,0.38-2.09,0.38-2.98,0c-0.43-0.19-0.8-0.45-1.1-0.78
		c-0.3-0.33-0.53-0.72-0.69-1.17s-0.24-0.95-0.24-1.47c0-0.54,0.08-1.04,0.24-1.5s0.39-0.86,0.69-1.19c0.3-0.34,0.66-0.6,1.1-0.79
		s0.94-0.29,1.48-0.29c0.55,0,1.06,0.1,1.49,0.29c0.44,0.2,0.8,0.45,1.1,0.79c0.3,0.33,0.53,0.74,0.69,1.19
		c0.16,0.46,0.24,0.96,0.24,1.5C248.34,143.58,248.26,144.07,248.1,144.53z"/>
	<path fill="#FFFFFF" d="M246.64,141.11c-0.19-0.28-0.44-0.51-0.73-0.67c-0.6-0.33-1.57-0.33-2.17,0c-0.3,0.16-0.54,0.39-0.73,0.67
		c-0.18,0.27-0.31,0.58-0.4,0.92c-0.08,0.33-0.12,0.68-0.12,1.03c0,0.34,0.04,0.68,0.12,1c0.08,0.33,0.21,0.63,0.4,0.9
		c0.18,0.27,0.43,0.49,0.73,0.66c0.3,0.17,0.66,0.25,1.09,0.25c0.42,0,0.79-0.08,1.09-0.25c0.3-0.16,0.54-0.39,0.73-0.66
		c0.18-0.27,0.31-0.57,0.4-0.9c0.08-0.32,0.12-0.66,0.12-1c0-0.35-0.04-0.7-0.12-1.03C246.96,141.68,246.82,141.39,246.64,141.11z
		 M246.55,143.93c-0.07,0.27-0.17,0.51-0.32,0.74c-0.14,0.21-0.33,0.38-0.56,0.5c-0.22,0.12-0.51,0.19-0.84,0.19
		c-0.34,0-0.62-0.06-0.85-0.19c-0.23-0.13-0.42-0.29-0.56-0.5c-0.15-0.22-0.26-0.46-0.32-0.74c-0.07-0.28-0.11-0.58-0.11-0.88
		c0-0.31,0.04-0.62,0.11-0.91c0.07-0.28,0.18-0.54,0.32-0.76c0.14-0.21,0.33-0.38,0.56-0.51s0.51-0.19,0.85-0.19
		c0.33,0,0.62,0.06,0.85,0.19c0.23,0.12,0.41,0.29,0.56,0.51s0.26,0.48,0.32,0.76c0.07,0.29,0.11,0.6,0.11,0.91
		C246.66,143.36,246.62,143.65,246.55,143.93z"/>
	<path fill="#FFFFFF" d="M259.5,144.22h1.66c-0.07,0.34-0.21,0.6-0.41,0.79c-0.25,0.23-0.63,0.35-1.12,0.35
		c-0.34,0-0.62-0.06-0.85-0.19c-0.23-0.13-0.42-0.29-0.56-0.5c-0.15-0.22-0.26-0.46-0.32-0.74c-0.07-0.28-0.11-0.58-0.11-0.88
		c0-0.31,0.04-0.62,0.11-0.91c0.07-0.28,0.18-0.54,0.32-0.76c0.14-0.21,0.33-0.38,0.56-0.51s0.51-0.19,0.85-0.19
		c0.36,0,0.65,0.09,0.89,0.27c0.24,0.18,0.4,0.45,0.48,0.82l0.05,0.19h2.09l-0.03-0.27c-0.05-0.47-0.18-0.89-0.39-1.25
		c-0.21-0.36-0.48-0.67-0.8-0.92c-0.32-0.24-0.68-0.43-1.08-0.56c-0.96-0.3-2.06-0.22-2.9,0.14c-0.5,0.22-0.93,0.53-1.27,0.92
		c-0.34,0.38-0.61,0.84-0.79,1.36c-0.18,0.51-0.27,1.08-0.27,1.67c0,0.58,0.09,1.13,0.27,1.64c0.18,0.51,0.45,0.96,0.79,1.34
		c0.34,0.38,0.77,0.68,1.27,0.9s1.07,0.33,1.68,0.33c0.4,0,0.8-0.08,1.2-0.25c0.27-0.11,0.52-0.28,0.75-0.5l0.12,0.58h1.53v-4.62
		h-3.72L259.5,144.22L259.5,144.22z M260,142.97h2.72v3.62h-0.62l-0.24-1.2l-0.34,0.43c-0.27,0.35-0.57,0.59-0.9,0.73
		c-0.34,0.14-0.68,0.21-1.01,0.21c-0.54,0-1.04-0.1-1.48-0.29s-0.8-0.44-1.1-0.78c-0.3-0.33-0.53-0.72-0.69-1.17
		c-0.16-0.45-0.24-0.95-0.24-1.47c0-0.54,0.08-1.04,0.24-1.5c0.16-0.46,0.4-0.86,0.69-1.19c0.3-0.34,0.66-0.6,1.1-0.79
		s0.94-0.29,1.48-0.29c0.37,0,0.73,0.05,1.07,0.16c0.34,0.11,0.65,0.27,0.92,0.48c0.27,0.21,0.5,0.47,0.67,0.77
		c0.13,0.23,0.23,0.49,0.28,0.78h-1.13c-0.12-0.39-0.33-0.7-0.62-0.91c-0.33-0.25-0.73-0.37-1.19-0.37c-0.42,0-0.79,0.08-1.09,0.25
		c-0.3,0.16-0.54,0.39-0.73,0.67c-0.18,0.27-0.31,0.58-0.4,0.92c-0.08,0.33-0.12,0.68-0.12,1.03c0,0.34,0.04,0.67,0.12,1
		s0.21,0.63,0.4,0.9c0.18,0.27,0.43,0.49,0.73,0.66c0.3,0.17,0.66,0.25,1.09,0.25c0.62,0,1.12-0.16,1.46-0.49
		c0.35-0.32,0.56-0.79,0.61-1.39l0.03-0.27h-1.72L260,142.97L260,142.97z"/>
	<path fill="#FFFFFF" d="M270.53,147.1h2.19v-8.13h-2.19V147.1z M271.03,139.47h1.19v7.13h-1.19V139.47z"/>
	<path fill="#FFFFFF" d="M308.75,138.97h-2.19v8.13h2.19V138.97z M308.25,146.6h-1.19v-7.13h1.19V146.6z"/>
	<path fill="#FFFFFF" d="M316.9,146.04c0.34,0.38,0.77,0.68,1.27,0.9s1.07,0.33,1.68,0.33c0.49,0,0.96-0.08,1.39-0.23
		c0.42-0.15,0.8-0.38,1.11-0.67c0.32-0.29,0.57-0.65,0.77-1.06c0.19-0.41,0.31-0.87,0.36-1.38l0.02-0.27h-2.13l-0.03,0.22
		c-0.06,0.47-0.21,0.83-0.47,1.1c-0.24,0.26-0.57,0.39-1.02,0.39c-0.34,0-0.62-0.06-0.85-0.19c-0.23-0.13-0.42-0.29-0.56-0.5
		c-0.15-0.22-0.25-0.46-0.32-0.74s-0.11-0.58-0.11-0.88c0-0.31,0.04-0.62,0.11-0.91c0.07-0.29,0.18-0.54,0.32-0.76
		c0.14-0.21,0.33-0.38,0.56-0.51c0.35-0.19,0.89-0.27,1.36-0.1c0.17,0.06,0.31,0.14,0.44,0.24s0.23,0.22,0.32,0.36
		c0.08,0.13,0.13,0.28,0.16,0.43l0.03,0.21h2.13l-0.03-0.28c-0.05-0.47-0.19-0.9-0.4-1.27s-0.48-0.68-0.8-0.93
		c-0.32-0.25-0.69-0.44-1.09-0.57c-0.94-0.31-2.09-0.24-2.96,0.14c-0.5,0.22-0.93,0.53-1.27,0.92c-0.34,0.38-0.61,0.84-0.79,1.36
		c-0.18,0.51-0.27,1.07-0.27,1.67c0,0.58,0.09,1.13,0.27,1.64C316.29,145.22,316.56,145.67,316.9,146.04z M316.58,141.56
		c0.16-0.46,0.4-0.86,0.69-1.19c0.3-0.34,0.66-0.6,1.1-0.79s0.94-0.29,1.48-0.29c0.4,0,0.77,0.06,1.12,0.17s0.66,0.27,0.93,0.49
		c0.27,0.21,0.5,0.47,0.67,0.78c0.13,0.24,0.23,0.51,0.29,0.8h-1.14c-0.04-0.14-0.1-0.28-0.18-0.41c-0.12-0.19-0.26-0.35-0.43-0.48
		c-0.17-0.14-0.36-0.25-0.58-0.33c-0.21-0.08-0.44-0.12-0.68-0.12c-0.42,0-0.79,0.08-1.09,0.25c-0.3,0.16-0.55,0.39-0.73,0.67
		c-0.18,0.27-0.31,0.58-0.4,0.92c-0.08,0.33-0.12,0.68-0.12,1.03c0,0.34,0.04,0.68,0.12,1c0.08,0.33,0.21,0.63,0.4,0.9
		c0.18,0.27,0.43,0.49,0.73,0.66c0.3,0.17,0.66,0.25,1.09,0.25c0.59,0,1.06-0.18,1.39-0.55c0.28-0.3,0.47-0.69,0.56-1.16h1.14
		c-0.05,0.34-0.15,0.65-0.28,0.94c-0.17,0.36-0.38,0.65-0.65,0.9s-0.59,0.44-0.94,0.57c-0.84,0.3-1.91,0.25-2.7-0.08
		c-0.44-0.19-0.8-0.44-1.1-0.78c-0.3-0.33-0.53-0.71-0.69-1.17c-0.16-0.45-0.24-0.95-0.24-1.47
		C316.34,142.53,316.42,142.01,316.58,141.56z"/>
	<path fill="#FFFFFF" d="M340.6,146.58c0.33,0.24,0.71,0.42,1.13,0.53c0.43,0.11,0.85,0.17,1.29,0.17c0.55,0,1.04-0.06,1.45-0.19
		c0.43-0.13,0.79-0.32,1.08-0.55c0.3-0.24,0.53-0.54,0.67-0.86c0.15-0.33,0.23-0.69,0.23-1.08c0-0.48-0.11-0.88-0.32-1.19
		c-0.2-0.3-0.44-0.55-0.72-0.73c-0.27-0.17-0.54-0.3-0.82-0.39c-0.27-0.08-0.47-0.13-0.61-0.16c-0.48-0.12-0.87-0.22-1.16-0.3
		c-0.28-0.08-0.5-0.15-0.66-0.22c-0.16-0.07-0.21-0.13-0.23-0.16c-0.03-0.05-0.05-0.13-0.05-0.23c0-0.11,0.02-0.2,0.07-0.27
		c0.05-0.08,0.12-0.14,0.2-0.19c0.09-0.05,0.18-0.09,0.29-0.12c0.27-0.06,0.61-0.04,0.88,0.01c0.15,0.03,0.27,0.08,0.39,0.15
		c0.1,0.06,0.18,0.14,0.24,0.26c0.06,0.12,0.1,0.27,0.11,0.46l0.01,0.23h2.12v-0.25c0-0.48-0.09-0.9-0.28-1.25
		c-0.19-0.34-0.44-0.63-0.76-0.85c-0.31-0.22-0.67-0.37-1.07-0.47c-0.7-0.17-1.53-0.21-2.31,0.01c-0.37,0.1-0.71,0.26-1,0.46
		c-0.3,0.21-0.55,0.48-0.73,0.8c-0.19,0.33-0.29,0.71-0.29,1.15c0,0.39,0.08,0.73,0.23,1.01c0.15,0.28,0.34,0.51,0.59,0.7
		c0.24,0.18,0.5,0.33,0.79,0.43c0.29,0.11,0.58,0.2,0.86,0.27c0.28,0.08,0.56,0.15,0.84,0.21c0.28,0.07,0.51,0.14,0.7,0.21
		s0.33,0.16,0.44,0.27c0.08,0.08,0.12,0.18,0.12,0.32c0,0.13-0.03,0.24-0.09,0.32c-0.08,0.1-0.18,0.17-0.29,0.23
		c-0.12,0.06-0.26,0.1-0.41,0.12c-0.39,0.06-0.71,0.05-1.03-0.04c-0.18-0.05-0.33-0.11-0.46-0.21c-0.12-0.09-0.22-0.2-0.3-0.34
		c-0.07-0.14-0.11-0.32-0.11-0.54v-0.25h-2.13v0.25c-0.01,0.51,0.09,0.96,0.29,1.34C340,146.03,340.27,146.33,340.6,146.58z
		 M341.16,144.56c0.02,0.19,0.07,0.37,0.15,0.52c0.11,0.21,0.26,0.39,0.45,0.52c0.18,0.13,0.39,0.22,0.63,0.29
		c0.38,0.1,0.77,0.12,1.23,0.05c0.2-0.03,0.38-0.08,0.55-0.17c0.18-0.09,0.34-0.21,0.46-0.36c0.14-0.17,0.2-0.38,0.2-0.63
		c0-0.28-0.09-0.51-0.28-0.68c-0.15-0.15-0.35-0.28-0.6-0.38c-0.21-0.09-0.46-0.16-0.77-0.24c-0.27-0.06-0.54-0.13-0.82-0.21
		c-0.27-0.07-0.54-0.15-0.81-0.25c-0.25-0.09-0.47-0.21-0.67-0.36c-0.19-0.14-0.34-0.32-0.45-0.54c-0.11-0.21-0.17-0.46-0.17-0.77
		c0-0.35,0.07-0.65,0.22-0.9s0.35-0.47,0.59-0.64c0.25-0.18,0.53-0.31,0.84-0.39c0.7-0.19,1.43-0.16,2.06,0
		c0.34,0.08,0.64,0.21,0.9,0.4c0.25,0.17,0.45,0.4,0.6,0.67c0.12,0.21,0.19,0.47,0.21,0.76h-1.15c-0.03-0.17-0.08-0.31-0.15-0.44
		c-0.11-0.19-0.25-0.34-0.41-0.44s-0.34-0.17-0.55-0.22c-0.34-0.07-0.75-0.09-1.08-0.01c-0.16,0.03-0.32,0.1-0.45,0.18
		c-0.14,0.09-0.26,0.2-0.35,0.34c-0.1,0.15-0.15,0.33-0.15,0.55c0,0.2,0.04,0.36,0.12,0.49c0.09,0.14,0.23,0.25,0.44,0.35
		c0.18,0.08,0.42,0.17,0.74,0.25c0.3,0.08,0.69,0.18,1.18,0.3c0.14,0.03,0.33,0.08,0.57,0.15c0.23,0.07,0.46,0.18,0.69,0.33
		c0.22,0.14,0.42,0.34,0.58,0.59c0.15,0.23,0.23,0.54,0.23,0.91c0,0.31-0.06,0.6-0.18,0.87c-0.12,0.26-0.29,0.49-0.53,0.68
		c-0.24,0.2-0.55,0.35-0.92,0.46c-0.67,0.21-1.61,0.25-2.48,0.02c-0.36-0.09-0.69-0.24-0.97-0.45c-0.27-0.2-0.49-0.44-0.65-0.76
		c-0.13-0.24-0.2-0.53-0.22-0.85L341.16,144.56L341.16,144.56z"/>
	<path fill="#FFFFFF" d="M359.73,145.19h-4.13v-1.37h3.72v-1.8h-3.72v-1.13h4.05v-1.91h-6.23v8.13h6.32L359.73,145.19L359.73,145.19
		z M359.23,146.6h-5.32v-7.13h5.23v0.91h-4.05v2.13h3.72v0.8h-3.72v2.37h4.13L359.23,146.6L359.23,146.6z"/>
	<path fill="#FFFFFF" d="M369,144.11h1.43c0.35,0,0.6,0.07,0.74,0.21c0.14,0.15,0.24,0.39,0.29,0.73c0.04,0.3,0.07,0.61,0.09,0.94
		c0.03,0.37,0.09,0.67,0.19,0.94l0.06,0.16h2.36l-0.3-0.4c-0.06-0.08-0.1-0.18-0.13-0.3c-0.04-0.14-0.06-0.29-0.08-0.45
		c-0.02-0.17-0.03-0.33-0.04-0.52c-0.01-0.15-0.01-0.29-0.02-0.4c-0.01-0.2-0.04-0.4-0.08-0.61c-0.04-0.21-0.11-0.42-0.21-0.6
		c-0.1-0.19-0.23-0.35-0.39-0.49c-0.04-0.04-0.08-0.07-0.13-0.1c0.25-0.17,0.45-0.38,0.59-0.62c0.21-0.36,0.32-0.8,0.32-1.29
		c0-0.32-0.06-0.63-0.17-0.91c-0.12-0.28-0.29-0.53-0.51-0.75c-0.22-0.21-0.48-0.38-0.79-0.5c-0.3-0.12-0.64-0.18-1.02-0.18h-4.38
		v8.13h2.19L369,144.11L369,144.11z M368.5,146.6h-1.19v-7.13h3.88c0.32,0,0.6,0.05,0.83,0.15c0.25,0.1,0.46,0.23,0.63,0.4
		s0.31,0.37,0.39,0.58c0.09,0.22,0.14,0.46,0.14,0.72c0,0.41-0.08,0.75-0.25,1.04c-0.16,0.28-0.42,0.49-0.8,0.64l-0.16,0.08v0.36
		l0.18,0.05c0.18,0.05,0.31,0.12,0.42,0.21c0.11,0.1,0.2,0.21,0.28,0.35c0.07,0.14,0.13,0.29,0.16,0.46
		c0.04,0.18,0.06,0.36,0.08,0.54c0.01,0.11,0.01,0.24,0.02,0.42c0.01,0.17,0.02,0.34,0.04,0.52c0.02,0.18,0.05,0.36,0.09,0.52
		c0.01,0.03,0.01,0.05,0.02,0.08h-1.11c-0.05-0.18-0.09-0.39-0.1-0.63c-0.02-0.34-0.05-0.67-0.1-0.98
		c-0.07-0.46-0.21-0.79-0.44-1.02c-0.24-0.23-0.6-0.35-1.09-0.35h-1.93L368.5,146.6L368.5,146.6z"/>
	<path fill="#FFFFFF" d="M371.63,142.6c0.25-0.22,0.38-0.56,0.38-1.02c0-0.45-0.13-0.78-0.38-1c-0.24-0.21-0.59-0.31-1.03-0.31h-2.1
		v2.65h2.1C371.04,142.92,371.39,142.81,371.63,142.6z M369,140.76h1.6c0.32,0,0.56,0.06,0.71,0.19c0.14,0.12,0.2,0.32,0.2,0.62
		c0,0.31-0.07,0.52-0.21,0.65c-0.15,0.13-0.38,0.19-0.7,0.19H369V140.76z"/>
</g>
</svg>
