<?xml version="1.0" encoding="utf-8"?>
<!-- Generator: Adobe Illustrator 17.0.0, SVG Export Plug-In . SVG Version: 6.00 Build 0)  -->
<!DOCTYPE svg PUBLIC "-//W3C//DTD SVG 1.1//EN" "http://www.w3.org/Graphics/SVG/1.1/DTD/svg11.dtd">
<svg version="1.1" id="Layer_1" xmlns="http://www.w3.org/2000/svg" xmlns:xlink="http://www.w3.org/1999/xlink" x="0px" y="0px"
	 width="100px" height="100px" viewBox="-19.925 -16.759 100 100" enable-background="new -19.925 -16.759 100 100"
	 xml:space="preserve">
<g>
	<path fill="#FFFFFF" d="M20.578,6.332h-6.332c-0.874,0-1.583,0.709-1.583,1.583v6.332c0,0.874,0.709,1.583,1.583,1.583h6.332
		c0.874,0,1.583-0.709,1.583-1.583V7.915C22.161,7.041,21.452,6.332,20.578,6.332z M18.995,12.663h-3.166V9.497h3.166V12.663z"/>
	<path fill="#FFFFFF" d="M26.909,15.829h6.332c0.874,0,1.583-0.709,1.583-1.583V7.915c0-0.874-0.709-1.583-1.583-1.583h-6.332
		c-0.874,0-1.583,0.709-1.583,1.583v6.332C25.327,15.12,26.036,15.829,26.909,15.829z M28.492,9.497h3.166v3.166h-3.166V9.497z"/>
	<path fill="#FFFFFF" d="M39.573,15.829h6.332c0.874,0,1.583-0.709,1.583-1.583V7.915c0-0.874-0.709-1.583-1.583-1.583h-6.332
		c-0.874,0-1.583,0.709-1.583,1.583v6.332C37.99,15.12,38.699,15.829,39.573,15.829z M41.156,9.497h3.166v3.166h-3.166V9.497z"/>
	<path fill="#FFFFFF" d="M20.578,18.995h-6.332c-0.874,0-1.583,0.709-1.583,1.583v6.332c0,0.874,0.709,1.583,1.583,1.583h6.332
		c0.874,0,1.583-0.709,1.583-1.583v-6.332C22.161,19.704,21.452,18.995,20.578,18.995z M18.995,25.326h-3.166V22.16h3.166V25.326z"
		/>
	<path fill="#FFFFFF" d="M26.909,28.492h6.332c0.874,0,1.583-0.709,1.583-1.583v-6.332c0-0.874-0.709-1.583-1.583-1.583h-6.332
		c-0.874,0-1.583,0.709-1.583,1.583v6.332C25.327,27.783,26.036,28.492,26.909,28.492z M28.492,22.161h3.166v3.166h-3.166V22.161z"
		/>
	<path fill="#FFFFFF" d="M39.573,28.492h6.332c0.874,0,1.583-0.709,1.583-1.583v-6.332c0-0.874-0.709-1.583-1.583-1.583h-6.332
		c-0.874,0-1.583,0.709-1.583,1.583v6.332C37.99,27.783,38.699,28.492,39.573,28.492z M41.156,22.161h3.166v3.166h-3.166V22.161z"/>
	<path fill="#FFFFFF" d="M20.578,31.658h-6.332c-0.874,0-1.583,0.709-1.583,1.583v6.332c0,0.874,0.709,1.583,1.583,1.583h6.332
		c0.874,0,1.583-0.709,1.583-1.583v-6.332C22.161,32.367,21.452,31.658,20.578,31.658z M18.995,37.99h-3.166v-3.166h3.166V37.99z"/>
	<path fill="#FFFFFF" d="M26.909,41.156h6.332c0.874,0,1.583-0.709,1.583-1.583v-6.332c0-0.874-0.709-1.583-1.583-1.583h-6.332
		c-0.874,0-1.583,0.709-1.583,1.583v6.332C25.327,40.446,26.036,41.156,26.909,41.156z M28.492,34.824h3.166v3.166h-3.166V34.824z"
		/>
	<path fill="#FFFFFF" d="M39.573,41.156h6.332c0.874,0,1.583-0.709,1.583-1.583v-6.332c0-0.874-0.709-1.583-1.583-1.583h-6.332
		c-0.874,0-1.583,0.709-1.583,1.583v6.332C37.99,40.446,38.699,41.156,39.573,41.156z M41.156,34.824h3.166v3.166h-3.166V34.824z"/>
	<path fill="#FFFFFF" d="M20.578,44.321h-6.332c-0.874,0-1.583,0.709-1.583,1.583v6.332c0,0.874,0.709,1.583,1.583,1.583h6.332
		c0.874,0,1.583-0.709,1.583-1.583v-6.332C22.161,45.031,21.452,44.321,20.578,44.321z M18.995,50.653h-3.166v-3.166h3.166V50.653z"
		/>
	<path fill="#FFFFFF" d="M39.573,53.819h6.332c0.874,0,1.583-0.709,1.583-1.583v-6.332c0-0.874-0.709-1.583-1.583-1.583h-6.332
		c-0.874,0-1.583,0.709-1.583,1.583v6.332C37.99,53.11,38.699,53.819,39.573,53.819z M41.156,47.487h3.166v3.166h-3.166V47.487z"/>
	<path fill="#FFFFFF" d="M1.583,66.482h56.985c0.874,0,1.583-0.709,1.583-1.583c0-0.874-0.709-1.583-1.583-1.583h-4.749V1.583
		C53.819,0.709,53.11,0,52.236,0H7.915C7.041,0,6.332,0.709,6.332,1.583v61.733H1.583C0.709,63.316,0,64.025,0,64.899
		C0,65.773,0.709,66.482,1.583,66.482z M9.497,3.166h41.156v53.819H34.824v-11.08c0-0.874-0.709-1.583-1.583-1.583h-6.332
		c-0.874,0-1.583,0.709-1.583,1.583v11.08H9.497V3.166z M31.658,47.487v9.497h-3.166v-9.497H31.658z M9.497,60.15h41.156v3.166
		H9.497V60.15z"/>
</g>
</svg>
