<?xml version="1.0" encoding="utf-8"?>
<!-- Generator: Adobe Illustrator 17.0.0, SVG Export Plug-In . SVG Version: 6.00 Build 0)  -->
<!DOCTYPE svg PUBLIC "-//W3C//DTD SVG 1.1//EN" "http://www.w3.org/Graphics/SVG/1.1/DTD/svg11.dtd">
<svg version="1.1" id="Layer_1" xmlns="http://www.w3.org/2000/svg" xmlns:xlink="http://www.w3.org/1999/xlink" x="0px" y="0px"
	 width="40px" height="40px" viewBox="0 0 40 40" enable-background="new 0 0 40 40" xml:space="preserve">
<g>
	<g>
		<path fill="#FFFFFF" d="M20,2.19c-6.108,0-11.081,4.974-11.081,11.081S13.892,24.352,20,24.352s11.081-4.974,11.081-11.081
			C31.081,7.127,26.108,2.19,20,2.19z M20,19.561c-3.474,0-6.326-2.816-6.326-6.326c0-3.474,2.816-6.326,6.326-6.326
			c3.474,0,6.326,2.816,6.326,6.326S23.474,19.561,20,19.561z"/>
		<path fill="#FFFFFF" d="M13.307,25.559C16.416,31.849,20,37.81,20,37.81s3.584-5.998,6.693-12.288
			c-1.975,1.097-4.279,1.719-6.693,1.719C17.586,27.241,15.282,26.619,13.307,25.559z"/>
	</g>
</g>
</svg>
