<?xml version="1.0" encoding="utf-8"?>
<!-- Generator: Adobe Illustrator 17.0.0, SVG Export Plug-In . SVG Version: 6.00 Build 0)  -->
<!DOCTYPE svg PUBLIC "-//W3C//DTD SVG 1.1//EN" "http://www.w3.org/Graphics/SVG/1.1/DTD/svg11.dtd">
<svg version="1.1" id="Layer_1" xmlns="http://www.w3.org/2000/svg" xmlns:xlink="http://www.w3.org/1999/xlink" x="0px" y="0px"
	 width="581.113px" height="192.742px" viewBox="0 0 581.113 192.742" enable-background="new 0 0 581.113 192.742"
	 xml:space="preserve">
<g>
	<g>
		<path fill="#59595B" d="M36.021,191.361l0.847-1.173c0.6,0.639,1.538,1.198,2.75,1.198c1.25,0,1.746-0.612,1.746-1.186
			c0-1.824-5.069-0.69-5.069-3.896c0-1.433,1.264-2.541,3.166-2.541c1.355,0,2.45,0.431,3.258,1.212l-0.873,1.134
			c-0.678-0.678-1.603-0.99-2.515-0.99c-0.899,0-1.473,0.43-1.473,1.082c0,1.615,5.056,0.612,5.056,3.856
			c0,1.446-1.016,2.685-3.361,2.685C37.95,192.742,36.79,192.181,36.021,191.361z"/>
		<path fill="#59595B" d="M44.973,189.159v-5.265h1.538v5.212c0,1.382,0.769,2.28,2.229,2.28c1.446,0,2.215-0.898,2.215-2.28v-5.212
			h1.538v5.251c0,2.163-1.238,3.597-3.753,3.597C46.211,192.742,44.973,191.296,44.973,189.159z"/>
		<path fill="#59595B" d="M54.993,192.586v-8.691h3.818c1.824,0,2.841,1.251,2.841,2.724c0,1.472-1.029,2.723-2.841,2.723h-2.293
			v3.245H54.993z M60.089,186.618c0-0.834-0.626-1.382-1.485-1.382h-2.085v2.763h2.085
			C59.463,187.999,60.089,187.452,60.089,186.618z"/>
		<path fill="#59595B" d="M63.568,192.586v-8.691h3.818c1.824,0,2.841,1.251,2.841,2.724c0,1.472-1.029,2.723-2.841,2.723h-2.293
			v3.245H63.568z M68.664,186.618c0-0.834-0.626-1.382-1.485-1.382h-2.085v2.763h2.085
			C68.038,187.999,68.664,187.452,68.664,186.618z"/>
		<path fill="#59595B" d="M72.142,192.586v-8.691h1.525v7.35h3.831v1.342H72.142z"/>
		<path fill="#59595B" d="M79.531,192.586v-8.691h1.525v8.691H79.531z"/>
		<path fill="#59595B" d="M83.558,192.586v-8.691h5.955v1.342h-4.43v2.255h4.339v1.342h-4.339v2.411h4.43v1.342H83.558z"/>
		<path fill="#59595B" d="M96.692,192.586l-1.928-3.245h-1.512v3.245h-1.525v-8.691h3.818c1.721,0,2.841,1.12,2.841,2.724
			c0,1.55-1.017,2.384-2.059,2.554l2.124,3.414H96.692z M96.823,186.618c0-0.834-0.626-1.382-1.485-1.382h-2.085v2.763h2.085
			C96.197,187.999,96.823,187.452,96.823,186.618z"/>
		<path fill="#59595B" d="M104.173,188.247c0-2.189,1.043-4.483,3.479-4.483s3.479,2.294,3.479,4.483
			c0,2.188-1.043,4.495-3.479,4.495S104.173,190.435,104.173,188.247z M109.581,188.247c0-1.655-0.509-3.128-1.929-3.128
			c-1.421,0-1.929,1.473-1.929,3.128c0,1.654,0.508,3.14,1.929,3.14C109.072,191.386,109.581,189.901,109.581,188.247z"/>
		<path fill="#59595B" d="M112.63,191.335l0.821-1.003c0.561,0.651,1.485,1.055,2.411,1.055c1.146,0,1.811-0.521,1.811-1.329
			c0-0.859-0.69-1.225-1.929-1.225c-0.364,0-0.873,0-1.003,0.013v-1.368c0.156,0.014,0.664,0.014,1.003,0.014
			c1.017,0,1.786-0.353,1.786-1.147c0-0.808-0.782-1.225-1.76-1.225c-0.886,0-1.616,0.339-2.241,0.964l-0.782-0.951
			c0.665-0.781,1.721-1.368,3.167-1.368c1.876,0,3.141,0.887,3.141,2.346c0,1.16-0.99,1.838-1.89,1.994
			c0.847,0.078,2.02,0.769,2.02,2.11c0,1.473-1.264,2.528-3.271,2.528C114.363,192.742,113.217,192.117,112.63,191.335z"/>
	</g>
	<g>
		<path fill="#59595B" d="M210.017,191.361l0.847-1.173c0.6,0.639,1.538,1.198,2.749,1.198c1.252,0,1.747-0.612,1.747-1.186
			c0-1.824-5.069-0.69-5.069-3.896c0-1.433,1.264-2.541,3.166-2.541c1.355,0,2.45,0.431,3.258,1.212l-0.873,1.134
			c-0.678-0.678-1.603-0.99-2.515-0.99c-0.899,0-1.473,0.43-1.473,1.082c0,1.615,5.056,0.612,5.056,3.856
			c0,1.446-1.016,2.685-3.361,2.685C211.944,192.742,210.785,192.181,210.017,191.361z"/>
		<path fill="#59595B" d="M218.968,189.159v-5.265h1.538v5.212c0,1.382,0.769,2.28,2.229,2.28c1.446,0,2.215-0.898,2.215-2.28
			v-5.212h1.538v5.251c0,2.163-1.238,3.597-3.753,3.597C220.206,192.742,218.968,191.296,218.968,189.159z"/>
		<path fill="#59595B" d="M228.988,192.586v-8.691h3.818c1.824,0,2.841,1.251,2.841,2.724c0,1.472-1.029,2.723-2.841,2.723h-2.293
			v3.245H228.988z M234.084,186.618c0-0.834-0.626-1.382-1.485-1.382h-2.085v2.763h2.085
			C233.458,187.999,234.084,187.452,234.084,186.618z"/>
		<path fill="#59595B" d="M237.563,192.586v-8.691h3.818c1.824,0,2.841,1.251,2.841,2.724c0,1.472-1.029,2.723-2.841,2.723h-2.293
			v3.245H237.563z M242.659,186.618c0-0.834-0.626-1.382-1.485-1.382h-2.085v2.763h2.085
			C242.033,187.999,242.659,187.452,242.659,186.618z"/>
		<path fill="#59595B" d="M246.138,192.586v-8.691h1.525v7.35h3.831v1.342H246.138z"/>
		<path fill="#59595B" d="M253.526,192.586v-8.691h1.525v8.691H253.526z"/>
		<path fill="#59595B" d="M257.553,192.586v-8.691h5.956v1.342h-4.431v2.255h4.339v1.342h-4.339v2.411h4.431v1.342H257.553z"/>
		<path fill="#59595B" d="M270.687,192.586l-1.929-3.245h-1.511v3.245h-1.525v-8.691h3.818c1.72,0,2.841,1.12,2.841,2.724
			c0,1.55-1.017,2.384-2.059,2.554l2.124,3.414H270.687z M270.818,186.618c0-0.834-0.626-1.382-1.485-1.382h-2.085v2.763h2.085
			C270.192,187.999,270.818,187.452,270.818,186.618z"/>
		<path fill="#59595B" d="M278.168,188.247c0-2.189,1.043-4.483,3.479-4.483s3.479,2.294,3.479,4.483
			c0,2.188-1.043,4.495-3.479,4.495S278.168,190.435,278.168,188.247z M283.576,188.247c0-1.655-0.509-3.128-1.929-3.128
			c-1.421,0-1.929,1.473-1.929,3.128c0,1.654,0.508,3.14,1.929,3.14C283.067,191.386,283.576,189.901,283.576,188.247z"/>
		<path fill="#59595B" d="M290.821,192.586v-1.968h-4.144v-1.225l3.57-5.499h2.098v5.382h1.16v1.342h-1.16v1.968H290.821z
			 M290.821,185.262l-2.646,4.014h2.646V185.262z"/>
	</g>
	<g>
		<path fill="#59595B" d="M388.134,191.361l0.847-1.173c0.6,0.639,1.538,1.198,2.749,1.198c1.252,0,1.747-0.612,1.747-1.186
			c0-1.824-5.069-0.69-5.069-3.896c0-1.433,1.264-2.541,3.166-2.541c1.355,0,2.45,0.431,3.258,1.212l-0.873,1.134
			c-0.678-0.678-1.603-0.99-2.515-0.99c-0.899,0-1.473,0.43-1.473,1.082c0,1.615,5.056,0.612,5.056,3.856
			c0,1.446-1.016,2.685-3.361,2.685C390.061,192.742,388.902,192.181,388.134,191.361z"/>
		<path fill="#59595B" d="M397.085,189.159v-5.265h1.538v5.212c0,1.382,0.769,2.28,2.229,2.28c1.446,0,2.215-0.898,2.215-2.28
			v-5.212h1.538v5.251c0,2.163-1.238,3.597-3.753,3.597C398.323,192.742,397.085,191.296,397.085,189.159z"/>
		<path fill="#59595B" d="M407.105,192.586v-8.691h3.818c1.824,0,2.841,1.251,2.841,2.724c0,1.472-1.029,2.723-2.841,2.723h-2.293
			v3.245H407.105z M412.201,186.618c0-0.834-0.626-1.382-1.485-1.382h-2.085v2.763h2.085
			C411.575,187.999,412.201,187.452,412.201,186.618z"/>
		<path fill="#59595B" d="M415.681,192.586v-8.691h3.818c1.824,0,2.841,1.251,2.841,2.724c0,1.472-1.029,2.723-2.841,2.723h-2.293
			v3.245H415.681z M420.776,186.618c0-0.834-0.626-1.382-1.485-1.382h-2.085v2.763h2.085
			C420.15,187.999,420.776,187.452,420.776,186.618z"/>
		<path fill="#59595B" d="M424.255,192.586v-8.691h1.525v7.35h3.831v1.342H424.255z"/>
		<path fill="#59595B" d="M431.643,192.586v-8.691h1.525v8.691H431.643z"/>
		<path fill="#59595B" d="M435.67,192.586v-8.691h5.956v1.342h-4.431v2.255h4.339v1.342h-4.339v2.411h4.431v1.342H435.67z"/>
		<path fill="#59595B" d="M448.805,192.586l-1.929-3.245h-1.511v3.245h-1.525v-8.691h3.818c1.72,0,2.841,1.12,2.841,2.724
			c0,1.55-1.017,2.384-2.059,2.554l2.124,3.414H448.805z M448.935,186.618c0-0.834-0.626-1.382-1.485-1.382h-2.085v2.763h2.085
			C448.309,187.999,448.935,187.452,448.935,186.618z"/>
		<path fill="#59595B" d="M456.285,188.247c0-2.189,1.043-4.483,3.479-4.483s3.479,2.294,3.479,4.483
			c0,2.188-1.043,4.495-3.479,4.495S456.285,190.435,456.285,188.247z M461.693,188.247c0-1.655-0.509-3.128-1.929-3.128
			c-1.421,0-1.929,1.473-1.929,3.128c0,1.654,0.508,3.14,1.929,3.14C461.184,191.386,461.693,189.901,461.693,188.247z"/>
		<path fill="#59595B" d="M465.159,191.4l0.873-1.043c0.587,0.665,1.368,1.029,2.346,1.029c1.095,0,1.785-0.677,1.785-1.524
			c0-0.938-0.678-1.551-1.746-1.551c-0.742,0-1.355,0.234-1.902,0.756l-1.082-0.312v-4.86h5.695v1.342h-4.17v2.515
			c0.417-0.417,1.134-0.755,1.968-0.755c1.459,0,2.775,1.029,2.775,2.801c0,1.812-1.368,2.945-3.31,2.945
			C466.892,192.742,465.863,192.234,465.159,191.4z"/>
	</g>
	<ellipse opacity="0.3" fill="#232020" cx="77.677" cy="173.633" rx="46.045" ry="1.978"/>
	<ellipse opacity="0.3" fill="#B7AFA7" cx="253.301" cy="171.789" rx="51.889" ry="2.229"/>
	<path opacity="0.3" fill="#B7AFA7" d="M386.59,171.789c0-1.125,26.415-2.229,45.92-2.229c19.505,0,49.451,0.912,49.451,2.037
		s-29.946,2.037-49.451,2.037C413.005,173.635,386.59,172.914,386.59,171.789z"/>
	<g>
		<rect x="69.767" y="128.852" fill="#FDEDDF" width="46.767" height="44.781"/>
		<g>
			<linearGradient id="SVGID_1_" gradientUnits="userSpaceOnUse" x1="93.6424" y1="128.5243" x2="120.1437" y2="128.5243">
				<stop  offset="0.0816" style="stop-color:#931A21"/>
				<stop  offset="0.2092" style="stop-color:#9F1E25"/>
				<stop  offset="0.7092" style="stop-color:#721817"/>
				<stop  offset="0.9133" style="stop-color:#640C0D"/>
			</linearGradient>
			<rect x="93.642" y="126.883" fill="url(#SVGID_1_)" width="26.501" height="3.282"/>
			<linearGradient id="SVGID_2_" gradientUnits="userSpaceOnUse" x1="67.1411" y1="128.5243" x2="93.6424" y2="128.5243">
				<stop  offset="0.0816" style="stop-color:#931A21"/>
				<stop  offset="0.2092" style="stop-color:#9F1E25"/>
				<stop  offset="0.7092" style="stop-color:#721817"/>
				<stop  offset="0.9133" style="stop-color:#640C0D"/>
			</linearGradient>
			<rect x="67.141" y="126.883" fill="url(#SVGID_2_)" width="26.501" height="3.282"/>
		</g>
		<g>
			<rect x="119.27" y="122.094" fill="#59595B" width="0.873" height="4.789"/>
			<rect x="116.317" y="122.094" fill="#59595B" width="0.873" height="4.789"/>
			<rect x="113.363" y="122.094" fill="#59595B" width="0.873" height="4.789"/>
			<rect x="110.409" y="122.094" fill="#59595B" width="0.873" height="4.789"/>
			<rect x="107.456" y="122.094" fill="#59595B" width="0.873" height="4.789"/>
			<rect x="104.502" y="122.094" fill="#59595B" width="0.873" height="4.789"/>
			<rect x="101.548" y="122.094" fill="#59595B" width="0.873" height="4.789"/>
			<rect x="98.594" y="122.094" fill="#59595B" width="0.873" height="4.789"/>
			<rect x="95.641" y="122.094" fill="#59595B" width="0.873" height="4.789"/>
			<rect x="92.687" y="122.094" fill="#59595B" width="0.873" height="4.789"/>
			<rect x="89.733" y="122.094" fill="#59595B" width="0.873" height="4.789"/>
			<rect x="86.78" y="122.094" fill="#59595B" width="0.873" height="4.789"/>
			<rect x="83.826" y="122.094" fill="#59595B" width="0.873" height="4.789"/>
			<rect x="80.872" y="122.094" fill="#59595B" width="0.873" height="4.789"/>
			<rect x="77.919" y="122.094" fill="#59595B" width="0.873" height="4.789"/>
			<rect x="74.965" y="122.094" fill="#59595B" width="0.873" height="4.789"/>
			<rect x="72.011" y="122.094" fill="#59595B" width="0.873" height="4.789"/>
			<rect x="69.057" y="122.094" fill="#59595B" width="0.873" height="4.789"/>
			<rect x="66.104" y="122.094" fill="#59595B" width="0.873" height="4.789"/>
			<rect x="63.15" y="122.094" fill="#59595B" width="0.873" height="4.789"/>
			<rect x="61.48" y="121.714" fill="#59595B" width="58.664" height="0.903"/>
		</g>
		<rect x="39.081" y="98.823" fill="#FDEDDF" width="25.179" height="52.42"/>
		<g>
			<rect x="35.792" y="96.96" fill="#B9BBBE" width="15.757" height="3.392"/>
			<rect x="51.549" y="96.96" fill="#909294" width="15.757" height="3.392"/>
		</g>
		<g>
			<rect x="40.337" y="103.871" fill="#D9DCD2" width="22.509" height="6.613"/>
			<g>
				<rect x="41.25" y="104.866" fill="#192339" width="2.675" height="4.696"/>
				<rect x="44.807" y="104.866" fill="#192339" width="2.675" height="4.696"/>
				<rect x="48.413" y="104.866" fill="#192339" width="2.675" height="4.696"/>
				<rect x="51.999" y="104.866" fill="#192339" width="2.675" height="4.696"/>
				<rect x="55.565" y="104.866" fill="#192339" width="2.675" height="4.696"/>
				<rect x="59.152" y="104.866" fill="#192339" width="2.675" height="4.696"/>
			</g>
		</g>
		<g>
			<rect x="40.337" y="112.714" fill="#D9DCD2" width="22.509" height="6.613"/>
			<g>
				<rect x="41.25" y="113.709" fill="#192339" width="2.675" height="4.696"/>
				<rect x="44.807" y="113.709" fill="#192339" width="2.675" height="4.696"/>
				<rect x="48.413" y="113.709" fill="#192339" width="2.675" height="4.696"/>
				<rect x="51.999" y="113.709" fill="#192339" width="2.675" height="4.696"/>
				<rect x="55.565" y="113.709" fill="#192339" width="2.675" height="4.696"/>
				<rect x="59.152" y="113.709" fill="#192339" width="2.675" height="4.696"/>
			</g>
		</g>
		<polygon fill="#784029" points="39.081,171.408 39.081,126.008 64.219,140.952 64.219,126.008 89.439,140.886 89.439,171.219 		
			"/>
		<polygon fill="#FDEDDF" points="89.439,137.583 116.534,164.928 116.534,173.633 89.439,173.633 		"/>
		<polygon fill="#593120" points="89.439,141.757 64.26,127.576 64.26,124.477 89.439,138.383 		"/>
		<linearGradient id="SVGID_3_" gradientUnits="userSpaceOnUse" x1="60.4892" y1="130.2922" x2="89.4391" y2="130.2922">
			<stop  offset="0.0816" style="stop-color:#931A21"/>
			<stop  offset="0.2092" style="stop-color:#9F1E25"/>
			<stop  offset="0.7092" style="stop-color:#721817"/>
			<stop  offset="0.9133" style="stop-color:#640C0D"/>
		</linearGradient>
		<polygon fill="url(#SVGID_3_)" points="89.439,139.755 89.439,137.583 60.489,120.829 60.489,123.173 		"/>
		<polygon fill="#593120" points="64.26,139.755 64.26,141.757 39.081,127.576 39.081,124.477 64.26,138.383 		"/>
		<linearGradient id="SVGID_4_" gradientUnits="userSpaceOnUse" x1="35.2112" y1="130.2922" x2="64.2598" y2="130.2922">
			<stop  offset="0.0816" style="stop-color:#931A21"/>
			<stop  offset="0.2092" style="stop-color:#9F1E25"/>
			<stop  offset="0.7092" style="stop-color:#721817"/>
			<stop  offset="0.9133" style="stop-color:#640C0D"/>
		</linearGradient>
		<polygon fill="url(#SVGID_4_)" points="64.26,139.755 64.219,137.526 35.211,120.829 35.211,123.116 		"/>
		<g>
			<rect x="39.081" y="168.503" fill="#F38B1F" width="50.358" height="5.13"/>
			<polygon fill="#292D2C" points="39.081,173.633 44.041,168.503 39.081,168.503 			"/>
			<polygon fill="#292D2C" points="44.678,173.633 49.774,168.503 55.311,168.503 50.411,173.633 			"/>
			<polygon fill="#292D2C" points="55.935,173.633 61.031,168.503 66.568,168.503 61.668,173.633 			"/>
			<polygon fill="#292D2C" points="67.224,173.633 72.32,168.503 77.857,168.503 72.957,173.633 			"/>
			<polygon fill="#292D2C" points="78.417,173.633 83.512,168.503 89.049,168.503 84.15,173.633 			"/>
		</g>
		<rect x="50.683" y="152.007" fill="#ABABAB" width="26.89" height="16.496"/>
		<g>
			<rect x="49.84" y="152.007" fill="#F38B1F" width="1.686" height="16.496"/>
			<polygon fill="#292D2C" points="51.526,168.503 49.84,166.857 49.84,168.503 			"/>
			<polygon fill="#292D2C" points="51.526,166.543 51.526,164.883 49.84,163.313 49.84,164.928 			"/>
			<polygon fill="#292D2C" points="51.526,163.065 51.526,161.405 49.84,159.835 49.84,161.45 			"/>
			<polygon fill="#292D2C" points="51.526,159.487 51.526,157.827 49.84,156.257 49.84,157.872 			"/>
			<polygon fill="#292D2C" points="51.526,155.977 51.526,154.317 49.84,152.747 49.84,154.362 			"/>
		</g>
		<g>
			<rect x="63.417" y="152.007" fill="#F38B1F" width="1.686" height="16.496"/>
			<polygon fill="#292D2C" points="65.103,168.503 63.417,166.857 63.417,168.503 			"/>
			<polygon fill="#292D2C" points="65.103,166.543 65.103,164.883 63.417,163.313 63.417,164.928 			"/>
			<polygon fill="#292D2C" points="65.103,163.065 65.103,161.405 63.417,159.835 63.417,161.45 			"/>
			<polygon fill="#292D2C" points="65.103,159.487 65.103,157.827 63.417,156.257 63.417,157.872 			"/>
			<polygon fill="#292D2C" points="65.103,155.977 65.103,154.317 63.417,152.747 63.417,154.362 			"/>
		</g>
		<g>
			<rect x="76.73" y="152.007" fill="#F38B1F" width="1.686" height="16.496"/>
			<polygon fill="#292D2C" points="78.416,168.503 76.73,166.857 76.73,168.503 			"/>
			<polygon fill="#292D2C" points="78.416,166.543 78.416,164.883 76.73,163.313 76.73,164.928 			"/>
			<polygon fill="#292D2C" points="78.416,163.065 78.416,161.405 76.73,159.835 76.73,161.45 			"/>
			<polygon fill="#292D2C" points="78.416,159.487 78.416,157.827 76.73,156.257 76.73,157.872 			"/>
			<polygon fill="#292D2C" points="78.416,155.977 78.416,154.317 76.73,152.747 76.73,154.362 			"/>
		</g>
		<rect x="49.84" y="150.413" fill="#292D2C" width="28.576" height="2.333"/>
		<polygon opacity="0.2" points="49.84,152.747 65.792,168.503 89.439,168.503 89.439,161.449 78.416,150.413 49.84,150.413 		"/>
		<g>
			<rect x="49.84" y="143.931" fill="#CCCCCC" width="9.273" height="4.483"/>
			<rect x="50.905" y="144.887" fill="#2A2A2A" width="3.067" height="2.471"/>
			<rect x="54.992" y="144.887" fill="#2A2A2A" width="3.067" height="2.471"/>
		</g>
		<g>
			<rect x="69.057" y="143.881" fill="#CCCCCC" width="9.273" height="4.483"/>
			<rect x="70.122" y="144.838" fill="#2A2A2A" width="3.067" height="2.471"/>
			<rect x="74.209" y="144.838" fill="#2A2A2A" width="3.067" height="2.471"/>
		</g>
		<rect x="89.439" y="168.503" fill="#B46B28" width="9.406" height="5.13"/>
		<polygon fill="#292D2C" points="89.439,173.633 94.664,168.503 89.439,168.503 		"/>
		<polygon fill="#292D2C" points="95.166,173.633 98.845,169.944 98.845,173.633 		"/>
		<rect x="89.439" y="150.413" fill="#432318" width="9.406" height="18.09"/>
		<g>
			<polygon fill="#CBCBCB" points="91.654,103.871 91.654,150.413 94.09,150.413 94.131,103.871 			"/>
			<polygon fill="#ABABAB" points="96.514,103.871 94.131,103.871 94.09,150.413 96.514,150.413 			"/>
		</g>
		<rect x="90.492" y="103.171" fill="#CBCBCB" width="7.185" height="1.55"/>
		<rect x="90.492" y="109.538" fill="#CBCBCB" width="7.185" height="1.55"/>
		<rect x="90.492" y="115.905" fill="#CBCBCB" width="7.185" height="1.55"/>
		<rect x="90.492" y="122.272" fill="#CBCBCB" width="7.185" height="1.55"/>
		<rect x="90.492" y="128.639" fill="#CBCBCB" width="7.185" height="1.55"/>
		<rect x="90.492" y="135.006" fill="#CBCBCB" width="7.185" height="1.55"/>
		<rect x="90.492" y="141.373" fill="#CBCBCB" width="7.185" height="1.55"/>
		<rect x="90.492" y="147.74" fill="#CBCBCB" width="7.185" height="1.55"/>
	</g>
	<g>
		<g>
			<rect x="250.168" y="120.782" fill="#6C6D6A" width="6.189" height="8.829"/>
			<rect x="249.013" y="118.802" fill="#A4A4A4" width="8.664" height="3.053"/>
		</g>
		<rect x="205.068" y="166.155" fill="#B5B5B5" width="96.467" height="5.187"/>
		<polygon fill="#FDEDDF" points="208.353,166.155 208.353,140.569 253.301,126.22 298.25,140.915 298.25,166.155 		"/>
		<polygon fill="#B7AFA7" points="208.353,144.373 253.301,130.369 298.25,144.373 298.25,140.915 253.301,126.22 208.353,140.569 
					"/>
		<g>
			<linearGradient id="SVGID_5_" gradientUnits="userSpaceOnUse" x1="206.1051" y1="133.7489" x2="253.2787" y2="133.7489">
				<stop  offset="0.0816" style="stop-color:#931A21"/>
				<stop  offset="0.2092" style="stop-color:#9F1E25"/>
				<stop  offset="0.7092" style="stop-color:#721817"/>
				<stop  offset="0.9133" style="stop-color:#640C0D"/>
			</linearGradient>
			<polygon fill="url(#SVGID_5_)" points="206.105,139.705 206.105,142.99 253.279,127.784 253.25,124.508 			"/>
			<linearGradient id="SVGID_6_" gradientUnits="userSpaceOnUse" x1="253.2498" y1="133.7406" x2="300.3244" y2="133.7406">
				<stop  offset="0.0816" style="stop-color:#931A21"/>
				<stop  offset="0.2092" style="stop-color:#9F1E25"/>
				<stop  offset="0.7092" style="stop-color:#721817"/>
				<stop  offset="0.9133" style="stop-color:#640C0D"/>
			</linearGradient>
			<polygon fill="url(#SVGID_6_)" points="253.301,124.492 253.25,124.508 253.279,127.784 253.301,127.776 300.324,142.99 
				300.324,139.532 			"/>
		</g>
		<g>
			<rect x="230.712" y="138.128" fill="#454545" width="13.284" height="3.604"/>
			<rect x="231.437" y="138.88" fill="#FFFFFF" width="5.427" height="2.176"/>
			<rect x="237.802" y="138.88" fill="#FFFFFF" width="5.427" height="2.176"/>
		</g>
		<g>
			<rect x="246.66" y="138.166" fill="#454545" width="13.284" height="3.604"/>
			<rect x="247.385" y="138.918" fill="#FFFFFF" width="5.427" height="2.176"/>
			<rect x="253.749" y="138.918" fill="#FFFFFF" width="5.427" height="2.176"/>
		</g>
		<g>
			<rect x="262.612" y="138.205" fill="#454545" width="13.284" height="3.604"/>
			<rect x="263.337" y="138.957" fill="#FFFFFF" width="5.427" height="2.176"/>
			<rect x="269.702" y="138.957" fill="#FFFFFF" width="5.427" height="2.176"/>
		</g>
		<g>
			<rect x="214.827" y="148.17" fill="#CECFD1" width="31.355" height="17.986"/>
			<rect x="223.524" y="148.17" fill="#404041" width="14.278" height="17.986"/>
		</g>
		<g>
			<rect x="260.142" y="148.17" fill="#CECFD1" width="31.355" height="17.986"/>
			<rect x="268.839" y="148.17" fill="#404041" width="14.278" height="17.986"/>
		</g>
		<linearGradient id="SVGID_7_" gradientUnits="userSpaceOnUse" x1="212.0814" y1="147.5402" x2="294.5876" y2="147.5402">
			<stop  offset="0.0816" style="stop-color:#931A21"/>
			<stop  offset="0.2092" style="stop-color:#9F1E25"/>
			<stop  offset="0.7092" style="stop-color:#721817"/>
			<stop  offset="0.9133" style="stop-color:#640C0D"/>
		</linearGradient>
		<rect x="212.081" y="145.652" fill="url(#SVGID_7_)" width="82.506" height="3.776"/>
		<rect x="226.047" y="162.791" fill="#8E7D67" width="6.334" height="3.364"/>
		<rect x="226.047" y="159.725" fill="#C0A285" width="6.334" height="3.066"/>
		<rect x="250.912" y="162.791" fill="#BFA388" width="6.233" height="3.364"/>
		<rect x="257.144" y="162.791" fill="#8F7B67" width="6.3" height="3.364"/>
		<rect x="254.028" y="159.657" fill="#D8C6B7" width="6.114" height="3.134"/>
		<rect x="270.554" y="162.757" fill="#8C7862" width="6.334" height="3.398"/>
		<rect x="276.888" y="162.757" fill="#C0A387" width="6.229" height="3.398"/>
		<rect x="276.888" y="159.792" fill="#8E7C69" width="6.228" height="2.965"/>
		<rect x="276.888" y="156.49" fill="#D8C6B7" width="6.229" height="3.302"/>
		<g>
			<rect x="281.639" y="158.141" fill="#DADADA" width="2.628" height="8.014"/>
			<rect x="284.266" y="158.141" fill="#A4A4A4" width="2.628" height="8.014"/>
		</g>
		<g>
			<rect x="288.242" y="163.328" fill="#DADADA" width="2.628" height="8.014"/>
			<rect x="290.87" y="163.328" fill="#A4A4A4" width="2.628" height="8.014"/>
		</g>
	</g>
	<g>
		<path fill="#59595B" d="M455.323,93.276v-7.35h-2.632v-1.342h6.789v1.342h-2.633v7.35H455.323z"/>
		<path fill="#59595B" d="M468.927,93.276v-6.45l-2.671,6.45h-0.651l-2.658-6.45v6.45h-1.525v-8.691h2.15l2.358,5.721l2.372-5.721
			h2.15v8.691H468.927z"/>
		<path fill="#59595B" d="M480.459,93.276v-6.45l-2.671,6.45h-0.651l-2.658-6.45v6.45h-1.525v-8.691h2.15l2.358,5.721l2.372-5.721
			h2.15v8.691H480.459z"/>
		<path fill="#59595B" d="M484.486,93.276v-8.691h1.525v8.691H484.486z"/>
		<path fill="#59595B" d="M494.572,93.276l-4.534-6.203v6.203h-1.525v-8.691h1.564l4.443,6.033v-6.033h1.524v8.691H494.572z"/>
		<path fill="#59595B" d="M507.746,93.276l-2.919-3.662l-0.756,0.887v2.775h-1.525v-8.691h1.525v4.144l3.4-4.144h1.89l-3.531,4.104
			l3.792,4.587H507.746z"/>
		<path fill="#59595B" d="M516.254,93.276l-1.929-3.245h-1.511v3.245h-1.525v-8.691h3.818c1.72,0,2.841,1.12,2.841,2.724
			c0,1.55-1.017,2.384-2.059,2.554l2.124,3.414H516.254z M516.385,87.308c0-0.834-0.626-1.382-1.485-1.382h-2.085v2.763h2.085
			C515.759,88.689,516.385,88.142,516.385,87.308z"/>
		<path fill="#59595B" d="M526.77,93.276l-1.694-6.411l-1.681,6.411h-1.629l-2.489-8.691h1.707l1.694,6.697l1.798-6.697h1.212
			l1.799,6.697l1.681-6.697h1.707l-2.476,8.691H526.77z"/>
	</g>
	<g>
		<path fill="#59595B" d="M251.606,92.051l0.847-1.173c0.6,0.639,1.538,1.198,2.749,1.198c1.252,0,1.747-0.612,1.747-1.186
			c0-1.824-5.069-0.69-5.069-3.896c0-1.434,1.264-2.541,3.166-2.541c1.355,0,2.45,0.431,3.258,1.212l-0.873,1.134
			c-0.678-0.678-1.603-0.99-2.515-0.99c-0.899,0-1.473,0.43-1.473,1.082c0,1.615,5.056,0.612,5.056,3.856
			c0,1.446-1.016,2.685-3.361,2.685C253.534,93.432,252.375,92.872,251.606,92.051z"/>
		<path fill="#59595B" d="M260.558,89.849v-5.265h1.538v5.212c0,1.382,0.769,2.28,2.229,2.28c1.446,0,2.215-0.898,2.215-2.28v-5.212
			h1.538v5.251c0,2.163-1.238,3.597-3.753,3.597C261.796,93.432,260.558,91.986,260.558,89.849z"/>
		<path fill="#59595B" d="M270.578,93.276v-8.691h3.818c1.824,0,2.841,1.251,2.841,2.724c0,1.472-1.029,2.723-2.841,2.723h-2.293
			v3.245H270.578z M275.674,87.308c0-0.834-0.626-1.382-1.485-1.382h-2.085v2.763h2.085
			C275.048,88.689,275.674,88.142,275.674,87.308z"/>
		<path fill="#59595B" d="M279.153,93.276v-8.691h3.818c1.824,0,2.841,1.251,2.841,2.724c0,1.472-1.029,2.723-2.841,2.723h-2.293
			v3.245H279.153z M284.249,87.308c0-0.834-0.626-1.382-1.485-1.382h-2.085v2.763h2.085
			C283.623,88.689,284.249,88.142,284.249,87.308z"/>
		<path fill="#59595B" d="M287.727,93.276v-8.691h1.525v7.35h3.831v1.342H287.727z"/>
		<path fill="#59595B" d="M295.116,93.276v-8.691h1.525v8.691H295.116z"/>
		<path fill="#59595B" d="M299.142,93.276v-8.691h5.956v1.342h-4.431v2.255h4.339v1.342h-4.339v2.411h4.431v1.342H299.142z"/>
		<path fill="#59595B" d="M312.277,93.276l-1.929-3.245h-1.511v3.245h-1.525v-8.691h3.818c1.72,0,2.841,1.12,2.841,2.724
			c0,1.55-1.017,2.384-2.059,2.554l2.124,3.414H312.277z M312.408,87.308c0-0.834-0.626-1.382-1.485-1.382h-2.085v2.763h2.085
			C311.782,88.689,312.408,88.142,312.408,87.308z"/>
		<path fill="#59595B" d="M319.758,88.937c0-2.189,1.043-4.483,3.479-4.483s3.479,2.294,3.479,4.483
			c0,2.188-1.043,4.495-3.479,4.495S319.758,91.126,319.758,88.937z M325.166,88.937c0-1.655-0.509-3.128-1.929-3.128
			c-1.421,0-1.929,1.473-1.929,3.128c0,1.654,0.508,3.14,1.929,3.14C324.657,92.077,325.166,90.592,325.166,88.937z"/>
		<path fill="#59595B" d="M330.404,93.276v-6.711l-1.42,1.473l-0.887-0.926l2.502-2.527h1.329v8.691H330.404z"/>
	</g>
	<ellipse opacity="0.3" fill="#B7AFA7" cx="501.287" cy="76.37" rx="79.826" ry="1.978"/>
	<ellipse opacity="0.3" fill="#B7AFA7" cx="293.353" cy="73.658" rx="52.733" ry="1.978"/>
	<g>
		<path fill="#59595B" d="M79.415,88.49l0.847-1.173c0.6,0.639,1.538,1.198,2.749,1.198c1.252,0,1.747-0.612,1.747-1.186
			c0-1.824-5.069-0.69-5.069-3.896c0-1.433,1.264-2.541,3.166-2.541c1.355,0,2.45,0.431,3.258,1.212l-0.873,1.134
			c-0.678-0.678-1.603-0.99-2.515-0.99c-0.899,0-1.473,0.43-1.473,1.082c0,1.615,5.056,0.612,5.056,3.856
			c0,1.446-1.016,2.685-3.361,2.685C81.343,89.871,80.183,89.31,79.415,88.49z"/>
		<path fill="#59595B" d="M88.366,86.288v-5.265h1.538v5.212c0,1.382,0.769,2.28,2.229,2.28c1.446,0,2.215-0.898,2.215-2.28v-5.212
			h1.538v5.251c0,2.163-1.238,3.597-3.753,3.597C89.604,89.871,88.366,88.425,88.366,86.288z"/>
		<path fill="#59595B" d="M98.387,89.715v-8.691h3.818c1.824,0,2.841,1.251,2.841,2.724c0,1.472-1.029,2.723-2.841,2.723h-2.293
			v3.245H98.387z M103.482,83.747c0-0.834-0.626-1.382-1.485-1.382h-2.085v2.763h2.085
			C102.856,85.128,103.482,84.581,103.482,83.747z"/>
		<path fill="#59595B" d="M106.962,89.715v-8.691h3.818c1.824,0,2.841,1.251,2.841,2.724c0,1.472-1.029,2.723-2.841,2.723h-2.293
			v3.245H106.962z M112.058,83.747c0-0.834-0.626-1.382-1.485-1.382h-2.085v2.763h2.085
			C111.432,85.128,112.058,84.581,112.058,83.747z"/>
		<path fill="#59595B" d="M115.536,89.715v-8.691h1.525v7.35h3.831v1.342H115.536z"/>
		<path fill="#59595B" d="M122.925,89.715v-8.691h1.525v8.691H122.925z"/>
		<path fill="#59595B" d="M126.951,89.715v-8.691h5.956v1.342h-4.431v2.255h4.339v1.342h-4.339v2.411h4.431v1.342H126.951z"/>
		<path fill="#59595B" d="M140.086,89.715l-1.929-3.245h-1.511v3.245h-1.525v-8.691h3.818c1.72,0,2.841,1.12,2.841,2.724
			c0,1.55-1.017,2.384-2.059,2.554l2.124,3.414H140.086z M140.217,83.747c0-0.834-0.626-1.382-1.485-1.382h-2.085v2.763h2.085
			C139.591,85.128,140.217,84.581,140.217,83.747z"/>
		<path fill="#59595B" d="M147.566,85.376c0-2.189,1.043-4.483,3.479-4.483s3.479,2.294,3.479,4.483
			c0,2.188-1.043,4.495-3.479,4.495S147.566,87.564,147.566,85.376z M152.975,85.376c0-1.655-0.509-3.128-1.929-3.128
			c-1.421,0-1.929,1.473-1.929,3.128c0,1.654,0.508,3.14,1.929,3.14C152.466,88.515,152.975,87.03,152.975,85.376z"/>
		<path fill="#59595B" d="M156.362,89.715v-1.199c3.375-2.554,4.691-3.688,4.691-4.938c0-0.912-0.782-1.329-1.577-1.329
			c-1.016,0-1.798,0.417-2.346,1.043l-0.886-1.004c0.769-0.925,1.994-1.395,3.206-1.395c1.681,0,3.153,0.951,3.153,2.685
			c0,1.603-1.473,3.036-3.806,4.796h3.857v1.342H156.362z"/>
	</g>
	<path opacity="0.3" fill="#B7AFA7" d="M73.609,68.608c0-1.125,30.678-1.92,50.183-1.92s47.669,0.968,47.669,2.093
		c0,1.125-28.164,1.982-47.669,1.982S73.609,69.734,73.609,68.608z"/>
	<linearGradient id="SVGID_8_" gradientUnits="userSpaceOnUse" x1="353.3039" y1="57.98" x2="413.5388" y2="57.98">
		<stop  offset="0.0816" style="stop-color:#931A21"/>
		<stop  offset="0.2092" style="stop-color:#9F1E25"/>
		<stop  offset="0.7092" style="stop-color:#721817"/>
		<stop  offset="0.9133" style="stop-color:#640C0D"/>
	</linearGradient>
	<path fill="url(#SVGID_8_)" d="M413.539,54.838l-51.885-0.275c-0.053-0.054-0.038-0.183-0.04-0.486
		c-0.003-0.892,0-1.921-0.001-2.813c0-0.085-0.008-0.171-0.016-0.316c-2.792,2.364-5.531,4.684-8.294,7.024
		c2.774,2.349,5.516,4.67,8.314,7.039v-4.417h51.921V54.838z"/>
	<linearGradient id="SVGID_9_" gradientUnits="userSpaceOnUse" x1="174.9503" y1="57.98" x2="235.1852" y2="57.98">
		<stop  offset="0.0816" style="stop-color:#931A21"/>
		<stop  offset="0.2092" style="stop-color:#9F1E25"/>
		<stop  offset="0.7092" style="stop-color:#721817"/>
		<stop  offset="0.9133" style="stop-color:#640C0D"/>
	</linearGradient>
	<path fill="url(#SVGID_9_)" d="M235.185,54.838l-51.885-0.275c-0.053-0.054-0.038-0.183-0.04-0.486
		c-0.003-0.892,0-1.921-0.001-2.813c0-0.085-0.008-0.171-0.016-0.316c-2.792,2.364-5.531,4.684-8.294,7.024
		c2.774,2.349,5.516,4.67,8.314,7.039v-4.417h51.921V54.838z"/>
	<linearGradient id="SVGID_10_" gradientUnits="userSpaceOnUse" x1="131.2495" y1="158.7374" x2="191.4844" y2="158.7374">
		<stop  offset="0.0816" style="stop-color:#931A21"/>
		<stop  offset="0.2092" style="stop-color:#9F1E25"/>
		<stop  offset="0.7092" style="stop-color:#721817"/>
		<stop  offset="0.9133" style="stop-color:#640C0D"/>
	</linearGradient>
	<path fill="url(#SVGID_10_)" d="M131.25,161.879l51.885,0.275c0.053,0.054,0.038,0.183,0.04,0.486
		c0.003,0.892,0.001,1.921,0.001,2.813c0,0.085,0.008,0.171,0.016,0.316c2.792-2.364,5.531-4.684,8.294-7.024
		c-2.774-2.349-5.516-4.67-8.314-7.039v4.417H131.25V161.879z"/>
	<linearGradient id="SVGID_11_" gradientUnits="userSpaceOnUse" x1="314.0898" y1="158.7374" x2="374.3246" y2="158.7374">
		<stop  offset="0.0816" style="stop-color:#931A21"/>
		<stop  offset="0.2092" style="stop-color:#9F1E25"/>
		<stop  offset="0.7092" style="stop-color:#721817"/>
		<stop  offset="0.9133" style="stop-color:#640C0D"/>
	</linearGradient>
	<path fill="url(#SVGID_11_)" d="M314.09,161.879l51.884,0.275c0.053,0.054,0.038,0.183,0.04,0.486c0.003,0.892,0,1.921,0.001,2.813
		c0,0.085,0.008,0.171,0.016,0.316c2.792-2.364,5.531-4.684,8.294-7.024c-2.774-2.349-5.516-4.67-8.314-7.039v4.417H314.09V161.879z
		"/>
	<g>
		<g>
			<g>
				<rect x="137.248" y="155.477" fill="#4E4E4E" width="2.327" height="1.164"/>
				<rect x="139.076" y="155.477" fill="#E3E3E3" width="0.249" height="0.914"/>
				<rect x="137.497" y="155.477" fill="#E3E3E3" width="0.249" height="0.914"/>
				<path fill="#333333" d="M136.915,156.78c0,0.198,0.161,0.359,0.359,0.359h2.191c0.198,0,0.359-0.161,0.359-0.359v-0.03
					c0-0.198-0.161-0.359-0.359-0.359h-2.191c-0.198,0-0.359,0.161-0.359,0.359V156.78z"/>
			</g>
			<rect x="136.001" y="154.895" fill="#333333" width="18.952" height="0.665"/>
			<g>
				<polygon fill="#D6D6D5" points="134.505,156.225 135.858,156.225 136.456,154.48 134.505,154.48 				"/>
				<path fill="#BE272C" d="M134.671,155.65c0,0.088,0.072,0.16,0.16,0.16h0.761c0.088,0,0.16-0.072,0.16-0.16v-0.012
					c0-0.088-0.072-0.16-0.16-0.16h-0.761c-0.088,0-0.16,0.072-0.16,0.16V155.65z"/>
				<path fill="#333333" d="M134.421,157.02c0,0.066,0.054,0.12,0.12,0.12h1.257c0.066,0,0.12-0.054,0.12-0.12v-0.841
					c0-0.066-0.054-0.12-0.12-0.12h-1.257c-0.066,0-0.12,0.054-0.12,0.12V157.02z"/>
			</g>
			
				<polyline fill="none" stroke="#333333" stroke-width="3" stroke-linecap="round" stroke-linejoin="round" stroke-miterlimit="10" points="
				167.756,148.911 166.798,149.134 166.798,154.313 			"/>
			<path fill="#333333" d="M144.064,156.89h27.657c1.124,0,1.915-0.414,1.915-1.538l0,0c0-1.124-0.791-1.538-1.915-1.538h-4.967
				l-0.771,0.592c-0.326,0-21.918-0.013-21.918-0.013V156.89z"/>
			<path fill="#A2C36E" d="M167.928,147.165h0.045c0.012,0,0.023,0.003,0.035,0.003l0.003-0.003h5.745l1.07,1.777l1.005,3.074
				l0.01,4.625h-3.681c0-1.912-1.755-1.995-1.755-1.995h-3.149v-5.669v-0.92v-0.202
				C167.255,147.503,167.577,147.165,167.928,147.165z"/>
			<path fill="#333333" d="M168.419,147.747v2.823c0,0,0.573,0.902,5.8,1.561c0,0-0.224-3.22-1.94-4.384H168.419z"/>
			<rect x="168.502" y="152.485" fill="#4E4E4E" width="0.914" height="1.496"/>
			<rect x="168.502" y="153.482" fill="#666666" width="0.914" height="0.499"/>
			<path fill="#FFFFFF" d="M173.24,156.111c0,0.155,0.125,0.28,0.28,0.28h1.102c0.155,0,0.28-0.125,0.28-0.28v-0.022
				c0-0.155-0.125-0.28-0.28-0.28h-1.102c-0.155,0-0.28,0.125-0.28,0.28V156.111z"/>
			<path fill="#F59021" d="M173.24,156.141c0,0.163,0.126,0.263,0.331,0.251h0.667v-0.582h-0.667
				c-0.256-0.01-0.331,0.118-0.331,0.28V156.141z"/>
			<path fill="#333333" d="M173.756,147.218c0,0,2.085,1.626,2.075,5.067c0,0-0.33,0.022-0.349-0.14
				C175.162,149.418,174.01,148.056,173.756,147.218z"/>
			<path fill="#959595" d="M175.568,155.982c0,0.088,0.072,0.16,0.16,0.16h0.012c0.088,0,0.16-0.072,0.16-0.16v-2.34
				c0-0.088-0.072-0.16-0.16-0.16h-0.012c-0.088,0-0.16,0.072-0.16,0.16V155.982z"/>
			<path fill="#666666" d="M171.827,156.943c0,0.155,0.125,0.28,0.28,0.28h3.762c0.155,0,0.28-0.125,0.28-0.28v-0.022
				c0-0.155-0.125-0.28-0.28-0.28h-3.762c-0.155,0-0.28,0.125-0.28,0.28V156.943z"/>
			<path fill="#A2C36E" d="M173.771,147.165c0,0-0.643-3.183-6.479-3.168c0,0-0.165,2.317,0.09,2.751c0,0,0.195,0.417,0.434,0.417
				S173.771,147.165,173.771,147.165z"/>
			<g>
				<circle fill="#333333" cx="169.252" cy="157.079" r="2.05"/>
				<g>
					<circle fill="#C9C9C8" cx="169.252" cy="157.079" r="1.332"/>
					<circle fill="#E3E3E3" stroke="#333333" stroke-miterlimit="10" cx="169.252" cy="157.079" r="0.389"/>
					<rect x="168.918" y="155.976" fill="#333333" width="0.665" height="0.166"/>
					<rect x="168.918" y="158.054" fill="#333333" width="0.665" height="0.166"/>
					<rect x="168.253" y="156.807" fill="#333333" width="0.166" height="0.582"/>
					<rect x="170.165" y="156.807" fill="#333333" width="0.166" height="0.582"/>
				</g>
			</g>
			<rect x="144.479" y="156.059" fill="#808080" width="19.7" height="0.582"/>
			<g>
				<circle fill="#333333" cx="152.657" cy="157.079" r="2.05"/>
				<g>
					<circle fill="#C9C9C8" cx="152.657" cy="157.079" r="1.332"/>
					<circle fill="#E3E3E3" stroke="#333333" stroke-miterlimit="10" cx="152.657" cy="157.079" r="0.389"/>
					<rect x="152.376" y="155.976" fill="#333333" width="0.582" height="0.166"/>
					<rect x="152.376" y="158.054" fill="#333333" width="0.582" height="0.166"/>
					<rect x="151.628" y="156.807" fill="#333333" width="0.166" height="0.582"/>
					<rect x="153.54" y="156.807" fill="#333333" width="0.166" height="0.582"/>
				</g>
			</g>
			<g>
				<circle fill="#333333" cx="147.67" cy="157.079" r="2.05"/>
				<g>
					<circle fill="#C9C9C8" cx="147.67" cy="157.079" r="1.332"/>
					<circle fill="#E3E3E3" stroke="#333333" stroke-miterlimit="10" cx="147.67" cy="157.079" r="0.389"/>
					<rect x="147.389" y="155.976" fill="#333333" width="0.582" height="0.166"/>
					<rect x="147.389" y="158.054" fill="#333333" width="0.582" height="0.166"/>
					<rect x="146.641" y="156.807" fill="#333333" width="0.166" height="0.582"/>
					<rect x="148.552" y="156.807" fill="#333333" width="0.166" height="0.582"/>
				</g>
			</g>
			<g>
				<circle fill="#333333" cx="142.765" cy="157.079" r="2.05"/>
				<g>
					<circle fill="#C9C9C8" cx="142.765" cy="157.079" r="1.332"/>
					<circle fill="#E3E3E3" stroke="#333333" stroke-miterlimit="10" cx="142.765" cy="157.079" r="0.389"/>
					<rect x="142.484" y="155.976" fill="#333333" width="0.582" height="0.166"/>
					<rect x="142.484" y="158.054" fill="#333333" width="0.582" height="0.166"/>
					<rect x="141.736" y="156.807" fill="#333333" width="0.166" height="0.582"/>
					<rect x="143.648" y="156.807" fill="#333333" width="0.166" height="0.582"/>
				</g>
			</g>
			<path fill="#666666" d="M173.157,152.667c0,0.083,0.067,0.15,0.15,0.15h0.781c0.083,0,0.15-0.067,0.15-0.15v-0.033
				c0-0.083-0.067-0.15-0.15-0.15h-0.781c-0.083,0-0.15,0.067-0.15,0.15V152.667z"/>
			<rect x="161.769" y="155.81" fill="#666666" width="3.076" height="1.33"/>
			<g>
				<path fill="#4E4E4E" d="M171.165,147.747l0.624,4.007c-0.86-0.168-1.507-0.357-1.993-0.515l-0.546-3.491H171.165z"/>
			</g>
			<g>
				<rect x="134.505" y="142.593" fill="#D6D6D5" width="31.504" height="12.385"/>
				<g>
					<path fill="#E3E3E3" d="M159.94,153.299c0,0.33,0.268,0.598,0.599,0.598h3.874c0.331,0,0.599-0.268,0.599-0.598v-9.36
						c0-0.33-0.268-0.598-0.599-0.598h-3.874c-0.331,0-0.599,0.268-0.599,0.598V153.299z"/>
					<path fill="#E3E3E3" d="M153.872,153.295c0,0.33,0.268,0.602,0.599,0.602h3.873c0.331,0,0.599-0.272,0.599-0.602v-9.36
						c0-0.33-0.268-0.594-0.599-0.594h-3.873c-0.331,0-0.599,0.264-0.599,0.594V153.295z"/>
					<path fill="#E3E3E3" d="M147.638,153.299c0,0.33,0.268,0.598,0.598,0.598h3.874c0.33,0,0.598-0.268,0.598-0.598v-9.36
						c0-0.33-0.268-0.598-0.598-0.598h-3.874c-0.33,0-0.598,0.268-0.598,0.598V153.299z"/>
				</g>
				<g>
					<path fill="#E3E3E3" d="M135.502,153.295c0,0.33,0.268,0.602,0.599,0.602h3.873c0.331,0,0.599-0.272,0.599-0.602v-9.36
						c0-0.33-0.268-0.594-0.599-0.594h-3.873c-0.331,0-0.599,0.264-0.599,0.594V153.295z"/>
				</g>
				<rect x="135.17" y="154.23" fill="#E3E3E3" width="30.174" height="0.416"/>
				<path fill="#F59021" d="M164.928,143.015c0,0.088,0.071,0.16,0.16,0.16h0.512c0.088,0,0.16-0.071,0.16-0.16v-0.013
					c0-0.088-0.071-0.16-0.16-0.16h-0.512c-0.088,0-0.16,0.071-0.16,0.16V143.015z"/>
				<path fill="#F59021" d="M134.837,143.015c0,0.088,0.071,0.16,0.16,0.16h0.512c0.088,0,0.16-0.071,0.16-0.16v-0.013
					c0-0.088-0.071-0.16-0.16-0.16h-0.512c-0.088,0-0.16,0.071-0.16,0.16V143.015z"/>
				<g>
					<path fill="#E3E3E3" d="M141.57,153.295c0,0.33,0.268,0.602,0.599,0.602h3.873c0.331,0,0.599-0.272,0.599-0.602v-9.36
						c0-0.33-0.268-0.594-0.599-0.594h-3.873c-0.331,0-0.599,0.264-0.599,0.594V153.295z"/>
				</g>
			</g>
			<rect x="156.699" y="155.643" fill="#B0B0B0" width="2.494" height="0.748"/>
			<rect x="156.699" y="156.391" fill="#333333" width="2.494" height="0.748"/>
		</g>
		<g>
			<path fill="#AE3F42" d="M152.34,144.233h0.554l0.333,1.294h-0.532l-0.049-0.266h-0.865l-0.265,0.266h-0.513L152.34,144.233z
				 M151.998,145.038h0.597l-0.098-0.509L151.998,145.038z"/>
			<path fill="#AE3F42" d="M155.744,144.357c0.038,0.032,0.064,0.068,0.079,0.108c0.014,0.04,0.012,0.085-0.008,0.137
				c-0.024,0.061-0.076,0.121-0.155,0.181s-0.188,0.102-0.327,0.126c0.099,0.024,0.162,0.059,0.19,0.103s0.024,0.111-0.011,0.202
				l-0.033,0.087c-0.022,0.06-0.033,0.1-0.033,0.12c0,0.033,0.021,0.059,0.061,0.074l-0.011,0.032h-0.541
				c-0.004-0.028-0.006-0.052-0.006-0.069c0.001-0.036,0.009-0.073,0.022-0.111l0.043-0.12c0.029-0.083,0.023-0.138-0.019-0.165
				s-0.135-0.042-0.279-0.042h-0.507l-0.194,0.508h-0.479l0.499-1.294h1.151c0.164,0.002,0.286,0.013,0.366,0.033
				C155.634,144.287,155.697,144.317,155.744,144.357z M154.427,144.458l-0.134,0.348h0.556c0.11,0,0.196-0.007,0.257-0.021
				c0.107-0.025,0.175-0.073,0.204-0.146c0.029-0.078,0.002-0.131-0.082-0.158c-0.047-0.015-0.124-0.022-0.23-0.022H154.427z"/>
			<path fill="#AE3F42" d="M157.936,144.233h0.706l-0.499,1.294h-0.457l0.336-0.875c0.011-0.025,0.025-0.061,0.044-0.106
				c0.019-0.045,0.032-0.08,0.041-0.104l-0.862,1.086h-0.477l-0.023-1.086c-0.009,0.024-0.021,0.06-0.038,0.104
				c-0.016,0.046-0.029,0.081-0.04,0.106l-0.336,0.875h-0.458l0.499-1.294h0.714l0.033,1.018L157.936,144.233z"/>
			<path fill="#AE3F42" d="M159.77,144.233h0.554l0.333,1.294h-0.532l-0.049-0.266h-0.865l-0.265,0.266h-0.513L159.77,144.233z
				 M159.429,145.038h0.597l-0.098-0.509L159.429,145.038z"/>
			<path fill="#AE3F42" d="M161.464,145.128c-0.008,0.06,0.005,0.104,0.036,0.133c0.06,0.053,0.187,0.08,0.38,0.08
				c0.115,0,0.212-0.008,0.29-0.021c0.147-0.027,0.235-0.077,0.263-0.15c0.017-0.043-0.005-0.075-0.063-0.099
				s-0.157-0.043-0.297-0.061l-0.237-0.031c-0.232-0.03-0.389-0.063-0.469-0.099c-0.135-0.061-0.178-0.153-0.129-0.28
				c0.045-0.116,0.158-0.212,0.341-0.289c0.183-0.076,0.423-0.115,0.719-0.115c0.248,0,0.444,0.036,0.591,0.108
				s0.198,0.178,0.153,0.315h-0.472c0.022-0.078-0.018-0.134-0.119-0.166c-0.068-0.021-0.159-0.033-0.272-0.033
				c-0.127,0-0.233,0.015-0.319,0.043c-0.087,0.027-0.14,0.067-0.159,0.117c-0.018,0.046,0.006,0.081,0.072,0.104
				c0.041,0.016,0.137,0.033,0.285,0.054l0.384,0.054c0.168,0.023,0.289,0.055,0.365,0.094c0.116,0.061,0.152,0.149,0.107,0.265
				c-0.045,0.118-0.165,0.216-0.359,0.294s-0.441,0.117-0.741,0.117c-0.306,0-0.531-0.038-0.677-0.115s-0.192-0.183-0.141-0.317
				H161.464z"/>
		</g>
		<polygon points="163.112,145.798 164.155,146.707 134.505,146.707 134.505,145.798 		"/>
		<g>
			<path fill="#FFFFFF" d="M151.063,145.962v0.37h0.221v0.084h-0.32v-0.454H151.063z"/>
			<path fill="#FFFFFF" d="M151.717,146.096c0.011-0.029,0.025-0.055,0.044-0.076c0.02-0.021,0.043-0.038,0.07-0.051
				c0.028-0.012,0.06-0.019,0.094-0.019c0.035,0,0.066,0.007,0.094,0.019c0.028,0.013,0.051,0.029,0.07,0.051
				s0.033,0.047,0.044,0.076c0.01,0.029,0.016,0.061,0.016,0.095c0,0.032-0.006,0.063-0.016,0.092
				c-0.011,0.029-0.024,0.054-0.044,0.075c-0.02,0.021-0.042,0.038-0.07,0.05c-0.027,0.012-0.059,0.018-0.094,0.018
				c-0.034,0-0.065-0.006-0.094-0.018c-0.027-0.012-0.051-0.029-0.07-0.05c-0.019-0.021-0.033-0.046-0.044-0.075
				c-0.01-0.028-0.015-0.06-0.015-0.092C151.702,146.157,151.707,146.126,151.717,146.096z M151.809,146.247
				c0.004,0.018,0.012,0.034,0.021,0.048c0.009,0.015,0.022,0.026,0.038,0.035s0.034,0.013,0.057,0.013s0.042-0.004,0.058-0.013
				s0.028-0.021,0.038-0.035c0.01-0.014,0.017-0.03,0.021-0.048c0.004-0.019,0.006-0.037,0.006-0.056
				c0-0.021-0.002-0.039-0.006-0.059c-0.005-0.019-0.012-0.035-0.021-0.05s-0.022-0.026-0.038-0.034
				c-0.016-0.009-0.035-0.014-0.058-0.014s-0.041,0.005-0.057,0.014c-0.016,0.008-0.029,0.02-0.038,0.034
				c-0.01,0.015-0.018,0.031-0.021,0.05c-0.005,0.02-0.007,0.038-0.007,0.059C151.802,146.21,151.804,146.228,151.809,146.247z"/>
			<path fill="#FFFFFF" d="M152.866,146.412c-0.021,0.01-0.043,0.014-0.065,0.014c-0.034,0-0.065-0.006-0.094-0.018
				c-0.027-0.012-0.051-0.029-0.07-0.05c-0.019-0.021-0.033-0.046-0.044-0.075c-0.01-0.028-0.015-0.06-0.015-0.092
				c0-0.034,0.005-0.065,0.015-0.095c0.011-0.029,0.025-0.055,0.044-0.076c0.02-0.021,0.043-0.038,0.07-0.051
				c0.028-0.012,0.06-0.019,0.094-0.019c0.023,0,0.046,0.004,0.067,0.011c0.022,0.007,0.042,0.018,0.06,0.031s0.032,0.03,0.044,0.05
				c0.011,0.02,0.018,0.043,0.021,0.068h-0.096c-0.006-0.025-0.017-0.044-0.034-0.057c-0.017-0.013-0.037-0.02-0.062-0.02
				c-0.022,0-0.041,0.005-0.057,0.014c-0.016,0.008-0.029,0.02-0.038,0.034c-0.01,0.015-0.018,0.031-0.021,0.05
				c-0.005,0.02-0.007,0.038-0.007,0.059c0,0.019,0.002,0.037,0.007,0.056c0.004,0.018,0.012,0.034,0.021,0.048
				c0.009,0.015,0.022,0.026,0.038,0.035s0.034,0.013,0.057,0.013c0.033,0,0.059-0.008,0.077-0.025
				c0.018-0.017,0.028-0.041,0.031-0.072h-0.101v-0.074h0.19v0.245h-0.063l-0.01-0.052
				C152.907,146.387,152.888,146.403,152.866,146.412z"/>
			<path fill="#FFFFFF" d="M153.56,145.962v0.454h-0.1v-0.454H153.56z"/>
			<path fill="#FFFFFF" d="M154.106,146.303c0.006,0.011,0.013,0.02,0.021,0.026c0.01,0.007,0.021,0.012,0.032,0.015
				c0.013,0.003,0.025,0.005,0.038,0.005c0.009,0,0.019-0.001,0.029-0.003c0.01-0.001,0.02-0.004,0.028-0.008
				c0.009-0.005,0.017-0.011,0.022-0.018c0.006-0.008,0.009-0.018,0.009-0.028c0-0.013-0.004-0.022-0.012-0.03
				s-0.019-0.014-0.031-0.019c-0.013-0.006-0.027-0.01-0.043-0.014c-0.017-0.004-0.032-0.008-0.049-0.013
				c-0.018-0.004-0.033-0.01-0.05-0.016c-0.016-0.006-0.03-0.014-0.043-0.023s-0.023-0.022-0.031-0.037s-0.012-0.032-0.012-0.053
				c0-0.023,0.005-0.044,0.016-0.061c0.01-0.018,0.022-0.031,0.039-0.043c0.016-0.012,0.034-0.021,0.055-0.025
				c0.02-0.006,0.04-0.009,0.061-0.009c0.023,0,0.047,0.003,0.068,0.008c0.021,0.006,0.041,0.015,0.058,0.026
				c0.018,0.012,0.031,0.026,0.041,0.045s0.015,0.041,0.015,0.067h-0.097c-0.001-0.014-0.004-0.024-0.009-0.033
				c-0.005-0.01-0.011-0.017-0.019-0.021c-0.009-0.005-0.018-0.009-0.028-0.011c-0.01-0.002-0.021-0.003-0.034-0.003
				c-0.008,0-0.016,0.001-0.023,0.002c-0.009,0.002-0.016,0.005-0.022,0.009c-0.006,0.005-0.012,0.01-0.016,0.017
				c-0.005,0.006-0.007,0.014-0.007,0.023s0.002,0.017,0.005,0.022c0.004,0.005,0.011,0.01,0.021,0.015s0.023,0.01,0.041,0.014
				c0.018,0.005,0.041,0.011,0.069,0.019c0.008,0.001,0.02,0.005,0.035,0.009c0.015,0.005,0.03,0.012,0.045,0.021
				s0.027,0.022,0.038,0.039s0.017,0.037,0.017,0.062c0,0.021-0.004,0.04-0.013,0.058c-0.008,0.018-0.02,0.033-0.035,0.046
				c-0.017,0.014-0.036,0.023-0.06,0.03c-0.023,0.008-0.051,0.011-0.082,0.011c-0.024,0-0.049-0.003-0.072-0.009
				s-0.044-0.016-0.062-0.029c-0.018-0.013-0.032-0.029-0.043-0.05s-0.016-0.045-0.015-0.072h0.097
				C154.099,146.28,154.1,146.294,154.106,146.303z"/>
			<path fill="#FFFFFF" d="M154.787,146.046v-0.084h0.372v0.084h-0.136v0.37h-0.1v-0.37H154.787z"/>
			<path fill="#FFFFFF" d="M155.692,145.962v0.454h-0.1v-0.454H155.692z"/>
			<path fill="#FFFFFF" d="M156.453,146.083c-0.006-0.009-0.014-0.018-0.022-0.024c-0.009-0.008-0.019-0.013-0.03-0.018
				c-0.011-0.004-0.022-0.006-0.035-0.006c-0.022,0-0.041,0.005-0.057,0.014c-0.016,0.008-0.029,0.02-0.038,0.034
				c-0.01,0.015-0.018,0.031-0.021,0.05c-0.005,0.02-0.007,0.038-0.007,0.059c0,0.019,0.002,0.037,0.007,0.056
				c0.004,0.018,0.012,0.034,0.021,0.048c0.009,0.015,0.022,0.026,0.038,0.035s0.034,0.013,0.057,0.013
				c0.03,0,0.055-0.009,0.071-0.027c0.018-0.02,0.028-0.044,0.032-0.074h0.096c-0.002,0.028-0.009,0.054-0.02,0.077
				c-0.011,0.022-0.024,0.042-0.042,0.059c-0.017,0.016-0.037,0.028-0.061,0.036c-0.023,0.009-0.049,0.013-0.077,0.013
				c-0.034,0-0.065-0.006-0.094-0.018c-0.027-0.012-0.051-0.029-0.07-0.05c-0.019-0.021-0.033-0.046-0.044-0.075
				c-0.01-0.028-0.015-0.06-0.015-0.092c0-0.034,0.005-0.065,0.015-0.095c0.011-0.029,0.025-0.055,0.044-0.076
				c0.02-0.021,0.043-0.038,0.07-0.051c0.028-0.012,0.06-0.019,0.094-0.019c0.025,0,0.049,0.004,0.071,0.011
				c0.021,0.008,0.042,0.019,0.06,0.032s0.032,0.03,0.043,0.051c0.012,0.021,0.019,0.044,0.022,0.07h-0.097
				C156.463,146.103,156.459,146.092,156.453,146.083z"/>
			<path fill="#FFFFFF" d="M157.647,146.303c0.006,0.011,0.013,0.02,0.021,0.026c0.01,0.007,0.021,0.012,0.032,0.015
				c0.013,0.003,0.025,0.005,0.038,0.005c0.009,0,0.019-0.001,0.029-0.003c0.01-0.001,0.02-0.004,0.028-0.008
				c0.009-0.005,0.017-0.011,0.022-0.018c0.006-0.008,0.009-0.018,0.009-0.028c0-0.013-0.004-0.022-0.012-0.03
				s-0.019-0.014-0.031-0.019c-0.013-0.006-0.027-0.01-0.043-0.014c-0.017-0.004-0.032-0.008-0.049-0.013
				c-0.018-0.004-0.033-0.01-0.05-0.016c-0.016-0.006-0.03-0.014-0.043-0.023s-0.023-0.022-0.031-0.037s-0.012-0.032-0.012-0.053
				c0-0.023,0.005-0.044,0.016-0.061c0.01-0.018,0.022-0.031,0.039-0.043c0.016-0.012,0.034-0.021,0.055-0.025
				c0.02-0.006,0.04-0.009,0.061-0.009c0.023,0,0.047,0.003,0.068,0.008c0.021,0.006,0.041,0.015,0.058,0.026
				c0.018,0.012,0.031,0.026,0.041,0.045s0.015,0.041,0.015,0.067h-0.097c-0.001-0.014-0.004-0.024-0.009-0.033
				c-0.005-0.01-0.011-0.017-0.019-0.021c-0.009-0.005-0.018-0.009-0.028-0.011c-0.01-0.002-0.021-0.003-0.034-0.003
				c-0.008,0-0.016,0.001-0.023,0.002c-0.009,0.002-0.016,0.005-0.022,0.009c-0.006,0.005-0.012,0.01-0.016,0.017
				c-0.005,0.006-0.007,0.014-0.007,0.023s0.002,0.017,0.005,0.022c0.004,0.005,0.011,0.01,0.021,0.015s0.023,0.01,0.041,0.014
				c0.018,0.005,0.041,0.011,0.069,0.019c0.008,0.001,0.02,0.005,0.035,0.009c0.015,0.005,0.03,0.012,0.045,0.021
				s0.027,0.022,0.038,0.039s0.017,0.037,0.017,0.062c0,0.021-0.004,0.04-0.013,0.058c-0.008,0.018-0.02,0.033-0.035,0.046
				c-0.017,0.014-0.036,0.023-0.06,0.03c-0.023,0.008-0.051,0.011-0.082,0.011c-0.024,0-0.049-0.003-0.072-0.009
				s-0.044-0.016-0.062-0.029c-0.018-0.013-0.032-0.029-0.043-0.05s-0.016-0.045-0.015-0.072h0.097
				C157.64,146.28,157.642,146.294,157.647,146.303z"/>
			<path fill="#FFFFFF" d="M158.704,145.962v0.084h-0.239v0.098h0.22v0.077h-0.22v0.111h0.245v0.084h-0.345v-0.454H158.704z"/>
			<path fill="#FFFFFF" d="M159.402,145.962c0.021,0,0.039,0.004,0.056,0.01c0.016,0.007,0.03,0.016,0.042,0.027
				s0.021,0.024,0.026,0.04c0.006,0.015,0.009,0.031,0.009,0.049c0,0.026-0.005,0.05-0.017,0.069
				c-0.011,0.019-0.029,0.034-0.055,0.044v0.001c0.012,0.004,0.022,0.009,0.03,0.016s0.015,0.016,0.02,0.025
				c0.005,0.009,0.009,0.02,0.012,0.031c0.002,0.012,0.004,0.022,0.005,0.034c0,0.007,0,0.016,0.001,0.025
				c0,0.01,0.001,0.02,0.002,0.03c0.001,0.01,0.003,0.02,0.005,0.028c0.003,0.01,0.006,0.017,0.011,0.023h-0.1
				c-0.006-0.015-0.009-0.031-0.01-0.052c-0.002-0.02-0.004-0.039-0.006-0.057c-0.004-0.024-0.011-0.041-0.021-0.053
				c-0.012-0.011-0.029-0.017-0.055-0.017h-0.1v0.178h-0.1v-0.454H159.402z M159.367,146.168c0.022,0,0.04-0.006,0.052-0.016
				c0.011-0.01,0.017-0.026,0.017-0.05c0-0.021-0.006-0.038-0.017-0.048c-0.012-0.01-0.029-0.015-0.052-0.015h-0.109v0.128H159.367z
				"/>
			<path fill="#FFFFFF" d="M160.086,146.416l-0.147-0.454h0.103l0.102,0.319h0.001l0.103-0.319h0.103l-0.15,0.454H160.086z"/>
			<path fill="#FFFFFF" d="M160.868,145.962v0.454h-0.1v-0.454H160.868z"/>
			<path fill="#FFFFFF" d="M161.628,146.083c-0.006-0.009-0.014-0.018-0.022-0.024c-0.009-0.008-0.019-0.013-0.03-0.018
				c-0.011-0.004-0.022-0.006-0.035-0.006c-0.022,0-0.041,0.005-0.057,0.014c-0.016,0.008-0.029,0.02-0.038,0.034
				c-0.01,0.015-0.018,0.031-0.021,0.05c-0.005,0.02-0.007,0.038-0.007,0.059c0,0.019,0.002,0.037,0.007,0.056
				c0.004,0.018,0.012,0.034,0.021,0.048c0.009,0.015,0.022,0.026,0.038,0.035s0.034,0.013,0.057,0.013
				c0.03,0,0.055-0.009,0.071-0.027c0.018-0.02,0.028-0.044,0.032-0.074h0.096c-0.002,0.028-0.009,0.054-0.02,0.077
				c-0.011,0.022-0.024,0.042-0.042,0.059c-0.017,0.016-0.037,0.028-0.061,0.036c-0.023,0.009-0.049,0.013-0.077,0.013
				c-0.034,0-0.065-0.006-0.094-0.018c-0.027-0.012-0.051-0.029-0.07-0.05c-0.019-0.021-0.033-0.046-0.044-0.075
				c-0.01-0.028-0.015-0.06-0.015-0.092c0-0.034,0.005-0.065,0.015-0.095c0.011-0.029,0.025-0.055,0.044-0.076
				c0.02-0.021,0.043-0.038,0.07-0.051c0.028-0.012,0.06-0.019,0.094-0.019c0.025,0,0.049,0.004,0.071,0.011
				c0.021,0.008,0.042,0.019,0.06,0.032s0.032,0.03,0.043,0.051c0.012,0.021,0.019,0.044,0.022,0.07h-0.097
				C161.638,146.103,161.634,146.092,161.628,146.083z"/>
			<path fill="#FFFFFF" d="M162.528,145.962v0.084h-0.239v0.098h0.22v0.077h-0.22v0.111h0.245v0.084h-0.345v-0.454H162.528z"/>
		</g>
		<ellipse opacity="0.3" fill="#232020" cx="154.806" cy="158.854" rx="20.845" ry="0.359"/>
	</g>
	<linearGradient id="SVGID_12_" gradientUnits="userSpaceOnUse" x1="1.858019e-05" y1="109.4963" x2="60.4892" y2="109.4963">
		<stop  offset="0.0816" style="stop-color:#931A21"/>
		<stop  offset="0.2092" style="stop-color:#9F1E25"/>
		<stop  offset="0.7092" style="stop-color:#721817"/>
		<stop  offset="0.9133" style="stop-color:#640C0D"/>
	</linearGradient>
	<path fill="url(#SVGID_12_)" d="M8.532,61.805c1.78-1.723,4.661-1.643,4.673-1.656l47.284,0.005v-6.923H13.447
		c-0.956-0.043-5.932-0.011-9.655,3.53c-2.515,2.391-3.791,5.706-3.791,9.849v75.801h0.004v6.341
		c-0.031,0.953-0.012,5.93,3.528,9.655c2.392,2.515,5.706,3.791,9.85,3.791h2.676c0.608,0.036,1.471,0.058,2.727,0.059
		c0.569,0,0.504-0.096,0.506,0.519c0.003,0.892,0.001,1.785,0.001,2.677c0,0.086,0.008,0.171,0.016,0.316
		c2.792-2.364,5.531-4.684,8.294-7.024c-2.774-2.349-5.516-4.67-8.314-7.039c0,1.221,0,2.356,0,3.505
		c-0.098,0.006-0.172,0.016-0.246,0.016c-6.601,0-3.251,0-6.408-0.001c-1.771-0.117-3.15-0.623-4.056-1.558
		c-1.727-1.785-1.655-4.673-1.655-4.673l0-6.582h0v-2.055l0.004-43.186H6.923V66.61C6.923,64.457,7.464,62.839,8.532,61.805z"/>
	<linearGradient id="SVGID_13_" gradientUnits="userSpaceOnUse" x1="484.4405" y1="130.0904" x2="552.0131" y2="130.0904">
		<stop  offset="0.0816" style="stop-color:#931A21"/>
		<stop  offset="0.2092" style="stop-color:#9F1E25"/>
		<stop  offset="0.7092" style="stop-color:#721817"/>
		<stop  offset="0.9133" style="stop-color:#640C0D"/>
	</linearGradient>
	<path fill="url(#SVGID_13_)" d="M552.013,105.28c-2.369-2.799-4.691-5.54-7.039-8.315c-2.34,2.763-4.66,5.502-7.024,8.294
		c0.145,0.007,0.23,0.015,0.316,0.016c0.892,0.001,1.785-0.002,2.677,0.001c0.615,0.002,0.519-0.063,0.519,0.506
		c0,1.546,0.034,2.489,0.087,3.097l0.005,41.132c-0.013,0.012,0.067,2.893-1.656,4.673c-1.034,1.068-2.652,1.609-4.805,1.609
		h-30.561v-0.004l-20.088,0.004h-0.002v6.923h50.651c4.144,0,7.459-1.276,9.85-3.791c3.541-3.723,3.573-8.699,3.53-9.655v-34.858
		c0.008,0,0.014,0,0.014,0c0.007-7.981,0.007-1.405,0.007-9.386c0-0.074,0.009-0.148,0.016-0.246
		C549.658,105.28,550.792,105.28,552.013,105.28z"/>
	<g>
		<g>
			<g>
				<g>
					<rect x="405.119" y="54.906" fill="#4E4E4E" width="2.342" height="1.171"/>
					<rect x="405.37" y="54.906" fill="#E3E3E3" width="0.251" height="0.92"/>
					<rect x="406.96" y="54.906" fill="#E3E3E3" width="0.251" height="0.92"/>
					<path fill="#333333" d="M407.796,56.217c0,0.2-0.162,0.361-0.361,0.361h-2.205c-0.2,0-0.361-0.162-0.361-0.361v-0.03
						c0-0.2,0.162-0.361,0.361-0.361h2.205c0.2,0,0.361,0.162,0.361,0.361V56.217z"/>
				</g>
				<rect x="389.643" y="54.32" fill="#333333" width="19.074" height="0.669"/>
				<g>
					<polygon fill="#D6D6D5" points="410.222,55.659 408.861,55.659 408.258,53.902 410.222,53.902 					"/>
					<path fill="#BE272C" d="M410.055,55.079c0,0.089-0.072,0.161-0.161,0.161h-0.765c-0.089,0-0.161-0.072-0.161-0.161v-0.013
						c0-0.089,0.072-0.161,0.161-0.161h0.765c0.089,0,0.161,0.072,0.161,0.161V55.079z"/>
					<path fill="#333333" d="M410.306,56.458c0,0.067-0.054,0.12-0.121,0.12h-1.265c-0.067,0-0.121-0.054-0.121-0.12v-0.847
						c0-0.067,0.054-0.12,0.121-0.12h1.265c0.067,0,0.121,0.054,0.121,0.12V56.458z"/>
				</g>
				
					<polyline fill="none" stroke="#333333" stroke-width="3" stroke-linecap="round" stroke-linejoin="round" stroke-miterlimit="10" points="
					376.758,48.297 377.722,48.522 377.722,53.735 				"/>
				<path fill="#333333" d="M400.602,56.328h-27.834c-1.131,0-1.927-0.417-1.927-1.548l0,0c0-1.131,0.796-1.548,1.927-1.548h4.999
					l0.776,0.596c0.328,0,22.058-0.013,22.058-0.013V56.328z"/>
				<path fill="#A2C36E" d="M376.585,46.54h-0.045c-0.012,0-0.023,0.003-0.035,0.003l-0.003-0.003h-5.782l-1.077,1.789l-1.011,3.093
					l-0.01,4.655h3.704c0-1.924,1.767-2.008,1.767-2.008h3.169v-5.706v-0.926v-0.203C377.262,46.881,376.939,46.54,376.585,46.54z"
					/>
				<path fill="#333333" d="M376.091,47.126v2.842c0,0-0.577,0.908-5.837,1.571c0,0,0.226-3.241,1.952-4.412H376.091z"/>
				<rect x="375.087" y="51.894" fill="#4E4E4E" width="0.92" height="1.506"/>
				<rect x="375.087" y="52.898" fill="#666666" width="0.92" height="0.502"/>
				<path fill="#FFFFFF" d="M371.239,55.544c0,0.156-0.126,0.282-0.282,0.282h-1.109c-0.156,0-0.282-0.126-0.282-0.282v-0.022
					c0-0.156,0.126-0.282,0.282-0.282h1.109c0.156,0,0.282,0.126,0.282,0.282V55.544z"/>
				<path fill="#F59021" d="M371.239,55.574c0,0.164-0.127,0.264-0.333,0.252h-0.671V55.24h0.671
					c0.258-0.01,0.333,0.118,0.333,0.282V55.574z"/>
				<path fill="#333333" d="M370.72,46.594c0,0-2.098,1.636-2.088,5.1c0,0,0.332,0.022,0.351-0.141
					C369.305,48.808,370.464,47.438,370.72,46.594z"/>
				<path fill="#959595" d="M368.896,55.414c0,0.089-0.072,0.161-0.161,0.161h-0.012c-0.089,0-0.161-0.072-0.161-0.161v-2.355
					c0-0.089,0.072-0.161,0.161-0.161h0.012c0.089,0,0.161,0.072,0.161,0.161V55.414z"/>
				<path fill="#666666" d="M372.661,56.381c0,0.156-0.126,0.282-0.282,0.282h-3.786c-0.156,0-0.282-0.126-0.282-0.282v-0.022
					c0-0.156,0.126-0.282,0.282-0.282h3.786c0.156,0,0.282,0.126,0.282,0.282V56.381z"/>
				<path fill="#A2C36E" d="M370.705,46.54c0,0,0.648-3.203,6.52-3.188c0,0,0.166,2.332-0.09,2.768c0,0-0.196,0.419-0.437,0.419
					S370.705,46.54,370.705,46.54z"/>
				<g>
					<circle fill="#333333" cx="375.253" cy="56.518" r="2.063"/>
					<g>
						<circle fill="#C9C9C8" cx="375.253" cy="56.518" r="1.34"/>
						<circle fill="#E3E3E3" stroke="#333333" stroke-miterlimit="10" cx="375.253" cy="56.518" r="0.392"/>
						<rect x="374.92" y="55.408" fill="#333333" width="0.669" height="0.167"/>
						<rect x="374.92" y="57.499" fill="#333333" width="0.669" height="0.167"/>
						<rect x="376.091" y="56.244" fill="#333333" width="0.167" height="0.586"/>
						<rect x="374.167" y="56.244" fill="#333333" width="0.167" height="0.586"/>
					</g>
				</g>
				<rect x="380.357" y="55.491" fill="#808080" width="19.826" height="0.586"/>
				<g>
					<circle fill="#333333" cx="391.954" cy="56.518" r="2.063"/>
					<g>
						<circle fill="#C9C9C8" cx="391.954" cy="56.518" r="1.34"/>
						<circle fill="#E3E3E3" stroke="#333333" stroke-miterlimit="10" cx="391.954" cy="56.518" r="0.392"/>
						<rect x="391.651" y="55.408" fill="#333333" width="0.586" height="0.167"/>
						<rect x="391.651" y="57.499" fill="#333333" width="0.586" height="0.167"/>
						<rect x="392.822" y="56.244" fill="#333333" width="0.167" height="0.586"/>
						<rect x="390.898" y="56.244" fill="#333333" width="0.167" height="0.586"/>
					</g>
				</g>
				<g>
					<circle fill="#333333" cx="396.973" cy="56.518" r="2.063"/>
					<g>
						<circle fill="#C9C9C8" cx="396.973" cy="56.518" r="1.34"/>
						<circle fill="#E3E3E3" stroke="#333333" stroke-miterlimit="10" cx="396.973" cy="56.518" r="0.392"/>
						<rect x="396.67" y="55.408" fill="#333333" width="0.586" height="0.167"/>
						<rect x="396.67" y="57.499" fill="#333333" width="0.586" height="0.167"/>
						<rect x="397.841" y="56.244" fill="#333333" width="0.167" height="0.586"/>
						<rect x="395.917" y="56.244" fill="#333333" width="0.167" height="0.586"/>
					</g>
				</g>
				<g>
					<circle fill="#333333" cx="401.909" cy="56.518" r="2.063"/>
					<g>
						<circle fill="#C9C9C8" cx="401.909" cy="56.518" r="1.34"/>
						<circle fill="#E3E3E3" stroke="#333333" stroke-miterlimit="10" cx="401.909" cy="56.518" r="0.392"/>
						<rect x="401.606" y="55.408" fill="#333333" width="0.586" height="0.167"/>
						<rect x="401.606" y="57.499" fill="#333333" width="0.586" height="0.167"/>
						<rect x="402.777" y="56.244" fill="#333333" width="0.167" height="0.586"/>
						<rect x="400.853" y="56.244" fill="#333333" width="0.167" height="0.586"/>
					</g>
				</g>
				<path fill="#666666" d="M371.322,52.078c0,0.083-0.067,0.151-0.151,0.151h-0.786c-0.083,0-0.151-0.067-0.151-0.151v-0.033
					c0-0.083,0.067-0.151,0.151-0.151h0.786c0.083,0,0.151,0.067,0.151,0.151V52.078z"/>
				<rect x="379.688" y="55.24" fill="#666666" width="3.095" height="1.338"/>
				<g>
					<path fill="#4E4E4E" d="M373.327,47.126l-0.628,4.032c0.865-0.169,1.517-0.359,2.006-0.519l0.549-3.513H373.327z"/>
				</g>
				<g>
					<rect x="378.517" y="41.939" fill="#D6D6D5" width="31.706" height="12.465"/>
					<g>
						<path fill="#E3E3E3" d="M384.624,52.714c0,0.333-0.27,0.602-0.602,0.602h-3.898c-0.333,0-0.602-0.27-0.602-0.602v-9.42
							c0-0.333,0.27-0.602,0.602-0.602h3.898c0.333,0,0.602,0.27,0.602,0.602V52.714z"/>
						<path fill="#E3E3E3" d="M390.731,52.71c0,0.333-0.27,0.606-0.602,0.606h-3.898c-0.333,0-0.602-0.274-0.602-0.606v-9.42
							c0-0.333,0.27-0.598,0.602-0.598h3.898c0.333,0,0.602,0.266,0.602,0.598V52.71z"/>
						<path fill="#E3E3E3" d="M397.005,52.714c0,0.333-0.27,0.602-0.602,0.602h-3.898c-0.333,0-0.602-0.27-0.602-0.602v-9.42
							c0-0.333,0.27-0.602,0.602-0.602h3.898c0.333,0,0.602,0.27,0.602,0.602V52.714z"/>
					</g>
					<g>
						<path fill="#E3E3E3" d="M409.219,52.71c0,0.333-0.27,0.606-0.602,0.606h-3.898c-0.333,0-0.602-0.274-0.602-0.606v-9.42
							c0-0.333,0.27-0.598,0.602-0.598h3.898c0.333,0,0.602,0.266,0.602,0.598V52.71z"/>
					</g>
					<rect x="379.186" y="53.651" fill="#E3E3E3" width="30.367" height="0.418"/>
					<path fill="#F59021" d="M379.604,42.364c0,0.089-0.072,0.161-0.161,0.161h-0.515c-0.089,0-0.161-0.072-0.161-0.161v-0.013
						c0-0.089,0.072-0.161,0.161-0.161h0.515c0.089,0,0.161,0.072,0.161,0.161V42.364z"/>
					<path fill="#F59021" d="M409.888,42.364c0,0.089-0.072,0.161-0.161,0.161h-0.515c-0.089,0-0.161-0.072-0.161-0.161v-0.013
						c0-0.089,0.072-0.161,0.161-0.161h0.515c0.089,0,0.161,0.072,0.161,0.161V42.364z"/>
					<g>
						<path fill="#E3E3E3" d="M403.112,52.71c0,0.333-0.27,0.606-0.602,0.606h-3.898c-0.333,0-0.602-0.274-0.602-0.606v-9.42
							c0-0.333,0.27-0.598,0.602-0.598h3.898c0.333,0,0.602,0.266,0.602,0.598V52.71z"/>
					</g>
				</g>
				<rect x="385.377" y="55.073" fill="#B0B0B0" width="2.51" height="0.753"/>
				<rect x="385.377" y="55.826" fill="#333333" width="2.51" height="0.753"/>
			</g>
			<g>
				<path fill="#AE3F42" d="M382.863,43.646h0.558l0.335,1.303h-0.535l-0.05-0.268h-0.87l-0.267,0.268h-0.517L382.863,43.646z
					 M382.52,44.457h0.6l-0.099-0.513L382.52,44.457z"/>
				<path fill="#AE3F42" d="M386.289,43.771c0.039,0.033,0.065,0.069,0.079,0.109c0.015,0.04,0.013,0.086-0.007,0.137
					c-0.024,0.062-0.076,0.123-0.156,0.183s-0.189,0.103-0.329,0.127c0.099,0.024,0.163,0.059,0.191,0.103
					c0.028,0.045,0.024,0.113-0.011,0.204l-0.033,0.088c-0.022,0.06-0.034,0.1-0.034,0.121c0,0.033,0.021,0.058,0.062,0.074
					l-0.012,0.032h-0.544c-0.004-0.029-0.006-0.052-0.006-0.069c0.001-0.037,0.009-0.074,0.022-0.112l0.043-0.121
					c0.03-0.083,0.024-0.139-0.019-0.166c-0.042-0.028-0.136-0.042-0.281-0.042h-0.51l-0.195,0.511h-0.482l0.502-1.303h1.159
					c0.164,0.002,0.287,0.014,0.368,0.034S386.242,43.731,386.289,43.771z M384.963,43.873l-0.135,0.35h0.56
					c0.111,0,0.197-0.007,0.259-0.021c0.107-0.025,0.176-0.074,0.205-0.147c0.03-0.078,0.003-0.132-0.082-0.158
					c-0.048-0.016-0.125-0.023-0.232-0.023H384.963z"/>
				<path fill="#AE3F42" d="M388.496,43.646h0.71l-0.501,1.303h-0.461l0.339-0.881c0.011-0.025,0.025-0.061,0.044-0.106
					s0.032-0.081,0.041-0.105l-0.867,1.093h-0.479l-0.024-1.093c-0.009,0.024-0.021,0.06-0.038,0.105s-0.03,0.081-0.04,0.106
					l-0.339,0.881h-0.46l0.502-1.303h0.718l0.034,1.024L388.496,43.646z"/>
				<path fill="#AE3F42" d="M390.342,43.646h0.558l0.335,1.303h-0.535l-0.05-0.268h-0.87l-0.267,0.268h-0.517L390.342,43.646z
					 M389.999,44.457h0.6l-0.099-0.513L389.999,44.457z"/>
				<path fill="#AE3F42" d="M392.046,44.547c-0.008,0.06,0.005,0.104,0.037,0.134c0.06,0.054,0.187,0.08,0.381,0.08
					c0.117,0,0.214-0.007,0.292-0.021c0.148-0.027,0.237-0.078,0.265-0.151c0.018-0.043-0.004-0.076-0.064-0.1
					c-0.059-0.023-0.158-0.044-0.298-0.062l-0.239-0.03c-0.233-0.031-0.391-0.064-0.471-0.101c-0.136-0.06-0.18-0.153-0.13-0.281
					c0.045-0.117,0.159-0.214,0.343-0.291s0.425-0.115,0.724-0.115c0.249,0,0.447,0.036,0.595,0.108
					c0.147,0.073,0.198,0.179,0.153,0.317h-0.475c0.022-0.079-0.018-0.135-0.12-0.167c-0.068-0.022-0.159-0.033-0.274-0.033
					c-0.127,0-0.234,0.015-0.321,0.043s-0.14,0.067-0.159,0.118c-0.019,0.046,0.006,0.081,0.072,0.104
					c0.041,0.015,0.137,0.033,0.287,0.054l0.386,0.054c0.169,0.023,0.292,0.055,0.367,0.095c0.118,0.062,0.154,0.149,0.109,0.266
					c-0.046,0.119-0.167,0.218-0.362,0.297c-0.195,0.078-0.444,0.117-0.746,0.117c-0.308,0-0.534-0.038-0.681-0.116
					c-0.146-0.077-0.193-0.184-0.142-0.319H392.046z"/>
			</g>
			<polygon points="381.432,45.164 380.382,46.08 410.222,46.08 410.222,45.164 			"/>
			<g>
				<path fill="#FFFFFF" d="M381.579,45.384v0.373h0.223v0.084h-0.323v-0.457H381.579z"/>
				<path fill="#FFFFFF" d="M382.237,45.519c0.01-0.029,0.024-0.055,0.044-0.076c0.019-0.022,0.043-0.039,0.07-0.052
					c0.028-0.012,0.06-0.019,0.095-0.019s0.066,0.007,0.095,0.019c0.027,0.013,0.051,0.029,0.07,0.052
					c0.019,0.021,0.033,0.047,0.044,0.076c0.01,0.029,0.016,0.061,0.016,0.095c0,0.033-0.006,0.064-0.016,0.093
					c-0.011,0.029-0.025,0.055-0.044,0.075c-0.02,0.021-0.043,0.038-0.07,0.051c-0.028,0.012-0.06,0.018-0.095,0.018
					s-0.066-0.006-0.095-0.018c-0.027-0.013-0.052-0.029-0.07-0.051c-0.02-0.021-0.034-0.046-0.044-0.075
					c-0.011-0.028-0.016-0.06-0.016-0.093C382.222,45.58,382.226,45.549,382.237,45.519z M382.329,45.67
					c0.004,0.019,0.011,0.035,0.021,0.05c0.01,0.014,0.022,0.025,0.038,0.034s0.035,0.014,0.058,0.014s0.042-0.005,0.058-0.014
					s0.028-0.021,0.038-0.034c0.01-0.015,0.017-0.031,0.021-0.05c0.004-0.018,0.007-0.036,0.007-0.056s-0.003-0.039-0.007-0.058
					c-0.005-0.02-0.012-0.036-0.021-0.051s-0.022-0.026-0.038-0.035s-0.035-0.013-0.058-0.013s-0.042,0.004-0.058,0.013
					s-0.028,0.021-0.038,0.035c-0.011,0.015-0.018,0.031-0.021,0.051c-0.005,0.019-0.007,0.038-0.007,0.058
					S382.324,45.652,382.329,45.67z"/>
				<path fill="#FFFFFF" d="M383.393,45.837c-0.021,0.01-0.044,0.014-0.065,0.014c-0.035,0-0.066-0.006-0.095-0.018
					c-0.027-0.013-0.052-0.029-0.07-0.051c-0.02-0.021-0.034-0.046-0.044-0.075c-0.011-0.028-0.016-0.06-0.016-0.093
					c0-0.034,0.005-0.065,0.016-0.095c0.01-0.029,0.024-0.055,0.044-0.076c0.019-0.022,0.043-0.039,0.07-0.052
					c0.028-0.012,0.06-0.019,0.095-0.019c0.023,0,0.046,0.004,0.067,0.011c0.022,0.007,0.042,0.018,0.06,0.031
					s0.032,0.03,0.044,0.051c0.012,0.02,0.019,0.043,0.021,0.068h-0.096c-0.007-0.025-0.018-0.045-0.035-0.058
					c-0.017-0.013-0.037-0.019-0.062-0.019c-0.022,0-0.042,0.004-0.058,0.013s-0.028,0.021-0.038,0.035
					c-0.011,0.015-0.018,0.031-0.021,0.051c-0.005,0.019-0.007,0.038-0.007,0.058s0.002,0.038,0.007,0.056
					c0.004,0.019,0.011,0.035,0.021,0.05c0.01,0.014,0.022,0.025,0.038,0.034s0.035,0.014,0.058,0.014
					c0.033,0,0.059-0.009,0.077-0.025c0.018-0.017,0.028-0.041,0.031-0.073h-0.101v-0.075h0.191v0.247h-0.063l-0.011-0.052
					C383.435,45.812,383.415,45.828,383.393,45.837z"/>
				<path fill="#FFFFFF" d="M384.092,45.384v0.457h-0.101v-0.457H384.092z"/>
				<path fill="#FFFFFF" d="M384.642,45.728c0.005,0.011,0.013,0.02,0.021,0.025c0.01,0.007,0.021,0.012,0.032,0.015
					c0.013,0.004,0.025,0.005,0.039,0.005c0.009,0,0.019-0.001,0.028-0.002c0.011-0.002,0.02-0.005,0.029-0.009
					c0.009-0.004,0.016-0.01,0.022-0.018c0.006-0.008,0.009-0.017,0.009-0.028c0-0.013-0.004-0.022-0.012-0.03
					s-0.019-0.014-0.031-0.019c-0.013-0.006-0.027-0.01-0.044-0.014c-0.016-0.004-0.032-0.009-0.049-0.013
					c-0.018-0.005-0.034-0.01-0.05-0.016c-0.017-0.007-0.031-0.015-0.044-0.024s-0.022-0.022-0.03-0.037
					c-0.009-0.015-0.013-0.032-0.013-0.053c0-0.023,0.006-0.044,0.016-0.062c0.01-0.017,0.022-0.031,0.039-0.043
					s0.034-0.02,0.055-0.025s0.041-0.009,0.062-0.009c0.024,0,0.047,0.003,0.069,0.008c0.021,0.006,0.041,0.015,0.059,0.026
					c0.017,0.012,0.03,0.027,0.04,0.046s0.016,0.041,0.016,0.067h-0.098c-0.001-0.014-0.004-0.025-0.009-0.034
					s-0.012-0.016-0.02-0.021c-0.008-0.006-0.018-0.009-0.027-0.012c-0.011-0.002-0.022-0.003-0.034-0.003
					c-0.009,0-0.017,0.001-0.024,0.003s-0.016,0.005-0.022,0.009s-0.012,0.01-0.016,0.016c-0.005,0.007-0.007,0.015-0.007,0.024
					c0,0.009,0.002,0.017,0.005,0.022c0.004,0.005,0.011,0.01,0.021,0.015s0.023,0.01,0.041,0.015
					c0.019,0.004,0.041,0.011,0.069,0.018c0.009,0.002,0.021,0.005,0.036,0.009c0.015,0.005,0.03,0.012,0.045,0.021
					s0.027,0.023,0.039,0.04c0.011,0.016,0.016,0.037,0.016,0.062c0,0.021-0.004,0.04-0.012,0.059
					c-0.008,0.018-0.021,0.033-0.036,0.046c-0.017,0.014-0.036,0.023-0.06,0.03c-0.023,0.008-0.051,0.011-0.082,0.011
					c-0.025,0-0.05-0.003-0.073-0.009s-0.045-0.016-0.062-0.029c-0.019-0.013-0.033-0.03-0.044-0.051
					c-0.01-0.02-0.016-0.044-0.015-0.072h0.097C384.633,45.705,384.636,45.717,384.642,45.728z"/>
				<path fill="#FFFFFF" d="M385.327,45.468v-0.085h0.374v0.085h-0.138v0.372h-0.1v-0.372H385.327z"/>
				<path fill="#FFFFFF" d="M386.237,45.384v0.457h-0.101v-0.457H386.237z"/>
				<path fill="#FFFFFF" d="M387.003,45.506c-0.006-0.01-0.014-0.018-0.022-0.025c-0.009-0.007-0.019-0.013-0.03-0.017
					c-0.011-0.004-0.023-0.006-0.035-0.006c-0.022,0-0.042,0.004-0.058,0.013s-0.028,0.021-0.038,0.035
					c-0.011,0.015-0.018,0.031-0.021,0.051c-0.005,0.019-0.007,0.038-0.007,0.058s0.002,0.038,0.007,0.056
					c0.004,0.019,0.011,0.035,0.021,0.05c0.01,0.014,0.022,0.025,0.038,0.034s0.035,0.014,0.058,0.014
					c0.03,0,0.055-0.01,0.071-0.028c0.018-0.019,0.028-0.044,0.032-0.074h0.097c-0.002,0.028-0.009,0.055-0.02,0.077
					c-0.011,0.023-0.024,0.043-0.042,0.059c-0.018,0.017-0.038,0.029-0.062,0.037c-0.023,0.009-0.049,0.013-0.077,0.013
					c-0.035,0-0.066-0.006-0.095-0.018c-0.027-0.013-0.052-0.029-0.07-0.051c-0.02-0.021-0.034-0.046-0.044-0.075
					c-0.011-0.028-0.016-0.06-0.016-0.093c0-0.034,0.005-0.065,0.016-0.095c0.01-0.029,0.024-0.055,0.044-0.076
					c0.019-0.022,0.043-0.039,0.07-0.052c0.028-0.012,0.06-0.019,0.095-0.019c0.024,0,0.049,0.004,0.071,0.011
					c0.022,0.008,0.042,0.019,0.06,0.032s0.032,0.031,0.044,0.052s0.019,0.044,0.021,0.07h-0.097
					C387.013,45.526,387.009,45.515,387.003,45.506z"/>
				<path fill="#FFFFFF" d="M388.206,45.728c0.005,0.011,0.013,0.02,0.021,0.025c0.01,0.007,0.021,0.012,0.032,0.015
					c0.013,0.004,0.025,0.005,0.039,0.005c0.009,0,0.019-0.001,0.028-0.002c0.011-0.002,0.02-0.005,0.029-0.009
					c0.009-0.004,0.016-0.01,0.022-0.018c0.006-0.008,0.009-0.017,0.009-0.028c0-0.013-0.004-0.022-0.012-0.03
					s-0.019-0.014-0.031-0.019c-0.013-0.006-0.027-0.01-0.044-0.014c-0.016-0.004-0.032-0.009-0.049-0.013
					c-0.018-0.005-0.034-0.01-0.05-0.016c-0.017-0.007-0.031-0.015-0.044-0.024s-0.022-0.022-0.03-0.037
					c-0.009-0.015-0.013-0.032-0.013-0.053c0-0.023,0.006-0.044,0.016-0.062c0.01-0.017,0.022-0.031,0.039-0.043
					s0.034-0.02,0.055-0.025s0.041-0.009,0.062-0.009c0.024,0,0.047,0.003,0.069,0.008c0.021,0.006,0.041,0.015,0.059,0.026
					c0.017,0.012,0.03,0.027,0.04,0.046s0.016,0.041,0.016,0.067h-0.098c-0.001-0.014-0.004-0.025-0.009-0.034
					s-0.012-0.016-0.02-0.021c-0.008-0.006-0.018-0.009-0.027-0.012c-0.011-0.002-0.022-0.003-0.034-0.003
					c-0.009,0-0.017,0.001-0.024,0.003s-0.016,0.005-0.022,0.009s-0.012,0.01-0.016,0.016c-0.005,0.007-0.007,0.015-0.007,0.024
					c0,0.009,0.002,0.017,0.005,0.022c0.004,0.005,0.011,0.01,0.021,0.015s0.023,0.01,0.041,0.015
					c0.019,0.004,0.041,0.011,0.069,0.018c0.009,0.002,0.021,0.005,0.036,0.009c0.015,0.005,0.03,0.012,0.045,0.021
					s0.027,0.023,0.039,0.04c0.011,0.016,0.016,0.037,0.016,0.062c0,0.021-0.004,0.04-0.012,0.059
					c-0.008,0.018-0.021,0.033-0.036,0.046c-0.017,0.014-0.036,0.023-0.06,0.03c-0.023,0.008-0.051,0.011-0.082,0.011
					c-0.025,0-0.05-0.003-0.073-0.009s-0.045-0.016-0.062-0.029c-0.019-0.013-0.033-0.03-0.044-0.051
					c-0.01-0.02-0.016-0.044-0.015-0.072h0.097C388.197,45.705,388.2,45.717,388.206,45.728z"/>
				<path fill="#FFFFFF" d="M389.268,45.384v0.085h-0.241v0.098h0.222v0.078h-0.222v0.112h0.246v0.084h-0.347v-0.457H389.268z"/>
				<path fill="#FFFFFF" d="M389.972,45.384c0.021,0,0.039,0.004,0.056,0.011c0.017,0.006,0.03,0.016,0.042,0.026
					c0.012,0.012,0.021,0.025,0.027,0.04c0.006,0.016,0.009,0.032,0.009,0.049c0,0.027-0.006,0.051-0.017,0.07
					c-0.012,0.02-0.03,0.034-0.056,0.045v0.001c0.013,0.003,0.022,0.009,0.031,0.016c0.008,0.007,0.015,0.016,0.02,0.025
					c0.005,0.009,0.009,0.02,0.011,0.031c0.003,0.012,0.004,0.023,0.005,0.034c0.001,0.008,0.001,0.016,0.002,0.026
					c0,0.01,0.001,0.02,0.002,0.029c0.001,0.011,0.003,0.021,0.005,0.029s0.006,0.017,0.011,0.023h-0.101
					c-0.006-0.015-0.009-0.032-0.01-0.052c-0.002-0.021-0.004-0.039-0.006-0.058c-0.004-0.023-0.011-0.041-0.022-0.053
					c-0.011-0.011-0.028-0.017-0.054-0.017h-0.101v0.179h-0.101v-0.457H389.972z M389.936,45.591c0.022,0,0.04-0.005,0.052-0.016
					c0.011-0.01,0.017-0.026,0.017-0.05c0-0.022-0.006-0.038-0.017-0.048c-0.012-0.011-0.029-0.016-0.052-0.016h-0.11v0.129H389.936
					z"/>
				<path fill="#FFFFFF" d="M390.659,45.841l-0.148-0.457h0.104l0.102,0.321h0.001l0.104-0.321h0.104l-0.151,0.457H390.659z"/>
				<path fill="#FFFFFF" d="M391.446,45.384v0.457h-0.101v-0.457H391.446z"/>
				<path fill="#FFFFFF" d="M392.211,45.506c-0.006-0.01-0.014-0.018-0.022-0.025c-0.009-0.007-0.019-0.013-0.03-0.017
					c-0.011-0.004-0.023-0.006-0.035-0.006c-0.022,0-0.042,0.004-0.058,0.013s-0.028,0.021-0.038,0.035
					c-0.011,0.015-0.018,0.031-0.021,0.051c-0.005,0.019-0.007,0.038-0.007,0.058s0.002,0.038,0.007,0.056
					c0.004,0.019,0.011,0.035,0.021,0.05c0.01,0.014,0.022,0.025,0.038,0.034s0.035,0.014,0.058,0.014
					c0.03,0,0.055-0.01,0.071-0.028c0.018-0.019,0.028-0.044,0.032-0.074h0.097c-0.002,0.028-0.009,0.055-0.02,0.077
					c-0.011,0.023-0.024,0.043-0.042,0.059c-0.018,0.017-0.038,0.029-0.062,0.037c-0.023,0.009-0.049,0.013-0.077,0.013
					c-0.035,0-0.066-0.006-0.095-0.018c-0.027-0.013-0.052-0.029-0.07-0.051c-0.02-0.021-0.034-0.046-0.044-0.075
					c-0.011-0.028-0.016-0.06-0.016-0.093c0-0.034,0.005-0.065,0.016-0.095c0.01-0.029,0.024-0.055,0.044-0.076
					c0.019-0.022,0.043-0.039,0.07-0.052c0.028-0.012,0.06-0.019,0.095-0.019c0.024,0,0.049,0.004,0.071,0.011
					c0.022,0.008,0.042,0.019,0.06,0.032s0.032,0.031,0.044,0.052s0.019,0.044,0.021,0.07h-0.097
					C392.221,45.526,392.217,45.515,392.211,45.506z"/>
				<path fill="#FFFFFF" d="M393.117,45.384v0.085h-0.241v0.098h0.222v0.078h-0.222v0.112h0.246v0.084h-0.347v-0.457H393.117z"/>
			</g>
		</g>
		<ellipse opacity="0.3" fill="#232020" cx="389.791" cy="58.238" rx="20.978" ry="0.361"/>
	</g>
	<g>
		<g>
			<rect x="325.529" y="19.429" fill="#B5B5B5" width="7.364" height="22.937"/>
			<rect x="324.521" y="12.804" fill="#E5E4E4" width="9.216" height="6.624"/>
			<polygon fill="#868686" points="332.893,22.821 327.469,22.821 325.529,19.429 332.893,19.429 			"/>
		</g>
		<g>
			<rect x="294.966" y="19.501" fill="#B5B5B5" width="7.364" height="22.865"/>
			<rect x="293.958" y="12.897" fill="#E5E4E4" width="9.216" height="6.603"/>
			<polygon fill="#868686" points="302.329,22.882 296.905,22.882 294.966,19.501 302.329,19.501 			"/>
		</g>
		<polygon fill="#FDEDDF" points="342.518,73.636 342.518,47.314 312.074,27.176 312.074,47.155 281.154,27.176 281.312,47.151 
			250.868,27.176 250.868,73.636 		"/>
		<polygon fill="#B7AFA7" points="342.518,48.583 342.518,45.728 311.915,26.225 312.074,28.92 		"/>
		<polygon fill="#B7AFA7" points="312.074,48.464 312.074,45.57 281.312,26.225 281.312,28.603 		"/>
		<polygon fill="#B7AFA7" points="281.312,45.728 281.312,48.583 250.868,28.92 250.868,26.225 		"/>
		<linearGradient id="SVGID_14_" gradientUnits="userSpaceOnUse" x1="250.8677" y1="34.2589" x2="281.312" y2="34.2589">
			<stop  offset="0.0816" style="stop-color:#931A21"/>
			<stop  offset="0.2092" style="stop-color:#9F1E25"/>
			<stop  offset="0.7092" style="stop-color:#721817"/>
			<stop  offset="0.9133" style="stop-color:#640C0D"/>
		</linearGradient>
		<polygon fill="url(#SVGID_14_)" points="250.868,26.225 250.868,22.789 281.274,42.363 281.312,45.728 		"/>
		<linearGradient id="SVGID_15_" gradientUnits="userSpaceOnUse" x1="281.312" y1="34.1795" x2="312.0736" y2="34.1795">
			<stop  offset="0.0816" style="stop-color:#931A21"/>
			<stop  offset="0.2092" style="stop-color:#9F1E25"/>
			<stop  offset="0.7092" style="stop-color:#721817"/>
			<stop  offset="0.9133" style="stop-color:#640C0D"/>
		</linearGradient>
		<polygon fill="url(#SVGID_15_)" points="281.312,26.225 281.312,22.789 312.074,42.555 312.074,45.57 		"/>
		<linearGradient id="SVGID_16_" gradientUnits="userSpaceOnUse" x1="311.9149" y1="34.2589" x2="342.5182" y2="34.2589">
			<stop  offset="0.0816" style="stop-color:#931A21"/>
			<stop  offset="0.2092" style="stop-color:#9F1E25"/>
			<stop  offset="0.7092" style="stop-color:#721817"/>
			<stop  offset="0.9133" style="stop-color:#640C0D"/>
		</linearGradient>
		<polygon fill="url(#SVGID_16_)" points="311.998,22.789 311.915,26.225 342.518,45.728 342.518,42.555 		"/>
		<g>
			<rect x="314.09" y="38.884" fill="#FFFFFF" width="7.784" height="3.118"/>
			<rect x="315.033" y="39.803" fill="#383838" width="6.189" height="1.184"/>
		</g>
		<g>
			<rect x="283.425" y="38.884" fill="#FFFFFF" width="7.784" height="3.118"/>
			<rect x="284.368" y="39.803" fill="#383838" width="6.189" height="1.184"/>
		</g>
		<g>
			<rect x="252.862" y="38.884" fill="#FFFFFF" width="7.784" height="3.118"/>
			<rect x="253.805" y="39.803" fill="#383838" width="6.189" height="1.184"/>
		</g>
		<g>
			<rect x="280.942" y="57.753" fill="#5D5D5D" width="33.511" height="15.883"/>
			<rect x="280.942" y="56.399" fill="#3F3E3E" width="33.511" height="2.707"/>
		</g>
		<polygon fill="#B7AFA7" points="333.583,56.399 342.518,65.422 342.518,73.636 333.583,73.636 		"/>
		<g>
			<rect x="316.466" y="59.106" fill="#FFFFFF" width="16.109" height="10.964"/>
			<rect x="317.647" y="60.287" fill="#757575" width="2.577" height="8.575"/>
			<rect x="321.419" y="60.287" fill="#757575" width="2.577" height="8.575"/>
			<rect x="324.998" y="60.287" fill="#757575" width="2.577" height="8.575"/>
			<rect x="328.729" y="60.301" fill="#757575" width="2.577" height="8.575"/>
		</g>
		<rect x="243.515" y="47.646" fill="#757575" width="25.723" height="25.99"/>
		<rect x="261.644" y="47.646" fill="#393B39" width="7.593" height="25.99"/>
		<rect x="250.868" y="47.646" fill="#393B39" width="3.563" height="25.99"/>
		<rect x="243.515" y="65.68" opacity="0.3" width="25.723" height="7.956"/>
		<rect x="243.515" y="44.105" fill="#ABABAB" width="25.723" height="3.541"/>
		<g>
			<rect x="244.643" y="44.967" fill="#E5E4E4" width="2.529" height="2.678"/>
			<rect x="248.148" y="44.967" fill="#E5E4E4" width="2.53" height="2.678"/>
			<rect x="251.673" y="44.967" fill="#E5E4E4" width="2.529" height="2.678"/>
			<rect x="255.111" y="44.967" fill="#E5E4E4" width="2.53" height="2.678"/>
			<rect x="258.728" y="44.967" fill="#E5E4E4" width="2.53" height="2.678"/>
			<rect x="262.293" y="44.967" fill="#E5E4E4" width="2.53" height="2.678"/>
			<rect x="265.685" y="44.967" fill="#E5E4E4" width="2.53" height="2.678"/>
		</g>
		<polygon fill-opacity="0.2" points="269.238,44.105 298.566,73.674 269.238,73.674 		"/>
		<rect x="280.942" y="60.206" fill="#A4A7A9" width="33.511" height="1.32"/>
		<rect x="280.942" y="63.007" fill="#A4A7A9" width="33.511" height="1.32"/>
		<rect x="280.942" y="65.807" fill="#A4A7A9" width="33.511" height="1.32"/>
		<rect x="280.942" y="68.608" fill="#A4A7A9" width="33.511" height="1.32"/>
		<rect x="280.942" y="71.409" fill="#A4A7A9" width="33.511" height="1.32"/>
		<g>
			<linearGradient id="SVGID_17_" gradientUnits="userSpaceOnUse" x1="277.5957" y1="55.0371" x2="297.6979" y2="55.0371">
				<stop  offset="0.0816" style="stop-color:#931A21"/>
				<stop  offset="0.2092" style="stop-color:#9F1E25"/>
				<stop  offset="0.7092" style="stop-color:#721817"/>
				<stop  offset="0.9133" style="stop-color:#640C0D"/>
			</linearGradient>
			<rect x="277.596" y="53.675" fill="url(#SVGID_17_)" width="20.102" height="2.725"/>
			<linearGradient id="SVGID_18_" gradientUnits="userSpaceOnUse" x1="297.6979" y1="55.0371" x2="317.8001" y2="55.0371">
				<stop  offset="0.0816" style="stop-color:#931A21"/>
				<stop  offset="0.2092" style="stop-color:#9F1E25"/>
				<stop  offset="0.7092" style="stop-color:#721817"/>
				<stop  offset="0.9133" style="stop-color:#640C0D"/>
			</linearGradient>
			<rect x="297.698" y="53.675" fill="url(#SVGID_18_)" width="20.102" height="2.725"/>
		</g>
	</g>
	<g>
		<rect x="83.514" y="20.777" fill="#B6B7B7" width="15.767" height="13.17"/>
		<rect x="108.816" y="11.25" fill="#B6B7B7" width="8.67" height="13.927"/>
		<rect x="78.232" y="62.746" fill="#B5B5B5" width="88.023" height="6.036"/>
		<polygon fill="#FDEDDF" points="78.232,62.746 78.232,36.589 122.164,20.028 166.281,36.434 166.281,62.746 		"/>
		<polygon fill="#B7AFA7" points="78.232,38.136 122.257,21.885 166.255,38.136 166.281,33.029 122.257,16.932 78.232,32.719 		"/>
		<linearGradient id="SVGID_19_" gradientUnits="userSpaceOnUse" x1="75.094" y1="25.4247" x2="169.2348" y2="25.4247">
			<stop  offset="0.0816" style="stop-color:#931A21"/>
			<stop  offset="0.2092" style="stop-color:#9F1E25"/>
			<stop  offset="0.7092" style="stop-color:#721817"/>
			<stop  offset="0.9133" style="stop-color:#640C0D"/>
		</linearGradient>
		<polygon fill="url(#SVGID_19_)" points="75.094,36.124 122.257,18.635 169.235,36.124 169.235,32.255 122.257,14.725 
			75.094,32.255 		"/>
		<rect x="100.711" y="43.411" fill="#5D5D5D" width="43.375" height="19.335"/>
		<polygon fill="#FFFFFF" points="91.146,68.782 101.194,62.746 144.051,62.746 153.316,68.782 		"/>
		<rect x="108.032" y="7.292" fill="#EEEFEF" width="10.392" height="5.246"/>
		<polygon fill="#858886" points="108.816,12.537 111.002,14.725 117.485,14.725 117.485,12.537 		"/>
		<g>
			<rect x="89.785" y="0" fill="#9E9C9C" width="2.549" height="20.777"/>
			<rect x="92.334" y="0" fill="#888887" width="2.697" height="20.777"/>
		</g>
		<g>
			<linearGradient id="SVGID_20_" gradientUnits="userSpaceOnUse" x1="95.0303" y1="41.1472" x2="122.0662" y2="41.1472">
				<stop  offset="0.0816" style="stop-color:#931A21"/>
				<stop  offset="0.2092" style="stop-color:#9F1E25"/>
				<stop  offset="0.7092" style="stop-color:#721817"/>
				<stop  offset="0.9133" style="stop-color:#640C0D"/>
			</linearGradient>
			<rect x="95.03" y="38.768" fill="url(#SVGID_20_)" width="27.036" height="4.758"/>
			<linearGradient id="SVGID_21_" gradientUnits="userSpaceOnUse" x1="122.0662" y1="41.1472" x2="149.1021" y2="41.1472">
				<stop  offset="0.0816" style="stop-color:#931A21"/>
				<stop  offset="0.2092" style="stop-color:#9F1E25"/>
				<stop  offset="0.7092" style="stop-color:#721817"/>
				<stop  offset="0.9133" style="stop-color:#640C0D"/>
			</linearGradient>
			<rect x="122.066" y="38.768" fill="url(#SVGID_21_)" width="27.036" height="4.758"/>
		</g>
		<rect x="100.592" y="48.454" fill="#A4A7A9" width="43.051" height="1.32"/>
		<rect x="100.592" y="51.255" fill="#A4A7A9" width="43.051" height="1.32"/>
		<rect x="100.592" y="54.056" fill="#A4A7A9" width="43.051" height="1.32"/>
		<rect x="100.592" y="56.857" fill="#A4A7A9" width="43.051" height="1.32"/>
		<rect x="100.592" y="59.658" fill="#A4A7A9" width="43.051" height="1.32"/>
		<g>
			<rect x="80.086" y="55.542" fill="#A4A2A2" width="3.768" height="9.528"/>
			<rect x="83.854" y="55.542" fill="#8D8D8C" width="3.768" height="9.528"/>
		</g>
		<g>
			<rect x="88.287" y="55.542" fill="#A4A2A2" width="3.768" height="9.528"/>
			<rect x="92.054" y="55.542" fill="#8D8D8C" width="3.768" height="9.528"/>
		</g>
		<g>
			<rect x="159.839" y="60.617" fill="#A4A2A2" width="1.884" height="4.258"/>
			<rect x="161.724" y="60.617" fill="#8D8D8C" width="3.177" height="4.258"/>
		</g>
		<g>
			<rect x="155.721" y="56.358" fill="#A4A2A2" width="1.884" height="4.258"/>
			<rect x="157.605" y="56.358" fill="#8D8D8C" width="3.177" height="4.258"/>
		</g>
		<g>
			<rect x="153.804" y="60.617" fill="#A4A2A2" width="1.884" height="4.258"/>
			<rect x="155.688" y="60.617" fill="#8D8D8C" width="3.177" height="4.258"/>
		</g>
		<g>
			<rect x="104.463" y="31.995" fill="#5A5A58" width="10.801" height="3.038"/>
			<rect x="105.185" y="32.739" fill="#FFFFFF" width="4.392" height="1.632"/>
			<rect x="110.208" y="32.698" fill="#FFFFFF" width="4.392" height="1.632"/>
		</g>
		<g>
			<rect x="117.619" y="31.995" fill="#5A5A58" width="10.801" height="3.038"/>
			<rect x="118.341" y="32.739" fill="#FFFFFF" width="4.392" height="1.632"/>
			<rect x="123.365" y="32.698" fill="#FFFFFF" width="4.392" height="1.632"/>
		</g>
		<g>
			<rect x="130.977" y="31.995" fill="#5A5A58" width="10.801" height="3.038"/>
			<rect x="131.698" y="32.739" fill="#FFFFFF" width="4.392" height="1.632"/>
			<rect x="136.722" y="32.698" fill="#FFFFFF" width="4.392" height="1.632"/>
		</g>
	</g>
	<g>
		<rect x="395.009" y="124.138" fill="#B6B7B7" width="15.767" height="13.17"/>
		<rect x="420.311" y="114.611" fill="#B6B7B7" width="8.67" height="13.927"/>
		<rect x="389.728" y="166.107" fill="#B5B5B5" width="88.023" height="6.036"/>
		<polygon fill="#FDEDDF" points="389.728,166.107 389.728,139.949 433.66,123.389 477.777,139.795 477.777,166.107 		"/>
		<polygon fill="#B7AFA7" points="389.728,141.497 433.753,125.246 477.751,141.497 477.777,136.39 433.753,120.293 389.728,136.08 
					"/>
		<linearGradient id="SVGID_22_" gradientUnits="userSpaceOnUse" x1="386.5897" y1="128.7857" x2="480.7305" y2="128.7857">
			<stop  offset="0.0816" style="stop-color:#931A21"/>
			<stop  offset="0.2092" style="stop-color:#9F1E25"/>
			<stop  offset="0.7092" style="stop-color:#721817"/>
			<stop  offset="0.9133" style="stop-color:#640C0D"/>
		</linearGradient>
		<polygon fill="url(#SVGID_22_)" points="386.59,139.485 433.753,121.995 480.731,139.485 480.731,135.616 433.753,118.086 
			386.59,135.616 		"/>
		<rect x="412.207" y="146.772" fill="#5D5D5D" width="43.375" height="19.335"/>
		<polygon fill="#FFFFFF" points="402.642,172.143 412.69,166.107 455.547,166.107 464.812,172.143 		"/>
		<rect x="419.528" y="110.653" fill="#EEEFEF" width="10.392" height="5.246"/>
		<polygon fill="#858886" points="420.311,115.898 422.497,118.086 428.981,118.086 428.981,115.898 		"/>
		<g>
			<rect x="401.28" y="103.361" fill="#9E9C9C" width="2.549" height="20.777"/>
			<rect x="403.829" y="103.361" fill="#888887" width="2.697" height="20.777"/>
		</g>
		<g>
			<linearGradient id="SVGID_23_" gradientUnits="userSpaceOnUse" x1="406.5261" y1="144.5081" x2="433.5619" y2="144.5081">
				<stop  offset="0.0816" style="stop-color:#931A21"/>
				<stop  offset="0.2092" style="stop-color:#9F1E25"/>
				<stop  offset="0.7092" style="stop-color:#721817"/>
				<stop  offset="0.9133" style="stop-color:#640C0D"/>
			</linearGradient>
			<rect x="406.526" y="142.129" fill="url(#SVGID_23_)" width="27.036" height="4.758"/>
			<linearGradient id="SVGID_24_" gradientUnits="userSpaceOnUse" x1="433.5619" y1="144.5081" x2="460.5978" y2="144.5081">
				<stop  offset="0.0816" style="stop-color:#931A21"/>
				<stop  offset="0.2092" style="stop-color:#9F1E25"/>
				<stop  offset="0.7092" style="stop-color:#721817"/>
				<stop  offset="0.9133" style="stop-color:#640C0D"/>
			</linearGradient>
			<rect x="433.562" y="142.129" fill="url(#SVGID_24_)" width="27.036" height="4.758"/>
		</g>
		<rect x="412.088" y="151.815" fill="#A4A7A9" width="43.051" height="1.32"/>
		<rect x="412.088" y="154.616" fill="#A4A7A9" width="43.051" height="1.32"/>
		<rect x="412.088" y="157.417" fill="#A4A7A9" width="43.051" height="1.32"/>
		<rect x="412.088" y="160.218" fill="#A4A7A9" width="43.051" height="1.32"/>
		<rect x="412.088" y="163.019" fill="#A4A7A9" width="43.051" height="1.32"/>
		<g>
			<rect x="391.582" y="158.903" fill="#A4A2A2" width="3.768" height="9.528"/>
			<rect x="395.35" y="158.903" fill="#8D8D8C" width="3.768" height="9.528"/>
		</g>
		<g>
			<rect x="399.782" y="158.903" fill="#A4A2A2" width="3.768" height="9.528"/>
			<rect x="403.55" y="158.903" fill="#8D8D8C" width="3.768" height="9.528"/>
		</g>
		<g>
			<rect x="471.335" y="163.978" fill="#A4A2A2" width="1.884" height="4.258"/>
			<rect x="473.22" y="163.978" fill="#8D8D8C" width="3.177" height="4.258"/>
		</g>
		<g>
			<rect x="467.216" y="159.719" fill="#A4A2A2" width="1.884" height="4.258"/>
			<rect x="469.101" y="159.719" fill="#8D8D8C" width="3.177" height="4.258"/>
		</g>
		<g>
			<rect x="465.299" y="163.978" fill="#A4A2A2" width="1.884" height="4.258"/>
			<rect x="467.184" y="163.978" fill="#8D8D8C" width="3.177" height="4.258"/>
		</g>
		<g>
			<rect x="415.959" y="135.356" fill="#5A5A58" width="10.801" height="3.038"/>
			<rect x="416.68" y="136.1" fill="#FFFFFF" width="4.392" height="1.632"/>
			<rect x="421.704" y="136.059" fill="#FFFFFF" width="4.392" height="1.632"/>
		</g>
		<g>
			<rect x="429.115" y="135.356" fill="#5A5A58" width="10.801" height="3.038"/>
			<rect x="429.837" y="136.1" fill="#FFFFFF" width="4.392" height="1.632"/>
			<rect x="434.86" y="136.059" fill="#FFFFFF" width="4.392" height="1.632"/>
		</g>
		<g>
			<rect x="442.472" y="135.356" fill="#5A5A58" width="10.801" height="3.038"/>
			<rect x="443.194" y="136.1" fill="#FFFFFF" width="4.392" height="1.632"/>
			<rect x="448.218" y="136.059" fill="#FFFFFF" width="4.392" height="1.632"/>
		</g>
	</g>
	<polygon fill="#FDEDDF" points="553.479,75.357 553.479,39.293 523.918,22.739 493.766,39.293 464.009,22.739 433.66,39.096 
		433.66,75.357 	"/>
	<polygon fill="#B7AFA7" points="553.479,41.264 553.479,36.14 523.524,19.389 493.569,35.943 463.417,19.389 433.66,35.746 
		433.66,41.264 463.812,24.316 493.569,41.264 523.721,24.316 	"/>
	<g>
		<linearGradient id="SVGID_25_" gradientUnits="userSpaceOnUse" x1="431.2946" y1="28.1584" x2="463.4716" y2="28.1584">
			<stop  offset="0.0816" style="stop-color:#931A21"/>
			<stop  offset="0.2092" style="stop-color:#9F1E25"/>
			<stop  offset="0.7092" style="stop-color:#721817"/>
			<stop  offset="0.9133" style="stop-color:#640C0D"/>
		</linearGradient>
		<polygon fill="url(#SVGID_25_)" points="431.295,35.352 431.295,39.293 463.472,21.304 463.417,17.024 		"/>
		<linearGradient id="SVGID_26_" gradientUnits="userSpaceOnUse" x1="463.4168" y1="27.4687" x2="493.5691" y2="27.4687">
			<stop  offset="0.0816" style="stop-color:#931A21"/>
			<stop  offset="0.2092" style="stop-color:#9F1E25"/>
			<stop  offset="0.7092" style="stop-color:#721817"/>
			<stop  offset="0.9133" style="stop-color:#640C0D"/>
		</linearGradient>
		<polygon fill="url(#SVGID_26_)" points="463.417,17.024 463.472,21.304 493.569,37.913 493.569,33.775 		"/>
		<linearGradient id="SVGID_27_" gradientUnits="userSpaceOnUse" x1="523.5234" y1="28.1584" x2="556.237" y2="28.1584">
			<stop  offset="0.0816" style="stop-color:#931A21"/>
			<stop  offset="0.2092" style="stop-color:#9F1E25"/>
			<stop  offset="0.7092" style="stop-color:#721817"/>
			<stop  offset="0.9133" style="stop-color:#640C0D"/>
		</linearGradient>
		<polygon fill="url(#SVGID_27_)" points="523.523,17.024 523.523,21.359 556.237,39.293 556.237,35.352 		"/>
		<linearGradient id="SVGID_28_" gradientUnits="userSpaceOnUse" x1="493.5691" y1="27.4687" x2="523.5234" y2="27.4687">
			<stop  offset="0.0816" style="stop-color:#931A21"/>
			<stop  offset="0.2092" style="stop-color:#9F1E25"/>
			<stop  offset="0.7092" style="stop-color:#721817"/>
			<stop  offset="0.9133" style="stop-color:#640C0D"/>
		</linearGradient>
		<polygon fill="url(#SVGID_28_)" points="493.569,33.775 493.569,37.913 523.523,21.359 523.523,17.024 		"/>
	</g>
	<rect x="465.585" y="53.821" fill="#454545" width="55.967" height="21.536"/>
	<rect x="463.456" y="54.698" fill="#BAB8B8" width="4.257" height="20.659"/>
	<rect x="520.049" y="54.698" fill="#BAB8B8" width="4.257" height="20.659"/>
	<g>
		<linearGradient id="SVGID_29_" gradientUnits="userSpaceOnUse" x1="460.9517" y1="53.8212" x2="493.8185" y2="53.8212">
			<stop  offset="0.0816" style="stop-color:#931A21"/>
			<stop  offset="0.2092" style="stop-color:#9F1E25"/>
			<stop  offset="0.7092" style="stop-color:#721817"/>
			<stop  offset="0.9133" style="stop-color:#640C0D"/>
		</linearGradient>
		<rect x="460.952" y="51.442" fill="url(#SVGID_29_)" width="32.867" height="4.758"/>
		<linearGradient id="SVGID_30_" gradientUnits="userSpaceOnUse" x1="493.8185" y1="53.8212" x2="526.6854" y2="53.8212">
			<stop  offset="0.0816" style="stop-color:#931A21"/>
			<stop  offset="0.2092" style="stop-color:#9F1E25"/>
			<stop  offset="0.7092" style="stop-color:#721817"/>
			<stop  offset="0.9133" style="stop-color:#640C0D"/>
		</linearGradient>
		<rect x="493.819" y="51.442" fill="url(#SVGID_30_)" width="32.867" height="4.758"/>
	</g>
	<g>
		<rect x="428.942" y="61.128" fill="#C7C7C7" width="4.718" height="14.229"/>
		<rect x="433.66" y="61.128" fill="#A4A2A2" width="4.876" height="14.229"/>
	</g>
	<polygon fill="#B7AFA7" points="438.536,61.128 452.708,75.357 438.536,75.357 	"/>
	<g opacity="0.7">
		<rect x="571.888" y="64.736" fill="#2B388D" width="2.112" height="9.682"/>
		<rect x="564.407" y="61.128" fill="#2B388D" width="2.376" height="10.563"/>
		<rect x="555.956" y="57.783" fill="#2B388D" width="2.201" height="8.626"/>
	</g>
	<linearGradient id="SVGID_31_" gradientUnits="userSpaceOnUse" x1="576.6872" y1="68.9404" x2="553.954" y2="55.8154">
		<stop  offset="0.0816" style="stop-color:#931A21"/>
		<stop  offset="0.2092" style="stop-color:#9F1E25"/>
		<stop  offset="0.7092" style="stop-color:#721817"/>
		<stop  offset="0.9133" style="stop-color:#640C0D"/>
	</linearGradient>
	<polygon fill="url(#SVGID_31_)" points="553.479,56.639 558.509,56.639 577.081,65.529 577.081,68.258 558.069,59.191 
		553.479,59.18 	"/>
	<g>
		<rect x="553.479" y="65.177" fill="#C0A286" width="10.4" height="5.09"/>
		<rect x="553.479" y="70.267" fill="#8E7C67" width="10.4" height="5.09"/>
	</g>
	<polygon fill="#B6B6B6" points="577.081,75.357 563.879,75.357 563.879,69.137 	"/>
	<polygon fill="#B7AFA7" points="526.685,51.442 550.63,75.357 524.306,75.357 524.306,56.2 526.685,56.2 	"/>
	<rect x="467.713" y="61.128" fill="#A4A7A9" width="52.337" height="1.32"/>
	<rect x="467.713" y="63.929" fill="#A4A7A9" width="52.337" height="1.32"/>
	<rect x="467.713" y="66.73" fill="#A4A7A9" width="52.337" height="1.32"/>
	<rect x="467.713" y="69.531" fill="#A4A7A9" width="52.337" height="1.32"/>
	<rect x="467.713" y="72.332" fill="#A4A7A9" width="52.337" height="1.32"/>
	<g>
		<rect x="477.462" y="44.59" fill="#5A5A58" width="10.211" height="2.872"/>
		<rect x="478.144" y="45.294" fill="#FFFFFF" width="4.152" height="1.543"/>
		<rect x="482.894" y="45.255" fill="#FFFFFF" width="4.152" height="1.543"/>
	</g>
	<g>
		<rect x="489.9" y="44.59" fill="#5A5A58" width="10.211" height="2.872"/>
		<rect x="490.582" y="45.294" fill="#FFFFFF" width="4.152" height="1.543"/>
		<rect x="495.332" y="45.255" fill="#FFFFFF" width="4.152" height="1.543"/>
	</g>
	<g>
		<rect x="502.528" y="44.59" fill="#5A5A58" width="10.211" height="2.872"/>
		<rect x="503.21" y="45.294" fill="#FFFFFF" width="4.152" height="1.543"/>
		<rect x="507.96" y="45.255" fill="#FFFFFF" width="4.152" height="1.543"/>
	</g>
	<g>
		<rect x="439.764" y="44.59" fill="#5A5A58" width="10.211" height="2.872"/>
		<rect x="440.446" y="45.294" fill="#FFFFFF" width="4.152" height="1.543"/>
		<rect x="445.196" y="45.255" fill="#FFFFFF" width="4.152" height="1.543"/>
	</g>
	<g>
		<rect x="452.202" y="44.59" fill="#5A5A58" width="10.211" height="2.872"/>
		<rect x="452.884" y="45.294" fill="#FFFFFF" width="4.152" height="1.543"/>
		<rect x="457.634" y="45.255" fill="#FFFFFF" width="4.152" height="1.543"/>
	</g>
	<g>
		<rect x="464.83" y="44.59" fill="#5A5A58" width="10.211" height="2.872"/>
		<rect x="465.512" y="45.294" fill="#FFFFFF" width="4.152" height="1.543"/>
		<rect x="470.262" y="45.255" fill="#FFFFFF" width="4.152" height="1.543"/>
	</g>
	<g>
		<rect x="514.543" y="44.59" fill="#5A5A58" width="10.211" height="2.872"/>
		<rect x="515.225" y="45.294" fill="#FFFFFF" width="4.152" height="1.543"/>
		<rect x="519.974" y="45.255" fill="#FFFFFF" width="4.152" height="1.543"/>
	</g>
	<g>
		<rect x="526.981" y="44.59" fill="#5A5A58" width="10.211" height="2.872"/>
		<rect x="527.663" y="45.294" fill="#FFFFFF" width="4.152" height="1.543"/>
		<rect x="532.413" y="45.255" fill="#FFFFFF" width="4.152" height="1.543"/>
	</g>
	<g>
		<rect x="539.609" y="44.59" fill="#5A5A58" width="10.211" height="2.872"/>
		<rect x="540.291" y="45.294" fill="#FFFFFF" width="4.152" height="1.543"/>
		<rect x="545.041" y="45.255" fill="#FFFFFF" width="4.152" height="1.543"/>
	</g>
</g>
</svg>
