<?xml version="1.0" encoding="utf-8"?>
<!-- Generator: Adobe Illustrator 17.0.0, SVG Export Plug-In . SVG Version: 6.00 Build 0)  -->
<!DOCTYPE svg PUBLIC "-//W3C//DTD SVG 1.1//EN" "http://www.w3.org/Graphics/SVG/1.1/DTD/svg11.dtd">
<svg version="1.1" id="Layer_1" xmlns="http://www.w3.org/2000/svg" xmlns:xlink="http://www.w3.org/1999/xlink" x="0px" y="0px"
	 width="120px" height="120px" viewBox="0 0 120 120" enable-background="new 0 0 120 120" xml:space="preserve">
<g id="JZmQ4y.tif">
	<g>
		<g>
			<path fill="#B3B3B3" d="M89.72,34.7c-1.72-0.77-3.55-0.87-5.33-1.01c-7.11-0.55-13.93-0.13-18.74,6.33
				c-0.95,1.28-1.76,2.65-2.52,4.17C59.66,38.01,55.12,33.89,48,33.65c-4.52-0.15-9.24-0.73-13.37,1.6
				c-5.4,3.06-8.98,7.5-9.33,14.11c-0.31,5.8-1.09,11.73,2.14,16.9c6.22,9.94,17.93,11.11,26.78,7.18c3.95-1.76,6.41-5.12,8.95-8.64
				c4.53,8.07,11.24,11.28,20.06,10.54c5.35-0.45,9.74-2.14,11.77-7.62c0-0.46,0-0.91,0-1.37c-0.3-0.3-0.66-0.56-0.91-0.9
				c-1.18-1.65-1.99-3.94-3.59-4.84c-1.84-1.03-3.04,1.68-4.76,2.39c-4.07,1.7-8.33,0.9-10.73-2.33
				c-2.93-3.93-2.63-10.44,0.63-13.87c2.73-2.86,7.13-3.24,10.93-0.94c4.25,2.58,4.23,2.56,6.73-1.76c0.48-0.83,0.57-1.97,1.7-2.34
				c0-0.46,0-0.91,0-1.37C94.41,37.43,92.33,35.87,89.72,34.7z M44.67,63.85c-5.17,0.02-8.95-3.98-8.96-9.51
				c-0.02-5.42,4.15-9.94,9.13-9.9c5.1,0.04,8.73,4.11,8.7,9.75C53.51,59.7,49.72,63.83,44.67,63.85z"/>
		</g>
		<g>
			<path fill="#B3B3B3" d="M39.18,85.87c-0.42,0.43-1.02,0.65-1.82,0.65c-0.79,0-1.4-0.22-1.82-0.65c-0.56-0.53-0.84-1.29-0.84-2.29
				c0-1.01,0.28-1.78,0.84-2.29c0.42-0.43,1.02-0.65,1.82-0.65c0.79,0,1.4,0.22,1.82,0.65c0.56,0.51,0.84,1.27,0.84,2.29
				C40.02,84.58,39.74,85.35,39.18,85.87z M38.45,85.03c0.27-0.34,0.4-0.82,0.4-1.44c0-0.62-0.13-1.1-0.4-1.44s-0.63-0.51-1.09-0.51
				c-0.46,0-0.82,0.17-1.1,0.51c-0.27,0.34-0.41,0.82-0.41,1.44c0,0.62,0.14,1.11,0.41,1.44c0.27,0.34,0.64,0.51,1.1,0.51
				C37.82,85.54,38.18,85.37,38.45,85.03z"/>
			<path fill="#B3B3B3" d="M41.62,81.4c0.45-0.46,1.01-0.68,1.7-0.68c0.92,0,1.6,0.31,2.02,0.92c0.24,0.34,0.36,0.69,0.38,1.03
				h-1.16c-0.07-0.27-0.17-0.47-0.28-0.6c-0.21-0.24-0.51-0.36-0.92-0.36c-0.41,0-0.74,0.17-0.98,0.51
				c-0.24,0.34-0.36,0.82-0.36,1.44s0.13,1.09,0.38,1.4c0.25,0.31,0.57,0.46,0.96,0.46c0.4,0,0.7-0.13,0.91-0.4
				c0.11-0.14,0.21-0.36,0.29-0.64h1.15c-0.1,0.6-0.35,1.1-0.76,1.47c-0.41,0.38-0.93,0.57-1.57,0.57c-0.79,0-1.41-0.26-1.86-0.77
				c-0.45-0.51-0.68-1.22-0.68-2.11C40.85,82.67,41.11,81.93,41.62,81.4z"/>
			<path fill="#B3B3B3" d="M50.94,81.81h-2.93v1.18h2.69v0.96h-2.69v1.42h3.07v1h-4.2v-5.54h4.06V81.81z"/>
			<path fill="#B3B3B3" d="M53.76,80.82h1.31l1.96,5.54h-1.26l-0.37-1.14h-2.04l-0.38,1.14h-1.21L53.76,80.82z M53.68,84.27h1.42
				l-0.7-2.18L53.68,84.27z"/>
			<path fill="#B3B3B3" d="M57.91,80.82h1.21l2.2,3.86v-3.86h1.08v5.54h-1.16l-2.26-3.93v3.93h-1.08V80.82z"/>
			<path fill="#B3B3B3" d="M64.21,81.4c0.45-0.46,1.01-0.68,1.7-0.68c0.92,0,1.6,0.31,2.02,0.92c0.24,0.34,0.36,0.69,0.38,1.03
				h-1.16c-0.07-0.27-0.17-0.47-0.28-0.6c-0.21-0.24-0.51-0.36-0.92-0.36c-0.41,0-0.74,0.17-0.98,0.51s-0.36,0.82-0.36,1.44
				s0.13,1.09,0.38,1.4c0.25,0.31,0.57,0.46,0.96,0.46c0.4,0,0.7-0.13,0.91-0.4c0.12-0.14,0.21-0.36,0.29-0.64h1.15
				c-0.1,0.6-0.35,1.1-0.76,1.47c-0.41,0.38-0.93,0.57-1.57,0.57c-0.79,0-1.41-0.26-1.86-0.77c-0.45-0.51-0.68-1.22-0.68-2.11
				C63.44,82.67,63.69,81.93,64.21,81.4z"/>
			<path fill="#B3B3B3" d="M71.01,80.82h1.31l1.96,5.54h-1.26l-0.37-1.14h-2.04l-0.38,1.14h-1.21L71.01,80.82z M70.94,84.27h1.42
				l-0.7-2.18L70.94,84.27z"/>
			<path fill="#B3B3B3" d="M76.02,84.66c0.04,0.25,0.11,0.44,0.21,0.57c0.19,0.23,0.52,0.34,0.99,0.34c0.28,0,0.51-0.03,0.68-0.09
				c0.33-0.12,0.49-0.33,0.49-0.64c0-0.18-0.08-0.32-0.24-0.42c-0.16-0.1-0.42-0.18-0.77-0.26l-0.6-0.13
				c-0.59-0.13-0.99-0.27-1.22-0.42c-0.37-0.26-0.56-0.66-0.56-1.2c0-0.5,0.18-0.91,0.55-1.24c0.37-0.33,0.9-0.49,1.61-0.49
				c0.59,0,1.1,0.15,1.51,0.46c0.42,0.31,0.64,0.76,0.66,1.35h-1.11c-0.02-0.33-0.17-0.57-0.45-0.71c-0.19-0.09-0.42-0.14-0.69-0.14
				c-0.31,0-0.55,0.06-0.73,0.18c-0.18,0.12-0.27,0.29-0.27,0.5c0,0.2,0.09,0.35,0.27,0.44c0.12,0.07,0.36,0.14,0.74,0.23l0.97,0.23
				c0.43,0.1,0.75,0.23,0.96,0.4c0.33,0.26,0.5,0.64,0.5,1.13c0,0.51-0.2,0.93-0.59,1.26c-0.39,0.33-0.94,0.5-1.66,0.5
				c-0.73,0-1.3-0.16-1.72-0.49c-0.42-0.33-0.63-0.78-0.63-1.36H76.02z"/>
			<path fill="#B3B3B3" d="M80.5,86.37v-5.54h1.15v2.11h2.15v-2.11h1.15v5.54h-1.15v-2.47h-2.15v2.47H80.5z"/>
		</g>
	</g>
</g>
</svg>
