<?xml version="1.0" encoding="utf-8"?>
<!-- Generator: Adobe Illustrator 17.0.0, SVG Export Plug-In . SVG Version: 6.00 Build 0)  -->
<!DOCTYPE svg PUBLIC "-//W3C//DTD SVG 1.1//EN" "http://www.w3.org/Graphics/SVG/1.1/DTD/svg11.dtd">
<svg version="1.1" id="Layer_1" xmlns="http://www.w3.org/2000/svg" xmlns:xlink="http://www.w3.org/1999/xlink" x="0px" y="0px"
	 width="100px" height="100px" viewBox="-14.607 -14.573 100 100" enable-background="new -14.607 -14.573 100 100"
	 xml:space="preserve">
<path fill="#FFFFFF" d="M70.787,19.983c0.016-2.004-0.753-3.896-2.162-5.327c-1.409-1.433-3.289-2.23-5.293-2.247l-1.218-0.01
	c0.962-1.261,1.535-2.822,1.548-4.5c0.026-3.459-2.287-6.471-5.582-7.312c-0.59-0.17-1.203-0.256-1.874-0.261
	c-0.021,0-0.04,0-0.061,0c-4.115,0-7.48,3.332-7.513,7.455c-0.013,1.652,0.511,3.222,1.479,4.524l-1.22-0.01c-0.02,0-0.04,0-0.061,0
	c-2.17,0-4.169,0.943-5.561,2.473c-0.989-1.561-2.522-2.752-4.392-3.229c-0.59-0.172-1.204-0.258-1.876-0.263
	c-1.981,0.014-3.901,0.751-5.331,2.158c-1.283,1.263-2.05,2.907-2.207,4.681c-0.284-1.419-0.972-2.729-2.013-3.786
	c-1.409-1.433-3.289-2.23-5.293-2.247l-1.218-0.01c0.962-1.261,1.535-2.822,1.548-4.5c0.026-3.459-2.287-6.471-5.582-7.312
	c-0.59-0.17-1.203-0.256-1.873-0.261c-0.021,0-0.04,0-0.061,0c-4.116,0-7.48,3.332-7.514,7.455
	c-0.014,1.694,0.545,3.259,1.485,4.524l-1.226-0.01c-2.006-0.012-3.901,0.75-5.331,2.158c-1.431,1.407-2.228,3.289-2.243,5.297
	L0,37.469c-0.007,0.828,0.66,1.505,1.488,1.512l4.678,0.037L8.23,58.163c0.081,0.757,0.718,1.333,1.479,1.339l9.69,0.076
	c0.004,0,0.008,0,0.012,0c0.756,0,1.395-0.563,1.488-1.314l1.133-9.104c0.176,0.627,0.743,1.091,1.426,1.097l4.678,0.037
	L30.2,69.439c0.081,0.757,0.718,1.333,1.479,1.339l9.69,0.077c0.004,0,0.008,0,0.012,0c0.756,0,1.395-0.563,1.488-1.314
	l2.379-19.111l3.285,0.026l0.871,8.034c0.082,0.757,0.718,1.332,1.479,1.338l9.69,0.076h0.012c0.756,0,1.395-0.563,1.488-1.314
	l2.379-19.109l4.68,0.036h0.012c0.823,0,1.493-0.664,1.5-1.488l0.093-11.778V26.25v-0.001L70.787,19.983z M51.633,7.805
	c0.01-1.206,0.488-2.337,1.347-3.183c0.851-0.837,1.974-1.296,3.167-1.296c0.012,0,0.024,0,0.036,0
	c0.394,0.003,0.742,0.05,1.109,0.155c2,0.512,3.386,2.318,3.37,4.395c-0.017,2.073-1.434,3.864-3.444,4.355
	c-0.342,0.083-0.685,0.118-1.074,0.121h-0.052C53.612,12.322,51.613,10.287,51.633,7.805z M33.775,15.573
	c0.85-0.837,1.973-1.296,3.167-1.296c0.012,0,0.024,0,0.036,0c0.393,0.003,0.74,0.05,1.109,0.156
	c1.901,0.485,3.232,2.145,3.346,4.091c-0.069,0.414-0.113,0.826-0.117,1.229l-0.001,0.101c-0.391,1.615-1.636,2.922-3.3,3.329
	c-0.344,0.084-0.666,0.122-1.066,0.122l-0.067-0.001c-2.478-0.033-4.474-2.067-4.454-4.548
	C32.438,17.549,32.916,16.419,33.775,15.573z M30.913,23.257l-1.225-0.01c-0.034,0.001-0.07,0.006-0.104,0.007l0.023-2.86
	C29.837,21.448,30.29,22.418,30.913,23.257z M11.754,10.683c-0.845-0.859-1.306-1.996-1.296-3.203
	c0.02-2.478,2.041-4.479,4.515-4.479c0.012,0,0.024,0,0.036,0c0.393,0.003,0.741,0.05,1.108,0.155c2,0.512,3.386,2.318,3.37,4.395
	c-0.017,2.073-1.434,3.864-3.443,4.355c-0.343,0.084-0.668,0.114-1.076,0.121h-0.052C13.718,12.012,12.595,11.536,11.754,10.683z
	 M18.088,56.567l-7.019-0.055L9.014,37.447l0.102-13.134c0.007-0.828-0.66-1.505-1.488-1.512H7.616c-0.823,0-1.493,0.664-1.5,1.488
	L6.025,36.016l-3.014-0.024l0.131-16.543c0.01-1.206,0.488-2.337,1.347-3.183c0.859-0.846,1.957-1.308,3.204-1.296l7.181,0.056
	c0.013,0,0.025,0.002,0.038,0.002c0.021,0,0.043,0,0.064,0c0.008,0,0.015-0.001,0.022-0.001l7.133,0.056
	c1.202,0.01,2.331,0.489,3.18,1.352c0.848,0.86,1.309,1.997,1.3,3.199l-0.034,4.264c-1.232,0.544-2.266,1.413-3.034,2.48
	l0.004-0.504c0.007-0.828-0.659-1.505-1.492-1.512c0,0-0.004,0-0.008,0c-0.823,0-1.493,0.664-1.5,1.488l-0.093,11.692L18.088,56.567
	z M40.059,67.845l-7.019-0.056l-2.055-19.066l0.102-13.133c0.007-0.828-0.66-1.505-1.492-1.512c0,0-0.004,0-0.008,0
	c-0.823,0-1.493,0.664-1.5,1.488l-0.091,11.726l-3.014-0.024l0.076-9.599c0-0.001,0-0.001,0-0.002s0-0.001,0-0.002l0.055-6.939
	c0.016-2.03,1.389-3.807,3.359-4.325c0.384-0.106,0.786-0.152,1.19-0.153l7.173,0.057c0.016,0,0.032,0.003,0.048,0.003
	c0.021,0,0.043,0,0.063,0c0.01,0,0.02-0.002,0.03-0.002l7.126,0.056c1.202,0.009,2.331,0.488,3.177,1.348
	c0.098,0.101,0.198,0.209,0.324,0.378c0.648,0.809,0.986,1.785,0.978,2.823c0,0.001,0,0.001,0,0.001l-0.13,16.544l-3.015-0.024
	l0.081-10.28c0.007-0.828-0.66-1.505-1.492-1.512c0,0-0.004,0-0.008,0c-0.823,0-1.493,0.664-1.5,1.488l-0.092,11.694L40.059,67.845z
	 M67.656,36.505l-3.015-0.023l0.081-10.281c0.007-0.828-0.66-1.505-1.488-1.512c-0.004,0-0.012,0-0.012,0
	c-0.823,0-1.493,0.664-1.5,1.488L61.63,37.869l-2.368,19.023l-7.02-0.055l-0.827-7.63c0.012-0.076,0.024-0.152,0.024-0.23
	l0.142-18.044c0.012-1.529-0.471-3.013-1.304-4.232l0.016-2.057c0.007-0.828-0.66-1.505-1.488-1.512h-0.012
	c-0.654,0-1.205,0.421-1.41,1.007c-0.955-0.472-2.004-0.738-3.095-0.77l0.025-3.153c0.086-0.445,0.139-0.9,0.143-1.367
	c0-0.035-0.008-0.069-0.008-0.104c0.486-2.01,2.3-3.451,4.383-3.451c0.012,0,0.024,0,0.036,0l7.18,0.056
	c0.014,0,0.027,0.002,0.04,0.002c0.021,0,0.043,0,0.064,0c0.008,0,0.015-0.001,0.022-0.001l7.133,0.056
	c1.202,0.01,2.331,0.489,3.18,1.352c0.848,0.86,1.309,1.997,1.3,3.199l-0.05,6.265v0.001v0.001L67.656,36.505z"/>
</svg>
