<?xml version="1.0" encoding="utf-8"?>
<!-- Generator: Adobe Illustrator 17.0.0, SVG Export Plug-In . SVG Version: 6.00 Build 0)  -->
<!DOCTYPE svg PUBLIC "-//W3C//DTD SVG 1.1//EN" "http://www.w3.org/Graphics/SVG/1.1/DTD/svg11.dtd">
<svg version="1.1" id="Layer_1" xmlns="http://www.w3.org/2000/svg" xmlns:xlink="http://www.w3.org/1999/xlink" x="0px" y="0px"
	 width="100px" height="100px" viewBox="-18.354 -15.192 100 100" enable-background="new -18.354 -15.192 100 100"
	 xml:space="preserve">
<g>
	<path fill="#FFFFFF" d="M63.048,59.268L52.194,42.183c3.48-4.438,5.563-10.008,5.563-16.072c0-12.064-8.215-22.238-19.36-25.22
		c-0.814-0.32-1.732,0.081-2.052,0.894c-0.32,0.814,0.081,1.732,0.894,2.052c0.118,0.046,0.241,0.078,0.366,0.095
		C47.39,6.55,54.591,15.479,54.591,26.111c0,12.691-10.254,22.945-22.945,22.945c-12.691,0-22.945-10.254-22.945-22.945
		S18.955,3.166,31.646,3.166C32.517,3.26,33.3,2.63,33.394,1.759s-0.536-1.654-1.407-1.748c-0.064-0.007-0.128-0.01-0.193-0.009
		c-0.049-0.003-0.098-0.003-0.148-0.001c-14.401,0-26.11,11.709-26.11,26.11c0,6.073,2.079,11.655,5.563,16.096L0.245,59.268
		c-0.467,0.739-0.246,1.716,0.493,2.183c0.288,0.182,0.626,0.266,0.966,0.24l8.407-0.692l3.486,7.69
		c0.362,0.796,1.3,1.148,2.096,0.786c0.305-0.139,0.558-0.371,0.723-0.662l9.717-17.184c1.775,0.383,3.626,0.593,5.514,0.593
		c1.897,0,3.731-0.208,5.514-0.593l9.717,17.184c0.43,0.761,1.395,1.029,2.156,0.599c0.292-0.165,0.524-0.418,0.662-0.723
		l3.486-7.69l8.407,0.692c0.871,0.067,1.632-0.586,1.699-1.457C63.314,59.895,63.23,59.556,63.048,59.268z M15.179,64.559
		l-2.67-5.885c-0.277-0.6-0.898-0.965-1.558-0.915l-6.33,0.519L13.3,44.655c2.714,2.686,6.019,4.788,9.692,6.082L15.179,64.559z
		 M52.341,57.76c-0.659-0.05-1.281,0.314-1.558,0.915l-2.67,5.885L40.3,50.738c3.673-1.298,6.978-3.397,9.692-6.083l8.679,13.624
		L52.341,57.76z"/>
	<path fill="#FFFFFF" d="M48.557,20.239c-0.236-0.231-0.538-0.382-0.865-0.432l-10.261-1.484L33.055,9.57
		c-0.295-0.591-0.926-0.935-1.582-0.866c-0.532,0.061-0.997,0.386-1.236,0.865l-4.376,8.753L15.6,19.806
		c-0.864,0.133-1.456,0.942-1.322,1.806c0.05,0.326,0.202,0.629,0.432,0.865l7.343,7.344l-1.459,10.31
		c-0.126,0.865,0.473,1.668,1.338,1.794c0.032,0.005,0.064,0.008,0.096,0.011c0.32,0.02,0.64-0.057,0.915-0.223l8.703-5.069
		l8.703,5.069c0.761,0.431,1.726,0.163,2.157-0.597c0.169-0.299,0.237-0.645,0.192-0.985l-1.459-10.31l7.343-7.344
		C49.193,21.852,49.182,20.85,48.557,20.239z M38.446,28.162c-0.349,0.351-0.514,0.845-0.445,1.335l1.113,7.838l-6.676-3.882
		c-0.49-0.283-1.093-0.283-1.582,0l-6.676,3.882l1.113-7.838c0.069-0.49-0.096-0.984-0.445-1.335l-5.662-5.687l7.937-1.137
		c0.514-0.076,0.957-0.4,1.187-0.865l3.336-6.651l3.338,6.651c0.23,0.466,0.673,0.789,1.187,0.865l7.937,1.137L38.446,28.162z"/>
</g>
</svg>
