<?xml version="1.0" encoding="utf-8"?>
<!-- Generator: Adobe Illustrator 17.0.0, SVG Export Plug-In . SVG Version: 6.00 Build 0)  -->
<!DOCTYPE svg PUBLIC "-//W3C//DTD SVG 1.1//EN" "http://www.w3.org/Graphics/SVG/1.1/DTD/svg11.dtd">
<svg version="1.1" id="Layer_1" xmlns="http://www.w3.org/2000/svg" xmlns:xlink="http://www.w3.org/1999/xlink" x="0px" y="0px"
	 width="120px" height="120px" viewBox="0 0 120 120" enable-background="new 0 0 120 120" xml:space="preserve">
<g id="piGKcY.tif">
	<g>
		<path fill="#B3B3B3" d="M83.37,59.38c-0.29,0.12-0.51,0.21-0.73,0.3c-1.67,0.66-3.29,1.45-4.89,2.25
			c-3.67,1.83-7.16,3.96-10.52,6.3c-1.5,1.04-2.95,2.14-4.29,3.39c-0.23,0.22-0.46,0.44-0.69,0.66c-0.01,0.01-0.02,0.01-0.06,0.02
			c-7.06-4.87-14.12-9.76-21.23-14.67c0.12-0.11,0.22-0.2,0.33-0.28c2.34-1.72,4.96-2.75,7.85-3.07c2.54-0.28,4.99,0.11,7.28,1.26
			c0.66,0.33,1.28,0.74,1.89,1.16c2.6,1.78,5.18,3.59,7.77,5.38c0.4,0.28,0.81,0.53,1.21,0.8c0.1,0.06,0.19,0.14,0.31,0.06
			c0.4-0.27,0.79-0.55,1.24-0.86c-1.17-0.85-2.33-1.62-3.48-2.42c-1.15-0.8-2.31-1.6-3.46-2.39c-1.15-0.8-2.31-1.59-3.46-2.39
			c-1.16-0.8-2.31-1.59-3.47-2.39c-1.14-0.79-2.29-1.58-3.43-2.37c-1.15-0.8-2.31-1.6-3.46-2.39c-1.15-0.8-2.31-1.59-3.47-2.38
			c-1.15-0.79-2.3-1.59-3.5-2.42c0.43-0.18,0.81-0.32,1.18-0.48c2.76-1.15,5.39-2.55,7.99-4.02c2.27-1.29,4.5-2.65,6.64-4.16
			c1.59-1.11,3.15-2.26,4.57-3.59c0.25-0.23,0.49-0.48,0.75-0.74c7.04,4.86,14.07,9.71,21.13,14.59c-0.16,0.14-0.28,0.26-0.42,0.36
			c-1.93,1.43-4.03,2.49-6.39,3c-3.42,0.73-6.59,0.16-9.47-1.84c-3.15-2.19-6.29-4.39-9.44-6.59c-0.08-0.06-0.16-0.13-0.25-0.17
			c-0.07-0.03-0.19-0.04-0.25,0c-0.4,0.27-0.79,0.55-1.18,0.83c0.18,0.24,3.96,2.92,6.8,4.86c2.3,1.58,4.58,3.19,6.87,4.79
			c2.28,1.59,4.56,3.18,6.84,4.77C78.76,56.16,81.04,57.75,83.37,59.38z"/>
		<path fill="#B3B3B3" d="M36.87,82.48c-0.06,0-0.12,0.01-0.18,0.01c-1.35,0-2.71,0-4.06,0c-0.12,0-0.2-0.04-0.28-0.14
			c-0.37-0.55-0.88-0.91-1.54-1.01c-0.45-0.07-0.9-0.05-1.34,0.09c-0.14,0.05-0.28,0.11-0.39,0.23c-0.06,0.07-0.12,0.14-0.15,0.22
			c-0.12,0.35-0.04,0.51,0.23,0.66c0.24,0.13,0.5,0.2,0.76,0.24c0.51,0.09,1.02,0.17,1.53,0.23c0.95,0.12,1.9,0.24,2.82,0.52
			c0.73,0.22,1.43,0.5,2.02,1c0.61,0.51,0.94,1.16,0.95,1.97c0.01,1.01-0.45,1.77-1.23,2.36c-0.56,0.41-1.2,0.64-1.86,0.82
			c-0.62,0.17-1.26,0.25-1.91,0.3c-0.89,0.06-1.78,0.04-2.67-0.01c-0.83-0.05-1.66-0.15-2.46-0.38c-0.44-0.12-0.87-0.28-1.27-0.51
			c-0.85-0.5-1.31-1.25-1.4-2.23c-0.01-0.14-0.02-0.28-0.03-0.44c0.08,0,0.14,0,0.19,0c1.52,0,3.03,0,4.55,0
			c0.11,0,0.18,0.03,0.24,0.13c0.19,0.32,0.43,0.6,0.75,0.81c0.28,0.18,0.58,0.28,0.91,0.28c0.31,0.01,0.63,0.01,0.93-0.07
			c0.16-0.04,0.33-0.1,0.48-0.19c0.42-0.23,0.41-0.8,0.05-1.05c-0.19-0.13-0.4-0.21-0.62-0.25c-0.33-0.06-0.67-0.09-1.01-0.13
			c-0.49-0.05-0.97-0.09-1.46-0.16c-0.49-0.07-0.99-0.14-1.48-0.24c-0.61-0.12-1.21-0.29-1.77-0.57c-0.34-0.17-0.66-0.39-0.92-0.68
			c-0.32-0.35-0.5-0.77-0.57-1.24c-0.11-0.7-0.04-1.37,0.32-2c0.27-0.48,0.66-0.85,1.12-1.14c0.57-0.35,1.19-0.57,1.84-0.71
			c0.88-0.19,1.76-0.25,2.66-0.24c0.41,0.01,0.82,0.01,1.22,0.05c1.03,0.08,2.05,0.26,3,0.69c0.54,0.24,1.03,0.56,1.41,1.02
			c0.39,0.47,0.61,1.02,0.63,1.64c0,0.02,0,0.04,0,0.06C36.88,82.44,36.88,82.45,36.87,82.48z"/>
		<path fill="#B3B3B3" d="M77.53,79.28c1.3,0,2.6,0,3.91,0c0,0.07,0.01,0.14,0.01,0.21c0,1.06,0,2.12,0,3.18
			c0,0.07,0.01,0.13,0.02,0.23c0.07-0.05,0.11-0.08,0.15-0.11c1.21-1.04,2.43-2.09,3.64-3.13c0.11-0.09,0.22-0.19,0.33-0.28
			c0.08-0.08,0.17-0.1,0.27-0.1c1.35,0,2.71,0,4.06,0c0.3,0,0.6,0,0.91,0c-0.02,0.08-0.08,0.11-0.13,0.15
			c-0.58,0.5-1.16,0.99-1.74,1.49c-0.87,0.75-1.75,1.5-2.62,2.24c-0.44,0.37-0.88,0.75-1.31,1.12c-0.04,0.03-0.08,0.07-0.13,0.12
			c0.38,0.38,0.77,0.72,1.14,1.08c0.38,0.36,0.76,0.71,1.14,1.07c0.39,0.36,0.77,0.72,1.16,1.08c0.38,0.36,0.76,0.71,1.15,1.06
			c0.38,0.35,0.77,0.7,1.18,1.08c-0.08,0.01-0.13,0.01-0.17,0.01c-1.66,0-3.31,0-4.97,0c-0.1,0-0.17-0.03-0.24-0.1
			c-1.22-1.15-2.43-2.31-3.65-3.46c-0.05-0.05-0.1-0.09-0.17-0.14c-0.05,0.18-0.03,0.32-0.03,0.47c-0.01,0.16,0,0.31,0,0.47
			c0,0.15,0,0.3,0,0.45c0,0.16,0,0.31,0,0.47c0,0.15,0,0.3,0,0.45s0,0.3,0,0.45c0,0.16,0,0.31,0,0.47c0,0.15,0,0.3,0,0.46
			c-1.32,0-2.61,0-3.91,0C77.49,89.63,77.48,79.47,77.53,79.28z"/>
		<path fill="#B3B3B3" d="M51.26,89.76c0-0.06-0.01-0.11-0.01-0.15c0-0.63,0-1.27,0-1.9c0-0.11,0.04-0.18,0.11-0.25
			c1.34-1.27,2.68-2.55,4.02-3.82c0.54-0.52,1.08-1.03,1.62-1.55c0.04-0.04,0.08-0.08,0.12-0.12c0-0.01-0.01-0.02-0.01-0.03
			c-0.07-0.01-0.14-0.02-0.22-0.02c-1.04,0-2.09,0-3.13,0c-0.7,0-1.4,0-2.1,0c-0.06,0-0.13,0-0.18,0c-0.04-0.15-0.04-2.48-0.01-2.63
			c3.91,0,7.83,0,11.76,0c0,0.06,0.01,0.11,0.01,0.17c0,0.63,0,1.27,0,1.9c0,0.11-0.03,0.18-0.11,0.25
			c-0.73,0.68-1.45,1.36-2.18,2.04c-0.95,0.89-1.9,1.78-2.85,2.66c-0.24,0.23-0.49,0.46-0.73,0.68c-0.03,0.03-0.05,0.06-0.11,0.12
			c0.09,0.01,0.14,0.01,0.2,0.01c0.73,0,1.46,0,2.19,0c1.11,0,2.23,0,3.34,0c0.06,0,0.13,0,0.18,0c0.04,0.14,0.04,2.48,0.01,2.64
			C59.22,89.76,55.25,89.76,51.26,89.76z"/>
		<path fill="#B3B3B3" d="M46.41,79.28c1.27,0,2.53,0,3.8,0c0.01,0.06,0.02,0.12,0.02,0.18c0,2.27,0,4.55,0,6.82
			c0,0.52-0.06,1.03-0.24,1.52c-0.21,0.58-0.56,1.04-1.08,1.36c-0.39,0.24-0.81,0.4-1.24,0.52c-0.48,0.13-0.98,0.21-1.47,0.26
			c-0.87,0.09-1.74,0.12-2.61,0.09c-0.91-0.03-1.82-0.08-2.72-0.29c-0.52-0.12-1.02-0.29-1.48-0.57c-0.47-0.28-0.81-0.68-1.03-1.18
			c-0.16-0.37-0.25-0.76-0.28-1.17c-0.02-0.31-0.03-0.62-0.03-0.93c0-2.13,0-4.26,0-6.39c0-0.07,0-0.14,0-0.2
			c0.13-0.04,3.62-0.05,3.82-0.01c0,0.06,0,0.12,0,0.18c0,2.13,0,4.27,0,6.4c0,0.22,0.03,0.43,0.12,0.63
			c0.13,0.29,0.35,0.5,0.63,0.64c0.28,0.15,0.59,0.23,0.91,0.27c0.56,0.07,1.13,0.06,1.68-0.09c0.31-0.09,0.61-0.22,0.84-0.46
			c0.23-0.23,0.35-0.5,0.37-0.82c0.01-0.11,0.01-0.23,0.01-0.34c0-2.07,0-4.14,0-6.21C46.4,79.43,46.41,79.36,46.41,79.28z"/>
		<path fill="#B3B3B3" d="M72.67,79.28c1.27,0,2.53,0,3.79,0c0,0.05,0.01,0.1,0.01,0.15c0,2.2,0,4.4,0,6.6
			c0,0.51-0.03,1.01-0.16,1.5c-0.18,0.68-0.54,1.24-1.14,1.62c-0.42,0.26-0.88,0.44-1.36,0.56c-0.56,0.14-1.14,0.22-1.72,0.26
			c-0.75,0.06-1.49,0.08-2.24,0.06c-0.87-0.02-1.74-0.08-2.59-0.26c-0.57-0.12-1.11-0.3-1.61-0.59c-0.49-0.29-0.85-0.71-1.06-1.24
			c-0.2-0.49-0.28-1-0.29-1.53c-0.01-0.41,0-0.83,0-1.24c0-1.89,0-3.78,0-5.68c0-0.07,0-0.14,0-0.2c0.13-0.04,3.62-0.04,3.81-0.01
			c0,0.07,0.01,0.13,0.01,0.2c0,2.09,0,4.18,0,6.27c0,0.14,0,0.28,0.02,0.42c0.08,0.49,0.38,0.82,0.83,1.02
			c0.31,0.14,0.63,0.21,0.96,0.24c0.45,0.04,0.9,0.03,1.35-0.07c0.4-0.09,0.77-0.24,1.05-0.55c0.2-0.21,0.3-0.47,0.33-0.75
			c0.01-0.17,0.01-0.33,0.01-0.5c0-1.91,0-3.83,0-5.74c0-0.13,0-0.26,0-0.39C72.65,79.39,72.66,79.33,72.67,79.28z"/>
		<path fill="#B3B3B3" d="M95.59,89.77c-1.32,0-2.64,0-3.96,0c0-3.5,0-6.99,0-10.49c1.32,0,2.64,0,3.96,0
			C95.59,82.77,95.59,86.26,95.59,89.77z"/>
	</g>
</g>
</svg>
