<?xml version="1.0" encoding="utf-8"?>
<!-- Generator: Adobe Illustrator 17.0.0, SVG Export Plug-In . SVG Version: 6.00 Build 0)  -->
<!DOCTYPE svg PUBLIC "-//W3C//DTD SVG 1.1//EN" "http://www.w3.org/Graphics/SVG/1.1/DTD/svg11.dtd">
<svg version="1.1" id="Layer_1" xmlns="http://www.w3.org/2000/svg" xmlns:xlink="http://www.w3.org/1999/xlink" x="0px" y="0px"
	 width="152.148px" height="59.97px" viewBox="0 0 152.148 59.97" enable-background="new 0 0 152.148 59.97" xml:space="preserve">
<g>
	<g>
		<g>
			<rect x="113.959" y="46.419" fill="#4E4E4E" width="8.486" height="4.221"/>
		</g>
		<g>
			<rect x="114.869" y="46.419" fill="#E1E1E1" width="0.909" height="3.316"/>
		</g>
		<g>
			<rect x="120.627" y="46.419" fill="#E1E1E1" width="0.909" height="3.316"/>
		</g>
		<g>
			<path fill="#333333" d="M123.658,51.146c0,0.719-0.586,1.302-1.309,1.302h-7.989c-0.723,0-1.309-0.583-1.309-1.302v-0.109
				c0-0.719,0.586-1.302,1.309-1.302h7.989c0.723,0,1.309,0.583,1.309,1.302V51.146z"/>
		</g>
	</g>
	<g>
		<rect x="98.805" y="44.61" fill="#333333" width="26.368" height="2.412"/>
	</g>
	<g>
		<path fill="#333333" d="M55.616,44c-0.829,0-1.5-0.672-1.5-1.5V24.919l-2.333-0.546c-0.807-0.188-1.308-0.995-1.119-1.802
			c0.189-0.807,1-1.307,1.802-1.119l3.492,0.816c0.679,0.159,1.159,0.764,1.159,1.46V42.5C57.116,43.328,56.444,44,55.616,44z"/>
	</g>
	<g>
		<path fill="#333333" d="M103.958,51.845h-66.29c-4.098,0-6.983-1.501-6.983-5.577l0,0c0-4.076,2.885-5.577,6.983-5.577h18.112
			l2.813,2.155c1.189,0,45.366-0.039,45.366-0.039V51.845z"/>
	</g>
	<g>
		<path fill="#F3E3A3" d="M51.497,16.573h-0.164c-0.043,0-0.083,0.01-0.126,0.013l-0.011-0.013H30.248l-3.901,6.454l-3.664,11.144
			l-0.037,16.769h13.421c0-6.934,6.401-7.235,6.401-7.235h11.481V23.159v-3.337v-0.733C53.949,17.816,52.777,16.573,51.497,16.573z"
			/>
	</g>
	<g>
		<path fill="#333333" d="M49.706,18.684v10.254c0,0-2.091,3.266-21.149,5.653c0,0,0.818-11.687,7.073-15.908H49.706z"/>
	</g>
	<g>
		<rect x="46.069" y="35.867" fill="#4E4E4E" width="3.334" height="5.426"/>
	</g>
	<g>
		<rect x="46.069" y="39.485" fill="#666666" width="3.334" height="1.809"/>
	</g>
	<g>
		<path fill="#FFFFFF" d="M32.127,49.021c0,0.561-0.457,1.016-1.021,1.016h-4.02c-0.564,0-1.021-0.455-1.021-1.016v-0.079
			c0-0.561,0.457-1.016,1.021-1.016h4.02c0.564,0,1.021,0.455,1.021,1.016V49.021z"/>
	</g>
	<g>
		<path fill="#F38E22" d="M32.127,49.142c0,0.589-0.366,0.894-1.206,0.894H28.49v-2.11h2.431c0.638-0.063,1.206,0.29,1.206,0.879
			V49.142z"/>
	</g>
	<g>
		<path fill="#333333" d="M30.248,16.783c0,0-7.601,5.897-7.565,18.377c0,0,1.204,0.081,1.273-0.507
			C25.119,24.76,29.32,19.822,30.248,16.783z"/>
	</g>
	<g>
		<path fill="#939393" d="M23.64,48.551c0,0.321-0.261,0.58-0.584,0.58h-0.045c-0.322,0-0.584-0.26-0.584-0.58v-8.486
			c0-0.321,0.261-0.58,0.584-0.58h0.045c0.322,0,0.584,0.26,0.584,0.58V48.551z"/>
	</g>
	<g>
		<path fill="#666666" d="M37.279,52.035c0,0.561-0.457,1.016-1.021,1.016H22.54c-0.564,0-1.021-0.455-1.021-1.016v-0.079
			c0-0.561,0.457-1.016,1.021-1.016h13.718c0.564,0,1.021,0.455,1.021,1.016V52.035z"/>
	</g>
	<g>
		<path fill="#E1E1E1" d="M30.193,16.573c0,0,2.346-11.535,23.622-11.481c0,0,0.6,8.4-0.327,9.973c0,0-0.709,1.508-1.582,1.508
			C51.033,16.573,30.193,16.573,30.193,16.573z"/>
	</g>
	<g>
		<g>
			<ellipse fill="#333333" cx="46.669" cy="52.543" rx="7.474" ry="7.434"/>
		</g>
		<g>
			<g>
				<ellipse fill="#C7C7C6" cx="46.669" cy="52.543" rx="4.855" ry="4.829"/>
			</g>
			<g>
				<ellipse fill="#E1E1E1" cx="46.669" cy="52.543" rx="1.418" ry="1.411"/>
				<path fill="#333333" d="M46.669,54.454c-1.058,0-1.918-0.857-1.918-1.911s0.861-1.91,1.918-1.91s1.918,0.856,1.918,1.91
					S47.726,54.454,46.669,54.454z M46.669,51.632c-0.506,0-0.918,0.408-0.918,0.91s0.412,0.911,0.918,0.911
					s0.918-0.409,0.918-0.911S47.175,51.632,46.669,51.632z"/>
			</g>
			<g>
				<rect x="45.463" y="48.529" fill="#333333" width="2.425" height="0.603"/>
			</g>
			<g>
				<rect x="45.463" y="56.065" fill="#333333" width="2.425" height="0.603"/>
			</g>
			<g>
				<rect x="49.706" y="51.543" fill="#333333" width="0.606" height="2.11"/>
			</g>
			<g>
				<rect x="42.735" y="51.543" fill="#333333" width="0.606" height="2.11"/>
			</g>
		</g>
	</g>
	<g>
		<rect x="65.163" y="48.83" fill="#808080" width="33.036" height="2.11"/>
	</g>
	<g>
		<g>
			<ellipse fill="#333333" cx="103.842" cy="52.543" rx="7.474" ry="7.434"/>
		</g>
		<g>
			<g>
				<ellipse fill="#C7C7C6" cx="103.843" cy="52.543" rx="4.855" ry="4.829"/>
			</g>
			<g>
				<ellipse fill="#E1E1E1" cx="103.842" cy="52.543" rx="1.418" ry="1.411"/>
				<path fill="#333333" d="M103.842,54.454c-1.059,0-1.919-0.857-1.919-1.911s0.86-1.91,1.919-1.91c1.058,0,1.918,0.856,1.918,1.91
					S104.9,54.454,103.842,54.454z M103.842,51.632c-0.507,0-0.919,0.408-0.919,0.91s0.412,0.911,0.919,0.911
					c0.506,0,0.918-0.409,0.918-0.911S104.348,51.632,103.842,51.632z"/>
			</g>
			<g>
				<rect x="102.745" y="48.529" fill="#333333" width="2.122" height="0.603"/>
			</g>
			<g>
				<rect x="102.745" y="56.065" fill="#333333" width="2.122" height="0.603"/>
			</g>
			<g>
				<rect x="106.989" y="51.543" fill="#333333" width="0.606" height="2.11"/>
			</g>
			<g>
				<rect x="100.018" y="51.543" fill="#333333" width="0.606" height="2.11"/>
			</g>
		</g>
	</g>
	<g>
		<path fill="#CBBC8B" d="M26.323,45.501v-9.902c-0.305-8.374,5.271-16.634,5.509-16.981l0.826,0.564
			c-0.057,0.083-5.629,8.34-5.335,16.398l0,8.919l8.27-0.011c0.542-0.865,2.523-3.389,7.199-3.389v1
			c-4.903,0-6.444,3.075-6.459,3.106l-0.136,0.282L26.323,45.501z"/>
	</g>
	<g>
		<path fill="#666666" d="M32.43,36.53c0,0.3-0.244,0.543-0.546,0.543h-2.849c-0.301,0-0.546-0.243-0.546-0.543v-0.12
			c0-0.3,0.244-0.543,0.546-0.543h2.849c0.301,0,0.546,0.243,0.546,0.543V36.53z"/>
	</g>
	<g>
		<rect x="57.889" y="47.926" fill="#666666" width="11.214" height="4.823"/>
	</g>
	<g>
		<polygon fill="#D4D4D3" points="130.326,49.132 125.392,49.132 123.209,42.801 130.326,42.801 		"/>
	</g>
	<g>
		<g>
			<path fill="#4E4E4E" d="M39.693,18.684l-2.275,14.538c3.134-0.609,5.495-1.297,7.268-1.873l1.99-12.665H39.693z"/>
		</g>
	</g>
	<g>
		<g>
			<rect x="58.495" y="-0.007" fill="#D4D4D3" width="71.831" height="44.918"/>
		</g>
		<g>
			<g>
				<path fill="#E1E1E1" d="M80.62,38.822c0,1.199-0.977,2.17-2.182,2.17H64.314c-1.205,0-2.182-0.972-2.182-2.17V4.876
					c0-1.199,0.977-2.17,2.182-2.17h14.124c1.205,0,2.182,0.972,2.182,2.17V38.822z"/>
			</g>
			<g>
				<path fill="#E1E1E1" d="M102.745,38.822c0,1.199-0.977,2.17-2.183,2.17H86.44c-1.206,0-2.183-0.972-2.183-2.17V4.876
					c0-1.199,0.977-2.17,2.183-2.17h14.123c1.206,0,2.183,0.972,2.183,2.17V38.822z"/>
			</g>
			<g>
				<path fill="#E1E1E1" d="M125.477,38.822c0,1.199-0.977,2.17-2.182,2.17H109.17c-1.205,0-2.182-0.972-2.182-2.17V4.876
					c0-1.199,0.977-2.17,2.182-2.17h14.124c1.205,0,2.182,0.972,2.182,2.17V38.822z"/>
			</g>
		</g>
		<g>
			<rect x="60.92" y="42.198" fill="#E1E1E1" width="65.769" height="1.507"/>
		</g>
		<g>
			<path fill="#F38E22" d="M62.435,1.524c0,0.32-0.261,0.579-0.582,0.579h-1.866c-0.322,0-0.582-0.259-0.582-0.579V1.476
				c0-0.32,0.261-0.579,0.582-0.579h1.866c0.322,0,0.582,0.259,0.582,0.579V1.524z"/>
		</g>
		<g>
			<path fill="#F38E22" d="M129.114,1.524c0,0.32-0.26,0.579-0.582,0.579h-1.867c-0.321,0-0.582-0.259-0.582-0.579V1.476
				c0-0.32,0.26-0.579,0.582-0.579h1.867c0.321,0,0.582,0.259,0.582,0.579V1.524z"/>
		</g>
	</g>
	<g>
		<rect x="80.62" y="47.323" fill="#AFAFAF" width="9.093" height="2.713"/>
	</g>
	<g>
		<rect x="80.62" y="50.036" fill="#333333" width="9.093" height="2.713"/>
	</g>
	<g>
		<path fill="#BC272C" d="M129.72,47.044c0,0.32-0.261,0.58-0.583,0.58h-2.773c-0.322,0-0.583-0.26-0.583-0.58v-0.045
			c0-0.32,0.261-0.58,0.583-0.58h2.773c0.322,0,0.583,0.26,0.583,0.58V47.044z"/>
	</g>
	<g>
		<path fill="#333333" d="M130.629,52.014c0,0.24-0.195,0.434-0.437,0.434h-4.582c-0.241,0-0.437-0.194-0.437-0.434v-3.051
			c0-0.24,0.195-0.434,0.437-0.434h4.582c0.241,0,0.437,0.194,0.437,0.434V52.014z"/>
	</g>
</g>
</svg>
