<?xml version="1.0" encoding="utf-8"?>
<!-- Generator: Adobe Illustrator 17.0.0, SVG Export Plug-In . SVG Version: 6.00 Build 0)  -->
<!DOCTYPE svg PUBLIC "-//W3C//DTD SVG 1.1//EN" "http://www.w3.org/Graphics/SVG/1.1/DTD/svg11.dtd">
<svg version="1.1" id="Layer_1" xmlns="http://www.w3.org/2000/svg" xmlns:xlink="http://www.w3.org/1999/xlink" x="0px" y="0px"
	 width="152.148px" height="59.97px" viewBox="0 0 152.148 59.97" enable-background="new 0 0 152.148 59.97" xml:space="preserve">
<g>
	<g>
		<g>
			<g>
				<rect x="133.357" y="46.727" fill="#4E4E4E" width="8.486" height="4.221"/>
			</g>
			<g>
				<rect x="134.266" y="46.727" fill="#E1E1E1" width="0.909" height="3.316"/>
			</g>
			<g>
				<rect x="140.025" y="46.727" fill="#E1E1E1" width="0.909" height="3.316"/>
			</g>
			<g>
				<path fill="#333333" d="M143.056,51.454c0,0.719-0.586,1.302-1.309,1.302h-7.989c-0.723,0-1.309-0.583-1.309-1.302v-0.108
					c0-0.719,0.586-1.302,1.309-1.302h7.989c0.723,0,1.309,0.583,1.309,1.302V51.454z"/>
			</g>
		</g>
		<g>
			<rect x="77.286" y="44.617" fill="#333333" width="69.103" height="2.412"/>
		</g>
		<g>
			<g>
				<polygon fill="#D4D4D3" points="151.845,49.44 146.911,49.44 144.728,43.11 151.845,43.11 				"/>
			</g>
			<g>
				<path fill="#BC272C" d="M151.239,47.353c0,0.321-0.261,0.58-0.583,0.58h-2.773c-0.322,0-0.583-0.26-0.583-0.58v-0.045
					c0-0.321,0.261-0.58,0.583-0.58h2.773c0.322,0,0.583,0.26,0.583,0.58V47.353z"/>
			</g>
			<g>
				<path fill="#333333" d="M152.148,52.322c0,0.24-0.195,0.434-0.437,0.434h-4.582c-0.241,0-0.437-0.194-0.437-0.434v-3.051
					c0-0.24,0.195-0.434,0.437-0.434h4.582c0.241,0,0.437,0.194,0.437,0.434V52.322z"/>
			</g>
		</g>
		<g>
			<path fill="#333333" d="M33.929,44.006c-0.829,0-1.5-0.672-1.5-1.5V24.913l-2.33-0.54c-0.807-0.187-1.31-0.993-1.123-1.8
				c0.187-0.808,0.993-1.31,1.8-1.123l3.491,0.809c0.68,0.158,1.162,0.763,1.162,1.461v18.785
				C35.429,43.334,34.757,44.006,33.929,44.006z"/>
		</g>
		<g>
			<path fill="#333333" d="M116.99,51.852H16.148c-4.098,0-6.983-1.501-6.983-5.577l0,0c0-4.076,2.885-5.577,6.983-5.577h18.112
				l2.813,2.147c1.189,0,79.917-0.046,79.917-0.046V51.852z"/>
		</g>
		<g>
			<path fill="#A0C16F" d="M29.978,16.581h-0.164c-0.043,0-0.083,0.01-0.126,0.012l-0.011-0.012H8.729l-3.901,6.446L1.164,34.175
				L1.128,50.948h13.421c0-6.934,6.401-7.235,6.401-7.235H32.43V23.152v-3.337v-0.733C32.43,17.808,31.258,16.581,29.978,16.581z"/>
		</g>
		<g>
			<path fill="#333333" d="M28.187,18.691v10.24c0,0-2.091,3.273-21.149,5.66c0,0,0.818-11.68,7.073-15.9H28.187z"/>
		</g>
		<g>
			<rect x="24.55" y="35.874" fill="#4E4E4E" width="3.334" height="5.426"/>
		</g>
		<g>
			<rect x="24.55" y="39.492" fill="#666666" width="3.334" height="1.809"/>
		</g>
		<g>
			<path fill="#FFFFFF" d="M10.608,49.028c0,0.561-0.457,1.016-1.021,1.016h-4.02c-0.564,0-1.021-0.455-1.021-1.016v-0.079
				c0-0.561,0.457-1.016,1.021-1.016h4.02c0.564,0,1.021,0.455,1.021,1.016V49.028z"/>
		</g>
		<g>
			<path fill="#F38E22" d="M10.608,49.135c0,0.589-0.461,0.952-1.206,0.909H6.971v-2.11h2.431c0.935-0.038,1.206,0.427,1.206,1.016
				V49.135z"/>
		</g>
		<g>
			<path fill="#333333" d="M8.729,16.776c0,0-7.601,5.897-7.565,18.378c0,0,1.204,0.081,1.273-0.507
				C3.601,24.752,7.801,19.814,8.729,16.776z"/>
		</g>
		<g>
			<path fill="#939393" d="M2.122,48.558c0,0.321-0.261,0.581-0.584,0.581H1.493c-0.322,0-0.584-0.26-0.584-0.581v-8.486
				c0-0.321,0.261-0.581,0.584-0.581h0.045c0.322,0,0.584,0.26,0.584,0.581V48.558z"/>
		</g>
		<g>
			<path fill="#666666" d="M15.76,52.042c0,0.561-0.457,1.016-1.021,1.016H1.021C0.457,53.058,0,52.603,0,52.042v-0.079
				c0-0.561,0.457-1.016,1.021-1.016h13.718c0.564,0,1.021,0.455,1.021,1.016V52.042z"/>
		</g>
		<g>
			<path fill="#E1E1E1" d="M8.674,16.581c0,0,2.346-11.542,23.622-11.488c0,0,0.6,8.403-0.327,9.977c0,0-0.709,1.511-1.582,1.511
				C29.514,16.581,8.674,16.581,8.674,16.581z"/>
		</g>
		<g>
			<g>
				<ellipse fill="#333333" cx="25.15" cy="52.535" rx="7.474" ry="7.434"/>
			</g>
			<g>
				<g>
					<ellipse fill="#C7C7C6" cx="25.15" cy="52.535" rx="4.855" ry="4.829"/>
				</g>
				<g>
					<ellipse fill="#E1E1E1" cx="25.15" cy="52.535" rx="1.418" ry="1.41"/>
					<path fill="#333333" d="M25.15,54.446c-1.058,0-1.918-0.856-1.918-1.91s0.861-1.911,1.918-1.911s1.918,0.857,1.918,1.911
						S26.208,54.446,25.15,54.446z M25.15,51.624c-0.506,0-0.918,0.409-0.918,0.911s0.412,0.91,0.918,0.91s0.918-0.408,0.918-0.91
						S25.656,51.624,25.15,51.624z"/>
				</g>
				<g>
					<rect x="23.944" y="48.536" fill="#333333" width="2.425" height="0.603"/>
				</g>
				<g>
					<rect x="23.944" y="56.073" fill="#333333" width="2.425" height="0.603"/>
				</g>
				<g>
					<rect x="28.187" y="51.551" fill="#333333" width="0.606" height="2.11"/>
				</g>
				<g>
					<rect x="21.216" y="51.551" fill="#333333" width="0.606" height="2.11"/>
				</g>
			</g>
		</g>
		<g>
			<rect x="43.644" y="48.837" fill="#808080" width="71.831" height="2.11"/>
		</g>
		<g>
			<g>
				<ellipse fill="#333333" cx="121.724" cy="52.535" rx="7.474" ry="7.434"/>
			</g>
			<g>
				<g>
					<ellipse fill="#C7C7C6" cx="121.725" cy="52.535" rx="4.855" ry="4.829"/>
				</g>
				<g>
					<ellipse fill="#E1E1E1" cx="121.724" cy="52.535" rx="1.418" ry="1.41"/>
					<path fill="#333333" d="M121.725,54.446c-1.059,0-1.919-0.856-1.919-1.91s0.86-1.911,1.919-1.911
						c1.058,0,1.918,0.857,1.918,1.911S122.783,54.446,121.725,54.446z M121.725,51.624c-0.507,0-0.919,0.409-0.919,0.911
						s0.412,0.91,0.919,0.91c0.506,0,0.918-0.408,0.918-0.91S122.231,51.624,121.725,51.624z"/>
				</g>
				<g>
					<rect x="120.627" y="48.536" fill="#333333" width="2.122" height="0.603"/>
				</g>
				<g>
					<rect x="120.627" y="56.073" fill="#333333" width="2.122" height="0.603"/>
				</g>
				<g>
					<rect x="124.871" y="51.551" fill="#333333" width="0.606" height="2.11"/>
				</g>
				<g>
					<rect x="117.9" y="51.551" fill="#333333" width="0.606" height="2.11"/>
				</g>
			</g>
		</g>
		<g>
			<path fill="#869D5D" d="M4.804,45.494V35.59c-0.305-8.373,5.272-16.633,5.51-16.981l0.826,0.564
				c-0.057,0.083-5.629,8.341-5.336,16.398l0,8.92l8.27-0.012c0.542-0.865,2.523-3.388,7.2-3.388v1c-4.869,0-6.397,2.98-6.46,3.107
				l-0.137,0.277l-0.312,0.003L4.804,45.494z"/>
		</g>
		<g>
			<path fill="#666666" d="M10.911,36.537c0,0.3-0.244,0.543-0.546,0.543H7.517c-0.301,0-0.546-0.243-0.546-0.543v-0.12
				c0-0.3,0.244-0.543,0.546-0.543h2.849c0.301,0,0.546,0.243,0.546,0.543V36.537z"/>
		</g>
		<g>
			<rect x="41.219" y="47.933" fill="#666666" width="11.214" height="4.823"/>
		</g>
		<g>
			<g>
				<path fill="#4E4E4E" d="M18.175,18.691L15.9,33.221c3.134-0.609,5.495-1.293,7.268-1.869l1.99-12.661H18.175z"/>
			</g>
		</g>
		<g>
			<g>
				<rect x="36.976" y="0" fill="#D4D4D3" width="114.869" height="44.918"/>
			</g>
			<g>
				<g>
					<path fill="#E1E1E1" d="M59.101,38.829c0,1.199-0.977,2.17-2.182,2.17H42.796c-1.205,0-2.182-0.972-2.182-2.17V4.884
						c0-1.199,0.977-2.17,2.182-2.17h14.124c1.205,0,2.182,0.972,2.182,2.17V38.829z"/>
				</g>
				<g>
					<path fill="#E1E1E1" d="M81.227,38.814c0,1.198-0.977,2.185-2.183,2.185H64.921c-1.206,0-2.183-0.987-2.183-2.185V4.869
						c0-1.199,0.977-2.156,2.183-2.156h14.123c1.206,0,2.183,0.957,2.183,2.156V38.814z"/>
				</g>
				<g>
					<path fill="#E1E1E1" d="M103.958,38.829c0,1.199-0.977,2.17-2.182,2.17H87.652c-1.205,0-2.182-0.972-2.182-2.17V4.884
						c0-1.199,0.977-2.17,2.182-2.17h14.124c1.205,0,2.182,0.972,2.182,2.17V38.829z"/>
				</g>
			</g>
			<g>
				<g>
					<path fill="#E1E1E1" d="M148.208,38.814c0,1.198-0.977,2.185-2.183,2.185h-14.123c-1.206,0-2.183-0.987-2.183-2.185V4.869
						c0-1.199,0.977-2.156,2.183-2.156h14.123c1.206,0,2.183,0.957,2.183,2.156V38.814z"/>
				</g>
			</g>
			<g>
				<rect x="39.401" y="42.205" fill="#E1E1E1" width="110.019" height="1.507"/>
			</g>
			<g>
				<path fill="#F38E22" d="M40.916,1.531c0,0.32-0.261,0.579-0.582,0.579h-1.866c-0.322,0-0.582-0.259-0.582-0.579V1.483
					c0-0.32,0.261-0.579,0.582-0.579h1.866c0.322,0,0.582,0.259,0.582,0.579V1.531z"/>
			</g>
			<g>
				<path fill="#F38E22" d="M150.633,1.531c0,0.32-0.26,0.579-0.582,0.579h-1.867c-0.321,0-0.582-0.259-0.582-0.579V1.483
					c0-0.32,0.26-0.579,0.582-0.579h1.867c0.321,0,0.582,0.259,0.582,0.579V1.531z"/>
			</g>
			<g>
				<g>
					<path fill="#E1E1E1" d="M126.083,38.814c0,1.198-0.977,2.185-2.183,2.185h-14.123c-1.206,0-2.183-0.987-2.183-2.185V4.869
						c0-1.199,0.977-2.156,2.183-2.156H123.9c1.206,0,2.183,0.957,2.183,2.156V38.814z"/>
				</g>
			</g>
		</g>
		<g>
			<rect x="61.829" y="47.33" fill="#AFAFAF" width="9.093" height="2.713"/>
		</g>
		<g>
			<rect x="61.829" y="50.043" fill="#333333" width="9.093" height="2.713"/>
		</g>
	</g>
	<g>
		<path fill="#AC3F42" d="M52.713,6.142h2.021l1.214,4.693h-1.94l-0.18-0.965h-3.154l-0.964,0.965h-1.871L52.713,6.142z
			 M51.469,9.062h2.173l-0.354-1.847L51.469,9.062z"/>
		<path fill="#AC3F42" d="M65.127,6.591c0.14,0.119,0.235,0.251,0.287,0.395c0.053,0.145,0.044,0.31-0.025,0.494
			c-0.09,0.223-0.278,0.441-0.566,0.657c-0.289,0.216-0.687,0.368-1.194,0.457c0.36,0.087,0.592,0.211,0.694,0.371
			s0.09,0.404-0.038,0.733l-0.121,0.315c-0.082,0.214-0.122,0.359-0.122,0.437c0,0.12,0.073,0.21,0.221,0.267l-0.041,0.118h-1.969
			c-0.016-0.104-0.023-0.188-0.023-0.252c0.004-0.131,0.03-0.266,0.081-0.404l0.157-0.436c0.108-0.3,0.086-0.499-0.067-0.599
			c-0.152-0.1-0.492-0.149-1.02-0.149h-1.847l-0.709,1.84h-1.748l1.817-4.693h4.2c0.597,0.007,1.042,0.047,1.336,0.121
			C64.724,6.337,64.956,6.447,65.127,6.591z M60.323,6.957l-0.488,1.261h2.027c0.402,0,0.715-0.025,0.936-0.076
			c0.391-0.089,0.639-0.266,0.743-0.528c0.108-0.285,0.01-0.476-0.296-0.573c-0.175-0.056-0.455-0.083-0.843-0.083H60.323z"/>
		<path fill="#AC3F42" d="M73.119,6.142h2.573l-1.817,4.693h-1.668l1.227-3.174c0.038-0.092,0.092-0.22,0.159-0.384
			c0.067-0.165,0.117-0.292,0.148-0.381l-3.143,3.938h-1.737l-0.087-3.938c-0.031,0.089-0.076,0.216-0.137,0.381
			c-0.06,0.164-0.109,0.292-0.148,0.384l-1.226,3.174h-1.667l1.818-4.693h2.603l0.122,3.69L73.119,6.142z"/>
		<path fill="#AC3F42" d="M79.805,6.142h2.021l1.214,4.693H81.1l-0.18-0.965h-3.154l-0.964,0.965h-1.871L79.805,6.142z
			 M78.562,9.062h2.173l-0.354-1.847L78.562,9.062z"/>
		<path fill="#AC3F42" d="M85.98,9.387c-0.026,0.214,0.018,0.374,0.134,0.48c0.217,0.193,0.678,0.29,1.383,0.29
			c0.422,0,0.774-0.025,1.058-0.077c0.538-0.098,0.857-0.278,0.958-0.544c0.062-0.155-0.016-0.275-0.232-0.36
			c-0.213-0.082-0.573-0.155-1.08-0.22l-0.866-0.111c-0.848-0.11-1.417-0.229-1.707-0.359c-0.492-0.217-0.649-0.555-0.471-1.016
			c0.162-0.42,0.577-0.77,1.243-1.048c0.666-0.277,1.539-0.417,2.619-0.417c0.902,0,1.621,0.132,2.155,0.394
			c0.535,0.262,0.721,0.643,0.558,1.142h-1.719c0.081-0.282-0.064-0.483-0.436-0.602c-0.248-0.079-0.579-0.118-0.994-0.118
			c-0.461,0-0.849,0.051-1.164,0.152C87.102,7.076,86.91,7.217,86.84,7.4c-0.066,0.168,0.021,0.293,0.262,0.376
			c0.15,0.056,0.497,0.12,1.039,0.194l1.4,0.194c0.611,0.085,1.055,0.198,1.33,0.341c0.426,0.221,0.558,0.54,0.395,0.958
			c-0.166,0.429-0.604,0.784-1.312,1.068c-0.709,0.283-1.609,0.425-2.701,0.425c-1.115,0-1.938-0.14-2.469-0.419
			s-0.701-0.662-0.511-1.15H85.98z"/>
	</g>
	<g>
		<polygon points="47.539,11.623 43.734,14.921 151.845,14.921 151.845,11.623 		"/>
	</g>
	<g>
		<path fill="#FFFFFF" d="M48.06,12.397v1.342h0.807v0.304h-1.17v-1.646H48.06z"/>
		<path fill="#FFFFFF" d="M50.444,12.884c0.037-0.105,0.091-0.197,0.16-0.275s0.154-0.14,0.256-0.185
			c0.102-0.044,0.215-0.066,0.342-0.066c0.128,0,0.242,0.022,0.343,0.066c0.101,0.045,0.186,0.106,0.255,0.185
			s0.123,0.17,0.16,0.275s0.056,0.22,0.056,0.343c0,0.119-0.019,0.231-0.056,0.335s-0.091,0.194-0.16,0.271
			c-0.069,0.077-0.154,0.138-0.255,0.182c-0.101,0.043-0.215,0.065-0.343,0.065c-0.127,0-0.24-0.022-0.342-0.065
			c-0.102-0.044-0.187-0.104-0.256-0.182c-0.069-0.076-0.123-0.167-0.16-0.271s-0.056-0.216-0.056-0.335
			C50.388,13.104,50.407,12.99,50.444,12.884z M50.777,13.428c0.016,0.065,0.042,0.124,0.077,0.177
			c0.035,0.052,0.082,0.094,0.139,0.125c0.058,0.032,0.127,0.048,0.209,0.048s0.151-0.016,0.208-0.048
			c0.058-0.031,0.104-0.073,0.14-0.125c0.035-0.053,0.062-0.111,0.077-0.177c0.017-0.065,0.024-0.133,0.024-0.201
			c0-0.072-0.008-0.143-0.024-0.21c-0.016-0.067-0.042-0.128-0.077-0.181c-0.036-0.054-0.082-0.096-0.14-0.127
			c-0.057-0.031-0.126-0.048-0.208-0.048s-0.151,0.017-0.209,0.048c-0.057,0.031-0.104,0.073-0.139,0.127
			c-0.035,0.053-0.062,0.113-0.077,0.181c-0.017,0.067-0.024,0.138-0.024,0.21C50.753,13.295,50.76,13.363,50.777,13.428z"/>
		<path fill="#FFFFFF" d="M54.633,14.03c-0.078,0.033-0.158,0.05-0.238,0.05c-0.127,0-0.24-0.022-0.342-0.065
			c-0.102-0.044-0.187-0.104-0.256-0.182c-0.069-0.076-0.123-0.167-0.16-0.271s-0.056-0.216-0.056-0.335
			c0-0.123,0.019-0.237,0.056-0.343s0.091-0.197,0.16-0.275s0.154-0.14,0.256-0.185c0.102-0.044,0.215-0.066,0.342-0.066
			c0.085,0,0.167,0.013,0.247,0.038c0.079,0.025,0.151,0.062,0.215,0.111c0.064,0.05,0.117,0.11,0.159,0.183
			c0.041,0.072,0.067,0.155,0.076,0.249h-0.348c-0.021-0.093-0.063-0.162-0.125-0.208s-0.137-0.069-0.225-0.069
			c-0.082,0-0.151,0.017-0.209,0.048c-0.057,0.031-0.104,0.073-0.139,0.127c-0.035,0.053-0.062,0.113-0.077,0.181
			c-0.017,0.067-0.024,0.138-0.024,0.21c0,0.068,0.008,0.136,0.024,0.201c0.016,0.065,0.042,0.124,0.077,0.177
			c0.035,0.052,0.082,0.094,0.139,0.125c0.058,0.032,0.127,0.048,0.209,0.048c0.12,0,0.214-0.03,0.279-0.092
			c0.065-0.061,0.104-0.148,0.114-0.264h-0.366v-0.27h0.695v0.89h-0.231l-0.037-0.187C54.784,13.939,54.713,13.996,54.633,14.03z"/>
		<path fill="#FFFFFF" d="M57.166,12.397v1.646h-0.363v-1.646H57.166z"/>
		<path fill="#FFFFFF" d="M59.153,13.637c0.021,0.038,0.047,0.069,0.08,0.093c0.033,0.024,0.072,0.042,0.117,0.054
			c0.045,0.011,0.091,0.017,0.139,0.017c0.033,0,0.067-0.003,0.104-0.008c0.037-0.006,0.072-0.016,0.104-0.031
			s0.06-0.036,0.081-0.063c0.021-0.026,0.032-0.061,0.032-0.103c0-0.044-0.014-0.08-0.043-0.108
			c-0.028-0.027-0.065-0.051-0.112-0.069c-0.046-0.018-0.099-0.034-0.157-0.048s-0.118-0.029-0.179-0.046
			c-0.062-0.016-0.122-0.034-0.181-0.057s-0.111-0.051-0.157-0.087c-0.047-0.035-0.084-0.079-0.112-0.132
			c-0.029-0.054-0.043-0.117-0.043-0.192c0-0.085,0.018-0.158,0.055-0.221c0.036-0.062,0.083-0.113,0.143-0.155
			c0.059-0.041,0.125-0.072,0.199-0.092c0.073-0.021,0.147-0.03,0.222-0.03c0.087,0,0.17,0.01,0.249,0.028
			c0.08,0.02,0.15,0.051,0.212,0.094c0.062,0.043,0.111,0.098,0.147,0.165c0.036,0.066,0.055,0.147,0.055,0.243h-0.353
			c-0.003-0.05-0.014-0.09-0.031-0.122s-0.041-0.058-0.07-0.076s-0.063-0.031-0.101-0.039c-0.038-0.008-0.079-0.012-0.124-0.012
			c-0.029,0-0.059,0.003-0.088,0.009c-0.029,0.007-0.057,0.018-0.08,0.032c-0.024,0.016-0.044,0.035-0.06,0.058
			c-0.016,0.023-0.023,0.053-0.023,0.088c0,0.032,0.007,0.059,0.019,0.078c0.013,0.021,0.037,0.039,0.073,0.056
			s0.087,0.034,0.15,0.051c0.064,0.017,0.148,0.038,0.252,0.064c0.03,0.006,0.073,0.018,0.129,0.033
			c0.055,0.017,0.108,0.042,0.163,0.077c0.054,0.035,0.101,0.083,0.14,0.142c0.04,0.06,0.06,0.135,0.06,0.228
			c0,0.075-0.015,0.145-0.044,0.209c-0.029,0.065-0.073,0.121-0.131,0.168c-0.059,0.047-0.13,0.083-0.216,0.109
			c-0.086,0.025-0.185,0.039-0.298,0.039c-0.091,0-0.18-0.012-0.265-0.033c-0.086-0.022-0.162-0.058-0.228-0.105
			s-0.118-0.108-0.156-0.182c-0.039-0.074-0.058-0.161-0.056-0.263h0.353C59.124,13.551,59.133,13.598,59.153,13.637z"/>
		<path fill="#FFFFFF" d="M61.639,12.702v-0.305h1.355v0.305h-0.496v1.341h-0.363v-1.341H61.639z"/>
		<path fill="#FFFFFF" d="M64.938,12.397v1.646h-0.363v-1.646H64.938z"/>
		<path fill="#FFFFFF" d="M67.71,12.836c-0.021-0.035-0.049-0.065-0.081-0.092c-0.032-0.025-0.069-0.046-0.109-0.061
			c-0.041-0.015-0.084-0.022-0.129-0.022c-0.082,0-0.151,0.017-0.209,0.048c-0.057,0.031-0.104,0.073-0.139,0.127
			c-0.035,0.053-0.062,0.113-0.077,0.181c-0.017,0.067-0.024,0.138-0.024,0.21c0,0.068,0.008,0.136,0.024,0.201
			c0.016,0.065,0.042,0.124,0.077,0.177c0.035,0.052,0.082,0.094,0.139,0.125c0.058,0.032,0.127,0.048,0.209,0.048
			c0.111,0,0.198-0.034,0.261-0.102s0.101-0.157,0.114-0.268h0.353c-0.01,0.103-0.033,0.196-0.072,0.279
			c-0.038,0.083-0.089,0.153-0.152,0.212c-0.063,0.058-0.138,0.103-0.223,0.134c-0.085,0.03-0.179,0.046-0.28,0.046
			c-0.127,0-0.24-0.022-0.342-0.065c-0.102-0.044-0.187-0.104-0.256-0.182c-0.069-0.076-0.123-0.167-0.16-0.271
			s-0.056-0.216-0.056-0.335c0-0.123,0.019-0.237,0.056-0.343s0.091-0.197,0.16-0.275s0.154-0.14,0.256-0.185
			c0.102-0.044,0.215-0.066,0.342-0.066c0.091,0,0.177,0.013,0.258,0.039s0.154,0.064,0.218,0.114
			c0.064,0.05,0.117,0.111,0.159,0.186c0.042,0.073,0.068,0.158,0.079,0.253h-0.353C67.746,12.909,67.731,12.87,67.71,12.836z"/>
		<path fill="#FFFFFF" d="M72.067,13.637c0.021,0.038,0.047,0.069,0.08,0.093c0.033,0.024,0.072,0.042,0.117,0.054
			c0.045,0.011,0.091,0.017,0.139,0.017c0.033,0,0.067-0.003,0.104-0.008c0.037-0.006,0.072-0.016,0.104-0.031
			s0.06-0.036,0.081-0.063c0.021-0.026,0.032-0.061,0.032-0.103c0-0.044-0.014-0.08-0.043-0.108
			c-0.028-0.027-0.065-0.051-0.112-0.069c-0.046-0.018-0.099-0.034-0.157-0.048s-0.118-0.029-0.179-0.046
			c-0.062-0.016-0.122-0.034-0.181-0.057s-0.111-0.051-0.157-0.087c-0.047-0.035-0.084-0.079-0.112-0.132
			c-0.029-0.054-0.043-0.117-0.043-0.192c0-0.085,0.018-0.158,0.055-0.221c0.036-0.062,0.083-0.113,0.143-0.155
			c0.059-0.041,0.125-0.072,0.199-0.092c0.073-0.021,0.147-0.03,0.222-0.03c0.087,0,0.17,0.01,0.249,0.028
			c0.08,0.02,0.15,0.051,0.212,0.094c0.062,0.043,0.111,0.098,0.147,0.165c0.036,0.066,0.055,0.147,0.055,0.243H72.67
			c-0.003-0.05-0.014-0.09-0.031-0.122s-0.041-0.058-0.07-0.076s-0.063-0.031-0.101-0.039c-0.038-0.008-0.079-0.012-0.124-0.012
			c-0.029,0-0.059,0.003-0.088,0.009c-0.029,0.007-0.057,0.018-0.08,0.032c-0.024,0.016-0.044,0.035-0.06,0.058
			c-0.016,0.023-0.023,0.053-0.023,0.088c0,0.032,0.007,0.059,0.019,0.078c0.013,0.021,0.037,0.039,0.073,0.056
			s0.087,0.034,0.15,0.051c0.064,0.017,0.148,0.038,0.252,0.064c0.03,0.006,0.073,0.018,0.129,0.033
			c0.055,0.017,0.108,0.042,0.163,0.077c0.054,0.035,0.101,0.083,0.14,0.142c0.04,0.06,0.06,0.135,0.06,0.228
			c0,0.075-0.015,0.145-0.044,0.209c-0.029,0.065-0.073,0.121-0.131,0.168c-0.059,0.047-0.13,0.083-0.216,0.109
			c-0.086,0.025-0.185,0.039-0.298,0.039c-0.091,0-0.18-0.012-0.265-0.033c-0.086-0.022-0.162-0.058-0.228-0.105
			s-0.118-0.108-0.156-0.182c-0.039-0.074-0.058-0.161-0.056-0.263h0.353C72.038,13.551,72.047,13.598,72.067,13.637z"/>
		<path fill="#FFFFFF" d="M75.922,12.397v0.305h-0.874v0.353h0.802v0.281h-0.802v0.403h0.893v0.304h-1.256v-1.646H75.922z"/>
		<path fill="#FFFFFF" d="M78.466,12.397c0.074,0,0.141,0.012,0.2,0.036c0.06,0.023,0.11,0.056,0.153,0.098
			c0.042,0.041,0.075,0.09,0.098,0.144c0.021,0.055,0.033,0.113,0.033,0.177c0,0.097-0.021,0.181-0.062,0.251
			c-0.041,0.071-0.107,0.125-0.2,0.161v0.005c0.045,0.013,0.082,0.031,0.111,0.057s0.053,0.056,0.071,0.09s0.032,0.072,0.041,0.114
			c0.008,0.041,0.014,0.083,0.018,0.124c0.001,0.026,0.003,0.057,0.004,0.093c0.002,0.035,0.005,0.071,0.009,0.107
			c0.004,0.037,0.01,0.072,0.019,0.105c0.008,0.033,0.021,0.061,0.038,0.084h-0.364c-0.02-0.052-0.032-0.114-0.037-0.187
			c-0.004-0.072-0.012-0.142-0.021-0.208c-0.013-0.086-0.039-0.148-0.079-0.188s-0.105-0.06-0.196-0.06h-0.364v0.643h-0.363v-1.646
			H78.466z M78.337,13.141c0.084,0,0.146-0.019,0.188-0.055c0.042-0.037,0.062-0.097,0.062-0.18c0-0.08-0.021-0.139-0.062-0.175
			c-0.041-0.036-0.104-0.054-0.188-0.054h-0.398v0.463H78.337z"/>
		<path fill="#FFFFFF" d="M80.955,14.042l-0.535-1.646h0.373l0.369,1.157h0.004l0.373-1.157h0.376l-0.55,1.646H80.955z"/>
		<path fill="#FFFFFF" d="M83.809,12.397v1.646h-0.363v-1.646H83.809z"/>
		<path fill="#FFFFFF" d="M86.581,12.836c-0.021-0.035-0.049-0.065-0.081-0.092c-0.032-0.025-0.069-0.046-0.109-0.061
			c-0.041-0.015-0.084-0.022-0.129-0.022c-0.082,0-0.151,0.017-0.209,0.048c-0.057,0.031-0.104,0.073-0.139,0.127
			c-0.035,0.053-0.062,0.113-0.077,0.181c-0.017,0.067-0.024,0.138-0.024,0.21c0,0.068,0.008,0.136,0.024,0.201
			c0.016,0.065,0.042,0.124,0.077,0.177c0.035,0.052,0.082,0.094,0.139,0.125c0.058,0.032,0.127,0.048,0.209,0.048
			c0.111,0,0.198-0.034,0.261-0.102s0.101-0.157,0.114-0.268h0.353c-0.01,0.103-0.033,0.196-0.072,0.279
			c-0.038,0.083-0.089,0.153-0.152,0.212c-0.063,0.058-0.138,0.103-0.223,0.134c-0.085,0.03-0.179,0.046-0.28,0.046
			c-0.127,0-0.24-0.022-0.342-0.065c-0.102-0.044-0.187-0.104-0.256-0.182c-0.069-0.076-0.123-0.167-0.16-0.271
			s-0.056-0.216-0.056-0.335c0-0.123,0.019-0.237,0.056-0.343s0.091-0.197,0.16-0.275s0.154-0.14,0.256-0.185
			c0.102-0.044,0.215-0.066,0.342-0.066c0.091,0,0.177,0.013,0.258,0.039s0.154,0.064,0.218,0.114
			c0.064,0.05,0.117,0.111,0.159,0.186c0.042,0.073,0.068,0.158,0.079,0.253h-0.353C86.617,12.909,86.602,12.87,86.581,12.836z"/>
		<path fill="#FFFFFF" d="M89.864,12.397v0.305H88.99v0.353h0.802v0.281H88.99v0.403h0.893v0.304h-1.256v-1.646H89.864z"/>
	</g>
</g>
</svg>
