<?xml version="1.0" encoding="utf-8"?>
<!-- Generator: Adobe Illustrator 17.0.0, SVG Export Plug-In . SVG Version: 6.00 Build 0)  -->
<!DOCTYPE svg PUBLIC "-//W3C//DTD SVG 1.1//EN" "http://www.w3.org/Graphics/SVG/1.1/DTD/svg11.dtd">
<svg version="1.1" id="Layer_1" xmlns="http://www.w3.org/2000/svg" xmlns:xlink="http://www.w3.org/1999/xlink" x="0px" y="0px"
	 width="70px" height="70px" viewBox="-3.58 -6.22 70 70" enable-background="new -3.58 -6.22 70 70" xml:space="preserve">
<g>
	<g>
		<g>
			
				<linearGradient id="SVGID_1_" gradientUnits="userSpaceOnUse" x1="-536.51" y1="271.035" x2="-476.16" y2="271.035" gradientTransform="matrix(1 0 0 -1 539 301.0601)">
				<stop  offset="0" style="stop-color:#B01E2D"/>
				<stop  offset="1" style="stop-color:#751E2D"/>
			</linearGradient>
			<path fill="url(#SVGID_1_)" d="M62.84,2.49H2.49v43.13h22.13l-1.59,10.22h-4.04v1.72h27.35v-1.72H42.3l-1.59-10.22h22.13
				C62.84,45.62,62.84,2.49,62.84,2.49z M24.94,55.84l0.48-3.06l0,0l0.51-3.42h0.02l0.58-3.73h12.28l0.24,1.51h-0.01l0.26,1.71h0.02
				l1.09,7L24.94,55.84L24.94,55.84z M60.96,43.9H4.38v-4.44h56.58C60.96,39.46,60.96,43.9,60.96,43.9z M60.96,37.73H4.38V4.21
				h56.58C60.96,4.21,60.96,37.73,60.96,37.73z"/>
		</g>
		<g>
			
				<linearGradient id="SVGID_2_" gradientUnits="userSpaceOnUse" x1="-518.23" y1="276.73" x2="-495.97" y2="276.73" gradientTransform="matrix(1 0 0 -1 539 301.0601)">
				<stop  offset="0" style="stop-color:#B01E2D"/>
				<stop  offset="1" style="stop-color:#751E2D"/>
			</linearGradient>
			<path fill="url(#SVGID_2_)" d="M23.11,28c1.03,0,1.9,0.61,2.21,1.45h4.99h8.79c1.34,0,2.43-1,2.43-2.22
				c0-1.23-1.09-2.22-2.43-2.22h-4.77c-2.16,0-3.92-1.61-3.92-3.58s1.76-3.58,3.92-3.58h4.15c0.31-0.84,1.19-1.45,2.21-1.45
				c1.29,0,2.34,0.96,2.34,2.13s-1.05,2.13-2.34,2.13c-1.03,0-1.9-0.61-2.21-1.45h-4.15c-1.34,0-2.43,1-2.43,2.22
				c0,1.23,1.09,2.22,2.43,2.22h4.77c2.16,0,3.92,1.61,3.92,3.58s-1.76,3.58-3.92,3.58h-8.79h-4.99c-0.31,0.84-1.19,1.45-2.21,1.45
				c-1.29,0-2.34-0.96-2.34-2.13C20.78,28.96,21.82,28,23.11,28z"/>
			
				<linearGradient id="SVGID_3_" gradientUnits="userSpaceOnUse" x1="-499.0201" y1="288.94" x2="-492.7606" y2="288.94" gradientTransform="matrix(1 0 0 -1 539 301.0601)">
				<stop  offset="0" style="stop-color:#B01E2D"/>
				<stop  offset="1" style="stop-color:#751E2D"/>
			</linearGradient>
			<path fill="url(#SVGID_3_)" d="M40.72,15.7c0.41,0,0.75-0.3,0.75-0.68V12.8h4.02c0.41,0,0.75-0.3,0.75-0.68v-2.9
				c0-0.38-0.33-0.68-0.75-0.68h-4.77c-0.41,0-0.75,0.3-0.75,0.68v2.9v2.9C39.98,15.39,40.31,15.7,40.72,15.7z"/>
			
				<linearGradient id="SVGID_4_" gradientUnits="userSpaceOnUse" x1="-519.9" y1="278.3501" x2="-512.22" y2="278.3501" gradientTransform="matrix(1 0 0 -1 539 301.0601)">
				<stop  offset="0" style="stop-color:#B01E2D"/>
				<stop  offset="1" style="stop-color:#751E2D"/>
			</linearGradient>
			<path fill="url(#SVGID_4_)" d="M19.1,21.64c0,0.78,0.29,1.55,0.83,2.17l3.01,3.46l3.01-3.45c0.53-0.62,0.83-1.39,0.83-2.17
				c0-1.93-1.72-3.5-3.84-3.5C20.82,18.14,19.1,19.71,19.1,21.64z M21.5,21.64c0-0.72,0.64-1.31,1.43-1.31s1.43,0.59,1.43,1.31
				s-0.64,1.31-1.43,1.31C22.15,22.94,21.5,22.36,21.5,21.64z"/>
		</g>
	</g>
	<g>
		<g>
			<path fill="#FFFFFF" d="M60.35,0H0v43.13h22.13l-1.59,10.22H16.5v1.72h27.35v-1.72h-4.04l-1.59-10.22h22.13V0z M22.45,53.35
				l0.48-3.06l0,0l0.51-3.42h0.02l0.58-3.73h12.28l0.24,1.51h-0.01l0.26,1.71h0.02l1.09,7L22.45,53.35L22.45,53.35z M58.47,41.41
				H1.89v-4.44h56.58V41.41z M58.47,35.24H1.89V1.72h56.58V35.24z"/>
		</g>
		<g>
			<path fill="#FFFFFF" d="M20.62,25.51c1.03,0,1.9,0.61,2.21,1.45h4.99h8.79c1.34,0,2.43-1,2.43-2.22c0-1.23-1.09-2.22-2.43-2.22
				h-4.77c-2.16,0-3.92-1.61-3.92-3.58s1.76-3.58,3.92-3.58H36c0.31-0.84,1.19-1.45,2.21-1.45c1.29,0,2.34,0.96,2.34,2.13
				s-1.05,2.13-2.34,2.13c-1.03,0-1.9-0.61-2.21-1.45h-4.15c-1.34,0-2.43,1-2.43,2.22c0,1.23,1.09,2.22,2.43,2.22h4.77
				c2.16,0,3.92,1.61,3.92,3.58s-1.76,3.58-3.92,3.58h-8.79h-4.99c-0.31,0.84-1.19,1.45-2.21,1.45c-1.29,0-2.34-0.96-2.34-2.13
				C18.28,26.46,19.33,25.51,20.62,25.51z"/>
			<path fill="#FFFFFF" d="M38.23,13.21c0.41,0,0.75-0.3,0.75-0.68V10.3H43c0.41,0,0.75-0.3,0.75-0.68v-2.9
				c0-0.38-0.33-0.68-0.75-0.68h-4.77c-0.41,0-0.75,0.3-0.75,0.68v2.9v2.9C37.49,12.9,37.82,13.21,38.23,13.21z"/>
			<path fill="#FFFFFF" d="M16.6,19.15c0,0.78,0.29,1.55,0.83,2.17l3.01,3.46l3.01-3.45c0.53-0.62,0.83-1.39,0.83-2.17
				c0-1.93-1.72-3.5-3.84-3.5C18.33,15.64,16.6,17.22,16.6,19.15z M19.01,19.15c0-0.72,0.64-1.31,1.43-1.31s1.43,0.59,1.43,1.31
				s-0.64,1.31-1.43,1.31C19.65,20.45,19.01,19.87,19.01,19.15z"/>
		</g>
	</g>
</g>
</svg>
