<?xml version="1.0" encoding="utf-8"?>
<!-- Generator: Adobe Illustrator 17.0.0, SVG Export Plug-In . SVG Version: 6.00 Build 0)  -->
<!DOCTYPE svg PUBLIC "-//W3C//DTD SVG 1.1//EN" "http://www.w3.org/Graphics/SVG/1.1/DTD/svg11.dtd">
<svg version="1.1" id="Layer_1" xmlns="http://www.w3.org/2000/svg" xmlns:xlink="http://www.w3.org/1999/xlink" x="0px" y="0px"
	 width="284.48px" height="112.13px" viewBox="0 0 284.48 112.13" enable-background="new 0 0 284.48 112.13" xml:space="preserve">
<g>
	<g>
		<g>
			<rect x="225.48" y="86.01" fill="#4D4E4E" width="15.18" height="7.55"/>
		</g>
		<g>
			<rect x="227.1" y="86.01" fill="#E5E5E4" width="1.63" height="5.93"/>
		</g>
		<g>
			<rect x="237.41" y="86.01" fill="#E5E5E4" width="1.63" height="5.93"/>
		</g>
		<g>
			<path fill="#333333" d="M242.83,94.47c0,1.29-1.05,2.33-2.34,2.33H226.2c-1.29,0-2.34-1.04-2.34-2.33v-0.19
				c0-1.29,1.05-2.33,2.34-2.33h14.29c1.29,0,2.34,1.04,2.34,2.33L242.83,94.47L242.83,94.47z"/>
		</g>
	</g>
	<g>
		<rect x="164.2" y="82.24" fill="#333333" width="84.59" height="4.31"/>
	</g>
	<g>
		<g>
			<polygon fill="#D8D8D7" points="258.01,90.87 249.73,90.87 245.82,79.54 258.01,79.54 			"/>
		</g>
		<g>
			<path fill="#C0272D" d="M256.93,87.13c0,0.57-0.47,1.04-1.04,1.04h-4.96c-0.58,0-1.04-0.46-1.04-1.04v-0.08
				c0-0.57,0.47-1.04,1.04-1.04h4.96c0.58,0,1.04,0.46,1.04,1.04V87.13z"/>
		</g>
		<g>
			<path fill="#333333" d="M258.55,96.02c0,0.43-0.35,0.78-0.78,0.78h-8.2c-0.43,0-0.78-0.35-0.78-0.78v-5.46
				c0-0.43,0.35-0.78,0.78-0.78h8.2c0.43,0,0.78,0.35,0.78,0.78V96.02z"/>
		</g>
	</g>
	<g>
		<path fill="#333333" d="M86.93,79.96c-0.829,0-1.5-0.672-1.5-1.5v-32.4l-5.082-1.189c-0.807-0.188-1.308-0.996-1.119-1.802
			c0.188-0.806,0.993-1.309,1.802-1.119l6.24,1.46c0.678,0.159,1.158,0.764,1.158,1.46V78.46C88.43,79.288,87.759,79.96,86.93,79.96
			z"/>
	</g>
	<g>
		<path fill="#333333" d="M205.41,95.18H55.36c-7.33,0-12.49-2.69-12.49-9.98l0,0c0-7.29,5.16-9.98,12.49-9.98h32.4l4.76,3.85
			c2.13,0,112.89-0.08,112.89-0.08V95.18z"/>
	</g>
	<g>
		<path fill="#A5C56F" d="M80.11,32.08h-0.29c-0.08,0-0.15,0.02-0.23,0.02l-0.02-0.02H42.09l-6.98,11.54l-6.55,19.94l-0.07,30.01
			H52.5c0-12.41,11.45-12.94,11.45-12.94h20V43.85v-5.97v-1.31C83.95,34.29,82.4,32.08,80.11,32.08z"/>
	</g>
	<g>
		<path fill="#333333" d="M76.36,35.85v18.33c0,0-3.47,5.85-37.57,10.12c0,0,1.73-20.9,12.93-28.45
			C51.72,35.85,76.36,35.85,76.36,35.85z"/>
	</g>
	<g>
		<rect x="69.85" y="66.6" fill="#4D4E4E" width="5.96" height="9.71"/>
	</g>
	<g>
		<rect x="69.85" y="73.07" fill="#676767" width="5.96" height="3.24"/>
	</g>
	<g>
		<path fill="#FFFFFF" d="M44.91,90.13c0,1-0.82,1.82-1.83,1.82h-7.19c-1.01,0-1.83-0.81-1.83-1.82v-0.14c0-1,0.82-1.82,1.83-1.82
			h7.19c1.01,0,1.83,0.81,1.83,1.82V90.13z"/>
	</g>
	<g>
		<path fill="#F69220" d="M44.91,90.33c0,1.05-0.56,1.61-1.62,1.61H38.4v-3.78h4.89c1.06,0,1.62,0.76,1.62,1.82V90.33z"/>
	</g>
	<g>
		<path fill="#333333" d="M42.09,32.44c0,0-13.6,10.55-13.53,32.88c0,0,2.15,0.14,2.28-0.91C32.91,46.71,40.43,37.88,42.09,32.44z"
			/>
	</g>
	<g>
		<path fill="#979797" d="M29.73,89.29c0,0.57-0.47,1.04-1.04,1.04H28.6c-0.58,0-1.04-0.47-1.04-1.04V74.11
			c0-0.57,0.47-1.04,1.04-1.04h0.08c0.58,0,1.04,0.47,1.04,1.04L29.73,89.29L29.73,89.29z"/>
	</g>
	<g>
		<path fill="#676767" d="M54.13,95.52c0,1-0.82,1.82-1.83,1.82H27.76c-1.01,0-1.83-0.81-1.83-1.82v-0.14c0-1,0.82-1.82,1.83-1.82
			H52.3c1.01,0,1.83,0.81,1.83,1.82V95.52z"/>
	</g>
	<g>
		<path fill="#E5E5E4" d="M41.99,32.08c0,0,4.2-20.64,42.26-20.55c0,0,1.07,15.03-0.59,17.85c0,0-1.27,2.7-2.83,2.7
			C79.28,32.08,41.99,32.08,41.99,32.08z"/>
	</g>
	<g>
		<g>
			<ellipse fill="#333333" cx="71.47" cy="96.42" rx="13.37" ry="13.3"/>
		</g>
		<g>
			<g>
				<ellipse fill="#CBCBCA" cx="71.47" cy="96.42" rx="8.69" ry="8.64"/>
			</g>
			<g>
				<ellipse fill="#E5E5E4" cx="71.47" cy="96.42" rx="2.54" ry="2.52"/>
				<path fill="#333333" d="M71.47,99.44c-1.676,0-3.04-1.354-3.04-3.02s1.364-3.021,3.04-3.021s3.04,1.355,3.04,3.021
					S73.146,99.44,71.47,99.44z M71.47,94.4c-1.125,0-2.04,0.906-2.04,2.021c0,1.113,0.915,2.02,2.04,2.02s2.04-0.906,2.04-2.02
					C73.51,95.306,72.595,94.4,71.47,94.4z"/>
			</g>
			<g>
				<rect x="68.77" y="89.25" fill="#333333" width="4.34" height="1.08"/>
			</g>
			<g>
				<rect x="68.77" y="102.73" fill="#333333" width="4.34" height="1.08"/>
			</g>
			<g>
				<rect x="76.36" y="94.64" fill="#333333" width="1.08" height="3.78"/>
			</g>
			<g>
				<rect x="63.89" y="94.64" fill="#333333" width="1.08" height="3.78"/>
			</g>
		</g>
	</g>
	<g>
		<rect x="104.01" y="89.79" fill="#808080" width="93.81" height="3.78"/>
	</g>
	<g>
		<g>
			<ellipse fill="#333333" cx="206.29" cy="96.42" rx="13.37" ry="13.3"/>
		</g>
		<g>
			<g>
				<ellipse fill="#CBCBCA" cx="206.29" cy="96.42" rx="8.69" ry="8.64"/>
			</g>
			<g>
				<ellipse fill="#E5E5E4" cx="206.29" cy="96.42" rx="2.54" ry="2.52"/>
				<path fill="#333333" d="M206.29,99.44c-1.677,0-3.04-1.354-3.04-3.02s1.363-3.021,3.04-3.021s3.04,1.355,3.04,3.021
					S207.967,99.44,206.29,99.44z M206.29,94.4c-1.125,0-2.04,0.906-2.04,2.021c0,1.113,0.915,2.02,2.04,2.02s2.04-0.906,2.04-2.02
					C208.33,95.306,207.415,94.4,206.29,94.4z"/>
			</g>
			<g>
				<rect x="203.79" y="89.25" fill="#333333" width="3.8" height="1.08"/>
			</g>
			<g>
				<rect x="203.79" y="102.73" fill="#333333" width="3.8" height="1.08"/>
			</g>
			<g>
				<rect x="211.38" y="94.64" fill="#333333" width="1.08" height="3.78"/>
			</g>
			<g>
				<rect x="198.91" y="94.64" fill="#333333" width="1.08" height="3.78"/>
			</g>
		</g>
	</g>
	<g>
		<path fill="#8AA25C" d="M34.92,83.431V66.11c-0.54-14.877,9.955-30.016,10.061-30.167l0.818,0.574
			c-0.104,0.148-10.407,15.019-9.879,29.574l0,16.338l15.683-0.02c0.725-1.244,4.086-6.06,12.657-6.06v1
			c-9.012,0-11.882,5.72-11.91,5.777l-0.136,0.282L34.92,83.431z"/>
	</g>
	<g>
		<path fill="#676767" d="M45.45,67.78c0,0.54-0.44,0.97-0.98,0.97h-5.1c-0.54,0-0.98-0.44-0.98-0.97v-0.21
			c0-0.54,0.44-0.97,0.98-0.97h5.1c0.54,0,0.98,0.44,0.98,0.97V67.78z"/>
	</g>
	<g>
		<rect x="91" y="88.17" fill="#676767" width="20.06" height="8.63"/>
	</g>
	<g>
		<g>
			<path fill="#4D4E4E" d="M58.99,35.85l-4.07,26c5.61-1.09,9.83-2.32,13-3.35l3.56-22.65C71.48,35.85,58.99,35.85,58.99,35.85z"/>
		</g>
	</g>
	<g>
		<g>
			<rect x="92.08" y="2.41" fill="#D8D8D7" width="165.93" height="80.36"/>
		</g>
		<g>
			<g>
				<path fill="#E5E5E4" d="M131.67,71.88c0,2.14-1.75,3.88-3.9,3.88H102.5c-2.16,0-3.9-1.74-3.9-3.88V11.15
					c0-2.14,1.75-3.88,3.9-3.88h25.27c2.16,0,3.9,1.74,3.9,3.88V71.88z"/>
			</g>
			<g>
				<path fill="#E5E5E4" d="M171.25,71.87c0,2.14-1.21,3.9-3.36,3.9h-25.27c-2.16,0-4.45-1.75-4.45-3.9V11.14
					c0-2.14,2.29-3.87,4.45-3.87h25.27c2.16,0,3.36,1.73,3.36,3.87V71.87z"/>
			</g>
			<g>
				<path fill="#E5E5E4" d="M211.92,71.88c0,2.14-1.75,3.88-3.9,3.88h-25.27c-2.16,0-3.9-1.74-3.9-3.88V11.15
					c0-2.14,1.75-3.88,3.9-3.88h25.27c2.16,0,3.9,1.74,3.9,3.88V71.88z"/>
			</g>
		</g>
		<g>
			<rect x="96.42" y="77.92" fill="#E5E5E4" width="158.34" height="2.7"/>
		</g>
		<g>
			<path fill="#F69220" d="M99.13,5.15c0,0.57-0.47,1.04-1.04,1.04h-3.34c-0.58,0-1.04-0.46-1.04-1.04V5.07
				c0-0.57,0.47-1.04,1.04-1.04h3.34c0.58,0,1.04,0.46,1.04,1.04V5.15z"/>
		</g>
		<g>
			<path fill="#F69220" d="M255.84,5.15c0,0.57-0.47,1.04-1.04,1.04h-3.34c-0.58,0-1.04-0.46-1.04-1.04V5.07
				c0-0.57,0.47-1.04,1.04-1.04h3.34c0.58,0,1.04,0.46,1.04,1.04V5.15z"/>
		</g>
		<g>
			<g>
				<path fill="#E5E5E4" d="M251.5,71.87c0,2.14-1.21,3.9-3.36,3.9h-25.27c-2.16,0-4.45-1.75-4.45-3.9V11.14
					c0-2.14,2.29-3.87,4.45-3.87h25.27c2.16,0,3.36,1.73,3.36,3.87V71.87z"/>
			</g>
		</g>
	</g>
	<g>
		<rect x="131.67" y="87.09" fill="#B3B2B3" width="16.27" height="4.85"/>
	</g>
	<g>
		<rect x="131.67" y="91.95" fill="#333333" width="16.27" height="4.85"/>
	</g>
	<g enable-background="new    ">
		<path fill="#B03F42" d="M120.237,13.402h3.617l2.172,8.396h-3.471l-0.322-1.726h-5.644l-1.725,1.726h-3.347L120.237,13.402z
			 M118.013,18.626h3.887l-0.634-3.304L118.013,18.626z"/>
		<path fill="#B03F42" d="M142.448,14.206c0.249,0.212,0.421,0.448,0.514,0.706c0.094,0.258,0.078,0.553-0.047,0.883
			c-0.159,0.399-0.497,0.791-1.013,1.176c-0.516,0.386-1.228,0.658-2.136,0.817c0.645,0.156,1.058,0.377,1.242,0.664
			c0.183,0.287,0.161,0.725-0.068,1.313l-0.218,0.564c-0.146,0.384-0.218,0.644-0.218,0.78c0,0.217,0.132,0.376,0.395,0.479
			l-0.073,0.211h-3.523c-0.027-0.186-0.042-0.336-0.042-0.45c0.007-0.235,0.056-0.476,0.146-0.723l0.281-0.78
			c0.194-0.536,0.154-0.893-0.12-1.071c-0.274-0.179-0.882-0.268-1.824-0.268h-3.305l-1.268,3.292h-3.128l3.253-8.396h7.514
			c1.067,0.011,1.864,0.083,2.39,0.216C141.727,13.752,142.142,13.947,142.448,14.206z M133.852,14.86l-0.873,2.256h3.627
			c0.721,0,1.278-0.045,1.673-0.137c0.7-0.16,1.144-0.475,1.331-0.946c0.194-0.509,0.017-0.851-0.53-1.025
			c-0.312-0.099-0.814-0.148-1.507-0.148H133.852z"/>
		<path fill="#B03F42" d="M156.748,13.402h4.604l-3.253,8.396h-2.983l2.193-5.679c0.069-0.163,0.164-0.392,0.286-0.686
			c0.121-0.294,0.209-0.521,0.265-0.681l-5.623,7.046h-3.107l-0.155-7.046c-0.056,0.159-0.137,0.386-0.244,0.681
			c-0.107,0.294-0.196,0.523-0.266,0.686l-2.192,5.679h-2.983l3.253-8.396h4.656l0.219,6.602L156.748,13.402z"/>
		<path fill="#B03F42" d="M168.711,13.402h3.616l2.173,8.396h-3.472l-0.322-1.726h-5.644l-1.725,1.726h-3.347L168.711,13.402z
			 M166.486,18.626h3.888l-0.635-3.304L166.486,18.626z"/>
		<path fill="#B03F42" d="M179.759,19.207c-0.049,0.384,0.031,0.67,0.239,0.86c0.388,0.345,1.212,0.518,2.474,0.518
			c0.755,0,1.386-0.045,1.892-0.137c0.963-0.174,1.534-0.499,1.715-0.974c0.11-0.277-0.028-0.492-0.416-0.644
			c-0.381-0.148-1.025-0.279-1.934-0.393l-1.548-0.199c-1.518-0.197-2.536-0.412-3.056-0.644c-0.88-0.387-1.161-0.993-0.842-1.817
			c0.291-0.751,1.032-1.376,2.224-1.874c1.191-0.497,2.754-0.746,4.688-0.746c1.614,0,2.899,0.235,3.855,0.704
			c0.956,0.469,1.289,1.15,0.998,2.042h-3.076c0.146-0.505-0.114-0.864-0.779-1.077c-0.443-0.14-1.036-0.21-1.777-0.21
			c-0.825,0-1.52,0.091-2.084,0.273c-0.564,0.182-0.909,0.437-1.034,0.763c-0.118,0.3,0.038,0.524,0.468,0.672
			c0.271,0.099,0.891,0.215,1.86,0.348l2.505,0.348c1.095,0.152,1.888,0.355,2.38,0.609c0.762,0.395,0.998,0.966,0.707,1.714
			c-0.298,0.767-1.081,1.404-2.35,1.911c-1.268,0.507-2.879,0.76-4.832,0.76c-1.996,0-3.468-0.25-4.417-0.749
			c-0.95-0.499-1.255-1.186-0.915-2.059H179.759z"/>
	</g>
	<g>
		<polygon points="110.98,23.21 104.17,29.11 258.01,29.11 258.01,23.21 		"/>
	</g>
	<g enable-background="new    ">
		<path fill="#FFFFFF" d="M111.915,24.597v2.399h1.442v0.544h-2.094v-2.944H111.915z"/>
		<path fill="#FFFFFF" d="M114.687,25.469c0.066-0.188,0.162-0.353,0.286-0.493c0.125-0.14,0.277-0.25,0.458-0.33
			c0.182-0.08,0.385-0.119,0.611-0.119c0.229,0,0.435,0.04,0.614,0.119c0.18,0.08,0.331,0.19,0.456,0.33
			c0.124,0.14,0.22,0.304,0.285,0.493c0.066,0.188,0.1,0.393,0.1,0.612c0,0.214-0.033,0.414-0.1,0.6
			c-0.065,0.186-0.161,0.347-0.285,0.485c-0.125,0.137-0.276,0.245-0.456,0.323c-0.18,0.079-0.385,0.118-0.614,0.118
			c-0.227,0-0.43-0.039-0.611-0.118c-0.181-0.078-0.333-0.186-0.458-0.323c-0.124-0.138-0.22-0.299-0.286-0.485
			c-0.065-0.186-0.099-0.385-0.099-0.6C114.589,25.861,114.622,25.657,114.687,25.469z M115.283,26.442
			c0.028,0.117,0.075,0.222,0.139,0.315c0.063,0.093,0.146,0.168,0.248,0.225c0.103,0.056,0.227,0.084,0.373,0.084
			s0.271-0.028,0.373-0.084c0.103-0.056,0.186-0.131,0.249-0.225c0.063-0.094,0.11-0.199,0.139-0.315
			c0.029-0.117,0.044-0.237,0.044-0.361c0-0.129-0.015-0.254-0.044-0.375c-0.028-0.121-0.075-0.229-0.139-0.323
			c-0.063-0.095-0.146-0.17-0.249-0.227c-0.102-0.056-0.227-0.084-0.373-0.084s-0.271,0.028-0.373,0.084
			c-0.102,0.057-0.185,0.132-0.248,0.227c-0.063,0.095-0.11,0.203-0.139,0.323c-0.029,0.121-0.044,0.246-0.044,0.375
			C115.239,26.205,115.254,26.325,115.283,26.442z"/>
		<path fill="#FFFFFF" d="M120.69,27.518c-0.142,0.059-0.283,0.088-0.428,0.088c-0.227,0-0.43-0.039-0.611-0.118
			c-0.181-0.078-0.333-0.186-0.458-0.323c-0.124-0.138-0.22-0.299-0.286-0.485c-0.065-0.186-0.099-0.385-0.099-0.6
			c0-0.22,0.033-0.424,0.099-0.612c0.066-0.188,0.162-0.353,0.286-0.493c0.125-0.14,0.277-0.25,0.458-0.33
			c0.182-0.08,0.385-0.119,0.611-0.119c0.152,0,0.3,0.022,0.442,0.068c0.142,0.045,0.271,0.112,0.385,0.2
			c0.115,0.088,0.21,0.197,0.284,0.326c0.074,0.129,0.12,0.278,0.137,0.445h-0.622c-0.038-0.165-0.113-0.289-0.224-0.371
			c-0.11-0.082-0.244-0.124-0.402-0.124c-0.146,0-0.271,0.028-0.373,0.084c-0.102,0.057-0.185,0.132-0.248,0.227
			c-0.063,0.095-0.11,0.203-0.139,0.323c-0.029,0.121-0.044,0.246-0.044,0.375c0,0.124,0.015,0.244,0.044,0.361
			c0.028,0.117,0.075,0.222,0.139,0.315c0.063,0.093,0.146,0.168,0.248,0.225c0.103,0.056,0.227,0.084,0.373,0.084
			c0.216,0,0.383-0.054,0.5-0.163c0.117-0.108,0.186-0.266,0.205-0.472h-0.655v-0.482h1.244v1.591h-0.415l-0.066-0.334
			C120.96,27.355,120.831,27.459,120.69,27.518z"/>
		<path fill="#FFFFFF" d="M123.728,24.597v2.944h-0.65v-2.944H123.728z"/>
		<path fill="#FFFFFF" d="M125.793,26.815c0.036,0.069,0.084,0.125,0.143,0.167c0.06,0.042,0.13,0.074,0.21,0.095
			s0.163,0.031,0.248,0.031c0.059,0,0.121-0.004,0.188-0.014c0.065-0.01,0.128-0.028,0.187-0.056
			c0.058-0.027,0.105-0.065,0.145-0.113c0.039-0.048,0.059-0.109,0.059-0.184c0-0.08-0.026-0.145-0.077-0.194
			s-0.118-0.091-0.201-0.124c-0.083-0.033-0.177-0.062-0.282-0.087c-0.104-0.024-0.211-0.052-0.318-0.082
			c-0.111-0.028-0.219-0.062-0.323-0.101c-0.105-0.04-0.199-0.091-0.282-0.155c-0.083-0.063-0.15-0.142-0.201-0.237
			c-0.051-0.095-0.077-0.209-0.077-0.344c0-0.151,0.033-0.282,0.098-0.394c0.065-0.111,0.15-0.204,0.255-0.278
			c0.105-0.074,0.225-0.129,0.356-0.165c0.133-0.036,0.266-0.053,0.398-0.053c0.154,0,0.303,0.017,0.445,0.051
			c0.143,0.035,0.269,0.09,0.38,0.167c0.11,0.077,0.198,0.175,0.263,0.295c0.065,0.12,0.098,0.265,0.098,0.435h-0.63
			c-0.006-0.088-0.024-0.161-0.057-0.219c-0.031-0.058-0.073-0.103-0.126-0.136c-0.053-0.033-0.112-0.056-0.181-0.07
			c-0.067-0.014-0.142-0.021-0.222-0.021c-0.053,0-0.104,0.005-0.157,0.016c-0.053,0.011-0.101,0.03-0.144,0.058
			c-0.043,0.027-0.078,0.062-0.105,0.103c-0.027,0.041-0.041,0.093-0.041,0.157c0,0.058,0.011,0.104,0.033,0.14
			c0.021,0.036,0.065,0.068,0.13,0.099c0.065,0.03,0.155,0.061,0.27,0.091c0.115,0.03,0.265,0.069,0.45,0.116
			c0.055,0.011,0.132,0.031,0.229,0.06c0.099,0.029,0.196,0.075,0.293,0.138c0.097,0.063,0.18,0.148,0.25,0.253
			c0.071,0.106,0.106,0.241,0.106,0.406c0,0.135-0.026,0.26-0.079,0.375c-0.053,0.116-0.131,0.215-0.234,0.299
			c-0.104,0.084-0.231,0.149-0.386,0.196c-0.153,0.046-0.33,0.07-0.532,0.07c-0.163,0-0.321-0.02-0.475-0.06
			c-0.153-0.04-0.289-0.103-0.406-0.188c-0.117-0.085-0.211-0.193-0.28-0.326c-0.068-0.132-0.102-0.289-0.099-0.47h0.63
			C125.739,26.662,125.757,26.746,125.793,26.815z"/>
		<path fill="#FFFFFF" d="M128.748,25.141v-0.544h2.426v0.544h-0.888v2.399h-0.65v-2.399H128.748z"/>
		<path fill="#FFFFFF" d="M133.159,24.597v2.944h-0.651v-2.944H133.159z"/>
		<path fill="#FFFFFF" d="M136.624,25.382c-0.038-0.062-0.087-0.116-0.145-0.163c-0.059-0.047-0.124-0.083-0.197-0.109
			c-0.073-0.026-0.149-0.039-0.23-0.039c-0.146,0-0.271,0.028-0.373,0.084c-0.102,0.057-0.185,0.132-0.248,0.227
			c-0.063,0.095-0.11,0.203-0.139,0.323c-0.029,0.121-0.044,0.246-0.044,0.375c0,0.124,0.015,0.244,0.044,0.361
			c0.028,0.117,0.075,0.222,0.139,0.315c0.063,0.093,0.146,0.168,0.248,0.225c0.103,0.056,0.227,0.084,0.373,0.084
			c0.199,0,0.354-0.061,0.467-0.182c0.112-0.121,0.181-0.28,0.205-0.478h0.63c-0.017,0.184-0.06,0.351-0.128,0.499
			c-0.069,0.148-0.16,0.275-0.273,0.379c-0.113,0.104-0.246,0.185-0.398,0.239c-0.152,0.055-0.319,0.083-0.502,0.083
			c-0.227,0-0.43-0.039-0.611-0.118c-0.181-0.078-0.333-0.186-0.458-0.323c-0.124-0.138-0.22-0.299-0.286-0.485
			c-0.065-0.186-0.099-0.385-0.099-0.6c0-0.22,0.033-0.424,0.099-0.612c0.066-0.188,0.162-0.353,0.286-0.493
			c0.125-0.14,0.277-0.25,0.458-0.33c0.182-0.08,0.385-0.119,0.611-0.119c0.163,0,0.317,0.023,0.463,0.07
			c0.145,0.047,0.274,0.115,0.39,0.204c0.114,0.089,0.209,0.2,0.284,0.332c0.074,0.132,0.121,0.283,0.141,0.454h-0.63
			C136.687,25.512,136.663,25.444,136.624,25.382z"/>
		<path fill="#FFFFFF" d="M141.437,26.815c0.035,0.069,0.083,0.125,0.143,0.167s0.129,0.074,0.209,0.095s0.163,0.031,0.249,0.031
			c0.058,0,0.12-0.004,0.187-0.014s0.129-0.028,0.187-0.056s0.106-0.065,0.146-0.113c0.038-0.048,0.058-0.109,0.058-0.184
			c0-0.08-0.025-0.145-0.077-0.194c-0.051-0.049-0.117-0.091-0.2-0.124c-0.083-0.033-0.178-0.062-0.282-0.087
			c-0.105-0.024-0.212-0.052-0.319-0.082c-0.11-0.028-0.218-0.062-0.323-0.101c-0.105-0.04-0.199-0.091-0.282-0.155
			c-0.082-0.063-0.149-0.142-0.2-0.237c-0.052-0.095-0.077-0.209-0.077-0.344c0-0.151,0.032-0.282,0.098-0.394
			c0.064-0.111,0.149-0.204,0.255-0.278c0.104-0.074,0.224-0.129,0.356-0.165c0.133-0.036,0.266-0.053,0.397-0.053
			c0.155,0,0.304,0.017,0.446,0.051c0.142,0.035,0.269,0.09,0.379,0.167c0.11,0.077,0.198,0.175,0.264,0.295
			c0.064,0.12,0.097,0.265,0.097,0.435h-0.63c-0.006-0.088-0.024-0.161-0.056-0.219c-0.032-0.058-0.074-0.103-0.127-0.136
			c-0.052-0.033-0.112-0.056-0.18-0.07c-0.068-0.014-0.142-0.021-0.222-0.021c-0.053,0-0.105,0.005-0.158,0.016
			c-0.052,0.011-0.1,0.03-0.143,0.058c-0.043,0.027-0.078,0.062-0.105,0.103c-0.028,0.041-0.042,0.093-0.042,0.157
			c0,0.058,0.011,0.104,0.033,0.14s0.065,0.068,0.131,0.099c0.064,0.03,0.154,0.061,0.27,0.091c0.114,0.03,0.265,0.069,0.449,0.116
			c0.056,0.011,0.132,0.031,0.23,0.06c0.098,0.029,0.195,0.075,0.292,0.138c0.097,0.063,0.181,0.148,0.251,0.253
			c0.07,0.106,0.105,0.241,0.105,0.406c0,0.135-0.026,0.26-0.078,0.375c-0.053,0.116-0.131,0.215-0.234,0.299
			c-0.104,0.084-0.232,0.149-0.386,0.196c-0.153,0.046-0.331,0.07-0.532,0.07c-0.163,0-0.321-0.02-0.475-0.06
			c-0.154-0.04-0.289-0.103-0.406-0.188c-0.118-0.085-0.211-0.193-0.28-0.326c-0.069-0.132-0.103-0.289-0.1-0.47h0.63
			C141.383,26.662,141.401,26.746,141.437,26.815z"/>
		<path fill="#FFFFFF" d="M146.838,24.597v0.544h-1.562v0.631h1.435v0.503h-1.435v0.721h1.596v0.544h-2.246v-2.944H146.838z"/>
		<path fill="#FFFFFF" d="M149.901,24.597c0.133,0,0.252,0.021,0.358,0.064s0.197,0.101,0.273,0.175s0.134,0.16,0.174,0.258
			c0.04,0.097,0.061,0.203,0.061,0.315c0,0.173-0.037,0.323-0.109,0.449c-0.073,0.126-0.193,0.223-0.359,0.289v0.008
			c0.08,0.022,0.146,0.056,0.199,0.101s0.096,0.099,0.129,0.161s0.057,0.13,0.072,0.204s0.025,0.148,0.031,0.223
			c0.003,0.047,0.005,0.102,0.008,0.165c0.003,0.063,0.008,0.127,0.015,0.194c0.007,0.066,0.019,0.128,0.033,0.188
			c0.016,0.059,0.038,0.109,0.068,0.15h-0.65c-0.036-0.093-0.059-0.205-0.066-0.334c-0.009-0.129-0.021-0.253-0.037-0.371
			c-0.022-0.154-0.069-0.267-0.142-0.338c-0.071-0.072-0.189-0.107-0.353-0.107h-0.65v1.15h-0.65v-2.944H149.901z M149.669,25.928
			c0.149,0,0.262-0.033,0.336-0.099s0.112-0.173,0.112-0.322c0-0.143-0.038-0.247-0.112-0.311c-0.074-0.065-0.187-0.097-0.336-0.097
			h-0.713v0.829H149.669z"/>
		<path fill="#FFFFFF" d="M152.861,27.541l-0.958-2.944h0.667l0.659,2.07h0.009l0.667-2.07h0.672l-0.982,2.944H152.861z"/>
		<path fill="#FFFFFF" d="M156.475,24.597v2.944h-0.65v-2.944H156.475z"/>
		<path fill="#FFFFFF" d="M159.941,25.382c-0.039-0.062-0.087-0.116-0.146-0.163c-0.058-0.047-0.124-0.083-0.196-0.109
			c-0.073-0.026-0.15-0.039-0.23-0.039c-0.146,0-0.271,0.028-0.373,0.084c-0.103,0.057-0.186,0.132-0.249,0.227
			c-0.063,0.095-0.109,0.203-0.139,0.323c-0.029,0.121-0.044,0.246-0.044,0.375c0,0.124,0.015,0.244,0.044,0.361
			c0.029,0.117,0.075,0.222,0.139,0.315c0.063,0.093,0.146,0.168,0.249,0.225s0.227,0.084,0.373,0.084
			c0.199,0,0.354-0.061,0.466-0.182c0.112-0.121,0.181-0.28,0.206-0.478h0.63c-0.017,0.184-0.06,0.351-0.129,0.499
			s-0.16,0.275-0.273,0.379c-0.113,0.104-0.246,0.185-0.397,0.239c-0.152,0.055-0.319,0.083-0.502,0.083
			c-0.227,0-0.431-0.039-0.611-0.118c-0.182-0.078-0.334-0.186-0.458-0.323c-0.125-0.138-0.22-0.299-0.286-0.485s-0.1-0.385-0.1-0.6
			c0-0.22,0.033-0.424,0.1-0.612s0.161-0.353,0.286-0.493c0.124-0.14,0.276-0.25,0.458-0.33c0.181-0.08,0.385-0.119,0.611-0.119
			c0.163,0,0.317,0.023,0.462,0.07c0.146,0.047,0.275,0.115,0.39,0.204c0.115,0.089,0.21,0.2,0.284,0.332s0.122,0.283,0.141,0.454
			h-0.63C160.005,25.512,159.979,25.444,159.941,25.382z"/>
		<path fill="#FFFFFF" d="M164.322,24.597v0.544h-1.562v0.631h1.435v0.503h-1.435v0.721h1.596v0.544h-2.246v-2.944H164.322z"/>
	</g>
	<g>
		<g enable-background="new    ">
			<path fill="#B03F42" d="M120.237,13.402h3.617l2.172,8.396h-3.471l-0.322-1.726h-5.644l-1.725,1.726h-3.347L120.237,13.402z
				 M118.013,18.626h3.887l-0.634-3.304L118.013,18.626z"/>
			<path fill="#B03F42" d="M142.448,14.206c0.249,0.212,0.421,0.448,0.514,0.706c0.094,0.258,0.078,0.553-0.047,0.883
				c-0.159,0.399-0.497,0.791-1.013,1.176c-0.516,0.386-1.228,0.658-2.136,0.817c0.645,0.156,1.058,0.377,1.242,0.664
				c0.183,0.287,0.161,0.725-0.068,1.313l-0.218,0.564c-0.146,0.384-0.218,0.644-0.218,0.78c0,0.217,0.132,0.376,0.395,0.479
				l-0.073,0.211h-3.523c-0.027-0.186-0.042-0.336-0.042-0.45c0.007-0.235,0.056-0.476,0.146-0.723l0.281-0.78
				c0.194-0.536,0.154-0.893-0.12-1.071c-0.274-0.179-0.882-0.268-1.824-0.268h-3.305l-1.268,3.292h-3.128l3.253-8.396h7.514
				c1.067,0.011,1.864,0.083,2.39,0.216C141.727,13.752,142.142,13.947,142.448,14.206z M133.852,14.86l-0.873,2.256h3.627
				c0.721,0,1.278-0.045,1.673-0.137c0.7-0.16,1.144-0.475,1.331-0.946c0.194-0.509,0.017-0.851-0.53-1.025
				c-0.312-0.099-0.814-0.148-1.507-0.148H133.852z"/>
			<path fill="#B03F42" d="M156.748,13.402h4.604l-3.253,8.396h-2.983l2.193-5.679c0.069-0.163,0.164-0.392,0.286-0.686
				c0.121-0.294,0.209-0.521,0.265-0.681l-5.623,7.046h-3.107l-0.155-7.046c-0.056,0.159-0.137,0.386-0.244,0.681
				c-0.107,0.294-0.196,0.523-0.266,0.686l-2.192,5.679h-2.983l3.253-8.396h4.656l0.219,6.602L156.748,13.402z"/>
			<path fill="#B03F42" d="M168.711,13.402h3.616l2.173,8.396h-3.472l-0.322-1.726h-5.644l-1.725,1.726h-3.347L168.711,13.402z
				 M166.486,18.626h3.888l-0.635-3.304L166.486,18.626z"/>
			<path fill="#B03F42" d="M179.759,19.207c-0.049,0.384,0.031,0.67,0.239,0.86c0.388,0.345,1.212,0.518,2.474,0.518
				c0.755,0,1.386-0.045,1.892-0.137c0.963-0.174,1.534-0.499,1.715-0.974c0.11-0.277-0.028-0.492-0.416-0.644
				c-0.381-0.148-1.025-0.279-1.934-0.393l-1.548-0.199c-1.518-0.197-2.536-0.412-3.056-0.644c-0.88-0.387-1.161-0.993-0.842-1.817
				c0.291-0.751,1.032-1.376,2.224-1.874c1.191-0.497,2.754-0.746,4.688-0.746c1.614,0,2.899,0.235,3.855,0.704
				c0.956,0.469,1.289,1.15,0.998,2.042h-3.076c0.146-0.505-0.114-0.864-0.779-1.077c-0.443-0.14-1.036-0.21-1.777-0.21
				c-0.825,0-1.52,0.091-2.084,0.273c-0.564,0.182-0.909,0.437-1.034,0.763c-0.118,0.3,0.038,0.524,0.468,0.672
				c0.271,0.099,0.891,0.215,1.86,0.348l2.505,0.348c1.095,0.152,1.888,0.355,2.38,0.609c0.762,0.395,0.998,0.966,0.707,1.714
				c-0.298,0.767-1.081,1.404-2.35,1.911c-1.268,0.507-2.879,0.76-4.832,0.76c-1.996,0-3.468-0.25-4.417-0.749
				c-0.95-0.499-1.255-1.186-0.915-2.059H179.759z"/>
		</g>
		<g>
			<polygon points="110.98,23.21 104.17,29.11 258.01,29.11 258.01,23.21 			"/>
		</g>
		<g enable-background="new    ">
			<path fill="#FFFFFF" d="M111.915,24.597v2.399h1.442v0.544h-2.094v-2.944H111.915z"/>
			<path fill="#FFFFFF" d="M114.687,25.469c0.066-0.188,0.162-0.353,0.286-0.493c0.125-0.14,0.277-0.25,0.458-0.33
				c0.182-0.08,0.385-0.119,0.611-0.119c0.229,0,0.435,0.04,0.614,0.119c0.18,0.08,0.331,0.19,0.456,0.33
				c0.124,0.14,0.22,0.304,0.285,0.493c0.066,0.188,0.1,0.393,0.1,0.612c0,0.214-0.033,0.414-0.1,0.6
				c-0.065,0.186-0.161,0.347-0.285,0.485c-0.125,0.137-0.276,0.245-0.456,0.323c-0.18,0.079-0.385,0.118-0.614,0.118
				c-0.227,0-0.43-0.039-0.611-0.118c-0.181-0.078-0.333-0.186-0.458-0.323c-0.124-0.138-0.22-0.299-0.286-0.485
				c-0.065-0.186-0.099-0.385-0.099-0.6C114.589,25.861,114.622,25.657,114.687,25.469z M115.283,26.442
				c0.028,0.117,0.075,0.222,0.139,0.315c0.063,0.093,0.146,0.168,0.248,0.225c0.103,0.056,0.227,0.084,0.373,0.084
				s0.271-0.028,0.373-0.084c0.103-0.056,0.186-0.131,0.249-0.225c0.063-0.094,0.11-0.199,0.139-0.315
				c0.029-0.117,0.044-0.237,0.044-0.361c0-0.129-0.015-0.254-0.044-0.375c-0.028-0.121-0.075-0.229-0.139-0.323
				c-0.063-0.095-0.146-0.17-0.249-0.227c-0.102-0.056-0.227-0.084-0.373-0.084s-0.271,0.028-0.373,0.084
				c-0.102,0.057-0.185,0.132-0.248,0.227c-0.063,0.095-0.11,0.203-0.139,0.323c-0.029,0.121-0.044,0.246-0.044,0.375
				C115.239,26.205,115.254,26.325,115.283,26.442z"/>
			<path fill="#FFFFFF" d="M120.69,27.518c-0.142,0.059-0.283,0.088-0.428,0.088c-0.227,0-0.43-0.039-0.611-0.118
				c-0.181-0.078-0.333-0.186-0.458-0.323c-0.124-0.138-0.22-0.299-0.286-0.485c-0.065-0.186-0.099-0.385-0.099-0.6
				c0-0.22,0.033-0.424,0.099-0.612c0.066-0.188,0.162-0.353,0.286-0.493c0.125-0.14,0.277-0.25,0.458-0.33
				c0.182-0.08,0.385-0.119,0.611-0.119c0.152,0,0.3,0.022,0.442,0.068c0.142,0.045,0.271,0.112,0.385,0.2
				c0.115,0.088,0.21,0.197,0.284,0.326c0.074,0.129,0.12,0.278,0.137,0.445h-0.622c-0.038-0.165-0.113-0.289-0.224-0.371
				c-0.11-0.082-0.244-0.124-0.402-0.124c-0.146,0-0.271,0.028-0.373,0.084c-0.102,0.057-0.185,0.132-0.248,0.227
				c-0.063,0.095-0.11,0.203-0.139,0.323c-0.029,0.121-0.044,0.246-0.044,0.375c0,0.124,0.015,0.244,0.044,0.361
				c0.028,0.117,0.075,0.222,0.139,0.315c0.063,0.093,0.146,0.168,0.248,0.225c0.103,0.056,0.227,0.084,0.373,0.084
				c0.216,0,0.383-0.054,0.5-0.163c0.117-0.108,0.186-0.266,0.205-0.472h-0.655v-0.482h1.244v1.591h-0.415l-0.066-0.334
				C120.96,27.355,120.831,27.459,120.69,27.518z"/>
			<path fill="#FFFFFF" d="M123.728,24.597v2.944h-0.65v-2.944H123.728z"/>
			<path fill="#FFFFFF" d="M125.793,26.815c0.036,0.069,0.084,0.125,0.143,0.167c0.06,0.042,0.13,0.074,0.21,0.095
				s0.163,0.031,0.248,0.031c0.059,0,0.121-0.004,0.188-0.014c0.065-0.01,0.128-0.028,0.187-0.056
				c0.058-0.027,0.105-0.065,0.145-0.113c0.039-0.048,0.059-0.109,0.059-0.184c0-0.08-0.026-0.145-0.077-0.194
				s-0.118-0.091-0.201-0.124c-0.083-0.033-0.177-0.062-0.282-0.087c-0.104-0.024-0.211-0.052-0.318-0.082
				c-0.111-0.028-0.219-0.062-0.323-0.101c-0.105-0.04-0.199-0.091-0.282-0.155c-0.083-0.063-0.15-0.142-0.201-0.237
				c-0.051-0.095-0.077-0.209-0.077-0.344c0-0.151,0.033-0.282,0.098-0.394c0.065-0.111,0.15-0.204,0.255-0.278
				c0.105-0.074,0.225-0.129,0.356-0.165c0.133-0.036,0.266-0.053,0.398-0.053c0.154,0,0.303,0.017,0.445,0.051
				c0.143,0.035,0.269,0.09,0.38,0.167c0.11,0.077,0.198,0.175,0.263,0.295c0.065,0.12,0.098,0.265,0.098,0.435h-0.63
				c-0.006-0.088-0.024-0.161-0.057-0.219c-0.031-0.058-0.073-0.103-0.126-0.136c-0.053-0.033-0.112-0.056-0.181-0.07
				c-0.067-0.014-0.142-0.021-0.222-0.021c-0.053,0-0.104,0.005-0.157,0.016c-0.053,0.011-0.101,0.03-0.144,0.058
				c-0.043,0.027-0.078,0.062-0.105,0.103c-0.027,0.041-0.041,0.093-0.041,0.157c0,0.058,0.011,0.104,0.033,0.14
				c0.021,0.036,0.065,0.068,0.13,0.099c0.065,0.03,0.155,0.061,0.27,0.091c0.115,0.03,0.265,0.069,0.45,0.116
				c0.055,0.011,0.132,0.031,0.229,0.06c0.099,0.029,0.196,0.075,0.293,0.138c0.097,0.063,0.18,0.148,0.25,0.253
				c0.071,0.106,0.106,0.241,0.106,0.406c0,0.135-0.026,0.26-0.079,0.375c-0.053,0.116-0.131,0.215-0.234,0.299
				c-0.104,0.084-0.231,0.149-0.386,0.196c-0.153,0.046-0.33,0.07-0.532,0.07c-0.163,0-0.321-0.02-0.475-0.06
				c-0.153-0.04-0.289-0.103-0.406-0.188c-0.117-0.085-0.211-0.193-0.28-0.326c-0.068-0.132-0.102-0.289-0.099-0.47h0.63
				C125.739,26.662,125.757,26.746,125.793,26.815z"/>
			<path fill="#FFFFFF" d="M128.748,25.141v-0.544h2.426v0.544h-0.888v2.399h-0.65v-2.399H128.748z"/>
			<path fill="#FFFFFF" d="M133.159,24.597v2.944h-0.651v-2.944H133.159z"/>
			<path fill="#FFFFFF" d="M136.624,25.382c-0.038-0.062-0.087-0.116-0.145-0.163c-0.059-0.047-0.124-0.083-0.197-0.109
				c-0.073-0.026-0.149-0.039-0.23-0.039c-0.146,0-0.271,0.028-0.373,0.084c-0.102,0.057-0.185,0.132-0.248,0.227
				c-0.063,0.095-0.11,0.203-0.139,0.323c-0.029,0.121-0.044,0.246-0.044,0.375c0,0.124,0.015,0.244,0.044,0.361
				c0.028,0.117,0.075,0.222,0.139,0.315c0.063,0.093,0.146,0.168,0.248,0.225c0.103,0.056,0.227,0.084,0.373,0.084
				c0.199,0,0.354-0.061,0.467-0.182c0.112-0.121,0.181-0.28,0.205-0.478h0.63c-0.017,0.184-0.06,0.351-0.128,0.499
				c-0.069,0.148-0.16,0.275-0.273,0.379c-0.113,0.104-0.246,0.185-0.398,0.239c-0.152,0.055-0.319,0.083-0.502,0.083
				c-0.227,0-0.43-0.039-0.611-0.118c-0.181-0.078-0.333-0.186-0.458-0.323c-0.124-0.138-0.22-0.299-0.286-0.485
				c-0.065-0.186-0.099-0.385-0.099-0.6c0-0.22,0.033-0.424,0.099-0.612c0.066-0.188,0.162-0.353,0.286-0.493
				c0.125-0.14,0.277-0.25,0.458-0.33c0.182-0.08,0.385-0.119,0.611-0.119c0.163,0,0.317,0.023,0.463,0.07
				c0.145,0.047,0.274,0.115,0.39,0.204c0.114,0.089,0.209,0.2,0.284,0.332c0.074,0.132,0.121,0.283,0.141,0.454h-0.63
				C136.687,25.512,136.663,25.444,136.624,25.382z"/>
			<path fill="#FFFFFF" d="M141.437,26.815c0.035,0.069,0.083,0.125,0.143,0.167s0.129,0.074,0.209,0.095s0.163,0.031,0.249,0.031
				c0.058,0,0.12-0.004,0.187-0.014s0.129-0.028,0.187-0.056s0.106-0.065,0.146-0.113c0.038-0.048,0.058-0.109,0.058-0.184
				c0-0.08-0.025-0.145-0.077-0.194c-0.051-0.049-0.117-0.091-0.2-0.124c-0.083-0.033-0.178-0.062-0.282-0.087
				c-0.105-0.024-0.212-0.052-0.319-0.082c-0.11-0.028-0.218-0.062-0.323-0.101c-0.105-0.04-0.199-0.091-0.282-0.155
				c-0.082-0.063-0.149-0.142-0.2-0.237c-0.052-0.095-0.077-0.209-0.077-0.344c0-0.151,0.032-0.282,0.098-0.394
				c0.064-0.111,0.149-0.204,0.255-0.278c0.104-0.074,0.224-0.129,0.356-0.165c0.133-0.036,0.266-0.053,0.397-0.053
				c0.155,0,0.304,0.017,0.446,0.051c0.142,0.035,0.269,0.09,0.379,0.167c0.11,0.077,0.198,0.175,0.264,0.295
				c0.064,0.12,0.097,0.265,0.097,0.435h-0.63c-0.006-0.088-0.024-0.161-0.056-0.219c-0.032-0.058-0.074-0.103-0.127-0.136
				c-0.052-0.033-0.112-0.056-0.18-0.07c-0.068-0.014-0.142-0.021-0.222-0.021c-0.053,0-0.105,0.005-0.158,0.016
				c-0.052,0.011-0.1,0.03-0.143,0.058c-0.043,0.027-0.078,0.062-0.105,0.103c-0.028,0.041-0.042,0.093-0.042,0.157
				c0,0.058,0.011,0.104,0.033,0.14s0.065,0.068,0.131,0.099c0.064,0.03,0.154,0.061,0.27,0.091c0.114,0.03,0.265,0.069,0.449,0.116
				c0.056,0.011,0.132,0.031,0.23,0.06c0.098,0.029,0.195,0.075,0.292,0.138c0.097,0.063,0.181,0.148,0.251,0.253
				c0.07,0.106,0.105,0.241,0.105,0.406c0,0.135-0.026,0.26-0.078,0.375c-0.053,0.116-0.131,0.215-0.234,0.299
				c-0.104,0.084-0.232,0.149-0.386,0.196c-0.153,0.046-0.331,0.07-0.532,0.07c-0.163,0-0.321-0.02-0.475-0.06
				c-0.154-0.04-0.289-0.103-0.406-0.188c-0.118-0.085-0.211-0.193-0.28-0.326c-0.069-0.132-0.103-0.289-0.1-0.47h0.63
				C141.383,26.662,141.401,26.746,141.437,26.815z"/>
			<path fill="#FFFFFF" d="M146.838,24.597v0.544h-1.562v0.631h1.435v0.503h-1.435v0.721h1.596v0.544h-2.246v-2.944H146.838z"/>
			<path fill="#FFFFFF" d="M149.901,24.597c0.133,0,0.252,0.021,0.358,0.064s0.197,0.101,0.273,0.175s0.134,0.16,0.174,0.258
				c0.04,0.097,0.061,0.203,0.061,0.315c0,0.173-0.037,0.323-0.109,0.449c-0.073,0.126-0.193,0.223-0.359,0.289v0.008
				c0.08,0.022,0.146,0.056,0.199,0.101s0.096,0.099,0.129,0.161s0.057,0.13,0.072,0.204s0.025,0.148,0.031,0.223
				c0.003,0.047,0.005,0.102,0.008,0.165c0.003,0.063,0.008,0.127,0.015,0.194c0.007,0.066,0.019,0.128,0.033,0.188
				c0.016,0.059,0.038,0.109,0.068,0.15h-0.65c-0.036-0.093-0.059-0.205-0.066-0.334c-0.009-0.129-0.021-0.253-0.037-0.371
				c-0.022-0.154-0.069-0.267-0.142-0.338c-0.071-0.072-0.189-0.107-0.353-0.107h-0.65v1.15h-0.65v-2.944H149.901z M149.669,25.928
				c0.149,0,0.262-0.033,0.336-0.099s0.112-0.173,0.112-0.322c0-0.143-0.038-0.247-0.112-0.311
				c-0.074-0.065-0.187-0.097-0.336-0.097h-0.713v0.829H149.669z"/>
			<path fill="#FFFFFF" d="M152.861,27.541l-0.958-2.944h0.667l0.659,2.07h0.009l0.667-2.07h0.672l-0.982,2.944H152.861z"/>
			<path fill="#FFFFFF" d="M156.475,24.597v2.944h-0.65v-2.944H156.475z"/>
			<path fill="#FFFFFF" d="M159.941,25.382c-0.039-0.062-0.087-0.116-0.146-0.163c-0.058-0.047-0.124-0.083-0.196-0.109
				c-0.073-0.026-0.15-0.039-0.23-0.039c-0.146,0-0.271,0.028-0.373,0.084c-0.103,0.057-0.186,0.132-0.249,0.227
				c-0.063,0.095-0.109,0.203-0.139,0.323c-0.029,0.121-0.044,0.246-0.044,0.375c0,0.124,0.015,0.244,0.044,0.361
				c0.029,0.117,0.075,0.222,0.139,0.315c0.063,0.093,0.146,0.168,0.249,0.225s0.227,0.084,0.373,0.084
				c0.199,0,0.354-0.061,0.466-0.182c0.112-0.121,0.181-0.28,0.206-0.478h0.63c-0.017,0.184-0.06,0.351-0.129,0.499
				s-0.16,0.275-0.273,0.379c-0.113,0.104-0.246,0.185-0.397,0.239c-0.152,0.055-0.319,0.083-0.502,0.083
				c-0.227,0-0.431-0.039-0.611-0.118c-0.182-0.078-0.334-0.186-0.458-0.323c-0.125-0.138-0.22-0.299-0.286-0.485
				s-0.1-0.385-0.1-0.6c0-0.22,0.033-0.424,0.1-0.612s0.161-0.353,0.286-0.493c0.124-0.14,0.276-0.25,0.458-0.33
				c0.181-0.08,0.385-0.119,0.611-0.119c0.163,0,0.317,0.023,0.462,0.07c0.146,0.047,0.275,0.115,0.39,0.204
				c0.115,0.089,0.21,0.2,0.284,0.332s0.122,0.283,0.141,0.454h-0.63C160.005,25.512,159.979,25.444,159.941,25.382z"/>
			<path fill="#FFFFFF" d="M164.322,24.597v0.544h-1.562v0.631h1.435v0.503h-1.435v0.721h1.596v0.544h-2.246v-2.944H164.322z"/>
		</g>
	</g>
</g>
</svg>
