<?xml version="1.0" encoding="utf-8"?>
<!-- Generator: Adobe Illustrator 17.0.0, SVG Export Plug-In . SVG Version: 6.00 Build 0)  -->
<!DOCTYPE svg PUBLIC "-//W3C//DTD SVG 1.1//EN" "http://www.w3.org/Graphics/SVG/1.1/DTD/svg11.dtd">
<svg version="1.1" id="Layer_1" xmlns="http://www.w3.org/2000/svg" xmlns:xlink="http://www.w3.org/1999/xlink" x="0px" y="0px"
	 width="284.48px" height="112.13px" viewBox="0 0 284.48 112.13" enable-background="new 0 0 284.48 112.13" xml:space="preserve">
<g>
	<g>
		<g>
			<rect x="210.01" y="85.46" fill="#4D4E4E" width="15.18" height="7.55"/>
		</g>
		<g>
			<rect x="211.64" y="85.46" fill="#E5E5E4" width="1.63" height="5.93"/>
		</g>
		<g>
			<rect x="221.94" y="85.46" fill="#E5E5E4" width="1.63" height="5.93"/>
		</g>
		<g>
			<path fill="#333333" d="M227.36,93.92c0,1.29-1.05,2.33-2.34,2.33h-14.29c-1.29,0-2.34-1.04-2.34-2.33v-0.19
				c0-1.29,1.05-2.33,2.34-2.33h14.29c1.29,0,2.34,1.04,2.34,2.33V93.92z"/>
		</g>
	</g>
	<g>
		<rect x="182.91" y="82.23" fill="#333333" width="47.17" height="4.31"/>
	</g>
	<g>
		<path fill="#333333" d="M105.64,79.95c-0.829,0-1.5-0.672-1.5-1.5V46.06l-5.082-1.189c-0.807-0.188-1.308-0.996-1.119-1.802
			c0.188-0.806,0.992-1.309,1.802-1.119l6.24,1.46c0.678,0.159,1.158,0.764,1.158,1.46v33.58
			C107.14,79.278,106.469,79.95,105.64,79.95z"/>
	</g>
	<g>
		<path fill="#333333" d="M192.12,95.17H73.54c-7.33,0-12.49-2.69-12.49-9.98l0,0c0-7.29,5.16-9.98,12.49-9.98h32.4l5.03,3.85
			c2.13,0,81.15-0.07,81.15-0.07V95.17z"/>
	</g>
	<g>
		<path fill="#F7E7A8" d="M98.28,32.07h-0.29c-0.08,0-0.15,0.02-0.23,0.02l-0.02-0.02H60.26l-6.98,11.54l-6.55,19.94l-0.07,30h24.01
			c0-12.4,11.45-12.94,11.45-12.94h20.54V43.85v-5.97v-1.31C102.66,34.3,100.57,32.07,98.28,32.07z"/>
	</g>
	<g>
		<path fill="#333333" d="M95.07,35.85v18.34c0,0-3.74,5.84-37.83,10.11c0,0,1.46-20.91,12.65-28.46h25.18V35.85z"/>
	</g>
	<g>
		<rect x="88.57" y="66.59" fill="#4D4E4E" width="5.96" height="9.71"/>
	</g>
	<g>
		<rect x="88.57" y="73.06" fill="#676767" width="5.96" height="3.24"/>
	</g>
	<g>
		<path fill="#FFFFFF" d="M63.63,90.12c0,1-0.82,1.82-1.83,1.82h-7.19c-1.01,0-1.83-0.81-1.83-1.82v-0.14c0-1,0.82-1.82,1.83-1.82
			h7.19c1.01,0,1.83,0.81,1.83,1.82V90.12z"/>
	</g>
	<g>
		<path fill="#F69220" d="M63.63,90.34c0,1.05-0.65,1.6-2.16,1.6h-4.35v-3.78h4.35c1.14-0.11,2.16,0.52,2.16,1.57V90.34z"/>
	</g>
	<g>
		<path fill="#333333" d="M60.26,32.45c0,0-13.6,10.55-13.53,32.88c0,0,2.15,0.14,2.28-0.91C51.09,46.72,58.6,37.88,60.26,32.45z"/>
	</g>
	<g>
		<path fill="#979797" d="M48.44,89.28c0,0.57-0.47,1.04-1.04,1.04h-0.08c-0.58,0-1.04-0.46-1.04-1.04V74.1
			c0-0.57,0.47-1.04,1.04-1.04h0.08c0.58,0,1.04,0.46,1.04,1.04V89.28z"/>
	</g>
	<g>
		<path fill="#676767" d="M72.84,95.51c0,1-0.82,1.82-1.83,1.82H46.48c-1.01,0-1.83-0.81-1.83-1.82v-0.14c0-1,0.82-1.82,1.83-1.82
			h24.54c1.01,0,1.83,0.81,1.83,1.82v0.14H72.84z"/>
	</g>
	<g>
		<path fill="#E5E5E4" d="M60.17,32.07c0,0,4.2-20.63,42.26-20.54c0,0,1.07,15.03-0.59,17.84c0,0-1.27,2.7-2.83,2.7
			C97.45,32.07,60.17,32.07,60.17,32.07z"/>
	</g>
	<g>
		<g>
			<ellipse fill="#333333" cx="89.64" cy="96.42" rx="13.37" ry="13.3"/>
		</g>
		<g>
			<g>
				<ellipse fill="#CBCBCA" cx="89.64" cy="96.42" rx="8.69" ry="8.64"/>
			</g>
			<g>
				<ellipse fill="#E5E5E4" cx="89.64" cy="96.42" rx="2.54" ry="2.52"/>
				<path fill="#333333" d="M89.64,99.44c-1.676,0-3.04-1.354-3.04-3.02s1.364-3.021,3.04-3.021s3.04,1.355,3.04,3.021
					S91.316,99.44,89.64,99.44z M89.64,94.4c-1.125,0-2.04,0.906-2.04,2.021c0,1.113,0.915,2.02,2.04,2.02s2.04-0.906,2.04-2.02
					C91.68,95.306,90.765,94.4,89.64,94.4z"/>
			</g>
			<g>
				<rect x="87.48" y="89.24" fill="#333333" width="4.34" height="1.08"/>
			</g>
			<g>
				<rect x="87.48" y="102.72" fill="#333333" width="4.34" height="1.08"/>
			</g>
			<g>
				<rect x="95.07" y="94.63" fill="#333333" width="1.08" height="3.78"/>
			</g>
			<g>
				<rect x="82.6" y="94.63" fill="#333333" width="1.08" height="3.78"/>
			</g>
		</g>
	</g>
	<g>
		<rect x="122.72" y="89.78" fill="#808080" width="59.1" height="3.78"/>
	</g>
	<g>
		<g>
			<ellipse fill="#333333" cx="191.92" cy="96.42" rx="13.37" ry="13.3"/>
		</g>
		<g>
			<g>
				<ellipse fill="#CBCBCA" cx="191.92" cy="96.42" rx="8.69" ry="8.64"/>
			</g>
			<g>
				<ellipse fill="#E5E5E4" cx="191.92" cy="96.42" rx="2.54" ry="2.52"/>
				<path fill="#333333" d="M191.92,99.44c-1.677,0-3.04-1.354-3.04-3.02s1.363-3.021,3.04-3.021s3.04,1.355,3.04,3.021
					S193.596,99.44,191.92,99.44z M191.92,94.4c-1.125,0-2.04,0.906-2.04,2.021c0,1.113,0.915,2.02,2.04,2.02s2.04-0.906,2.04-2.02
					C193.96,95.306,193.045,94.4,191.92,94.4z"/>
			</g>
			<g>
				<rect x="189.95" y="89.24" fill="#333333" width="3.8" height="1.08"/>
			</g>
			<g>
				<rect x="189.95" y="102.72" fill="#333333" width="3.8" height="1.08"/>
			</g>
			<g>
				<rect x="197.54" y="94.63" fill="#333333" width="1.08" height="3.78"/>
			</g>
			<g>
				<rect x="185.07" y="94.63" fill="#333333" width="1.08" height="3.78"/>
			</g>
		</g>
	</g>
	<g>
		<path fill="#D0C08F" d="M53.64,83.421V66.1c-0.54-14.864,9.684-30.001,9.788-30.152l0.825,0.564
			c-0.101,0.148-10.141,15.021-9.613,29.569l0,16.338l15.413-0.02c0.725-1.244,4.086-6.06,12.658-6.06v1
			c-8.978,0-11.795,5.542-11.911,5.778l-0.137,0.279L70.35,83.4L53.64,83.421z"/>
	</g>
	<g>
		<path fill="#676767" d="M64.17,67.77c0,0.54-0.44,0.97-0.98,0.97h-5.1c-0.54,0-0.98-0.43-0.98-0.97v-0.22
			c0-0.54,0.44-0.97,0.98-0.97h5.1c0.54,0,0.98,0.43,0.98,0.97V67.77z"/>
	</g>
	<g>
		<rect x="109.71" y="88.16" fill="#676767" width="20.06" height="8.63"/>
	</g>
	<g>
		<polygon fill="#D8D8D7" points="239.29,90.32 230.47,90.32 226.56,78.99 239.29,78.99 		"/>
	</g>
	<g>
		<g>
			<path fill="#4D4E4E" d="M77.16,35.85l-4.07,26.01c5.61-1.09,9.83-2.32,13-3.35l3.56-22.66C89.65,35.85,77.16,35.85,77.16,35.85z"
				/>
		</g>
	</g>
	<g>
		<g>
			<rect x="110.8" y="2.41" fill="#D8D8D7" width="128.5" height="80.35"/>
		</g>
		<g>
			<g>
				<path fill="#E5E5E4" d="M150.37,71.87c0,2.14-1.75,3.88-3.9,3.88H121.2c-2.16,0-3.9-1.74-3.9-3.88V11.15
					c0-2.14,1.75-3.88,3.9-3.88h25.27c2.16,0,3.9,1.74,3.9,3.88V71.87z"/>
			</g>
			<g>
				<path fill="#E5E5E4" d="M189.95,71.87c0,2.14-1.75,3.88-3.9,3.88h-25.26c-2.16,0-3.9-1.74-3.9-3.88V11.15
					c0-2.14,1.75-3.88,3.9-3.88h25.26c2.16,0,3.9,1.74,3.9,3.88V71.87z"/>
			</g>
			<g>
				<path fill="#E5E5E4" d="M230.62,71.87c0,2.14-1.75,3.88-3.9,3.88h-25.27c-2.16,0-3.9-1.74-3.9-3.88V11.15
					c0-2.14,1.75-3.88,3.9-3.88h25.27c2.16,0,3.9,1.74,3.9,3.88V71.87z"/>
			</g>
		</g>
		<g>
			<rect x="115.13" y="77.91" fill="#E5E5E4" width="117.65" height="2.7"/>
		</g>
		<g>
			<path fill="#F69220" d="M117.84,5.15c0,0.57-0.47,1.04-1.04,1.04h-3.34c-0.58,0-1.04-0.46-1.04-1.04V5.07
				c0-0.57,0.47-1.04,1.04-1.04h3.34c0.58,0,1.04,0.46,1.04,1.04V5.15z"/>
		</g>
		<g>
			<path fill="#F69220" d="M237.12,5.15c0,0.57-0.47,1.04-1.04,1.04h-3.34c-0.57,0-1.04-0.46-1.04-1.04V5.07
				c0-0.57,0.47-1.04,1.04-1.04h3.34c0.57,0,1.04,0.46,1.04,1.04V5.15z"/>
		</g>
	</g>
	<g>
		<rect x="150.37" y="87.08" fill="#B3B2B3" width="16.27" height="4.85"/>
	</g>
	<g>
		<rect x="150.37" y="91.93" fill="#333333" width="16.27" height="4.85"/>
	</g>
	<g>
		<path fill="#C0272D" d="M238.21,86.58c0,0.57-0.47,1.04-1.04,1.04h-4.96c-0.58,0-1.04-0.46-1.04-1.04V86.5
			c0-0.57,0.47-1.04,1.04-1.04h4.96c0.58,0,1.04,0.46,1.04,1.04V86.58z"/>
	</g>
	<g>
		<path fill="#333333" d="M239.83,95.47c0,0.43-0.35,0.78-0.78,0.78h-8.2c-0.43,0-0.78-0.35-0.78-0.78v-5.46
			c0-0.43,0.35-0.78,0.78-0.78h8.2c0.43,0,0.78,0.35,0.78,0.78V95.47z"/>
	</g>
</g>
</svg>
