<?xml version="1.0" encoding="utf-8"?>
<!-- Generator: Adobe Illustrator 17.0.0, SVG Export Plug-In . SVG Version: 6.00 Build 0)  -->
<!DOCTYPE svg PUBLIC "-//W3C//DTD SVG 1.1//EN" "http://www.w3.org/Graphics/SVG/1.1/DTD/svg11.dtd">
<svg version="1.1" id="Layer_1" xmlns="http://www.w3.org/2000/svg" xmlns:xlink="http://www.w3.org/1999/xlink" x="0px" y="0px"
	 width="668.5px" height="263.79px" viewBox="0 0 668.5 263.79" enable-background="new 0 0 668.5 263.79" xml:space="preserve">
<g>
	<path fill="#FFFFFF" d="M649.637,210.894h12.18c1.482,0,2.688-1.2,2.688-2.675v-0.198c0-1.475-1.206-2.675-2.688-2.675h-12.18
		c-1.482,0-2.688,1.2-2.688,2.675v0.198C646.949,209.694,648.155,210.894,649.637,210.894z M647.2,208.02
		c0-1.337,1.093-2.425,2.437-2.425h12.18c1.344,0,2.437,1.088,2.437,2.425v0.198c0,1.337-1.093,2.425-2.437,2.425h-12.18
		c-1.344,0-2.437-1.088-2.437-2.425V208.02z"/>
	<path fill="#FFFFFF" d="M667.167,214.753v-17.106v-8.199V65.821V51.076V0H162.404v187.832l-10.858-8.294V104.37
		c0-0.779-0.529-1.446-1.288-1.621l-7.573-1.756V83.98c0-5.022-4.091-9.8-8.884-10.884c1.565-0.094,3.178-1.212,4.799-3.352
		c1.251-1.652,2.043-3.327,2.045-3.333c4.046-6.869,1.562-42.406,1.454-43.915l-0.008-0.116l-0.771-0.001
		c-21.188,0-39.797,2.656-55.311,7.895c-12.417,4.193-22.891,10.04-31.131,17.379c-14.039,12.505-16.75,25.185-16.776,25.312
		l-0.03,0.15h0.171l-0.931,1.539c-0.917,0.802-2.36,2.129-4.152,4.012c-2.857,3.002-7.168,8.029-11.474,14.927
		c-7.191,11.516-15.661,30.457-16.493,56.459l-0.071,0.216l-0.054,23.833c-0.647,0.489-1.073,1.256-1.073,2.125v37.291
		c0,0.826,0.386,1.557,0.979,2.049l-0.019,8.327H4.611c-2.541,0-4.609,2.059-4.609,4.588v0.347c0,2.53,2.068,4.588,4.609,4.588
		h60.252c2.542,0,4.61-2.059,4.61-4.588v-0.347c0-0.138-0.029-0.269-0.041-0.404c0.541,0.013,1.065,0.041,1.62,0.041h6.718
		c-0.083,0.949-0.134,1.907-0.134,2.878c0,18.083,14.782,32.795,32.952,32.795s32.952-14.712,32.952-32.795
		c0-0.97-0.051-1.929-0.134-2.878h37.636v3.974h49.503v-3.974h41.016v3.974h40.185v-3.974h190.188
		c-0.083,0.949-0.134,1.907-0.134,2.878c0,18.083,14.782,32.795,32.952,32.795c18.169,0,32.951-14.712,32.951-32.795
		c0-9.508-4.09-18.08-10.605-24.075h28.62v13.312c-2.319,0.783-3.994,2.966-3.994,5.535v0.476c0,3.226,2.636,5.849,5.876,5.849
		h35.089c3.24,0,5.876-2.624,5.876-5.849v-0.476c0-3.04-2.342-5.543-5.325-5.82V206.92h18.392l2.979,8.646
		c-0.201,0.315-0.322,0.686-0.322,1.086v13.406c0,1.121,0.916,2.034,2.043,2.034h20.126c1.126,0,2.043-0.913,2.043-2.034v-13.406
		C668.499,215.78,667.942,215.041,667.167,214.753z M638.614,197.396l-0.37-1.074h4.712v1.074H638.614z M642.956,197.646v9.023
		h-1.147l-3.109-9.023H642.956z M513.833,206.669h-0.775c0.255-0.226,0.512-0.45,0.775-0.668V206.669z M514.083,205.795
		c5.637-4.588,12.834-7.346,20.668-7.346c8.318,0,15.915,3.112,21.692,8.221h-42.36V205.795z M513.773,228.117h0.31v-1.752
		c2.128-9.412,10.579-16.47,20.669-16.47c11.689,0,21.198,9.465,21.198,21.1c0,11.633-9.509,21.098-21.198,21.098
		s-21.199-9.465-21.199-21.098C513.552,230.016,513.643,229.061,513.773,228.117z M513.833,227.867h-0.021
		c0.007-0.046,0.014-0.091,0.021-0.137V227.867z M513.559,227.867h-11.356c0.122-1.264,0.318-2.506,0.581-3.724h4.642v-9.524h-0.918
		c1.689-2.873,3.8-5.472,6.26-7.699h1.065v19.415C513.72,226.838,513.636,227.351,513.559,227.867z M271.81,223.893v-3.724h39.685
		v3.724H271.81z M311.495,224.143v3.724H271.81v-3.724H311.495z M230.294,214.618H191.69v9.524h38.604v3.724h-49.003v-16.973h49.003
		V214.618z M191.94,223.893v-9.024h38.354v9.024H191.94z M230.544,214.869h41.016v5.05v0.25v3.724h-41.016V214.869z
		 M311.495,214.618H271.81v-6.373h39.685V214.618z M311.495,214.869v5.05H271.81v-5.05H311.495z M311.745,220.168v-0.25v-5.05
		h194.33c-1.586,2.782-2.774,5.814-3.489,9.024H311.745V220.168z M506.364,214.869h0.813v9.024h-4.334
		C503.565,220.68,504.764,217.647,506.364,214.869z M512.675,206.669H339.699v-9.023h174.134v8.027
		C513.439,205.996,513.053,206.329,512.675,206.669z M339.699,197.396v-1.074h174.134v1.074H339.699z M162.654,188.338l0.225,0.172
		l0.034,0.025h0.042c0.492,0,4.061-0.002,10.099-0.005v3.817h340.779v3.724H339.449v1.324H162.654V188.338z M656.267,189.447H635.61
		l0.913,2.65h-122.44v-4.016h-0.125c-3.123,0.002-282.794,0.167-340.654,0.199v-2.557h482.964V189.447z M656.267,189.698v2.4
		h-19.479l-0.827-2.4H656.267z M636.61,192.348l1.283,3.724h-123.81v-3.724H636.61z M513.833,188.331v3.766H173.304v-3.567
		C230.69,188.498,506.427,188.336,513.833,188.331z M514.083,196.322h123.896l0.37,1.074H514.083V196.322z M638.158,196.072
		l-1.283-3.724h19.643v-2.65h10.399v7.699h-23.711v-1.324H638.158z M569.992,65.821h80.951v104.876c0,5.226-4.244,9.477-9.46,9.477
		h-62.03c-5.217,0-9.46-4.251-9.46-9.477V65.821z M569.992,65.57V51.326h80.951V65.57H569.992z M472.817,65.821h80.951v104.876
		c0,5.226-4.244,9.477-9.46,9.477h-62.03c-5.217,0-9.46-4.251-9.46-9.477V65.821z M472.817,65.57V51.326h80.951V65.57H472.817z
		 M375.641,65.821h80.951v104.94c0,5.189-4.243,9.412-9.458,9.412H385.1c-5.216,0-9.459-4.223-9.459-9.412V65.821z M375.641,65.57
		v-5.607c0.163,0.388,0.369,0.742,0.637,1.037c0.316,0.349,0.708,0.628,1.167,0.826c0.458,0.198,0.979,0.299,1.55,0.299
		c0.458,0,0.887-0.07,1.275-0.21c0.389-0.142,0.732-0.349,1.018-0.614c0.288-0.265,0.524-0.592,0.7-0.971
		c0.175-0.374,0.284-0.801,0.326-1.267l0.013-0.136h-1.794l-0.014,0.109c-0.058,0.457-0.217,0.829-0.472,1.105
		c-0.252,0.273-0.596,0.406-1.053,0.406c-0.337,0-0.625-0.065-0.855-0.192c-0.233-0.128-0.423-0.301-0.568-0.513
		c-0.147-0.216-0.255-0.463-0.323-0.735c-0.068-0.277-0.104-0.565-0.104-0.856c0-0.304,0.035-0.605,0.104-0.892
		c0.068-0.283,0.177-0.537,0.323-0.754c0.146-0.217,0.336-0.391,0.568-0.518c0.23-0.127,0.518-0.192,0.855-0.192
		c0.181,0,0.357,0.03,0.523,0.089s0.317,0.143,0.447,0.248c0.13,0.104,0.24,0.228,0.328,0.369c0.086,0.138,0.141,0.286,0.165,0.454
		l0.017,0.107h1.794l-0.016-0.139c-0.049-0.434-0.17-0.825-0.361-1.161c-0.19-0.336-0.435-0.623-0.729-0.853
		c-0.291-0.226-0.626-0.402-0.995-0.521c-0.366-0.118-0.761-0.178-1.173-0.178c-0.571,0-1.093,0.103-1.551,0.304
		c-0.46,0.203-0.853,0.487-1.167,0.842c-0.267,0.301-0.473,0.661-0.636,1.054v-5.184h80.951V65.57H375.641z M275.804,65.821h80.951
		v104.876c0,5.226-4.244,9.477-9.461,9.477h-62.029c-5.217,0-9.461-4.251-9.461-9.477V65.821z M275.804,65.57v-9.5h1.131v-1.587
		h-1.131v-3.156h80.951v7.539l-0.145,0.449l-1.509-4.744l-0.027-0.087h-1.902l2.403,7.395l0.028,0.086h1.152v3.607H275.804z
		 M259.579,26.995h-0.87l-8.083,20.873h7.948l1.004-2.609v5.816h-50.707l-16.998,14.745h67.705v104.94
		c0,5.189-4.244,9.412-9.46,9.412h-62.032c-5.216,0-9.46-4.223-9.46-9.412V21.586c0-5.19,4.244-9.413,9.46-9.413h62.032
		c5.216,0,9.46,4.223,9.46,9.413V26.995z M356.754,26.995h-6.161l-21.665,20.873h8.577l4.235-4.239h13.698l0.771,4.137l0.02,0.102
		h0.526v3.207h-80.951v-3.207h6.477l0.246-0.716l-0.112-0.044c-0.599-0.233-0.89-0.579-0.89-1.058c0-0.319,0.177-0.949,0.528-1.872
		l0.536-1.385c0.574-1.478,0.626-2.602,0.154-3.338c-0.413-0.645-1.283-1.163-2.589-1.542c1.984-0.405,3.581-1.053,4.753-1.929
		c1.28-0.956,2.131-1.946,2.53-2.945c0.316-0.835,0.355-1.594,0.116-2.255c-0.236-0.652-0.674-1.254-1.3-1.789
		c-0.761-0.644-1.808-1.137-3.111-1.466c-1.296-0.328-3.281-0.508-5.899-0.536h-1.438v-5.474c0-5.154,4.244-9.348,9.461-9.348
		h62.029c5.217,0,9.461,4.193,9.461,9.348V26.995z M356.754,47.619h-0.318l-0.771-4.137l-0.02-0.102h-14.009l-4.235,4.239h-7.853
		l21.146-20.373h6.06V47.619z M357.005,27.246h2.421l5.269,20.373h-7.689V27.246z M273.418,47.762l0.016,0.107h2.119v3.207h-15.724
		V44.61l1.858-4.828h8.027c2.277,0,3.761,0.215,4.409,0.637c0.614,0.4,0.696,1.236,0.244,2.484l-0.689,1.915
		c-0.225,0.617-0.348,1.228-0.365,1.82C273.315,46.922,273.35,47.3,273.418,47.762z M277.24,27.246
		c2.597,0.027,4.561,0.205,5.839,0.528c1.266,0.319,2.279,0.795,3.011,1.414c0.593,0.506,1.005,1.073,1.227,1.683
		c0.218,0.603,0.179,1.303-0.114,2.079c-0.38,0.953-1.204,1.908-2.446,2.836c-1.246,0.931-2.991,1.599-5.19,1.986l-0.592,0.104
		l0.584,0.141c1.542,0.372,2.542,0.902,2.973,1.575c0.426,0.666,0.367,1.713-0.177,3.113l-0.536,1.386
		c-0.366,0.966-0.544,1.607-0.544,1.961c0,0.554,0.316,0.973,0.938,1.246l-0.111,0.322h-6.298v-11.56
		c0.052-0.011,0.115-0.019,0.164-0.03c1.753-0.4,2.881-1.206,3.355-2.4c0.243-0.639,0.258-1.188,0.045-1.632
		c-0.225-0.467-0.704-0.82-1.425-1.05c-0.504-0.16-1.234-0.263-2.138-0.319v-3.382H277.24z M275.804,30.878
		c0.875,0.055,1.58,0.154,2.063,0.307c0.653,0.208,1.082,0.518,1.275,0.921c0.183,0.379,0.165,0.862-0.052,1.432
		c-0.441,1.111-1.51,1.866-3.178,2.247c-0.032,0.008-0.075,0.013-0.108,0.02V30.878z M275.554,35.85
		c-0.928,0.174-2.164,0.267-3.721,0.267h-8.722l2.046-5.29h9.048c0.492,0,0.934,0.013,1.349,0.034V35.85z M275.554,30.611
		c-0.416-0.02-0.858-0.034-1.349-0.034h-9.219l-2.24,5.79h9.087c1.546,0,2.782-0.092,3.721-0.263v11.514h-1.903
		c-0.057-0.401-0.085-0.73-0.085-0.977c0.016-0.562,0.134-1.146,0.35-1.738l0.689-1.916c0.496-1.372,0.38-2.306-0.343-2.778
		c-0.7-0.456-2.187-0.677-4.546-0.677h-8.199l-1.686,4.381V27.246h15.724V30.611z M259.579,44.563l-1.176,3.056h-7.411l7.888-20.373
		h0.699V44.563z M192.545,65.57l16.422-14.244h50.613v3.38c-0.097,0.052-0.196,0.101-0.284,0.164
		c-0.271,0.192-0.494,0.435-0.661,0.722c-0.17,0.291-0.256,0.638-0.256,1.03c0,0.35,0.068,0.654,0.203,0.906
		c0.134,0.247,0.312,0.457,0.528,0.622c0.137,0.105,0.307,0.178,0.47,0.258v0.904h-1.443l-0.002,0.123
		c-0.007,0.465,0.08,0.873,0.258,1.214c0.178,0.341,0.422,0.624,0.724,0.843c0.143,0.104,0.299,0.193,0.463,0.271v3.806H192.545z
		 M260.025,56.902c0.068,0.11,0.19,0.205,0.374,0.291c0.166,0.077,0.389,0.152,0.682,0.23c0.282,0.074,0.65,0.169,1.111,0.285
		c0.131,0.026,0.318,0.075,0.554,0.144c0.227,0.066,0.457,0.176,0.684,0.324c0.222,0.146,0.417,0.343,0.58,0.587
		c0.158,0.238,0.238,0.551,0.238,0.929c0,0.311-0.061,0.603-0.182,0.869c-0.119,0.264-0.301,0.496-0.54,0.689
		c-0.24,0.194-0.545,0.349-0.904,0.459c-0.366,0.11-0.794,0.167-1.271,0.167c-0.388,0-0.769-0.048-1.134-0.143
		c-0.137-0.035-0.263-0.086-0.389-0.138v-1.478c0.096,0.184,0.225,0.336,0.387,0.452c0.159,0.114,0.346,0.198,0.555,0.252
		c0.34,0.087,0.691,0.103,1.119,0.044c0.177-0.026,0.343-0.076,0.492-0.148c0.159-0.075,0.293-0.18,0.4-0.313
		c0.113-0.14,0.17-0.318,0.17-0.529c0-0.23-0.076-0.421-0.227-0.565c-0.137-0.134-0.317-0.245-0.534-0.33
		c-0.206-0.083-0.445-0.156-0.71-0.219c-0.256-0.06-0.516-0.128-0.782-0.202c-0.261-0.065-0.523-0.147-0.78-0.243
		c-0.034-0.013-0.058-0.036-0.092-0.05V54.85c0.141-0.065,0.29-0.12,0.446-0.162c0.685-0.185,1.382-0.156,2.009-0.005
		c0.334,0.081,0.633,0.213,0.89,0.392c0.254,0.176,0.459,0.405,0.608,0.68c0.133,0.245,0.207,0.542,0.222,0.884h-1.306
		c-0.022-0.183-0.07-0.341-0.142-0.471c-0.088-0.16-0.207-0.288-0.353-0.381c-0.14-0.088-0.303-0.151-0.486-0.189
		c-0.292-0.057-0.626-0.081-0.98-0.01c-0.141,0.03-0.274,0.083-0.393,0.159c-0.12,0.076-0.219,0.173-0.296,0.289
		c-0.081,0.121-0.123,0.274-0.123,0.454C259.925,56.656,259.959,56.795,260.025,56.902z M259.829,59.313v-0.767
		c0.001,0,0.002,0.001,0.003,0.002c0.266,0.1,0.537,0.185,0.804,0.251c0.266,0.074,0.53,0.143,0.789,0.203
		c0.252,0.06,0.479,0.13,0.675,0.208c0.187,0.074,0.339,0.167,0.452,0.277c0.101,0.098,0.15,0.224,0.15,0.386
		c0,0.154-0.038,0.276-0.115,0.371c-0.084,0.105-0.187,0.185-0.313,0.244c-0.128,0.061-0.27,0.104-0.422,0.126
		c-0.391,0.055-0.71,0.042-1.02-0.038c-0.18-0.046-0.339-0.118-0.472-0.213c-0.132-0.095-0.234-0.215-0.313-0.368
		c-0.079-0.15-0.118-0.338-0.118-0.559v-0.125H259.829z M259.579,61.476c-0.109-0.058-0.218-0.114-0.316-0.184
		c-0.271-0.196-0.489-0.451-0.649-0.757c-0.144-0.274-0.22-0.6-0.23-0.971h1.195V61.476z M259.579,58.126
		c-0.106-0.059-0.226-0.104-0.318-0.175c-0.188-0.143-0.343-0.326-0.46-0.542c-0.115-0.214-0.173-0.478-0.173-0.787
		c0-0.347,0.075-0.651,0.222-0.904c0.149-0.257,0.348-0.473,0.59-0.644c0.043-0.031,0.094-0.052,0.139-0.08V58.126z M259.829,61.859
		c0.108,0.04,0.212,0.086,0.326,0.116c0.385,0.1,0.787,0.151,1.197,0.151c0.503,0,0.954-0.06,1.344-0.177
		c0.39-0.12,0.723-0.289,0.988-0.504c0.27-0.218,0.475-0.481,0.61-0.78c0.136-0.299,0.205-0.626,0.205-0.973
		c0-0.429-0.094-0.788-0.28-1.068c-0.181-0.272-0.401-0.493-0.651-0.657c-0.248-0.162-0.5-0.281-0.751-0.355
		c-0.248-0.072-0.436-0.121-0.569-0.148c-0.454-0.115-0.822-0.209-1.103-0.284c-0.275-0.072-0.49-0.145-0.64-0.215
		c-0.169-0.079-0.238-0.15-0.267-0.196c-0.042-0.066-0.062-0.161-0.062-0.279c0-0.131,0.026-0.234,0.081-0.315
		c0.058-0.086,0.132-0.159,0.223-0.216c0.094-0.06,0.198-0.102,0.309-0.125c0.321-0.065,0.621-0.041,0.881,0.01
		c0.152,0.031,0.287,0.084,0.401,0.156c0.112,0.07,0.199,0.165,0.268,0.289c0.068,0.125,0.109,0.287,0.122,0.484l0.007,0.117h1.789
		v-0.125c0-0.437-0.085-0.817-0.254-1.128c-0.168-0.31-0.398-0.567-0.685-0.766c-0.281-0.196-0.609-0.341-0.973-0.43
		c-0.669-0.16-1.408-0.189-2.133,0.007c-0.134,0.036-0.258,0.086-0.382,0.138v-3.258h15.724v3.156h-4.822v1.587h2.178v5.894h1.848
		V56.07h0.797v9.5h-15.724V61.859z M275.554,55.82h-1.047v5.894h-1.348V55.82h-2.178v-1.087h4.572V55.82z M275.804,54.733h0.881
		v1.087h-0.881V54.733z M356.754,61.713h-0.97l-2.269-6.981h1.375l1.59,4.997l0.048,0.087h0.183l0.044-0.136V61.713z
		 M357.005,58.904l1.344-4.172h1.383l-2.327,6.981h-0.401V58.904z M357.005,61.963h0.58l2.439-7.316l0.056-0.165h-1.913
		l-1.163,3.607v-6.763h18.387v6.014c-0.056,0.294-0.092,0.597-0.092,0.914c0,0.309,0.036,0.605,0.092,0.894v6.423h-18.387V61.963z
		 M377.008,59.17c0.074,0.301,0.195,0.575,0.359,0.815c0.167,0.246,0.387,0.445,0.654,0.591c0.268,0.148,0.596,0.223,0.976,0.223
		c0.524,0,0.94-0.164,1.237-0.486c0.27-0.292,0.445-0.673,0.521-1.134h1.299c-0.048,0.384-0.145,0.736-0.29,1.047
		c-0.162,0.349-0.379,0.649-0.644,0.892c-0.262,0.243-0.576,0.433-0.933,0.563c-0.36,0.13-0.761,0.195-1.19,0.195
		c-0.536,0-1.025-0.093-1.451-0.278c-0.426-0.185-0.79-0.442-1.081-0.765c-0.292-0.322-0.52-0.708-0.677-1.148
		c-0.064-0.181-0.107-0.373-0.146-0.566v-1.751c0.038-0.197,0.081-0.393,0.146-0.577c0.157-0.446,0.386-0.839,0.678-1.168
		c0.29-0.328,0.655-0.591,1.081-0.78c0.426-0.188,0.913-0.283,1.45-0.283c0.386,0,0.755,0.056,1.097,0.167
		c0.341,0.11,0.65,0.272,0.917,0.48c0.269,0.21,0.492,0.472,0.665,0.779c0.153,0.271,0.258,0.582,0.312,0.927h-1.3
		c-0.035-0.158-0.096-0.307-0.181-0.442c-0.103-0.165-0.232-0.31-0.384-0.431c-0.152-0.123-0.327-0.22-0.52-0.289
		c-0.193-0.069-0.397-0.104-0.607-0.104c-0.38,0-0.708,0.075-0.976,0.223c-0.266,0.147-0.486,0.348-0.654,0.597
		c-0.163,0.242-0.284,0.523-0.359,0.835c-0.074,0.307-0.111,0.627-0.111,0.951C376.897,58.565,376.934,58.873,377.008,59.17z
		 M375.641,41.503h1.983c-0.087,0.912,0.129,1.612,0.644,2.081c0.985,0.878,2.998,1.304,6.156,1.304
		c1.858,0,3.428-0.114,4.665-0.338c2.399-0.435,3.848-1.266,4.304-2.469c0.126-0.315,0.132-0.607,0.019-0.868
		c-0.152-0.352-0.526-0.646-1.111-0.875c-0.943-0.367-2.549-0.695-4.774-0.974l-3.801-0.489c-3.695-0.481-6.206-1.009-7.467-1.571
		c-0.225-0.099-0.425-0.207-0.617-0.317v-6.018c0.949-0.943,2.283-1.781,4.007-2.501c2.895-1.21,6.751-1.823,11.459-1.823
		c3.924,0,7.091,0.577,9.411,1.715c2.272,1.114,3.062,2.678,2.412,4.778h-7.299c0.279-1.229-0.405-2.116-2.037-2.639
		c-1.096-0.347-2.577-0.523-4.401-0.523c-2.027,0-3.761,0.228-5.153,0.677c-1.417,0.457-2.298,1.112-2.617,1.948
		c-0.133,0.337-0.136,0.647-0.01,0.919c0.171,0.371,0.586,0.672,1.231,0.895c0.673,0.246,2.218,0.535,4.593,0.86l6.149,0.854
		c2.661,0.369,4.613,0.869,5.803,1.484c1.821,0.945,2.37,2.271,1.677,4.055c-0.715,1.842-2.632,3.397-5.696,4.623
		c-3.084,1.234-7.06,1.86-11.817,1.86c-3.071,0-5.647-0.247-7.711-0.734V41.503z M375.391,47.35
		c-1.089-0.274-2.04-0.612-2.824-1.025c-2.257-1.187-2.983-2.765-2.218-4.822h5.042V47.35z M375.641,41.252v-3.986
		c0.166,0.091,0.328,0.184,0.516,0.266c1.282,0.572,3.818,1.107,7.536,1.591l3.802,0.489c2.205,0.277,3.791,0.599,4.715,0.958
		c0.521,0.204,0.847,0.453,0.972,0.742c0.087,0.2,0.08,0.422-0.022,0.678c-0.423,1.117-1.808,1.895-4.116,2.313
		c-1.222,0.221-2.776,0.334-4.62,0.334c-3.05,0-5.065-0.417-5.989-1.24c-0.477-0.434-0.66-1.109-0.547-2.005l0.018-0.141H375.641z
		 M375.391,36.83c-1.397-0.911-1.776-2.169-1.133-3.83c0.242-0.625,0.626-1.214,1.133-1.77V36.83z M383.352,48.401
		c4.788,0,8.795-0.631,11.911-1.877c3.131-1.254,5.095-2.857,5.835-4.765c0.739-1.898,0.135-3.367-1.794-4.367
		c-1.215-0.63-3.195-1.137-5.883-1.511l-6.15-0.854c-2.357-0.322-3.885-0.607-4.543-0.847c-0.58-0.2-0.947-0.457-1.088-0.764
		c-0.098-0.212-0.092-0.448,0.017-0.724c0.291-0.762,1.119-1.368,2.46-1.8c1.368-0.442,3.075-0.666,5.077-0.666
		c1.799,0,3.254,0.172,4.325,0.511c1.57,0.503,2.169,1.318,1.832,2.491l-0.046,0.16h7.808l0.028-0.087
		c0.733-2.251-0.112-3.989-2.514-5.167c-2.354-1.155-5.558-1.74-9.52-1.74c-4.742,0-8.63,0.62-11.555,1.843
		c-1.653,0.69-2.951,1.492-3.912,2.391v-9.042c0-5.19,4.243-9.413,9.459-9.413h62.035c5.215,0,9.458,4.223,9.458,9.413v29.49
		h-80.951v-3.401C377.716,48.158,380.294,48.401,383.352,48.401z M456.842,51.326h15.724V65.57h-15.724V51.326z M553.768,51.076
		h-80.951V21.521c0-5.154,4.244-9.348,9.46-9.348h62.03c5.217,0,9.46,4.193,9.46,9.348V51.076z M554.018,51.326h15.725V65.57
		h-15.725V51.326z M650.943,51.076h-80.951V21.521c0-5.154,4.244-9.348,9.46-9.348h62.03c5.217,0,9.46,4.193,9.46,9.348V51.076z
		 M651.193,51.326h15.724V65.57h-15.724V51.326z M162.654,0.25h504.263v50.826h-15.724V21.521c0-5.292-4.356-9.598-9.711-9.598
		h-62.03c-5.354,0-9.711,4.306-9.711,9.598v29.555h-15.725V21.521c0-5.292-4.356-9.598-9.711-9.598h-62.03
		c-5.354,0-9.711,4.306-9.711,9.598v29.555h-15.724v-29.49c0-5.328-4.355-9.663-9.708-9.663H385.1c-5.354,0-9.709,4.335-9.709,9.663
		v9.276c-0.624,0.636-1.084,1.318-1.366,2.048c-0.706,1.826-0.247,3.245,1.366,4.226v4.116h-5.214l-0.03,0.08
		c-0.857,2.205-0.082,3.96,2.303,5.215c0.816,0.43,1.805,0.781,2.942,1.062v3.467h-18.387v-3.207h8.012l-5.373-20.78l-0.024-0.094
		h-2.614v-5.474c0-5.292-4.356-9.598-9.711-9.598h-62.029c-5.354,0-9.711,4.306-9.711,9.598v5.474h-15.724v-5.409
		c0-5.328-4.356-9.663-9.71-9.663h-62.032c-5.354,0-9.71,4.335-9.71,9.663v149.175c0,5.328,4.356,9.662,9.71,9.662h62.032
		c5.354,0,9.71-4.334,9.71-9.662V65.821h15.724v104.876c0,5.363,4.357,9.727,9.711,9.727h62.029c5.354,0,9.711-4.363,9.711-9.727
		V65.821h18.387v104.94c0,5.328,4.355,9.662,9.709,9.662h62.035c5.353,0,9.708-4.334,9.708-9.662V65.821h15.724v104.876
		c0,5.363,4.356,9.727,9.711,9.727h62.03c5.354,0,9.711-4.363,9.711-9.727V65.821h15.725v104.876c0,5.363,4.356,9.727,9.711,9.727
		h62.03c5.354,0,9.711-4.363,9.711-9.727V65.821h15.724v123.627h-10.399v-3.974H173.054v2.807
		c-5.892,0.003-9.427,0.005-10.056,0.005l-0.343-0.262V0.25z M150.203,102.992c0.644,0.149,1.094,0.716,1.094,1.378v74.977
		l-0.619-0.473l-0.034-0.025h-2.174v-73.355l-5.783-1.341v-2.903L150.203,102.992z M148.47,179.099h2.09l0.737,0.563v7.262
		c0,0.779-0.634,1.413-1.414,1.413c-0.779,0-1.413-0.634-1.413-1.413V179.099z M148.22,178.849h-5.533v-74.44l5.533,1.283V178.849z
		 M142.436,104.095l-8.208-1.903c-0.759-0.176-1.233-0.937-1.058-1.697c0.149-0.645,0.715-1.095,1.375-1.095
		c0.107,0,0.215,0.012,0.321,0.037l7.57,1.755V104.095z M38.381,72.864c0.349-1.462,3.511-13.309,16.663-25.024
		c8.215-7.317,18.66-13.148,31.045-17.33c15.489-5.23,34.071-7.882,55.232-7.882l0.538,0.001c0.076,1.102,0.661,9.834,0.8,19.206
		c0.196,13.187-0.575,21.641-2.234,24.458c-0.031,0.066-3.125,6.57-6.836,6.57h-1.798h-0.718h-0.542H38.394H38.381z M21.892,93.735
		c6.032-9.662,12.123-15.756,14.976-18.346l-15.655,25.89L5.461,149.235C6.441,123.713,14.796,105.103,21.892,93.735z
		 M5.444,150.089l15.995-48.707l16.063-26.56c0.297-0.26,0.547-0.474,0.719-0.616c-1.208,3.753-3.476,8.1-6.321,13.554
		c-6.991,13.401-17.555,33.651-21.193,64.605c-0.263,2.238-4.571,2.158-5.341,2.123C5.362,152.996,5.398,151.537,5.444,150.089z
		 M4.245,213.517v-37.291c0-0.719,0.322-1.358,0.822-1.803l-0.093,40.82C4.525,214.803,4.245,214.192,4.245,213.517z M5.314,174.221
		c0.391-0.265,0.862-0.421,1.37-0.421h0.197c1.345,0,2.439,1.088,2.439,2.426v37.291c0,1.338-1.094,2.427-2.439,2.427H6.684
		c-0.55,0-1.052-0.189-1.46-0.495L5.314,174.221z M5.223,215.758c0.421,0.273,0.922,0.436,1.461,0.436h0.197
		c1.482,0,2.689-1.201,2.689-2.677v-37.291c0-1.476-1.207-2.676-2.689-2.676H6.684c-0.502,0-0.967,0.146-1.369,0.386l0.042-19.197
		c0.109,0.005,0.283,0.011,0.519,0.011h0c1.444,0,4.83-0.23,5.08-2.355c3.632-30.908,14.184-51.134,21.167-64.519
		c2.952-5.658,5.284-10.128,6.463-13.993l0.115-0.377l-0.311,0.242c-0.006,0.004-0.177,0.139-0.468,0.383l0.615-1.016h91.883
		l0.05,0.058l0.061-0.003c0.085-0.005,0.168-0.016,0.25-0.027c0.101-0.014,0.197-0.027,0.296-0.027h0.718
		c5.471,0,10.645,5.28,10.645,10.866v16.955l-7.513-1.742c-0.125-0.029-0.252-0.043-0.378-0.043c-0.778,0-1.443,0.53-1.619,1.288
		c-0.207,0.894,0.352,1.79,1.245,1.997l8.265,1.916v74.497h-19.717v-5.299v-15.898h-14.893v15.898v5.299H71.052
		c-9.561,0-17.015,1.871-22.157,5.561c-4.223,3.031-6.906,7.316-8.03,12.775l-16.805,0.023l0-40.702
		c-1.305-35.861,23.453-72.633,23.704-73.001l0.07-0.103l-1.053-0.72l-0.07,0.104c-0.253,0.37-25.247,37.453-23.926,73.745v41.956
		l17.852-0.025c-0.248,1.584-0.38,3.254-0.38,5.021c0,2.584,0.271,4.971,0.8,7.161H24.578c-2.542,0-4.61,2.059-4.61,4.589v0.346
		c0,2.531,2.068,4.589,4.61,4.589h17.654c1.121,0,2.135-0.416,2.935-1.08c1.07,1.294,2.311,2.451,3.727,3.467
		c0.665,0.477,1.372,0.921,2.113,1.337H5.205L5.223,215.758z M64.863,224.143c2.176,0,3.969,1.6,4.292,3.677
		c-6.917-0.19-12.642-1.423-17.09-3.677h12.084H64.863z M51.565,223.893c-0.889-0.476-1.743-0.98-2.525-1.54
		c-1.397-1.003-2.622-2.145-3.678-3.423c0.905-0.839,1.48-2.024,1.48-3.35v-0.346c0-2.531-2.068-4.589-4.61-4.589h-0.92
		c-0.535-2.187-0.807-4.574-0.807-7.161c0-1.769,0.133-3.439,0.384-5.022l22.326-0.031l0.399-0.001l0.174-0.359
		c0.018-0.036,1.823-3.678,6.355-7.259c4.196-3.316,11.665-7.269,23.417-7.269h0.125v-1.277H93.56
		c-12.148,0-19.895,4.123-24.255,7.582c-3.975,3.153-5.924,6.312-6.476,7.306l-21.708,0.03c1.118-5.372,3.763-9.589,7.918-12.571
		c5.099-3.659,12.504-5.514,22.012-5.514h36.774v2.65h14.893v-2.65h19.717v12.998H92.131c-0.071,0.004-7.14,0.38-14.114,4.489
		c-6.424,3.784-14.077,11.591-14.118,27.307H51.565z M41.375,210.894h0.858c2.404,0,4.36,1.946,4.36,4.339v0.346
		c0,1.246-0.538,2.363-1.385,3.155C43.424,216.517,42.144,213.9,41.375,210.894z M45.013,218.893
		c-0.757,0.63-1.719,1.025-2.78,1.025H24.578c-2.404,0-4.359-1.946-4.359-4.339v-0.346c0-2.393,1.956-4.339,4.359-4.339h16.535
		C41.89,213.963,43.194,216.633,45.013,218.893z M46.846,83.03l0.64,0.438c-1.465,2.197-24.951,38.049-23.677,73.043l0,40.947
		l17-0.023c-0.05,0.255-0.089,0.517-0.132,0.777l-17.644,0.025v-41.711C21.75,121.259,45.375,85.234,46.846,83.03z M41.066,197.434
		l21.837-0.03h0.074l0.036-0.065c0.494-0.902,2.418-4.098,6.448-7.295c4.314-3.422,11.971-7.499,23.975-7.528v0.776
		c-11.751,0.028-19.235,3.995-23.447,7.324c-4.581,3.619-6.407,7.308-6.425,7.345l-0.106,0.218l-22.526,0.032
		C40.975,197.951,41.016,197.689,41.066,197.434z M122.469,173.55h-14.393v-15.647h14.393V173.55z M122.469,173.8v5.049h-14.393
		V173.8H122.469z M122.469,179.099v2.4h-14.393v-2.4H122.469z M69.222,228.481v0.347c0,2.392-1.956,4.338-4.36,4.338H4.611
		c-2.404,0-4.359-1.946-4.359-4.338v-0.347c0-2.392,1.955-4.338,4.359-4.338h0.343h46.553c4.549,2.419,10.476,3.733,17.674,3.927
		C69.194,228.207,69.222,228.34,69.222,228.481z M143.289,230.995c0,17.945-14.67,32.545-32.702,32.545
		c-18.032,0-32.702-14.6-32.702-32.545c0-0.97,0.051-1.929,0.135-2.878h11.334c-0.129,0.944-0.218,1.899-0.218,2.878
		c0,11.772,9.623,21.348,21.45,21.348s21.45-9.576,21.45-21.348c0-0.978-0.09-1.934-0.218-2.878h11.335
		C143.238,229.066,143.289,230.024,143.289,230.995z M131.787,230.995c0,11.633-9.51,21.098-21.2,21.098s-21.2-9.465-21.2-21.098
		c0-0.979,0.091-1.934,0.221-2.878h3.576v7.949h2.912v-7.949h8.269c-0.41,0.876-0.646,1.849-0.646,2.878
		c0,3.77,3.081,6.836,6.868,6.836c3.787,0,6.867-3.066,6.867-6.836c0-1.029-0.236-2.002-0.646-2.878h6.992v7.949h2.913v-7.949h4.853
		C131.696,229.061,131.787,230.016,131.787,230.995z M95.846,227.867h-2.412v-1.075h2.412V227.867z M95.846,228.117v7.699h-2.412
		v-7.699H95.846z M115.364,228.117c0.514,0.841,0.815,1.824,0.815,2.878c0,3.065-2.509,5.56-5.592,5.56
		c-3.084,0-5.592-2.495-5.592-5.56c0-1.054,0.301-2.037,0.815-2.878H115.364z M105.965,227.867c1.008-1.469,2.703-2.436,4.622-2.436
		c1.918,0,3.614,0.967,4.621,2.436H105.965z M104.744,230.995c0,3.204,2.621,5.81,5.842,5.81c3.221,0,5.842-2.606,5.842-5.81
		c0-1.047-0.284-2.028-0.772-2.878h0.305c0.465,0.857,0.73,1.837,0.73,2.878c0,3.349-2.739,6.073-6.105,6.073
		s-6.105-2.724-6.105-6.073c0-1.041,0.265-2.021,0.73-2.878h0.305C105.028,228.967,104.744,229.948,104.744,230.995z
		 M115.503,227.867c-1.039-1.613-2.853-2.686-4.917-2.686s-3.877,1.073-4.917,2.686h-0.307c1.07-1.763,3.008-2.948,5.224-2.948
		s4.154,1.185,5.224,2.948H115.503z M110.587,224.669c-2.361,0-4.421,1.291-5.517,3.198h-0.307c1.12-2.06,3.31-3.462,5.824-3.462
		c2.513,0,4.703,1.402,5.823,3.462h-0.306C115.008,225.959,112.948,224.669,110.587,224.669z M104.934,228.117
		c-0.446,0.864-0.702,1.841-0.702,2.878c0,3.487,2.851,6.323,6.355,6.323s6.355-2.837,6.355-6.323c0-1.037-0.257-2.013-0.702-2.878
		h0.292c0.427,0.871,0.673,1.845,0.673,2.878c0,3.631-2.968,6.586-6.617,6.586c-3.649,0-6.618-2.955-6.618-6.586
		c0-1.033,0.246-2.007,0.673-2.878H104.934z M126.463,227.867h-2.412v-1.075h2.412V227.867z M126.463,228.117v7.699h-2.412v-7.699
		H126.463z M126.713,227.867v-1.325H123.8v1.325h-7.113c-1.142-2.202-3.445-3.712-6.1-3.712c-2.655,0-4.958,1.511-6.101,3.712h-8.39
		v-1.325h-2.912v1.325h-3.537c1.526-10.153,10.321-17.972,20.941-17.972s19.414,7.819,20.941,17.972H126.713z M110.587,209.645
		c-10.757,0-19.665,7.931-21.194,18.222H78.039c1.587-16.483,15.576-29.418,32.547-29.418c16.972,0,30.961,12.935,32.548,29.418
		H131.78C130.252,217.576,121.344,209.645,110.587,209.645z M143.385,227.867c-1.588-16.622-15.689-29.668-32.799-29.668
		s-31.21,13.046-32.798,29.668h-6.737c-0.564,0-1.096-0.028-1.646-0.041c-0.323-2.218-2.227-3.933-4.543-3.933h-0.71
		c0.042-15.589,7.62-23.336,13.983-27.087c6.921-4.08,13.937-4.455,14.001-4.458h50.549v-13.249h5.533v7.825
		c0,0.917,0.746,1.664,1.663,1.664c0.917,0,1.664-0.747,1.664-1.664v-7.07l10.858,8.294v9.499h177.045v9.273h172.956
		c-2.43,2.236-4.517,4.831-6.185,7.699H311.745v-6.623H271.56v6.623h-41.016v-3.974h-49.503v17.223H143.385z M230.294,231.841
		h-49.003v-3.724h49.003V231.841z M230.544,227.867v-3.724h41.016v3.724H230.544z M311.495,231.841H271.81v-3.724h39.685V231.841z
		 M311.745,227.867v-3.724h190.783c-0.261,1.218-0.455,2.461-0.575,3.724H311.745z M567.451,230.995
		c0,17.945-14.669,32.545-32.701,32.545c-18.032,0-32.702-14.6-32.702-32.545c0-0.97,0.051-1.929,0.135-2.878h11.336
		c-0.129,0.944-0.218,1.899-0.218,2.878c0,11.772,9.622,21.348,21.449,21.348c11.827,0,21.448-9.576,21.448-21.348
		c0-11.773-9.622-21.35-21.448-21.35c-9.869,0-18.179,6.677-20.669,15.724V206.92h42.649
		C563.314,212.877,567.451,221.464,567.451,230.995z M585.966,206.92h3.744v12.998h-2.111c-0.567,0-1.113,0.085-1.632,0.234V206.92z
		 M622.989,206.669h-3.744v-1.074h3.744V206.669z M618.995,206.669h-3.744v-1.074h3.744V206.669z M585.966,220.41
		c0.517-0.156,1.065-0.242,1.632-0.242h2.111h4.244h21.048h4.244h3.443c0.102,0,0.201,0.01,0.301,0.015v3.709h-37.022V220.41z
		 M589.96,206.92h3.744v12.998h-3.744V206.92z M593.953,206.92h21.048v12.998h-21.048V206.92z M615.251,219.918V206.92h3.744v12.998
		H615.251z M615.001,206.669h-21.048v-1.074h21.048V206.669z M593.703,206.669h-3.744v-1.074h3.744V206.669z M589.71,206.669h-3.744
		v-1.074h3.744V206.669z M628.314,225.766v0.476c0,3.087-2.523,5.599-5.626,5.599h-35.089c-3.103,0-5.626-2.512-5.626-5.599v-0.476
		c0-2.429,1.566-4.496,3.744-5.269v3.645h37.523v-3.947C626.083,220.473,628.314,222.865,628.314,225.766z M622.989,219.933
		c-0.1-0.005-0.199-0.015-0.301-0.015h-3.443V206.92h3.744V219.933z M623.239,206.669v-1.324h-3.994h-4.244h-21.048h-4.244h-3.994
		v1.324h-28.89c-5.847-5.261-13.591-8.471-22.075-8.471c-7.821,0-15.011,2.731-20.668,7.279v-7.831h124.352l3.109,9.023H623.239z
		 M641.895,206.92h1.311v-9.273h23.711v17.029c-0.149-0.034-0.302-0.057-0.461-0.057H646.33c-0.616,0-1.163,0.279-1.538,0.71
		L641.895,206.92z M666.917,214.936v2.332h-21.456l-0.574-1.665c0.326-0.443,0.849-0.735,1.443-0.735h20.126
		C666.616,214.869,666.769,214.896,666.917,214.936z M668.248,230.057c0,0.983-0.804,1.784-1.793,1.784H646.33
		c-0.989,0-1.793-0.801-1.793-1.784v-13.406c0-0.276,0.069-0.534,0.182-0.768l0.534,1.551l0.029,0.084h21.884v-2.502
		c0.635,0.274,1.081,0.903,1.081,1.635V230.057z"/>
	<path fill="#FFFFFF" d="M30.913,152.128l-0.011,0.151l0.151-0.019c11.597-1.453,25.319-3.447,38.786-6.041l-0.001,0.004
		l0.175-0.033c0.23-0.045,0.451-0.09,0.68-0.135c0.984-0.192,1.966-0.385,2.945-0.583c7.77-1.561,15.013-3.212,22.292-5.32
		c0.026-0.007,0.051-0.015,0.076-0.022c0.694-0.201,1.388-0.397,2.083-0.607c3.849-1.144,7.486-2.357,10.826-3.642
		c12.652-4.866,15.021-8.404,15.115-8.552l0.02-0.031V82.138h-13.283H79.844H62.066l-0.032,0.021
		c-14.224,9.602-21.929,28.118-25.887,41.961C31.861,139.11,30.922,152,30.913,152.128z M123.8,82.388v44.835
		c-0.25,0.346-2.989,3.816-14.975,8.425c-2.164,0.832-4.457,1.633-6.846,2.406l8.749-55.666H123.8z M110.475,82.388l-8.761,55.739
		c-1.233,0.401-2.459,0.783-3.684,1.153c-7.462,2.22-15.725,4.179-24.19,5.896c-1.058,0.213-2.127,0.425-3.206,0.637
		c-0.164,0.032-0.329,0.063-0.493,0.095l9.916-63.519H110.475z M62.143,82.388h17.662l-9.924,63.57
		c-13.429,2.589-27.121,4.581-38.707,6.036c0.119-1.493,1.187-13.722,5.216-27.809C40.334,110.394,48.002,91.953,62.143,82.388z"/>
	<path fill="#FFFFFF" d="M105.164,216.194h10.9v-2.9h-10.9V216.194z M105.414,213.544h10.399v2.4h-10.399V213.544z"/>
	<path fill="#FFFFFF" d="M105.164,249.314h10.9v-2.9h-10.9V249.314z M105.414,246.664h10.399v2.4h-10.399V246.664z"/>
	<path fill="#FFFFFF" d="M534.752,237.318c3.503,0,6.354-2.837,6.354-6.323c0-3.489-2.851-6.326-6.354-6.326
		c-3.505,0-6.357,2.838-6.357,6.326C528.395,234.482,531.247,237.318,534.752,237.318z M534.752,224.919
		c3.365,0,6.104,2.725,6.104,6.076c0,3.349-2.738,6.073-6.104,6.073c-3.368,0-6.107-2.724-6.107-6.073
		C528.645,227.644,531.384,224.919,534.752,224.919z"/>
	<path fill="#FFFFFF" d="M534.752,237.831c3.786,0,6.867-3.066,6.867-6.836c0-3.772-3.08-6.84-6.867-6.84
		c-3.787,0-6.87,3.068-6.87,6.84C527.882,234.765,530.964,237.831,534.752,237.831z M534.752,224.405
		c3.649,0,6.617,2.956,6.617,6.59c0,3.631-2.968,6.586-6.617,6.586c-3.65,0-6.62-2.955-6.62-6.586
		C528.132,227.361,531.102,224.405,534.752,224.405z"/>
	<path fill="#FFFFFF" d="M534.752,236.805c3.221,0,5.841-2.606,5.841-5.81c0-3.206-2.62-5.814-5.841-5.814
		c-3.222,0-5.844,2.608-5.844,5.814C528.908,234.199,531.53,236.805,534.752,236.805z M534.752,225.431
		c3.083,0,5.591,2.495,5.591,5.564c0,3.065-2.508,5.56-5.591,5.56c-3.084,0-5.594-2.495-5.594-5.56
		C529.158,227.927,531.668,225.431,534.752,225.431z"/>
	<path fill="#FFFFFF" d="M539.375,213.294h-9.568v2.9h9.568V213.294z M539.125,215.944h-9.068v-2.4h9.068V215.944z"/>
	<path fill="#FFFFFF" d="M529.807,249.314h9.568v-2.9h-9.568V249.314z M530.057,246.664h9.068v2.4h-9.068V246.664z"/>
	<path fill="#FFFFFF" d="M551.356,226.542h-2.912v9.524h2.912V226.542z M551.105,235.816h-2.412v-9.024h2.412V235.816z"/>
	<path fill="#FFFFFF" d="M520.739,226.542h-2.912v9.524h2.912V226.542z M520.489,235.816h-2.412v-9.024h2.412V235.816z"/>
	<path fill="#FFFFFF" d="M45.652,157.652H33.141c-1.391,0-2.522,1.126-2.522,2.51v0.528c0,1.385,1.132,2.511,2.522,2.511h12.511
		c1.391,0,2.522-1.126,2.522-2.511v-0.528C48.174,158.778,47.042,157.652,45.652,157.652z M47.924,160.69
		c0,1.246-1.019,2.261-2.272,2.261H33.141c-1.253,0-2.272-1.015-2.272-2.261v-0.528c0-1.246,1.019-2.26,2.272-2.26h12.511
		c1.253,0,2.272,1.014,2.272,2.26V160.69z"/>
	<path fill="#FFFFFF" d="M169.08,9.524h8.198c1.479,0,2.682-1.197,2.682-2.669V6.643c0-1.472-1.203-2.669-2.682-2.669h-8.198
		c-1.479,0-2.682,1.197-2.682,2.669v0.212C166.397,8.327,167.601,9.524,169.08,9.524z M166.648,6.643
		c0-1.333,1.091-2.418,2.432-2.418h8.198c1.341,0,2.432,1.085,2.432,2.418v0.212c0,1.334-1.091,2.419-2.432,2.419h-8.198
		c-1.341,0-2.432-1.085-2.432-2.419V6.643z"/>
	<path fill="#FFFFFF" d="M650.962,9.524h8.2c1.478,0,2.681-1.197,2.681-2.669V6.643c0-1.472-1.203-2.669-2.681-2.669h-8.2
		c-1.478,0-2.681,1.197-2.681,2.669v0.212C648.281,8.327,649.484,9.524,650.962,9.524z M648.531,6.643
		c0-1.333,1.09-2.418,2.43-2.418h8.2c1.34,0,2.431,1.085,2.431,2.418v0.212c0,1.334-1.09,2.419-2.431,2.419h-8.2
		c-1.34,0-2.43-1.085-2.43-2.419V6.643z"/>
	<path fill="#FFFFFF" d="M240.624,26.995h-9.026l-21.666,20.873h8.577l4.235-4.239h13.698l0.791,4.239h8.787l-5.373-20.78
		L240.624,26.995z M237.442,47.619l-0.791-4.239h-14.01l-4.235,4.239h-7.854l21.146-20.373h8.732l5.268,20.373H237.442z"/>
	<path fill="#FFFFFF" d="M234.253,31.578l-8.362,8.497h9.992l-1.586-8.263L234.253,31.578z M226.488,39.825l7.609-7.732l1.483,7.732
		H226.488z"/>
	<path fill="#FFFFFF" d="M308.303,42.996l-0.529-16h-11.637l-8.083,20.873h7.591l5.413-14.026c0.169-0.4,0.389-0.97,0.653-1.691
		c0.142-0.391,0.266-0.735,0.372-1.029l0.367,16.624l0.003,0.122h7.81l13.352-16.742c-0.106,0.272-0.232,0.584-0.375,0.933
		c-0.297,0.722-0.531,1.284-0.703,1.689l-5.449,14.12h7.59l8.083-20.873h-11.544L308.303,42.996z M332.397,27.246l-7.889,20.373
		h-7.054l5.316-13.776c0.17-0.402,0.404-0.964,0.702-1.687c0.302-0.735,0.515-1.284,0.653-1.678l0.24-0.691l-14.222,17.832h-7.446
		l-0.395-17.878l-0.228,0.655c-0.136,0.391-0.336,0.948-0.598,1.67c-0.263,0.718-0.481,1.283-0.65,1.684l-5.353,13.869h-7.053
		l7.888-20.373h11.224l0.543,16.43l13.262-16.43H332.397z"/>
	<path fill="#FFFFFF" d="M354.877,40.075l-1.63-8.497l-8.362,8.497H354.877z M354.574,39.825h-9.091l7.608-7.732L354.574,39.825z"/>
	<path fill="#FFFFFF" d="M211.341,54.482h-1.848v7.481h5.389v-1.587h-3.541V54.482z M214.632,60.627v1.086h-4.889v-6.981h1.348
		v5.894H214.632z"/>
	<path fill="#FFFFFF" d="M226.645,56.467c-0.168-0.249-0.387-0.45-0.654-0.597c-0.269-0.148-0.597-0.223-0.976-0.223
		c-0.38,0-0.708,0.075-0.976,0.223c-0.266,0.147-0.487,0.348-0.654,0.597c-0.163,0.241-0.283,0.522-0.359,0.835
		c-0.073,0.306-0.11,0.626-0.11,0.951c0,0.313,0.037,0.621,0.111,0.916c0.075,0.302,0.195,0.576,0.358,0.815
		c0.168,0.246,0.387,0.445,0.654,0.591c0.268,0.148,0.596,0.223,0.976,0.223c0.379,0,0.708-0.075,0.977-0.223
		c0.267-0.147,0.487-0.346,0.654-0.592c0.163-0.241,0.284-0.515,0.358-0.814c0.074-0.296,0.111-0.604,0.111-0.916
		c0-0.325-0.037-0.645-0.11-0.951C226.929,56.992,226.808,56.711,226.645,56.467z M226.761,59.109
		c-0.067,0.271-0.176,0.518-0.323,0.735c-0.144,0.212-0.335,0.385-0.567,0.513c-0.232,0.127-0.52,0.192-0.856,0.192
		c-0.337,0-0.625-0.065-0.856-0.192c-0.232-0.128-0.423-0.301-0.567-0.513c-0.146-0.215-0.255-0.462-0.323-0.735
		c-0.068-0.276-0.103-0.564-0.103-0.856c0-0.305,0.035-0.606,0.104-0.892c0.068-0.284,0.177-0.538,0.322-0.754
		c0.146-0.217,0.337-0.391,0.567-0.518c0.231-0.127,0.519-0.192,0.856-0.192s0.625,0.065,0.856,0.192
		c0.232,0.128,0.422,0.302,0.567,0.518c0.147,0.219,0.255,0.473,0.323,0.755c0.069,0.286,0.104,0.587,0.104,0.892
		C226.864,58.546,226.829,58.834,226.761,59.109z"/>
	<path fill="#FFFFFF" d="M227.734,55.456c-0.315-0.355-0.706-0.639-1.163-0.842c-0.456-0.202-0.98-0.304-1.557-0.304
		c-0.571,0-1.092,0.103-1.551,0.304c-0.461,0.203-0.853,0.487-1.167,0.842c-0.314,0.353-0.558,0.774-0.727,1.251
		c-0.167,0.475-0.251,0.995-0.251,1.546c0,0.537,0.085,1.047,0.252,1.516c0.169,0.471,0.413,0.886,0.727,1.232
		c0.316,0.349,0.708,0.628,1.167,0.826c0.458,0.198,0.98,0.299,1.55,0.299c0.577,0,1.1-0.101,1.556-0.299
		c0.456-0.199,0.847-0.477,1.163-0.826c0.315-0.347,0.559-0.761,0.727-1.232c0.167-0.468,0.252-0.978,0.252-1.516
		c0-0.551-0.084-1.071-0.252-1.546C228.292,56.232,228.048,55.811,227.734,55.456z M228.224,59.685
		c-0.157,0.439-0.384,0.825-0.677,1.148c-0.292,0.324-0.654,0.581-1.077,0.765c-0.424,0.185-0.913,0.278-1.456,0.278
		c-0.536,0-1.024-0.093-1.451-0.278s-0.79-0.442-1.082-0.765c-0.292-0.322-0.52-0.708-0.677-1.148
		c-0.157-0.441-0.237-0.923-0.237-1.432c0-0.522,0.08-1.015,0.237-1.463c0.158-0.446,0.386-0.839,0.678-1.168
		c0.29-0.328,0.654-0.591,1.081-0.78c0.427-0.188,0.915-0.283,1.45-0.283c0.542,0,1.032,0.095,1.455,0.283
		c0.423,0.189,0.786,0.451,1.077,0.78c0.293,0.33,0.521,0.723,0.677,1.168c0.157,0.448,0.237,0.94,0.237,1.463
		C228.461,58.763,228.381,59.244,228.224,59.685z"/>
	<path fill="#FFFFFF" d="M239.034,59.24h1.591c-0.06,0.407-0.211,0.723-0.448,0.942c-0.263,0.243-0.646,0.367-1.141,0.367
		c-0.337,0-0.625-0.065-0.856-0.192c-0.232-0.128-0.423-0.301-0.568-0.513c-0.147-0.216-0.255-0.463-0.323-0.735
		c-0.068-0.276-0.103-0.564-0.103-0.856c0-0.305,0.035-0.606,0.104-0.892c0.068-0.283,0.176-0.537,0.322-0.754
		c0.146-0.216,0.336-0.391,0.567-0.518c0.231-0.127,0.519-0.192,0.856-0.192c0.358,0,0.664,0.094,0.912,0.279
		c0.246,0.183,0.415,0.466,0.503,0.841l0.022,0.096h1.763l-0.013-0.137c-0.042-0.427-0.161-0.812-0.352-1.145
		c-0.19-0.329-0.435-0.61-0.729-0.836c-0.291-0.223-0.622-0.395-0.985-0.511c-0.361-0.115-0.739-0.173-1.121-0.173
		c-0.571,0-1.093,0.103-1.551,0.304c-0.461,0.203-0.853,0.487-1.167,0.842c-0.314,0.354-0.559,0.775-0.727,1.251
		c-0.167,0.475-0.251,0.995-0.251,1.546c0,0.537,0.085,1.047,0.252,1.516c0.168,0.47,0.413,0.885,0.727,1.232
		c0.316,0.349,0.708,0.628,1.167,0.826c0.458,0.198,0.98,0.299,1.551,0.299c0.368,0,0.737-0.077,1.096-0.228
		c0.296-0.123,0.573-0.325,0.826-0.601l0.132,0.667h1.245v-4.16h-3.302V59.24z M239.284,58.054h2.802v3.659h-0.79l-0.196-0.988
		l-0.168,0.216c-0.27,0.346-0.571,0.591-0.896,0.726c-0.329,0.138-0.665,0.209-0.999,0.209c-0.536,0-1.025-0.093-1.451-0.278
		c-0.426-0.185-0.79-0.442-1.081-0.765c-0.293-0.323-0.52-0.709-0.677-1.148c-0.157-0.441-0.237-0.923-0.237-1.432
		c0-0.522,0.08-1.015,0.237-1.463c0.158-0.445,0.386-0.838,0.678-1.168c0.29-0.328,0.654-0.591,1.081-0.78
		c0.427-0.188,0.915-0.283,1.451-0.283c0.358,0,0.709,0.054,1.045,0.162c0.335,0.107,0.641,0.265,0.909,0.471
		c0.268,0.206,0.491,0.463,0.664,0.763c0.153,0.266,0.255,0.57,0.303,0.907h-1.288c-0.108-0.387-0.3-0.685-0.572-0.887
		c-0.292-0.218-0.649-0.328-1.061-0.328c-0.38,0-0.708,0.075-0.977,0.223c-0.266,0.147-0.486,0.348-0.654,0.597
		c-0.163,0.242-0.283,0.523-0.358,0.835c-0.073,0.306-0.11,0.626-0.11,0.951c0,0.313,0.037,0.621,0.111,0.916
		c0.075,0.3,0.195,0.574,0.358,0.815c0.167,0.245,0.387,0.444,0.654,0.591c0.268,0.148,0.596,0.223,0.976,0.223
		c0.559,0,1-0.146,1.311-0.433c0.31-0.286,0.493-0.703,0.544-1.239l0.013-0.137h-1.62V58.054z"/>
	<path fill="#FFFFFF" d="M249.484,61.963h1.848v-7.481h-1.848V61.963z M249.734,54.733h1.348v6.981h-1.348V54.733z"/>
	<path fill="#FFFFFF" d="M283.624,61.963h1.848v-7.481h-1.848V61.963z M283.874,54.733h1.348v6.981h-1.348V54.733z"/>
	<path fill="#FFFFFF" d="M297.638,59.038c-0.058,0.457-0.216,0.829-0.471,1.105c-0.252,0.273-0.596,0.406-1.053,0.406
		c-0.337,0-0.625-0.065-0.856-0.192c-0.232-0.128-0.423-0.301-0.567-0.513c-0.147-0.216-0.255-0.463-0.323-0.735
		c-0.069-0.275-0.104-0.563-0.104-0.856c0-0.306,0.035-0.607,0.104-0.893c0.067-0.282,0.176-0.536,0.322-0.754
		c0.146-0.217,0.337-0.391,0.568-0.518c0.23-0.127,0.518-0.192,0.855-0.192c0.181,0,0.357,0.03,0.523,0.089
		c0.166,0.059,0.317,0.143,0.447,0.248c0.13,0.105,0.241,0.229,0.328,0.37c0.086,0.138,0.14,0.286,0.166,0.453l0.016,0.107h1.794
		l-0.016-0.139c-0.049-0.434-0.17-0.824-0.361-1.161c-0.19-0.336-0.435-0.623-0.729-0.853c-0.291-0.226-0.625-0.402-0.995-0.521
		c-0.366-0.118-0.761-0.178-1.173-0.178c-0.571,0-1.093,0.103-1.552,0.304c-0.46,0.203-0.852,0.487-1.167,0.842
		c-0.315,0.354-0.559,0.775-0.727,1.251c-0.167,0.476-0.252,0.996-0.252,1.546c0,0.537,0.085,1.046,0.252,1.516
		c0.168,0.47,0.412,0.885,0.727,1.232c0.316,0.349,0.709,0.628,1.167,0.826c0.458,0.198,0.98,0.299,1.551,0.299
		c0.458,0,0.887-0.07,1.274-0.21c0.389-0.141,0.731-0.348,1.018-0.614c0.29-0.266,0.525-0.592,0.7-0.97
		c0.175-0.376,0.285-0.802,0.327-1.267l0.012-0.136h-1.794L297.638,59.038z M299.169,59.179c-0.046,0.383-0.144,0.735-0.29,1.047
		c-0.162,0.348-0.378,0.648-0.643,0.892c-0.263,0.244-0.577,0.433-0.934,0.563c-0.359,0.13-0.76,0.195-1.189,0.195
		c-0.536,0-1.025-0.093-1.451-0.278c-0.426-0.185-0.79-0.442-1.081-0.765c-0.293-0.323-0.52-0.709-0.677-1.148
		c-0.157-0.442-0.237-0.924-0.237-1.432c0-0.521,0.08-1.014,0.237-1.463c0.157-0.445,0.385-0.838,0.678-1.168
		c0.291-0.328,0.655-0.591,1.081-0.78c0.427-0.188,0.915-0.283,1.451-0.283c0.386,0,0.755,0.056,1.096,0.167
		c0.342,0.11,0.651,0.272,0.918,0.48c0.268,0.21,0.492,0.472,0.665,0.779c0.153,0.271,0.258,0.582,0.312,0.927h-1.3
		c-0.035-0.159-0.096-0.307-0.181-0.442c-0.102-0.164-0.232-0.309-0.383-0.431c-0.153-0.123-0.328-0.22-0.52-0.289
		c-0.193-0.069-0.397-0.104-0.607-0.104c-0.38,0-0.708,0.075-0.976,0.223c-0.266,0.147-0.487,0.348-0.654,0.597
		c-0.164,0.242-0.284,0.524-0.359,0.835c-0.074,0.305-0.111,0.625-0.111,0.951c0,0.313,0.038,0.622,0.111,0.916
		c0.074,0.301,0.195,0.575,0.358,0.815c0.168,0.246,0.387,0.445,0.654,0.591c0.268,0.148,0.596,0.223,0.976,0.223
		c0.523,0,0.939-0.164,1.237-0.486c0.27-0.293,0.445-0.674,0.52-1.134H299.169z"/>
	<path fill="#FFFFFF" d="M320.289,57.967c-0.248-0.162-0.5-0.281-0.751-0.355c-0.242-0.071-0.436-0.121-0.569-0.148
		c-0.454-0.115-0.822-0.209-1.103-0.284c-0.275-0.072-0.491-0.145-0.641-0.215c-0.169-0.079-0.238-0.15-0.267-0.196
		c-0.042-0.066-0.062-0.161-0.062-0.279c0-0.129,0.027-0.235,0.081-0.315c0.058-0.087,0.133-0.16,0.222-0.217
		c0.095-0.06,0.199-0.102,0.309-0.125c0.32-0.065,0.622-0.042,0.881,0.01c0.152,0.031,0.287,0.084,0.401,0.156
		c0.112,0.07,0.199,0.165,0.268,0.289c0.068,0.125,0.109,0.287,0.122,0.484l0.007,0.117h1.789v-0.125
		c0-0.437-0.086-0.817-0.255-1.128c-0.168-0.31-0.398-0.567-0.684-0.766c-0.281-0.196-0.609-0.341-0.974-0.43
		c-0.669-0.161-1.409-0.19-2.132,0.007c-0.339,0.091-0.647,0.234-0.915,0.424c-0.272,0.192-0.494,0.435-0.661,0.722
		c-0.17,0.291-0.256,0.638-0.256,1.03c0,0.35,0.068,0.654,0.203,0.906c0.135,0.248,0.312,0.457,0.528,0.622
		c0.212,0.161,0.455,0.295,0.723,0.397c0.265,0.1,0.536,0.184,0.804,0.251c0.267,0.074,0.529,0.143,0.789,0.203
		c0.253,0.06,0.48,0.13,0.675,0.208c0.187,0.073,0.339,0.167,0.453,0.277c0.101,0.098,0.15,0.224,0.15,0.386
		c0,0.154-0.038,0.276-0.115,0.371c-0.085,0.105-0.187,0.185-0.313,0.244c-0.128,0.061-0.27,0.104-0.422,0.127
		c-0.389,0.055-0.71,0.042-1.02-0.039c-0.18-0.046-0.339-0.118-0.471-0.213c-0.132-0.095-0.234-0.215-0.314-0.368
		c-0.078-0.149-0.118-0.337-0.118-0.559v-0.125h-1.795l-0.002,0.123c-0.008,0.464,0.079,0.873,0.258,1.214
		c0.178,0.341,0.422,0.625,0.725,0.843c0.3,0.219,0.65,0.38,1.038,0.481c0.385,0.1,0.787,0.151,1.197,0.151
		c0.503,0,0.954-0.06,1.344-0.177c0.39-0.12,0.723-0.289,0.988-0.504c0.269-0.218,0.474-0.481,0.61-0.78
		c0.135-0.299,0.204-0.626,0.204-0.973c0-0.429-0.094-0.788-0.28-1.068C320.76,58.352,320.54,58.131,320.289,57.967z
		 M320.789,60.561c-0.12,0.264-0.301,0.496-0.54,0.689c-0.24,0.194-0.545,0.349-0.904,0.459c-0.366,0.11-0.794,0.167-1.271,0.167
		c-0.388,0-0.77-0.048-1.134-0.143c-0.359-0.092-0.679-0.241-0.955-0.441c-0.271-0.196-0.489-0.451-0.65-0.757
		c-0.144-0.274-0.221-0.6-0.229-0.971h1.3c0.013,0.21,0.061,0.395,0.142,0.55c0.096,0.185,0.227,0.338,0.389,0.455
		c0.159,0.114,0.346,0.198,0.555,0.252c0.34,0.088,0.693,0.103,1.119,0.044c0.177-0.026,0.343-0.076,0.492-0.148
		c0.159-0.075,0.293-0.18,0.4-0.313c0.113-0.14,0.17-0.318,0.17-0.529c0-0.23-0.076-0.42-0.226-0.566
		c-0.138-0.133-0.318-0.244-0.534-0.33c-0.205-0.082-0.444-0.156-0.71-0.219c-0.256-0.06-0.516-0.128-0.782-0.202
		c-0.262-0.065-0.524-0.147-0.78-0.243c-0.246-0.094-0.468-0.216-0.66-0.363c-0.187-0.143-0.342-0.325-0.46-0.542
		c-0.115-0.214-0.173-0.478-0.173-0.787c0-0.347,0.075-0.651,0.222-0.904c0.149-0.256,0.347-0.473,0.59-0.644
		c0.244-0.173,0.526-0.303,0.836-0.387c0.684-0.185,1.38-0.156,2.008-0.005c0.335,0.081,0.634,0.213,0.889,0.392
		c0.254,0.176,0.459,0.405,0.608,0.68c0.133,0.245,0.207,0.542,0.222,0.884h-1.306c-0.022-0.183-0.07-0.341-0.142-0.471
		c-0.088-0.16-0.207-0.288-0.353-0.381c-0.14-0.088-0.303-0.151-0.486-0.189c-0.291-0.057-0.626-0.082-0.98-0.01
		c-0.141,0.029-0.273,0.083-0.393,0.159c-0.119,0.076-0.218,0.173-0.296,0.289c-0.082,0.123-0.123,0.275-0.123,0.454
		c0,0.166,0.034,0.304,0.1,0.411c0.068,0.11,0.19,0.205,0.374,0.291c0.166,0.077,0.389,0.152,0.683,0.23
		c0.281,0.074,0.65,0.169,1.111,0.285c0.132,0.027,0.319,0.075,0.554,0.144c0.227,0.066,0.457,0.176,0.684,0.324
		c0.223,0.146,0.418,0.344,0.58,0.587c0.158,0.238,0.238,0.551,0.238,0.929C320.97,60.002,320.909,60.295,320.789,60.561z"/>
	<path fill="#FFFFFF" d="M329.869,58.855h3.521v-1.486h-3.521V56.07h3.836v-1.587h-5.684v7.481h5.766v-1.587h-3.918V58.855z
		 M333.537,60.627v1.086h-5.266v-6.981h5.184v1.087h-3.836v1.799h3.521v0.985h-3.521v2.022H333.537z"/>
	<path fill="#FFFFFF" d="M347.058,61.437c-0.035-0.134-0.062-0.279-0.079-0.442c-0.016-0.159-0.028-0.315-0.034-0.469
		c-0.007-0.155-0.014-0.291-0.021-0.409c-0.015-0.188-0.041-0.377-0.079-0.562c-0.041-0.197-0.105-0.377-0.19-0.536
		c-0.089-0.166-0.205-0.311-0.343-0.431c-0.079-0.068-0.17-0.126-0.272-0.175c0.305-0.164,0.536-0.38,0.69-0.645
		c0.19-0.328,0.286-0.721,0.286-1.166c0-0.29-0.053-0.567-0.157-0.823c-0.104-0.255-0.258-0.482-0.456-0.675
		c-0.197-0.194-0.438-0.348-0.711-0.457c-0.275-0.11-0.587-0.166-0.927-0.166h-4.044v7.481h1.848v-2.825h1.472
		c0.364,0,0.625,0.076,0.777,0.226c0.155,0.156,0.261,0.411,0.311,0.759c0.04,0.286,0.07,0.589,0.09,0.902
		c0.022,0.328,0.079,0.616,0.171,0.857l0.031,0.08h1.93l-0.147-0.199C347.141,61.677,347.092,61.567,347.058,61.437z
		 M345.595,61.713c-0.066-0.201-0.109-0.437-0.126-0.704c-0.021-0.319-0.052-0.628-0.092-0.921
		c-0.059-0.403-0.188-0.707-0.383-0.901c-0.198-0.199-0.52-0.3-0.953-0.3h-1.722v2.825h-1.348v-6.981h3.793
		c0.308,0,0.588,0.05,0.834,0.149c0.243,0.097,0.455,0.233,0.63,0.403c0.173,0.169,0.307,0.368,0.399,0.591
		c0.092,0.225,0.139,0.47,0.139,0.727c0,0.401-0.085,0.751-0.253,1.041c-0.164,0.284-0.44,0.504-0.819,0.654l-0.079,0.052v0.18
		l0.092,0.025c0.179,0.049,0.327,0.124,0.442,0.222c0.114,0.099,0.211,0.22,0.285,0.36c0.074,0.137,0.131,0.295,0.167,0.467
		c0.035,0.175,0.061,0.354,0.073,0.529c0.007,0.115,0.014,0.249,0.021,0.402c0.006,0.158,0.019,0.32,0.036,0.485
		c0.019,0.176,0.047,0.333,0.085,0.478c0.02,0.076,0.044,0.148,0.073,0.214H345.595z"/>
	<path fill="#FFFFFF" d="M344.194,55.718h-1.875v2.285h1.875c0.397,0,0.702-0.092,0.908-0.275c0.21-0.186,0.317-0.483,0.317-0.884
		c0-0.386-0.107-0.675-0.318-0.86C344.895,55.808,344.59,55.718,344.194,55.718z M344.936,57.542
		c-0.158,0.14-0.407,0.212-0.742,0.212h-1.625v-1.785h1.625c0.334,0,0.584,0.069,0.742,0.206c0.153,0.134,0.232,0.36,0.232,0.671
		C345.168,57.171,345.09,57.406,344.936,57.542z"/>
	<path fill="#FFFFFF" d="M366.507,61.963h1.847v-7.481h-1.847V61.963z M366.757,54.733h1.347v6.981h-1.347V54.733z"/>
	<path fill="#FFFFFF" d="M391.108,60.377v-1.522h3.521v-1.486h-3.521V56.07h3.836v-1.587h-5.684v7.481h5.766v-1.587H391.108z
		 M394.776,61.713h-5.266v-6.981h5.184v1.087h-3.836v1.799h3.521v0.985h-3.521v2.022h3.918V61.713z"/>
</g>
</svg>
