<?xml version="1.0" encoding="utf-8"?>
<!-- Generator: Adobe Illustrator 17.0.0, SVG Export Plug-In . SVG Version: 6.00 Build 0)  -->
<!DOCTYPE svg PUBLIC "-//W3C//DTD SVG 1.1//EN" "http://www.w3.org/Graphics/SVG/1.1/DTD/svg11.dtd">
<svg version="1.1" id="Layer_1" xmlns="http://www.w3.org/2000/svg" xmlns:xlink="http://www.w3.org/1999/xlink" x="0px" y="0px"
	 width="1920px" height="1080px" viewBox="0 0 1920 1080" enable-background="new 0 0 1920 1080" xml:space="preserve">
<linearGradient id="SVGID_1_" gradientUnits="userSpaceOnUse" x1="1742.8254" y1="1269.9965" x2="177.1746" y2="-189.9965">
	<stop  offset="0" style="stop-color:#B60506"/>
	<stop  offset="1" style="stop-color:#620202"/>
</linearGradient>
<rect fill="url(#SVGID_1_)" width="1920" height="1080"/>
<linearGradient id="SVGID_2_" gradientUnits="userSpaceOnUse" x1="1758.9403" y1="963.4115" x2="1561.1128" y2="519.0834">
	<stop  offset="0" style="stop-color:#C00405"/>
	<stop  offset="0.1034" style="stop-color:#B50405"/>
	<stop  offset="0.4843" style="stop-color:#920203"/>
	<stop  offset="0.7968" style="stop-color:#7D0102"/>
	<stop  offset="1" style="stop-color:#750102"/>
</linearGradient>
<path fill="url(#SVGID_2_)" d="M1920,359.3c-129.52,227.5-304.51,477.34-539.18,720.7h116.26
	C1607.41,926.65,1746.3,765.53,1920,611.34V359.3"/>
<linearGradient id="SVGID_3_" gradientUnits="userSpaceOnUse" x1="1967.4417" y1="924.8253" x2="1580.6718" y2="806.5778">
	<stop  offset="0" style="stop-color:#6A0101"/>
	<stop  offset="0.5593" style="stop-color:#590000"/>
	<stop  offset="1" style="stop-color:#510000"/>
</linearGradient>
<path fill="url(#SVGID_3_)" d="M1920,611.34c-173.7,154.19-312.59,315.31-422.92,468.66H1920V611.34"/>
<path fill="#720102" d="M1651.14,0h-71.35c-5.99,28.37-12.34,56.95-19.09,85.8C1592.02,57.12,1622.16,28.49,1651.14,0"/>
<path fill="#A70708" d="M1160.82,105.8c-5.97-36.19-12.47-71.44-19.43-105.8H0v918.31c484.35-121.46,878.21-319.23,1193.04-538.34
	C1186.24,283.78,1175.08,192.23,1160.82,105.8z"/>
<linearGradient id="SVGID_4_" gradientUnits="userSpaceOnUse" x1="1516.6775" y1="229.8089" x2="1109.2167" y2="105.2356">
	<stop  offset="0" style="stop-color:#AB0404"/>
	<stop  offset="0.0187" style="stop-color:#A90404"/>
	<stop  offset="0.4356" style="stop-color:#860303"/>
	<stop  offset="0.7776" style="stop-color:#710202"/>
	<stop  offset="1" style="stop-color:#690202"/>
</linearGradient>
<path fill="url(#SVGID_4_)" d="M1421.59,0h-280.2c6.96,34.37,13.46,69.62,19.43,105.8c14.25,86.42,25.42,177.98,32.22,274.16
	c137.24-95.52,259.48-195.09,367.66-294.16c6.75-28.86,13.1-57.43,19.09-85.8H1421.59z"/>
<path fill="#540001" d="M1534.73,560.66c-51.13,41-105.39,81.58-162.83,121.19c-52.71,130.63-114.26,263.71-185.9,398.15h87.35
	C1385.09,903.26,1470.18,728.08,1534.73,560.66"/>
<linearGradient id="SVGID_5_" gradientUnits="userSpaceOnUse" x1="1619.4456" y1="1067.4941" x2="1574.1947" y2="204.0576">
	<stop  offset="0" style="stop-color:#C00405"/>
	<stop  offset="0.2626" style="stop-color:#9D0304"/>
	<stop  offset="0.5757" style="stop-color:#7A0202"/>
	<stop  offset="0.8328" style="stop-color:#650101"/>
	<stop  offset="1" style="stop-color:#5D0101"/>
</linearGradient>
<path fill="url(#SVGID_5_)" d="M1920,185.93c-101.55,119.71-228.89,249.31-385.27,374.73c-64.55,167.42-149.64,342.6-261.38,519.34
	h107.47c234.67-243.36,409.66-493.2,539.18-720.7V185.93"/>
<linearGradient id="SVGID_6_" gradientUnits="userSpaceOnUse" x1="1128.2715" y1="1126.7795" x2="699.8043" y2="826.7636">
	<stop  offset="0" style="stop-color:#C60708"/>
	<stop  offset="0.3244" style="stop-color:#B00809"/>
	<stop  offset="0.7333" style="stop-color:#9B0A0B"/>
	<stop  offset="1" style="stop-color:#930A0B"/>
</linearGradient>
<path fill="url(#SVGID_6_)" d="M1193.62,795.14C1001.15,907.55,778.43,1007.02,522.49,1080h638.54
	C1176.81,982.23,1187.42,887.24,1193.62,795.14"/>
<linearGradient id="SVGID_7_" gradientUnits="userSpaceOnUse" x1="1317.2648" y1="923.556" x2="1181.4788" y2="809.618">
	<stop  offset="0" style="stop-color:#BD0405"/>
	<stop  offset="0.119" style="stop-color:#B70405"/>
	<stop  offset="0.6523" style="stop-color:#A20303"/>
	<stop  offset="1" style="stop-color:#9A0303"/>
</linearGradient>
<path fill="url(#SVGID_7_)" d="M1371.9,681.85c-56.31,38.83-115.68,76.74-178.27,113.29c-6.21,92.1-16.81,187.09-32.6,284.86h24.97
	C1257.64,945.57,1319.18,812.48,1371.9,681.85"/>
<linearGradient id="SVGID_8_" gradientUnits="userSpaceOnUse" x1="1639.7882" y1="426.188" x2="1425.5438" y2="258.8019">
	<stop  offset="0" style="stop-color:#8D0303"/>
	<stop  offset="0.1116" style="stop-color:#810303"/>
	<stop  offset="0.489" style="stop-color:#5E0101"/>
	<stop  offset="0.7987" style="stop-color:#490000"/>
	<stop  offset="1" style="stop-color:#410000"/>
</linearGradient>
<path fill="url(#SVGID_8_)" d="M1689.42,0h-38.28c-28.99,28.49-59.12,57.12-90.44,85.8c-44.4,189.87-105.64,389.94-188.81,596.05
	c57.44-39.61,111.71-80.19,162.83-121.19C1612.47,359.01,1660.45,168.57,1689.42,0"/>
<linearGradient id="SVGID_9_" gradientUnits="userSpaceOnUse" x1="1781.8928" y1="499.0346" x2="1659.3396" y2="7.5005">
	<stop  offset="0" style="stop-color:#9E0404"/>
	<stop  offset="0.1851" style="stop-color:#970404"/>
	<stop  offset="0.447" style="stop-color:#850303"/>
	<stop  offset="0.7531" style="stop-color:#670102"/>
	<stop  offset="1" style="stop-color:#490001"/>
</linearGradient>
<path fill="url(#SVGID_9_)" d="M1920,0h-230.58c-28.97,168.57-76.95,359.01-154.69,560.66
	c156.38-125.41,283.72-255.02,385.27-374.73V0"/>
<linearGradient id="SVGID_10_" gradientUnits="userSpaceOnUse" x1="733.2158" y1="1023.1278" x2="562.1099" y2="656.1901">
	<stop  offset="0" style="stop-color:#B70D0D"/>
	<stop  offset="1" style="stop-color:#73090B"/>
</linearGradient>
<path fill="url(#SVGID_10_)" d="M1193.04,379.97C878.21,599.08,484.35,796.85,0,918.31V1080h522.49
	c255.95-72.98,478.66-172.45,671.14-284.86C1203.48,648.92,1202.25,510.16,1193.04,379.97"/>
<linearGradient id="SVGID_11_" gradientUnits="userSpaceOnUse" x1="1494.7412" y1="550.1169" x2="1248.5013" y2="320.4945">
	<stop  offset="0" style="stop-color:#B60506"/>
	<stop  offset="1" style="stop-color:#620202"/>
</linearGradient>
<path fill="url(#SVGID_11_)" d="M1560.7,85.8c-108.18,99.07-230.42,198.65-367.66,294.16c9.21,130.19,10.44,268.95,0.58,415.18
	c62.59-36.55,121.96-74.46,178.27-113.29C1455.07,475.75,1516.3,275.68,1560.7,85.8"/>
</svg>
