<?xml version="1.0" encoding="utf-8"?>
<!-- Generator: Adobe Illustrator 17.0.0, SVG Export Plug-In . SVG Version: 6.00 Build 0)  -->
<!DOCTYPE svg PUBLIC "-//W3C//DTD SVG 1.1//EN" "http://www.w3.org/Graphics/SVG/1.1/DTD/svg11.dtd">
<svg version="1.1" id="Layer_1" xmlns="http://www.w3.org/2000/svg" xmlns:xlink="http://www.w3.org/1999/xlink" x="0px" y="0px"
	 width="120px" height="120px" viewBox="0 0 120 120" enable-background="new 0 0 120 120" xml:space="preserve">
<g>
	<path fill="#B3B3B3" d="M3.09,76.54c1.03-2.69,3.15-2.83,5.67-2.82c26.63,0.08,53.26,0.05,79.89,0.05c7.82,0,9.6-1.26,11.94-8.72
		c0.71-2.26,1.4-4.58,1.63-6.92c0.36-3.77,2.41-4.57,5.75-4.23c4.18,0.42,1.55,3.27,1.93,5.02c0.16,0.74-0.08,1.57-0.15,2.36
		c-0.62,7.2-0.32,7.56,6.88,7.92c0.64,0.74,0.07,1.46-0.13,2.13c-2.52,8.43-2.8,8.56-10.94,4.8c-0.7-0.33-1.28-1.07-1.97-0.21
		c-2.76,3.5-6.63,2.39-10.15,2.4c-30.11,0.09-60.22,0.1-90.34,0.14C3.09,77.81,3.09,77.18,3.09,76.54z"/>
	<path fill="#B3B3B3" d="M58.72,63.17c-2.29,2.55-4.23,4.85-6.32,6.99c-2.29,2.36-4.35,2.35-5.89-0.89
		c-1.28-2.68-2.63-5.33-4.47-9.05c-1.03,3.81-1.85,6.58-2.5,9.39c-0.3,1.29-0.36,2.66-2.15,2.45c-2.27-0.27-1.11-1.87-0.87-2.88
		c0.88-3.69,1.87-7.37,2.89-11.02c0.49-1.77,1.55-3.27,3.47-3.49c2.09-0.25,3.06,1.4,3.81,3.01c1.4,2.97,2.69,5.98,4.24,9.42
		c2.89-3.49,5.42-6.52,7.9-9.58c1.34-1.65,2.79-3.08,5.08-3.08c2.61-0.01,4.32,0.65,3.52,3.94c-0.9,3.69-1.54,7.45-2.13,11.2
		c-0.27,1.68-0.86,2.44-2.68,2.5c-2.88,0.09-5.18,0.1-3.68-3.93C59.46,66.74,59.89,65.11,58.72,63.17z"/>
	<path fill="#B3B3B3" d="M92.19,66.81c1.48-3.92,2.7-7.15,3.92-10.38c0.49-1.31,1.4-2.48,2.79-1.85c1.34,0.6,0.37,2.03,0.06,2.94
		c-1.23,3.76-2.53,7.5-4.01,11.17c-0.71,1.77-1.81,3.35-4.15,3.36c-2.57,0.01-2.99-2.02-3.64-3.74c-0.89-2.36-1.62-4.79-2.67-7.95
		c-1.76,3.07-3.39,5.52-4.62,8.15c-1.58,3.41-4.31,4.03-7.47,3.32c-3.27-0.73-1.83-3.58-1.97-5.56c-0.21-3-0.04-6.03-0.09-9.04
		c-0.03-1.98,0.98-2.97,2.85-3.03c2.08-0.06,3.25,0.89,3.19,3.15c-0.08,2.75-0.02,5.51-0.02,9.69c2.34-4.22,3.96-7.21,5.64-10.18
		c0.88-1.56,1.96-3.06,4-2.85c2.1,0.21,2.63,1.96,3.17,3.68C90.04,60.52,91.01,63.3,92.19,66.81z"/>
	<path fill="#B3B3B3" d="M37.89,54.74c-0.5,3.27-2.11,4.56-5.21,4.34c-2.84-0.2-5.7-0.08-8.55-0.02c-1.91,0.04-3.81,0.3-5.37,1.58
		c-1.64,1.34-3.19,2.91-2.68,5.18c0.55,2.45,2.87,2.83,4.9,2.94c3.48,0.19,6.97,0.05,10.46,0.09c1.06,0.01,2.47-0.26,2.55,1.34
		c0.09,1.85-1.4,1.77-2.68,1.77c-6.02,0-12.05,0.19-18.06-0.07c-5.9-0.25-8.46-5.68-5.09-10.54c2.91-4.18,7.27-6.22,12.15-6.53
		C26.11,54.46,31.94,54.74,37.89,54.74z"/>
	<path fill="#B3B3B3" d="M107.09,52.79c-3.16-0.52-5.63-2.13-5.5-5.72c0.12-3.46,2.43-5.55,5.83-5.55c3.49,0,5.65,2.3,5.61,5.7
		C113,50.65,110.76,52.55,107.09,52.79z"/>
</g>
</svg>
