<?xml version="1.0" encoding="utf-8"?>
<!-- Generator: Adobe Illustrator 17.0.0, SVG Export Plug-In . SVG Version: 6.00 Build 0)  -->
<!DOCTYPE svg PUBLIC "-//W3C//DTD SVG 1.1//EN" "http://www.w3.org/Graphics/SVG/1.1/DTD/svg11.dtd">
<svg version="1.1" id="Layer_1" xmlns="http://www.w3.org/2000/svg" xmlns:xlink="http://www.w3.org/1999/xlink" x="0px" y="0px"
	 width="120px" height="120px" viewBox="0 0 120 120" enable-background="new 0 0 120 120" xml:space="preserve">
<g>
	<path fill="#B3B3B3" d="M99.38,27.74c-26.18,0-52.36,0-78.55,0c-0.19,0-0.24,0.03-0.24,0.24c0.01,15.37,0.01,30.74,0.01,46.1
		c0.07,0.09,0.16,0.1,0.26,0.11c0.16,0.01,0.31,0,0.47,0c25.77,0,51.55,0,77.32,0c0.12,0,0.25,0,0.37,0
		c0.37-0.01,0.39-0.03,0.39-0.39c0-15.26,0-30.52,0-45.79C99.4,27.92,99.43,27.82,99.38,27.74z M93.95,49.6
		c-0.62,0.91-1.48,1.52-2.41,2.07c-1.16,0.69-2.41,1.23-3.65,1.76c-1.13,0.49-2.27,0.94-3.43,1.35c-1.3,0.46-2.6,0.91-3.91,1.33
		c-1.67,0.54-3.34,1.04-5.02,1.52c-1.92,0.54-3.85,1.06-5.79,1.53c-1.18,0.28-2.35,0.59-3.54,0.86c-1.52,0.34-3.05,0.69-4.58,1.02
		c-1.52,0.32-3.03,0.65-4.55,0.95c-1.59,0.32-3.18,0.64-4.78,0.91c-0.99,0.17-1.97,0.36-2.96,0.54c-1.41,0.26-2.83,0.5-4.25,0.74
		c-1.29,0.22-2.59,0.44-3.89,0.65c-0.54,0.09-1.08,0.22-1.64,0.24c-0.02-0.12,0.06-0.2,0.11-0.27c0.83-1.21,1.66-2.42,2.49-3.64
		c0.76-1.1,1.51-2.21,2.27-3.31c0.11-0.15,0.03-0.21-0.06-0.3c-1.23-1.23-2.46-2.46-3.69-3.69c-4.86-4.86-9.71-9.71-14.57-14.57
		c-0.06-0.06-0.17-0.12-0.13-0.21c0.03-0.08,0.15-0.04,0.22-0.05c1.15-0.08,2.29-0.1,3.44-0.15c0.44-0.02,0.74,0.12,1.05,0.43
		c4.5,4.52,9.01,9.02,13.51,13.53c1.3,1.3,2.6,2.6,3.9,3.9c0.11,0.11,0.21,0.16,0.37,0.15c1.04-0.08,2.07-0.16,3.11-0.24
		c1.1-0.09,2.2-0.17,3.3-0.27c0.83-0.07,1.66-0.16,2.49-0.25c0.88-0.09,1.76-0.19,2.63-0.29c1.19-0.14,2.39-0.28,3.58-0.43
		c1.3-0.16,2.59-0.33,3.89-0.51c0.77-0.11,1.53-0.23,2.3-0.35c1.11-0.18,2.23-0.34,3.34-0.53c1.18-0.2,2.37-0.42,3.54-0.65
		c1.34-0.26,2.69-0.54,4.02-0.83c0.98-0.21,1.95-0.45,2.92-0.69c1.53-0.39,3.06-0.79,4.56-1.27c1.09-0.35,2.21-0.65,3.23-1.19
		c0.31-0.16,0.61-0.34,0.83-0.64c0.23-0.31,0.21-0.66-0.04-0.96c-0.21-0.25-0.49-0.41-0.78-0.54c-1.02-0.48-2.09-0.83-3.15-1.18
		c-1.29-0.42-2.6-0.76-3.91-1.06c-1.94-0.45-3.89-0.83-5.86-1.15c-1.59-0.26-3.18-0.5-4.78-0.69c-1.23-0.15-2.45-0.3-3.68-0.44
		c-1.1-0.12-2.2-0.21-3.3-0.31c-1.1-0.1-2.2-0.2-3.3-0.28c-1.17-0.09-2.34-0.15-3.51-0.21c-1.32-0.08-2.65-0.16-3.97-0.23
		c-0.74-0.04-1.49-0.03-2.24-0.07c-1.9-0.1-3.8-0.11-5.7-0.17c-1.15-0.04-2.29-0.01-3.44-0.01c-0.03,0.08,0.03,0.11,0.06,0.15
		c2.02,2.02,4.04,4.04,6.06,6.05c1.72,1.72,3.44,3.44,5.16,5.16c0.6,0.6,1.2,1.19,1.79,1.79c0.01,0.01,0.03,0.02,0.04,0.03
		c0.05,0.07,0.17,0.13,0.13,0.22c-0.03,0.08-0.15,0.07-0.24,0.08c-1.13,0.09-2.25,0.21-3.37,0.31c-1.21,0.11-2.41,0.21-3.62,0.32
		c-0.65,0.06-1.31,0.1-1.96,0.14c-0.1,0.01-0.19-0.01-0.26-0.09c-1.52-1.53-3.04-3.06-4.56-4.59c-1.91-1.91-3.82-3.82-5.73-5.73
		c-2.08-2.08-4.15-4.15-6.23-6.22c-0.04-0.04-0.1-0.08-0.08-0.14c0.02-0.09,0.11-0.05,0.17-0.05c2.35-0.01,4.71-0.03,7.06,0.03
		c1.57,0.04,3.13,0.04,4.7,0.08c1.53,0.04,3.07,0.09,4.6,0.14c1.56,0.06,3.13,0.13,4.69,0.2c1.15,0.05,2.29,0.12,3.44,0.19
		c1.26,0.08,2.52,0.15,3.77,0.25c1.38,0.11,2.75,0.23,4.13,0.37c0.94,0.09,1.89,0.17,2.83,0.26c0.98,0.1,1.97,0.21,2.95,0.33
		c1.11,0.13,2.22,0.26,3.33,0.41c0.96,0.13,1.92,0.29,2.88,0.44c0.94,0.15,1.88,0.32,2.82,0.49c0.87,0.16,1.74,0.34,2.61,0.52
		c1.55,0.32,3.08,0.69,4.61,1.12c1.89,0.52,3.74,1.13,5.53,1.94c0.63,0.29,1.23,0.63,1.76,1.1C94.46,47.48,94.58,48.68,93.95,49.6z"
		/>
	<path fill="#B3B3B3" d="M59.48,80.14c-0.49,0-0.98,0-1.48,0c-0.49,0-0.61,0.11-0.61,0.61c0,1.39-0.01,2.77,0,4.16
		c0,0.24-0.07,0.3-0.3,0.3c-1.12-0.01-2.25-0.01-3.37-0.01c-0.34,0-0.34,0-0.34-0.33c0-1.39,0-2.77,0-4.16
		c0-0.41-0.12-0.55-0.53-0.56c-0.53-0.01-1.07-0.01-1.6,0.01c-0.46,0.01-0.53,0.1-0.53,0.57c0,1.8,0,3.61,0,5.41
		c0,1.82,0,3.64,0,5.46c0,0.42,0.12,0.54,0.54,0.54c0.51,0,1.02,0,1.53,0c0.47,0,0.59-0.12,0.59-0.6c0-1.6,0-3.2,0-4.8
		c0-0.2,0.05-0.26,0.26-0.26c1.16,0.01,2.33,0.01,3.49,0c0.23,0,0.27,0.07,0.27,0.28c-0.01,1.44,0,2.89,0,4.33
		c0,0.21-0.01,0.43,0.01,0.64c0.02,0.28,0.16,0.41,0.44,0.41c0.58,0,1.16,0.01,1.75,0c0.31,0,0.44-0.14,0.45-0.46
		c0.01-0.33,0.01-0.66,0.01-0.98c0-3.33,0-6.66,0-9.99C60.06,80.26,59.93,80.14,59.48,80.14z"/>
	<path fill="#B3B3B3" d="M99.38,80.5c0-0.33-0.01-0.34-0.32-0.34c-0.26,0-0.53,0-0.79,0c-0.41,0-0.42,0.01-0.42,0.43
		c0,0.1,0,0.2,0,0.3c0,2.73,0,5.46,0,8.2c0,0.77-0.32,1.37-1.01,1.72c-0.6,0.31-1.24,0.32-1.87,0.2c-0.86-0.16-1.39-0.69-1.59-1.54
		c-0.08-0.33-0.08-0.67-0.08-1c0-2.59,0-5.19,0-7.78c0-0.41-0.11-0.52-0.53-0.52c-0.52,0-1.03,0-1.55,0c-0.47,0-0.57,0.09-0.57,0.56
		c0,2.4-0.01,4.79,0,7.19c0,0.47,0.02,0.94,0.14,1.39c0.37,1.41,1.32,2.27,2.67,2.7c1.15,0.36,2.33,0.32,3.5,0.09
		c0.61-0.12,1.17-0.38,1.61-0.84c0.58-0.61,0.8-1.37,0.81-2.18c0.02-1.42,0.01-2.84,0.01-4.26C99.38,83.37,99.38,81.93,99.38,80.5z"
		/>
	<path fill="#B3B3B3" d="M85.04,84.47c-0.5-0.36-1-0.72-1.35-1.24c-0.3-0.44-0.38-0.91-0.07-1.38c0.32-0.49,0.82-0.61,1.36-0.64
		c0.96-0.05,1.82,0.28,2.64,0.73c0.27,0.14,0.32,0.11,0.32-0.2c0-0.25-0.02-0.49,0.01-0.74c0.02-0.26-0.08-0.39-0.31-0.48
		c-1.17-0.48-2.38-0.58-3.62-0.42c-0.79,0.11-1.47,0.43-1.99,1.06c-1.1,1.35-0.82,3.23,0.43,4.53c0.71,0.74,1.56,1.32,2.38,1.94
		c0.47,0.35,0.93,0.7,1.27,1.18c0.64,0.91,0.3,1.98-0.7,2.2c-0.43,0.09-0.86,0.09-1.3,0.04c-0.81-0.09-1.58-0.33-2.31-0.71
		c-0.23-0.12-0.29-0.07-0.3,0.18c0,0.25,0,0.49,0,0.74c0,0.38,0.04,0.45,0.4,0.57c0.88,0.29,1.77,0.47,2.75,0.43
		c0.73,0.06,1.47-0.06,2.18-0.38c0.87-0.4,1.47-1.04,1.67-1.99c0.29-1.38-0.14-2.55-1.1-3.55C86.71,85.58,85.85,85.05,85.04,84.47z"
		/>
	<path fill="#B3B3B3" d="M80.4,80.16c-2.82,0-5.64,0-8.47,0c-0.09,0-0.18,0-0.27,0c-0.15,0-0.22,0.08-0.22,0.23
		c0,0.24,0,0.48,0,0.71c0,0.31,0.04,0.35,0.36,0.35c0.89,0,1.77,0,2.66,0c0.36,0,0.36,0,0.36,0.37c0,3.24,0,6.48,0,9.72
		c0,0.48,0.12,0.6,0.6,0.59c0.52,0,1.03-0.01,1.55-0.01c0.41,0,0.52-0.11,0.52-0.53c0-1.64,0-3.28,0-4.92h0c0-1.65,0-3.3-0.01-4.95
		c0-0.21,0.05-0.28,0.27-0.27c0.89,0.01,1.79,0.01,2.68,0.01c0.34,0,0.39-0.06,0.39-0.41c0-0.16,0-0.31,0-0.47
		C80.82,80.21,80.76,80.16,80.4,80.16z"/>
	<path fill="#B3B3B3" d="M46.73,80.16c-0.54,0-1.08,0-1.62,0c-0.51,0-0.59,0.08-0.59,0.59c0,3.5,0,6.99,0,10.49
		c0,0.16,0,0.31,0,0.47c0.01,0.28,0.15,0.44,0.42,0.44c0.58,0.01,1.17,0.01,1.75-0.01c0.47-0.02,0.55-0.12,0.55-0.58
		c0-1.8,0-3.61,0-5.41c0-1.82,0-3.64,0-5.46C47.24,80.28,47.12,80.16,46.73,80.16z"/>
	<path fill="#B3B3B3" d="M28.92,81.25c-0.88-0.78-1.95-1.09-3.11-1.09c-1.53-0.01-3.05,0-4.58-0.01c-0.26,0-0.48,0.05-0.64,0.27
		c0,3.81,0,7.62,0,11.42c0.13,0.15,0.24,0.3,0.47,0.3c1.64-0.02,3.28,0.03,4.92-0.03c2.07-0.07,3.61-1.22,4.23-3.16
		c0.54-1.69,0.55-3.4,0.16-5.12C30.16,82.84,29.7,81.95,28.92,81.25z M27.86,87c-0.03,0.71-0.1,1.42-0.32,2.11
		c-0.35,1.09-1.06,1.66-2.19,1.71c-0.62,0.03-1.25,0.01-1.87,0.03c-0.2,0-0.22-0.08-0.22-0.25c0.01-1.48,0-2.97,0-4.45
		c0-1.47,0-2.94,0-4.4c0-0.22,0.05-0.3,0.28-0.29c0.5,0.02,1,0,1.5,0.01c1.47,0.02,2.25,0.64,2.59,2.08
		C27.91,84.67,27.92,85.83,27.86,87z"/>
	<path fill="#B3B3B3" d="M72.25,91.54c-0.46-1.32-0.92-2.64-1.38-3.97c-0.8-2.31-1.6-4.62-2.41-6.94c-0.13-0.38-0.3-0.5-0.69-0.5
		c-0.52,0-1.03,0-1.55,0c-0.41,0-0.46,0.04-0.6,0.43C64.81,83,64,85.42,63.18,87.84c-0.44,1.32-0.89,2.64-1.33,3.96
		c-0.09,0.28-0.05,0.35,0.24,0.35c0.29,0.01,0.57-0.01,0.86,0c0.26,0.01,0.4-0.1,0.48-0.35c0.27-0.86,0.55-1.71,0.83-2.57
		c0.04-0.12,0.06-0.24,0.25-0.24c1.25,0.01,2.49,0.01,3.74,0c0.24,0,0.34,0.09,0.4,0.31c0.25,0.81,0.52,1.61,0.79,2.4
		c0.11,0.33,0.28,0.44,0.63,0.44c0.3,0,0.61,0,0.91,0l0,0c0.35,0,0.71,0.01,1.06,0c0.25-0.01,0.33-0.14,0.28-0.38
		C72.3,91.68,72.27,91.61,72.25,91.54z M67.78,87.68c-0.45,0-0.9,0-1.35,0c-0.48,0-0.95,0-1.43,0c-0.17,0-0.21-0.05-0.16-0.22
		c0.44-1.32,0.86-2.64,1.29-3.96c0.07-0.2,0.13-0.4,0.2-0.6c0.02-0.06,0.01-0.17,0.12-0.16c0.08,0.01,0.07,0.1,0.09,0.16
		c0.22,0.67,0.44,1.34,0.66,2c0.27,0.81,0.54,1.63,0.8,2.44C68.12,87.66,68.1,87.68,67.78,87.68z"/>
	<path fill="#B3B3B3" d="M40.08,84.88c-0.49-1.41-0.98-2.81-1.47-4.22c-0.14-0.4-0.28-0.5-0.71-0.5c-0.54,0-1.08,0.02-1.62,0
		c-0.27-0.01-0.4,0.11-0.48,0.35c-0.41,1.23-0.82,2.45-1.23,3.68c-0.62,1.83-1.24,3.66-1.85,5.49c-0.24,0.71-0.48,1.43-0.72,2.14
		c-0.08,0.24-0.06,0.3,0.19,0.31c0.34,0.02,0.67,0.01,1.01,0.01c0.2,0,0.31-0.12,0.38-0.32c0.28-0.89,0.58-1.77,0.86-2.66
		c0.04-0.13,0.11-0.18,0.24-0.18c0.63,0,1.26,0,1.89,0l0,0c0.64,0,1.28,0.01,1.92,0c0.16,0,0.22,0.04,0.27,0.2
		c0.25,0.8,0.52,1.6,0.78,2.4c0.15,0.46,0.32,0.57,0.8,0.57c0.57,0,1.13,0,1.7,0c0.4,0,0.5-0.14,0.37-0.51
		C41.64,89.38,40.86,87.13,40.08,84.88z M37.98,87.69c-0.95,0-1.9,0-2.85,0c-0.17,0-0.19-0.04-0.14-0.19
		c0.51-1.53,1.01-3.06,1.51-4.6c0.02-0.07,0.05-0.14,0.08-0.22c0.02,0,0.04,0,0.06,0c0.12,0.35,0.24,0.7,0.35,1.06
		c0.4,1.22,0.8,2.44,1.2,3.67C38.27,87.69,38.27,87.69,37.98,87.69z"/>
</g>
</svg>
