<?xml version="1.0" encoding="utf-8"?>
<!-- Generator: Adobe Illustrator 17.0.0, SVG Export Plug-In . SVG Version: 6.00 Build 0)  -->
<!DOCTYPE svg PUBLIC "-//W3C//DTD SVG 1.1//EN" "http://www.w3.org/Graphics/SVG/1.1/DTD/svg11.dtd">
<svg version="1.1" id="Layer_1" xmlns="http://www.w3.org/2000/svg" xmlns:xlink="http://www.w3.org/1999/xlink" x="0px" y="0px"
	 width="50px" height="50px" viewBox="-5 -5 50 50" enable-background="new -5 -5 50 50" xml:space="preserve">
<g>
	<path fill="#FFFFFF" d="M28.835-2.681C21.817-6.641,13.022-5.443,7.32,0.251H7.301c-5.709,5.694-6.916,14.497-2.95,21.517
		l-1.503,5.175c-0.393,1.35,0.383,2.762,1.731,3.155c0.465,0.135,0.959,0.135,1.424,0l5.179-1.503
		c8.636,4.875,19.59,1.825,24.465-6.811C40.521,13.148,37.471,2.194,28.835-2.681z M31.314,24.263l0.019,0.019
		c-5.181,5.192-13.229,6.198-19.529,2.44c-0.232-0.139-0.512-0.174-0.773-0.096l-5.569,1.619c-0.323,0.104-0.669-0.074-0.773-0.398
		c-0.039-0.122-0.039-0.254,0-0.375l1.617-5.573c0.078-0.26,0.043-0.54-0.096-0.773c-4.527-7.605-2.032-17.44,5.574-21.968
		c7.605-4.527,17.441-2.032,21.969,5.573C37.505,11.033,36.5,19.078,31.314,24.263z"/>
	<path fill="#FFFFFF" d="M27.969,17.417l-0.008-0.004l-4.804-2.318c-0.376-0.181-0.826-0.1-1.116,0.201l-1.495,1.545h-0.039
		c-2.006-0.8-3.596-2.389-4.399-4.395l1.545-1.545c0.289-0.29,0.364-0.731,0.185-1.1l-2.318-4.804
		c-0.581-1.205-2.029-1.71-3.233-1.129c-0.245,0.117-0.467,0.276-0.66,0.469l-0.9,0.889c-2.094,2.1-2.772,5.226-1.738,8.005
		c1.852,4.955,5.761,8.864,10.716,10.716c2.78,1.041,5.911,0.365,8.014-1.73l0.907-0.908c0.945-0.946,0.945-2.479,0-3.424
		C28.436,17.693,28.214,17.534,27.969,17.417z M27.334,19.809c-0.021,0.041-0.047,0.079-0.079,0.113l0.004,0.015l-0.907,0.908
		c-1.565,1.561-3.896,2.066-5.966,1.294c-4.427-1.657-7.92-5.15-9.578-9.578c-0.77-2.07-0.265-4.399,1.294-5.963l0.908-0.911
		c0.197-0.185,0.507-0.175,0.694,0.022c0.031,0.034,0.059,0.071,0.079,0.113l2.031,4.19l-1.139,1.139
		c-0.494,0.503-0.645,1.249-0.386,1.904c0.983,2.541,2.977,4.56,5.506,5.573l0.113,0.042c0.685,0.274,1.467,0.104,1.978-0.429
		l1.062-1.105l4.175,2.013C27.361,19.273,27.456,19.568,27.334,19.809z"/>
	<path fill="#FFFFFF" d="M20.55,9.214c1.756,0.003,3.18,1.425,3.182,3.182c0,0.534,0.433,0.965,0.965,0.965
		c0.532,0,0.965-0.433,0.965-0.965c-0.003-2.822-2.29-5.111-5.113-5.112c-0.534,0-0.965,0.432-0.965,0.965
		C19.585,8.782,20.017,9.214,20.55,9.214z"/>
	<path fill="#FFFFFF" d="M20.964,3.313c-0.534,0-0.965,0.432-0.965,0.965s0.433,0.965,0.965,0.965
		c3.721,0.003,6.736,3.018,6.739,6.739c0,0.534,0.433,0.965,0.965,0.965c0.534,0,0.965-0.433,0.965-0.965
		C29.629,7.197,25.75,3.318,20.964,3.313z"/>
</g>
</svg>
