<?xml version="1.0" encoding="utf-8"?>
<!-- Generator: Adobe Illustrator 17.0.0, SVG Export Plug-In . SVG Version: 6.00 Build 0)  -->
<!DOCTYPE svg PUBLIC "-//W3C//DTD SVG 1.1//EN" "http://www.w3.org/Graphics/SVG/1.1/DTD/svg11.dtd">
<svg version="1.1" id="Layer_1" xmlns="http://www.w3.org/2000/svg" xmlns:xlink="http://www.w3.org/1999/xlink" x="0px" y="0px"
	 width="647.145px" height="108.935px" viewBox="0 0 647.145 108.935" enable-background="new 0 0 647.145 108.935"
	 xml:space="preserve">
<g>
	<g>
		<ellipse opacity="0.3" fill="#B7AFA7" cx="80.554" cy="78.926" rx="80.036" ry="2.392"/>
		<rect x="7.908" y="68.886" fill="#B5B5B5" width="144.767" height="8.816"/>
		<rect x="61.298" y="73.293" fill="#E5E4E4" width="18.091" height="4.408"/>
		<polygon fill="#878787" points="79.388,73.293 83.609,77.701 79.388,77.701 		"/>
		<rect x="107.529" y="73.293" fill="#E5E4E4" width="17.789" height="4.408"/>
		<polygon fill="#878787" points="125.318,73.293 129.74,77.701 125.318,77.701 		"/>
		<polygon fill="#FDEDDF" points="16.252,68.886 16.252,50.062 61.298,19.86 144.072,19.86 144.072,68.886 		"/>
		<polygon fill="#B7AFA7" points="16.252,56.35 62.431,24.926 144.072,24.926 144.072,19.86 61.298,19.86 16.252,50.062 		"/>
		<linearGradient id="SVGID_1_" gradientUnits="userSpaceOnUse" x1="12.9396" y1="36.5198" x2="148.5534" y2="36.5198">
			<stop  offset="0.0816" style="stop-color:#931A21"/>
			<stop  offset="0.2092" style="stop-color:#9F1E25"/>
			<stop  offset="0.7092" style="stop-color:#721817"/>
			<stop  offset="0.9133" style="stop-color:#640C0D"/>
		</linearGradient>
		<polygon fill="url(#SVGID_1_)" points="12.94,55.128 62.626,22.198 148.553,22.198 148.553,17.912 61.298,17.912 12.94,50.451 		
			"/>
		<rect x="29.33" y="47.942" fill="#5D5D5D" width="9.269" height="9.451"/>
		<rect x="43.709" y="47.942" fill="#5D5D5D" width="9.269" height="9.451"/>
		<rect x="90.285" y="29.671" fill="#5D5D5D" width="6.465" height="6.592"/>
		<polygon fill="#B7AFA7" points="125.269,42.417 144.072,61.183 144.072,68.886 125.269,68.886 		"/>
		<rect x="111.708" y="31.843" fill="#5D5D5D" width="9.511" height="2.247"/>
		<rect x="65.588" y="31.843" fill="#5D5D5D" width="9.511" height="2.247"/>
		<rect x="115.418" y="5.933" fill="#B5B5B5" width="11.657" height="11.979"/>
		<rect x="113.883" y="0" fill="#E5E4E4" width="14.449" height="6.98"/>
		<polygon fill="#858384" points="115.418,6.98 118.28,10.122 127.075,10.122 127.075,6.98 		"/>
		
			<linearGradient id="SVGID_2_" gradientUnits="userSpaceOnUse" x1="622.5173" y1="2458.1211" x2="637.1793" y2="2458.1211" gradientTransform="matrix(-1 0 0 -1 781.2516 2506.5735)">
			<stop  offset="0.0816" style="stop-color:#931A21"/>
			<stop  offset="0.2092" style="stop-color:#9F1E25"/>
			<stop  offset="0.7092" style="stop-color:#721817"/>
			<stop  offset="0.9133" style="stop-color:#640C0D"/>
		</linearGradient>
		<rect x="144.072" y="46.386" fill="url(#SVGID_2_)" width="14.662" height="4.132"/>
		<g>
			<rect x="61.696" y="42.417" fill="#5D5D5D" width="63.574" height="26.469"/>
			<linearGradient id="SVGID_3_" gradientUnits="userSpaceOnUse" x1="61.6957" y1="44.4016" x2="125.2693" y2="44.4016">
				<stop  offset="0.0816" style="stop-color:#931A21"/>
				<stop  offset="0.2092" style="stop-color:#9F1E25"/>
				<stop  offset="0.7092" style="stop-color:#721817"/>
				<stop  offset="0.9133" style="stop-color:#640C0D"/>
			</linearGradient>
			<rect x="61.696" y="42.417" fill="url(#SVGID_3_)" width="63.574" height="3.97"/>
		</g>
		<rect x="61.696" y="49.18" fill="#A4A7A9" width="63.622" height="1.83"/>
		<rect x="61.696" y="53.063" fill="#A4A7A9" width="63.622" height="1.83"/>
		<rect x="61.696" y="56.946" fill="#A4A7A9" width="63.622" height="1.83"/>
		<rect x="61.696" y="60.829" fill="#A4A7A9" width="63.622" height="1.83"/>
		<rect x="61.696" y="64.712" fill="#A4A7A9" width="63.622" height="1.83"/>
	</g>
	<g>
		<path fill="#59595B" d="M40.076,108.745v-8.968h-3.212v-1.638h8.283v1.638h-3.211v8.968H40.076z"/>
		<path fill="#59595B" d="M56.677,108.745v-7.87l-3.26,7.87h-0.795l-3.243-7.87v7.87h-1.86V98.139h2.623l2.878,6.98l2.894-6.98
			h2.624v10.605H56.677z"/>
		<path fill="#59595B" d="M70.75,108.745v-7.87l-3.26,7.87h-0.795l-3.243-7.87v7.87h-1.86V98.139h2.623l2.878,6.98l2.894-6.98h2.624
			v10.605H70.75z"/>
		<path fill="#59595B" d="M75.666,108.745V98.139h1.86v10.605H75.666z"/>
		<path fill="#59595B" d="M87.973,108.745l-5.533-7.568v7.568h-1.86V98.139h1.908l5.422,7.362v-7.362h1.86v10.605H87.973z"/>
		<path fill="#59595B" d="M97.022,107.25l1.033-1.432c0.731,0.779,1.876,1.463,3.355,1.463c1.525,0,2.13-0.747,2.13-1.446
			c0-2.227-6.185-0.843-6.185-4.755c0-1.748,1.542-3.1,3.863-3.1c1.653,0,2.989,0.524,3.975,1.479l-1.064,1.383
			c-0.827-0.826-1.956-1.208-3.069-1.208c-1.097,0-1.796,0.524-1.796,1.319c0,1.972,6.169,0.747,6.169,4.706
			c0,1.766-1.24,3.275-4.103,3.275C99.375,108.935,97.959,108.251,97.022,107.25z"/>
		<path fill="#59595B" d="M110.316,108.745v-8.968h-3.212v-1.638h8.283v1.638h-3.211v8.968H110.316z"/>
		<path fill="#59595B" d="M123.817,108.745l-2.354-3.959h-1.844v3.959h-1.86V98.139h4.658c2.099,0,3.467,1.368,3.467,3.323
			c0,1.893-1.24,2.91-2.513,3.116l2.592,4.166H123.817z M123.976,101.462c0-1.018-0.764-1.686-1.812-1.686h-2.544v3.371h2.544
			C123.212,103.148,123.976,102.48,123.976,101.462z"/>
	</g>
	<g>
		<path fill="#59595B" d="M494.959,108.745v-8.968h-3.212v-1.638h8.283v1.638h-3.211v8.968H494.959z"/>
		<path fill="#59595B" d="M511.56,108.745v-7.87l-3.26,7.87h-0.795l-3.243-7.87v7.87h-1.86V98.139h2.623l2.878,6.98l2.894-6.98
			h2.624v10.605H511.56z"/>
		<path fill="#59595B" d="M525.633,108.745v-7.87l-3.26,7.87h-0.795l-3.243-7.87v7.87h-1.86V98.139h2.623l2.878,6.98l2.894-6.98
			h2.624v10.605H525.633z"/>
		<path fill="#59595B" d="M530.549,108.745V98.139h1.86v10.605H530.549z"/>
		<path fill="#59595B" d="M542.856,108.745l-5.533-7.568v7.568h-1.86V98.139h1.908l5.422,7.362v-7.362h1.86v10.605H542.856z"/>
		<path fill="#59595B" d="M558.932,108.745l-3.562-4.468l-0.922,1.081v3.387h-1.86V98.139h1.86v5.057l4.149-5.057h2.306
			l-4.309,5.009l4.627,5.597H558.932z"/>
		<path fill="#59595B" d="M569.316,108.745l-2.353-3.959h-1.845v3.959h-1.86V98.139h4.658c2.1,0,3.467,1.368,3.467,3.323
			c0,1.893-1.24,2.91-2.513,3.116l2.592,4.166H569.316z M569.475,101.462c0-1.018-0.764-1.686-1.812-1.686h-2.544v3.371h2.544
			C568.711,103.148,569.475,102.48,569.475,101.462z"/>
		<path fill="#59595B" d="M582.149,108.745l-2.066-7.822l-2.051,7.822h-1.988l-3.036-10.605h2.083l2.066,8.173l2.194-8.173h1.479
			l2.194,8.173l2.051-8.173h2.083l-3.021,10.605H582.149z"/>
	</g>
	<g>
		<g>
			<g>
				<rect x="280.564" y="39.223" fill="#4E4E4E" width="5.025" height="2.513"/>
				<rect x="281.103" y="39.223" fill="#E3E3E3" width="0.538" height="1.974"/>
				<rect x="284.513" y="39.223" fill="#E3E3E3" width="0.538" height="1.974"/>
				<path fill="#333333" d="M286.307,42.038c0,0.428-0.347,0.775-0.775,0.775h-4.731c-0.428,0-0.775-0.347-0.775-0.775v-0.065
					c0-0.428,0.347-0.775,0.775-0.775h4.731c0.428,0,0.775,0.347,0.775,0.775V42.038z"/>
			</g>
			<rect x="247.361" y="37.967" fill="#333333" width="40.921" height="1.436"/>
			<g>
				<polygon fill="#D6D6D5" points="291.512,40.839 288.59,40.839 287.298,37.07 291.512,37.07 				"/>
				<path fill="#BE272C" d="M291.153,39.596c0,0.191-0.155,0.345-0.345,0.345h-1.642c-0.191,0-0.345-0.155-0.345-0.345v-0.027
					c0-0.191,0.155-0.345,0.345-0.345h1.642c0.191,0,0.345,0.155,0.345,0.345V39.596z"/>
				<path fill="#333333" d="M291.692,42.554c0,0.143-0.116,0.259-0.259,0.259h-2.714c-0.143,0-0.259-0.116-0.259-0.259v-1.816
					c0-0.143,0.116-0.259,0.259-0.259h2.714c0.143,0,0.259,0.116,0.259,0.259V42.554z"/>
			</g>
			
				<polyline fill="none" stroke="#333333" stroke-width="3" stroke-linecap="round" stroke-linejoin="round" stroke-miterlimit="10" points="
				219.718,25.045 221.785,25.527 221.785,36.711 			"/>
			<path fill="#333333" d="M270.872,42.275h-59.716c-2.427,0-4.135-0.894-4.135-3.32l0,0c0-2.426,1.709-3.32,4.135-3.32h10.725
				l1.666,1.278c0.704,0,47.325-0.028,47.325-0.028V42.275z"/>
			<path fill="#A2C36E" d="M219.346,21.276h-0.097c-0.025,0-0.049,0.006-0.074,0.007l-0.006-0.007h-12.405l-2.31,3.838l-2.169,6.637
				l-0.022,9.986h7.947c0-4.128,3.79-4.307,3.79-4.307h6.799V25.188v-1.987v-0.436C220.798,22.006,220.104,21.276,219.346,21.276z"
				/>
			<path fill="#333333" d="M218.286,22.532v6.096c0,0-1.238,1.948-12.524,3.37c0,0,0.484-6.954,4.189-9.466H218.286z"/>
			<rect x="216.132" y="32.762" fill="#4E4E4E" width="1.974" height="3.231"/>
			<rect x="216.132" y="34.916" fill="#666666" width="1.974" height="1.077"/>
			<path fill="#FFFFFF" d="M207.876,40.593c0,0.334-0.271,0.605-0.605,0.605h-2.38c-0.334,0-0.605-0.271-0.605-0.605v-0.047
				c0-0.334,0.271-0.605,0.605-0.605h2.38c0.334,0,0.605,0.271,0.605,0.605V40.593z"/>
			<path fill="#F59021" d="M207.876,40.657c0,0.351-0.273,0.567-0.714,0.541h-1.439v-1.256h1.439
				c0.554-0.022,0.714,0.254,0.714,0.605V40.657z"/>
			<path fill="#333333" d="M206.763,21.392c0,0-4.501,3.511-4.479,10.941c0,0,0.713,0.048,0.754-0.302
				C203.726,26.141,206.214,23.201,206.763,21.392z"/>
			<path fill="#959595" d="M202.851,40.314c0,0.191-0.155,0.346-0.346,0.346h-0.027c-0.191,0-0.346-0.155-0.346-0.346v-5.052
				c0-0.191,0.155-0.346,0.346-0.346h0.027c0.191,0,0.346,0.155,0.346,0.346V40.314z"/>
			<path fill="#666666" d="M210.927,42.388c0,0.334-0.271,0.605-0.605,0.605h-8.124c-0.334,0-0.605-0.271-0.605-0.605v-0.047
				c0-0.334,0.271-0.605,0.605-0.605h8.124c0.334,0,0.605,0.271,0.605,0.605V42.388z"/>
			<path fill="#889F5D" d="M206.731,21.276c0,0,1.389-6.872,13.988-6.839c0,0,0.355,5.003-0.194,5.94c0,0-0.42,0.9-0.937,0.9
				C219.072,21.276,206.731,21.276,206.731,21.276z"/>
			<g>
				<circle fill="#333333" cx="216.487" cy="42.681" r="4.426"/>
				<g>
					<circle fill="#C9C9C8" cx="216.487" cy="42.681" r="2.875"/>
					<circle fill="#E3E3E3" stroke="#333333" stroke-miterlimit="10" cx="216.487" cy="42.681" r="0.84"/>
					<rect x="215.773" y="40.3" fill="#333333" width="1.436" height="0.359"/>
					<rect x="215.773" y="44.787" fill="#333333" width="1.436" height="0.359"/>
					<rect x="218.286" y="42.095" fill="#333333" width="0.359" height="1.256"/>
					<rect x="214.158" y="42.095" fill="#333333" width="0.359" height="1.256"/>
				</g>
			</g>
			<rect x="227.439" y="40.48" fill="#808080" width="42.536" height="1.256"/>
			<g>
				<circle fill="#333333" cx="273.676" cy="42.681" r="4.426"/>
				<g>
					<circle fill="#C9C9C8" cx="273.676" cy="42.681" r="2.875"/>
					<circle fill="#E3E3E3" stroke="#333333" stroke-miterlimit="10" cx="273.676" cy="42.681" r="0.84"/>
					<rect x="273.026" y="40.3" fill="#333333" width="1.256" height="0.359"/>
					<rect x="273.026" y="44.787" fill="#333333" width="1.256" height="0.359"/>
					<rect x="275.539" y="42.095" fill="#333333" width="0.359" height="1.256"/>
					<rect x="271.411" y="42.095" fill="#333333" width="0.359" height="1.256"/>
				</g>
			</g>
			<path fill="none" stroke="#889F5D" stroke-width="0.25" stroke-miterlimit="10" d="M207.946,22.652c0,0-3.39,4.986-3.211,9.942
				v5.597l5.365-0.008c0,0,0.969-2.017,4.092-2.017"/>
			<path fill="#666666" d="M208.055,33.157c0,0.178-0.145,0.323-0.323,0.323h-1.687c-0.179,0-0.323-0.145-0.323-0.323v-0.072
				c0-0.178,0.145-0.323,0.323-0.323h1.687c0.178,0,0.323,0.145,0.323,0.323V33.157z"/>
			<rect x="226.003" y="39.941" fill="#666666" width="6.641" height="2.872"/>
			<g>
				<path fill="#4E4E4E" d="M212.357,22.532l-1.347,8.651c1.856-0.363,3.254-0.77,4.304-1.113l1.178-7.538H212.357z"/>
			</g>
			<g>
				<rect x="223.49" y="11.404" fill="#D6D6D5" width="68.022" height="26.742"/>
				<g>
					<path fill="#E3E3E3" d="M236.592,34.521c0,0.714-0.579,1.292-1.292,1.292h-8.364c-0.714,0-1.292-0.579-1.292-1.292V14.312
						c0-0.714,0.579-1.292,1.292-1.292h8.364c0.714,0,1.292,0.579,1.292,1.292V34.521z"/>
					<path fill="#E3E3E3" d="M249.694,34.513c0,0.714-0.579,1.301-1.292,1.301h-8.363c-0.714,0-1.292-0.587-1.292-1.301V14.303
						c0-0.714,0.579-1.283,1.292-1.283h8.363c0.714,0,1.292,0.57,1.292,1.283V34.513z"/>
					<path fill="#E3E3E3" d="M263.155,34.521c0,0.714-0.579,1.292-1.292,1.292h-8.364c-0.714,0-1.292-0.579-1.292-1.292V14.312
						c0-0.714,0.579-1.292,1.292-1.292h8.364c0.714,0,1.292,0.579,1.292,1.292V34.521z"/>
				</g>
				<g>
					<path fill="#E3E3E3" d="M289.358,34.513c0,0.714-0.579,1.301-1.292,1.301h-8.363c-0.714,0-1.292-0.587-1.292-1.301V14.303
						c0-0.714,0.579-1.283,1.292-1.283h8.363c0.714,0,1.292,0.57,1.292,1.283V34.513z"/>
				</g>
				<rect x="224.926" y="36.531" fill="#E3E3E3" width="65.15" height="0.897"/>
				<path fill="#F59021" d="M225.824,12.316c0,0.19-0.154,0.345-0.345,0.345h-1.105c-0.19,0-0.345-0.154-0.345-0.345v-0.029
					c0-0.19,0.154-0.345,0.345-0.345h1.105c0.19,0,0.345,0.154,0.345,0.345V12.316z"/>
				<path fill="#F59021" d="M290.794,12.316c0,0.19-0.154,0.345-0.345,0.345h-1.106c-0.19,0-0.345-0.154-0.345-0.345v-0.029
					c0-0.19,0.154-0.345,0.345-0.345h1.106c0.19,0,0.345,0.154,0.345,0.345V12.316z"/>
				<g>
					<path fill="#E3E3E3" d="M276.257,34.513c0,0.714-0.579,1.301-1.292,1.301h-8.363c-0.714,0-1.292-0.587-1.292-1.301V14.303
						c0-0.714,0.579-1.283,1.292-1.283h8.363c0.714,0,1.292,0.57,1.292,1.283V34.513z"/>
				</g>
			</g>
			<rect x="238.208" y="39.582" fill="#B0B0B0" width="5.384" height="1.615"/>
			<rect x="238.208" y="41.198" fill="#333333" width="5.384" height="1.615"/>
		</g>
		<g>
			<path fill="#AE3F42" d="M232.809,15.063h1.197l0.72,2.794h-1.149l-0.106-0.574h-1.868l-0.571,0.574h-1.107L232.809,15.063z
				 M232.073,16.801h1.286l-0.21-1.1L232.073,16.801z"/>
			<path fill="#AE3F42" d="M240.16,15.331c0.083,0.07,0.14,0.148,0.171,0.234c0.03,0.086,0.025,0.185-0.016,0.294
				c-0.053,0.133-0.165,0.264-0.336,0.392s-0.406,0.219-0.707,0.272c0.214,0.052,0.351,0.125,0.411,0.221
				c0.062,0.095,0.054,0.241-0.021,0.437l-0.072,0.188c-0.049,0.128-0.072,0.215-0.072,0.26c0,0.072,0.043,0.125,0.13,0.159
				l-0.023,0.07h-1.166c-0.01-0.062-0.014-0.112-0.014-0.149c0.002-0.079,0.018-0.159,0.048-0.241l0.093-0.26
				c0.064-0.178,0.051-0.297-0.04-0.356c-0.09-0.059-0.291-0.089-0.604-0.089h-1.094l-0.42,1.096h-1.035l1.077-2.794h2.486
				c0.354,0.004,0.617,0.028,0.792,0.072C239.922,15.179,240.06,15.245,240.16,15.331z M237.316,15.548l-0.289,0.751h1.201
				c0.238,0,0.423-0.016,0.554-0.046c0.231-0.053,0.378-0.158,0.44-0.314c0.063-0.17,0.005-0.283-0.176-0.342
				c-0.104-0.032-0.27-0.049-0.499-0.049H237.316z"/>
			<path fill="#AE3F42" d="M244.893,15.063h1.524l-1.077,2.794h-0.987l0.727-1.89c0.022-0.055,0.054-0.131,0.095-0.229
				c0.04-0.098,0.069-0.174,0.087-0.227l-1.86,2.345h-1.028l-0.052-2.345c-0.019,0.053-0.046,0.129-0.081,0.227
				c-0.036,0.098-0.064,0.174-0.088,0.229l-0.726,1.89h-0.987l1.076-2.794h1.541l0.072,2.197L244.893,15.063z"/>
			<path fill="#AE3F42" d="M248.853,15.063h1.197l0.72,2.794h-1.149l-0.106-0.574h-1.868l-0.571,0.574h-1.107L248.853,15.063z
				 M248.117,16.801h1.286l-0.21-1.1L248.117,16.801z"/>
			<path fill="#AE3F42" d="M252.509,16.995c-0.016,0.128,0.011,0.223,0.079,0.286c0.129,0.115,0.401,0.173,0.819,0.173
				c0.249,0,0.458-0.016,0.626-0.046c0.318-0.059,0.508-0.166,0.567-0.324c0.036-0.092-0.01-0.163-0.138-0.214
				c-0.126-0.05-0.34-0.093-0.64-0.131l-0.513-0.066c-0.502-0.065-0.84-0.137-1.012-0.214c-0.291-0.129-0.384-0.331-0.278-0.605
				c0.097-0.25,0.342-0.458,0.736-0.623c0.395-0.166,0.911-0.248,1.551-0.248c0.535,0,0.96,0.077,1.276,0.233s0.427,0.383,0.33,0.68
				h-1.018c0.048-0.168-0.038-0.287-0.258-0.358c-0.147-0.047-0.344-0.07-0.589-0.07c-0.272,0-0.503,0.031-0.689,0.092
				s-0.301,0.145-0.343,0.254c-0.038,0.1,0.013,0.174,0.155,0.224c0.09,0.032,0.295,0.071,0.616,0.115l0.828,0.116
				c0.362,0.05,0.625,0.118,0.788,0.202c0.252,0.132,0.33,0.322,0.234,0.57c-0.099,0.256-0.358,0.468-0.777,0.637
				c-0.42,0.168-0.953,0.253-1.6,0.253c-0.661,0-1.148-0.083-1.462-0.249c-0.314-0.167-0.416-0.395-0.303-0.686H252.509z"/>
		</g>
		<polygon points="229.745,18.324 227.492,20.288 291.512,20.288 291.512,18.324 		"/>
		<g>
			<path fill="#FFFFFF" d="M230.055,18.787v0.799h0.477v0.181h-0.692v-0.979H230.055z"/>
			<path fill="#FFFFFF" d="M231.466,19.077c0.022-0.062,0.054-0.117,0.095-0.164s0.092-0.083,0.151-0.109
				c0.061-0.026,0.128-0.04,0.203-0.04s0.144,0.014,0.202,0.04c0.06,0.026,0.11,0.062,0.151,0.109s0.072,0.102,0.095,0.164
				c0.021,0.062,0.033,0.131,0.033,0.204c0,0.071-0.012,0.138-0.033,0.199c-0.022,0.062-0.054,0.115-0.095,0.161
				s-0.092,0.082-0.151,0.107c-0.059,0.026-0.127,0.039-0.202,0.039s-0.143-0.013-0.203-0.039c-0.06-0.025-0.11-0.062-0.151-0.107
				s-0.072-0.1-0.095-0.161c-0.021-0.062-0.033-0.128-0.033-0.199C231.433,19.207,231.445,19.139,231.466,19.077z M231.663,19.401
				c0.01,0.038,0.024,0.073,0.046,0.104c0.021,0.031,0.048,0.056,0.082,0.075c0.034,0.019,0.075,0.027,0.124,0.027
				c0.048,0,0.089-0.009,0.123-0.027c0.034-0.02,0.062-0.044,0.082-0.075c0.021-0.031,0.036-0.066,0.046-0.104
				c0.01-0.039,0.015-0.079,0.015-0.12c0-0.043-0.005-0.085-0.015-0.125s-0.024-0.076-0.046-0.107
				c-0.021-0.032-0.048-0.058-0.082-0.076s-0.075-0.028-0.123-0.028c-0.049,0-0.09,0.01-0.124,0.028s-0.062,0.044-0.082,0.076
				c-0.021,0.031-0.036,0.067-0.046,0.107s-0.015,0.082-0.015,0.125C231.649,19.322,231.654,19.362,231.663,19.401z"/>
			<path fill="#FFFFFF" d="M233.947,19.758c-0.047,0.02-0.094,0.029-0.141,0.029c-0.075,0-0.143-0.013-0.203-0.039
				c-0.06-0.025-0.11-0.062-0.151-0.107s-0.072-0.1-0.095-0.161c-0.021-0.062-0.033-0.128-0.033-0.199
				c0-0.073,0.012-0.142,0.033-0.204c0.022-0.062,0.054-0.117,0.095-0.164s0.092-0.083,0.151-0.109
				c0.061-0.026,0.128-0.04,0.203-0.04c0.05,0,0.099,0.008,0.146,0.022c0.047,0.016,0.09,0.037,0.128,0.066s0.069,0.065,0.094,0.108
				s0.04,0.093,0.045,0.148h-0.205c-0.013-0.055-0.038-0.096-0.074-0.123c-0.037-0.027-0.081-0.042-0.133-0.042
				c-0.049,0-0.09,0.01-0.124,0.028s-0.062,0.044-0.082,0.076c-0.021,0.031-0.036,0.067-0.046,0.107s-0.015,0.082-0.015,0.125
				c0,0.041,0.005,0.081,0.015,0.12c0.01,0.038,0.024,0.073,0.046,0.104c0.021,0.031,0.048,0.056,0.082,0.075
				c0.034,0.019,0.075,0.027,0.124,0.027c0.071,0,0.126-0.018,0.165-0.054s0.062-0.089,0.067-0.157h-0.217v-0.16h0.412v0.529h-0.138
				l-0.021-0.111C234.036,19.705,233.993,19.739,233.947,19.758z"/>
			<path fill="#FFFFFF" d="M235.447,18.787v0.979h-0.216v-0.979H235.447z"/>
			<path fill="#FFFFFF" d="M236.624,19.525c0.012,0.022,0.027,0.041,0.047,0.056c0.02,0.014,0.043,0.024,0.069,0.031
				s0.054,0.01,0.082,0.01c0.02,0,0.04-0.001,0.062-0.004c0.022-0.004,0.043-0.01,0.062-0.019c0.019-0.01,0.035-0.022,0.048-0.038
				s0.02-0.036,0.02-0.062c0-0.026-0.009-0.048-0.025-0.064c-0.018-0.016-0.04-0.029-0.067-0.041
				c-0.027-0.011-0.059-0.021-0.093-0.028c-0.035-0.009-0.07-0.018-0.105-0.027c-0.037-0.01-0.072-0.021-0.107-0.034
				c-0.035-0.013-0.065-0.03-0.093-0.051c-0.028-0.021-0.05-0.048-0.067-0.079c-0.017-0.032-0.025-0.07-0.025-0.115
				c0-0.05,0.011-0.094,0.032-0.131s0.05-0.067,0.085-0.093c0.034-0.024,0.074-0.043,0.118-0.055s0.088-0.018,0.132-0.018
				c0.051,0,0.1,0.006,0.147,0.018c0.047,0.011,0.089,0.029,0.125,0.055c0.037,0.026,0.065,0.059,0.087,0.099
				s0.032,0.088,0.032,0.145h-0.208c-0.002-0.029-0.008-0.054-0.019-0.072c-0.011-0.02-0.024-0.034-0.042-0.046
				c-0.018-0.011-0.037-0.019-0.06-0.023c-0.022-0.004-0.047-0.007-0.073-0.007c-0.018,0-0.035,0.002-0.053,0.006
				c-0.017,0.004-0.033,0.01-0.047,0.02c-0.015,0.009-0.026,0.021-0.035,0.034s-0.014,0.031-0.014,0.052
				c0,0.02,0.004,0.035,0.011,0.047c0.008,0.012,0.021,0.022,0.043,0.033c0.021,0.01,0.052,0.02,0.09,0.03
				c0.038,0.01,0.087,0.022,0.148,0.038c0.019,0.004,0.044,0.01,0.076,0.02s0.064,0.025,0.097,0.046
				c0.032,0.021,0.06,0.05,0.083,0.085s0.035,0.08,0.035,0.135c0,0.045-0.009,0.087-0.026,0.125c-0.017,0.038-0.043,0.071-0.077,0.1
				c-0.034,0.027-0.077,0.05-0.128,0.065s-0.109,0.022-0.176,0.022c-0.054,0-0.106-0.006-0.157-0.02
				c-0.051-0.013-0.096-0.034-0.135-0.062s-0.069-0.064-0.093-0.108c-0.022-0.044-0.033-0.096-0.032-0.156h0.208
				C236.606,19.474,236.612,19.501,236.624,19.525z"/>
			<path fill="#FFFFFF" d="M238.095,18.967v-0.181h0.803v0.181h-0.294v0.799h-0.215v-0.799H238.095z"/>
			<path fill="#FFFFFF" d="M240.05,18.787v0.979h-0.216v-0.979H240.05z"/>
			<path fill="#FFFFFF" d="M241.69,19.048c-0.013-0.021-0.028-0.039-0.048-0.055c-0.019-0.016-0.041-0.027-0.065-0.036
				c-0.023-0.009-0.049-0.014-0.075-0.014c-0.049,0-0.09,0.01-0.124,0.028s-0.062,0.044-0.082,0.076
				c-0.021,0.031-0.036,0.067-0.046,0.107s-0.015,0.082-0.015,0.125c0,0.041,0.005,0.081,0.015,0.12
				c0.01,0.038,0.024,0.073,0.046,0.104c0.021,0.031,0.048,0.056,0.082,0.075c0.034,0.019,0.075,0.027,0.124,0.027
				c0.065,0,0.117-0.02,0.154-0.06c0.036-0.041,0.06-0.094,0.067-0.159h0.209c-0.006,0.061-0.021,0.116-0.043,0.166
				c-0.022,0.049-0.053,0.091-0.091,0.126c-0.037,0.035-0.081,0.062-0.131,0.079c-0.051,0.019-0.106,0.027-0.166,0.027
				c-0.075,0-0.143-0.013-0.203-0.039c-0.06-0.025-0.11-0.062-0.151-0.107s-0.072-0.1-0.095-0.161
				c-0.021-0.062-0.033-0.128-0.033-0.199c0-0.073,0.012-0.142,0.033-0.204c0.022-0.062,0.054-0.117,0.095-0.164
				s0.092-0.083,0.151-0.109c0.061-0.026,0.128-0.04,0.203-0.04c0.054,0,0.104,0.008,0.152,0.023s0.091,0.038,0.129,0.067
				c0.038,0.03,0.069,0.067,0.094,0.111c0.025,0.043,0.041,0.094,0.047,0.15h-0.208C241.711,19.091,241.702,19.069,241.69,19.048z"
				/>
			<path fill="#FFFFFF" d="M244.272,19.525c0.012,0.022,0.027,0.041,0.047,0.056c0.02,0.014,0.043,0.024,0.069,0.031
				s0.054,0.01,0.082,0.01c0.02,0,0.04-0.001,0.062-0.004c0.022-0.004,0.043-0.01,0.062-0.019c0.019-0.01,0.035-0.022,0.048-0.038
				s0.02-0.036,0.02-0.062c0-0.026-0.009-0.048-0.025-0.064c-0.018-0.016-0.04-0.029-0.067-0.041
				c-0.027-0.011-0.059-0.021-0.093-0.028c-0.035-0.009-0.07-0.018-0.105-0.027c-0.037-0.01-0.072-0.021-0.107-0.034
				c-0.035-0.013-0.065-0.03-0.093-0.051c-0.028-0.021-0.05-0.048-0.067-0.079c-0.017-0.032-0.025-0.07-0.025-0.115
				c0-0.05,0.011-0.094,0.032-0.131s0.05-0.067,0.085-0.093c0.034-0.024,0.074-0.043,0.118-0.055s0.088-0.018,0.132-0.018
				c0.051,0,0.1,0.006,0.147,0.018c0.047,0.011,0.089,0.029,0.125,0.055c0.037,0.026,0.065,0.059,0.087,0.099
				s0.032,0.088,0.032,0.145h-0.208c-0.002-0.029-0.008-0.054-0.019-0.072c-0.011-0.02-0.024-0.034-0.042-0.046
				c-0.018-0.011-0.037-0.019-0.06-0.023c-0.022-0.004-0.047-0.007-0.073-0.007c-0.018,0-0.035,0.002-0.053,0.006
				c-0.017,0.004-0.033,0.01-0.047,0.02c-0.015,0.009-0.026,0.021-0.035,0.034s-0.014,0.031-0.014,0.052
				c0,0.02,0.004,0.035,0.011,0.047c0.008,0.012,0.021,0.022,0.043,0.033c0.021,0.01,0.052,0.02,0.09,0.03
				c0.038,0.01,0.087,0.022,0.148,0.038c0.019,0.004,0.044,0.01,0.076,0.02s0.064,0.025,0.097,0.046
				c0.032,0.021,0.06,0.05,0.083,0.085s0.035,0.08,0.035,0.135c0,0.045-0.009,0.087-0.026,0.125c-0.017,0.038-0.043,0.071-0.077,0.1
				c-0.034,0.027-0.077,0.05-0.128,0.065s-0.109,0.022-0.176,0.022c-0.054,0-0.106-0.006-0.157-0.02
				c-0.051-0.013-0.096-0.034-0.135-0.062s-0.069-0.064-0.093-0.108c-0.022-0.044-0.033-0.096-0.032-0.156h0.208
				C244.253,19.474,244.259,19.501,244.272,19.525z"/>
			<path fill="#FFFFFF" d="M246.552,18.787v0.181h-0.517v0.21h0.475v0.168h-0.475v0.24h0.527v0.181h-0.743v-0.979H246.552z"/>
			<path fill="#FFFFFF" d="M248.061,18.787c0.044,0,0.083,0.007,0.118,0.021c0.035,0.014,0.065,0.033,0.091,0.058
				c0.025,0.025,0.044,0.054,0.058,0.086s0.02,0.067,0.02,0.105c0,0.058-0.012,0.107-0.036,0.149s-0.063,0.074-0.118,0.096v0.003
				c0.026,0.007,0.048,0.019,0.065,0.033c0.018,0.016,0.031,0.033,0.043,0.054c0.011,0.021,0.019,0.043,0.023,0.068
				c0.005,0.024,0.009,0.049,0.011,0.074c0.001,0.016,0.002,0.033,0.003,0.055c0.001,0.021,0.002,0.042,0.005,0.064
				c0.002,0.021,0.006,0.043,0.011,0.062s0.013,0.036,0.022,0.05h-0.216c-0.012-0.031-0.019-0.068-0.021-0.111
				s-0.007-0.084-0.013-0.123c-0.007-0.052-0.022-0.089-0.047-0.112c-0.023-0.024-0.062-0.036-0.116-0.036h-0.215v0.383h-0.216
				v-0.979H248.061z M247.984,19.23c0.05,0,0.087-0.012,0.111-0.033c0.024-0.022,0.037-0.058,0.037-0.107
				c0-0.047-0.013-0.082-0.037-0.104s-0.062-0.032-0.111-0.032h-0.235v0.276H247.984z"/>
			<path fill="#FFFFFF" d="M249.534,19.766l-0.317-0.979h0.221l0.219,0.688h0.003l0.221-0.688h0.222l-0.325,0.979H249.534z"/>
			<path fill="#FFFFFF" d="M251.225,18.787v0.979h-0.216v-0.979H251.225z"/>
			<path fill="#FFFFFF" d="M252.865,19.048c-0.013-0.021-0.028-0.039-0.048-0.055c-0.019-0.016-0.041-0.027-0.065-0.036
				c-0.023-0.009-0.049-0.014-0.075-0.014c-0.049,0-0.09,0.01-0.124,0.028s-0.062,0.044-0.082,0.076
				c-0.021,0.031-0.036,0.067-0.046,0.107s-0.015,0.082-0.015,0.125c0,0.041,0.005,0.081,0.015,0.12
				c0.01,0.038,0.024,0.073,0.046,0.104c0.021,0.031,0.048,0.056,0.082,0.075c0.034,0.019,0.075,0.027,0.124,0.027
				c0.065,0,0.117-0.02,0.154-0.06c0.036-0.041,0.06-0.094,0.067-0.159h0.209c-0.006,0.061-0.021,0.116-0.043,0.166
				c-0.022,0.049-0.053,0.091-0.091,0.126c-0.037,0.035-0.081,0.062-0.131,0.079c-0.051,0.019-0.106,0.027-0.166,0.027
				c-0.075,0-0.143-0.013-0.203-0.039c-0.06-0.025-0.11-0.062-0.151-0.107s-0.072-0.1-0.095-0.161
				c-0.021-0.062-0.033-0.128-0.033-0.199c0-0.073,0.012-0.142,0.033-0.204c0.022-0.062,0.054-0.117,0.095-0.164
				s0.092-0.083,0.151-0.109c0.061-0.026,0.128-0.04,0.203-0.04c0.054,0,0.104,0.008,0.152,0.023s0.091,0.038,0.129,0.067
				c0.038,0.03,0.069,0.067,0.094,0.111c0.025,0.043,0.041,0.094,0.047,0.15h-0.208C252.886,19.091,252.877,19.069,252.865,19.048z"
				/>
			<path fill="#FFFFFF" d="M254.809,18.787v0.181h-0.517v0.21h0.475v0.168h-0.475v0.24h0.527v0.181h-0.743v-0.979H254.809z"/>
		</g>
	</g>
	<ellipse opacity="0.3" fill="#232020" cx="247.679" cy="46.372" rx="45.008" ry="0.775"/>
	<g>
		<g>
			<g>
				<rect x="330.213" y="98.669" fill="#4E4E4E" width="5.025" height="2.513"/>
				<rect x="334.161" y="98.669" fill="#E3E3E3" width="0.538" height="1.974"/>
				<rect x="330.751" y="98.669" fill="#E3E3E3" width="0.538" height="1.974"/>
				<path fill="#333333" d="M329.495,101.483c0,0.428,0.347,0.775,0.775,0.775h4.731c0.428,0,0.775-0.347,0.775-0.775v-0.064
					c0-0.428-0.347-0.775-0.775-0.775h-4.731c-0.428,0-0.775,0.347-0.775,0.775V101.483z"/>
			</g>
			<rect x="327.521" y="97.413" fill="#333333" width="40.921" height="1.436"/>
			<g>
				<polygon fill="#D6D6D5" points="324.29,100.284 327.212,100.284 328.504,96.515 324.29,96.515 				"/>
				<path fill="#BE272C" d="M324.649,99.042c0,0.191,0.155,0.345,0.345,0.345h1.642c0.191,0,0.345-0.155,0.345-0.345v-0.027
					c0-0.191-0.155-0.345-0.345-0.345h-1.642c-0.191,0-0.345,0.155-0.345,0.345V99.042z"/>
				<path fill="#333333" d="M324.111,102c0,0.143,0.116,0.259,0.259,0.259h2.714c0.143,0,0.259-0.116,0.259-0.259v-1.816
					c0-0.143-0.116-0.259-0.259-0.259h-2.714c-0.143,0-0.259,0.116-0.259,0.259V102z"/>
			</g>
			
				<polyline fill="none" stroke="#333333" stroke-width="3" stroke-linecap="round" stroke-linejoin="round" stroke-miterlimit="10" points="
				396.084,84.491 394.017,84.973 394.017,96.156 			"/>
			<path fill="#333333" d="M344.93,101.72h59.716c2.427,0,4.135-0.894,4.135-3.32l0,0c0-2.426-1.709-3.32-4.135-3.32H393.92
				l-1.666,1.278c-0.704,0-47.325-0.028-47.325-0.028V101.72z"/>
			<path fill="#A2C36E" d="M396.456,80.721h0.097c0.026,0,0.049,0.006,0.074,0.007l0.006-0.007h12.405l2.31,3.838l2.17,6.637
				l0.022,9.986h-7.947c0-4.128-3.79-4.307-3.79-4.307h-6.799V84.633v-1.987V82.21C395.004,81.452,395.698,80.721,396.456,80.721z"
				/>
			<path fill="#333333" d="M397.517,81.978v6.096c0,0,1.238,1.948,12.524,3.37c0,0-0.484-6.954-4.189-9.466H397.517z"/>
			<rect x="397.696" y="92.208" fill="#4E4E4E" width="1.974" height="3.231"/>
			<rect x="397.696" y="94.362" fill="#666666" width="1.974" height="1.077"/>
			<path fill="#FFFFFF" d="M407.926,100.039c0,0.334,0.271,0.605,0.605,0.605h2.38c0.334,0,0.605-0.271,0.605-0.605v-0.047
				c0-0.334-0.271-0.605-0.605-0.605h-2.38c-0.334,0-0.605,0.271-0.605,0.605V100.039z"/>
			<path fill="#F59021" d="M407.926,100.102c0,0.351,0.273,0.567,0.714,0.541h1.439v-1.256h-1.439
				c-0.554-0.022-0.714,0.254-0.714,0.605V100.102z"/>
			<path fill="#333333" d="M409.039,80.837c0,0,4.501,3.511,4.479,10.941c0,0-0.713,0.048-0.754-0.302
				C412.076,85.586,409.588,82.647,409.039,80.837z"/>
			<path fill="#959595" d="M412.952,99.759c0,0.191,0.155,0.346,0.346,0.346h0.027c0.191,0,0.346-0.155,0.346-0.346v-5.052
				c0-0.191-0.155-0.346-0.346-0.346h-0.027c-0.191,0-0.346,0.155-0.346,0.346V99.759z"/>
			<path fill="#666666" d="M404.875,101.833c0,0.334,0.271,0.605,0.605,0.605h8.124c0.334,0,0.605-0.271,0.605-0.605v-0.047
				c0-0.334-0.271-0.605-0.605-0.605h-8.124c-0.334,0-0.605,0.271-0.605,0.605V101.833z"/>
			<path fill="#889F5D" d="M409.071,80.721c0,0-1.389-6.872-13.988-6.839c0,0-0.355,5.003,0.194,5.94c0,0,0.42,0.9,0.937,0.9
				C396.73,80.721,409.071,80.721,409.071,80.721z"/>
			<g>
				<circle fill="#333333" cx="399.315" cy="102.127" r="4.426"/>
				<g>
					<circle fill="#C9C9C8" cx="399.315" cy="102.127" r="2.875"/>
					<circle fill="#E3E3E3" stroke="#333333" stroke-miterlimit="10" cx="399.315" cy="102.127" r="0.84"/>
					<rect x="398.594" y="99.746" fill="#333333" width="1.436" height="0.359"/>
					<rect x="398.594" y="104.233" fill="#333333" width="1.436" height="0.359"/>
					<rect x="397.158" y="101.541" fill="#333333" width="0.359" height="1.256"/>
					<rect x="401.286" y="101.541" fill="#333333" width="0.359" height="1.256"/>
				</g>
			</g>
			<rect x="345.827" y="99.925" fill="#808080" width="42.536" height="1.256"/>
			<g>
				<circle fill="#333333" cx="342.126" cy="102.127" r="4.426"/>
				<g>
					<circle fill="#C9C9C8" cx="342.126" cy="102.127" r="2.875"/>
					<circle fill="#E3E3E3" stroke="#333333" stroke-miterlimit="10" cx="342.126" cy="102.127" r="0.84"/>
					<rect x="341.52" y="99.746" fill="#333333" width="1.256" height="0.359"/>
					<rect x="341.52" y="104.233" fill="#333333" width="1.256" height="0.359"/>
					<rect x="339.904" y="101.541" fill="#333333" width="0.359" height="1.256"/>
					<rect x="344.032" y="101.541" fill="#333333" width="0.359" height="1.256"/>
				</g>
			</g>
			<path fill="none" stroke="#889F5D" stroke-width="0.25" stroke-miterlimit="10" d="M407.856,82.097c0,0,3.39,4.986,3.211,9.942
				v5.597l-5.365-0.008c0,0-0.969-2.017-4.092-2.017"/>
			<path fill="#666666" d="M407.747,92.603c0,0.178,0.145,0.323,0.323,0.323h1.687c0.179,0,0.323-0.145,0.323-0.323v-0.072
				c0-0.178-0.145-0.323-0.323-0.323h-1.687c-0.179,0-0.323,0.145-0.323,0.323V92.603z"/>
			<rect x="383.158" y="99.387" fill="#666666" width="6.641" height="2.872"/>
			<g>
				<path fill="#4E4E4E" d="M403.446,81.978l1.347,8.651c-1.856-0.363-3.254-0.77-4.304-1.113l-1.178-7.538H403.446z"/>
			</g>
			<g>
				<rect x="324.29" y="70.85" fill="#D6D6D5" width="68.022" height="26.742"/>
				<g>
					<path fill="#E3E3E3" d="M379.21,93.967c0,0.714,0.579,1.292,1.292,1.292h8.364c0.714,0,1.292-0.579,1.292-1.292V73.758
						c0-0.714-0.579-1.292-1.292-1.292h-8.364c-0.714,0-1.292,0.579-1.292,1.292V93.967z"/>
					<path fill="#E3E3E3" d="M366.108,93.958c0,0.714,0.579,1.301,1.292,1.301h8.363c0.714,0,1.292-0.587,1.292-1.301V73.749
						c0-0.714-0.579-1.283-1.292-1.283h-8.363c-0.714,0-1.292,0.57-1.292,1.283V93.958z"/>
					<path fill="#E3E3E3" d="M352.647,93.967c0,0.714,0.579,1.292,1.292,1.292h8.364c0.714,0,1.292-0.579,1.292-1.292V73.758
						c0-0.714-0.579-1.292-1.292-1.292h-8.364c-0.714,0-1.292,0.579-1.292,1.292V93.967z"/>
				</g>
				<g>
					<path fill="#E3E3E3" d="M326.444,93.958c0,0.714,0.579,1.301,1.292,1.301h8.363c0.714,0,1.292-0.587,1.292-1.301V73.749
						c0-0.714-0.579-1.283-1.292-1.283h-8.363c-0.714,0-1.292,0.57-1.292,1.283V93.958z"/>
				</g>
				<rect x="325.726" y="95.977" fill="#E3E3E3" width="65.15" height="0.897"/>
				<path fill="#F59021" d="M389.979,71.762c0,0.19,0.154,0.345,0.345,0.345h1.105c0.19,0,0.345-0.154,0.345-0.345v-0.029
					c0-0.19-0.154-0.345-0.345-0.345h-1.105c-0.19,0-0.345,0.154-0.345,0.345V71.762z"/>
				<path fill="#F59021" d="M325.008,71.762c0,0.19,0.154,0.345,0.345,0.345h1.106c0.19,0,0.345-0.154,0.345-0.345v-0.029
					c0-0.19-0.154-0.345-0.345-0.345h-1.106c-0.19,0-0.345,0.154-0.345,0.345V71.762z"/>
				<g>
					<path fill="#E3E3E3" d="M339.546,93.958c0,0.714,0.579,1.301,1.292,1.301h8.363c0.714,0,1.292-0.587,1.292-1.301V73.749
						c0-0.714-0.579-1.283-1.292-1.283h-8.363c-0.714,0-1.292,0.57-1.292,1.283V93.958z"/>
				</g>
			</g>
			<rect x="372.21" y="99.028" fill="#B0B0B0" width="5.384" height="1.615"/>
			<rect x="372.21" y="100.643" fill="#333333" width="5.384" height="1.615"/>
		</g>
		<g>
			<path fill="#AE3F42" d="M362.792,74.392h1.197l0.72,2.794h-1.149l-0.106-0.574h-1.868l-0.571,0.574h-1.107L362.792,74.392z
				 M362.057,76.13h1.286l-0.21-1.1L362.057,76.13z"/>
			<path fill="#AE3F42" d="M370.144,74.66c0.083,0.07,0.14,0.148,0.171,0.234c0.03,0.086,0.025,0.185-0.016,0.294
				c-0.053,0.133-0.165,0.264-0.336,0.392s-0.406,0.219-0.707,0.272c0.214,0.052,0.351,0.125,0.411,0.221
				c0.062,0.095,0.054,0.241-0.021,0.437l-0.072,0.188c-0.049,0.128-0.072,0.215-0.072,0.26c0,0.072,0.043,0.125,0.13,0.159
				l-0.023,0.07h-1.166c-0.01-0.062-0.014-0.112-0.014-0.149c0.002-0.079,0.018-0.159,0.048-0.241l0.093-0.26
				c0.064-0.178,0.051-0.297-0.04-0.356c-0.09-0.059-0.291-0.089-0.604-0.089h-1.094l-0.42,1.096h-1.035l1.077-2.794h2.486
				c0.354,0.004,0.617,0.028,0.792,0.072C369.906,74.508,370.043,74.574,370.144,74.66z M367.299,74.877l-0.289,0.751h1.201
				c0.238,0,0.423-0.016,0.554-0.046c0.231-0.053,0.378-0.158,0.44-0.314c0.063-0.17,0.005-0.283-0.176-0.342
				c-0.104-0.032-0.27-0.049-0.499-0.049H367.299z"/>
			<path fill="#AE3F42" d="M374.876,74.392h1.524l-1.077,2.794h-0.987l0.727-1.89c0.022-0.055,0.054-0.131,0.095-0.229
				c0.04-0.098,0.069-0.174,0.087-0.227l-1.86,2.345h-1.028l-0.052-2.345c-0.019,0.053-0.046,0.129-0.081,0.227
				c-0.036,0.098-0.064,0.174-0.088,0.229l-0.726,1.89h-0.987l1.076-2.794h1.541l0.072,2.197L374.876,74.392z"/>
			<path fill="#AE3F42" d="M378.836,74.392h1.197l0.72,2.794h-1.149l-0.106-0.574h-1.868l-0.571,0.574h-1.107L378.836,74.392z
				 M378.101,76.13h1.286l-0.21-1.1L378.101,76.13z"/>
			<path fill="#AE3F42" d="M382.492,76.324c-0.016,0.128,0.011,0.223,0.079,0.286c0.129,0.115,0.401,0.173,0.819,0.173
				c0.249,0,0.458-0.016,0.626-0.046c0.318-0.059,0.508-0.166,0.567-0.324c0.036-0.092-0.01-0.163-0.138-0.214
				c-0.126-0.05-0.34-0.093-0.64-0.131l-0.513-0.066c-0.502-0.065-0.84-0.137-1.012-0.214c-0.291-0.129-0.384-0.331-0.278-0.605
				c0.097-0.25,0.342-0.458,0.736-0.623c0.395-0.166,0.911-0.248,1.551-0.248c0.535,0,0.96,0.077,1.276,0.233s0.427,0.383,0.33,0.68
				h-1.018c0.048-0.168-0.038-0.287-0.258-0.358c-0.147-0.047-0.344-0.07-0.589-0.07c-0.272,0-0.503,0.031-0.689,0.092
				s-0.301,0.145-0.343,0.254c-0.038,0.1,0.013,0.174,0.155,0.224c0.09,0.032,0.295,0.071,0.616,0.115l0.828,0.116
				c0.362,0.05,0.625,0.118,0.788,0.202c0.252,0.132,0.33,0.322,0.234,0.57c-0.099,0.256-0.358,0.468-0.777,0.637
				c-0.42,0.168-0.953,0.253-1.6,0.253c-0.661,0-1.148-0.083-1.462-0.249c-0.314-0.167-0.416-0.395-0.303-0.686H382.492z"/>
		</g>
		<polygon points="386.057,77.77 388.31,79.733 324.29,79.733 324.29,77.77 		"/>
		<g>
			<path fill="#FFFFFF" d="M360.038,78.116v0.799h0.477v0.181h-0.692v-0.979H360.038z"/>
			<path fill="#FFFFFF" d="M361.449,78.406c0.022-0.062,0.054-0.117,0.095-0.164s0.092-0.083,0.151-0.109
				c0.061-0.026,0.128-0.04,0.203-0.04s0.144,0.014,0.202,0.04c0.06,0.026,0.11,0.062,0.151,0.109s0.072,0.102,0.095,0.164
				c0.021,0.062,0.033,0.131,0.033,0.204c0,0.071-0.012,0.138-0.033,0.199c-0.022,0.062-0.054,0.115-0.095,0.161
				s-0.092,0.082-0.151,0.107c-0.059,0.026-0.127,0.039-0.202,0.039s-0.143-0.013-0.203-0.039c-0.06-0.025-0.11-0.062-0.151-0.107
				s-0.072-0.1-0.095-0.161c-0.021-0.062-0.033-0.128-0.033-0.199C361.416,78.537,361.428,78.468,361.449,78.406z M361.647,78.73
				c0.01,0.038,0.024,0.073,0.046,0.104c0.021,0.031,0.048,0.056,0.082,0.075c0.034,0.019,0.075,0.027,0.124,0.027
				c0.048,0,0.089-0.009,0.123-0.027c0.034-0.02,0.062-0.044,0.082-0.075c0.021-0.031,0.036-0.066,0.046-0.104
				c0.01-0.039,0.015-0.079,0.015-0.12c0-0.043-0.005-0.085-0.015-0.125s-0.024-0.076-0.046-0.107
				c-0.021-0.032-0.048-0.058-0.082-0.076s-0.075-0.028-0.123-0.028c-0.049,0-0.09,0.01-0.124,0.028s-0.062,0.044-0.082,0.076
				c-0.021,0.031-0.036,0.067-0.046,0.107s-0.015,0.082-0.015,0.125C361.632,78.651,361.637,78.691,361.647,78.73z"/>
			<path fill="#FFFFFF" d="M363.93,79.087c-0.047,0.02-0.094,0.029-0.141,0.029c-0.075,0-0.143-0.013-0.203-0.039
				c-0.06-0.025-0.11-0.062-0.151-0.107s-0.072-0.1-0.095-0.161c-0.021-0.062-0.033-0.128-0.033-0.199
				c0-0.073,0.012-0.142,0.033-0.204c0.022-0.062,0.054-0.117,0.095-0.164s0.092-0.083,0.151-0.109
				c0.061-0.026,0.128-0.04,0.203-0.04c0.05,0,0.099,0.008,0.146,0.022c0.047,0.016,0.09,0.037,0.128,0.066s0.069,0.065,0.094,0.108
				s0.04,0.093,0.045,0.148h-0.205c-0.013-0.055-0.038-0.096-0.074-0.123c-0.037-0.027-0.081-0.042-0.133-0.042
				c-0.049,0-0.09,0.01-0.124,0.028s-0.062,0.044-0.082,0.076c-0.021,0.031-0.036,0.067-0.046,0.107s-0.015,0.082-0.015,0.125
				c0,0.041,0.005,0.081,0.015,0.12c0.01,0.038,0.024,0.073,0.046,0.104c0.021,0.031,0.048,0.056,0.082,0.075
				c0.034,0.019,0.075,0.027,0.124,0.027c0.071,0,0.126-0.018,0.165-0.054s0.062-0.089,0.067-0.157h-0.217v-0.16h0.412v0.529h-0.138
				l-0.021-0.111C364.02,79.034,363.977,79.068,363.93,79.087z"/>
			<path fill="#FFFFFF" d="M365.43,78.116v0.979h-0.216v-0.979H365.43z"/>
			<path fill="#FFFFFF" d="M366.608,78.854c0.012,0.022,0.027,0.041,0.047,0.056c0.02,0.014,0.043,0.024,0.069,0.031
				s0.054,0.01,0.082,0.01c0.02,0,0.04-0.001,0.062-0.004c0.022-0.004,0.043-0.01,0.062-0.019c0.019-0.01,0.035-0.022,0.048-0.038
				s0.02-0.036,0.02-0.062c0-0.026-0.009-0.048-0.025-0.064c-0.018-0.016-0.04-0.029-0.067-0.041
				c-0.027-0.011-0.059-0.021-0.093-0.028c-0.035-0.009-0.07-0.018-0.105-0.027c-0.037-0.01-0.072-0.021-0.107-0.034
				c-0.035-0.013-0.065-0.03-0.093-0.051c-0.028-0.021-0.05-0.048-0.067-0.079c-0.017-0.032-0.025-0.07-0.025-0.115
				c0-0.05,0.011-0.094,0.032-0.131s0.05-0.067,0.085-0.093c0.034-0.024,0.074-0.043,0.118-0.055s0.088-0.018,0.132-0.018
				c0.051,0,0.1,0.006,0.147,0.018c0.047,0.011,0.089,0.029,0.125,0.055c0.037,0.026,0.065,0.059,0.087,0.099
				s0.032,0.088,0.032,0.145h-0.208c-0.002-0.029-0.008-0.054-0.019-0.072c-0.011-0.02-0.024-0.034-0.042-0.046
				c-0.018-0.011-0.037-0.019-0.06-0.023c-0.022-0.004-0.047-0.007-0.073-0.007c-0.018,0-0.035,0.002-0.053,0.006
				c-0.017,0.004-0.033,0.01-0.047,0.02c-0.015,0.009-0.026,0.021-0.035,0.034s-0.014,0.031-0.014,0.052
				c0,0.02,0.004,0.035,0.011,0.047c0.008,0.012,0.021,0.022,0.043,0.033c0.021,0.01,0.052,0.02,0.09,0.03
				c0.038,0.01,0.087,0.022,0.148,0.038c0.019,0.004,0.044,0.01,0.076,0.02s0.064,0.025,0.097,0.046
				c0.032,0.021,0.06,0.05,0.083,0.085s0.035,0.08,0.035,0.135c0,0.045-0.009,0.087-0.026,0.125c-0.017,0.038-0.043,0.071-0.077,0.1
				c-0.034,0.027-0.077,0.05-0.128,0.065s-0.109,0.022-0.176,0.022c-0.054,0-0.106-0.006-0.157-0.02
				c-0.051-0.013-0.096-0.034-0.135-0.062s-0.069-0.064-0.093-0.108c-0.022-0.044-0.033-0.096-0.032-0.156h0.208
				C366.589,78.803,366.595,78.831,366.608,78.854z"/>
			<path fill="#FFFFFF" d="M368.078,78.296v-0.181h0.803v0.181h-0.294v0.799h-0.215v-0.799H368.078z"/>
			<path fill="#FFFFFF" d="M370.033,78.116v0.979h-0.216v-0.979H370.033z"/>
			<path fill="#FFFFFF" d="M371.673,78.377c-0.013-0.021-0.028-0.039-0.048-0.055c-0.019-0.016-0.041-0.027-0.065-0.036
				c-0.023-0.009-0.049-0.014-0.075-0.014c-0.049,0-0.09,0.01-0.124,0.028s-0.062,0.044-0.082,0.076
				c-0.021,0.031-0.036,0.067-0.046,0.107s-0.015,0.082-0.015,0.125c0,0.041,0.005,0.081,0.015,0.12
				c0.01,0.038,0.024,0.073,0.046,0.104c0.021,0.031,0.048,0.056,0.082,0.075c0.034,0.019,0.075,0.027,0.124,0.027
				c0.065,0,0.117-0.02,0.154-0.06c0.036-0.041,0.06-0.094,0.067-0.159h0.209c-0.006,0.061-0.021,0.116-0.043,0.166
				c-0.022,0.049-0.053,0.091-0.091,0.126c-0.037,0.035-0.081,0.062-0.131,0.079c-0.051,0.019-0.106,0.027-0.166,0.027
				c-0.075,0-0.143-0.013-0.203-0.039c-0.06-0.025-0.11-0.062-0.151-0.107s-0.072-0.1-0.095-0.161
				c-0.021-0.062-0.033-0.128-0.033-0.199c0-0.073,0.012-0.142,0.033-0.204c0.022-0.062,0.054-0.117,0.095-0.164
				s0.092-0.083,0.151-0.109c0.061-0.026,0.128-0.04,0.203-0.04c0.054,0,0.104,0.008,0.152,0.023s0.091,0.038,0.129,0.067
				c0.038,0.03,0.069,0.067,0.094,0.111c0.025,0.043,0.041,0.094,0.047,0.15h-0.208C371.695,78.42,371.686,78.398,371.673,78.377z"
				/>
			<path fill="#FFFFFF" d="M374.254,78.854c0.012,0.022,0.027,0.041,0.047,0.056c0.02,0.014,0.043,0.024,0.069,0.031
				s0.054,0.01,0.082,0.01c0.02,0,0.04-0.001,0.062-0.004c0.022-0.004,0.043-0.01,0.062-0.019c0.019-0.01,0.035-0.022,0.048-0.038
				s0.02-0.036,0.02-0.062c0-0.026-0.009-0.048-0.025-0.064c-0.018-0.016-0.04-0.029-0.067-0.041
				c-0.027-0.011-0.059-0.021-0.093-0.028c-0.035-0.009-0.07-0.018-0.105-0.027c-0.037-0.01-0.072-0.021-0.107-0.034
				c-0.035-0.013-0.065-0.03-0.093-0.051c-0.028-0.021-0.05-0.048-0.067-0.079c-0.017-0.032-0.025-0.07-0.025-0.115
				c0-0.05,0.011-0.094,0.032-0.131s0.05-0.067,0.085-0.093c0.034-0.024,0.074-0.043,0.118-0.055s0.088-0.018,0.132-0.018
				c0.051,0,0.1,0.006,0.147,0.018c0.047,0.011,0.089,0.029,0.125,0.055c0.037,0.026,0.065,0.059,0.087,0.099
				s0.032,0.088,0.032,0.145h-0.208c-0.002-0.029-0.008-0.054-0.019-0.072c-0.011-0.02-0.024-0.034-0.042-0.046
				c-0.018-0.011-0.037-0.019-0.06-0.023c-0.022-0.004-0.047-0.007-0.073-0.007c-0.018,0-0.035,0.002-0.053,0.006
				c-0.017,0.004-0.033,0.01-0.047,0.02c-0.015,0.009-0.026,0.021-0.035,0.034s-0.014,0.031-0.014,0.052
				c0,0.02,0.004,0.035,0.011,0.047c0.008,0.012,0.021,0.022,0.043,0.033c0.021,0.01,0.052,0.02,0.09,0.03
				c0.038,0.01,0.087,0.022,0.148,0.038c0.019,0.004,0.044,0.01,0.076,0.02s0.064,0.025,0.097,0.046
				c0.032,0.021,0.06,0.05,0.083,0.085s0.035,0.08,0.035,0.135c0,0.045-0.009,0.087-0.026,0.125c-0.017,0.038-0.043,0.071-0.077,0.1
				c-0.034,0.027-0.077,0.05-0.128,0.065s-0.109,0.022-0.176,0.022c-0.054,0-0.106-0.006-0.157-0.02
				c-0.051-0.013-0.096-0.034-0.135-0.062s-0.069-0.064-0.093-0.108c-0.022-0.044-0.033-0.096-0.032-0.156h0.208
				C374.236,78.803,374.241,78.831,374.254,78.854z"/>
			<path fill="#FFFFFF" d="M376.535,78.116v0.181h-0.517v0.21h0.475v0.168h-0.475v0.24h0.527v0.181h-0.743v-0.979H376.535z"/>
			<path fill="#FFFFFF" d="M378.044,78.116c0.044,0,0.083,0.007,0.118,0.021c0.035,0.014,0.065,0.033,0.091,0.058
				c0.025,0.025,0.044,0.054,0.058,0.086s0.02,0.067,0.02,0.105c0,0.058-0.012,0.107-0.036,0.149s-0.063,0.074-0.118,0.096v0.003
				c0.026,0.007,0.048,0.019,0.065,0.033c0.018,0.016,0.031,0.033,0.043,0.054c0.011,0.021,0.019,0.043,0.023,0.068
				c0.005,0.024,0.009,0.049,0.011,0.074c0.001,0.016,0.002,0.033,0.003,0.055c0.001,0.021,0.002,0.042,0.005,0.064
				c0.002,0.021,0.006,0.043,0.011,0.062s0.013,0.036,0.022,0.05h-0.216c-0.012-0.031-0.019-0.068-0.021-0.111
				s-0.007-0.084-0.013-0.123c-0.007-0.052-0.022-0.089-0.047-0.112c-0.023-0.024-0.062-0.036-0.116-0.036h-0.215v0.383h-0.216
				v-0.979H378.044z M377.967,78.559c0.05,0,0.087-0.012,0.111-0.033c0.024-0.022,0.037-0.058,0.037-0.107
				c0-0.047-0.013-0.082-0.037-0.104s-0.062-0.032-0.111-0.032h-0.235v0.276H377.967z"/>
			<path fill="#FFFFFF" d="M379.518,79.095l-0.317-0.979h0.221l0.219,0.688h0.003l0.221-0.688h0.222l-0.325,0.979H379.518z"/>
			<path fill="#FFFFFF" d="M381.208,78.116v0.979h-0.216v-0.979H381.208z"/>
			<path fill="#FFFFFF" d="M382.848,78.377c-0.013-0.021-0.028-0.039-0.048-0.055c-0.019-0.016-0.041-0.027-0.065-0.036
				c-0.023-0.009-0.049-0.014-0.075-0.014c-0.049,0-0.09,0.01-0.124,0.028s-0.062,0.044-0.082,0.076
				c-0.021,0.031-0.036,0.067-0.046,0.107s-0.015,0.082-0.015,0.125c0,0.041,0.005,0.081,0.015,0.12
				c0.01,0.038,0.024,0.073,0.046,0.104c0.021,0.031,0.048,0.056,0.082,0.075c0.034,0.019,0.075,0.027,0.124,0.027
				c0.065,0,0.117-0.02,0.154-0.06c0.036-0.041,0.06-0.094,0.067-0.159h0.209c-0.006,0.061-0.021,0.116-0.043,0.166
				c-0.022,0.049-0.053,0.091-0.091,0.126c-0.037,0.035-0.081,0.062-0.131,0.079c-0.051,0.019-0.106,0.027-0.166,0.027
				c-0.075,0-0.143-0.013-0.203-0.039c-0.06-0.025-0.11-0.062-0.151-0.107s-0.072-0.1-0.095-0.161
				c-0.021-0.062-0.033-0.128-0.033-0.199c0-0.073,0.012-0.142,0.033-0.204c0.022-0.062,0.054-0.117,0.095-0.164
				s0.092-0.083,0.151-0.109c0.061-0.026,0.128-0.04,0.203-0.04c0.054,0,0.104,0.008,0.152,0.023s0.091,0.038,0.129,0.067
				c0.038,0.03,0.069,0.067,0.094,0.111c0.025,0.043,0.041,0.094,0.047,0.15h-0.208C382.869,78.42,382.861,78.398,382.848,78.377z"
				/>
			<path fill="#FFFFFF" d="M384.792,78.116v0.181h-0.517v0.21h0.475v0.168h-0.475v0.24h0.527v0.181h-0.743v-0.979H384.792z"/>
		</g>
		<ellipse opacity="0.3" fill="#232020" cx="368.124" cy="105.961" rx="45.008" ry="0.775"/>
	</g>
	<ellipse opacity="0.3" fill="#B7AFA7" cx="550.247" cy="79.137" rx="97.416" ry="2.414"/>
	<linearGradient id="SVGID_4_" gradientUnits="userSpaceOnUse" x1="186.3281" y1="60.0278" x2="423.4587" y2="60.0278">
		<stop  offset="0.0816" style="stop-color:#931A21"/>
		<stop  offset="0.2092" style="stop-color:#9F1E25"/>
		<stop  offset="0.7092" style="stop-color:#721817"/>
		<stop  offset="0.9133" style="stop-color:#640C0D"/>
	</linearGradient>
	<path fill="url(#SVGID_4_)" d="M413.312,51.447c0,1.478,0.357,3.268,0.357,4.66l-217.151-0.248
		c-0.064-0.066-0.047-0.223-0.048-0.593c-0.004-1.089-0.001-2.344-0.002-3.433c0-0.104-0.01-0.209-0.019-0.385
		c-3.407,2.885-6.75,5.717-10.121,8.572c3.385,2.866,6.731,5.699,10.146,8.59c0-1.479,0-3.998,0-5.39h216.794
		c0.064,0.066,0.047,0.223,0.048,0.593c0.004,1.089,0.001,3.322,0.002,4.411c0,0.105,0.01,0.209,0.019,0.386
		c3.407-2.885,6.75-5.717,10.121-8.572C420.074,57.171,416.728,54.338,413.312,51.447z"/>
	<g>
		<polygon fill="#FDEDDF" points="613.94,77.901 613.94,33.89 577.865,13.689 541.069,33.89 504.755,13.689 467.719,33.65 
			467.719,77.901 		"/>
		<polygon fill="#B7AFA7" points="613.94,36.295 613.94,30.042 577.384,9.6 540.829,29.802 504.033,9.6 467.719,29.561 
			467.719,36.295 504.515,15.613 540.829,36.295 577.625,15.613 		"/>
		<g>
			<linearGradient id="SVGID_5_" gradientUnits="userSpaceOnUse" x1="464.8325" y1="20.302" x2="504.0995" y2="20.302">
				<stop  offset="0.0816" style="stop-color:#931A21"/>
				<stop  offset="0.2092" style="stop-color:#9F1E25"/>
				<stop  offset="0.7092" style="stop-color:#721817"/>
				<stop  offset="0.9133" style="stop-color:#640C0D"/>
			</linearGradient>
			<polygon fill="url(#SVGID_5_)" points="464.833,29.08 464.833,33.89 504.1,11.938 504.033,6.714 			"/>
			<linearGradient id="SVGID_6_" gradientUnits="userSpaceOnUse" x1="504.0327" y1="19.4604" x2="540.829" y2="19.4604">
				<stop  offset="0.0816" style="stop-color:#931A21"/>
				<stop  offset="0.2092" style="stop-color:#9F1E25"/>
				<stop  offset="0.7092" style="stop-color:#721817"/>
				<stop  offset="0.9133" style="stop-color:#640C0D"/>
			</linearGradient>
			<polygon fill="url(#SVGID_6_)" points="504.033,6.714 504.1,11.938 540.829,32.207 540.829,27.156 			"/>
			<linearGradient id="SVGID_7_" gradientUnits="userSpaceOnUse" x1="577.3836" y1="20.302" x2="617.3055" y2="20.302">
				<stop  offset="0.0816" style="stop-color:#931A21"/>
				<stop  offset="0.2092" style="stop-color:#9F1E25"/>
				<stop  offset="0.7092" style="stop-color:#721817"/>
				<stop  offset="0.9133" style="stop-color:#640C0D"/>
			</linearGradient>
			<polygon fill="url(#SVGID_7_)" points="577.384,6.714 577.384,12.005 617.306,33.89 617.306,29.08 			"/>
			<linearGradient id="SVGID_8_" gradientUnits="userSpaceOnUse" x1="540.829" y1="19.4604" x2="577.3836" y2="19.4604">
				<stop  offset="0.0816" style="stop-color:#931A21"/>
				<stop  offset="0.2092" style="stop-color:#9F1E25"/>
				<stop  offset="0.7092" style="stop-color:#721817"/>
				<stop  offset="0.9133" style="stop-color:#640C0D"/>
			</linearGradient>
			<polygon fill="url(#SVGID_8_)" points="540.829,27.156 540.829,32.207 577.384,12.005 577.384,6.714 			"/>
		</g>
		<rect x="506.678" y="51.62" fill="#454545" width="68.299" height="26.281"/>
		<rect x="504.08" y="52.689" fill="#BAB8B8" width="5.195" height="25.211"/>
		<rect x="573.144" y="52.689" fill="#BAB8B8" width="5.195" height="25.211"/>
		<g>
			<linearGradient id="SVGID_9_" gradientUnits="userSpaceOnUse" x1="501.0245" y1="51.6195" x2="541.1333" y2="51.6195">
				<stop  offset="0.0816" style="stop-color:#931A21"/>
				<stop  offset="0.2092" style="stop-color:#9F1E25"/>
				<stop  offset="0.7092" style="stop-color:#721817"/>
				<stop  offset="0.9133" style="stop-color:#640C0D"/>
			</linearGradient>
			<rect x="501.024" y="48.716" fill="url(#SVGID_9_)" width="40.109" height="5.806"/>
			<linearGradient id="SVGID_10_" gradientUnits="userSpaceOnUse" x1="541.1333" y1="51.6195" x2="581.2422" y2="51.6195">
				<stop  offset="0.0816" style="stop-color:#931A21"/>
				<stop  offset="0.2092" style="stop-color:#9F1E25"/>
				<stop  offset="0.7092" style="stop-color:#721817"/>
				<stop  offset="0.9133" style="stop-color:#640C0D"/>
			</linearGradient>
			<rect x="541.133" y="48.716" fill="url(#SVGID_10_)" width="40.109" height="5.806"/>
		</g>
		<g>
			<rect x="461.961" y="60.537" fill="#C7C7C7" width="5.758" height="17.364"/>
			<rect x="467.719" y="60.537" fill="#A4A2A2" width="5.951" height="17.364"/>
		</g>
		<polygon fill="#B7AFA7" points="473.67,60.537 490.964,77.901 473.67,77.901 		"/>
		<g opacity="0.7">
			<rect x="636.406" y="64.94" fill="#2B388D" width="2.578" height="11.816"/>
			<rect x="627.275" y="60.536" fill="#2B388D" width="2.9" height="12.89"/>
			<rect x="616.963" y="56.454" fill="#2B388D" width="2.686" height="10.527"/>
		</g>
		<linearGradient id="SVGID_11_" gradientUnits="userSpaceOnUse" x1="642.2618" y1="70.0702" x2="614.5195" y2="54.0532">
			<stop  offset="0.0816" style="stop-color:#931A21"/>
			<stop  offset="0.2092" style="stop-color:#9F1E25"/>
			<stop  offset="0.7092" style="stop-color:#721817"/>
			<stop  offset="0.9133" style="stop-color:#640C0D"/>
		</linearGradient>
		<polygon fill="url(#SVGID_11_)" points="613.94,55.058 620.078,55.058 642.743,65.907 642.743,69.237 619.541,58.173 
			613.94,58.159 		"/>
		<g>
			<rect x="613.939" y="65.477" fill="#C0A286" width="12.691" height="6.212"/>
			<rect x="613.939" y="71.689" fill="#8E7C67" width="12.691" height="6.212"/>
		</g>
		<polygon fill="#B6B6B6" points="642.743,77.901 626.631,77.901 626.631,70.311 		"/>
		<polygon fill="#B7AFA7" points="581.242,48.716 610.463,77.901 578.339,77.901 578.339,54.523 581.242,54.523 		"/>
		<rect x="509.275" y="60.537" fill="#A4A7A9" width="63.869" height="1.611"/>
		<rect x="509.275" y="63.955" fill="#A4A7A9" width="63.869" height="1.611"/>
		<rect x="509.275" y="67.373" fill="#A4A7A9" width="63.869" height="1.611"/>
		<rect x="509.275" y="70.791" fill="#A4A7A9" width="63.869" height="1.611"/>
		<rect x="509.275" y="74.209" fill="#A4A7A9" width="63.869" height="1.611"/>
		<g>
			<rect x="521.172" y="40.355" fill="#5A5A58" width="12.461" height="3.505"/>
			<rect x="522.005" y="41.214" fill="#FFFFFF" width="5.067" height="1.883"/>
			<rect x="527.801" y="41.166" fill="#FFFFFF" width="5.067" height="1.883"/>
		</g>
		<g>
			<rect x="536.351" y="40.355" fill="#5A5A58" width="12.461" height="3.505"/>
			<rect x="537.184" y="41.214" fill="#FFFFFF" width="5.067" height="1.883"/>
			<rect x="542.98" y="41.166" fill="#FFFFFF" width="5.067" height="1.883"/>
		</g>
		<g>
			<rect x="551.762" y="40.355" fill="#5A5A58" width="12.461" height="3.505"/>
			<rect x="552.595" y="41.214" fill="#FFFFFF" width="5.067" height="1.883"/>
			<rect x="558.391" y="41.166" fill="#FFFFFF" width="5.067" height="1.883"/>
		</g>
		<g>
			<rect x="475.168" y="40.355" fill="#5A5A58" width="12.461" height="3.505"/>
			<rect x="476" y="41.214" fill="#FFFFFF" width="5.067" height="1.883"/>
			<rect x="481.796" y="41.166" fill="#FFFFFF" width="5.067" height="1.883"/>
		</g>
		<g>
			<rect x="490.347" y="40.355" fill="#5A5A58" width="12.461" height="3.505"/>
			<rect x="491.179" y="41.214" fill="#FFFFFF" width="5.067" height="1.883"/>
			<rect x="496.975" y="41.166" fill="#FFFFFF" width="5.067" height="1.883"/>
		</g>
		<g>
			<rect x="505.757" y="40.355" fill="#5A5A58" width="12.461" height="3.505"/>
			<rect x="506.59" y="41.214" fill="#FFFFFF" width="5.067" height="1.883"/>
			<rect x="512.386" y="41.166" fill="#FFFFFF" width="5.067" height="1.883"/>
		</g>
		<g>
			<rect x="566.424" y="40.355" fill="#5A5A58" width="12.461" height="3.505"/>
			<rect x="567.257" y="41.214" fill="#FFFFFF" width="5.067" height="1.883"/>
			<rect x="573.053" y="41.166" fill="#FFFFFF" width="5.067" height="1.883"/>
		</g>
		<g>
			<rect x="581.603" y="40.355" fill="#5A5A58" width="12.461" height="3.505"/>
			<rect x="582.436" y="41.214" fill="#FFFFFF" width="5.067" height="1.883"/>
			<rect x="588.232" y="41.166" fill="#FFFFFF" width="5.067" height="1.883"/>
		</g>
		<g>
			<rect x="597.013" y="40.355" fill="#5A5A58" width="12.461" height="3.505"/>
			<rect x="597.846" y="41.214" fill="#FFFFFF" width="5.067" height="1.883"/>
			<rect x="603.642" y="41.166" fill="#FFFFFF" width="5.067" height="1.883"/>
		</g>
	</g>
</g>
</svg>
