<?xml version="1.0" encoding="utf-8"?>
<!-- Generator: Adobe Illustrator 17.0.0, SVG Export Plug-In . SVG Version: 6.00 Build 0)  -->
<!DOCTYPE svg PUBLIC "-//W3C//DTD SVG 1.1//EN" "http://www.w3.org/Graphics/SVG/1.1/DTD/svg11.dtd">
<svg version="1.1" id="Layer_1" xmlns="http://www.w3.org/2000/svg" xmlns:xlink="http://www.w3.org/1999/xlink" x="0px" y="0px"
	 width="50px" height="50px" viewBox="-5 -5 50 50" enable-background="new -5 -5 50 50" xml:space="preserve">
<g>
	<path fill="#FFFFFF" d="M20-5C9.838-5,1.6,3.238,1.6,13.4c0,10.162,8.238,18.4,18.4,18.4s18.4-8.238,18.4-18.4
		C38.4,3.238,30.162-5,20-5z M33.167,22.6l-2.001-2.001l-1.622,1.622l2.162,2.162c-2.759,2.952-6.528,4.758-10.557,5.06V26.05h-2.3
		v3.393c-4.019-0.293-7.782-2.082-10.545-5.014l2.162-2.162l-1.633-1.633L6.833,22.6c-1.671-2.373-2.665-5.155-2.875-8.05H7.35v-2.3
		H3.958c0.21-2.895,1.204-5.677,2.875-8.05l2.001,1.966l1.633-1.633L8.305,2.372c2.764-2.932,6.527-4.721,10.545-5.014V0.75h2.3
		v-3.393c4.019,0.293,7.782,2.082,10.545,5.014l-2.162,2.162l1.622,1.622L33.167,4.2c1.671,2.373,2.665,5.155,2.875,8.05H32.65v2.3
		h3.392C35.833,17.445,34.839,20.227,33.167,22.6z"/>
	<path fill="#FFFFFF" d="M21.15,5.35h-2.3v8.05c-0.002,0.306,0.118,0.599,0.333,0.816l5.75,5.75l1.622-1.622l-5.405-5.416V5.35z"/>
</g>
</svg>
