<?xml version="1.0" encoding="utf-8"?>
<!-- Generator: Adobe Illustrator 17.0.0, SVG Export Plug-In . SVG Version: 6.00 Build 0)  -->
<!DOCTYPE svg PUBLIC "-//W3C//DTD SVG 1.1//EN" "http://www.w3.org/Graphics/SVG/1.1/DTD/svg11.dtd">
<svg version="1.1" id="Layer_1" xmlns="http://www.w3.org/2000/svg" xmlns:xlink="http://www.w3.org/1999/xlink" x="0px" y="0px"
	 width="100px" height="100px" viewBox="-3.792 -15.301 100 100" enable-background="new -3.792 -15.301 100 100"
	 xml:space="preserve">
<g>
	<path fill="#FFFFFF" d="M92.341,67.806L79.713,36.52c-0.114-0.455-0.569-0.683-1.024-0.683h-4.551
		c-0.683,0-1.138,0.455-1.138,1.138s0.455,1.138,1.138,1.138h3.868l11.718,29.011H2.805L14.41,38.226h3.868
		c0.683,0,1.138-0.455,1.138-1.138s-0.455-1.138-1.138-1.138h-4.551c-0.455,0-0.796,0.228-1.024,0.683L0.075,67.92
		c-0.114,0.341-0.114,0.683,0.114,1.024c0.228,0.228,0.569,0.455,0.91,0.455h90.332c0.341,0,0.683-0.228,0.796-0.569
		C92.455,68.602,92.455,68.147,92.341,67.806z"/>
	<path fill="#FFFFFF" d="M35.689,35.837h-8.196c-0.683,0-1.138,0.455-1.138,1.138s0.455,1.138,1.138,1.138h9.215
		c0.015,0,0.026-0.007,0.04-0.007c1.481,3.04,3.23,6.155,4.766,8.761c-5.105,0.761-8.106,2.622-8.106,4.898
		c0,3.413,6.599,5.233,13.197,5.233c6.598,0,13.197-1.82,13.083-5.233c0-2.739-4.293-4.306-8.633-4.884
		c1.536-2.607,3.276-5.725,4.749-8.768h10.141c0.683,0,1.138-0.455,1.138-1.138c0-0.683-0.455-1.138-1.138-1.138H56.86
		c1.335-3.031,2.26-5.823,2.26-7.736c0-7.054-5.802-12.856-12.856-12.856c-7.054,0-12.856,5.802-12.856,12.856
		C33.409,30.014,34.344,32.806,35.689,35.837z M57.414,51.764c0,0.91-3.754,2.958-10.922,2.958c-7.168,0-10.922-2.048-10.922-2.958
		c0-0.683,2.162-2.162,6.94-2.73c0.091-0.015,0.166-0.057,0.249-0.088c1.42,2.339,2.465,3.954,2.595,4.183
		c0.114,0.341,0.569,0.569,0.91,0.569c0.341,0,0.796-0.114,0.91-0.569c0.162-0.226,1.197-1.806,2.596-4.101
		c0.008,0.002,0.015,0.005,0.022,0.006C55.139,49.489,57.414,51.082,57.414,51.764z M46.265,17.634
		c5.802,0,10.581,4.778,10.581,10.58c0,4.551-6.94,16.496-10.581,22.299c-3.641-5.802-10.58-17.748-10.58-22.299
		C35.684,22.412,40.463,17.634,46.265,17.634z"/>
	<path fill="#FFFFFF" d="M46.265,32.538c2.73,0,4.892-2.162,4.892-4.892c0-2.73-2.162-4.892-4.892-4.892s-4.892,2.162-4.892,4.892
		C41.373,30.376,43.534,32.538,46.265,32.538z M46.265,24.915c1.479,0,2.617,1.138,2.617,2.617s-1.138,2.617-2.617,2.617
		s-2.617-1.138-2.617-2.617S44.786,24.915,46.265,24.915z"/>
	<path fill="#FFFFFF" d="M21.577,32.001v7.931h-4.778c-0.683,0-1.138,0.455-1.138,1.138s0.455,1.138,1.138,1.138h11.832
		c0.683,0,1.138-0.455,1.138-1.138s-0.455-1.138-1.138-1.138h-4.778v-7.931c4.356-0.562,7.736-4.287,7.736-8.793
		c0-4.892-3.982-8.874-8.874-8.874c-4.892,0-8.874,3.982-8.874,8.874C13.841,27.715,17.221,31.44,21.577,32.001z M22.715,16.61
		c3.641,0,6.599,2.958,6.599,6.599c0,3.252-2.362,5.953-5.461,6.494v-3.536c0-0.683-0.455-1.138-1.138-1.138
		c-0.683,0-1.138,0.455-1.138,1.138v3.536c-3.099-0.541-5.461-3.242-5.461-6.494C16.116,19.568,19.074,16.61,22.715,16.61z"/>
	<path fill="#FFFFFF" d="M61.055,23.209c0,4.506,3.381,8.231,7.736,8.793v7.931h-4.778c-0.683,0-1.138,0.455-1.138,1.138
		c0,0.683,0.455,1.138,1.138,1.138h11.832c0.683,0,1.138-0.455,1.138-1.138c0-0.683-0.455-1.138-1.138-1.138h-4.778v-7.931
		c4.356-0.562,7.736-4.287,7.736-8.793c0-4.892-3.982-8.874-8.874-8.874C65.037,14.335,61.055,18.317,61.055,23.209z M69.929,16.61
		c3.641,0,6.599,2.958,6.599,6.599c0,3.252-2.362,5.953-5.461,6.494v-3.536c0-0.683-0.455-1.138-1.138-1.138
		s-1.138,0.455-1.138,1.138v3.536c-3.099-0.541-5.461-3.242-5.461-6.494C63.33,19.568,66.288,16.61,69.929,16.61z"/>
	<path fill="#FFFFFF" d="M59.689,10.239c0.91,0.455,2.048,0.683,3.186,0.683c3.186,0,5.802-1.707,5.802-4.096
		c0-0.796-0.341-1.593-1.024-2.275c0-0.228,0-0.341,0-0.569C67.653,1.707,65.037,0,61.851,0c-2.503,0-4.664,1.024-5.461,2.617
		c-2.048,0.683-3.299,2.048-3.299,3.641C53.091,8.76,56.049,10.58,59.689,10.239z M57.642,4.778c0.455,0,0.796-0.341,0.91-0.796
		c0.228-0.796,1.707-1.593,3.527-1.593c2.048,0,3.527,0.91,3.527,1.707c0,0.114,0,0.228-0.114,0.341
		c-0.341,0.455-0.114,1.138,0.341,1.479s0.683,0.683,0.683,1.024c0,0.796-1.593,1.707-3.527,1.707c-0.91,0-1.82-0.228-2.503-0.569
		c-0.228-0.114-0.341-0.114-0.569-0.114c-0.341,0.114-0.569,0.114-0.91,0.114c-2.048,0-3.527-0.91-3.527-1.707
		C55.48,5.802,56.276,5.12,57.642,4.778z"/>
	<path fill="#FFFFFF" d="M26.355,11.491c0.91,0.455,2.048,0.683,3.185,0.683c3.186,0,5.688-1.82,5.802-4.096
		c0-0.796-0.341-1.593-1.024-2.275c0-0.228,0-0.341,0-0.569c0-2.275-2.617-3.982-5.802-3.982c-2.503,0-4.665,1.024-5.461,2.617
		c-2.048,0.683-3.299,2.048-3.299,3.641C19.757,10.012,22.715,11.832,26.355,11.491z M24.194,6.03c0.455,0,0.796-0.341,0.91-0.796
		c0.228-0.796,1.707-1.593,3.527-1.593c2.048,0,3.527,0.91,3.527,1.706c0,0.114,0,0.228-0.114,0.341
		c-0.341,0.455-0.114,1.138,0.341,1.479c0.455,0.341,0.683,0.683,0.683,1.024c0,0.796-1.593,1.707-3.527,1.707
		c-0.91,0-1.82-0.228-2.503-0.569c-0.228-0.114-0.341-0.114-0.569-0.114c-0.341,0.114-0.569,0.114-0.91,0.114
		c-2.048,0-3.527-0.91-3.527-1.707C22.032,7.054,22.828,6.371,24.194,6.03z"/>
</g>
</svg>
