<?xml version="1.0" encoding="utf-8"?>
<!-- Generator: Adobe Illustrator 17.0.0, SVG Export Plug-In . SVG Version: 6.00 Build 0)  -->
<!DOCTYPE svg PUBLIC "-//W3C//DTD SVG 1.1//EN" "http://www.w3.org/Graphics/SVG/1.1/DTD/svg11.dtd">
<svg version="1.1" id="Layer_1" xmlns="http://www.w3.org/2000/svg" xmlns:xlink="http://www.w3.org/1999/xlink" x="0px" y="0px"
	 width="120px" height="120px" viewBox="0 0 120 120" enable-background="new 0 0 120 120" xml:space="preserve">
<g id="_x32_eNcj2_1_">
	<g>
		<path fill="#CCCCCC" d="M51.57,71.54c-2.83,2.91-5.68,5.79-8.47,8.74c-2.31,2.45-4.92,3.95-8.42,3.11
			c-3.24-4.38-1.44-9.3-1.49-14.01c1.51-3.81,4.34-6.68,6.99-9.69c4.25-2.96,6.25-8.22,10.95-10.74c3.7-2.31,5.97-6.02,8.9-9.08
			c4.05-4.22,15.34-5,20.43-1.33c1.67,7.98,0.53,16.06,0.78,24.1c0.17,5.44,0.03,10.89,0.04,16.33c-1.3,3.88-3.5,1.63-4.94,0.41
			c-3.66-3.09-6.63-6.84-8.96-11.05c-0.92-3.77-0.22-7.63-0.55-11.58c-2.23,0.92-3.05,3.08-4.49,4.62
			C58.31,64.29,56.35,69.41,51.57,71.54z"/>
		<path fill="#B3B3B3" d="M51.13,48.94c-2.68,4.19-5.83,7.96-9.78,11.02c-2.39-0.29-3.42-2.47-5.16-3.66
			c-2.9-1.99-0.12,1.53-1.24,1.37c-0.49,8.6-0.92,17.18-1.74,25.73c-4.63,0.35-9.4,1.1-11.99-4.27c0.29-12.02,0.71-24.04-0.21-36.05
			c-0.07-1.52,0.54-2.68,1.85-3.46c5.42-3.4,11.37-1.99,17.17-1.89C44.73,40.48,47.23,45.4,51.13,48.94z"/>
		<path fill="#B3B3B3" d="M85.43,59.99c0-5.43,0-10.86,0-16.29c0.01-4.51,2.15-7.1,6.78-7.1c4.61,0,7.5,2.01,7.5,7.03
			c0,11.05,0.08,22.1-0.01,33.15c-0.04,4.54-2.57,6.83-7.12,6.84c-4.51,0.01-7.08-2.14-7.14-6.76
			C85.36,71.22,85.42,65.6,85.43,59.99z"/>
		<path fill="#B3B3B3" d="M51.57,71.54c2.89-3.89,5.62-7.92,9.81-10.59c4.07,0.6,4.94,4.35,6.9,7.03c4.21,4.08,6.59,10,12.42,12.46
			c0.31,0.25,0.41,0.49,0.29,0.72c-0.11,0.23-0.23,0.34-0.34,0.34c-0.39,1.06-1.14,1.7-2.24,1.95c-4.86-0.52-9.73-0.41-14.59-0.05
			C58.2,81.04,55.62,75.53,51.57,71.54z"/>
		<path fill="#CCCCCC" d="M80.66,81.49c0.03-0.35,0.05-0.7,0.05-1.06c-0.08-13.97-0.17-27.93-0.25-41.9
			c1.07,1.35,1.69,2.78,1.68,4.6c-0.06,11.63-0.02,23.27-0.02,34.9C82.11,79.4,81.92,80.67,80.66,81.49z"/>
		<path fill="#B3B3B3" d="M21.01,43.08c2.1,3.09,1.02,6.58,0.93,9.82c-0.26,8.74,1.15,17.54-0.72,26.23
			C19.78,67.12,20.16,55.1,21.01,43.08z"/>
		<path fill="#B3B3B3" d="M40.04,37.73c-5.57,2.05-11.63-0.35-17.17,1.89C28.09,34.51,34.09,36.33,40.04,37.73z"/>
		<path fill="#B3B3B3" d="M33.21,83.4c0.03-7.51,0.03-15.03,0.13-22.54c0.02-1.81-0.6-3.79,0.93-5.37c3.07,4.05,2.08,8.21,0.37,12.4
			c0.01,5.16,0.03,10.32,0.04,15.49C34.19,83.39,33.7,83.4,33.21,83.4z"/>
		<path fill="#B3B3B3" d="M63.83,83.39c4.87-1.24,9.73-1.36,14.59,0.05C73.56,83.91,68.7,83.96,63.83,83.39z"/>
		<path fill="#FFFFFF" d="M68.29,67.98c-2.3-2.34-4.6-4.69-6.9-7.03c1.27-3.14,4.1-4.88,6.9-8.59
			C68.29,58.57,68.29,63.28,68.29,67.98z"/>
		<path fill="#FFFFFF" d="M34.64,67.9c-0.12-4.13-0.25-8.27-0.37-12.4c0.58-0.49-0.49-3.59,1.87-1.24c1.82,1.82,3.48,3.8,5.21,5.71
			C39.7,63.11,37.05,65.4,34.64,67.9z"/>
	</g>
</g>
</svg>
