<?xml version="1.0" encoding="utf-8"?>
<!-- Generator: Adobe Illustrator 17.0.0, SVG Export Plug-In . SVG Version: 6.00 Build 0)  -->
<!DOCTYPE svg PUBLIC "-//W3C//DTD SVG 1.1//EN" "http://www.w3.org/Graphics/SVG/1.1/DTD/svg11.dtd">
<svg version="1.1" id="Layer_1" xmlns="http://www.w3.org/2000/svg" xmlns:xlink="http://www.w3.org/1999/xlink" x="0px" y="0px"
	 width="120px" height="120px" viewBox="0 0 120 120" enable-background="new 0 0 120 120" xml:space="preserve">
<g id="ZCQJ6P.tif">
	<g>
		<path fill="#B3B3B3" d="M58.37,34c-3.47,1.77-6.46,4.05-9.1,6.7c-1.15,1.15-2.17,2.38-2.76,3.84c-0.8,1.94-0.37,3.67,1.2,5.19
			c0.73,0.71,1.61,1.27,2.51,1.8c1.84,1.09,3.6,2.26,5.16,3.64c2.54,2.25,1.79,6.26-1.39,7.74c-0.33,0.15-0.64,0.2-0.99,0.15
			c-6.06-0.87-11.78-2.45-16.6-5.98c-2.28-1.67-4.04-3.69-4.73-6.27c-0.92-3.46,0.38-6.41,3.01-8.93c3.8-3.66,8.76-5.48,14.06-6.7
			c1.88-0.44,3.81-0.7,5.74-0.92c0.27-0.03,0.63,0.09,0.79-0.25C56.29,34,57.33,34,58.37,34z"/>
		<path fill="#CCCCCC" d="M63.04,34c-0.65,0.86-1.25,1.74-1.66,2.71c-1.14,2.7-0.59,5.09,1.63,7.19c0.96,0.9,2.07,1.61,3.27,2.24
			c1.3,0.68,2.59,1.39,3.68,2.33c1.84,1.59,2.1,3.07,0.88,5.05c-0.12,0.2-0.24,0.41-0.39,0.59c-3.32,3.97-7.38,7.15-12.6,9.08
			c-0.19,0.07-0.4,0.11-0.86,0.24c0.36-0.63,0.64-1.1,0.91-1.58c1.89-3.35,1.38-6-1.67-8.61c-1.37-1.18-2.97-2.09-4.54-3.04
			c-4.12-2.49-4.43-4.34-1.38-7.81c3.16-3.6,6.99-6.44,11.82-8.15c0.14-0.05,0.25-0.17,0.38-0.26C62.7,34,62.87,34,63.04,34z"/>
		<path fill="#CCCCCC" d="M98.91,81.2c-0.27,0.05-0.26,0.27-0.32,0.44c-1.27,3.46-4.04,4.77-8.81,4.18
			c-3.37-0.42-5.4-2.59-5.52-5.94c-0.08-2.41,0.52-4.63,3.11-5.88c2.76-1.33,5.66-1.26,8.44,0.01c1.35,0.62,2.17,1.7,2.66,2.98
			c0.13,0.33-0.03,0.78,0.44,1C98.91,79.06,98.91,80.13,98.91,81.2z"/>
		<path fill="#B3B3B3" d="M62.63,63.29c3.31-1.77,6.04-4.06,8.48-6.65c0.91-0.97,1.74-2,2.32-3.16c1.04-2.07,0.7-3.94-1.04-5.6
			c-1.24-1.19-2.75-2.09-4.29-2.95c-1.25-0.69-2.48-1.41-3.44-2.42c-2.4-2.52-1.88-5.92,1.17-7.8c0.39-0.24,0.75-0.33,1.21-0.27
			c5.85,0.8,11.39,2.33,16.09,5.64c3.15,2.21,5.43,4.92,5.44,8.7c0.01,2.85-1.41,5.16-3.58,7.13c-3.91,3.55-8.88,5.34-14.2,6.49
			C68.11,62.97,65.41,63.35,62.63,63.29z"/>
		<path fill="#CCCCCC" d="M60.97,79.7c0-1.82,0.03-3.64-0.02-5.46c-0.02-0.67,0.15-0.92,0.99-0.93c3.15-0.04,3.15-0.07,3.15,2.68
			c0,2.94-0.03,5.88,0.02,8.82c0.01,0.74-0.23,0.9-1.07,0.99c-2.23,0.25-3.71-0.37-4.78-2.18c-0.9-1.53-2.18-2.89-3.53-4.62
			c0,2.16-0.03,3.98,0.02,5.79c0.02,0.69-0.11,1-1.04,1c-3.1,0-3.1,0.04-3.1-2.71c0-2.9,0.03-5.8-0.02-8.7
			c-0.01-0.75,0.15-0.98,1.09-1.08c2.24-0.23,3.7,0.4,4.77,2.21c0.89,1.51,2.15,2.85,3.25,4.26C60.8,79.74,60.89,79.72,60.97,79.7z"
			/>
		<path fill="#CCCCCC" d="M82.84,73.84c-1.14,0.87-2.34,1.68-3.41,2.61c-1.78,1.54-1.75,1.57-0.41,3.49c1.3,1.88,2.6,3.76,4.04,5.83
			c-1.78,0-3.36-0.01-4.93,0.01c-0.58,0.01-0.68-0.38-0.87-0.71c-0.73-1.25-1.5-2.49-2.17-3.77c-0.32-0.6-0.5-0.46-0.98-0.12
			c-1.3,0.95-1.94,2.08-1.64,3.58c0.16,0.79-0.2,1.03-1.12,1.02c-3.25-0.02-3.25,0.02-3.25-2.83c0-2.9,0.02-5.8-0.01-8.69
			c-0.01-0.65,0.14-0.93,0.99-0.95c3.4-0.06,3.4-0.09,3.4,2.91c0,0.46,0,0.91,0,1.56c1.02-0.66,1.72-1.43,2.29-2.21
			c1.36-1.87,3.16-2.64,5.64-2.26c0.66,0.1,1.36,0.02,2.05,0.02C82.57,73.5,82.7,73.67,82.84,73.84z"/>
		<path fill="#CCCCCC" d="M27.55,73.11c1,0.01,1.99,0.06,2.94,0.35c0.98,0.29,1.76,0.8,2.27,1.6c0.94,1.48,0.78,1.75-1.08,1.83
			c-0.47,0.02-0.95,0.03-1.42,0.1c-0.63,0.09-1.07,0.01-1.28-0.61c-0.17-0.51-0.68-0.8-1.27-0.87c-0.82-0.1-1.82-0.2-2.04,0.72
			c-0.21,0.88,0.79,0.94,1.47,1.09c1.3,0.29,2.62,0.52,3.86,0.98c1.91,0.72,2.86,1.88,2.8,3.48c-0.06,1.73-1.03,3.01-2.83,3.64
			c-2.38,0.84-4.82,0.73-7.23-0.01c-0.76-0.23-1.31-0.72-1.76-1.3c-0.55-0.71-1.14-1.58-0.79-2.31c0.24-0.51,1.42-0.25,2.18-0.32
			c0.99-0.09,1.91-0.24,2.25,1.02c0.2,0.75,1.11,1.01,2,1c0.89-0.01,1.69-0.23,1.88-1.08c0.19-0.87-0.57-1.21-1.34-1.43
			c-1.55-0.45-3.21-0.63-4.65-1.38c-2.65-1.37-2.64-4.41,0.02-5.77C24.78,73.18,26.16,73.12,27.55,73.11z"/>
		<path fill="#CCCCCC" d="M42.34,73.33c2.3,0,2.3,0,3.12,1.93c1.37,3.21,2.71,6.43,4.12,9.62c0.33,0.75,0.16,0.95-0.7,0.88
			c-0.52-0.04-1.05-0.06-1.56,0c-1.37,0.17-2.35-0.1-2.48-1.51c-0.04-0.48-0.43-0.59-0.93-0.57c-0.73,0.02-1.48,0.07-2.21-0.01
			c-1.36-0.14-2.37,0.07-2.48,1.51c-0.02,0.2-0.07,0.53-0.39,0.53c-1.3,0.03-2.6,0.04-3.89,0c-0.38-0.01-0.22-0.33-0.14-0.53
			c1.61-3.78,3.23-7.56,4.83-11.34c0.16-0.38,0.43-0.53,0.88-0.52C41.13,73.34,41.74,73.33,42.34,73.33z"/>
		<path fill="#FEFEFE" d="M94.53,79.53c-0.09,0.54-0.14,1.11-0.3,1.66c-0.35,1.25-1.27,1.86-2.7,1.85c-1.4-0.01-2.39-0.66-2.72-1.87
			c-0.28-1.01-0.3-2.03-0.05-3.06c0.31-1.3,1.28-2.06,2.66-2.1c1.45-0.04,2.51,0.68,2.87,2.01C94.41,78.51,94.45,79.01,94.53,79.53z
			"/>
		<path fill="#F8FAFC" d="M40.73,80.93c0.47-1.36,0.92-2.68,1.48-4.33c0.57,1.63,1.03,2.94,1.52,4.33
			C42.68,80.93,41.76,80.93,40.73,80.93z"/>
	</g>
</g>
</svg>
