<?xml version="1.0" encoding="utf-8"?>
<!-- Generator: Adobe Illustrator 17.0.0, SVG Export Plug-In . SVG Version: 6.00 Build 0)  -->
<!DOCTYPE svg PUBLIC "-//W3C//DTD SVG 1.1//EN" "http://www.w3.org/Graphics/SVG/1.1/DTD/svg11.dtd">
<svg version="1.1" id="Layer_1" xmlns="http://www.w3.org/2000/svg" xmlns:xlink="http://www.w3.org/1999/xlink" x="0px" y="0px"
	 width="605.905px" height="179.44px" viewBox="0 0 605.905 179.44" enable-background="new 0 0 605.905 179.44"
	 xml:space="preserve">
<g>
	<g>
		<path fill="#59595B" d="M7.207,138.707v-6.193l-2.565,6.193H4.017l-2.553-6.193v6.193H0v-8.346h2.064l2.265,5.493l2.277-5.493
			h2.064v8.346H7.207z"/>
		<path fill="#59595B" d="M16.916,138.707l-0.613-1.602h-3.828l-0.613,1.602h-1.664l3.278-8.346h1.826l3.278,8.346H16.916z
			 M14.389,131.838l-1.501,3.979h3.002L14.389,131.838z"/>
		<path fill="#59595B" d="M25.936,138.707l-4.354-5.956v5.956h-1.464v-8.346h1.501l4.267,5.793v-5.793h1.464v8.346H25.936z"/>
		<path fill="#59595B" d="M29.752,135.416v-5.055h1.477v5.005c0,1.326,0.737,2.189,2.14,2.189c1.389,0,2.127-0.863,2.127-2.189
			v-5.005h1.477v5.042c0,2.077-1.189,3.454-3.604,3.454C30.94,138.858,29.752,137.469,29.752,135.416z"/>
		<path fill="#59595B" d="M39.373,138.707v-8.346h5.718v1.289h-4.254v2.164h4.166v1.289h-4.166v3.604H39.373z"/>
		<path fill="#59595B" d="M52.373,138.707l-0.613-1.602h-3.828l-0.613,1.602h-1.664l3.278-8.346h1.826l3.278,8.346H52.373z
			 M49.846,131.838l-1.501,3.979h3.002L49.846,131.838z"/>
		<path fill="#59595B" d="M54.762,134.54c0-2.564,1.915-4.316,4.38-4.316c1.688,0,2.728,0.876,3.353,1.877l-1.251,0.638
			c-0.4-0.688-1.201-1.213-2.102-1.213c-1.652,0-2.878,1.264-2.878,3.015c0,1.752,1.226,3.016,2.878,3.016
			c0.9,0,1.701-0.513,2.102-1.214l1.251,0.639c-0.638,1.001-1.664,1.877-3.353,1.877C56.677,138.858,54.762,137.106,54.762,134.54z"
			/>
		<path fill="#59595B" d="M66.285,138.707v-7.057h-2.527v-1.289h6.519v1.289h-2.527v7.057H66.285z"/>
		<path fill="#59595B" d="M72.141,135.416v-5.055h1.477v5.005c0,1.326,0.737,2.189,2.14,2.189c1.389,0,2.127-0.863,2.127-2.189
			v-5.005h1.477v5.042c0,2.077-1.189,3.454-3.604,3.454C73.329,138.858,72.141,137.469,72.141,135.416z"/>
		<path fill="#59595B" d="M86.528,138.707l-1.852-3.115h-1.451v3.115h-1.464v-8.346h3.666c1.651,0,2.728,1.076,2.728,2.615
			c0,1.489-0.977,2.29-1.977,2.452l2.039,3.278H86.528z M86.653,132.977c0-0.801-0.601-1.326-1.426-1.326h-2.002v2.652h2.002
			C86.053,134.303,86.653,133.778,86.653,132.977z"/>
		<path fill="#59595B" d="M90.245,138.707v-8.346h1.464v8.346H90.245z"/>
		<path fill="#59595B" d="M99.929,138.707l-4.354-5.956v5.956H94.11v-8.346h1.501l4.267,5.793v-5.793h1.464v8.346H99.929z"/>
		<path fill="#59595B" d="M103.368,134.54c0-2.614,1.965-4.316,4.38-4.316c1.626,0,2.689,0.775,3.365,1.739l-1.201,0.676
			c-0.438-0.626-1.226-1.113-2.164-1.113c-1.652,0-2.878,1.264-2.878,3.015c0,1.752,1.226,3.028,2.878,3.028
			c0.851,0,1.602-0.4,1.977-0.751v-1.301h-2.49v-1.289h3.954v3.128c-0.826,0.914-1.989,1.515-3.44,1.515
			C105.333,138.87,103.368,137.156,103.368,134.54z"/>
	</g>
	<ellipse opacity="0.3" fill="#232020" cx="57.683" cy="119.098" rx="54.257" ry="1.899"/>
	<g>
		<g>
			<g>
				<rect x="47.757" y="17.625" fill="#7C7B7C" width="3.408" height="46.747"/>
				<rect x="51.165" y="17.625" fill="#5D5D5D" width="3.408" height="46.747"/>
			</g>
			<g>
				<linearGradient id="SVGID_1_" gradientUnits="userSpaceOnUse" x1="47.7568" y1="47.1611" x2="51.1647" y2="47.1611">
					<stop  offset="0.0816" style="stop-color:#931A21"/>
					<stop  offset="0.2092" style="stop-color:#9F1E25"/>
					<stop  offset="0.7092" style="stop-color:#721817"/>
					<stop  offset="0.9133" style="stop-color:#640C0D"/>
				</linearGradient>
				<rect x="47.757" y="45.156" fill="url(#SVGID_1_)" width="3.408" height="4.009"/>
				<linearGradient id="SVGID_2_" gradientUnits="userSpaceOnUse" x1="51.1647" y1="47.1611" x2="54.5727" y2="47.1611">
					<stop  offset="0.0816" style="stop-color:#931A21"/>
					<stop  offset="0.2092" style="stop-color:#9F1E25"/>
					<stop  offset="0.7092" style="stop-color:#721817"/>
					<stop  offset="0.9133" style="stop-color:#640C0D"/>
				</linearGradient>
				<rect x="51.165" y="45.156" fill="url(#SVGID_2_)" width="3.408" height="4.009"/>
			</g>
			<g>
				<linearGradient id="SVGID_3_" gradientUnits="userSpaceOnUse" x1="47.7568" y1="38.9346" x2="51.1647" y2="38.9346">
					<stop  offset="0.0816" style="stop-color:#931A21"/>
					<stop  offset="0.2092" style="stop-color:#9F1E25"/>
					<stop  offset="0.7092" style="stop-color:#721817"/>
					<stop  offset="0.9133" style="stop-color:#640C0D"/>
				</linearGradient>
				<rect x="47.757" y="36.87" fill="url(#SVGID_3_)" width="3.408" height="4.128"/>
				<linearGradient id="SVGID_4_" gradientUnits="userSpaceOnUse" x1="51.1647" y1="38.9346" x2="54.5727" y2="38.9346">
					<stop  offset="0.0816" style="stop-color:#931A21"/>
					<stop  offset="0.2092" style="stop-color:#9F1E25"/>
					<stop  offset="0.7092" style="stop-color:#721817"/>
					<stop  offset="0.9133" style="stop-color:#640C0D"/>
				</linearGradient>
				<rect x="51.165" y="36.87" fill="url(#SVGID_4_)" width="3.408" height="4.128"/>
			</g>
			<g>
				<rect x="47.757" y="17.625" fill="#E2E1E1" width="3.408" height="4.009"/>
				<rect x="51.165" y="17.625" fill="#ABA9AA" width="3.408" height="4.009"/>
			</g>
		</g>
		<g>
			<g>
				<rect x="37.226" y="17.625" fill="#7C7B7C" width="3.408" height="46.747"/>
				<rect x="40.634" y="17.625" fill="#5D5D5D" width="3.408" height="46.747"/>
			</g>
			<g>
				<linearGradient id="SVGID_5_" gradientUnits="userSpaceOnUse" x1="37.2259" y1="47.1611" x2="40.6339" y2="47.1611">
					<stop  offset="0.0816" style="stop-color:#931A21"/>
					<stop  offset="0.2092" style="stop-color:#9F1E25"/>
					<stop  offset="0.7092" style="stop-color:#721817"/>
					<stop  offset="0.9133" style="stop-color:#640C0D"/>
				</linearGradient>
				<rect x="37.226" y="45.156" fill="url(#SVGID_5_)" width="3.408" height="4.009"/>
				<linearGradient id="SVGID_6_" gradientUnits="userSpaceOnUse" x1="40.6339" y1="47.1611" x2="44.0418" y2="47.1611">
					<stop  offset="0.0816" style="stop-color:#931A21"/>
					<stop  offset="0.2092" style="stop-color:#9F1E25"/>
					<stop  offset="0.7092" style="stop-color:#721817"/>
					<stop  offset="0.9133" style="stop-color:#640C0D"/>
				</linearGradient>
				<rect x="40.634" y="45.156" fill="url(#SVGID_6_)" width="3.408" height="4.009"/>
			</g>
			<g>
				<linearGradient id="SVGID_7_" gradientUnits="userSpaceOnUse" x1="37.2259" y1="38.9346" x2="40.6339" y2="38.9346">
					<stop  offset="0.0816" style="stop-color:#931A21"/>
					<stop  offset="0.2092" style="stop-color:#9F1E25"/>
					<stop  offset="0.7092" style="stop-color:#721817"/>
					<stop  offset="0.9133" style="stop-color:#640C0D"/>
				</linearGradient>
				<rect x="37.226" y="36.87" fill="url(#SVGID_7_)" width="3.408" height="4.128"/>
				<linearGradient id="SVGID_8_" gradientUnits="userSpaceOnUse" x1="40.6339" y1="38.9346" x2="44.0418" y2="38.9346">
					<stop  offset="0.0816" style="stop-color:#931A21"/>
					<stop  offset="0.2092" style="stop-color:#9F1E25"/>
					<stop  offset="0.7092" style="stop-color:#721817"/>
					<stop  offset="0.9133" style="stop-color:#640C0D"/>
				</linearGradient>
				<rect x="40.634" y="36.87" fill="url(#SVGID_8_)" width="3.408" height="4.128"/>
			</g>
			<g>
				<rect x="37.226" y="17.625" fill="#E2E1E1" width="3.408" height="4.009"/>
				<rect x="40.634" y="17.625" fill="#ABA9AA" width="3.408" height="4.009"/>
			</g>
		</g>
		<g>
			<circle fill="#AFAAAC" cx="76.915" cy="64.372" r="2.886"/>
			<circle fill="#AFAAAC" cx="65.074" cy="64.498" r="2.886"/>
			<circle fill="#AFAAAC" cx="37.118" cy="64.372" r="2.886"/>
			<circle fill="#AFAAAC" cx="25.225" cy="64.372" r="2.886"/>
		</g>
		<g>
			<path fill="#B5B3B3" d="M105.759,107.054c0,0-0.086-12.048-17.016-12.181v2.657c13.861-0.841,14.61,10.039,14.61,10.039v11.848
				l2.406-0.019V107.054z"/>
			<path fill="#888586" d="M88.743,97.53v2.689c0,0,10.628-2.605,12.365,6.917l0.08,12.298l2.165-0.016v-11.848
				C103.354,107.569,102.604,96.69,88.743,97.53z"/>
		</g>
		<g>
			<rect x="9.22" y="87.919" fill="#D8C6B7" width="83.469" height="31.514"/>
			<rect x="9.22" y="64.498" fill="#FDEDDF" width="83.469" height="23.421"/>
		</g>
		<rect x="9.22" y="83.235" fill="#EFEFF0" width="83.469" height="4.684"/>
		<rect x="9.22" y="92.261" fill="#3C3C3A" width="83.469" height="4.494"/>
		<rect x="78.418" y="92.261" fill="#EFEFEF" width="1.584" height="4.494"/>
		<rect x="64.403" y="92.261" fill="#EFEFEF" width="1.77" height="4.494"/>
		<rect x="36.126" y="92.261" fill="#EFEFEF" width="1.77" height="4.494"/>
		<g>
			<g>
				<rect x="76.272" y="107.054" fill="#858383" width="12.204" height="12.379"/>
				<rect x="76.272" y="108.903" fill="#5A595A" width="12.204" height="1.923"/>
				<rect x="76.272" y="112.282" fill="#5A595A" width="12.204" height="1.923"/>
				<rect x="76.272" y="115.855" fill="#5A595A" width="12.204" height="1.923"/>
			</g>
			<g>
				<path fill="none" d="M83.131,102.079c0-0.418-0.339-0.758-0.757-0.758v1.515C82.792,102.836,83.131,102.497,83.131,102.079z"/>
				<path fill="none" d="M81.617,102.079c0,0.418,0.339,0.757,0.757,0.757v-1.515C81.956,101.321,81.617,101.66,81.617,102.079z"/>
				<path fill="#808080" d="M81.617,102.079c0-0.418,0.339-0.758,0.757-0.758v-1.704c-0.795,0-1.439,1.102-1.439,2.461
					c0,1.359,0.645,2.461,1.439,2.461v-1.704C81.956,102.836,81.617,102.497,81.617,102.079z"/>
				<path fill="#575455" d="M82.374,99.617v1.704c0.418,0,0.757,0.339,0.757,0.758c0,0.418-0.339,0.757-0.757,0.757v1.704
					c0.795,0,1.439-1.102,1.439-2.461C83.814,100.719,83.169,99.617,82.374,99.617z"/>
			</g>
		</g>
		<g>
			<g>
				<rect x="61.194" y="107.019" fill="#858383" width="12.203" height="12.379"/>
				<rect x="61.194" y="108.868" fill="#5A595A" width="12.203" height="1.923"/>
				<rect x="61.194" y="112.247" fill="#5A595A" width="12.203" height="1.923"/>
				<rect x="61.194" y="115.82" fill="#5A595A" width="12.203" height="1.923"/>
			</g>
			<g>
				<path fill="none" d="M68.053,102.043c0-0.418-0.339-0.758-0.758-0.758v1.515C67.714,102.801,68.053,102.462,68.053,102.043z"/>
				<path fill="none" d="M66.538,102.043c0,0.418,0.339,0.757,0.758,0.757v-1.515C66.878,101.286,66.538,101.625,66.538,102.043z"/>
				<path fill="#808080" d="M66.538,102.043c0-0.418,0.339-0.758,0.758-0.758v-1.704c-0.795,0-1.439,1.102-1.439,2.462
					c0,1.359,0.644,2.461,1.439,2.461v-1.704C66.878,102.801,66.538,102.462,66.538,102.043z"/>
				<path fill="#575455" d="M67.296,99.582v1.704c0.418,0,0.758,0.339,0.758,0.758c0,0.418-0.339,0.757-0.758,0.757v1.704
					c0.795,0,1.439-1.102,1.439-2.461C68.735,100.684,68.091,99.582,67.296,99.582z"/>
			</g>
		</g>
		<rect x="12.207" y="108.868" fill="#878787" width="45.573" height="10.565"/>
		<polygon opacity="0.2" points="30.351,80.998 68.735,119.398 24.502,119.433 24.502,80.998 		"/>
		<polygon opacity="0.2" points="51.603,80.998 89.722,119.398 45.488,119.433 45.488,80.038 		"/>
		<g>
			<g>
				<linearGradient id="SVGID_9_" gradientUnits="userSpaceOnUse" x1="16.4836" y1="114.1506" x2="31.9865" y2="114.1506">
					<stop  offset="0.0816" style="stop-color:#931A21"/>
					<stop  offset="0.2092" style="stop-color:#9F1E25"/>
					<stop  offset="0.7092" style="stop-color:#721817"/>
					<stop  offset="0.9133" style="stop-color:#640C0D"/>
				</linearGradient>
				<path fill="url(#SVGID_9_)" d="M16.484,108.868v3.081c0,4.116,3.368,7.484,7.484,7.484h0.535c4.116,0,7.484-3.368,7.484-7.484
					v-3.081H16.484z"/>
				<linearGradient id="SVGID_10_" gradientUnits="userSpaceOnUse" x1="16.4836" y1="93.5175" x2="31.9865" y2="93.5175">
					<stop  offset="0.0816" style="stop-color:#931A21"/>
					<stop  offset="0.2092" style="stop-color:#9F1E25"/>
					<stop  offset="0.7092" style="stop-color:#721817"/>
					<stop  offset="0.9133" style="stop-color:#640C0D"/>
				</linearGradient>
				<path fill="url(#SVGID_10_)" d="M31.987,85.651c0-4.116-3.368-7.484-7.484-7.484h-0.535c-4.116,0-7.484,3.368-7.484,7.484
					v23.217h15.503V85.651z"/>
			</g>
			<linearGradient id="SVGID_11_" gradientUnits="userSpaceOnUse" x1="24.235" y1="96.6102" x2="31.9865" y2="96.6102">
				<stop  offset="0.0816" style="stop-color:#931A21"/>
				<stop  offset="0.2092" style="stop-color:#9F1E25"/>
				<stop  offset="0.7092" style="stop-color:#721817"/>
				<stop  offset="0.9133" style="stop-color:#640C0D"/>
			</linearGradient>
			<rect x="24.235" y="85.651" fill="url(#SVGID_11_)" width="7.751" height="21.918"/>
			<linearGradient id="SVGID_12_" gradientUnits="userSpaceOnUse" x1="24.235" y1="109.7591" x2="31.9865" y2="109.7591">
				<stop  offset="0.0816" style="stop-color:#931A21"/>
				<stop  offset="0.2092" style="stop-color:#9F1E25"/>
				<stop  offset="0.7092" style="stop-color:#721817"/>
				<stop  offset="0.9133" style="stop-color:#640C0D"/>
			</linearGradient>
			<rect x="24.235" y="107.569" fill="url(#SVGID_12_)" width="7.751" height="4.38"/>
		</g>
		<g>
			<g>
				<linearGradient id="SVGID_13_" gradientUnits="userSpaceOnUse" x1="37.7359" y1="114.1506" x2="53.2389" y2="114.1506">
					<stop  offset="0.0816" style="stop-color:#931A21"/>
					<stop  offset="0.2092" style="stop-color:#9F1E25"/>
					<stop  offset="0.7092" style="stop-color:#721817"/>
					<stop  offset="0.9133" style="stop-color:#640C0D"/>
				</linearGradient>
				<path fill="url(#SVGID_13_)" d="M37.736,108.868v3.081c0,4.116,3.368,7.484,7.484,7.484h0.535c4.116,0,7.484-3.368,7.484-7.484
					v-3.081H37.736z"/>
				<linearGradient id="SVGID_14_" gradientUnits="userSpaceOnUse" x1="37.7359" y1="93.5175" x2="53.2389" y2="93.5175">
					<stop  offset="0.0816" style="stop-color:#931A21"/>
					<stop  offset="0.2092" style="stop-color:#9F1E25"/>
					<stop  offset="0.7092" style="stop-color:#721817"/>
					<stop  offset="0.9133" style="stop-color:#640C0D"/>
				</linearGradient>
				<path fill="url(#SVGID_14_)" d="M53.239,85.651c0-4.116-3.368-7.484-7.484-7.484H45.22c-4.116,0-7.484,3.368-7.484,7.484v23.217
					h15.503V85.651z"/>
			</g>
			<linearGradient id="SVGID_15_" gradientUnits="userSpaceOnUse" x1="45.4874" y1="96.6102" x2="53.2389" y2="96.6102">
				<stop  offset="0.0816" style="stop-color:#931A21"/>
				<stop  offset="0.2092" style="stop-color:#9F1E25"/>
				<stop  offset="0.7092" style="stop-color:#721817"/>
				<stop  offset="0.9133" style="stop-color:#640C0D"/>
			</linearGradient>
			<rect x="45.487" y="85.651" fill="url(#SVGID_15_)" width="7.751" height="21.918"/>
			<linearGradient id="SVGID_16_" gradientUnits="userSpaceOnUse" x1="45.4874" y1="109.7591" x2="53.2389" y2="109.7591">
				<stop  offset="0.0816" style="stop-color:#931A21"/>
				<stop  offset="0.2092" style="stop-color:#9F1E25"/>
				<stop  offset="0.7092" style="stop-color:#721817"/>
				<stop  offset="0.9133" style="stop-color:#640C0D"/>
			</linearGradient>
			<rect x="45.487" y="107.569" fill="url(#SVGID_16_)" width="7.751" height="4.38"/>
		</g>
		<rect x="12.207" y="107.019" fill="#FFFFFF" width="45.573" height="2.74"/>
	</g>
	<g>
		<path fill="#59595B" d="M512.162,137.532l0.813-1.126c0.575,0.612,1.476,1.15,2.64,1.15c1.201,0,1.677-0.588,1.677-1.139
			c0-1.751-4.867-0.663-4.867-3.741c0-1.376,1.214-2.439,3.04-2.439c1.302,0,2.353,0.413,3.128,1.163l-0.838,1.089
			c-0.65-0.65-1.539-0.951-2.415-0.951c-0.863,0-1.414,0.413-1.414,1.039c0,1.552,4.855,0.588,4.855,3.703
			c0,1.39-0.977,2.578-3.229,2.578C514.014,138.858,512.9,138.32,512.162,137.532z"/>
		<path fill="#59595B" d="M520.758,135.416v-5.055h1.477v5.005c0,1.326,0.737,2.189,2.14,2.189c1.389,0,2.127-0.863,2.127-2.189
			v-5.005h1.477v5.042c0,2.077-1.189,3.454-3.604,3.454C521.946,138.858,520.758,137.469,520.758,135.416z"/>
		<path fill="#59595B" d="M530.379,138.707v-8.346h3.666c1.751,0,2.728,1.201,2.728,2.615s-0.988,2.615-2.728,2.615h-2.202v3.115
			H530.379z M535.271,132.977c0-0.801-0.601-1.326-1.426-1.326h-2.002v2.652h2.002C534.67,134.303,535.271,133.778,535.271,132.977z
			"/>
		<path fill="#59595B" d="M538.611,138.707v-8.346h3.666c1.751,0,2.728,1.201,2.728,2.615s-0.988,2.615-2.728,2.615h-2.202v3.115
			H538.611z M543.503,132.977c0-0.801-0.601-1.326-1.426-1.326h-2.002v2.652h2.002C542.902,134.303,543.503,133.778,543.503,132.977
			z"/>
		<path fill="#59595B" d="M546.843,138.707v-8.346h1.464v7.057h3.679v1.289H546.843z"/>
		<path fill="#59595B" d="M553.938,138.707v-8.346h1.464v8.346H553.938z"/>
		<path fill="#59595B" d="M557.804,138.707v-8.346h5.718v1.289h-4.254v2.164h4.166v1.289h-4.166v2.314h4.254v1.289H557.804z"/>
		<path fill="#59595B" d="M570.414,138.707l-1.852-3.115h-1.451v3.115h-1.464v-8.346h3.666c1.651,0,2.728,1.076,2.728,2.615
			c0,1.489-0.976,2.29-1.978,2.452l2.04,3.278H570.414z M570.539,132.977c0-0.801-0.601-1.326-1.426-1.326h-2.002v2.652h2.002
			C569.938,134.303,570.539,133.778,570.539,132.977z"/>
	</g>
	<linearGradient id="SVGID_17_" gradientUnits="userSpaceOnUse" x1="46.3709" y1="165.0766" x2="551.2484" y2="165.0766">
		<stop  offset="0.0816" style="stop-color:#931A21"/>
		<stop  offset="0.2092" style="stop-color:#9F1E25"/>
		<stop  offset="0.7092" style="stop-color:#721817"/>
		<stop  offset="0.9133" style="stop-color:#640C0D"/>
	</linearGradient>
	<path fill="url(#SVGID_17_)" d="M544.608,150.713c-2.22,2.663-4.415,5.296-6.655,7.983h3.314c0.006,0.094,0.015,0.165,0.015,0.236
		h-0.137v0.002l-0.002,8.102c-0.005,2.052-0.514,3.596-1.519,4.584c-0.747,0.734-0.895,1.028-0.844,1.14l-83.682-0.003v-0.001
		L58.84,172.76c0.051-0.113-0.097-0.406-0.844-1.14c-1.004-0.987-1.513-2.531-1.519-4.583l-0.002-8.103v-0.002h-0.137
		c0-0.071,0.009-0.142,0.015-0.236h3.314c-2.24-2.687-4.435-5.319-6.655-7.983c-2.212,2.652-4.405,5.283-6.64,7.963
		c0.137,0.007,0.218,0.015,0.299,0.015c0.844,0.001,1.687-0.002,2.531,0.002c0.581,0.002,0.49-0.06,0.491,0.486
		c0.001,2.741,0.107,3.558,0.239,3.881v3.946c0,3.979,1.206,7.162,3.583,9.457c3.52,3.4,4.21,2.981,5.113,2.94h375.915h18.717v0.021
		c0.908,0,1.608,0,2.166,0l-0.001-0.021h83.568c0.904,0.041,1.594,0.46,5.113-2.94c2.377-2.295,3.583-5.478,3.583-9.457v-3.946
		c0.133-0.323,0.238-1.141,0.239-3.881c0-0.546-0.091-0.484,0.49-0.486c0.844-0.004,1.687,0,2.531-0.002
		c0.081,0,0.162-0.008,0.299-0.015C549.013,155.996,546.82,153.366,544.608,150.713z"/>
	<linearGradient id="SVGID_18_" gradientUnits="userSpaceOnUse" x1="122.7948" y1="83.2346" x2="182.3005" y2="83.2346">
		<stop  offset="0.0816" style="stop-color:#931A21"/>
		<stop  offset="0.2092" style="stop-color:#9F1E25"/>
		<stop  offset="0.7092" style="stop-color:#721817"/>
		<stop  offset="0.9133" style="stop-color:#640C0D"/>
	</linearGradient>
	<path fill="url(#SVGID_18_)" d="M174.318,76.483c0,1.163,0,3.279,0,4.375l-43.505-0.903c-0.051-0.052-0.037-0.175-0.038-0.467
		c-0.003-0.857,0-1.844-0.001-2.701c0-0.082-0.008-0.164-0.015-0.303c-2.68,2.27-5.311,4.498-7.963,6.744
		c2.663,2.255,5.296,4.484,7.983,6.759c0-1.163,0-3.146,0-4.241h43.505c0.051,0.052,0.037,0.175,0.038,0.467
		c0.003,0.857,0,2.614,0.001,3.471c0,0.082,0.008,0.164,0.015,0.303c2.68-2.27,5.311-4.498,7.963-6.744
		C179.637,80.987,177.005,78.758,174.318,76.483z"/>
	<linearGradient id="SVGID_19_" gradientUnits="userSpaceOnUse" x1="414.5877" y1="83.2346" x2="474.0934" y2="83.2346">
		<stop  offset="0.0816" style="stop-color:#931A21"/>
		<stop  offset="0.2092" style="stop-color:#9F1E25"/>
		<stop  offset="0.7092" style="stop-color:#721817"/>
		<stop  offset="0.9133" style="stop-color:#640C0D"/>
	</linearGradient>
	<path fill="url(#SVGID_19_)" d="M466.111,76.483c0,1.163,0,3.279,0,4.375l-43.505-0.903c-0.051-0.052-0.037-0.175-0.038-0.467
		c-0.003-0.857,0-1.844-0.001-2.701c0-0.082-0.008-0.164-0.015-0.303c-2.68,2.27-5.311,4.498-7.963,6.744
		c2.663,2.255,5.296,4.484,7.983,6.759c0-1.163,0-3.146,0-4.241h43.505c0.051,0.052,0.037,0.175,0.038,0.467
		c0.003,0.857,0,2.614,0.001,3.471c0,0.082,0.008,0.164,0.015,0.303c2.68-2.27,5.311-4.498,7.963-6.744
		C471.43,80.987,468.798,78.758,466.111,76.483z"/>
	<g>
		<path fill="#E5E4E4" d="M362.957,34.704c-9.431,0-17.103-7.672-17.103-17.102S353.526,0.5,362.957,0.5
			c9.43,0,17.102,7.672,17.102,17.103S372.387,34.704,362.957,34.704z"/>
		<path fill="#59595B" d="M362.957,1c9.169,0,16.602,7.433,16.602,16.602c0,9.169-7.433,16.602-16.602,16.602
			c-9.169,0-16.602-7.433-16.602-16.602C346.354,8.433,353.788,1,362.957,1 M362.957,0c-9.706,0-17.602,7.896-17.602,17.602
			c0,9.706,7.896,17.602,17.602,17.602c9.706,0,17.602-7.896,17.602-17.602C380.559,7.896,372.663,0,362.957,0L362.957,0z"/>
	</g>
	<g>
		<g>
			<path fill="#731112" d="M366.455,10.964c1.427-0.802,2.766-1.687,3.989-2.759c1.455,1.167,2.661,2.54,3.611,4.144
				c-1.5,1.171-3.09,2.188-4.753,3.119C368.503,13.866,367.561,12.377,366.455,10.964z"/>
			<path fill="#731112" d="M351.915,21.857c1.981-0.256,3.898-0.678,5.805-1.209c0.844,1.554,1.846,2.995,3.022,4.367
				c-0.414,0.11-0.781,0.223-1.156,0.303c-1.133,0.244-2.268,0.476-3.403,0.709c-0.179,0.037-0.362,0.061-0.544,0.084
				c-0.17,0.021-0.302-0.004-0.453-0.139c-1.153-1.027-2.135-2.195-2.939-3.512C352.132,22.272,352.033,22.072,351.915,21.857z"/>
			<path fill="#731112" d="M363.486,18.172c-0.114-0.347-0.238-0.703-0.347-1.065c-0.09-0.301-0.169-0.606-0.237-0.913
				c-0.026-0.118-0.08-0.156-0.188-0.146c-0.097,0.009-0.169-0.005-0.217-0.115c-0.376-0.845-0.759-1.688-1.134-2.517
				c1.579-0.734,3.154-1.465,4.745-2.204c1.074,1.364,2.022,2.854,2.825,4.476c-0.867,0.438-1.723,0.872-2.62,1.325
				c0-0.342,0-0.639,0-0.964c-0.182,0-0.337,0-0.493,0c-0.436,0-0.872,0.003-1.307-0.001c-0.119-0.001-0.17,0.037-0.2,0.159
				c-0.139,0.559-0.297,1.113-0.434,1.673C363.831,18.063,363.746,18.17,363.486,18.172z"/>
			<path fill="#731112" d="M355.313,9.765c0,0.215-0.002,0.425,0,0.634c0.005,0.573,0,1.147,0.022,1.719
				c0.014,0.38,0.059,0.76,0.105,1.138c0.053,0.442,0.116,0.884,0.187,1.323c0.028,0.17,0.034,0.263-0.187,0.302
				c-0.942,0.165-1.876,0.369-2.818,0.529c-0.626,0.106-1.261,0.164-1.893,0.239c-0.109,0.013-0.221,0.002-0.37,0.002
				c0.018-0.374,0.005-0.731,0.059-1.077c0.109-0.691,0.231-1.382,0.391-2.063c0.192-0.819,0.501-1.601,0.863-2.361
				c0.06-0.126,0.121-0.169,0.265-0.165c1.094,0.029,2.183-0.031,3.263-0.225C355.231,9.754,355.264,9.762,355.313,9.765z"/>
			<path fill="#731112" d="M365.416,23.395c-0.625,0.24-1.219,0.483-1.823,0.696c-0.729,0.257-1.468,0.486-2.201,0.733
				c-0.133,0.045-0.228,0.04-0.325-0.077c-0.75-0.899-1.466-1.822-2.09-2.813c-0.252-0.4-0.486-0.811-0.727-1.218
				c-0.033-0.055-0.059-0.114-0.096-0.186c0.126-0.041,0.235-0.096,0.348-0.105c0.06-0.005,0.152,0.057,0.184,0.114
				c0.063,0.111,0.133,0.156,0.264,0.154c0.488-0.008,0.976-0.003,1.497-0.003c-0.134-0.259-0.256-0.494-0.39-0.754
				c0.283-0.097,0.553-0.188,0.849-0.289c0,0.357,0,0.685,0,1.028c0.411,0,0.803,0,1.226,0c0-0.185,0-0.368,0-0.55
				c0-0.238,0.008-0.476-0.003-0.713c-0.007-0.152,0.027-0.249,0.193-0.28c0.088-0.016,0.171-0.064,0.283-0.108
				c0.083,0.308,0.165,0.608,0.245,0.908c0.054,0.203,0.107,0.406,0.154,0.61c0.025,0.107,0.078,0.151,0.191,0.149
				c0.33-0.006,0.659-0.002,0.994-0.002C364.597,21.586,365.002,22.48,365.416,23.395z"/>
			<path fill="#731112" d="M366.184,10.625c-1.126-1.38-2.369-2.609-3.744-3.736c0.261-0.189,0.524-0.359,0.764-0.556
				c0.452-0.371,0.888-0.761,1.337-1.135c0.058-0.049,0.169-0.092,0.231-0.071c1.904,0.662,3.687,1.558,5.294,2.785
				c0.005,0.004,0.008,0.01,0.023,0.03C368.898,8.986,367.581,9.844,366.184,10.625z"/>
			<path fill="#731112" d="M361.166,12.99c-0.674-1.485-1.332-2.937-1.991-4.391c0.491-0.232,0.98-0.452,1.458-0.694
				c0.433-0.22,0.857-0.459,1.278-0.701c0.102-0.058,0.157-0.066,0.254,0.013c1.027,0.838,1.988,1.747,2.877,2.73
				c0.255,0.282,0.496,0.576,0.761,0.885C364.291,11.646,362.746,12.338,361.166,12.99z"/>
			<path fill="#731112" d="M356.083,14.71c-0.055-0.317-0.119-0.624-0.158-0.933c-0.146-1.143-0.226-2.29-0.202-3.443
				c0.004-0.197,0.023-0.394,0.046-0.59c0.004-0.038,0.053-0.095,0.089-0.103c0.989-0.204,1.948-0.509,2.913-0.886
				c0.122,0.264,0.243,0.523,0.361,0.783c0.519,1.141,1.035,2.283,1.559,3.422c0.067,0.146,0.058,0.211-0.103,0.274
				c-1.424,0.553-2.867,1.047-4.343,1.442C356.201,14.688,356.156,14.695,356.083,14.71z"/>
			<path fill="#731112" d="M370.819,21.388c0.036,0.236,0.092,0.485,0.11,0.738c0.05,0.689,0.114,1.379,0.115,2.069
				c0.002,0.617-0.068,1.235-0.119,1.851c-0.007,0.082-0.072,0.197-0.142,0.23c-0.952,0.444-1.909,0.877-2.866,1.312
				c-0.028,0.013-0.059,0.021-0.111,0.04c-0.606-1.337-1.209-2.666-1.806-3.982C367.609,22.892,369.207,22.144,370.819,21.388z"/>
			<path fill="#731112" d="M355.859,26.514c0.308-0.055,0.578-0.097,0.846-0.152c0.878-0.178,1.757-0.35,2.632-0.544
				c0.51-0.113,1.014-0.258,1.517-0.401c0.153-0.043,0.249-0.004,0.356,0.105c0.666,0.676,1.328,1.356,2.014,2.011
				c0.404,0.385,0.849,0.726,1.276,1.086c0.035,0.03,0.077,0.052,0.115,0.078c-0.006,0.018-0.012,0.036-0.018,0.053
				c-0.356,0.098-0.71,0.209-1.069,0.293c-0.701,0.162-1.406,0.308-2.109,0.461c-0.162,0.035-0.313,0.037-0.475-0.03
				c-1.755-0.729-3.404-1.643-4.915-2.8C355.979,26.635,355.935,26.585,355.859,26.514z"/>
			<path fill="#731112" d="M367.817,31.844c-1.783,0.634-3.62,0.881-5.494,0.802c-2.631-0.111-5.096-0.818-7.362-2.207
				c0.602,0,1.205,0.024,1.805-0.006c0.84-0.041,1.678-0.108,2.515-0.19c0.566-0.055,1.128-0.159,1.693-0.232
				c0.086-0.011,0.185,0.008,0.268,0.041c1.809,0.716,3.68,1.218,5.581,1.612C367.153,31.732,367.486,31.784,367.817,31.844z"/>
			<path fill="#731112" d="M350.829,26.928c0.719-0.032,1.411-0.053,2.101-0.098c0.498-0.032,0.994-0.093,1.49-0.145
				c0.241-0.025,0.481-0.064,0.722-0.083c0.063-0.005,0.143,0.025,0.193,0.066c0.9,0.732,1.849,1.391,2.868,1.944
				c0.674,0.366,1.362,0.705,2.069,1.069c-0.133,0.026-0.257,0.06-0.384,0.073c-0.555,0.058-1.109,0.132-1.666,0.161
				c-1.085,0.056-2.172,0.089-3.259,0.121c-0.249,0.007-0.509,0.01-0.747-0.051c-0.18-0.046-0.34-0.189-0.498-0.304
				c-1.014-0.742-1.934-1.586-2.746-2.546C350.925,27.077,350.885,27.009,350.829,26.928z"/>
			<path fill="#731112" d="M369.507,15.847c1.656-0.932,3.25-1.944,4.765-3.122c0.598,1.081,1.025,2.212,1.301,3.445
				c-0.092-0.025-0.162-0.045-0.233-0.064c-0.682-0.18-1.366-0.18-2.039,0.03c-0.596,0.186-0.952,0.68-0.938,1.267
				c0.011,0.478,0.281,0.806,0.684,1.007c0.296,0.148,0.624,0.23,0.938,0.342c0.035,0.013,0.072,0.022,0.156,0.048
				c-0.18,0.123-0.316,0.264-0.479,0.314c-0.151,0.046-0.332-0.014-0.499-0.01c-0.321,0.01-0.642,0.032-1.006,0.052
				c0.075,0.268,0.145,0.517,0.224,0.796c-0.164,0.1-0.352,0.214-0.561,0.341c-0.17-0.438-0.33-0.852-0.491-1.267
				c-0.364-0.936-0.732-1.87-1.087-2.809c-0.052-0.138-0.12-0.185-0.256-0.17c-0.078,0.009-0.159-0.006-0.237,0.003
				C369.609,16.067,369.541,16.002,369.507,15.847z"/>
			<path fill="#731112" d="M348.196,22.079c0.174,0,0.332,0.008,0.489-0.001c0.86-0.049,1.72-0.102,2.579-0.154
				c0.115-0.007,0.204-0.004,0.272,0.126c0.791,1.505,1.834,2.817,3.075,3.975c0.043,0.04,0.084,0.084,0.124,0.127
				c0.013,0.014,0.022,0.032,0.044,0.065c-0.26,0.033-0.508,0.081-0.757,0.095c-1.103,0.059-2.208,0.106-3.311,0.165
				c-0.183,0.01-0.298-0.049-0.407-0.201c-0.907-1.263-1.613-2.628-2.096-4.107C348.201,22.15,348.202,22.131,348.196,22.079z"/>
			<path fill="#731112" d="M375.756,20.507c-0.126,1.052-0.376,2.067-0.738,3.055c-0.026,0.07-0.071,0.144-0.129,0.188
				c-1.083,0.815-2.231,1.528-3.422,2.174c-0.021,0.011-0.044,0.019-0.091,0.038c0.016-0.262,0.042-0.502,0.043-0.742
				c0.005-0.764,0.025-1.529-0.008-2.292c-0.025-0.569-0.125-1.134-0.183-1.701c-0.005-0.048,0.042-0.124,0.086-0.151
				c0.423-0.254,0.849-0.501,1.278-0.744c0.038-0.021,0.121-0.015,0.151,0.012c0.261,0.238,0.588,0.327,0.917,0.376
				c0.516,0.077,1.037,0.091,1.55-0.035C375.392,20.641,375.567,20.569,375.756,20.507z"/>
			<path fill="#731112" d="M372.258,5.58c-0.274,0.345-0.529,0.687-0.807,1.01c-0.258,0.299-0.546,0.572-0.812,0.865
				c-0.135,0.149-0.233,0.18-0.42,0.04c-1.491-1.119-3.126-1.974-4.873-2.62c-0.12-0.044-0.239-0.09-0.314-0.119
				c0.373-0.595,0.741-1.189,1.121-1.776c0.032-0.049,0.147-0.082,0.212-0.068c0.988,0.218,1.949,0.525,2.879,0.927
				c1.017,0.44,1.973,0.986,2.875,1.629C372.155,5.494,372.189,5.525,372.258,5.58z"/>
			<path fill="#731112" d="M372.631,5.854c1.546,1.196,2.815,2.663,3.835,4.404c-0.679,0.608-1.357,1.216-2.056,1.843
				c-0.976-1.62-2.182-3.005-3.605-4.157C371.419,7.241,372.019,6.554,372.631,5.854z"/>
			<path fill="#731112" d="M365.807,23.21c-0.471-1.032-0.937-2.046-1.392-3.064c-0.041-0.093-0.047-0.22-0.022-0.32
				c0.125-0.509,0.273-1.012,0.394-1.522c0.037-0.153,0.11-0.227,0.275-0.26c0,0.874,0,1.741,0,2.627c0.419,0,0.816,0,1.241,0
				c0-0.08,0-0.156,0-0.233c0-0.905,0.004-1.81-0.003-2.714c-0.002-0.179,0.042-0.278,0.218-0.359
				c0.572-0.262,1.131-0.549,1.696-0.826c0.04-0.02,0.084-0.034,0.182-0.072c-0.554,1.425-1.091,2.807-1.642,4.223
				c0.413,0,0.793,0,1.173,0c0.345,0,0.345,0,0.444-0.333c0.125-0.419,0.125-0.419,0.562-0.419c0.37,0,0.74,0.003,1.11-0.002
				c0.101-0.001,0.157,0.026,0.182,0.131c0.032,0.133,0.082,0.262,0.119,0.395c0.039,0.139,0.079,0.266,0.272,0.235
				c0.03-0.005,0.104,0.07,0.103,0.107c-0.001,0.05-0.042,0.122-0.086,0.146c-0.447,0.238-0.891,0.484-1.351,0.697
				c-1.12,0.52-2.247,1.024-3.371,1.534C365.88,23.194,365.847,23.199,365.807,23.21z"/>
			<path fill="#731112" d="M365.605,23.81c0.598,1.317,1.201,2.648,1.817,4.004c-0.73,0.25-1.44,0.5-2.156,0.732
				c-0.077,0.025-0.206-0.026-0.278-0.083c-1.145-0.903-2.212-1.892-3.223-2.942c-0.081-0.084-0.15-0.179-0.217-0.26
				C362.898,24.777,364.235,24.299,365.605,23.81z"/>
			<path fill="#731112" d="M350.043,20.691c0.253,0,0.476,0.004,0.7-0.002c0.103-0.002,0.166,0.023,0.207,0.129
				c0.087,0.225,0.191,0.443,0.296,0.681c-0.317,0.034-0.613,0.083-0.912,0.093c-0.712,0.025-1.425,0.028-2.137,0.047
				c-0.128,0.004-0.178-0.051-0.199-0.161c-0.134-0.701-0.308-1.397-0.39-2.103c-0.088-0.756-0.101-1.522-0.124-2.285
				c-0.009-0.312,0.044-0.626,0.068-0.937c0.799,0,1.574,0,2.363,0c0.017,0.163,0.044,0.331,0.052,0.5
				c0.042,0.909,0.211,1.796,0.462,2.668c0.044,0.153,0.042,0.286-0.02,0.433C350.285,20.05,350.175,20.351,350.043,20.691z"/>
			<path fill="#731112" d="M350.743,18.857c-0.227-0.925-0.366-1.817-0.374-2.756c1.816-0.132,3.597-0.417,5.374-0.855
				c0.06,0.247,0.116,0.474,0.167,0.702c0.006,0.026-0.013,0.084-0.024,0.085c-0.196,0.019-0.127,0.169-0.127,0.27
				c-0.004,1.367-0.002,2.734-0.002,4.101c0,0.098,0,0.197,0,0.319c-0.637,0.134-1.268,0.278-1.903,0.396
				c-0.638,0.118-1.28,0.208-1.921,0.313c-0.15,0.025-0.262,0.006-0.323-0.162c-0.068-0.19-0.16-0.371-0.212-0.49
				c0.092-0.113,0.152-0.187,0.212-0.261c0.008-0.01,0.014-0.023,0.018-0.035c0.063-0.178,0.076-0.426,0.202-0.514
				c0.13-0.091,0.368-0.029,0.56-0.03c0.304-0.002,0.608,0.005,0.911-0.003c0.124-0.003,0.19,0.028,0.224,0.157
				c0.051,0.196,0.072,0.465,0.206,0.557c0.146,0.1,0.406,0.038,0.617,0.04c0.29,0.003,0.58,0.001,0.905,0.001
				c-0.053-0.15-0.095-0.277-0.143-0.402c-0.526-1.358-1.054-2.716-1.576-4.076c-0.047-0.123-0.107-0.171-0.244-0.168
				c-0.429,0.01-0.858,0.007-1.288,0.001c-0.117-0.002-0.172,0.041-0.214,0.151c-0.316,0.829-0.639,1.654-0.96,2.481
				C350.808,18.726,350.784,18.771,350.743,18.857z"/>
			<path fill="#731112" d="M356.37,16.049c-0.07-0.312-0.135-0.598-0.204-0.904c0.32-0.091,0.631-0.166,0.933-0.269
				c1.211-0.411,2.421-0.825,3.626-1.252c0.172-0.061,0.246-0.051,0.322,0.121c0.314,0.715,0.642,1.423,0.964,2.135
				c0.021,0.046,0.031,0.097,0.053,0.165c-0.386,0-0.753,0-1.155,0c0,0.091,0,0.167,0,0.242c0,0.904-0.004,1.809,0.002,2.713
				c0.001,0.14-0.036,0.215-0.176,0.256c-0.252,0.073-0.501,0.158-0.747,0.248c-0.098,0.036-0.153,0.026-0.209-0.069
				c-0.192-0.333-0.404-0.65-0.845-0.778c0.398-0.108,0.712-0.259,0.921-0.58c0.477-0.73,0.147-1.858-0.848-1.949
				c-0.53-0.048-1.063-0.06-1.595-0.077C357.072,16.04,356.729,16.049,356.37,16.049z"/>
			<path fill="#731112" d="M374.628,12.473c0.681-0.605,1.359-1.208,2.061-1.832c0.16,0.336,0.327,0.67,0.479,1.009
				c0.449,1.003,0.78,2.045,0.979,3.127c0.012,0.063,0.008,0.15-0.026,0.198c-0.53,0.741-1.134,1.418-1.797,2.037
				c-0.285-0.388-0.306-0.856-0.417-1.295c-0.281-1.112-0.69-2.172-1.249-3.174C374.646,12.522,374.638,12.497,374.628,12.473z"/>
			<path fill="#731112" d="M351.287,9.959c-0.853,1.818-1.325,3.712-1.361,5.74c-0.78,0-1.547,0-2.364,0
				c0.161-0.716,0.295-1.437,0.487-2.142c0.354-1.3,0.909-2.517,1.61-3.668c0.058-0.096,0.11-0.149,0.23-0.133
				c0.403,0.056,0.807,0.104,1.21,0.157C351.156,9.921,351.212,9.941,351.287,9.959z"/>
			<path fill="#731112" d="M378.281,15.52c0.038,0.319,0.082,0.59,0.1,0.863c0.059,0.888,0.085,1.777-0.037,2.662
				c-0.072,0.525-0.127,1.055-0.25,1.568c-0.052,0.216-0.238,0.417-0.404,0.585c-0.572,0.582-1.162,1.147-1.747,1.715
				c-0.089,0.086-0.193,0.156-0.326,0.261c0.09-0.335,0.188-0.628,0.245-0.928c0.127-0.668,0.231-1.341,0.352-2.01
				c0.02-0.113,0.067-0.225,0.12-0.328c0.243-0.472,0.239-0.925,0.013-1.417c-0.108-0.234-0.069-0.537-0.089-0.809
				c-0.002-0.029,0.038-0.068,0.066-0.093c0.677-0.599,1.296-1.253,1.849-1.969C378.193,15.595,378.22,15.577,378.281,15.52z"/>
			<path fill="#731112" d="M356.225,4.312c-0.455,1.632-0.756,3.288-0.876,4.987c-1.102,0.215-2.212,0.287-3.368,0.241
				C353.054,7.506,354.507,5.807,356.225,4.312z"/>
			<path fill="#731112" d="M377.854,21.7c-1.189,3.834-3.498,6.716-6.892,8.743c0.203-0.206,0.408-0.409,0.608-0.618
				c1.595-1.671,2.857-3.558,3.71-5.713c0.056-0.14,0.19-0.263,0.314-0.361c0.77-0.611,1.491-1.274,2.17-1.984
				C377.776,21.753,377.794,21.743,377.854,21.7z"/>
			<path fill="#731112" d="M357.944,3.349c2.587-0.833,5.168-1.024,7.858-0.549c-0.28,0.423-0.539,0.824-0.81,1.217
				c-0.111,0.162-0.238,0.316-0.379,0.452c-0.056,0.054-0.182,0.086-0.255,0.062c-1.131-0.365-2.285-0.637-3.455-0.833
				c-0.665-0.112-1.34-0.171-2.01-0.251C358.595,3.411,358.296,3.385,357.944,3.349z"/>
			<path fill="#731112" d="M359.006,8.227c-0.677-1.492-1.333-2.938-1.989-4.385c0.014-0.012,0.027-0.025,0.041-0.037
				c1.619,0.889,3.166,1.888,4.666,3.059C360.806,7.325,359.913,7.772,359.006,8.227z"/>
			<path fill="#731112" d="M355.789,9.214c0.12-1.715,0.438-3.34,0.933-4.986c0.634,1.398,1.248,2.75,1.873,4.128
				C357.687,8.728,356.773,9.006,355.789,9.214z"/>
			<path fill="#731112" d="M370.342,30.364c0.12-0.379,0.261-0.753,0.355-1.139c0.2-0.827,0.378-1.659,0.557-2.49
				c0.035-0.161,0.098-0.261,0.251-0.352c0.998-0.592,1.984-1.203,2.974-1.807c0.048-0.029,0.095-0.058,0.19-0.116
				C373.644,26.777,372.2,28.719,370.342,30.364z"/>
			<path fill="#731112" d="M364.192,4.984c-0.503,0.401-1.004,0.803-1.509,1.201c-0.123,0.097-0.266,0.172-0.385,0.273
				c-0.149,0.127-0.263,0.118-0.418-0.006c-1.2-0.956-2.484-1.789-3.805-2.566c-0.021-0.012-0.038-0.03-0.051-0.067
				c2.094,0.108,4.141,0.471,6.14,1.1C364.173,4.941,364.182,4.963,364.192,4.984z"/>
			<path fill="#731112" d="M369.45,31.245c-0.484-1.065-0.967-2.131-1.452-3.198c0.948-0.429,1.872-0.847,2.826-1.279
				c-0.254,1.56-0.69,3.046-1.303,4.482C369.498,31.247,369.474,31.246,369.45,31.245z"/>
			<path fill="#731112" d="M368.634,31.499c-3.146-0.428-5.56-1.21-6.688-1.648c0.139-0.035,0.238-0.06,0.338-0.084
				c0.108-0.026,0.218-0.046,0.325-0.074c0.768-0.196,1.535-0.395,2.304-0.585c0.078-0.019,0.189-0.009,0.252,0.034
				c1.134,0.772,2.263,1.552,3.393,2.329C368.58,31.485,368.609,31.49,368.634,31.499z"/>
			<path fill="#731112" d="M355.3,4.567c-0.326,0.325-0.662,0.642-0.977,0.977c-0.885,0.942-1.661,1.968-2.322,3.08
				c-0.15,0.253-0.283,0.517-0.435,0.769c-0.033,0.054-0.117,0.116-0.173,0.112c-0.45-0.035-0.899-0.085-1.396-0.135
				c1.399-2.058,3.155-3.647,5.274-4.841C355.28,4.541,355.29,4.554,355.3,4.567z"/>
			<path fill="#731112" d="M368.888,31.207c-1.105-0.75-2.209-1.501-3.352-2.277c0.725-0.258,1.387-0.494,2.061-0.733
				c0.448,0.989,0.895,1.976,1.343,2.964C368.922,31.176,368.905,31.191,368.888,31.207z"/>
			<path fill="#731112" d="M357.238,17.983c0-0.361,0-0.656,0-0.994c0.351,0.019,0.691,0.019,1.026,0.064
				c0.23,0.031,0.314,0.187,0.305,0.435c-0.008,0.215-0.106,0.349-0.322,0.381C357.919,17.918,357.588,17.945,357.238,17.983z"/>
			<path fill="#731112" d="M375.76,17.403c-0.028,0.231-0.323,0.446-0.513,0.397c-0.424-0.11-0.849-0.213-1.272-0.327
				c-0.135-0.036-0.228-0.12-0.225-0.283c0.003-0.157,0.092-0.238,0.22-0.293c0.048-0.02,0.098-0.041,0.149-0.046
				c0.346-0.033,0.726,0.07,0.827,0.467c0.014,0.053,0.121,0.115,0.186,0.116C375.34,17.438,375.548,17.416,375.76,17.403z"/>
			<path fill="#731112" d="M368.828,18.91c0.168-0.532,0.331-1.046,0.494-1.561c0.014-0.001,0.028-0.002,0.042-0.004
				c0.163,0.515,0.326,1.031,0.496,1.565C369.515,18.91,369.184,18.91,368.828,18.91z"/>
			<path fill="#731112" d="M352.659,17.352c0.161,0.51,0.321,1.02,0.49,1.554c-0.341,0-0.665,0-1.024,0
				c0.164-0.524,0.324-1.036,0.485-1.548C352.625,17.356,352.642,17.354,352.659,17.352z"/>
			<path fill="#731112" d="M373.797,19.566c0.27-0.193,0.538-0.39,0.813-0.578c0.039-0.026,0.114-0.027,0.161-0.009
				c0.346,0.129,0.401,0.5,0.12,0.746C374.661,19.926,373.966,19.908,373.797,19.566z"/>
			<path fill="#731112" d="M358.398,19.999c-0.145,0.046-0.261,0.09-0.38,0.116c-0.036,0.008-0.105-0.025-0.121-0.057
				c-0.198-0.398-0.388-0.799-0.588-1.215c0.236-0.036,0.411,0.023,0.517,0.189C358.023,19.34,358.2,19.661,358.398,19.999z"/>
			<path fill="#731112" d="M362.504,18.608c-0.13,0.046-0.237,0.084-0.361,0.128c0-0.464,0-0.902,0-1.341
				c0.01-0.003,0.021-0.006,0.031-0.008C362.282,17.786,362.39,18.185,362.504,18.608z"/>
			<path fill="#731112" d="M357.514,20.258c-0.103,0.028-0.181,0.049-0.275,0.074c0-0.2,0-0.381,0-0.612
				C357.339,19.915,357.418,20.071,357.514,20.258z"/>
		</g>
	</g>
	<g>
		<rect x="361.28" y="39.841" fill="#6C6D6A" width="3.266" height="17.097"/>
		<rect x="360.67" y="36.007" fill="#A4A4A4" width="4.573" height="5.912"/>
	</g>
	<g>
		<path fill="#59595B" d="M263.682,138.707l-0.613-1.602h-3.828l-0.613,1.602h-1.664l3.278-8.346h1.826l3.278,8.346H263.682z
			 M261.154,131.838l-1.501,3.979h3.002L261.154,131.838z"/>
		<path fill="#59595B" d="M271.651,138.707l-1.852-3.115h-1.451v3.115h-1.464v-8.346h3.666c1.651,0,2.728,1.076,2.728,2.615
			c0,1.489-0.977,2.29-1.977,2.452l2.039,3.278H271.651z M271.776,132.977c0-0.801-0.601-1.326-1.426-1.326h-2.002v2.652h2.002
			C271.176,134.303,271.776,133.778,271.776,132.977z"/>
		<path fill="#59595B" d="M282.574,138.707v-6.193l-2.565,6.193h-0.625l-2.553-6.193v6.193h-1.464v-8.346h2.064l2.265,5.493
			l2.277-5.493h2.064v8.346H282.574z"/>
		<path fill="#59595B" d="M292.283,138.707l-0.613-1.602h-3.828l-0.613,1.602h-1.664l3.278-8.346h1.826l3.278,8.346H292.283z
			 M289.756,131.838l-1.501,3.979h3.002L289.756,131.838z"/>
		<path fill="#59595B" d="M294.822,137.532l0.813-1.126c0.575,0.612,1.476,1.15,2.64,1.15c1.201,0,1.677-0.588,1.677-1.139
			c0-1.751-4.867-0.663-4.867-3.741c0-1.376,1.214-2.439,3.04-2.439c1.302,0,2.353,0.413,3.128,1.163l-0.838,1.089
			c-0.65-0.65-1.539-0.951-2.415-0.951c-0.863,0-1.414,0.413-1.414,1.039c0,1.552,4.855,0.588,4.855,3.703
			c0,1.39-0.977,2.578-3.229,2.578C296.674,138.858,295.561,138.32,294.822,137.532z"/>
		<path fill="#59595B" d="M308.109,130.237l0.601,0.476c-0.4,0.237-0.826,0.751-0.901,1.176c0.025-0.013,0.126-0.024,0.213-0.024
			c0.413,0,0.738,0.325,0.738,0.788s-0.375,0.851-0.851,0.851c-0.513,0-0.964-0.413-0.964-1.139
			C306.945,131.5,307.421,130.725,308.109,130.237z M310.424,130.237l0.601,0.476c-0.4,0.237-0.825,0.751-0.9,1.176
			c0.024-0.013,0.125-0.024,0.213-0.024c0.412,0,0.738,0.325,0.738,0.788s-0.376,0.851-0.852,0.851
			c-0.513,0-0.963-0.413-0.963-1.139C309.261,131.5,309.736,130.725,310.424,130.237z"/>
		<path fill="#59595B" d="M312.812,134.54c0-2.564,1.915-4.316,4.38-4.316c1.688,0,2.728,0.876,3.353,1.877l-1.251,0.638
			c-0.4-0.688-1.201-1.213-2.102-1.213c-1.652,0-2.878,1.264-2.878,3.015c0,1.752,1.226,3.016,2.878,3.016
			c0.9,0,1.701-0.513,2.102-1.214l1.251,0.639c-0.638,1.001-1.664,1.877-3.353,1.877
			C314.728,138.858,312.812,137.106,312.812,134.54z"/>
		<path fill="#59595B" d="M321.972,134.54c0-2.564,1.915-4.316,4.38-4.316c1.688,0,2.728,0.876,3.353,1.877l-1.251,0.638
			c-0.4-0.688-1.201-1.213-2.102-1.213c-1.652,0-2.878,1.264-2.878,3.015c0,1.752,1.226,3.016,2.878,3.016
			c0.9,0,1.701-0.513,2.102-1.214l1.251,0.639c-0.638,1.001-1.664,1.877-3.353,1.877
			C323.887,138.858,321.972,137.106,321.972,134.54z"/>
		<path fill="#59595B" d="M336.272,138.707l-1.852-3.115h-1.451v3.115h-1.464v-8.346h3.666c1.651,0,2.728,1.076,2.728,2.615
			c0,1.489-0.977,2.29-1.977,2.452l2.039,3.278H336.272z M336.397,132.977c0-0.801-0.601-1.326-1.426-1.326h-2.002v2.652h2.002
			C335.797,134.303,336.397,133.778,336.397,132.977z"/>
		<path fill="#59595B" d="M340.777,130.237l0.601,0.476c-0.4,0.237-0.826,0.751-0.901,1.176c0.025-0.013,0.126-0.024,0.213-0.024
			c0.413,0,0.738,0.325,0.738,0.788s-0.375,0.851-0.851,0.851c-0.513,0-0.964-0.413-0.964-1.139
			C339.613,131.5,340.089,130.725,340.777,130.237z M343.092,130.237l0.601,0.476c-0.4,0.237-0.825,0.751-0.9,1.176
			c0.024-0.013,0.125-0.024,0.213-0.024c0.412,0,0.738,0.325,0.738,0.788s-0.376,0.851-0.852,0.851
			c-0.513,0-0.963-0.413-0.963-1.139C341.929,131.5,342.404,130.725,343.092,130.237z"/>
	</g>
	<ellipse opacity="0.3" fill="#B7AFA7" cx="301.948" cy="116.269" rx="101.625" ry="1.899"/>
	<g>
		<rect x="207.825" y="106.226" fill="#B5B5B5" width="186.795" height="10.043"/>
		<polygon fill="#FDEDDF" points="214.185,106.226 214.185,56.682 301.222,28.898 388.259,57.352 388.259,106.226 		"/>
		<polygon fill="#B7AFA7" points="214.185,64.047 301.222,36.932 388.259,64.047 388.259,57.352 301.222,28.898 214.185,56.682 		
			"/>
		<g>
			<linearGradient id="SVGID_20_" gradientUnits="userSpaceOnUse" x1="209.8335" y1="43.4757" x2="301.1783" y2="43.4757">
				<stop  offset="0.0816" style="stop-color:#931A21"/>
				<stop  offset="0.2092" style="stop-color:#9F1E25"/>
				<stop  offset="0.7092" style="stop-color:#721817"/>
				<stop  offset="0.9133" style="stop-color:#640C0D"/>
			</linearGradient>
			<polygon fill="url(#SVGID_20_)" points="209.834,55.009 209.834,61.369 301.178,31.925 301.122,25.582 			"/>
			<linearGradient id="SVGID_21_" gradientUnits="userSpaceOnUse" x1="301.1224" y1="43.4596" x2="392.2757" y2="43.4596">
				<stop  offset="0.0816" style="stop-color:#931A21"/>
				<stop  offset="0.2092" style="stop-color:#9F1E25"/>
				<stop  offset="0.7092" style="stop-color:#721817"/>
				<stop  offset="0.9133" style="stop-color:#640C0D"/>
			</linearGradient>
			<polygon fill="url(#SVGID_21_)" points="301.222,25.55 301.122,25.582 301.178,31.925 301.222,31.911 392.276,61.369 
				392.276,54.674 			"/>
		</g>
		<g>
			<rect x="226.723" y="71.399" fill="#878787" width="60.714" height="34.826"/>
			<rect x="243.563" y="71.399" fill="#404041" width="27.646" height="34.826"/>
		</g>
		<g>
			<rect x="314.469" y="71.399" fill="#878787" width="60.714" height="34.826"/>
			<rect x="331.309" y="71.399" fill="#404041" width="27.647" height="34.826"/>
		</g>
		<linearGradient id="SVGID_22_" gradientUnits="userSpaceOnUse" x1="221.4057" y1="70.1806" x2="381.1671" y2="70.1806">
			<stop  offset="0.0816" style="stop-color:#931A21"/>
			<stop  offset="0.2092" style="stop-color:#9F1E25"/>
			<stop  offset="0.7092" style="stop-color:#721817"/>
			<stop  offset="0.9133" style="stop-color:#640C0D"/>
		</linearGradient>
		<rect x="221.406" y="66.524" fill="url(#SVGID_22_)" width="159.761" height="7.312"/>
		<rect x="248.448" y="99.711" fill="#8E7D67" width="12.265" height="6.514"/>
		<rect x="248.448" y="93.775" fill="#C0A285" width="12.265" height="5.937"/>
		<rect x="296.595" y="99.711" fill="#BFA388" width="12.069" height="6.514"/>
		<rect x="308.664" y="99.711" fill="#8F7B67" width="12.2" height="6.514"/>
		<rect x="302.63" y="93.644" fill="#D8C6B7" width="11.839" height="6.068"/>
		<rect x="334.63" y="99.646" fill="#8C7862" width="12.265" height="6.58"/>
		<rect x="346.895" y="99.646" fill="#C0A387" width="12.061" height="6.58"/>
		<rect x="346.895" y="93.905" fill="#8E7C69" width="12.06" height="5.741"/>
		<rect x="346.895" y="87.511" fill="#D8C6B7" width="12.061" height="6.393"/>
		<g>
			<rect x="356.093" y="90.708" fill="#DADADA" width="5.088" height="15.518"/>
			<rect x="361.181" y="90.708" fill="#A4A4A4" width="5.089" height="15.518"/>
		</g>
		<g>
			<rect x="368.881" y="100.751" fill="#DADADA" width="5.088" height="15.518"/>
			<rect x="373.969" y="100.751" fill="#A4A4A4" width="5.089" height="15.518"/>
		</g>
		<rect x="207.825" y="106.226" fill="#878787" width="46.47" height="10.043"/>
	</g>
	<g>
		<g>
			<g>
				<rect x="238.886" y="131.603" fill="#4E4E4E" width="4.992" height="2.496"/>
				<rect x="239.421" y="131.603" fill="#E3E3E3" width="0.535" height="1.961"/>
				<rect x="242.808" y="131.603" fill="#E3E3E3" width="0.535" height="1.961"/>
				<path fill="#333333" d="M244.591,134.398c0,0.425-0.345,0.77-0.77,0.77h-4.7c-0.425,0-0.77-0.345-0.77-0.77v-0.064
					c0-0.425,0.345-0.77,0.77-0.77h4.7c0.425,0,0.77,0.345,0.77,0.77V134.398z"/>
			</g>
			<rect x="205.901" y="130.355" fill="#333333" width="40.652" height="1.426"/>
			<g>
				<polygon fill="#D6D6D5" points="249.762,133.207 246.859,133.207 245.576,129.463 249.762,129.463 				"/>
				<path fill="#BE272C" d="M249.405,131.973c0,0.19-0.154,0.343-0.343,0.343h-1.631c-0.19,0-0.343-0.154-0.343-0.343v-0.027
					c0-0.19,0.154-0.343,0.343-0.343h1.631c0.19,0,0.343,0.154,0.343,0.343V131.973z"/>
				<path fill="#333333" d="M249.94,134.912c0,0.142-0.115,0.257-0.257,0.257h-2.696c-0.142,0-0.257-0.115-0.257-0.257v-1.804
					c0-0.142,0.115-0.257,0.257-0.257h2.696c0.142,0,0.257,0.115,0.257,0.257V134.912z"/>
			</g>
			
				<polyline fill="none" stroke="#333333" stroke-width="3" stroke-linecap="round" stroke-linejoin="round" stroke-miterlimit="10" points="
				178.44,117.518 180.494,117.996 180.494,129.106 			"/>
			<path fill="#333333" d="M229.258,134.634h-59.323c-2.411,0-4.108-0.888-4.108-3.298l0,0c0-2.41,1.697-3.298,4.108-3.298h10.655
				l1.655,1.27c0.7,0,47.013-0.027,47.013-0.027V134.634z"/>
			<path fill="#A2C36E" d="M178.071,113.773h-0.096c-0.025,0-0.049,0.006-0.074,0.007l-0.006-0.007H165.57l-2.295,3.812
				l-2.155,6.593l-0.022,9.92h7.895c0-4.101,3.765-4.279,3.765-4.279h6.754v-12.16v-1.974v-0.433
				C179.513,114.499,178.824,113.773,178.071,113.773z"/>
			<path fill="#333333" d="M177.017,115.021v6.056c0,0-1.23,1.936-12.441,3.348c0,0,0.481-6.908,4.161-9.404H177.017z"/>
			<rect x="174.877" y="125.184" fill="#4E4E4E" width="1.961" height="3.209"/>
			<rect x="174.877" y="127.324" fill="#666666" width="1.961" height="1.07"/>
			<path fill="#FFFFFF" d="M166.676,132.963c0,0.332-0.269,0.601-0.601,0.601h-2.365c-0.332,0-0.601-0.269-0.601-0.601v-0.047
				c0-0.332,0.269-0.601,0.601-0.601h2.365c0.332,0,0.601,0.269,0.601,0.601V132.963z"/>
			<path fill="#F59021" d="M166.676,133.027c0,0.349-0.271,0.563-0.71,0.537h-1.43v-1.248h1.43c0.55-0.022,0.71,0.252,0.71,0.601
				V133.027z"/>
			<path fill="#333333" d="M165.57,113.888c0,0-4.472,3.488-4.45,10.869c0,0,0.708,0.048,0.749-0.3
				C162.553,118.606,165.025,115.685,165.57,113.888z"/>
			<path fill="#959595" d="M161.683,132.686c0,0.19-0.154,0.343-0.343,0.343h-0.026c-0.19,0-0.343-0.154-0.343-0.343v-5.019
				c0-0.19,0.154-0.343,0.343-0.343h0.026c0.19,0,0.343,0.154,0.343,0.343V132.686z"/>
			<path fill="#666666" d="M169.707,134.746c0,0.332-0.269,0.601-0.601,0.601h-8.07c-0.332,0-0.601-0.269-0.601-0.601v-0.047
				c0-0.332,0.269-0.601,0.601-0.601h8.07c0.332,0,0.601,0.269,0.601,0.601V134.746z"/>
			<path fill="#889F5D" d="M165.538,113.773c0,0,1.38-6.826,13.896-6.794c0,0,0.353,4.97-0.193,5.9c0,0-0.417,0.894-0.931,0.894
				C177.798,113.773,165.538,113.773,165.538,113.773z"/>
			<g>
				<circle fill="#333333" cx="175.23" cy="135.038" r="4.397"/>
				<g>
					<circle fill="#C9C9C8" cx="175.23" cy="135.038" r="2.856"/>
					<circle fill="#E3E3E3" stroke="#333333" stroke-miterlimit="10" cx="175.23" cy="135.038" r="0.834"/>
					<rect x="174.521" y="132.672" fill="#333333" width="1.426" height="0.357"/>
					<rect x="174.521" y="137.13" fill="#333333" width="1.426" height="0.357"/>
					<rect x="177.017" y="134.455" fill="#333333" width="0.357" height="1.248"/>
					<rect x="172.916" y="134.455" fill="#333333" width="0.357" height="1.248"/>
				</g>
			</g>
			<g>
				<circle fill="#333333" cx="232.043" cy="135.038" r="4.397"/>
				<g>
					<circle fill="#C9C9C8" cx="232.043" cy="135.038" r="2.856"/>
					<circle fill="#E3E3E3" stroke="#333333" stroke-miterlimit="10" cx="232.043" cy="135.038" r="0.834"/>
					<rect x="231.397" y="132.672" fill="#333333" width="1.248" height="0.357"/>
					<rect x="231.397" y="137.13" fill="#333333" width="1.248" height="0.357"/>
					<rect x="233.894" y="134.455" fill="#333333" width="0.357" height="1.248"/>
					<rect x="229.793" y="134.455" fill="#333333" width="0.357" height="1.248"/>
				</g>
			</g>
			<path fill="none" stroke="#889F5D" stroke-width="0.25" stroke-miterlimit="10" d="M166.745,115.14c0,0-3.368,4.953-3.19,9.876
				v5.561l5.33-0.007c0,0,0.962-2.004,4.065-2.004"/>
			<path fill="#666666" d="M166.854,125.576c0,0.177-0.144,0.321-0.321,0.321h-1.676c-0.177,0-0.321-0.144-0.321-0.321v-0.071
				c0-0.177,0.144-0.321,0.321-0.321h1.676c0.177,0,0.321,0.144,0.321,0.321V125.576z"/>
			<rect x="184.684" y="132.316" fill="#666666" width="6.597" height="2.853"/>
			<g>
				<path fill="#4E4E4E" d="M171.127,115.021l-1.338,8.594c1.844-0.36,3.233-0.765,4.276-1.106l1.171-7.488H171.127z"/>
			</g>
			<g>
				<rect x="182.188" y="103.967" fill="#D6D6D5" width="67.575" height="26.566"/>
				<g>
					<path fill="#E3E3E3" d="M195.203,126.931c0,0.709-0.575,1.284-1.284,1.284h-8.309c-0.709,0-1.284-0.575-1.284-1.284v-20.077
						c0-0.709,0.575-1.284,1.284-1.284h8.309c0.709,0,1.284,0.575,1.284,1.284V126.931z"/>
					<path fill="#E3E3E3" d="M208.219,126.923c0,0.709-0.575,1.292-1.284,1.292h-8.308c-0.709,0-1.284-0.583-1.284-1.292v-20.077
						c0-0.709,0.575-1.275,1.284-1.275h8.308c0.709,0,1.284,0.566,1.284,1.275V126.923z"/>
					<path fill="#E3E3E3" d="M221.591,126.931c0,0.709-0.575,1.284-1.284,1.284h-8.309c-0.709,0-1.284-0.575-1.284-1.284v-20.077
						c0-0.709,0.575-1.284,1.284-1.284h8.309c0.709,0,1.284,0.575,1.284,1.284V126.931z"/>
				</g>
				<g>
					<path fill="#E3E3E3" d="M247.622,126.923c0,0.709-0.575,1.292-1.284,1.292h-8.308c-0.709,0-1.284-0.583-1.284-1.292v-20.077
						c0-0.709,0.575-1.275,1.284-1.275h8.308c0.709,0,1.284,0.566,1.284,1.275V126.923z"/>
				</g>
				<rect x="183.614" y="128.928" fill="#E3E3E3" width="64.722" height="0.891"/>
				<path fill="#F59021" d="M184.505,104.872c0,0.189-0.153,0.342-0.342,0.342h-1.098c-0.189,0-0.342-0.153-0.342-0.342v-0.029
					c0-0.189,0.153-0.342,0.342-0.342h1.098c0.189,0,0.342,0.153,0.342,0.342V104.872z"/>
				<path fill="#F59021" d="M249.049,104.872c0,0.189-0.153,0.342-0.342,0.342h-1.098c-0.189,0-0.342-0.153-0.342-0.342v-0.029
					c0-0.189,0.153-0.342,0.342-0.342h1.098c0.189,0,0.342,0.153,0.342,0.342V104.872z"/>
				<g>
					<path fill="#E3E3E3" d="M234.607,126.923c0,0.709-0.575,1.292-1.284,1.292h-8.308c-0.709,0-1.284-0.583-1.284-1.292v-20.077
						c0-0.709,0.575-1.275,1.284-1.275h8.308c0.709,0,1.284,0.566,1.284,1.275V126.923z"/>
				</g>
			</g>
			<rect x="196.808" y="131.959" fill="#B0B0B0" width="5.349" height="1.605"/>
			<rect x="196.808" y="133.564" fill="#333333" width="5.349" height="1.605"/>
		</g>
		<g>
			<path fill="#AE3F42" d="M191.443,107.6h1.189l0.714,2.775h-1.142l-0.105-0.57h-1.855l-0.567,0.57h-1.101L191.443,107.6z
				 M190.712,109.327h1.278l-0.209-1.092L190.712,109.327z"/>
			<path fill="#AE3F42" d="M198.745,107.866c0.082,0.07,0.139,0.147,0.17,0.233c0.03,0.085,0.025,0.183-0.016,0.292
				c-0.053,0.132-0.164,0.261-0.333,0.389c-0.17,0.127-0.404,0.218-0.702,0.271c0.212,0.051,0.348,0.124,0.408,0.219
				s0.053,0.239-0.022,0.435l-0.071,0.187c-0.048,0.126-0.072,0.212-0.072,0.258c0,0.071,0.043,0.124,0.13,0.158l-0.023,0.069
				h-1.159c-0.009-0.062-0.014-0.111-0.014-0.148c0.003-0.078,0.019-0.158,0.048-0.239l0.093-0.258
				c0.063-0.178,0.051-0.295-0.04-0.354c-0.09-0.059-0.289-0.088-0.6-0.088h-1.086l-0.417,1.088h-1.029l1.07-2.775h2.471
				c0.351,0.004,0.612,0.027,0.785,0.071C198.509,107.715,198.645,107.78,198.745,107.866z M195.919,108.081l-0.286,0.746h1.192
				c0.236,0,0.42-0.015,0.55-0.045c0.23-0.053,0.376-0.157,0.438-0.312c0.063-0.169,0.006-0.281-0.174-0.339
				c-0.103-0.033-0.269-0.05-0.496-0.05H195.919z"/>
			<path fill="#AE3F42" d="M203.448,107.6h1.514l-1.069,2.775h-0.98l0.721-1.877c0.022-0.055,0.054-0.13,0.094-0.228
				c0.04-0.097,0.069-0.172,0.087-0.225l-1.849,2.329h-1.021l-0.051-2.329c-0.019,0.053-0.046,0.128-0.081,0.225
				c-0.035,0.098-0.064,0.173-0.087,0.228l-0.721,1.877h-0.981l1.07-2.775h1.53l0.072,2.183L203.448,107.6z"/>
			<path fill="#AE3F42" d="M207.382,107.6h1.189l0.714,2.775h-1.142l-0.105-0.57h-1.855l-0.567,0.57h-1.101L207.382,107.6z
				 M206.65,109.327h1.278l-0.209-1.092L206.65,109.327z"/>
			<path fill="#AE3F42" d="M211.014,109.519c-0.016,0.127,0.011,0.222,0.079,0.284c0.127,0.114,0.398,0.171,0.812,0.171
				c0.249,0,0.456-0.015,0.622-0.045c0.317-0.058,0.505-0.165,0.564-0.322c0.036-0.092-0.01-0.162-0.137-0.213
				c-0.126-0.049-0.338-0.092-0.636-0.13l-0.51-0.065c-0.498-0.065-0.833-0.137-1.004-0.213c-0.29-0.128-0.382-0.328-0.277-0.601
				c0.096-0.249,0.34-0.455,0.731-0.619c0.392-0.165,0.905-0.247,1.541-0.247c0.531,0,0.954,0.077,1.269,0.232
				c0.313,0.155,0.423,0.38,0.327,0.675h-1.011c0.048-0.167-0.038-0.285-0.257-0.355c-0.146-0.047-0.341-0.069-0.584-0.069
				c-0.271,0-0.5,0.029-0.686,0.09s-0.299,0.145-0.34,0.252c-0.039,0.1,0.013,0.174,0.154,0.223
				c0.089,0.032,0.292,0.071,0.611,0.115l0.823,0.114c0.36,0.051,0.621,0.117,0.783,0.202c0.25,0.13,0.327,0.319,0.232,0.566
				c-0.099,0.254-0.355,0.464-0.772,0.632c-0.417,0.167-0.947,0.251-1.589,0.251c-0.656,0-1.141-0.082-1.453-0.247
				c-0.312-0.165-0.412-0.393-0.301-0.681H211.014z"/>
		</g>
		<polygon points="188.401,110.841 186.163,112.791 249.762,112.791 249.762,110.841 		"/>
		<g>
			<path fill="#FFFFFF" d="M188.706,111.3v0.794h0.475v0.18h-0.688V111.3H188.706z"/>
			<path fill="#FFFFFF" d="M190.109,111.589c0.021-0.062,0.053-0.117,0.094-0.163c0.041-0.047,0.091-0.083,0.15-0.109
				s0.127-0.039,0.201-0.039c0.075,0,0.143,0.013,0.201,0.039c0.06,0.026,0.109,0.062,0.15,0.109
				c0.041,0.046,0.072,0.101,0.094,0.163c0.022,0.062,0.033,0.129,0.033,0.202c0,0.071-0.011,0.137-0.033,0.198
				c-0.021,0.062-0.053,0.114-0.094,0.16s-0.091,0.081-0.15,0.107c-0.059,0.025-0.126,0.038-0.201,0.038
				c-0.074,0-0.142-0.013-0.201-0.038c-0.06-0.026-0.109-0.062-0.15-0.107s-0.072-0.099-0.094-0.16
				c-0.022-0.062-0.033-0.127-0.033-0.198C190.076,111.718,190.087,111.651,190.109,111.589z M190.305,111.911
				c0.01,0.039,0.024,0.073,0.046,0.104c0.021,0.03,0.048,0.056,0.081,0.074c0.034,0.019,0.075,0.027,0.123,0.027
				s0.089-0.009,0.123-0.027c0.033-0.019,0.061-0.044,0.081-0.074c0.021-0.031,0.036-0.065,0.046-0.104
				c0.01-0.038,0.015-0.078,0.015-0.119c0-0.043-0.005-0.084-0.015-0.124s-0.024-0.076-0.046-0.107
				c-0.021-0.031-0.048-0.056-0.081-0.074c-0.034-0.019-0.075-0.028-0.123-0.028s-0.089,0.01-0.123,0.028
				c-0.033,0.019-0.061,0.043-0.081,0.074c-0.021,0.031-0.036,0.067-0.046,0.107s-0.015,0.081-0.015,0.124
				C190.29,111.832,190.295,111.872,190.305,111.911z"/>
			<path fill="#FFFFFF" d="M192.573,112.266c-0.047,0.02-0.094,0.029-0.141,0.029c-0.074,0-0.142-0.013-0.201-0.038
				c-0.06-0.026-0.109-0.062-0.15-0.107s-0.072-0.099-0.094-0.16c-0.022-0.062-0.033-0.127-0.033-0.198
				c0-0.073,0.011-0.141,0.033-0.202c0.021-0.062,0.053-0.117,0.094-0.163c0.041-0.047,0.091-0.083,0.15-0.109
				s0.127-0.039,0.201-0.039c0.05,0,0.099,0.007,0.146,0.022c0.046,0.015,0.089,0.037,0.126,0.065
				c0.038,0.029,0.069,0.065,0.094,0.108c0.024,0.042,0.039,0.092,0.045,0.146h-0.204c-0.013-0.054-0.037-0.095-0.074-0.122
				c-0.036-0.027-0.08-0.041-0.132-0.041c-0.048,0-0.089,0.01-0.123,0.028c-0.033,0.019-0.061,0.043-0.081,0.074
				c-0.021,0.031-0.036,0.067-0.046,0.107s-0.015,0.081-0.015,0.124c0,0.041,0.005,0.081,0.015,0.119
				c0.01,0.039,0.024,0.073,0.046,0.104c0.021,0.03,0.048,0.056,0.081,0.074c0.034,0.019,0.075,0.027,0.123,0.027
				c0.07,0,0.126-0.018,0.164-0.054c0.039-0.035,0.062-0.088,0.067-0.155h-0.215v-0.16h0.408v0.526h-0.136l-0.022-0.11
				C192.661,112.212,192.619,112.246,192.573,112.266z"/>
			<path fill="#FFFFFF" d="M194.062,111.3v0.974h-0.214V111.3H194.062z"/>
			<path fill="#FFFFFF" d="M195.232,112.034c0.012,0.023,0.027,0.041,0.047,0.056c0.02,0.014,0.042,0.024,0.068,0.031
				s0.054,0.01,0.082,0.01c0.02,0,0.04-0.001,0.062-0.004c0.021-0.004,0.042-0.01,0.062-0.019c0.019-0.01,0.035-0.021,0.048-0.038
				c0.013-0.016,0.019-0.036,0.019-0.061c0-0.026-0.008-0.048-0.025-0.063c-0.017-0.017-0.038-0.03-0.065-0.041
				s-0.059-0.021-0.093-0.029c-0.035-0.008-0.069-0.017-0.105-0.026s-0.071-0.021-0.106-0.034c-0.034-0.013-0.065-0.03-0.092-0.051
				c-0.027-0.021-0.05-0.047-0.066-0.078s-0.025-0.069-0.025-0.114c0-0.05,0.011-0.093,0.032-0.13s0.049-0.067,0.084-0.092
				c0.034-0.024,0.073-0.043,0.117-0.055c0.043-0.012,0.087-0.018,0.131-0.018c0.051,0,0.1,0.006,0.146,0.017
				c0.047,0.012,0.088,0.03,0.124,0.056c0.037,0.025,0.065,0.058,0.087,0.098c0.021,0.039,0.032,0.087,0.032,0.144h-0.207
				c-0.002-0.029-0.008-0.054-0.019-0.072c-0.011-0.02-0.024-0.034-0.042-0.045c-0.017-0.011-0.037-0.019-0.059-0.023
				c-0.022-0.005-0.047-0.007-0.073-0.007c-0.018,0-0.035,0.002-0.052,0.006c-0.018,0.003-0.033,0.01-0.047,0.019
				c-0.015,0.009-0.026,0.021-0.035,0.034s-0.014,0.031-0.014,0.052c0,0.02,0.004,0.034,0.011,0.047
				c0.008,0.012,0.021,0.022,0.043,0.032s0.051,0.021,0.089,0.03s0.087,0.022,0.147,0.038c0.019,0.004,0.044,0.01,0.076,0.02
				s0.064,0.024,0.096,0.046c0.032,0.021,0.06,0.049,0.083,0.084c0.022,0.034,0.034,0.079,0.034,0.134
				c0,0.045-0.009,0.086-0.025,0.124c-0.018,0.038-0.043,0.071-0.077,0.099c-0.034,0.028-0.076,0.05-0.127,0.065
				c-0.051,0.015-0.108,0.022-0.175,0.022c-0.054,0-0.105-0.006-0.156-0.02c-0.051-0.013-0.095-0.034-0.134-0.062
				c-0.038-0.028-0.069-0.064-0.092-0.108c-0.022-0.043-0.033-0.095-0.033-0.155h0.208
				C195.215,111.984,195.221,112.011,195.232,112.034z"/>
			<path fill="#FFFFFF" d="M196.694,111.481V111.3h0.798v0.181H197.2v0.793h-0.214v-0.793H196.694z"/>
			<path fill="#FFFFFF" d="M198.635,111.3v0.974h-0.214V111.3H198.635z"/>
			<path fill="#FFFFFF" d="M200.267,111.56c-0.014-0.021-0.029-0.038-0.048-0.054c-0.02-0.016-0.041-0.027-0.065-0.036
				c-0.023-0.009-0.049-0.013-0.075-0.013c-0.048,0-0.089,0.01-0.123,0.028c-0.033,0.019-0.061,0.043-0.081,0.074
				c-0.021,0.031-0.036,0.067-0.046,0.107s-0.015,0.081-0.015,0.124c0,0.041,0.005,0.081,0.015,0.119
				c0.01,0.039,0.024,0.073,0.046,0.104c0.021,0.03,0.048,0.056,0.081,0.074c0.034,0.019,0.075,0.027,0.123,0.027
				c0.065,0,0.116-0.02,0.153-0.06s0.06-0.093,0.067-0.158h0.207c-0.005,0.062-0.02,0.116-0.042,0.165s-0.053,0.091-0.09,0.125
				c-0.037,0.035-0.081,0.062-0.131,0.079c-0.05,0.019-0.105,0.027-0.165,0.027c-0.074,0-0.142-0.013-0.201-0.038
				c-0.06-0.026-0.109-0.062-0.15-0.107s-0.072-0.099-0.094-0.16c-0.022-0.062-0.033-0.127-0.033-0.198
				c0-0.073,0.011-0.141,0.033-0.202c0.021-0.062,0.053-0.117,0.094-0.163c0.041-0.047,0.091-0.083,0.15-0.109
				s0.127-0.039,0.201-0.039c0.054,0,0.104,0.008,0.152,0.022c0.047,0.016,0.09,0.038,0.128,0.068
				c0.037,0.029,0.068,0.065,0.093,0.109s0.04,0.094,0.047,0.149h-0.207C200.287,111.603,200.279,111.58,200.267,111.56z"/>
			<path fill="#FFFFFF" d="M202.83,112.034c0.012,0.023,0.027,0.041,0.047,0.056c0.02,0.014,0.042,0.024,0.068,0.031
				s0.054,0.01,0.082,0.01c0.02,0,0.04-0.001,0.062-0.004c0.021-0.004,0.042-0.01,0.062-0.019c0.019-0.01,0.035-0.021,0.048-0.038
				c0.013-0.016,0.019-0.036,0.019-0.061c0-0.026-0.008-0.048-0.025-0.063c-0.017-0.017-0.038-0.03-0.065-0.041
				s-0.059-0.021-0.093-0.029c-0.035-0.008-0.069-0.017-0.105-0.026s-0.071-0.021-0.106-0.034c-0.034-0.013-0.065-0.03-0.092-0.051
				c-0.027-0.021-0.05-0.047-0.066-0.078s-0.025-0.069-0.025-0.114c0-0.05,0.011-0.093,0.032-0.13s0.049-0.067,0.084-0.092
				c0.034-0.024,0.073-0.043,0.117-0.055c0.043-0.012,0.087-0.018,0.131-0.018c0.051,0,0.1,0.006,0.146,0.017
				c0.047,0.012,0.088,0.03,0.124,0.056c0.037,0.025,0.065,0.058,0.087,0.098c0.021,0.039,0.032,0.087,0.032,0.144h-0.207
				c-0.002-0.029-0.008-0.054-0.019-0.072c-0.011-0.02-0.024-0.034-0.042-0.045c-0.017-0.011-0.037-0.019-0.059-0.023
				c-0.022-0.005-0.047-0.007-0.073-0.007c-0.018,0-0.035,0.002-0.052,0.006c-0.018,0.003-0.033,0.01-0.047,0.019
				c-0.015,0.009-0.026,0.021-0.035,0.034s-0.014,0.031-0.014,0.052c0,0.02,0.004,0.034,0.011,0.047
				c0.008,0.012,0.021,0.022,0.043,0.032s0.051,0.021,0.089,0.03s0.087,0.022,0.147,0.038c0.019,0.004,0.044,0.01,0.076,0.02
				s0.064,0.024,0.096,0.046c0.032,0.021,0.06,0.049,0.083,0.084c0.022,0.034,0.034,0.079,0.034,0.134
				c0,0.045-0.009,0.086-0.025,0.124c-0.018,0.038-0.043,0.071-0.077,0.099c-0.034,0.028-0.076,0.05-0.127,0.065
				c-0.051,0.015-0.108,0.022-0.175,0.022c-0.054,0-0.105-0.006-0.156-0.02c-0.051-0.013-0.095-0.034-0.134-0.062
				c-0.038-0.028-0.069-0.064-0.092-0.108c-0.022-0.043-0.033-0.095-0.033-0.155h0.208
				C202.812,111.984,202.818,112.011,202.83,112.034z"/>
			<path fill="#FFFFFF" d="M205.097,111.3v0.181h-0.515v0.208h0.472v0.167h-0.472v0.238h0.525v0.18h-0.739V111.3H205.097z"/>
			<path fill="#FFFFFF" d="M206.595,111.3c0.043,0,0.083,0.008,0.117,0.021c0.035,0.015,0.065,0.033,0.09,0.058
				c0.025,0.025,0.045,0.054,0.058,0.086c0.014,0.032,0.02,0.066,0.02,0.104c0,0.058-0.012,0.107-0.036,0.149
				c-0.023,0.041-0.063,0.073-0.117,0.095v0.003c0.026,0.008,0.048,0.019,0.065,0.033c0.017,0.016,0.031,0.033,0.042,0.054
				s0.019,0.043,0.023,0.067s0.009,0.049,0.011,0.073c0.001,0.016,0.002,0.034,0.003,0.055c0,0.021,0.002,0.042,0.004,0.064
				c0.003,0.021,0.006,0.042,0.012,0.062c0.005,0.02,0.012,0.036,0.022,0.05h-0.214c-0.013-0.031-0.02-0.067-0.022-0.11
				s-0.007-0.084-0.012-0.123c-0.008-0.051-0.023-0.088-0.047-0.111s-0.062-0.035-0.115-0.035h-0.215v0.38h-0.214V111.3H206.595z
				 M206.518,111.741c0.05,0,0.086-0.011,0.111-0.032c0.024-0.022,0.036-0.058,0.036-0.106c0-0.047-0.012-0.082-0.036-0.103
				c-0.025-0.021-0.062-0.032-0.111-0.032h-0.234v0.273H206.518z"/>
			<path fill="#FFFFFF" d="M208.059,112.274l-0.315-0.974h0.22l0.217,0.685h0.003l0.219-0.685h0.221l-0.322,0.974H208.059z"/>
			<path fill="#FFFFFF" d="M209.736,111.3v0.974h-0.214V111.3H209.736z"/>
			<path fill="#FFFFFF" d="M211.367,111.56c-0.014-0.021-0.029-0.038-0.048-0.054c-0.02-0.016-0.041-0.027-0.065-0.036
				c-0.023-0.009-0.049-0.013-0.075-0.013c-0.048,0-0.089,0.01-0.123,0.028c-0.033,0.019-0.061,0.043-0.081,0.074
				c-0.021,0.031-0.036,0.067-0.046,0.107s-0.015,0.081-0.015,0.124c0,0.041,0.005,0.081,0.015,0.119
				c0.01,0.039,0.024,0.073,0.046,0.104c0.021,0.03,0.048,0.056,0.081,0.074c0.034,0.019,0.075,0.027,0.123,0.027
				c0.065,0,0.116-0.02,0.153-0.06s0.06-0.093,0.067-0.158h0.207c-0.005,0.062-0.02,0.116-0.042,0.165s-0.053,0.091-0.09,0.125
				c-0.037,0.035-0.081,0.062-0.131,0.079c-0.05,0.019-0.105,0.027-0.165,0.027c-0.074,0-0.142-0.013-0.201-0.038
				c-0.06-0.026-0.109-0.062-0.15-0.107s-0.072-0.099-0.094-0.16c-0.022-0.062-0.033-0.127-0.033-0.198
				c0-0.073,0.011-0.141,0.033-0.202c0.021-0.062,0.053-0.117,0.094-0.163c0.041-0.047,0.091-0.083,0.15-0.109
				s0.127-0.039,0.201-0.039c0.054,0,0.104,0.008,0.152,0.022c0.047,0.016,0.09,0.038,0.128,0.068
				c0.037,0.029,0.068,0.065,0.093,0.109s0.04,0.094,0.047,0.149h-0.207C211.388,111.603,211.38,111.58,211.367,111.56z"/>
			<path fill="#FFFFFF" d="M213.299,111.3v0.181h-0.515v0.208h0.472v0.167h-0.472v0.238h0.525v0.18h-0.739V111.3H213.299z"/>
		</g>
	</g>
	<ellipse opacity="0.3" fill="#B7AFA7" cx="542.367" cy="117.926" rx="63.538" ry="1.899"/>
	<rect x="484.696" y="109.955" fill="#B5B5B5" width="114.926" height="6.999"/>
	<rect x="527.08" y="113.454" fill="#E5E4E4" width="14.362" height="3.499"/>
	<polygon fill="#878787" points="541.442,113.454 544.793,116.953 541.442,116.953 	"/>
	<rect x="563.781" y="113.454" fill="#E5E4E4" width="14.122" height="3.499"/>
	<polygon fill="#878787" points="577.904,113.454 581.414,116.953 577.904,116.953 	"/>
	<polygon fill="#FDEDDF" points="491.32,109.955 491.32,95.011 527.08,71.035 592.792,71.035 592.792,109.955 	"/>
	<polygon fill="#B7AFA7" points="491.32,100.003 527.98,75.057 592.792,75.057 592.792,71.035 527.08,71.035 491.32,95.011 	"/>
	<linearGradient id="SVGID_23_" gradientUnits="userSpaceOnUse" x1="488.6901" y1="84.2604" x2="596.3497" y2="84.2604">
		<stop  offset="0.0816" style="stop-color:#931A21"/>
		<stop  offset="0.2092" style="stop-color:#9F1E25"/>
		<stop  offset="0.7092" style="stop-color:#721817"/>
		<stop  offset="0.9133" style="stop-color:#640C0D"/>
	</linearGradient>
	<polygon fill="url(#SVGID_23_)" points="488.69,99.033 528.134,72.891 596.35,72.891 596.35,69.488 527.08,69.488 488.69,95.32 	
		"/>
	<rect x="501.702" y="93.328" fill="#5D5D5D" width="7.359" height="7.503"/>
	<rect x="513.117" y="93.328" fill="#5D5D5D" width="7.359" height="7.503"/>
	<rect x="550.092" y="78.823" fill="#5D5D5D" width="5.132" height="5.233"/>
	<polygon fill="#B7AFA7" points="577.865,88.942 592.792,103.84 592.792,109.955 577.865,109.955 	"/>
	<rect x="567.099" y="80.548" fill="#5D5D5D" width="7.551" height="1.784"/>
	<rect x="530.486" y="80.548" fill="#5D5D5D" width="7.551" height="1.784"/>
	<rect x="570.045" y="59.979" fill="#B5B5B5" width="9.254" height="9.509"/>
	<rect x="568.826" y="55.269" fill="#E5E4E4" width="11.471" height="5.541"/>
	<polygon fill="#858384" points="570.045,60.81 572.317,63.304 579.299,63.304 579.299,60.81 	"/>
	
		<linearGradient id="SVGID_24_" gradientUnits="userSpaceOnUse" x1="2056.5796" y1="3564.345" x2="2068.2192" y2="3564.345" gradientTransform="matrix(-1 0 0 -1 2661.0117 3658.0784)">
		<stop  offset="0.0816" style="stop-color:#931A21"/>
		<stop  offset="0.2092" style="stop-color:#9F1E25"/>
		<stop  offset="0.7092" style="stop-color:#721817"/>
		<stop  offset="0.9133" style="stop-color:#640C0D"/>
	</linearGradient>
	<rect x="592.792" y="92.093" fill="url(#SVGID_24_)" width="11.64" height="3.28"/>
	<g>
		<rect x="527.396" y="88.942" fill="#5D5D5D" width="50.469" height="21.013"/>
		<linearGradient id="SVGID_25_" gradientUnits="userSpaceOnUse" x1="527.3961" y1="90.5175" x2="577.8652" y2="90.5175">
			<stop  offset="0.0816" style="stop-color:#931A21"/>
			<stop  offset="0.2092" style="stop-color:#9F1E25"/>
			<stop  offset="0.7092" style="stop-color:#721817"/>
			<stop  offset="0.9133" style="stop-color:#640C0D"/>
		</linearGradient>
		<rect x="527.396" y="88.942" fill="url(#SVGID_25_)" width="50.469" height="3.151"/>
	</g>
	<rect x="527.396" y="94.311" fill="#A4A7A9" width="50.508" height="1.453"/>
	<rect x="527.396" y="97.393" fill="#A4A7A9" width="50.508" height="1.453"/>
	<rect x="527.396" y="100.476" fill="#A4A7A9" width="50.508" height="1.453"/>
	<rect x="527.396" y="103.559" fill="#A4A7A9" width="50.508" height="1.453"/>
	<rect x="527.396" y="106.641" fill="#A4A7A9" width="50.508" height="1.453"/>
</g>
</svg>
