<?xml version="1.0" encoding="utf-8"?>
<!-- Generator: Adobe Illustrator 17.0.0, SVG Export Plug-In . SVG Version: 6.00 Build 0)  -->
<!DOCTYPE svg PUBLIC "-//W3C//DTD SVG 1.1//EN" "http://www.w3.org/Graphics/SVG/1.1/DTD/svg11.dtd">
<svg version="1.1" id="Layer_1" xmlns="http://www.w3.org/2000/svg" xmlns:xlink="http://www.w3.org/1999/xlink" x="0px" y="0px"
	 width="518.12px" height="155.31px" viewBox="0 0 518.12 155.31" enable-background="new 0 0 518.12 155.31" xml:space="preserve">
<g>
	<g>
		<path fill="#58595B" d="M15.47,120.3l0.13-6.91l-1.14,6.91h-1.2l-1.14-6.91l0.15,6.91h-0.93v-7.64h1.43l1.07,6.82l1.05-6.82h1.45
			v7.64H15.47z"/>
		<path fill="#58595B" d="M20.72,120.3l-0.27-1.47h-1.77l-0.26,1.47h-0.98l1.64-7.64h0.95l1.69,7.64H20.72z M19.54,114.08l-0.7,3.93
			h1.45L19.54,114.08z"/>
		<path fill="#58595B" d="M25.1,120.3l-1.49-6.62l0.13,6.62H22.8v-7.64h1.31l1.55,6.69l-0.13-6.69h0.92v7.64H25.1z"/>
		<path fill="#58595B" d="M30.98,120.17c-0.45,0.25-0.94,0.24-1.1,0.24c-0.47,0-1.04-0.1-1.4-0.44c-0.08-0.08-0.22-0.25-0.31-0.52
			c-0.14-0.41-0.13-0.95-0.13-1.05v-5.73H29v5.06c0,0.65-0.02,1.11,0.09,1.38c0.11,0.28,0.36,0.39,0.45,0.42
			c0.1,0.03,0.18,0.05,0.38,0.05c0.29,0,0.51-0.04,0.69-0.28c0.03-0.04,0.1-0.13,0.13-0.27c0.03-0.15,0.04-0.52,0.04-0.94v-5.43
			h0.96v5.7C31.75,119.08,31.69,119.78,30.98,120.17z"/>
		<path fill="#58595B" d="M34.3,113.52v2.25h2.09v0.83H34.3v3.7h-0.96v-7.64h3.36v0.85h-2.4V113.52z"/>
		<path fill="#58595B" d="M40.68,120.3l-0.27-1.47h-1.77l-0.26,1.47H37.4l1.64-7.64h0.95l1.69,7.64H40.68z M39.5,114.08L38.8,118
			h1.45L39.5,114.08z"/>
		<path fill="#58595B" d="M46.32,118.43c0,0.07,0,0.4-0.04,0.66c-0.14,0.81-0.56,1.06-0.9,1.19c-0.36,0.13-0.74,0.13-0.84,0.13
			c-0.43,0-0.8-0.07-1.16-0.34c-0.08-0.06-0.23-0.19-0.36-0.39c-0.29-0.44-0.32-1.01-0.32-2.07v-1.22c0-0.43,0-0.85,0.01-1.29
			c0.01-0.58,0.01-1.42,0.4-1.94c0.34-0.46,0.97-0.63,1.5-0.63c0.68,0,1.07,0.28,1.28,0.49c0.29,0.3,0.4,0.69,0.4,1.54
			c0,0.16,0,0.33-0.01,0.5H45.4c0-0.27,0-0.55-0.01-0.83c-0.01-0.31-0.03-0.54-0.29-0.74c-0.09-0.07-0.24-0.15-0.49-0.15
			c-0.24,0-0.73,0.05-0.87,0.67c-0.1,0.43-0.11,1.36-0.11,2.51c0,0.57,0.01,1.14,0.03,1.71c0.01,0.3-0.01,0.71,0.15,1
			c0.21,0.37,0.66,0.38,0.77,0.38c0.09,0,0.3,0,0.51-0.16c0.36-0.27,0.35-0.88,0.35-1.27v-0.56h0.89
			C46.33,117.89,46.33,118.16,46.32,118.43z"/>
		<path fill="#58595B" d="M49.77,113.52v6.78h-0.94v-6.78h-1.45v-0.85h3.84v0.85H49.77z"/>
		<path fill="#58595B" d="M55.32,120.17c-0.45,0.25-0.94,0.24-1.1,0.24c-0.47,0-1.04-0.1-1.4-0.44c-0.08-0.08-0.22-0.25-0.31-0.52
			c-0.14-0.41-0.13-0.95-0.13-1.05v-5.73h0.96v5.06c0,0.65-0.02,1.11,0.09,1.38c0.11,0.28,0.36,0.39,0.45,0.42
			c0.1,0.03,0.18,0.05,0.38,0.05c0.29,0,0.51-0.04,0.69-0.28c0.03-0.04,0.1-0.13,0.13-0.27c0.03-0.15,0.04-0.52,0.04-0.94v-5.43
			h0.96v5.7C56.09,119.08,56.04,119.78,55.32,120.17z"/>
		<path fill="#58595B" d="M60.71,120.3l-1.3-3.35h-0.79v3.35h-0.94v-7.64h1.67c0.49,0,1.02,0.02,1.43,0.36
			c0.64,0.52,0.6,1.53,0.6,1.68c0,0.32-0.02,0.64-0.08,0.95c-0.08,0.43-0.19,0.65-0.31,0.8c-0.24,0.29-0.52,0.36-0.64,0.39
			l1.36,3.46H60.71z M60.33,114.03c-0.19-0.55-0.78-0.51-1.24-0.51h-0.47v2.67h0.5c0.42,0,0.63-0.01,0.83-0.09
			c0.48-0.2,0.46-0.87,0.46-1.27C60.42,114.59,60.42,114.28,60.33,114.03z"/>
		<path fill="#58595B" d="M62.95,120.3v-7.64h0.94v7.64H62.95z"/>
		<path fill="#58595B" d="M67.82,120.3l-1.49-6.62l0.13,6.62h-0.94v-7.64h1.31l1.55,6.69l-0.13-6.69h0.92v7.64H67.82z"/>
		<path fill="#58595B" d="M73.72,120.3v-0.53c-0.12,0.12-0.18,0.18-0.3,0.28c-0.16,0.12-0.55,0.37-1.09,0.36
			c-0.34,0-1.16-0.11-1.45-1.05c-0.13-0.42-0.13-0.79-0.14-1.64c-0.01-0.4-0.01-0.8-0.01-1.21c0-0.54,0.01-1.08,0.03-1.62
			c0-0.04,0-0.78,0.12-1.19c0.35-1.16,1.45-1.15,1.8-1.15c0.62,0,0.98,0.14,1.21,0.29c0.13,0.09,0.21,0.17,0.25,0.23
			c0.12,0.14,0.21,0.29,0.26,0.48c0.06,0.23,0.06,0.44,0.06,0.92V115h-0.9v-0.38c0-0.13-0.01-0.26-0.01-0.39
			c-0.01-0.31-0.05-0.89-0.85-0.89c-0.1,0-0.36,0-0.59,0.16c-0.1,0.06-0.16,0.13-0.19,0.17s-0.09,0.15-0.12,0.3
			c-0.08,0.36-0.11,1.18-0.11,2.16v0.92c0,0.43,0.01,0.85,0.03,1.29s0.02,0.63,0.11,0.82c0.15,0.31,0.43,0.45,0.77,0.45
			c0.12,0,0.42-0.01,0.69-0.25c0.05-0.04,0.17-0.16,0.25-0.33c0.08-0.19,0.11-0.57,0.11-1.09v-0.78h-1.12v-0.82h2.01v3.95h-0.82
			V120.3z"/>
	</g>
	<ellipse opacity="0.3" fill="#231F20" enable-background="new    " cx="46.92" cy="103.13" rx="46.92" ry="1.64"/>
	<g>
		<g>
			<g>
				<rect x="38.34" y="15.38" fill="#7C7B7C" width="2.95" height="40.43"/>
				<rect x="41.28" y="15.38" fill="#5D5D5D" width="2.95" height="40.43"/>
			</g>
			<g>
				
					<linearGradient id="SVGID_1_" gradientUnits="userSpaceOnUse" x1="-500.6631" y1="357.885" x2="-497.7131" y2="357.885" gradientTransform="matrix(1 0 0 -1 539 398.8101)">
					<stop  offset="0.0816" style="stop-color:#931B21"/>
					<stop  offset="0.2092" style="stop-color:#A11D24"/>
					<stop  offset="0.7092" style="stop-color:#721816"/>
					<stop  offset="0.9133" style="stop-color:#630C0D"/>
				</linearGradient>
				<rect x="38.34" y="39.19" fill="url(#SVGID_1_)" width="2.95" height="3.47"/>
				
					<linearGradient id="SVGID_2_" gradientUnits="userSpaceOnUse" x1="-497.7159" y1="357.885" x2="-494.7659" y2="357.885" gradientTransform="matrix(1 0 0 -1 539 398.8101)">
					<stop  offset="0.0816" style="stop-color:#931B21"/>
					<stop  offset="0.2092" style="stop-color:#A11D24"/>
					<stop  offset="0.7092" style="stop-color:#721816"/>
					<stop  offset="0.9133" style="stop-color:#630C0D"/>
				</linearGradient>
				<rect x="41.28" y="39.19" fill="url(#SVGID_2_)" width="2.95" height="3.47"/>
			</g>
			<g>
				
					<linearGradient id="SVGID_3_" gradientUnits="userSpaceOnUse" x1="-500.6631" y1="365.005" x2="-497.7131" y2="365.005" gradientTransform="matrix(1 0 0 -1 539 398.8101)">
					<stop  offset="0.0816" style="stop-color:#931B21"/>
					<stop  offset="0.2092" style="stop-color:#A11D24"/>
					<stop  offset="0.7092" style="stop-color:#721816"/>
					<stop  offset="0.9133" style="stop-color:#630C0D"/>
				</linearGradient>
				<rect x="38.34" y="32.02" fill="url(#SVGID_3_)" width="2.95" height="3.57"/>
				
					<linearGradient id="SVGID_4_" gradientUnits="userSpaceOnUse" x1="-497.7159" y1="365.005" x2="-494.7659" y2="365.005" gradientTransform="matrix(1 0 0 -1 539 398.8101)">
					<stop  offset="0.0816" style="stop-color:#931B21"/>
					<stop  offset="0.2092" style="stop-color:#A11D24"/>
					<stop  offset="0.7092" style="stop-color:#721816"/>
					<stop  offset="0.9133" style="stop-color:#630C0D"/>
				</linearGradient>
				<rect x="41.28" y="32.02" fill="url(#SVGID_4_)" width="2.95" height="3.57"/>
			</g>
			<g>
				<rect x="38.34" y="15.38" fill="#E5E3E3" width="2.95" height="3.47"/>
				<rect x="41.28" y="15.38" fill="#ADABAC" width="2.95" height="3.47"/>
			</g>
		</g>
		<g>
			<g>
				<rect x="29.23" y="15.38" fill="#7C7B7C" width="2.95" height="40.43"/>
				<rect x="32.18" y="15.38" fill="#5D5D5D" width="2.95" height="40.43"/>
			</g>
			<g>
				
					<linearGradient id="SVGID_5_" gradientUnits="userSpaceOnUse" x1="-509.77" y1="357.885" x2="-506.82" y2="357.885" gradientTransform="matrix(1 0 0 -1 539 398.8101)">
					<stop  offset="0.0816" style="stop-color:#931B21"/>
					<stop  offset="0.2092" style="stop-color:#A11D24"/>
					<stop  offset="0.7092" style="stop-color:#721816"/>
					<stop  offset="0.9133" style="stop-color:#630C0D"/>
				</linearGradient>
				<rect x="29.23" y="39.19" fill="url(#SVGID_5_)" width="2.95" height="3.47"/>
				
					<linearGradient id="SVGID_6_" gradientUnits="userSpaceOnUse" x1="-506.823" y1="357.885" x2="-503.873" y2="357.885" gradientTransform="matrix(1 0 0 -1 539 398.8101)">
					<stop  offset="0.0816" style="stop-color:#931B21"/>
					<stop  offset="0.2092" style="stop-color:#A11D24"/>
					<stop  offset="0.7092" style="stop-color:#721816"/>
					<stop  offset="0.9133" style="stop-color:#630C0D"/>
				</linearGradient>
				<rect x="32.18" y="39.19" fill="url(#SVGID_6_)" width="2.95" height="3.47"/>
			</g>
			<g>
				
					<linearGradient id="SVGID_7_" gradientUnits="userSpaceOnUse" x1="-509.77" y1="365.005" x2="-506.82" y2="365.005" gradientTransform="matrix(1 0 0 -1 539 398.8101)">
					<stop  offset="0.0816" style="stop-color:#931B21"/>
					<stop  offset="0.2092" style="stop-color:#A11D24"/>
					<stop  offset="0.7092" style="stop-color:#721816"/>
					<stop  offset="0.9133" style="stop-color:#630C0D"/>
				</linearGradient>
				<rect x="29.23" y="32.02" fill="url(#SVGID_7_)" width="2.95" height="3.57"/>
				
					<linearGradient id="SVGID_8_" gradientUnits="userSpaceOnUse" x1="-506.823" y1="365.005" x2="-503.873" y2="365.005" gradientTransform="matrix(1 0 0 -1 539 398.8101)">
					<stop  offset="0.0816" style="stop-color:#931B21"/>
					<stop  offset="0.2092" style="stop-color:#A11D24"/>
					<stop  offset="0.7092" style="stop-color:#721816"/>
					<stop  offset="0.9133" style="stop-color:#630C0D"/>
				</linearGradient>
				<rect x="32.18" y="32.02" fill="url(#SVGID_8_)" width="2.95" height="3.57"/>
			</g>
			<g>
				<rect x="29.23" y="15.38" fill="#E5E3E3" width="2.95" height="3.47"/>
				<rect x="32.18" y="15.38" fill="#ADABAC" width="2.95" height="3.47"/>
			</g>
		</g>
		<g>
			<circle fill="#B1ABAD" cx="63.55" cy="55.8" r="2.5"/>
			<circle fill="#B1ABAD" cx="53.31" cy="55.91" r="2.5"/>
			<circle fill="#B1ABAD" cx="29.14" cy="55.8" r="2.5"/>
			<circle fill="#B1ABAD" cx="18.85" cy="55.8" r="2.5"/>
		</g>
		<g>
			<path fill="#B7B5B5" d="M88.5,92.72c0,0-0.07-10.42-14.72-10.53v2.3c11.99-0.73,12.63,8.68,12.63,8.68v10.25l2.08-0.02V92.72
				H88.5z"/>
			<path fill="#8B8788" d="M73.78,84.48v2.33c0,0,9.19-2.25,10.69,5.98l0.07,10.64l1.87-0.01V93.16
				C86.42,93.16,85.77,83.75,73.78,84.48z"/>
		</g>
		<g>
			<rect x="5.01" y="76.17" fill="#DAC8B9" width="72.18" height="27.25"/>
			<rect x="5.01" y="55.91" fill="#FFEFE1" width="72.18" height="20.25"/>
		</g>
		<rect x="5.01" y="72.12" fill="#F2F2F2" width="72.18" height="4.05"/>
		<rect x="5.01" y="79.92" fill="#3B3B3B" width="72.18" height="3.89"/>
		<rect x="64.85" y="79.92" fill="#F1F1F1" width="1.37" height="3.89"/>
		<rect x="52.73" y="79.92" fill="#F1F1F1" width="1.53" height="3.89"/>
		<rect x="28.28" y="79.92" fill="#F1F1F1" width="1.53" height="3.89"/>
		<g>
			<g>
				<rect x="63" y="92.72" fill="#878586" width="10.55" height="10.71"/>
				<rect x="63" y="94.31" fill="#5B595A" width="10.55" height="1.66"/>
				<rect x="63" y="97.24" fill="#5B595A" width="10.55" height="1.66"/>
				<rect x="63" y="100.33" fill="#5B595A" width="10.55" height="1.66"/>
			</g>
			<g>
				<path fill="none" d="M68.93,88.41c0-0.36-0.29-0.66-0.65-0.66v1.31C68.64,89.07,68.93,88.77,68.93,88.41z"/>
				<path fill="none" d="M67.62,88.41c0,0.36,0.29,0.65,0.65,0.65v-1.31C67.91,87.76,67.62,88.05,67.62,88.41z"/>
				<path fill="#818081" d="M67.62,88.41c0-0.36,0.29-0.66,0.65-0.66v-1.47c-0.69,0-1.24,0.95-1.24,2.13s0.56,2.13,1.24,2.13v-1.47
					C67.91,89.07,67.62,88.77,67.62,88.41z"/>
				<path fill="#575455" d="M68.27,86.28v1.47c0.36,0,0.65,0.29,0.65,0.66c0,0.36-0.29,0.65-0.65,0.65v1.47
					c0.69,0,1.24-0.95,1.24-2.13C69.52,87.24,68.96,86.28,68.27,86.28z"/>
			</g>
		</g>
		<g>
			<g>
				<rect x="49.96" y="92.68" fill="#878586" width="10.55" height="10.71"/>
				<rect x="49.96" y="94.28" fill="#5B595A" width="10.55" height="1.66"/>
				<rect x="49.96" y="97.21" fill="#5B595A" width="10.55" height="1.66"/>
				<rect x="49.96" y="100.3" fill="#5B595A" width="10.55" height="1.66"/>
			</g>
			<g>
				<path fill="none" d="M55.89,88.38c0-0.36-0.29-0.66-0.66-0.66v1.31C55.6,89.04,55.89,88.74,55.89,88.38z"/>
				<path fill="none" d="M54.58,88.38c0,0.36,0.29,0.65,0.66,0.65v-1.31C54.87,87.73,54.58,88.02,54.58,88.38z"/>
				<path fill="#818081" d="M54.58,88.38c0-0.36,0.29-0.66,0.66-0.66v-1.47c-0.69,0-1.24,0.95-1.24,2.13s0.56,2.13,1.24,2.13v-1.47
					C54.87,89.04,54.58,88.74,54.58,88.38z"/>
				<path fill="#575455" d="M55.23,86.25v1.47c0.36,0,0.66,0.29,0.66,0.66c0,0.36-0.29,0.65-0.66,0.65v1.47
					c0.69,0,1.24-0.95,1.24-2.13C56.48,87.21,55.92,86.25,55.23,86.25z"/>
			</g>
		</g>
		<rect x="7.59" y="94.28" fill="#898989" width="39.41" height="9.14"/>
		<polygon opacity="0.2" enable-background="new    " points="23.28,70.18 56.48,103.39 18.23,103.42 18.23,70.18 		"/>
		<polygon opacity="0.2" enable-background="new    " points="41.66,70.18 74.63,103.39 36.37,103.42 36.37,69.35 		"/>
		<g>
			<g>
				
					<linearGradient id="SVGID_9_" gradientUnits="userSpaceOnUse" x1="-527.71" y1="299.965" x2="-514.31" y2="299.965" gradientTransform="matrix(1 0 0 -1 539 398.8101)">
					<stop  offset="0.0816" style="stop-color:#931B21"/>
					<stop  offset="0.2092" style="stop-color:#A11D24"/>
					<stop  offset="0.7092" style="stop-color:#721816"/>
					<stop  offset="0.9133" style="stop-color:#630C0D"/>
				</linearGradient>
				<path fill="url(#SVGID_9_)" d="M11.29,94.28v2.66c0,3.56,2.91,6.47,6.47,6.47h0.46c3.56,0,6.47-2.91,6.47-6.47v-2.66H11.29z"/>
				
					<linearGradient id="SVGID_10_" gradientUnits="userSpaceOnUse" x1="-527.7" y1="317.795" x2="-514.3" y2="317.795" gradientTransform="matrix(1 0 0 -1 539 398.8101)">
					<stop  offset="0.0816" style="stop-color:#931B21"/>
					<stop  offset="0.2092" style="stop-color:#A11D24"/>
					<stop  offset="0.7092" style="stop-color:#721816"/>
					<stop  offset="0.9133" style="stop-color:#630C0D"/>
				</linearGradient>
				<path fill="url(#SVGID_10_)" d="M24.7,74.21c0-3.56-2.91-6.47-6.47-6.47h-0.46c-3.56,0-6.47,2.91-6.47,6.47v20.08h13.4V74.21z"
					/>
			</g>
			
				<linearGradient id="SVGID_11_" gradientUnits="userSpaceOnUse" x1="-521" y1="315.125" x2="-514.3" y2="315.125" gradientTransform="matrix(1 0 0 -1 539 398.8101)">
				<stop  offset="0.0816" style="stop-color:#931B21"/>
				<stop  offset="0.2092" style="stop-color:#A11D24"/>
				<stop  offset="0.7092" style="stop-color:#721816"/>
				<stop  offset="0.9133" style="stop-color:#630C0D"/>
			</linearGradient>
			<rect x="18" y="74.21" fill="url(#SVGID_11_)" width="6.7" height="18.95"/>
			
				<linearGradient id="SVGID_12_" gradientUnits="userSpaceOnUse" x1="-521" y1="303.755" x2="-514.3" y2="303.755" gradientTransform="matrix(1 0 0 -1 539 398.8101)">
				<stop  offset="0.0816" style="stop-color:#931B21"/>
				<stop  offset="0.2092" style="stop-color:#A11D24"/>
				<stop  offset="0.7092" style="stop-color:#721816"/>
				<stop  offset="0.9133" style="stop-color:#630C0D"/>
			</linearGradient>
			<rect x="18" y="93.16" fill="url(#SVGID_12_)" width="6.7" height="3.79"/>
		</g>
		<g>
			<g>
				
					<linearGradient id="SVGID_13_" gradientUnits="userSpaceOnUse" x1="-509.33" y1="299.965" x2="-495.93" y2="299.965" gradientTransform="matrix(1 0 0 -1 539 398.8101)">
					<stop  offset="0.0816" style="stop-color:#931B21"/>
					<stop  offset="0.2092" style="stop-color:#A11D24"/>
					<stop  offset="0.7092" style="stop-color:#721816"/>
					<stop  offset="0.9133" style="stop-color:#630C0D"/>
				</linearGradient>
				<path fill="url(#SVGID_13_)" d="M29.67,94.28v2.66c0,3.56,2.91,6.47,6.47,6.47h0.46c3.56,0,6.47-2.91,6.47-6.47v-2.66H29.67z"/>
				
					<linearGradient id="SVGID_14_" gradientUnits="userSpaceOnUse" x1="-509.32" y1="317.795" x2="-495.91" y2="317.795" gradientTransform="matrix(1 0 0 -1 539 398.8101)">
					<stop  offset="0.0816" style="stop-color:#931B21"/>
					<stop  offset="0.2092" style="stop-color:#A11D24"/>
					<stop  offset="0.7092" style="stop-color:#721816"/>
					<stop  offset="0.9133" style="stop-color:#630C0D"/>
				</linearGradient>
				<path fill="url(#SVGID_14_)" d="M43.08,74.21c0-3.56-2.91-6.47-6.47-6.47h-0.46c-3.56,0-6.47,2.91-6.47,6.47v20.08h13.41V74.21
					H43.08z"/>
			</g>
			
				<linearGradient id="SVGID_15_" gradientUnits="userSpaceOnUse" x1="-502.63" y1="315.125" x2="-495.93" y2="315.125" gradientTransform="matrix(1 0 0 -1 539 398.8101)">
				<stop  offset="0.0816" style="stop-color:#931B21"/>
				<stop  offset="0.2092" style="stop-color:#A11D24"/>
				<stop  offset="0.7092" style="stop-color:#721816"/>
				<stop  offset="0.9133" style="stop-color:#630C0D"/>
			</linearGradient>
			<rect x="36.37" y="74.21" fill="url(#SVGID_15_)" width="6.7" height="18.95"/>
			
				<linearGradient id="SVGID_16_" gradientUnits="userSpaceOnUse" x1="-502.63" y1="303.755" x2="-495.93" y2="303.755" gradientTransform="matrix(1 0 0 -1 539 398.8101)">
				<stop  offset="0.0816" style="stop-color:#931B21"/>
				<stop  offset="0.2092" style="stop-color:#A11D24"/>
				<stop  offset="0.7092" style="stop-color:#721816"/>
				<stop  offset="0.9133" style="stop-color:#630C0D"/>
			</linearGradient>
			<rect x="36.37" y="93.16" fill="url(#SVGID_16_)" width="6.7" height="3.79"/>
		</g>
		<rect x="7.59" y="92.68" fill="#FFFFFF" width="39.41" height="2.37"/>
	</g>
	<g>
		<path fill="#58595B" d="M448.02,120.08c-0.48,0.33-1.01,0.33-1.19,0.33c-0.27,0-1.36-0.02-1.72-1.05
			c-0.1-0.28-0.12-0.56-0.12-0.85v-0.84h0.9v0.38c0,0.52,0,0.76,0.09,1.01c0.08,0.21,0.3,0.55,0.85,0.55c0.37,0,0.72-0.16,0.88-0.5
			c0.09-0.18,0.09-0.38,0.09-0.45c0-0.65-0.29-0.92-0.71-1.35l-1.03-1.06c-0.6-0.62-0.88-1.03-0.88-1.92c0-0.11,0-0.41,0.09-0.72
			c0.15-0.5,0.57-1.05,1.69-1.05c0.26,0,1.29,0.01,1.55,1c0.07,0.26,0.07,0.62,0.07,0.89v0.49h-0.84c-0.01-0.48-0.01-0.36-0.01-0.63
			c0-0.35-0.05-0.68-0.41-0.86c-0.17-0.08-0.34-0.08-0.4-0.08c-0.23,0-0.42,0.05-0.57,0.21c-0.09,0.08-0.13,0.17-0.15,0.21
			c-0.04,0.1-0.08,0.26-0.08,0.51c0,0.07,0,0.26,0.06,0.44c0.12,0.36,0.44,0.65,0.69,0.92l1.2,1.28c0.09,0.1,0.16,0.19,0.24,0.29
			c0.18,0.24,0.42,0.64,0.42,1.36C448.71,119.48,448.35,119.87,448.02,120.08z"/>
		<path fill="#58595B" d="M452.98,120.17c-0.45,0.25-0.94,0.24-1.1,0.24c-0.46,0-1.04-0.1-1.4-0.44c-0.08-0.08-0.22-0.25-0.31-0.52
			c-0.14-0.41-0.13-0.95-0.13-1.05v-5.73H451v5.06c0,0.65-0.02,1.11,0.09,1.38c0.11,0.28,0.36,0.39,0.45,0.42
			c0.1,0.03,0.18,0.05,0.38,0.05c0.29,0,0.51-0.04,0.69-0.28c0.03-0.04,0.1-0.13,0.13-0.27c0.03-0.15,0.04-0.52,0.04-0.94v-5.43
			h0.96v5.7C453.74,119.08,453.69,119.78,452.98,120.17z"/>
		<path fill="#58595B" d="M458.6,116.69c-0.36,0.43-1.01,0.48-1.51,0.48h-0.8v3.14h-0.95v-7.64h1.98c0.75,0,1.05,0.22,1.29,0.51
			c0.44,0.54,0.4,1.18,0.4,1.81C459,115.04,459.07,116.12,458.6,116.69z M458.05,114.29c-0.09-0.76-0.65-0.77-1.27-0.77h-0.5v2.8
			h0.64c0.42,0,0.85,0.02,1.06-0.44c0.09-0.18,0.09-0.42,0.09-0.85C458.07,114.78,458.07,114.54,458.05,114.29z"/>
		<path fill="#58595B" d="M463.65,116.69c-0.36,0.43-1.01,0.48-1.51,0.48h-0.8v3.14h-0.95v-7.64h1.98c0.75,0,1.05,0.22,1.29,0.51
			c0.44,0.54,0.4,1.18,0.4,1.81C464.06,115.04,464.12,116.12,463.65,116.69z M463.1,114.29c-0.09-0.76-0.65-0.77-1.27-0.77h-0.5v2.8
			h0.64c0.42,0,0.85,0.02,1.06-0.44c0.09-0.18,0.09-0.42,0.09-0.85C463.12,114.78,463.12,114.54,463.1,114.29z"/>
		<path fill="#58595B" d="M465.44,120.3v-7.64h0.97v6.78h2.24v0.85h-3.21V120.3z"/>
		<path fill="#58595B" d="M469.81,120.3v-7.64h0.94v7.64H469.81z"/>
		<path fill="#58595B" d="M472.38,120.3v-7.64h3.36v0.85h-2.41v2.27h2.11v0.87h-2.11v2.79h2.49v0.85h-3.44V120.3z"/>
		<path fill="#58595B" d="M480.23,120.3l-1.3-3.35h-0.79v3.35h-0.94v-7.64h1.67c0.49,0,1.02,0.02,1.43,0.36
			c0.64,0.52,0.59,1.53,0.59,1.68c0,0.32-0.02,0.64-0.08,0.95c-0.08,0.43-0.19,0.65-0.31,0.8c-0.24,0.29-0.52,0.36-0.64,0.39
			l1.36,3.46H480.23z M479.85,114.03c-0.19-0.55-0.78-0.51-1.24-0.51h-0.46v2.67h0.5c0.42,0,0.63-0.01,0.83-0.09
			c0.48-0.2,0.46-0.87,0.46-1.27C479.94,114.59,479.94,114.28,479.85,114.03z"/>
	</g>
	
		<linearGradient id="SVGID_17_" gradientUnits="userSpaceOnUse" x1="-504.76" y1="255.9178" x2="-68.14" y2="255.9178" gradientTransform="matrix(1 0 0 -1 539 398.8101)">
		<stop  offset="0.0816" style="stop-color:#931B21"/>
		<stop  offset="0.2092" style="stop-color:#A11D24"/>
		<stop  offset="0.7092" style="stop-color:#721816"/>
		<stop  offset="0.9133" style="stop-color:#630C0D"/>
	</linearGradient>
	<path fill="url(#SVGID_17_)" d="M465.11,130.47c-1.92,2.3-3.82,4.58-5.76,6.9h2.87c0.01,0.08,0.01,0.14,0.01,0.2h-0.12l0,0v7.01
		c0,1.77-0.44,3.11-1.31,3.96c-0.65,0.64-0.77,0.89-0.73,0.99H387.7l0,0H45.02c0.04-0.1-0.08-0.35-0.73-0.99
		c-0.87-0.85-1.31-2.19-1.31-3.96v-7.01l0,0h-0.12c0-0.06,0.01-0.12,0.01-0.2h2.87c-1.94-2.32-3.84-4.6-5.76-6.9
		c-1.91,2.29-3.81,4.57-5.74,6.89c0.12,0.01,0.19,0.01,0.26,0.01c0.73,0,1.46,0,2.19,0c0.5,0,0.42-0.05,0.42,0.42
		c0,2.37,0.09,3.08,0.21,3.36v3.41c0,3.44,1.04,6.19,3.1,8.18c3.04,2.94,3.64,2.58,4.42,2.54h325.09h16.19v0.02
		c0.79,0,1.39,0,1.87,0v-0.02h72.27c0.78,0.04,1.38,0.4,4.42-2.54c2.06-1.99,3.1-4.74,3.1-8.18v-3.41c0.11-0.28,0.21-0.99,0.21-3.36
		c0-0.47-0.08-0.42,0.42-0.42c0.73,0,1.46,0,2.19,0c0.07,0,0.14-0.01,0.26-0.01C468.92,135.04,467.03,132.77,465.11,130.47z"/>
	
		<linearGradient id="SVGID_18_" gradientUnits="userSpaceOnUse" x1="-438.66" y1="326.695" x2="-387.21" y2="326.695" gradientTransform="matrix(1 0 0 -1 539 398.8101)">
		<stop  offset="0.0816" style="stop-color:#931B21"/>
		<stop  offset="0.2092" style="stop-color:#A11D24"/>
		<stop  offset="0.7092" style="stop-color:#721816"/>
		<stop  offset="0.9133" style="stop-color:#630C0D"/>
	</linearGradient>
	<path fill="url(#SVGID_18_)" d="M144.89,66.28c0,1.01,0,2.84,0,3.78l-37.62-0.78c-0.04-0.04-0.03-0.15-0.03-0.4
		c0-0.74,0-1.59,0-2.34c0-0.07-0.01-0.14-0.01-0.26c-2.32,1.96-4.59,3.89-6.89,5.83c2.3,1.95,4.58,3.88,6.9,5.84
		c0-1.01,0-2.72,0-3.67h37.62c0.04,0.04,0.03,0.15,0.03,0.4c0,0.74,0,2.26,0,3c0,0.07,0.01,0.14,0.01,0.26
		c2.32-1.96,4.59-3.89,6.89-5.83C149.49,70.17,147.21,68.24,144.89,66.28z"/>
	
		<linearGradient id="SVGID_19_" gradientUnits="userSpaceOnUse" x1="-186.32" y1="326.695" x2="-134.87" y2="326.695" gradientTransform="matrix(1 0 0 -1 539 398.8101)">
		<stop  offset="0.0816" style="stop-color:#931B21"/>
		<stop  offset="0.2092" style="stop-color:#A11D24"/>
		<stop  offset="0.7092" style="stop-color:#721816"/>
		<stop  offset="0.9133" style="stop-color:#630C0D"/>
	</linearGradient>
	<path fill="url(#SVGID_19_)" d="M397.23,66.28c0,1.01,0,2.84,0,3.78l-37.62-0.78c-0.04-0.04-0.03-0.15-0.03-0.4
		c0-0.74,0-1.59,0-2.34c0-0.07-0.01-0.14-0.01-0.26c-2.32,1.96-4.59,3.89-6.89,5.83c2.3,1.95,4.58,3.88,6.9,5.84
		c0-1.01,0-2.72,0-3.67h37.62c0.04,0.04,0.03,0.15,0.03,0.4c0,0.74,0,2.26,0,3c0,0.07,0.01,0.14,0.01,0.26
		c2.32-1.96,4.59-3.89,6.89-5.83C401.83,70.17,399.55,68.24,397.23,66.28z"/>
	<g>
		<path fill="#E7E6E6" d="M308.02,30.22c-8.19,0-14.86-6.67-14.86-14.86S299.83,0.5,308.02,0.5s14.86,6.67,14.86,14.86
			S316.22,30.22,308.02,30.22z"/>
		<path fill="#58595B" d="M308.02,1c7.93,0,14.36,6.43,14.36,14.36s-6.43,14.36-14.36,14.36s-14.36-6.43-14.36-14.36
			C293.67,7.43,300.09,1,308.02,1 M308.02,0c-8.47,0-15.36,6.89-15.36,15.36s6.89,15.36,15.36,15.36s15.36-6.89,15.36-15.36
			S316.49,0,308.02,0L308.02,0z"/>
	</g>
	<g>
		<g>
			<path fill="#741012" d="M311.05,9.62c1.23-0.69,2.39-1.46,3.45-2.39c1.26,1.01,2.3,2.2,3.12,3.58c-1.3,1.01-2.67,1.89-4.11,2.7
				C312.82,12.13,312.01,10.84,311.05,9.62z"/>
			<path fill="#741012" d="M298.47,19.04c1.71-0.22,3.37-0.59,5.02-1.05c0.73,1.34,1.6,2.59,2.61,3.78c-0.36,0.09-0.68,0.19-1,0.26
				c-0.98,0.21-1.96,0.41-2.94,0.61c-0.16,0.03-0.31,0.05-0.47,0.07c-0.15,0.02-0.26,0-0.39-0.12c-1-0.89-1.85-1.9-2.54-3.04
				C298.66,19.4,298.58,19.22,298.47,19.04z"/>
			<path fill="#741012" d="M308.48,15.85c-0.1-0.3-0.21-0.61-0.3-0.92c-0.08-0.26-0.15-0.52-0.21-0.79
				c-0.02-0.1-0.07-0.13-0.16-0.13c-0.08,0.01-0.15,0-0.19-0.1c-0.33-0.73-0.66-1.46-0.98-2.18c1.37-0.63,2.73-1.27,4.1-1.91
				c0.93,1.18,1.75,2.47,2.44,3.87c-0.75,0.38-1.49,0.75-2.27,1.15c0-0.3,0-0.55,0-0.83c-0.16,0-0.29,0-0.43,0
				c-0.38,0-0.75,0-1.13,0c-0.1,0-0.15,0.03-0.17,0.14c-0.12,0.48-0.26,0.96-0.38,1.45C308.78,15.76,308.71,15.85,308.48,15.85z"/>
			<path fill="#741012" d="M301.41,8.58c0,0.19,0,0.37,0,0.55c0,0.5,0,0.99,0.02,1.49c0.01,0.33,0.05,0.66,0.09,0.98
				c0.05,0.38,0.1,0.76,0.16,1.14c0.02,0.15,0.03,0.23-0.16,0.26c-0.81,0.14-1.62,0.32-2.44,0.46c-0.54,0.09-1.09,0.14-1.64,0.21
				c-0.09,0.01-0.19,0-0.32,0c0.02-0.32,0-0.63,0.05-0.93c0.09-0.6,0.2-1.2,0.34-1.78c0.17-0.71,0.43-1.38,0.75-2.04
				c0.05-0.11,0.1-0.15,0.23-0.14c0.95,0.02,1.89-0.03,2.82-0.19C301.34,8.57,301.37,8.58,301.41,8.58z"/>
			<path fill="#741012" d="M310.15,20.37c-0.54,0.21-1.05,0.42-1.58,0.6c-0.63,0.22-1.27,0.42-1.9,0.63
				c-0.12,0.04-0.2,0.03-0.28-0.07c-0.65-0.78-1.27-1.58-1.81-2.43c-0.22-0.35-0.42-0.7-0.63-1.05c-0.03-0.05-0.05-0.1-0.08-0.16
				c0.11-0.04,0.2-0.08,0.3-0.09c0.05,0,0.13,0.05,0.16,0.1c0.05,0.1,0.12,0.13,0.23,0.13c0.42-0.01,0.84,0,1.29,0
				c-0.12-0.22-0.22-0.43-0.34-0.65c0.24-0.08,0.48-0.16,0.73-0.25c0,0.31,0,0.59,0,0.89c0.36,0,0.69,0,1.06,0c0-0.16,0-0.32,0-0.48
				c0-0.21,0.01-0.41,0-0.62c-0.01-0.13,0.02-0.22,0.17-0.24c0.08-0.01,0.15-0.06,0.24-0.09c0.07,0.27,0.14,0.53,0.21,0.79
				c0.05,0.18,0.09,0.35,0.13,0.53c0.02,0.09,0.07,0.13,0.17,0.13c0.29-0.01,0.57,0,0.86,0C309.44,18.8,309.79,19.58,310.15,20.37z"
				/>
			<path fill="#741012" d="M310.81,9.32c-0.97-1.19-2.05-2.26-3.24-3.23c0.23-0.16,0.45-0.31,0.66-0.48
				c0.39-0.32,0.77-0.66,1.16-0.98c0.05-0.04,0.15-0.08,0.2-0.06c1.65,0.57,3.19,1.35,4.58,2.41c0,0,0.01,0.01,0.02,0.03
				C313.16,7.91,312.02,8.65,310.81,9.32z"/>
			<path fill="#741012" d="M306.48,11.37c-0.58-1.28-1.15-2.54-1.72-3.8c0.42-0.2,0.85-0.39,1.26-0.6c0.37-0.19,0.74-0.4,1.11-0.61
				c0.09-0.05,0.14-0.06,0.22,0.01c0.89,0.72,1.72,1.51,2.49,2.36c0.22,0.24,0.43,0.5,0.66,0.77
				C309.18,10.21,307.84,10.8,306.48,11.37z"/>
			<path fill="#741012" d="M302.08,12.86c-0.05-0.27-0.1-0.54-0.14-0.81c-0.13-0.99-0.2-1.98-0.17-2.98c0-0.17,0.02-0.34,0.04-0.51
				c0-0.03,0.05-0.08,0.08-0.09c0.86-0.18,1.68-0.44,2.52-0.77c0.11,0.23,0.21,0.45,0.31,0.68c0.45,0.99,0.89,1.97,1.35,2.96
				c0.06,0.13,0.05,0.18-0.09,0.24c-1.23,0.48-2.48,0.91-3.76,1.25C302.18,12.84,302.14,12.84,302.08,12.86z"/>
			<path fill="#741012" d="M314.82,18.63c0.03,0.2,0.08,0.42,0.09,0.64c0.04,0.6,0.1,1.19,0.1,1.79c0,0.53-0.06,1.07-0.1,1.6
				c-0.01,0.07-0.06,0.17-0.12,0.2c-0.82,0.38-1.65,0.76-2.48,1.13c-0.02,0.01-0.05,0.02-0.1,0.03c-0.52-1.16-1.05-2.31-1.56-3.44
				C312.05,19.93,313.43,19.28,314.82,18.63z"/>
			<path fill="#741012" d="M301.89,23.06c0.27-0.05,0.5-0.08,0.73-0.13c0.76-0.15,1.52-0.3,2.28-0.47c0.44-0.1,0.88-0.22,1.31-0.35
				c0.13-0.04,0.22,0,0.31,0.09c0.58,0.58,1.15,1.17,1.74,1.74c0.35,0.33,0.73,0.63,1.1,0.94c0.03,0.03,0.07,0.04,0.1,0.07
				c-0.01,0.02-0.01,0.03-0.02,0.05c-0.31,0.09-0.61,0.18-0.92,0.25c-0.61,0.14-1.22,0.27-1.82,0.4c-0.14,0.03-0.27,0.03-0.41-0.03
				c-1.52-0.63-2.94-1.42-4.25-2.42C301.99,23.17,301.95,23.13,301.89,23.06z"/>
			<path fill="#741012" d="M312.23,27.67c-1.54,0.55-3.13,0.76-4.75,0.69c-2.28-0.1-4.41-0.71-6.37-1.91c0.52,0,1.04,0.02,1.56,0
				c0.73-0.04,1.45-0.09,2.17-0.16c0.49-0.05,0.98-0.14,1.46-0.2c0.07-0.01,0.16,0.01,0.23,0.04c1.56,0.62,3.18,1.05,4.83,1.39
				C311.65,27.58,311.94,27.62,312.23,27.67z"/>
			<path fill="#741012" d="M297.54,23.42c0.62-0.03,1.22-0.05,1.82-0.08c0.43-0.03,0.86-0.08,1.29-0.13
				c0.21-0.02,0.42-0.06,0.62-0.07c0.05,0,0.12,0.02,0.17,0.06c0.78,0.63,1.6,1.2,2.48,1.68c0.58,0.32,1.18,0.61,1.79,0.92
				c-0.11,0.02-0.22,0.05-0.33,0.06c-0.48,0.05-0.96,0.11-1.44,0.14c-0.94,0.05-1.88,0.08-2.82,0.1c-0.22,0.01-0.44,0.01-0.65-0.04
				c-0.16-0.04-0.29-0.16-0.43-0.26c-0.88-0.64-1.67-1.37-2.38-2.2C297.62,23.55,297.58,23.49,297.54,23.42z"/>
			<path fill="#741012" d="M313.69,13.84c1.43-0.81,2.81-1.68,4.12-2.7c0.52,0.94,0.89,1.91,1.13,2.98
				c-0.08-0.02-0.14-0.04-0.2-0.06c-0.59-0.16-1.18-0.16-1.76,0.03c-0.52,0.16-0.82,0.59-0.81,1.1c0.01,0.41,0.24,0.7,0.59,0.87
				c0.26,0.13,0.54,0.2,0.81,0.3c0.03,0.01,0.06,0.02,0.13,0.04c-0.16,0.11-0.27,0.23-0.41,0.27c-0.13,0.04-0.29-0.01-0.43-0.01
				c-0.28,0.01-0.56,0.03-0.87,0.04c0.06,0.23,0.13,0.45,0.19,0.69c-0.14,0.09-0.3,0.19-0.49,0.3c-0.15-0.38-0.29-0.74-0.43-1.1
				c-0.31-0.81-0.63-1.62-0.94-2.43c-0.05-0.12-0.1-0.16-0.22-0.15c-0.07,0.01-0.14,0-0.21,0
				C313.78,14.03,313.72,13.97,313.69,13.84z"/>
			<path fill="#741012" d="M295.26,19.23c0.15,0,0.29,0.01,0.42,0c0.74-0.04,1.49-0.09,2.23-0.13c0.1-0.01,0.18,0,0.24,0.11
				c0.68,1.3,1.59,2.44,2.66,3.44c0.04,0.03,0.07,0.07,0.11,0.11c0.01,0.01,0.02,0.03,0.04,0.06c-0.22,0.03-0.44,0.07-0.65,0.08
				c-0.95,0.05-1.91,0.09-2.86,0.14c-0.16,0.01-0.26-0.04-0.35-0.17c-0.78-1.09-1.39-2.27-1.81-3.55
				C295.26,19.29,295.26,19.27,295.26,19.23z"/>
			<path fill="#741012" d="M319.09,17.87c-0.11,0.91-0.33,1.79-0.64,2.64c-0.02,0.06-0.06,0.12-0.11,0.16
				c-0.94,0.7-1.93,1.32-2.96,1.88c-0.02,0.01-0.04,0.02-0.08,0.03c0.01-0.23,0.04-0.43,0.04-0.64c0-0.66,0.02-1.32-0.01-1.98
				c-0.02-0.49-0.11-0.98-0.16-1.47c0-0.04,0.04-0.11,0.07-0.13c0.37-0.22,0.73-0.43,1.11-0.64c0.03-0.02,0.1-0.01,0.13,0.01
				c0.23,0.21,0.51,0.28,0.79,0.33c0.45,0.07,0.9,0.08,1.34-0.03C318.78,17.99,318.93,17.92,319.09,17.87z"/>
			<path fill="#741012" d="M316.07,4.96c-0.24,0.3-0.46,0.59-0.7,0.87c-0.22,0.26-0.47,0.49-0.7,0.75c-0.12,0.13-0.2,0.16-0.36,0.03
				c-1.29-0.97-2.7-1.71-4.21-2.27c-0.1-0.04-0.21-0.08-0.27-0.1c0.32-0.51,0.64-1.03,0.97-1.54c0.03-0.04,0.13-0.07,0.18-0.06
				c0.85,0.19,1.69,0.45,2.49,0.8c0.88,0.38,1.71,0.85,2.49,1.41C315.98,4.89,316.01,4.91,316.07,4.96z"/>
			<path fill="#741012" d="M316.39,5.2c1.34,1.03,2.43,2.3,3.32,3.81c-0.59,0.53-1.17,1.05-1.78,1.59c-0.84-1.4-1.89-2.6-3.12-3.6
				C315.34,6.4,315.86,5.8,316.39,5.2z"/>
			<path fill="#741012" d="M310.49,20.21c-0.41-0.89-0.81-1.77-1.2-2.65c-0.04-0.08-0.04-0.19-0.02-0.28
				c0.11-0.44,0.24-0.88,0.34-1.32c0.03-0.13,0.09-0.2,0.24-0.23c0,0.76,0,1.51,0,2.27c0.36,0,0.71,0,1.07,0c0-0.07,0-0.14,0-0.2
				c0-0.78,0-1.56,0-2.35c0-0.15,0.04-0.24,0.19-0.31c0.49-0.23,0.98-0.47,1.47-0.71c0.03-0.02,0.07-0.03,0.16-0.06
				c-0.48,1.23-0.94,2.43-1.42,3.65c0.36,0,0.69,0,1.01,0c0.3,0,0.3,0,0.38-0.29c0.11-0.36,0.11-0.36,0.49-0.36
				c0.32,0,0.64,0,0.96,0c0.09,0,0.14,0.02,0.16,0.11c0.03,0.12,0.07,0.23,0.1,0.34c0.03,0.12,0.07,0.23,0.24,0.2
				c0.03,0,0.09,0.06,0.09,0.09c0,0.04-0.04,0.11-0.07,0.13c-0.39,0.21-0.77,0.42-1.17,0.6c-0.97,0.45-1.94,0.89-2.92,1.33
				C310.55,20.19,310.52,20.2,310.49,20.21z"/>
			<path fill="#741012" d="M310.31,20.73c0.52,1.14,1.04,2.29,1.57,3.46c-0.63,0.22-1.25,0.43-1.86,0.63
				c-0.07,0.02-0.18-0.02-0.24-0.07c-0.99-0.78-1.91-1.64-2.79-2.54c-0.07-0.07-0.13-0.15-0.19-0.22
				C307.97,21.56,309.13,21.15,310.31,20.73z"/>
			<path fill="#741012" d="M296.86,18.03c0.22,0,0.41,0,0.6,0c0.09,0,0.14,0.02,0.18,0.11c0.08,0.19,0.17,0.38,0.26,0.59
				c-0.27,0.03-0.53,0.07-0.79,0.08c-0.62,0.02-1.23,0.02-1.85,0.04c-0.11,0-0.15-0.04-0.17-0.14c-0.12-0.61-0.27-1.21-0.34-1.82
				c-0.08-0.65-0.09-1.32-0.11-1.98c-0.01-0.27,0.04-0.54,0.06-0.81c0.69,0,1.36,0,2.04,0c0.02,0.14,0.04,0.29,0.05,0.43
				c0.04,0.79,0.18,1.55,0.4,2.31c0.04,0.13,0.04,0.25-0.02,0.37C297.07,17.47,296.97,17.74,296.86,18.03z"/>
			<path fill="#741012" d="M297.46,16.44c-0.2-0.8-0.32-1.57-0.32-2.38c1.57-0.11,3.11-0.36,4.65-0.74c0.05,0.21,0.1,0.41,0.14,0.61
				c0.01,0.02-0.01,0.07-0.02,0.07c-0.17,0.02-0.11,0.15-0.11,0.23c0,1.18,0,2.36,0,3.55c0,0.09,0,0.17,0,0.28
				c-0.55,0.12-1.1,0.24-1.65,0.34s-1.11,0.18-1.66,0.27c-0.13,0.02-0.23,0.01-0.28-0.14c-0.06-0.16-0.14-0.32-0.18-0.42
				c0.08-0.1,0.13-0.16,0.18-0.23c0.01-0.01,0.01-0.02,0.02-0.03c0.05-0.15,0.07-0.37,0.17-0.44c0.11-0.08,0.32-0.02,0.48-0.03
				c0.26,0,0.53,0,0.79,0c0.11,0,0.16,0.02,0.19,0.14c0.04,0.17,0.06,0.4,0.18,0.48c0.13,0.09,0.35,0.03,0.53,0.03
				c0.25,0,0.5,0,0.78,0c-0.05-0.13-0.08-0.24-0.12-0.35c-0.45-1.17-0.91-2.35-1.36-3.52c-0.04-0.11-0.09-0.15-0.21-0.14
				c-0.37,0.01-0.74,0.01-1.11,0c-0.1,0-0.15,0.04-0.18,0.13c-0.27,0.72-0.55,1.43-0.83,2.15C297.52,16.33,297.5,16.37,297.46,16.44
				z"/>
			<path fill="#741012" d="M302.33,14.01c-0.06-0.27-0.12-0.52-0.18-0.78c0.28-0.08,0.55-0.14,0.81-0.23
				c1.05-0.36,2.09-0.71,3.14-1.08c0.15-0.05,0.21-0.04,0.28,0.1c0.27,0.62,0.56,1.23,0.83,1.85c0.02,0.04,0.03,0.08,0.05,0.14
				c-0.33,0-0.65,0-1,0c0,0.08,0,0.14,0,0.21c0,0.78,0,1.56,0,2.35c0,0.12-0.03,0.19-0.15,0.22c-0.22,0.06-0.43,0.14-0.65,0.21
				c-0.08,0.03-0.13,0.02-0.18-0.06c-0.17-0.29-0.35-0.56-0.73-0.67c0.34-0.09,0.62-0.22,0.8-0.5c0.41-0.63,0.13-1.61-0.73-1.69
				c-0.46-0.04-0.92-0.05-1.38-0.07C302.93,14.01,302.64,14.01,302.33,14.01z"/>
			<path fill="#741012" d="M318.12,10.92c0.59-0.52,1.18-1.04,1.78-1.58c0.14,0.29,0.28,0.58,0.41,0.87
				c0.39,0.87,0.67,1.77,0.85,2.7c0.01,0.05,0.01,0.13-0.02,0.17c-0.46,0.64-0.98,1.23-1.55,1.76c-0.25-0.34-0.26-0.74-0.36-1.12
				c-0.24-0.96-0.6-1.88-1.08-2.74C318.13,10.96,318.13,10.94,318.12,10.92z"/>
			<path fill="#741012" d="M297.93,8.75c-0.74,1.57-1.15,3.21-1.18,4.96c-0.67,0-1.34,0-2.04,0c0.14-0.62,0.26-1.24,0.42-1.85
				c0.31-1.12,0.79-2.18,1.39-3.17c0.05-0.08,0.1-0.13,0.2-0.11c0.35,0.05,0.7,0.09,1.05,0.14C297.82,8.72,297.87,8.73,297.93,8.75z
				"/>
			<path fill="#741012" d="M321.28,13.56c0.03,0.28,0.07,0.51,0.09,0.75c0.05,0.77,0.07,1.54-0.03,2.3
				c-0.06,0.45-0.11,0.91-0.22,1.36c-0.04,0.19-0.21,0.36-0.35,0.51c-0.5,0.5-1,0.99-1.51,1.48c-0.08,0.07-0.17,0.13-0.28,0.23
				c0.08-0.29,0.16-0.54,0.21-0.8c0.11-0.58,0.2-1.16,0.3-1.74c0.02-0.1,0.06-0.19,0.1-0.28c0.21-0.41,0.21-0.8,0.01-1.23
				c-0.09-0.2-0.06-0.46-0.08-0.7c0-0.03,0.03-0.06,0.06-0.08c0.59-0.52,1.12-1.08,1.6-1.7C321.2,13.62,321.22,13.61,321.28,13.56z"
				/>
			<path fill="#741012" d="M302.2,3.86c-0.39,1.41-0.65,2.84-0.76,4.31c-0.95,0.19-1.91,0.25-2.91,0.21
				C299.46,6.63,300.72,5.16,302.2,3.86z"/>
			<path fill="#741012" d="M320.91,18.9c-1.03,3.32-3.02,5.81-5.96,7.56c0.18-0.18,0.35-0.35,0.53-0.53
				c1.38-1.45,2.47-3.08,3.21-4.94c0.05-0.12,0.16-0.23,0.27-0.31c0.67-0.53,1.29-1.1,1.88-1.72
				C320.84,18.95,320.85,18.94,320.91,18.9z"/>
			<path fill="#741012" d="M303.69,3.03c2.24-0.72,4.47-0.89,6.8-0.47c-0.24,0.37-0.47,0.71-0.7,1.05c-0.1,0.14-0.21,0.27-0.33,0.39
				c-0.05,0.05-0.16,0.07-0.22,0.05c-0.98-0.32-1.98-0.55-2.99-0.72c-0.58-0.1-1.16-0.15-1.74-0.22
				C304.25,3.09,303.99,3.06,303.69,3.03z"/>
			<path fill="#741012" d="M304.61,7.25c-0.59-1.29-1.15-2.54-1.72-3.79c0.01-0.01,0.02-0.02,0.04-0.03
				c1.4,0.77,2.74,1.63,4.04,2.65C306.16,6.47,305.39,6.86,304.61,7.25z"/>
			<path fill="#741012" d="M301.82,8.1c0.1-1.48,0.38-2.89,0.81-4.31c0.55,1.21,1.08,2.38,1.62,3.57
				C303.47,7.68,302.68,7.92,301.82,8.1z"/>
			<path fill="#741012" d="M314.41,26.39c0.1-0.33,0.23-0.65,0.31-0.98c0.17-0.71,0.33-1.43,0.48-2.15c0.03-0.14,0.08-0.23,0.22-0.3
				c0.86-0.51,1.72-1.04,2.57-1.56c0.04-0.03,0.08-0.05,0.16-0.1C317.27,23.29,316.02,24.97,314.41,26.39z"/>
			<path fill="#741012" d="M309.09,4.45c-0.43,0.35-0.87,0.69-1.3,1.04c-0.11,0.08-0.23,0.15-0.33,0.24
				c-0.13,0.11-0.23,0.1-0.36-0.01c-1.04-0.83-2.15-1.55-3.29-2.22c-0.02-0.01-0.03-0.03-0.04-0.06c1.81,0.09,3.58,0.41,5.31,0.95
				C309.08,4.41,309.08,4.43,309.09,4.45z"/>
			<path fill="#741012" d="M313.64,27.16c-0.42-0.92-0.84-1.84-1.26-2.77c0.82-0.37,1.62-0.73,2.44-1.11
				c-0.22,1.35-0.6,2.63-1.13,3.88C313.68,27.16,313.66,27.16,313.64,27.16z"/>
			<path fill="#741012" d="M312.93,27.38c-2.72-0.37-4.81-1.05-5.78-1.42c0.12-0.03,0.21-0.05,0.29-0.07
				c0.09-0.02,0.19-0.04,0.28-0.06c0.66-0.17,1.33-0.34,1.99-0.51c0.07-0.02,0.16-0.01,0.22,0.03c0.98,0.67,1.96,1.34,2.93,2.01
				C312.89,27.36,312.91,27.37,312.93,27.38z"/>
			<path fill="#741012" d="M301.4,4.08c-0.28,0.28-0.57,0.56-0.85,0.85c-0.77,0.81-1.44,1.7-2.01,2.66
				c-0.13,0.22-0.24,0.45-0.38,0.66c-0.03,0.05-0.1,0.1-0.15,0.1c-0.39-0.03-0.78-0.07-1.21-0.12c1.21-1.78,2.73-3.15,4.56-4.19
				C301.38,4.06,301.39,4.07,301.4,4.08z"/>
			<path fill="#741012" d="M313.15,27.12c-0.96-0.65-1.91-1.3-2.9-1.97c0.63-0.22,1.2-0.43,1.78-0.63c0.39,0.85,0.77,1.71,1.16,2.56
				C313.18,27.1,313.17,27.11,313.15,27.12z"/>
			<path fill="#741012" d="M303.08,15.69c0-0.31,0-0.57,0-0.86c0.3,0.02,0.6,0.02,0.89,0.06c0.2,0.03,0.27,0.16,0.26,0.38
				c-0.01,0.19-0.09,0.3-0.28,0.33C303.67,15.63,303.38,15.65,303.08,15.69z"/>
			<path fill="#741012" d="M319.1,15.18c-0.02,0.2-0.28,0.39-0.44,0.34c-0.37-0.1-0.73-0.18-1.1-0.28c-0.12-0.03-0.2-0.1-0.19-0.24
				c0-0.14,0.08-0.21,0.19-0.25c0.04-0.02,0.08-0.04,0.13-0.04c0.3-0.03,0.63,0.06,0.72,0.4c0.01,0.05,0.1,0.1,0.16,0.1
				C318.73,15.22,318.91,15.2,319.1,15.18z"/>
			<path fill="#741012" d="M313.1,16.49c0.15-0.46,0.29-0.9,0.43-1.35c0.01,0,0.02,0,0.04,0c0.14,0.45,0.28,0.89,0.43,1.35
				C313.69,16.49,313.41,16.49,313.1,16.49z"/>
			<path fill="#741012" d="M299.12,15.14c0.14,0.44,0.28,0.88,0.42,1.34c-0.29,0-0.57,0-0.89,0c0.14-0.45,0.28-0.9,0.42-1.34
				C299.09,15.14,299.1,15.14,299.12,15.14z"/>
			<path fill="#741012" d="M317.4,17.06c0.23-0.17,0.47-0.34,0.7-0.5c0.03-0.02,0.1-0.02,0.14-0.01c0.3,0.11,0.35,0.43,0.1,0.65
				C318.15,17.37,317.54,17.35,317.4,17.06z"/>
			<path fill="#741012" d="M304.08,17.43c-0.13,0.04-0.23,0.08-0.33,0.1c-0.03,0.01-0.09-0.02-0.1-0.05
				c-0.17-0.34-0.34-0.69-0.51-1.05c0.2-0.03,0.36,0.02,0.45,0.16C303.76,16.86,303.91,17.14,304.08,17.43z"/>
			<path fill="#741012" d="M307.63,16.23c-0.11,0.04-0.21,0.07-0.31,0.11c0-0.4,0-0.78,0-1.16c0.01,0,0.02,0,0.03-0.01
				C307.44,15.52,307.53,15.86,307.63,16.23z"/>
			<path fill="#741012" d="M303.32,17.65c-0.09,0.02-0.16,0.04-0.24,0.06c0-0.17,0-0.33,0-0.53
				C303.17,17.36,303.23,17.49,303.32,17.65z"/>
		</g>
	</g>
	<g>
		<rect x="306.57" y="34.59" fill="#6C6D6A" width="2.82" height="14.79"/>
		<rect x="306.05" y="31.27" fill="#A6A6A6" width="3.95" height="5.11"/>
	</g>
	<g>
		<path fill="#58595B" d="M232,120.3l-0.27-1.47h-1.77l-0.26,1.47h-0.98l1.64-7.64h0.95l1.69,7.64H232z M230.82,114.08l-0.7,3.93
			h1.45L230.82,114.08z"/>
		<path fill="#58595B" d="M237.11,120.3l-1.3-3.35h-0.79v3.35h-0.94v-7.64h1.67c0.49,0,1.02,0.02,1.43,0.36
			c0.64,0.52,0.59,1.53,0.59,1.68c0,0.32-0.02,0.64-0.08,0.95c-0.08,0.43-0.19,0.65-0.31,0.8c-0.24,0.29-0.52,0.36-0.64,0.39
			l1.36,3.46H237.11z M236.73,114.03c-0.19-0.55-0.78-0.51-1.24-0.51h-0.47v2.67h0.5c0.42,0,0.63-0.01,0.83-0.09
			c0.48-0.2,0.46-0.87,0.46-1.27C236.82,114.59,236.82,114.28,236.73,114.03z"/>
		<path fill="#58595B" d="M243.47,120.3l0.13-6.91l-1.14,6.91h-1.2l-1.14-6.91l0.15,6.91h-0.93v-7.64h1.43l1.07,6.82l1.05-6.82h1.45
			v7.64H243.47z"/>
		<path fill="#58595B" d="M248.72,120.3l-0.27-1.47h-1.77l-0.26,1.47h-0.98l1.64-7.64h0.95l1.69,7.64H248.72z M247.54,114.08
			l-0.7,3.93h1.45L247.54,114.08z"/>
		<path fill="#58595B" d="M253.57,120.08c-0.48,0.33-1.01,0.33-1.19,0.33c-0.27,0-1.36-0.02-1.72-1.05
			c-0.1-0.28-0.12-0.56-0.12-0.85v-0.84h0.9v0.38c0,0.52,0,0.76,0.09,1.01c0.08,0.21,0.3,0.55,0.85,0.55c0.37,0,0.72-0.16,0.88-0.5
			c0.09-0.18,0.09-0.38,0.09-0.45c0-0.65-0.29-0.92-0.71-1.35l-1.03-1.06c-0.6-0.62-0.88-1.03-0.88-1.92c0-0.11,0-0.41,0.09-0.72
			c0.15-0.5,0.57-1.05,1.69-1.05c0.26,0,1.29,0.01,1.55,1c0.06,0.26,0.06,0.62,0.06,0.89v0.49h-0.84c-0.01-0.48-0.01-0.36-0.01-0.63
			c0-0.35-0.05-0.68-0.41-0.86c-0.17-0.08-0.34-0.08-0.4-0.08c-0.23,0-0.42,0.05-0.57,0.21c-0.09,0.08-0.13,0.17-0.15,0.21
			c-0.04,0.1-0.08,0.26-0.08,0.51c0,0.07,0,0.26,0.06,0.44c0.12,0.36,0.44,0.65,0.69,0.92l1.2,1.28c0.09,0.1,0.16,0.19,0.24,0.29
			c0.18,0.24,0.42,0.64,0.42,1.36C254.27,119.48,253.9,119.87,253.57,120.08z"/>
		<path fill="#58595B" d="M258.31,115.41v-1.31c0-0.71,0.15-1.29,0.92-1.44v0.55c-0.29,0.08-0.41,0.36-0.41,0.64v0.28h0.41v1.28
			H258.31z M259.89,115.41c0-0.43-0.01-0.88-0.01-1.31c0-0.69,0.15-1.31,0.93-1.44v0.55c-0.43,0.11-0.41,0.56-0.41,0.92h0.41v1.28
			H259.89z"/>
		<path fill="#58595B" d="M265.9,118.43c0,0.07,0,0.4-0.04,0.66c-0.14,0.81-0.56,1.06-0.9,1.19c-0.36,0.13-0.74,0.13-0.84,0.13
			c-0.43,0-0.8-0.07-1.16-0.34c-0.08-0.06-0.23-0.19-0.36-0.39c-0.29-0.44-0.33-1.01-0.33-2.07v-1.22c0-0.43,0-0.85,0.01-1.29
			c0.01-0.58,0.01-1.42,0.4-1.94c0.34-0.46,0.97-0.63,1.5-0.63c0.68,0,1.07,0.28,1.28,0.49c0.29,0.3,0.4,0.69,0.4,1.54
			c0,0.16,0,0.33-0.01,0.5h-0.88c0-0.27,0-0.55-0.01-0.83c-0.01-0.31-0.03-0.54-0.29-0.74c-0.09-0.07-0.24-0.15-0.49-0.15
			c-0.24,0-0.72,0.05-0.87,0.67c-0.1,0.43-0.11,1.36-0.11,2.51c0,0.57,0.01,1.14,0.03,1.71c0.01,0.3-0.01,0.71,0.15,1
			c0.21,0.37,0.66,0.38,0.77,0.38c0.09,0,0.3,0,0.51-0.16c0.36-0.27,0.35-0.88,0.35-1.27v-0.56h0.89
			C265.91,117.89,265.91,118.16,265.9,118.43z"/>
		<path fill="#58595B" d="M270.95,118.43c0,0.07,0,0.4-0.04,0.66c-0.14,0.81-0.56,1.06-0.9,1.19c-0.36,0.13-0.74,0.13-0.84,0.13
			c-0.43,0-0.8-0.07-1.16-0.34c-0.08-0.06-0.23-0.19-0.36-0.39c-0.29-0.44-0.33-1.01-0.33-2.07v-1.22c0-0.43,0-0.85,0.01-1.29
			c0.01-0.58,0.01-1.42,0.4-1.94c0.34-0.46,0.97-0.63,1.5-0.63c0.68,0,1.07,0.28,1.28,0.49c0.29,0.3,0.4,0.69,0.4,1.54
			c0,0.16,0,0.33-0.01,0.5h-0.88c0-0.27,0-0.55-0.01-0.83c-0.01-0.31-0.03-0.54-0.29-0.74c-0.09-0.07-0.24-0.15-0.49-0.15
			c-0.24,0-0.72,0.05-0.87,0.67c-0.1,0.43-0.11,1.36-0.11,2.51c0,0.57,0.01,1.14,0.03,1.71c0.01,0.3-0.01,0.71,0.15,1
			c0.21,0.37,0.66,0.38,0.77,0.38c0.09,0,0.3,0,0.51-0.16c0.36-0.27,0.35-0.88,0.35-1.27v-0.56h0.89
			C270.96,117.89,270.96,118.16,270.95,118.43z"/>
		<path fill="#58595B" d="M275.47,120.3l-1.3-3.35h-0.79v3.35h-0.94v-7.64h1.67c0.49,0,1.02,0.02,1.43,0.36
			c0.64,0.52,0.59,1.53,0.59,1.68c0,0.32-0.02,0.64-0.08,0.95c-0.08,0.43-0.2,0.65-0.31,0.8c-0.24,0.29-0.52,0.36-0.64,0.39
			l1.36,3.46H275.47z M275.1,114.03c-0.2-0.55-0.78-0.51-1.24-0.51h-0.47v2.67h0.5c0.42,0,0.63-0.01,0.83-0.09
			c0.48-0.2,0.46-0.87,0.46-1.27C275.18,114.59,275.18,114.28,275.1,114.03z"/>
		<path fill="#58595B" d="M277.62,115.41v-1.31c0-0.71,0.15-1.29,0.92-1.44v0.55c-0.29,0.08-0.41,0.36-0.41,0.64v0.28h0.41v1.28
			H277.62z M279.2,115.41c0-0.43-0.01-0.88-0.01-1.31c0-0.69,0.15-1.31,0.93-1.44v0.55c-0.43,0.11-0.41,0.56-0.41,0.92h0.41v1.28
			H279.2z"/>
	</g>
	<ellipse opacity="0.3" fill="#B9B0A9" enable-background="new    " cx="255.26" cy="100.68" rx="87.88" ry="1.64"/>
	<g>
		<rect x="173.87" y="92" fill="#B8B7B8" width="161.54" height="8.69"/>
		<polygon fill="#FFEFE1" points="179.37,92 179.37,49.15 254.64,25.13 329.9,49.73 329.9,92 		"/>
		<polygon fill="#B9B0A9" points="179.37,55.52 254.64,32.07 329.9,55.52 329.9,49.73 254.64,25.13 179.37,49.15 		"/>
		<g>
			
				<linearGradient id="SVGID_20_" gradientUnits="userSpaceOnUse" x1="-363.4" y1="361.075" x2="-284.4" y2="361.075" gradientTransform="matrix(1 0 0 -1 539 398.8101)">
				<stop  offset="0.0816" style="stop-color:#931B21"/>
				<stop  offset="0.2092" style="stop-color:#A11D24"/>
				<stop  offset="0.7092" style="stop-color:#721816"/>
				<stop  offset="0.9133" style="stop-color:#630C0D"/>
			</linearGradient>
			<polygon fill="url(#SVGID_20_)" points="175.6,47.71 175.6,53.21 254.6,27.74 254.55,22.26 			"/>
			
				<linearGradient id="SVGID_21_" gradientUnits="userSpaceOnUse" x1="-284.45" y1="361.09" x2="-205.62" y2="361.09" gradientTransform="matrix(1 0 0 -1 539 398.8101)">
				<stop  offset="0.0816" style="stop-color:#931B21"/>
				<stop  offset="0.2092" style="stop-color:#A11D24"/>
				<stop  offset="0.7092" style="stop-color:#721816"/>
				<stop  offset="0.9133" style="stop-color:#630C0D"/>
			</linearGradient>
			<polygon fill="url(#SVGID_21_)" points="254.64,22.23 254.55,22.26 254.6,27.74 254.64,27.73 333.38,53.21 333.38,47.42 			"/>
		</g>
		<g>
			<rect x="190.21" y="61.88" fill="#898989" width="52.5" height="30.12"/>
			<rect x="204.77" y="61.88" fill="#404041" width="23.91" height="30.12"/>
		</g>
		<g>
			<rect x="266.09" y="61.88" fill="#898989" width="52.51" height="30.12"/>
			<rect x="280.65" y="61.88" fill="#404041" width="23.91" height="30.12"/>
		</g>
		
			<linearGradient id="SVGID_22_" gradientUnits="userSpaceOnUse" x1="-353.39" y1="337.98" x2="-215.23" y2="337.98" gradientTransform="matrix(1 0 0 -1 539 398.8101)">
			<stop  offset="0.0816" style="stop-color:#931B21"/>
			<stop  offset="0.2092" style="stop-color:#A11D24"/>
			<stop  offset="0.7092" style="stop-color:#721816"/>
			<stop  offset="0.9133" style="stop-color:#630C0D"/>
		</linearGradient>
		<rect x="185.61" y="57.67" fill="url(#SVGID_22_)" width="138.16" height="6.32"/>
		<rect x="209" y="86.36" fill="#907D68" width="10.61" height="5.63"/>
		<rect x="209" y="81.23" fill="#C3A487" width="10.61" height="5.13"/>
		<rect x="250.63" y="86.36" fill="#C1A58A" width="10.44" height="5.63"/>
		<rect x="261.07" y="86.36" fill="#917B67" width="10.55" height="5.63"/>
		<rect x="255.85" y="81.12" fill="#DAC8B9" width="10.24" height="5.25"/>
		<rect x="283.53" y="86.31" fill="#8E7862" width="10.61" height="5.69"/>
		<rect x="294.13" y="86.31" fill="#C2A589" width="10.43" height="5.69"/>
		<rect x="294.13" y="81.34" fill="#917C6A" width="10.43" height="4.96"/>
		<rect x="294.13" y="75.81" fill="#DAC8B9" width="10.43" height="5.53"/>
		<g>
			<rect x="302.09" y="78.58" fill="#DCDCDC" width="4.4" height="13.42"/>
			<rect x="306.49" y="78.58" fill="#A6A6A6" width="4.4" height="13.42"/>
		</g>
		<g>
			<rect x="313.15" y="87.26" fill="#DCDCDC" width="4.4" height="13.42"/>
			<rect x="317.55" y="87.26" fill="#A6A6A6" width="4.4" height="13.42"/>
		</g>
		<rect x="173.87" y="92" fill="#898989" width="40.19" height="8.69"/>
	</g>
	<g>
		<rect x="200.73" y="113.94" fill="#4D4E4E" width="4.32" height="2.16"/>
		<rect x="201.19" y="113.94" fill="#E5E5E4" width="0.46" height="1.7"/>
		<rect x="204.12" y="113.94" fill="#E5E5E4" width="0.46" height="1.7"/>
		<path fill="#333333" d="M205.66,116.36c0,0.37-0.3,0.67-0.67,0.67h-4.06c-0.37,0-0.67-0.3-0.67-0.67v-0.06
			c0-0.37,0.3-0.67,0.67-0.67H205c0.37,0,0.67,0.3,0.67,0.67v0.06H205.66z"/>
	</g>
	<rect x="172.2" y="112.87" fill="#333333" width="35.16" height="1.23"/>
	<g>
		<polygon fill="#D8D8D7" points="210.13,115.33 207.62,115.33 206.51,112.09 210.13,112.09 		"/>
		<path fill="#C0272D" d="M209.83,114.26c0,0.16-0.13,0.3-0.3,0.3h-1.41c-0.16,0-0.3-0.13-0.3-0.3v-0.02c0-0.16,0.13-0.3,0.3-0.3
			h1.41c0.16,0,0.3,0.13,0.3,0.3V114.26z"/>
		<path fill="#333333" d="M210.29,116.81c0,0.12-0.1,0.22-0.22,0.22h-2.33c-0.12,0-0.22-0.1-0.22-0.22v-1.56
			c0-0.12,0.1-0.22,0.22-0.22h2.33c0.12,0,0.22,0.1,0.22,0.22V116.81z"/>
	</g>
	
		<polyline fill="none" stroke="#333333" stroke-width="3" stroke-linecap="round" stroke-linejoin="round" stroke-miterlimit="10" points="
		148.45,101.76 150.23,102.18 150.23,111.79 	"/>
	<path fill="#333333" d="M192.4,116.57h-51.3c-2.08,0-3.55-0.77-3.55-2.85l0,0c0-2.08,1.47-2.85,3.55-2.85h9.21l1.43,1.1
		c0.6,0,40.66-0.02,40.66-0.02V116.57z"/>
	<path fill="#A5C56F" d="M148.14,98.53h-0.08c-0.02,0-0.04,0.01-0.06,0.01l-0.01-0.01h-10.66l-1.98,3.3l-1.86,5.7l-0.02,8.58h6.83
		c0-3.55,3.26-3.7,3.26-3.7h5.84v-10.52v-1.71V99.8C149.38,99.15,148.79,98.53,148.14,98.53z"/>
	<path fill="#333333" d="M147.22,99.6v5.24c0,0-1.06,1.67-10.76,2.9c0,0,0.42-5.97,3.6-8.13h7.16V99.6z"/>
	<rect x="145.37" y="108.39" fill="#4D4E4E" width="1.7" height="2.78"/>
	<rect x="145.37" y="110.24" fill="#676767" width="1.7" height="0.93"/>
	<path fill="#FFFFFF" d="M138.28,115.12c0,0.29-0.23,0.52-0.52,0.52h-2.04c-0.29,0-0.52-0.23-0.52-0.52v-0.04
		c0-0.29,0.23-0.52,0.52-0.52h2.04c0.29,0,0.52,0.23,0.52,0.52V115.12z"/>
	<path fill="#F69220" d="M138.28,115.18c0,0.3-0.23,0.49-0.61,0.46h-1.24v-1.08h1.24c0.48-0.02,0.61,0.22,0.61,0.52V115.18z"/>
	<path fill="#333333" d="M137.32,98.63c0,0-3.87,3.02-3.85,9.4c0,0,0.61,0.04,0.65-0.26C134.72,102.7,136.85,100.18,137.32,98.63z"
		/>
	<path fill="#979797" d="M133.96,114.88c0,0.16-0.13,0.3-0.3,0.3h-0.02c-0.16,0-0.3-0.13-0.3-0.3v-4.34c0-0.16,0.13-0.3,0.3-0.3
		h0.02c0.16,0,0.3,0.13,0.3,0.3V114.88z"/>
	<path fill="#676767" d="M140.9,116.66c0,0.29-0.23,0.52-0.52,0.52h-6.98c-0.29,0-0.52-0.23-0.52-0.52v-0.04
		c0-0.29,0.23-0.52,0.52-0.52h6.98c0.29,0,0.52,0.23,0.52,0.52V116.66z"/>
	<path fill="#8AA25C" d="M137.3,98.53c0,0,1.19-5.9,12.02-5.88c0,0,0.31,4.3-0.17,5.1c0,0-0.36,0.77-0.8,0.77
		C147.9,98.53,137.3,98.53,137.3,98.53z"/>
	<g>
		<circle fill="#333333" cx="145.68" cy="116.92" r="3.8"/>
		<g>
			<circle fill="#CBCBCA" cx="145.68" cy="116.92" r="2.47"/>
			<circle fill="#E5E5E4" stroke="#333333" stroke-miterlimit="10" cx="145.68" cy="116.92" r="0.72"/>
			<rect x="145.07" y="114.87" fill="#333333" width="1.23" height="0.31"/>
			<rect x="145.07" y="118.72" fill="#333333" width="1.23" height="0.31"/>
			<rect x="147.22" y="116.41" fill="#333333" width="0.31" height="1.08"/>
			<rect x="143.68" y="116.41" fill="#333333" width="0.31" height="1.08"/>
		</g>
	</g>
	<rect x="155.09" y="115.02" fill="#808080" width="36.54" height="1.08"/>
	<g>
		<circle fill="#333333" cx="194.81" cy="116.92" r="3.8"/>
		<g>
			<circle fill="#CBCBCA" cx="194.81" cy="116.92" r="2.47"/>
			<circle fill="#E5E5E4" stroke="#333333" stroke-miterlimit="10" cx="194.81" cy="116.92" r="0.72"/>
			<rect x="194.25" y="114.87" fill="#333333" width="1.08" height="0.31"/>
			<rect x="194.25" y="118.72" fill="#333333" width="1.08" height="0.31"/>
			<rect x="196.41" y="116.41" fill="#333333" width="0.31" height="1.08"/>
			<rect x="192.86" y="116.41" fill="#333333" width="0.31" height="1.08"/>
		</g>
	</g>
	<path fill="none" stroke="#8AA25C" stroke-width="0.25" stroke-miterlimit="10" d="M138.34,99.71c0,0-2.91,4.28-2.76,8.54v4.81
		l4.61-0.01c0,0,0.83-1.73,3.52-1.73"/>
	<path fill="#676767" d="M138.44,108.73c0,0.15-0.12,0.28-0.28,0.28h-1.45c-0.15,0-0.28-0.12-0.28-0.28v-0.06
		c0-0.15,0.12-0.28,0.28-0.28h1.45c0.15,0,0.28,0.12,0.28,0.28V108.73z"/>
	<rect x="153.85" y="114.56" fill="#676767" width="5.71" height="2.47"/>
	<g>
		<path fill="#4D4E4E" d="M142.13,99.6l-1.16,7.43c1.59-0.31,2.8-0.66,3.7-0.96l1.01-6.48h-3.55V99.6z"/>
	</g>
	<g>
		<rect x="151.7" y="90.04" fill="#D8D8D7" width="58.44" height="22.97"/>
		<g>
			<path fill="#E5E5E4" d="M162.95,109.9c0,0.61-0.5,1.11-1.11,1.11h-7.19c-0.61,0-1.11-0.5-1.11-1.11V92.54
				c0-0.61,0.5-1.11,1.11-1.11h7.19c0.61,0,1.11,0.5,1.11,1.11V109.9z"/>
			<path fill="#E5E5E4" d="M174.21,109.9c0,0.61-0.5,1.12-1.11,1.12h-7.18c-0.61,0-1.11-0.5-1.11-1.12V92.54
				c0-0.61,0.5-1.1,1.11-1.1h7.18c0.61,0,1.11,0.49,1.11,1.1V109.9z"/>
			<path fill="#E5E5E4" d="M185.77,109.9c0,0.61-0.5,1.11-1.11,1.11h-7.19c-0.61,0-1.11-0.5-1.11-1.11V92.54
				c0-0.61,0.5-1.11,1.11-1.11h7.19c0.61,0,1.11,0.5,1.11,1.11V109.9z"/>
		</g>
		<g>
			<path fill="#E5E5E4" d="M208.28,109.9c0,0.61-0.5,1.12-1.11,1.12h-7.18c-0.61,0-1.11-0.5-1.11-1.12V92.54
				c0-0.61,0.5-1.1,1.11-1.1h7.18c0.61,0,1.11,0.49,1.11,1.1V109.9z"/>
		</g>
		<rect x="152.93" y="111.63" fill="#E5E5E4" width="55.97" height="0.77"/>
		<path fill="#F69220" d="M153.7,90.83c0,0.16-0.13,0.3-0.3,0.3h-0.95c-0.16,0-0.3-0.13-0.3-0.3V90.8c0-0.16,0.13-0.3,0.3-0.3h0.95
			c0.16,0,0.3,0.13,0.3,0.3V90.83z"/>
		<path fill="#F69220" d="M209.52,90.83c0,0.16-0.13,0.3-0.3,0.3h-0.95c-0.16,0-0.3-0.13-0.3-0.3V90.8c0-0.16,0.13-0.3,0.3-0.3h0.95
			c0.16,0,0.3,0.13,0.3,0.3V90.83z"/>
		<g>
			<path fill="#E5E5E4" d="M197.03,109.9c0,0.61-0.5,1.12-1.11,1.12h-7.18c-0.61,0-1.11-0.5-1.11-1.12V92.54
				c0-0.61,0.5-1.1,1.11-1.1h7.18c0.61,0,1.11,0.49,1.11,1.1V109.9z"/>
		</g>
	</g>
	<rect x="164.34" y="114.25" fill="#B3B2B3" width="4.63" height="1.39"/>
	<rect x="164.34" y="115.64" fill="#333333" width="4.63" height="1.39"/>
	<g>
		<path fill="#B03F42" d="M159.7,93.19h1.03l0.62,2.4h-0.99l-0.09-0.49h-1.6l-0.49,0.49h-0.95L159.7,93.19z M159.07,94.68h1.11
			L160,93.74L159.07,94.68z"/>
		<path fill="#B03F42" d="M166.02,93.42c0.07,0.06,0.12,0.13,0.15,0.2s0.02,0.16-0.01,0.25c-0.04,0.11-0.14,0.23-0.29,0.34
			c-0.15,0.11-0.35,0.19-0.61,0.23c0.18,0.04,0.3,0.11,0.35,0.19s0.05,0.21-0.02,0.38l-0.06,0.16c-0.04,0.11-0.06,0.18-0.06,0.22
			c0,0.06,0.04,0.11,0.11,0.14l-0.02,0.06h-1c-0.01-0.05-0.01-0.1-0.01-0.13c0-0.07,0.02-0.14,0.04-0.21l0.08-0.22
			c0.06-0.15,0.04-0.25-0.03-0.31c-0.08-0.05-0.25-0.08-0.52-0.08h-0.94l-0.36,0.94h-0.89l0.92-2.4h2.14c0.3,0,0.53,0.02,0.68,0.06
			C165.81,93.29,165.93,93.34,166.02,93.42z M163.57,93.6l-0.25,0.64h1.03c0.2,0,0.36-0.01,0.48-0.04c0.2-0.04,0.33-0.14,0.38-0.27
			c0.06-0.15,0-0.24-0.15-0.29c-0.09-0.03-0.23-0.04-0.43-0.04H163.57z"/>
		<path fill="#B03F42" d="M170.08,93.19h1.31l-0.93,2.4h-0.85l0.62-1.62c0.02-0.05,0.05-0.11,0.08-0.2c0.03-0.08,0.06-0.15,0.08-0.2
			l-1.6,2.01h-0.88l-0.04-2.01c-0.02,0.05-0.04,0.11-0.07,0.2c-0.03,0.08-0.06,0.15-0.08,0.2l-0.62,1.62h-0.85l0.92-2.4h1.32
			l0.06,1.89L170.08,93.19z"/>
		<path fill="#B03F42" d="M173.49,93.19h1.03l0.62,2.4h-0.99l-0.09-0.49h-1.6l-0.49,0.49h-0.95L173.49,93.19z M172.85,94.68h1.11
			l-0.18-0.94L172.85,94.68z"/>
		<path fill="#B03F42" d="M176.63,94.85c-0.01,0.11,0.01,0.19,0.07,0.25c0.11,0.1,0.34,0.15,0.7,0.15c0.21,0,0.39-0.01,0.54-0.04
			c0.27-0.05,0.44-0.14,0.49-0.28c0.03-0.08-0.01-0.14-0.12-0.18s-0.29-0.08-0.55-0.11l-0.44-0.06c-0.43-0.06-0.72-0.12-0.87-0.18
			c-0.25-0.11-0.33-0.28-0.24-0.52c0.08-0.21,0.29-0.39,0.63-0.54s0.78-0.21,1.33-0.21c0.46,0,0.82,0.07,1.1,0.2
			c0.27,0.13,0.37,0.33,0.28,0.58h-0.88c0.04-0.14-0.03-0.25-0.22-0.31c-0.13-0.04-0.29-0.06-0.51-0.06c-0.23,0-0.43,0.03-0.59,0.08
			s-0.26,0.12-0.29,0.22c-0.03,0.09,0.01,0.15,0.13,0.19c0.08,0.03,0.25,0.06,0.53,0.1l0.71,0.1c0.31,0.04,0.54,0.1,0.68,0.17
			c0.22,0.11,0.28,0.28,0.2,0.49c-0.08,0.22-0.31,0.4-0.67,0.55c-0.36,0.14-0.82,0.22-1.37,0.22c-0.57,0-0.99-0.07-1.26-0.21
			s-0.36-0.34-0.26-0.59h0.88V94.85z"/>
	</g>
	<polygon points="157.07,95.99 155.13,97.68 210.13,97.68 210.13,95.99 	"/>
	<g>
		<path fill="#FFFFFF" d="M157.34,96.39v0.69h0.41v0.16h-0.6V96.4h0.19V96.39z"/>
		<path fill="#FFFFFF" d="M158.55,96.64c0.02-0.05,0.05-0.1,0.08-0.14c0.04-0.04,0.08-0.07,0.13-0.09s0.11-0.03,0.17-0.03
			c0.07,0,0.12,0.01,0.17,0.03s0.09,0.05,0.13,0.09c0.04,0.04,0.06,0.09,0.08,0.14s0.03,0.11,0.03,0.18c0,0.06-0.01,0.12-0.03,0.17
			c-0.02,0.05-0.05,0.1-0.08,0.14c-0.04,0.04-0.08,0.07-0.13,0.09s-0.11,0.03-0.17,0.03s-0.12-0.01-0.17-0.03s-0.09-0.05-0.13-0.09
			c-0.04-0.04-0.06-0.08-0.08-0.14c-0.02-0.05-0.03-0.11-0.03-0.17C158.52,96.75,158.53,96.69,158.55,96.64z M158.72,96.91
			c0.01,0.03,0.02,0.06,0.04,0.09c0.02,0.03,0.04,0.05,0.07,0.06c0.03,0.02,0.06,0.02,0.11,0.02s0.08-0.01,0.11-0.02
			c0.03-0.02,0.05-0.04,0.07-0.06c0.02-0.03,0.03-0.06,0.04-0.09s0.01-0.07,0.01-0.1c0-0.04,0-0.07-0.01-0.11s-0.02-0.07-0.04-0.09
			s-0.04-0.05-0.07-0.06c-0.03-0.02-0.06-0.02-0.11-0.02s-0.08,0.01-0.11,0.02c-0.03,0.02-0.05,0.04-0.07,0.06s-0.03,0.06-0.04,0.09
			s-0.01,0.07-0.01,0.11C158.7,96.85,158.71,96.88,158.72,96.91z"/>
		<path fill="#FFFFFF" d="M160.68,97.22c-0.04,0.02-0.08,0.03-0.12,0.03c-0.06,0-0.12-0.01-0.17-0.03s-0.09-0.05-0.13-0.09
			c-0.04-0.04-0.06-0.08-0.08-0.14c-0.02-0.05-0.03-0.11-0.03-0.17s0.01-0.12,0.03-0.18c0.02-0.05,0.05-0.1,0.08-0.14
			c0.04-0.04,0.08-0.07,0.13-0.09s0.11-0.03,0.17-0.03c0.04,0,0.08,0.01,0.13,0.02c0.04,0.01,0.08,0.03,0.11,0.06
			s0.06,0.06,0.08,0.09c0.02,0.04,0.03,0.08,0.04,0.13h-0.18c-0.01-0.05-0.03-0.08-0.06-0.11c-0.03-0.02-0.07-0.04-0.11-0.04
			s-0.08,0.01-0.11,0.02c-0.03,0.02-0.05,0.04-0.07,0.06s-0.03,0.06-0.04,0.09s-0.01,0.07-0.01,0.11s0,0.07,0.01,0.1
			s0.02,0.06,0.04,0.09c0.02,0.03,0.04,0.05,0.07,0.06c0.03,0.02,0.06,0.02,0.11,0.02c0.06,0,0.11-0.02,0.14-0.05
			c0.03-0.03,0.05-0.08,0.06-0.14h-0.19v-0.14h0.35v0.46h-0.12l-0.02-0.1C160.76,97.18,160.72,97.21,160.68,97.22z"/>
		<path fill="#FFFFFF" d="M161.97,96.39v0.84h-0.19v-0.84H161.97z"/>
		<path fill="#FFFFFF" d="M162.98,97.02c0.01,0.02,0.02,0.04,0.04,0.05c0.02,0.01,0.04,0.02,0.06,0.03s0.05,0.01,0.07,0.01
			s0.03,0,0.05,0s0.04-0.01,0.05-0.02c0.02-0.01,0.03-0.02,0.04-0.03s0.02-0.03,0.02-0.05c0-0.02-0.01-0.04-0.02-0.06
			c-0.01-0.01-0.03-0.03-0.06-0.04s-0.05-0.02-0.08-0.02c-0.03-0.01-0.06-0.02-0.09-0.02c-0.03-0.01-0.06-0.02-0.09-0.03
			s-0.06-0.03-0.08-0.04c-0.02-0.02-0.04-0.04-0.06-0.07c-0.01-0.03-0.02-0.06-0.02-0.1s0.01-0.08,0.03-0.11s0.04-0.06,0.07-0.08
			c0.03-0.02,0.06-0.04,0.1-0.05c0.04-0.01,0.08-0.01,0.11-0.01c0.04,0,0.09,0,0.13,0.01s0.08,0.03,0.11,0.05
			c0.03,0.02,0.06,0.05,0.07,0.08s0.03,0.08,0.03,0.12h-0.18c0-0.02-0.01-0.05-0.02-0.06c-0.01-0.02-0.02-0.03-0.04-0.04
			c-0.02-0.01-0.03-0.02-0.05-0.02s-0.04-0.01-0.06-0.01c-0.01,0-0.03,0-0.04,0c-0.02,0-0.03,0.01-0.04,0.02
			c-0.01,0.01-0.02,0.02-0.03,0.03s-0.01,0.03-0.01,0.04c0,0.02,0,0.03,0.01,0.04s0.02,0.02,0.04,0.03s0.04,0.02,0.08,0.03
			s0.08,0.02,0.13,0.03c0.02,0,0.04,0.01,0.07,0.02c0.03,0.01,0.06,0.02,0.08,0.04c0.03,0.02,0.05,0.04,0.07,0.07
			s0.03,0.07,0.03,0.12c0,0.04-0.01,0.07-0.02,0.11c-0.02,0.03-0.04,0.06-0.07,0.08c-0.03,0.02-0.07,0.04-0.11,0.06
			c-0.04,0.01-0.09,0.02-0.15,0.02c-0.05,0-0.09-0.01-0.14-0.02c-0.04-0.01-0.08-0.03-0.12-0.05c-0.03-0.02-0.06-0.06-0.08-0.09
			c-0.02-0.04-0.03-0.08-0.03-0.13h0.18C162.96,96.98,162.97,97,162.98,97.02z"/>
		<path fill="#FFFFFF" d="M164.24,96.54v-0.16h0.69v0.16h-0.25v0.69h-0.19v-0.69H164.24z"/>
		<path fill="#FFFFFF" d="M165.92,96.39v0.84h-0.19v-0.84H165.92z"/>
		<path fill="#FFFFFF" d="M167.33,96.61c-0.01-0.02-0.02-0.03-0.04-0.05c-0.02-0.01-0.04-0.02-0.06-0.03s-0.04-0.01-0.07-0.01
			c-0.04,0-0.08,0.01-0.11,0.02c-0.03,0.02-0.05,0.04-0.07,0.06s-0.03,0.06-0.04,0.09s-0.01,0.07-0.01,0.11s0,0.07,0.01,0.1
			s0.02,0.06,0.04,0.09c0.02,0.03,0.04,0.05,0.07,0.06c0.03,0.02,0.06,0.02,0.11,0.02c0.06,0,0.1-0.02,0.13-0.05
			c0.03-0.03,0.05-0.08,0.06-0.14h0.18c0,0.05-0.02,0.1-0.04,0.14c-0.02,0.04-0.05,0.08-0.08,0.11s-0.07,0.05-0.11,0.07
			s-0.09,0.02-0.14,0.02c-0.06,0-0.12-0.01-0.17-0.03s-0.09-0.05-0.13-0.09c-0.04-0.04-0.06-0.08-0.08-0.14
			c-0.02-0.05-0.03-0.11-0.03-0.17s0.01-0.12,0.03-0.18c0.02-0.05,0.05-0.1,0.08-0.14c0.04-0.04,0.08-0.07,0.13-0.09
			s0.11-0.03,0.17-0.03c0.05,0,0.09,0.01,0.13,0.02c0.04,0.01,0.08,0.03,0.11,0.06s0.06,0.06,0.08,0.09
			c0.02,0.04,0.03,0.08,0.04,0.13h-0.18C167.35,96.65,167.34,96.63,167.33,96.61z"/>
		<path fill="#FFFFFF" d="M169.55,97.02c0.01,0.02,0.02,0.04,0.04,0.05c0.02,0.01,0.04,0.02,0.06,0.03s0.05,0.01,0.07,0.01
			s0.03,0,0.05,0s0.04-0.01,0.05-0.02c0.02-0.01,0.03-0.02,0.04-0.03s0.02-0.03,0.02-0.05c0-0.02-0.01-0.04-0.02-0.06
			c-0.01-0.01-0.03-0.03-0.06-0.04s-0.05-0.02-0.08-0.02c-0.03-0.01-0.06-0.02-0.09-0.02c-0.03-0.01-0.06-0.02-0.09-0.03
			s-0.06-0.03-0.08-0.04c-0.02-0.02-0.04-0.04-0.06-0.07c-0.01-0.03-0.02-0.06-0.02-0.1s0.01-0.08,0.03-0.11s0.04-0.06,0.07-0.08
			c0.03-0.02,0.06-0.04,0.1-0.05c0.04-0.01,0.08-0.01,0.11-0.01c0.04,0,0.09,0,0.13,0.01s0.08,0.03,0.11,0.05
			c0.03,0.02,0.06,0.05,0.07,0.08s0.03,0.08,0.03,0.12h-0.18c0-0.02-0.01-0.05-0.02-0.06c-0.01-0.02-0.02-0.03-0.04-0.04
			c-0.02-0.01-0.03-0.02-0.05-0.02s-0.04-0.01-0.06-0.01c-0.01,0-0.03,0-0.04,0c-0.02,0-0.03,0.01-0.04,0.02
			c-0.01,0.01-0.02,0.02-0.03,0.03s-0.01,0.03-0.01,0.04c0,0.02,0,0.03,0.01,0.04s0.02,0.02,0.04,0.03s0.04,0.02,0.08,0.03
			s0.08,0.02,0.13,0.03c0.02,0,0.04,0.01,0.07,0.02c0.03,0.01,0.06,0.02,0.08,0.04c0.03,0.02,0.05,0.04,0.07,0.07
			s0.03,0.07,0.03,0.12c0,0.04-0.01,0.07-0.02,0.11c-0.02,0.03-0.04,0.06-0.07,0.08c-0.03,0.02-0.07,0.04-0.11,0.06
			c-0.04,0.01-0.09,0.02-0.15,0.02c-0.05,0-0.09-0.01-0.14-0.02c-0.04-0.01-0.08-0.03-0.12-0.05c-0.03-0.02-0.06-0.06-0.08-0.09
			c-0.02-0.04-0.03-0.08-0.03-0.13h0.18C169.53,96.98,169.54,97,169.55,97.02z"/>
		<path fill="#FFFFFF" d="M171.51,96.39v0.16h-0.44v0.18h0.41v0.14h-0.41v0.21h0.45v0.16h-0.64V96.4h0.63V96.39z"/>
		<path fill="#FFFFFF" d="M172.8,96.39c0.04,0,0.07,0.01,0.1,0.02c0.03,0.01,0.06,0.03,0.08,0.05s0.04,0.05,0.05,0.07
			c0.01,0.03,0.02,0.06,0.02,0.09c0,0.05-0.01,0.09-0.03,0.13s-0.05,0.06-0.1,0.08l0,0c0.02,0.01,0.04,0.02,0.06,0.03
			c0.01,0.01,0.03,0.03,0.04,0.05c0.01,0.02,0.02,0.04,0.02,0.06s0.01,0.04,0.01,0.06c0,0.01,0,0.03,0,0.05c0,0.02,0,0.04,0,0.06
			s0,0.04,0.01,0.05s0.01,0.03,0.02,0.04h-0.19c-0.01-0.03-0.02-0.06-0.02-0.1s-0.01-0.07-0.01-0.11c-0.01-0.04-0.02-0.08-0.04-0.1
			s-0.05-0.03-0.1-0.03h-0.19v0.33h-0.19v-0.84h0.46V96.39z M172.74,96.77c0.04,0,0.07-0.01,0.1-0.03c0.02-0.02,0.03-0.05,0.03-0.09
			c0-0.04-0.01-0.07-0.03-0.09s-0.05-0.03-0.1-0.03h-0.2v0.24C172.54,96.77,172.74,96.77,172.74,96.77z"/>
		<path fill="#FFFFFF" d="M174.07,97.23l-0.27-0.84h0.19l0.19,0.59l0,0l0.19-0.59h0.19l-0.28,0.84H174.07z"/>
		<path fill="#FFFFFF" d="M175.52,96.39v0.84h-0.19v-0.84H175.52z"/>
		<path fill="#FFFFFF" d="M176.93,96.61c-0.01-0.02-0.02-0.03-0.04-0.05c-0.02-0.01-0.04-0.02-0.06-0.03s-0.04-0.01-0.07-0.01
			c-0.04,0-0.08,0.01-0.11,0.02c-0.03,0.02-0.05,0.04-0.07,0.06s-0.03,0.06-0.04,0.09s-0.01,0.07-0.01,0.11s0,0.07,0.01,0.1
			s0.02,0.06,0.04,0.09c0.02,0.03,0.04,0.05,0.07,0.06c0.03,0.02,0.06,0.02,0.11,0.02c0.06,0,0.1-0.02,0.13-0.05
			c0.03-0.03,0.05-0.08,0.06-0.14h0.18c0,0.05-0.02,0.1-0.04,0.14c-0.02,0.04-0.05,0.08-0.08,0.11s-0.07,0.05-0.11,0.07
			s-0.09,0.02-0.14,0.02c-0.06,0-0.12-0.01-0.17-0.03s-0.09-0.05-0.13-0.09c-0.04-0.04-0.06-0.08-0.08-0.14
			c-0.02-0.05-0.03-0.11-0.03-0.17s0.01-0.12,0.03-0.18c0.02-0.05,0.05-0.1,0.08-0.14c0.04-0.04,0.08-0.07,0.13-0.09
			s0.11-0.03,0.17-0.03c0.05,0,0.09,0.01,0.13,0.02c0.04,0.01,0.08,0.03,0.11,0.06s0.06,0.06,0.08,0.09
			c0.02,0.04,0.03,0.08,0.04,0.13h-0.18C176.95,96.65,176.94,96.63,176.93,96.61z"/>
		<path fill="#FFFFFF" d="M178.6,96.39v0.16h-0.44v0.18h0.41v0.14h-0.41v0.21h0.45v0.16h-0.64V96.4h0.63V96.39z"/>
	</g>
	<ellipse opacity="0.3" fill="#B9B0A9" enable-background="new    " cx="463.18" cy="102.12" rx="54.95" ry="1.64"/>
	<rect x="413.3" y="95.22" fill="#B8B7B8" width="99.39" height="6.05"/>
	<rect x="449.96" y="98.25" fill="#E7E6E6" width="12.42" height="3.03"/>
	<polygon fill="#898989" points="462.38,98.25 465.27,101.28 462.38,101.28 	"/>
	<rect x="481.7" y="98.25" fill="#E7E6E6" width="12.21" height="3.03"/>
	<polygon fill="#898989" points="493.91,98.25 496.94,101.28 493.91,101.28 	"/>
	<polygon fill="#FFEFE1" points="419.03,95.22 419.03,82.3 449.96,61.57 506.78,61.57 506.78,95.22 	"/>
	<polygon fill="#B9B0A9" points="419.03,86.62 450.73,65.04 506.78,65.04 506.78,61.57 449.96,61.57 419.03,82.3 	"/>
	
		<linearGradient id="SVGID_23_" gradientUnits="userSpaceOnUse" x1="-122.24" y1="325.805" x2="-29.14" y2="325.805" gradientTransform="matrix(1 0 0 -1 539 398.8101)">
		<stop  offset="0.0816" style="stop-color:#931B21"/>
		<stop  offset="0.2092" style="stop-color:#A11D24"/>
		<stop  offset="0.7092" style="stop-color:#721816"/>
		<stop  offset="0.9133" style="stop-color:#630C0D"/>
	</linearGradient>
	<polygon fill="url(#SVGID_23_)" points="416.76,85.78 450.87,63.17 509.86,63.17 509.86,60.23 449.96,60.23 416.76,82.57 	"/>
	<rect x="428.01" y="80.84" fill="#5D5D5D" width="6.36" height="6.49"/>
	<rect x="437.88" y="80.84" fill="#5D5D5D" width="6.36" height="6.49"/>
	<rect x="469.86" y="68.3" fill="#5D5D5D" width="4.44" height="4.53"/>
	<polygon fill="#B9B0A9" points="493.88,77.05 506.78,89.94 506.78,95.22 493.88,95.22 	"/>
	<rect x="484.57" y="69.79" fill="#5D5D5D" width="6.53" height="1.54"/>
	<rect x="452.9" y="69.79" fill="#5D5D5D" width="6.53" height="1.54"/>
	<rect x="487.11" y="52" fill="#B8B7B8" width="8" height="8.22"/>
	<rect x="486.06" y="47.93" fill="#E7E6E6" width="9.92" height="4.79"/>
	<polygon fill="#868686" points="487.11,52.72 489.08,54.88 495.12,54.88 495.12,52.72 	"/>
	
		<linearGradient id="SVGID_24_" gradientUnits="userSpaceOnUse" x1="-725.4992" y1="-1636.2523" x2="-715.4292" y2="-1636.2523" gradientTransform="matrix(-1 0 0 1 -208.6492 1717.4524)">
		<stop  offset="0.0816" style="stop-color:#931B21"/>
		<stop  offset="0.2092" style="stop-color:#A11D24"/>
		<stop  offset="0.7092" style="stop-color:#721816"/>
		<stop  offset="0.9133" style="stop-color:#630C0D"/>
	</linearGradient>
	<rect x="506.78" y="79.78" fill="url(#SVGID_24_)" width="10.07" height="2.84"/>
	<g>
		<rect x="450.23" y="77.05" fill="#5D5D5D" width="43.65" height="18.17"/>
		
			<linearGradient id="SVGID_25_" gradientUnits="userSpaceOnUse" x1="-88.77" y1="320.395" x2="-45.12" y2="320.395" gradientTransform="matrix(1 0 0 -1 539 398.8101)">
			<stop  offset="0.0816" style="stop-color:#931B21"/>
			<stop  offset="0.2092" style="stop-color:#A11D24"/>
			<stop  offset="0.7092" style="stop-color:#721816"/>
			<stop  offset="0.9133" style="stop-color:#630C0D"/>
		</linearGradient>
		<rect x="450.23" y="77.05" fill="url(#SVGID_25_)" width="43.65" height="2.73"/>
	</g>
	<rect x="450.23" y="81.69" fill="#A6A8AB" width="43.68" height="1.26"/>
	<rect x="450.23" y="84.36" fill="#A6A8AB" width="43.68" height="1.26"/>
	<rect x="450.23" y="87.03" fill="#A6A8AB" width="43.68" height="1.26"/>
	<rect x="450.23" y="89.69" fill="#A6A8AB" width="43.68" height="1.26"/>
	<rect x="450.23" y="92.36" fill="#A6A8AB" width="43.68" height="1.26"/>
</g>
</svg>
