<?xml version="1.0" encoding="utf-8"?>
<!-- Generator: Adobe Illustrator 17.0.0, SVG Export Plug-In . SVG Version: 6.00 Build 0)  -->
<!DOCTYPE svg PUBLIC "-//W3C//DTD SVG 1.1//EN" "http://www.w3.org/Graphics/SVG/1.1/DTD/svg11.dtd">
<svg version="1.1" id="Layer_1" xmlns="http://www.w3.org/2000/svg" xmlns:xlink="http://www.w3.org/1999/xlink" x="0px" y="0px"
	 width="152.148px" height="59.97px" viewBox="0 0 152.148 59.97" enable-background="new 0 0 152.148 59.97" xml:space="preserve">
<g>
	<g>
		<g>
			<g>
				<rect x="122.597" y="46.724" fill="#4E4E4E" width="8.486" height="4.221"/>
			</g>
			<g>
				<rect x="123.507" y="46.724" fill="#E1E1E1" width="0.909" height="3.316"/>
			</g>
			<g>
				<rect x="129.265" y="46.724" fill="#E1E1E1" width="0.909" height="3.316"/>
			</g>
			<g>
				<path fill="#333333" d="M132.296,51.451c0,0.719-0.586,1.302-1.309,1.302h-7.989c-0.723,0-1.309-0.583-1.309-1.302v-0.108
					c0-0.719,0.586-1.302,1.309-1.302h7.989c0.723,0,1.309,0.583,1.309,1.302V51.451z"/>
			</g>
		</g>
		<g>
			<rect x="88.349" y="44.613" fill="#333333" width="47.281" height="2.412"/>
		</g>
		<g>
			<g>
				<polygon fill="#D4D4D3" points="140.782,49.437 136.152,49.437 133.969,43.106 140.782,43.106 				"/>
			</g>
			<g>
				<path fill="#BC272C" d="M140.176,47.349c0,0.321-0.261,0.58-0.583,0.58h-2.773c-0.322,0-0.583-0.26-0.583-0.58v-0.045
					c0-0.321,0.261-0.58,0.583-0.58h2.773c0.322,0,0.583,0.26,0.583,0.58V47.349z"/>
			</g>
			<g>
				<path fill="#333333" d="M141.086,52.319c0,0.24-0.195,0.434-0.437,0.434h-4.582c-0.241,0-0.437-0.194-0.437-0.434v-3.051
					c0-0.24,0.195-0.434,0.437-0.434h4.582c0.241,0,0.437,0.194,0.437,0.434V52.319z"/>
			</g>
		</g>
		<g>
			<path fill="#333333" d="M45.16,44.003c-0.829,0-1.5-0.672-1.5-1.5V24.916l-2.332-0.542c-0.807-0.188-1.309-0.994-1.121-1.801
				c0.188-0.808,0.995-1.31,1.801-1.121l3.492,0.812c0.679,0.158,1.16,0.764,1.16,1.461v18.778
				C46.66,43.331,45.988,44.003,45.16,44.003z"/>
		</g>
		<g>
			<path fill="#333333" d="M111.383,51.849H27.514c-4.098,0-6.983-1.501-6.983-5.577l0,0c0-4.076,2.885-5.577,6.983-5.577h18.112
				l2.661,2.151c1.189,0,63.096-0.043,63.096-0.043V51.849z"/>
		</g>
		<g>
			<path fill="#A0C16F" d="M41.344,16.577H41.18c-0.043,0-0.083,0.01-0.126,0.012l-0.011-0.012H20.095l-3.901,6.45L12.53,34.173
				l-0.037,16.771h13.421c0-6.934,6.401-7.235,6.401-7.235h11.178V23.155v-3.337v-0.733C43.493,17.812,42.624,16.577,41.344,16.577z
				"/>
		</g>
		<g>
			<path fill="#333333" d="M39.249,18.687v10.247c0,0-1.939,3.269-20.997,5.657c0,0,0.969-11.684,7.225-15.904H39.249z"/>
		</g>
		<g>
			<rect x="35.612" y="35.871" fill="#4E4E4E" width="3.334" height="5.426"/>
		</g>
		<g>
			<rect x="35.612" y="39.488" fill="#666666" width="3.334" height="1.809"/>
		</g>
		<g>
			<path fill="#FFFFFF" d="M21.671,49.024c0,0.561-0.457,1.016-1.021,1.016h-4.02c-0.564,0-1.021-0.455-1.021-1.016v-0.079
				c0-0.561,0.457-1.016,1.021-1.016h4.02c0.564,0,1.021,0.455,1.021,1.016V49.024z"/>
		</g>
		<g>
			<path fill="#F38E22" d="M21.671,49.139c0,0.589-0.311,0.901-0.903,0.901h-2.734v-2.11h2.734c0.593,0,0.903,0.427,0.903,1.016
				V49.139z"/>
		</g>
		<g>
			<path fill="#333333" d="M20.095,16.779c0,0-7.601,5.897-7.565,18.378c0,0,1.204,0.081,1.273-0.507
				C14.966,24.756,19.167,19.818,20.095,16.779z"/>
		</g>
		<g>
			<path fill="#939393" d="M13.184,48.555c0,0.321-0.261,0.581-0.584,0.581h-0.045c-0.322,0-0.584-0.26-0.584-0.581v-8.486
				c0-0.321,0.261-0.581,0.584-0.581H12.6c0.322,0,0.584,0.26,0.584,0.581V48.555z"/>
		</g>
		<g>
			<path fill="#666666" d="M26.823,52.039c0,0.561-0.457,1.016-1.021,1.016H12.084c-0.564,0-1.021-0.455-1.021-1.016V51.96
				c0-0.561,0.457-1.016,1.021-1.016h13.718c0.564,0,1.021,0.455,1.021,1.016V52.039z"/>
		</g>
		<g>
			<path fill="#E1E1E1" d="M20.04,16.577c0,0,2.346-11.539,23.622-11.484c0,0,0.6,8.401-0.327,9.975c0,0-0.709,1.509-1.582,1.509
				C40.88,16.577,20.04,16.577,20.04,16.577z"/>
		</g>
		<g>
			<g>
				<ellipse fill="#333333" cx="36.516" cy="52.539" rx="7.474" ry="7.434"/>
			</g>
			<g>
				<g>
					<ellipse fill="#C7C7C6" cx="36.516" cy="52.539" rx="4.855" ry="4.829"/>
				</g>
				<g>
					<ellipse fill="#E1E1E1" cx="36.516" cy="52.539" rx="1.418" ry="1.41"/>
					<path fill="#333333" d="M36.516,54.45c-1.058,0-1.918-0.857-1.918-1.911s0.861-1.911,1.918-1.911s1.918,0.857,1.918,1.911
						S37.573,54.45,36.516,54.45z M36.516,51.628c-0.506,0-0.918,0.409-0.918,0.911s0.412,0.911,0.918,0.911
						s0.918-0.409,0.918-0.911S37.022,51.628,36.516,51.628z"/>
				</g>
				<g>
					<rect x="35.006" y="48.532" fill="#333333" width="2.425" height="0.603"/>
				</g>
				<g>
					<rect x="35.006" y="56.069" fill="#333333" width="2.425" height="0.603"/>
				</g>
				<g>
					<rect x="39.249" y="51.547" fill="#333333" width="0.606" height="2.11"/>
				</g>
				<g>
					<rect x="32.278" y="51.547" fill="#333333" width="0.606" height="2.11"/>
				</g>
			</g>
		</g>
		<g>
			<rect x="54.707" y="48.834" fill="#808080" width="52.434" height="2.11"/>
		</g>
		<g>
			<g>
				<ellipse fill="#333333" cx="111.874" cy="52.539" rx="7.474" ry="7.434"/>
			</g>
			<g>
				<g>
					<ellipse fill="#C7C7C6" cx="111.875" cy="52.539" rx="4.855" ry="4.829"/>
				</g>
				<g>
					<ellipse fill="#E1E1E1" cx="111.874" cy="52.539" rx="1.418" ry="1.41"/>
					<path fill="#333333" d="M111.874,54.45c-1.059,0-1.919-0.857-1.919-1.911s0.86-1.911,1.919-1.911
						c1.058,0,1.918,0.857,1.918,1.911S112.932,54.45,111.874,54.45z M111.874,51.628c-0.507,0-0.919,0.409-0.919,0.911
						s0.412,0.911,0.919,0.911c0.506,0,0.918-0.409,0.918-0.911S112.38,51.628,111.874,51.628z"/>
				</g>
				<g>
					<rect x="110.474" y="48.532" fill="#333333" width="2.122" height="0.603"/>
				</g>
				<g>
					<rect x="110.474" y="56.069" fill="#333333" width="2.122" height="0.603"/>
				</g>
				<g>
					<rect x="114.717" y="51.547" fill="#333333" width="0.606" height="2.11"/>
				</g>
				<g>
					<rect x="107.746" y="51.547" fill="#333333" width="0.606" height="2.11"/>
				</g>
			</g>
		</g>
		<g>
			<path fill="#869D5D" d="M15.867,45.498v-9.903c-0.306-8.377,5.42-16.639,5.664-16.986l0.818,0.574
				c-0.058,0.083-5.776,8.339-5.483,16.394l0,8.92l8.421-0.012c0.542-0.865,2.523-3.388,7.199-3.388v1
				c-4.868,0-6.397,2.98-6.46,3.107l-0.137,0.277l-0.312,0.003L15.867,45.498z"/>
		</g>
		<g>
			<path fill="#666666" d="M21.974,36.534c0,0.3-0.244,0.543-0.546,0.543h-2.849c-0.301,0-0.546-0.243-0.546-0.543v-0.12
				c0-0.3,0.244-0.543,0.546-0.543h2.849c0.301,0,0.546,0.243,0.546,0.543V36.534z"/>
		</g>
		<g>
			<rect x="47.433" y="47.93" fill="#666666" width="11.214" height="4.823"/>
		</g>
		<g>
			<g>
				<path fill="#4E4E4E" d="M29.54,18.687l-2.275,14.534c3.134-0.609,5.495-1.295,7.268-1.871l1.99-12.663H29.54z"/>
			</g>
		</g>
		<g>
			<g>
				<rect x="48.039" y="-0.004" fill="#D4D4D3" width="92.744" height="44.918"/>
			</g>
			<g>
				<g>
					<path fill="#E1E1E1" d="M70.164,38.826c0,1.199-0.977,2.17-2.182,2.17H53.858c-1.205,0-2.182-0.972-2.182-2.17V4.88
						c0-1.199,0.977-2.17,2.182-2.17h14.124c1.205,0,2.182,0.972,2.182,2.17V38.826z"/>
				</g>
				<g>
					<path fill="#E1E1E1" d="M92.289,38.818c0,1.199-0.674,2.178-1.879,2.178H76.287c-1.206,0-2.486-0.979-2.486-2.178V4.873
						c0-1.199,1.28-2.163,2.486-2.163H90.41c1.206,0,1.879,0.964,1.879,2.163V38.818z"/>
				</g>
				<g>
					<path fill="#E1E1E1" d="M115.02,38.826c0,1.199-0.977,2.17-2.182,2.17H98.714c-1.205,0-2.182-0.972-2.182-2.17V4.88
						c0-1.199,0.977-2.17,2.182-2.17h14.124c1.205,0,2.182,0.972,2.182,2.17V38.826z"/>
				</g>
			</g>
			<g>
				<rect x="50.464" y="42.202" fill="#E1E1E1" width="88.5" height="1.507"/>
			</g>
			<g>
				<path fill="#F38E22" d="M51.979,1.528c0,0.32-0.261,0.579-0.582,0.579H49.53c-0.322,0-0.582-0.259-0.582-0.579V1.48
					c0-0.32,0.261-0.579,0.582-0.579h1.866c0.322,0,0.582,0.259,0.582,0.579V1.528z"/>
			</g>
			<g>
				<path fill="#F38E22" d="M139.57,1.528c0,0.32-0.26,0.579-0.582,0.579h-1.867c-0.321,0-0.582-0.259-0.582-0.579V1.48
					c0-0.32,0.26-0.579,0.582-0.579h1.867c0.321,0,0.582,0.259,0.582,0.579V1.528z"/>
			</g>
			<g>
				<g>
					<path fill="#E1E1E1" d="M137.145,38.818c0,1.199-0.674,2.178-1.879,2.178h-14.123c-1.206,0-2.486-0.979-2.486-2.178V4.873
						c0-1.199,1.28-2.163,2.486-2.163h14.123c1.206,0,1.879,0.964,1.879,2.163V38.818z"/>
				</g>
			</g>
		</g>
		<g>
			<rect x="70.164" y="47.327" fill="#AFAFAF" width="9.093" height="2.713"/>
		</g>
		<g>
			<rect x="70.164" y="50.04" fill="#333333" width="9.093" height="2.713"/>
		</g>
	</g>
	<g>
		<path fill="#AC3F42" d="M63.775,6.139h2.021l1.214,4.693h-1.94l-0.18-0.965h-3.154l-0.964,0.965h-1.871L63.775,6.139z
			 M62.532,9.059h2.173l-0.354-1.847L62.532,9.059z"/>
		<path fill="#AC3F42" d="M76.19,6.588c0.139,0.119,0.234,0.251,0.287,0.395c0.053,0.145,0.043,0.31-0.025,0.494
			c-0.09,0.223-0.279,0.441-0.567,0.657c-0.289,0.216-0.687,0.368-1.194,0.457c0.36,0.087,0.592,0.211,0.694,0.371
			s0.09,0.404-0.038,0.733l-0.121,0.315c-0.082,0.214-0.122,0.359-0.122,0.437c0,0.12,0.073,0.21,0.221,0.267l-0.041,0.118h-1.969
			c-0.016-0.104-0.023-0.188-0.023-0.252c0.004-0.131,0.03-0.266,0.081-0.404l0.157-0.436c0.108-0.3,0.086-0.499-0.067-0.599
			c-0.152-0.1-0.492-0.149-1.02-0.149h-1.847l-0.709,1.84h-1.748l1.817-4.693h4.2c0.597,0.007,1.042,0.047,1.336,0.121
			C75.787,6.334,76.018,6.444,76.19,6.588z M71.386,6.954l-0.488,1.261h2.027c0.402,0,0.715-0.025,0.936-0.076
			c0.391-0.089,0.639-0.266,0.743-0.528c0.108-0.285,0.01-0.476-0.296-0.573c-0.175-0.056-0.455-0.083-0.843-0.083H71.386z"/>
		<path fill="#AC3F42" d="M84.182,6.139h2.572l-1.816,4.693H83.27l1.227-3.174c0.037-0.092,0.092-0.22,0.158-0.384
			c0.068-0.165,0.117-0.292,0.148-0.381l-3.143,3.938h-1.736l-0.088-3.938C79.805,6.983,79.76,7.11,79.7,7.275
			c-0.059,0.164-0.109,0.292-0.148,0.384l-1.225,3.174h-1.668l1.818-4.693h2.604l0.121,3.69L84.182,6.139z"/>
		<path fill="#AC3F42" d="M90.868,6.139h2.021l1.215,4.693h-1.941l-0.18-0.965h-3.154l-0.963,0.965h-1.871L90.868,6.139z
			 M89.625,9.059h2.172l-0.354-1.847L89.625,9.059z"/>
		<path fill="#AC3F42" d="M97.043,9.384c-0.027,0.214,0.018,0.374,0.133,0.48c0.217,0.193,0.678,0.29,1.383,0.29
			c0.422,0,0.775-0.025,1.059-0.077c0.537-0.098,0.857-0.278,0.957-0.544c0.062-0.155-0.016-0.275-0.232-0.36
			c-0.213-0.082-0.572-0.155-1.08-0.22l-0.865-0.111c-0.848-0.11-1.418-0.229-1.707-0.359c-0.492-0.217-0.65-0.555-0.471-1.016
			c0.162-0.42,0.576-0.77,1.242-1.048c0.666-0.277,1.539-0.417,2.619-0.417c0.902,0,1.621,0.132,2.156,0.394
			s0.721,0.643,0.557,1.142h-1.719c0.082-0.282-0.064-0.483-0.436-0.602c-0.248-0.079-0.578-0.118-0.994-0.118
			c-0.461,0-0.848,0.051-1.164,0.152c-0.316,0.103-0.508,0.244-0.578,0.427c-0.066,0.168,0.021,0.293,0.262,0.376
			c0.15,0.056,0.498,0.12,1.039,0.194l1.4,0.194c0.611,0.085,1.055,0.198,1.33,0.341c0.426,0.221,0.559,0.54,0.395,0.958
			c-0.166,0.429-0.604,0.784-1.312,1.068c-0.709,0.283-1.609,0.425-2.701,0.425c-1.115,0-1.938-0.14-2.469-0.419
			c-0.529-0.279-0.701-0.662-0.51-1.15H97.043z"/>
	</g>
	<g>
		<polygon points="58.601,11.621 54.797,14.919 140.782,14.919 140.782,11.621 		"/>
	</g>
	<g>
		<path fill="#FFFFFF" d="M59.123,12.395v1.342h0.807v0.304h-1.17v-1.646H59.123z"/>
		<path fill="#FFFFFF" d="M61.507,12.882c0.037-0.105,0.091-0.197,0.16-0.275s0.154-0.14,0.256-0.185
			c0.102-0.044,0.215-0.066,0.342-0.066c0.128,0,0.242,0.022,0.343,0.066c0.101,0.045,0.186,0.106,0.255,0.185
			s0.123,0.17,0.16,0.275s0.056,0.22,0.056,0.343c0,0.119-0.019,0.231-0.056,0.335s-0.091,0.194-0.16,0.271
			c-0.069,0.077-0.154,0.138-0.255,0.182c-0.101,0.043-0.215,0.065-0.343,0.065c-0.127,0-0.24-0.022-0.342-0.065
			c-0.102-0.044-0.187-0.104-0.256-0.182c-0.069-0.076-0.123-0.167-0.16-0.271s-0.056-0.216-0.056-0.335
			C61.451,13.102,61.47,12.988,61.507,12.882z M61.84,13.426c0.016,0.065,0.042,0.124,0.077,0.177
			c0.035,0.052,0.082,0.094,0.139,0.125c0.058,0.032,0.127,0.048,0.209,0.048s0.151-0.016,0.208-0.048
			c0.058-0.031,0.104-0.073,0.14-0.125c0.035-0.053,0.062-0.111,0.077-0.177c0.017-0.065,0.024-0.133,0.024-0.201
			c0-0.072-0.008-0.143-0.024-0.21c-0.016-0.067-0.042-0.128-0.077-0.181c-0.036-0.054-0.082-0.096-0.14-0.127
			c-0.057-0.031-0.126-0.048-0.208-0.048s-0.151,0.017-0.209,0.048c-0.057,0.031-0.104,0.073-0.139,0.127
			c-0.035,0.053-0.062,0.113-0.077,0.181c-0.017,0.067-0.024,0.138-0.024,0.21C61.815,13.293,61.823,13.361,61.84,13.426z"/>
		<path fill="#FFFFFF" d="M65.696,14.028c-0.078,0.033-0.158,0.05-0.238,0.05c-0.127,0-0.24-0.022-0.342-0.065
			c-0.102-0.044-0.187-0.104-0.256-0.182c-0.069-0.076-0.123-0.167-0.16-0.271s-0.056-0.216-0.056-0.335
			c0-0.123,0.019-0.237,0.056-0.343s0.091-0.197,0.16-0.275s0.154-0.14,0.256-0.185c0.102-0.044,0.215-0.066,0.342-0.066
			c0.085,0,0.167,0.013,0.247,0.038c0.079,0.025,0.151,0.062,0.215,0.111c0.064,0.05,0.117,0.11,0.159,0.183
			c0.041,0.072,0.067,0.155,0.076,0.249h-0.348c-0.021-0.093-0.063-0.162-0.125-0.208s-0.137-0.069-0.225-0.069
			c-0.082,0-0.151,0.017-0.209,0.048c-0.057,0.031-0.104,0.073-0.139,0.127c-0.035,0.053-0.062,0.113-0.077,0.181
			c-0.017,0.067-0.024,0.138-0.024,0.21c0,0.068,0.008,0.136,0.024,0.201c0.016,0.065,0.042,0.124,0.077,0.177
			c0.035,0.052,0.082,0.094,0.139,0.125c0.058,0.032,0.127,0.048,0.209,0.048c0.12,0,0.214-0.03,0.279-0.092
			c0.065-0.061,0.104-0.148,0.114-0.264h-0.366v-0.27h0.695v0.89h-0.231l-0.037-0.187C65.847,13.937,65.775,13.994,65.696,14.028z"
			/>
		<path fill="#FFFFFF" d="M68.229,12.395v1.646h-0.363v-1.646H68.229z"/>
		<path fill="#FFFFFF" d="M70.216,13.635c0.021,0.038,0.047,0.069,0.08,0.093c0.033,0.024,0.072,0.042,0.117,0.054
			c0.045,0.011,0.091,0.017,0.139,0.017c0.033,0,0.067-0.003,0.104-0.008c0.037-0.006,0.072-0.016,0.104-0.031
			s0.06-0.036,0.081-0.063c0.021-0.026,0.032-0.061,0.032-0.103c0-0.044-0.014-0.08-0.043-0.108
			c-0.028-0.027-0.065-0.051-0.112-0.069c-0.046-0.018-0.099-0.034-0.157-0.048s-0.118-0.029-0.179-0.046
			c-0.062-0.016-0.122-0.034-0.181-0.057s-0.111-0.051-0.157-0.087c-0.047-0.035-0.084-0.079-0.112-0.132
			c-0.029-0.054-0.043-0.117-0.043-0.192c0-0.085,0.018-0.158,0.055-0.221c0.036-0.062,0.083-0.113,0.143-0.155
			c0.059-0.041,0.125-0.072,0.199-0.092c0.073-0.021,0.147-0.03,0.222-0.03c0.087,0,0.17,0.01,0.249,0.028
			c0.08,0.02,0.15,0.051,0.212,0.094c0.062,0.043,0.111,0.098,0.147,0.165c0.036,0.066,0.055,0.147,0.055,0.243h-0.353
			c-0.003-0.05-0.014-0.09-0.031-0.122s-0.041-0.058-0.07-0.076s-0.063-0.031-0.101-0.039c-0.038-0.008-0.079-0.012-0.124-0.012
			c-0.029,0-0.059,0.003-0.088,0.009c-0.029,0.007-0.057,0.018-0.08,0.032c-0.024,0.016-0.044,0.035-0.06,0.058
			c-0.016,0.023-0.023,0.053-0.023,0.088c0,0.032,0.007,0.059,0.019,0.078c0.013,0.021,0.037,0.039,0.073,0.056
			s0.087,0.034,0.15,0.051c0.064,0.017,0.148,0.038,0.252,0.064c0.03,0.006,0.073,0.018,0.129,0.033
			c0.055,0.017,0.108,0.042,0.163,0.077c0.054,0.035,0.101,0.083,0.14,0.142c0.04,0.06,0.06,0.135,0.06,0.228
			c0,0.075-0.015,0.145-0.044,0.209c-0.029,0.065-0.073,0.121-0.131,0.168c-0.059,0.047-0.13,0.083-0.216,0.109
			c-0.086,0.025-0.185,0.039-0.298,0.039c-0.091,0-0.18-0.012-0.265-0.033c-0.086-0.022-0.162-0.058-0.228-0.105
			s-0.118-0.108-0.156-0.182c-0.039-0.074-0.058-0.161-0.056-0.263h0.353C70.187,13.549,70.196,13.596,70.216,13.635z"/>
		<path fill="#FFFFFF" d="M72.702,12.7v-0.305h1.355V12.7h-0.496v1.341h-0.363V12.7H72.702z"/>
		<path fill="#FFFFFF" d="M76,12.395v1.646h-0.363v-1.646H76z"/>
		<path fill="#FFFFFF" d="M78.772,12.834c-0.021-0.035-0.049-0.065-0.08-0.092c-0.033-0.025-0.07-0.046-0.109-0.061
			c-0.041-0.015-0.084-0.022-0.129-0.022c-0.082,0-0.152,0.017-0.209,0.048s-0.104,0.073-0.139,0.127
			c-0.035,0.053-0.062,0.113-0.078,0.181s-0.023,0.138-0.023,0.21c0,0.068,0.008,0.136,0.023,0.201s0.043,0.124,0.078,0.177
			c0.035,0.052,0.082,0.094,0.139,0.125c0.057,0.032,0.127,0.048,0.209,0.048c0.111,0,0.197-0.034,0.26-0.102
			s0.102-0.157,0.115-0.268h0.352c-0.01,0.103-0.033,0.196-0.072,0.279c-0.037,0.083-0.088,0.153-0.152,0.212
			c-0.062,0.058-0.137,0.103-0.223,0.134c-0.084,0.03-0.178,0.046-0.279,0.046c-0.127,0-0.24-0.022-0.342-0.065
			c-0.102-0.044-0.188-0.104-0.256-0.182c-0.07-0.076-0.123-0.167-0.16-0.271s-0.057-0.216-0.057-0.335
			c0-0.123,0.02-0.237,0.057-0.343s0.09-0.197,0.16-0.275c0.068-0.078,0.154-0.14,0.256-0.185c0.102-0.044,0.215-0.066,0.342-0.066
			c0.09,0,0.176,0.013,0.258,0.039c0.08,0.026,0.154,0.064,0.217,0.114c0.064,0.05,0.117,0.111,0.16,0.186
			c0.041,0.073,0.068,0.158,0.078,0.253h-0.352C78.809,12.907,78.793,12.868,78.772,12.834z"/>
		<path fill="#FFFFFF" d="M83.129,13.635c0.021,0.038,0.047,0.069,0.08,0.093c0.033,0.024,0.072,0.042,0.117,0.054
			c0.045,0.011,0.092,0.017,0.139,0.017c0.033,0,0.068-0.003,0.105-0.008c0.037-0.006,0.072-0.016,0.104-0.031
			c0.033-0.016,0.061-0.036,0.082-0.063c0.021-0.026,0.031-0.061,0.031-0.103c0-0.044-0.014-0.08-0.043-0.108
			c-0.027-0.027-0.064-0.051-0.111-0.069c-0.047-0.018-0.1-0.034-0.158-0.048s-0.117-0.029-0.178-0.046
			c-0.062-0.016-0.123-0.034-0.182-0.057s-0.111-0.051-0.156-0.087c-0.047-0.035-0.084-0.079-0.113-0.132
			c-0.029-0.054-0.043-0.117-0.043-0.192c0-0.085,0.018-0.158,0.055-0.221c0.037-0.062,0.084-0.113,0.143-0.155
			c0.059-0.041,0.125-0.072,0.199-0.092c0.074-0.021,0.148-0.03,0.223-0.03c0.086,0,0.17,0.01,0.248,0.028
			c0.08,0.02,0.15,0.051,0.213,0.094s0.111,0.098,0.146,0.165c0.037,0.066,0.055,0.147,0.055,0.243h-0.352
			c-0.004-0.05-0.014-0.09-0.031-0.122s-0.041-0.058-0.07-0.076s-0.064-0.031-0.102-0.039s-0.078-0.012-0.123-0.012
			c-0.029,0-0.059,0.003-0.088,0.009c-0.029,0.007-0.057,0.018-0.08,0.032c-0.025,0.016-0.045,0.035-0.061,0.058
			c-0.016,0.023-0.023,0.053-0.023,0.088c0,0.032,0.008,0.059,0.02,0.078c0.012,0.021,0.037,0.039,0.072,0.056
			c0.037,0.017,0.088,0.034,0.15,0.051c0.064,0.017,0.148,0.038,0.252,0.064c0.031,0.006,0.074,0.018,0.129,0.033
			c0.055,0.017,0.109,0.042,0.164,0.077c0.053,0.035,0.1,0.083,0.139,0.142c0.041,0.06,0.061,0.135,0.061,0.228
			c0,0.075-0.016,0.145-0.045,0.209c-0.029,0.065-0.072,0.121-0.131,0.168s-0.129,0.083-0.215,0.109
			c-0.086,0.025-0.186,0.039-0.299,0.039c-0.09,0-0.18-0.012-0.264-0.033c-0.086-0.022-0.162-0.058-0.229-0.105
			c-0.064-0.048-0.117-0.108-0.156-0.182c-0.039-0.074-0.057-0.161-0.055-0.263H83.1C83.1,13.549,83.11,13.596,83.129,13.635z"/>
		<path fill="#FFFFFF" d="M86.985,12.395V12.7H86.11v0.353h0.803v0.281H86.11v0.403h0.893v0.304h-1.256v-1.646H86.985z"/>
		<path fill="#FFFFFF" d="M89.53,12.395c0.074,0,0.141,0.012,0.199,0.036c0.061,0.023,0.111,0.056,0.154,0.098
			c0.041,0.041,0.074,0.09,0.098,0.144c0.021,0.055,0.033,0.113,0.033,0.177c0,0.097-0.021,0.181-0.062,0.251
			c-0.041,0.071-0.107,0.125-0.199,0.161v0.005c0.045,0.013,0.082,0.031,0.111,0.057s0.053,0.056,0.07,0.09
			c0.02,0.034,0.033,0.072,0.041,0.114c0.008,0.041,0.014,0.083,0.018,0.124c0.002,0.026,0.004,0.057,0.004,0.093
			c0.002,0.035,0.006,0.071,0.01,0.107c0.004,0.037,0.01,0.072,0.018,0.105s0.021,0.061,0.039,0.084h-0.365
			c-0.02-0.052-0.031-0.114-0.037-0.187c-0.004-0.072-0.012-0.142-0.02-0.208c-0.014-0.086-0.039-0.148-0.08-0.188
			c-0.039-0.04-0.105-0.06-0.195-0.06H89v0.643h-0.363v-1.646H89.53z M89.399,13.139c0.084,0,0.146-0.019,0.188-0.055
			c0.043-0.037,0.062-0.097,0.062-0.18c0-0.08-0.02-0.139-0.062-0.175c-0.041-0.036-0.104-0.054-0.188-0.054H89v0.463H89.399z"/>
		<path fill="#FFFFFF" d="M92.018,14.04l-0.535-1.646h0.373l0.369,1.157h0.004l0.373-1.157h0.375l-0.549,1.646H92.018z"/>
		<path fill="#FFFFFF" d="M94.872,12.395v1.646h-0.363v-1.646H94.872z"/>
		<path fill="#FFFFFF" d="M97.643,12.834c-0.021-0.035-0.049-0.065-0.08-0.092c-0.033-0.025-0.07-0.046-0.109-0.061
			c-0.041-0.015-0.084-0.022-0.129-0.022c-0.082,0-0.152,0.017-0.209,0.048s-0.104,0.073-0.139,0.127
			c-0.035,0.053-0.062,0.113-0.078,0.181s-0.023,0.138-0.023,0.21c0,0.068,0.008,0.136,0.023,0.201s0.043,0.124,0.078,0.177
			c0.035,0.052,0.082,0.094,0.139,0.125c0.057,0.032,0.127,0.048,0.209,0.048c0.111,0,0.197-0.034,0.26-0.102
			s0.102-0.157,0.115-0.268h0.352c-0.01,0.103-0.033,0.196-0.072,0.279c-0.037,0.083-0.088,0.153-0.152,0.212
			c-0.062,0.058-0.137,0.103-0.223,0.134c-0.084,0.03-0.178,0.046-0.279,0.046c-0.127,0-0.24-0.022-0.342-0.065
			c-0.102-0.044-0.188-0.104-0.256-0.182c-0.07-0.076-0.123-0.167-0.16-0.271s-0.057-0.216-0.057-0.335
			c0-0.123,0.02-0.237,0.057-0.343s0.09-0.197,0.16-0.275c0.068-0.078,0.154-0.14,0.256-0.185c0.102-0.044,0.215-0.066,0.342-0.066
			c0.09,0,0.176,0.013,0.258,0.039c0.08,0.026,0.154,0.064,0.217,0.114c0.064,0.05,0.117,0.111,0.16,0.186
			c0.041,0.073,0.068,0.158,0.078,0.253h-0.352C97.68,12.907,97.665,12.868,97.643,12.834z"/>
		<path fill="#FFFFFF" d="M100.926,12.395V12.7h-0.873v0.353h0.801v0.281h-0.801v0.403h0.893v0.304H99.69v-1.646H100.926z"/>
	</g>
	<g>
		<g>
			<path fill="#AC3F42" d="M63.775,6.139h2.021l1.214,4.693h-1.94l-0.18-0.965h-3.154l-0.964,0.965h-1.871L63.775,6.139z
				 M62.532,9.059h2.173l-0.354-1.847L62.532,9.059z"/>
			<path fill="#AC3F42" d="M76.19,6.588c0.139,0.119,0.234,0.251,0.287,0.395c0.053,0.145,0.043,0.31-0.025,0.494
				c-0.09,0.223-0.279,0.441-0.567,0.657c-0.289,0.216-0.687,0.368-1.194,0.457c0.36,0.087,0.592,0.211,0.694,0.371
				s0.09,0.404-0.038,0.733l-0.121,0.315c-0.082,0.214-0.122,0.359-0.122,0.437c0,0.12,0.073,0.21,0.221,0.267l-0.041,0.118h-1.969
				c-0.016-0.104-0.023-0.188-0.023-0.252c0.004-0.131,0.03-0.266,0.081-0.404l0.157-0.436c0.108-0.3,0.086-0.499-0.067-0.599
				c-0.152-0.1-0.492-0.149-1.02-0.149h-1.847l-0.709,1.84h-1.748l1.817-4.693h4.2c0.597,0.007,1.042,0.047,1.336,0.121
				C75.787,6.334,76.018,6.444,76.19,6.588z M71.386,6.954l-0.488,1.261h2.027c0.402,0,0.715-0.025,0.936-0.076
				c0.391-0.089,0.639-0.266,0.743-0.528c0.108-0.285,0.01-0.476-0.296-0.573c-0.175-0.056-0.455-0.083-0.843-0.083H71.386z"/>
			<path fill="#AC3F42" d="M84.182,6.139h2.572l-1.816,4.693H83.27l1.227-3.174c0.037-0.092,0.092-0.22,0.158-0.384
				c0.068-0.165,0.117-0.292,0.148-0.381l-3.143,3.938h-1.736l-0.088-3.938C79.805,6.983,79.76,7.11,79.7,7.275
				c-0.059,0.164-0.109,0.292-0.148,0.384l-1.225,3.174h-1.668l1.818-4.693h2.604l0.121,3.69L84.182,6.139z"/>
			<path fill="#AC3F42" d="M90.868,6.139h2.021l1.215,4.693h-1.941l-0.18-0.965h-3.154l-0.963,0.965h-1.871L90.868,6.139z
				 M89.625,9.059h2.172l-0.354-1.847L89.625,9.059z"/>
			<path fill="#AC3F42" d="M97.043,9.384c-0.027,0.214,0.018,0.374,0.133,0.48c0.217,0.193,0.678,0.29,1.383,0.29
				c0.422,0,0.775-0.025,1.059-0.077c0.537-0.098,0.857-0.278,0.957-0.544c0.062-0.155-0.016-0.275-0.232-0.36
				c-0.213-0.082-0.572-0.155-1.08-0.22l-0.865-0.111c-0.848-0.11-1.418-0.229-1.707-0.359c-0.492-0.217-0.65-0.555-0.471-1.016
				c0.162-0.42,0.576-0.77,1.242-1.048c0.666-0.277,1.539-0.417,2.619-0.417c0.902,0,1.621,0.132,2.156,0.394
				s0.721,0.643,0.557,1.142h-1.719c0.082-0.282-0.064-0.483-0.436-0.602c-0.248-0.079-0.578-0.118-0.994-0.118
				c-0.461,0-0.848,0.051-1.164,0.152c-0.316,0.103-0.508,0.244-0.578,0.427c-0.066,0.168,0.021,0.293,0.262,0.376
				c0.15,0.056,0.498,0.12,1.039,0.194l1.4,0.194c0.611,0.085,1.055,0.198,1.33,0.341c0.426,0.221,0.559,0.54,0.395,0.958
				c-0.166,0.429-0.604,0.784-1.312,1.068c-0.709,0.283-1.609,0.425-2.701,0.425c-1.115,0-1.938-0.14-2.469-0.419
				c-0.529-0.279-0.701-0.662-0.51-1.15H97.043z"/>
		</g>
		<g>
			<polygon points="58.601,11.621 54.797,14.919 140.782,14.919 140.782,11.621 			"/>
		</g>
		<g>
			<path fill="#FFFFFF" d="M59.123,12.395v1.342h0.807v0.304h-1.17v-1.646H59.123z"/>
			<path fill="#FFFFFF" d="M61.507,12.882c0.037-0.105,0.091-0.197,0.16-0.275s0.154-0.14,0.256-0.185
				c0.102-0.044,0.215-0.066,0.342-0.066c0.128,0,0.242,0.022,0.343,0.066c0.101,0.045,0.186,0.106,0.255,0.185
				s0.123,0.17,0.16,0.275s0.056,0.22,0.056,0.343c0,0.119-0.019,0.231-0.056,0.335s-0.091,0.194-0.16,0.271
				c-0.069,0.077-0.154,0.138-0.255,0.182c-0.101,0.043-0.215,0.065-0.343,0.065c-0.127,0-0.24-0.022-0.342-0.065
				c-0.102-0.044-0.187-0.104-0.256-0.182c-0.069-0.076-0.123-0.167-0.16-0.271s-0.056-0.216-0.056-0.335
				C61.451,13.102,61.47,12.988,61.507,12.882z M61.84,13.426c0.016,0.065,0.042,0.124,0.077,0.177
				c0.035,0.052,0.082,0.094,0.139,0.125c0.058,0.032,0.127,0.048,0.209,0.048s0.151-0.016,0.208-0.048
				c0.058-0.031,0.104-0.073,0.14-0.125c0.035-0.053,0.062-0.111,0.077-0.177c0.017-0.065,0.024-0.133,0.024-0.201
				c0-0.072-0.008-0.143-0.024-0.21c-0.016-0.067-0.042-0.128-0.077-0.181c-0.036-0.054-0.082-0.096-0.14-0.127
				c-0.057-0.031-0.126-0.048-0.208-0.048s-0.151,0.017-0.209,0.048c-0.057,0.031-0.104,0.073-0.139,0.127
				c-0.035,0.053-0.062,0.113-0.077,0.181c-0.017,0.067-0.024,0.138-0.024,0.21C61.815,13.293,61.823,13.361,61.84,13.426z"/>
			<path fill="#FFFFFF" d="M65.696,14.028c-0.078,0.033-0.158,0.05-0.238,0.05c-0.127,0-0.24-0.022-0.342-0.065
				c-0.102-0.044-0.187-0.104-0.256-0.182c-0.069-0.076-0.123-0.167-0.16-0.271s-0.056-0.216-0.056-0.335
				c0-0.123,0.019-0.237,0.056-0.343s0.091-0.197,0.16-0.275s0.154-0.14,0.256-0.185c0.102-0.044,0.215-0.066,0.342-0.066
				c0.085,0,0.167,0.013,0.247,0.038c0.079,0.025,0.151,0.062,0.215,0.111c0.064,0.05,0.117,0.11,0.159,0.183
				c0.041,0.072,0.067,0.155,0.076,0.249h-0.348c-0.021-0.093-0.063-0.162-0.125-0.208s-0.137-0.069-0.225-0.069
				c-0.082,0-0.151,0.017-0.209,0.048c-0.057,0.031-0.104,0.073-0.139,0.127c-0.035,0.053-0.062,0.113-0.077,0.181
				c-0.017,0.067-0.024,0.138-0.024,0.21c0,0.068,0.008,0.136,0.024,0.201c0.016,0.065,0.042,0.124,0.077,0.177
				c0.035,0.052,0.082,0.094,0.139,0.125c0.058,0.032,0.127,0.048,0.209,0.048c0.12,0,0.214-0.03,0.279-0.092
				c0.065-0.061,0.104-0.148,0.114-0.264h-0.366v-0.27h0.695v0.89h-0.231l-0.037-0.187C65.847,13.937,65.775,13.994,65.696,14.028z"
				/>
			<path fill="#FFFFFF" d="M68.229,12.395v1.646h-0.363v-1.646H68.229z"/>
			<path fill="#FFFFFF" d="M70.216,13.635c0.021,0.038,0.047,0.069,0.08,0.093c0.033,0.024,0.072,0.042,0.117,0.054
				c0.045,0.011,0.091,0.017,0.139,0.017c0.033,0,0.067-0.003,0.104-0.008c0.037-0.006,0.072-0.016,0.104-0.031
				s0.06-0.036,0.081-0.063c0.021-0.026,0.032-0.061,0.032-0.103c0-0.044-0.014-0.08-0.043-0.108
				c-0.028-0.027-0.065-0.051-0.112-0.069c-0.046-0.018-0.099-0.034-0.157-0.048s-0.118-0.029-0.179-0.046
				c-0.062-0.016-0.122-0.034-0.181-0.057s-0.111-0.051-0.157-0.087c-0.047-0.035-0.084-0.079-0.112-0.132
				c-0.029-0.054-0.043-0.117-0.043-0.192c0-0.085,0.018-0.158,0.055-0.221c0.036-0.062,0.083-0.113,0.143-0.155
				c0.059-0.041,0.125-0.072,0.199-0.092c0.073-0.021,0.147-0.03,0.222-0.03c0.087,0,0.17,0.01,0.249,0.028
				c0.08,0.02,0.15,0.051,0.212,0.094c0.062,0.043,0.111,0.098,0.147,0.165c0.036,0.066,0.055,0.147,0.055,0.243h-0.353
				c-0.003-0.05-0.014-0.09-0.031-0.122s-0.041-0.058-0.07-0.076s-0.063-0.031-0.101-0.039c-0.038-0.008-0.079-0.012-0.124-0.012
				c-0.029,0-0.059,0.003-0.088,0.009c-0.029,0.007-0.057,0.018-0.08,0.032c-0.024,0.016-0.044,0.035-0.06,0.058
				c-0.016,0.023-0.023,0.053-0.023,0.088c0,0.032,0.007,0.059,0.019,0.078c0.013,0.021,0.037,0.039,0.073,0.056
				s0.087,0.034,0.15,0.051c0.064,0.017,0.148,0.038,0.252,0.064c0.03,0.006,0.073,0.018,0.129,0.033
				c0.055,0.017,0.108,0.042,0.163,0.077c0.054,0.035,0.101,0.083,0.14,0.142c0.04,0.06,0.06,0.135,0.06,0.228
				c0,0.075-0.015,0.145-0.044,0.209c-0.029,0.065-0.073,0.121-0.131,0.168c-0.059,0.047-0.13,0.083-0.216,0.109
				c-0.086,0.025-0.185,0.039-0.298,0.039c-0.091,0-0.18-0.012-0.265-0.033c-0.086-0.022-0.162-0.058-0.228-0.105
				s-0.118-0.108-0.156-0.182c-0.039-0.074-0.058-0.161-0.056-0.263h0.353C70.187,13.549,70.196,13.596,70.216,13.635z"/>
			<path fill="#FFFFFF" d="M72.702,12.7v-0.305h1.355V12.7h-0.496v1.341h-0.363V12.7H72.702z"/>
			<path fill="#FFFFFF" d="M76,12.395v1.646h-0.363v-1.646H76z"/>
			<path fill="#FFFFFF" d="M78.772,12.834c-0.021-0.035-0.049-0.065-0.08-0.092c-0.033-0.025-0.07-0.046-0.109-0.061
				c-0.041-0.015-0.084-0.022-0.129-0.022c-0.082,0-0.152,0.017-0.209,0.048s-0.104,0.073-0.139,0.127
				c-0.035,0.053-0.062,0.113-0.078,0.181s-0.023,0.138-0.023,0.21c0,0.068,0.008,0.136,0.023,0.201s0.043,0.124,0.078,0.177
				c0.035,0.052,0.082,0.094,0.139,0.125c0.057,0.032,0.127,0.048,0.209,0.048c0.111,0,0.197-0.034,0.26-0.102
				s0.102-0.157,0.115-0.268h0.352c-0.01,0.103-0.033,0.196-0.072,0.279c-0.037,0.083-0.088,0.153-0.152,0.212
				c-0.062,0.058-0.137,0.103-0.223,0.134c-0.084,0.03-0.178,0.046-0.279,0.046c-0.127,0-0.24-0.022-0.342-0.065
				c-0.102-0.044-0.188-0.104-0.256-0.182c-0.07-0.076-0.123-0.167-0.16-0.271s-0.057-0.216-0.057-0.335
				c0-0.123,0.02-0.237,0.057-0.343s0.09-0.197,0.16-0.275c0.068-0.078,0.154-0.14,0.256-0.185c0.102-0.044,0.215-0.066,0.342-0.066
				c0.09,0,0.176,0.013,0.258,0.039c0.08,0.026,0.154,0.064,0.217,0.114c0.064,0.05,0.117,0.111,0.16,0.186
				c0.041,0.073,0.068,0.158,0.078,0.253h-0.352C78.809,12.907,78.793,12.868,78.772,12.834z"/>
			<path fill="#FFFFFF" d="M83.129,13.635c0.021,0.038,0.047,0.069,0.08,0.093c0.033,0.024,0.072,0.042,0.117,0.054
				c0.045,0.011,0.092,0.017,0.139,0.017c0.033,0,0.068-0.003,0.105-0.008c0.037-0.006,0.072-0.016,0.104-0.031
				c0.033-0.016,0.061-0.036,0.082-0.063c0.021-0.026,0.031-0.061,0.031-0.103c0-0.044-0.014-0.08-0.043-0.108
				c-0.027-0.027-0.064-0.051-0.111-0.069c-0.047-0.018-0.1-0.034-0.158-0.048s-0.117-0.029-0.178-0.046
				c-0.062-0.016-0.123-0.034-0.182-0.057s-0.111-0.051-0.156-0.087c-0.047-0.035-0.084-0.079-0.113-0.132
				c-0.029-0.054-0.043-0.117-0.043-0.192c0-0.085,0.018-0.158,0.055-0.221c0.037-0.062,0.084-0.113,0.143-0.155
				c0.059-0.041,0.125-0.072,0.199-0.092c0.074-0.021,0.148-0.03,0.223-0.03c0.086,0,0.17,0.01,0.248,0.028
				c0.08,0.02,0.15,0.051,0.213,0.094s0.111,0.098,0.146,0.165c0.037,0.066,0.055,0.147,0.055,0.243h-0.352
				c-0.004-0.05-0.014-0.09-0.031-0.122s-0.041-0.058-0.07-0.076s-0.064-0.031-0.102-0.039s-0.078-0.012-0.123-0.012
				c-0.029,0-0.059,0.003-0.088,0.009c-0.029,0.007-0.057,0.018-0.08,0.032c-0.025,0.016-0.045,0.035-0.061,0.058
				c-0.016,0.023-0.023,0.053-0.023,0.088c0,0.032,0.008,0.059,0.02,0.078c0.012,0.021,0.037,0.039,0.072,0.056
				c0.037,0.017,0.088,0.034,0.15,0.051c0.064,0.017,0.148,0.038,0.252,0.064c0.031,0.006,0.074,0.018,0.129,0.033
				c0.055,0.017,0.109,0.042,0.164,0.077c0.053,0.035,0.1,0.083,0.139,0.142c0.041,0.06,0.061,0.135,0.061,0.228
				c0,0.075-0.016,0.145-0.045,0.209c-0.029,0.065-0.072,0.121-0.131,0.168s-0.129,0.083-0.215,0.109
				c-0.086,0.025-0.186,0.039-0.299,0.039c-0.09,0-0.18-0.012-0.264-0.033c-0.086-0.022-0.162-0.058-0.229-0.105
				c-0.064-0.048-0.117-0.108-0.156-0.182c-0.039-0.074-0.057-0.161-0.055-0.263H83.1C83.1,13.549,83.11,13.596,83.129,13.635z"/>
			<path fill="#FFFFFF" d="M86.985,12.395V12.7H86.11v0.353h0.803v0.281H86.11v0.403h0.893v0.304h-1.256v-1.646H86.985z"/>
			<path fill="#FFFFFF" d="M89.53,12.395c0.074,0,0.141,0.012,0.199,0.036c0.061,0.023,0.111,0.056,0.154,0.098
				c0.041,0.041,0.074,0.09,0.098,0.144c0.021,0.055,0.033,0.113,0.033,0.177c0,0.097-0.021,0.181-0.062,0.251
				c-0.041,0.071-0.107,0.125-0.199,0.161v0.005c0.045,0.013,0.082,0.031,0.111,0.057s0.053,0.056,0.07,0.09
				c0.02,0.034,0.033,0.072,0.041,0.114c0.008,0.041,0.014,0.083,0.018,0.124c0.002,0.026,0.004,0.057,0.004,0.093
				c0.002,0.035,0.006,0.071,0.01,0.107c0.004,0.037,0.01,0.072,0.018,0.105s0.021,0.061,0.039,0.084h-0.365
				c-0.02-0.052-0.031-0.114-0.037-0.187c-0.004-0.072-0.012-0.142-0.02-0.208c-0.014-0.086-0.039-0.148-0.08-0.188
				c-0.039-0.04-0.105-0.06-0.195-0.06H89v0.643h-0.363v-1.646H89.53z M89.399,13.139c0.084,0,0.146-0.019,0.188-0.055
				c0.043-0.037,0.062-0.097,0.062-0.18c0-0.08-0.02-0.139-0.062-0.175c-0.041-0.036-0.104-0.054-0.188-0.054H89v0.463H89.399z"/>
			<path fill="#FFFFFF" d="M92.018,14.04l-0.535-1.646h0.373l0.369,1.157h0.004l0.373-1.157h0.375l-0.549,1.646H92.018z"/>
			<path fill="#FFFFFF" d="M94.872,12.395v1.646h-0.363v-1.646H94.872z"/>
			<path fill="#FFFFFF" d="M97.643,12.834c-0.021-0.035-0.049-0.065-0.08-0.092c-0.033-0.025-0.07-0.046-0.109-0.061
				c-0.041-0.015-0.084-0.022-0.129-0.022c-0.082,0-0.152,0.017-0.209,0.048s-0.104,0.073-0.139,0.127
				c-0.035,0.053-0.062,0.113-0.078,0.181s-0.023,0.138-0.023,0.21c0,0.068,0.008,0.136,0.023,0.201s0.043,0.124,0.078,0.177
				c0.035,0.052,0.082,0.094,0.139,0.125c0.057,0.032,0.127,0.048,0.209,0.048c0.111,0,0.197-0.034,0.26-0.102
				s0.102-0.157,0.115-0.268h0.352c-0.01,0.103-0.033,0.196-0.072,0.279c-0.037,0.083-0.088,0.153-0.152,0.212
				c-0.062,0.058-0.137,0.103-0.223,0.134c-0.084,0.03-0.178,0.046-0.279,0.046c-0.127,0-0.24-0.022-0.342-0.065
				c-0.102-0.044-0.188-0.104-0.256-0.182c-0.07-0.076-0.123-0.167-0.16-0.271s-0.057-0.216-0.057-0.335
				c0-0.123,0.02-0.237,0.057-0.343s0.09-0.197,0.16-0.275c0.068-0.078,0.154-0.14,0.256-0.185c0.102-0.044,0.215-0.066,0.342-0.066
				c0.09,0,0.176,0.013,0.258,0.039c0.08,0.026,0.154,0.064,0.217,0.114c0.064,0.05,0.117,0.111,0.16,0.186
				c0.041,0.073,0.068,0.158,0.078,0.253h-0.352C97.68,12.907,97.665,12.868,97.643,12.834z"/>
			<path fill="#FFFFFF" d="M100.926,12.395V12.7h-0.873v0.353h0.801v0.281h-0.801v0.403h0.893v0.304H99.69v-1.646H100.926z"/>
		</g>
	</g>
</g>
</svg>
