<?xml version="1.0" encoding="utf-8"?>
<!-- Generator: Adobe Illustrator 17.0.0, SVG Export Plug-In . SVG Version: 6.00 Build 0)  -->
<!DOCTYPE svg PUBLIC "-//W3C//DTD SVG 1.1//EN" "http://www.w3.org/Graphics/SVG/1.1/DTD/svg11.dtd">
<svg version="1.1" id="Layer_1" xmlns="http://www.w3.org/2000/svg" xmlns:xlink="http://www.w3.org/1999/xlink" x="0px" y="0px"
	 width="711.566px" height="256.737px" viewBox="-125.735 -37.619 711.566 256.737"
	 enable-background="new -125.735 -37.619 711.566 256.737" xml:space="preserve">
<g>
	<path fill="#B7B9BC" d="M540.964,138.14h8.382c1.041,0,1.888-0.843,1.888-1.878v-0.138c0-1.036-0.847-1.879-1.888-1.879h-8.382
		c-1.041,0-1.889,0.843-1.889,1.879v0.138C539.075,137.297,539.923,138.14,540.964,138.14z M539.325,136.124
		c0-0.898,0.735-1.629,1.639-1.629h8.382c0.903,0,1.638,0.73,1.638,1.629v0.138c0,0.897-0.734,1.628-1.638,1.628h-8.382
		c-0.903,0-1.639-0.73-1.639-1.628V136.124z"/>
	<path fill="#B7B9BC" d="M553.066,140.726v-11.697v-5.717V38.365V28.147V-6.981H205.641v129.142l-7.394-5.645V64.838
		c0-0.554-0.376-1.028-0.916-1.153l-5.181-1.201v-11.67c0-3.4-2.715-6.634-5.942-7.47c2.514-0.365,4.453-4.423,4.532-4.594
		c2.79-4.734,1.08-29.187,1.006-30.225l-0.008-0.116l-0.566-0.001c-14.584,0-27.395,1.828-38.075,5.432
		c-8.55,2.885-15.762,6.91-21.436,11.961c-9.67,8.608-11.539,17.342-11.557,17.429l-0.03,0.15h0.096l-0.604,0.998
		c-1.737,1.525-6.269,5.847-10.754,13.026c-4.951,7.924-10.781,20.955-11.355,38.844l-0.047,0.143l-0.038,16.384
		c-0.447,0.344-0.74,0.877-0.74,1.481v25.647c0,0.573,0.265,1.081,0.674,1.426l-0.013,5.67h-0.198c-1.77,0-3.21,1.434-3.21,3.195
		v0.238c0,1.762,1.44,3.195,3.21,3.195h41.462c1.771,0,3.211-1.434,3.211-3.195v-0.238c0-0.081-0.018-0.158-0.024-0.238
		c0.358,0.008,0.705,0.027,1.072,0.027h4.581c-0.055,0.64-0.089,1.286-0.089,1.939c0,12.458,10.189,22.594,22.714,22.594
		s22.714-10.136,22.714-22.594c0-0.654-0.034-1.3-0.089-1.939h25.818v2.733h34.143v-2.733h28.146v2.733h27.731v-2.733h130.794
		c-0.055,0.64-0.089,1.286-0.089,1.939c0,12.458,10.189,22.594,22.715,22.594c12.524,0,22.713-10.136,22.713-22.594
		c0-6.515-2.79-12.391-7.239-16.519h19.557v9.103c-1.594,0.554-2.748,2.048-2.748,3.82v0.328c0,2.239,1.832,4.062,4.083,4.062
		h24.146c2.251,0,4.083-1.822,4.083-4.062v-0.328c0-2.097-1.612-3.807-3.664-4.019v-8.904h12.589l2.035,5.904
		c-0.136,0.219-0.218,0.475-0.218,0.751v9.221c0,0.793,0.647,1.438,1.444,1.438h13.85c0.797,0,1.444-0.645,1.444-1.438v-9.221
		C553.982,141.454,553.601,140.936,553.066,140.726z M533.406,128.778l-0.228-0.661h3.149v0.661H533.406z M536.327,129.028v6.128
		h-0.723l-2.113-6.128H536.327z M447.473,135.156h-0.39c0.129-0.113,0.258-0.226,0.39-0.336V135.156z M447.723,134.612
		c3.871-3.143,8.809-5.032,14.184-5.032c5.676,0,10.864,2.109,14.823,5.576h-29.006V134.612z M447.723,149.985v-1.24
		c1.462-6.453,7.261-11.292,14.185-11.292c8.021,0,14.548,6.492,14.548,14.472s-6.526,14.472-14.548,14.472
		c-8.022,0-14.55-6.492-14.55-14.472c0-0.659,0.06-1.303,0.146-1.939H447.723z M447.29,149.735h-7.739
		c0.083-0.843,0.214-1.671,0.389-2.484h3.203v-6.628h-0.604c1.152-1.945,2.587-3.705,4.255-5.217h0.679v13.308
		C447.397,149.05,447.342,149.392,447.29,149.735z M281.005,147.001v-2.483h27.231v2.483H281.005z M308.236,147.251v2.484h-27.231
		v-2.484H308.236z M252.359,140.623h-26.565v6.628h26.565v2.484h-33.643V138.14h33.643V140.623z M226.044,147.001v-6.128h26.315
		v6.128H226.044z M252.609,140.873h28.146v3.395v0.25v2.483h-28.146V140.873z M308.236,140.623h-27.231v-4.306h27.231V140.623z
		 M308.236,140.873v3.395h-27.231v-3.395H308.236z M308.486,144.518v-0.25v-3.395h133.619c-1.071,1.892-1.875,3.951-2.364,6.128
		H308.486V144.518z M442.394,140.873h0.499v6.128h-2.895C440.493,144.821,441.308,142.762,442.394,140.873z M446.7,135.156H327.723
		v-6.128h119.75v5.462C447.21,134.706,446.953,134.929,446.7,135.156z M327.723,128.778v-0.661h119.75v0.661H327.723z
		 M205.891,122.667l0.125,0.096h0.042c0.338,0,2.779-0.001,6.91-0.004v2.625h234.503v2.483h-120v0.911H205.891V122.667z
		 M545.487,123.312h-14.231l0.628,1.822h-84.161v-2.762h-0.125c-2.149,0.001-194.472,0.115-234.378,0.137v-1.681h332.268V123.312z
		 M545.487,123.562v1.572H532.15l-0.542-1.572H545.487z M531.97,125.384l0.856,2.483h-85.104v-2.483H531.97z M447.473,122.622v2.512
		H213.219v-2.375C252.702,122.737,441.538,122.626,447.473,122.622z M447.723,128.117h85.19l0.228,0.661h-85.418V128.117z
		 M533.092,127.867l-0.856-2.483h13.502v-1.822h7.078v5.217h-16.238v-0.911H533.092z M486.195,38.365h55.628v72.09
		c0,3.572-2.903,6.479-6.472,6.479h-42.685c-3.568,0-6.472-2.906-6.472-6.479V38.365z M486.195,38.115v-9.718h55.628v9.718H486.195z
		 M419.325,38.365h55.628v72.09c0,3.572-2.903,6.479-6.472,6.479h-42.685c-3.568,0-6.472-2.906-6.472-6.479V38.365z M419.325,38.115
		v-9.718h55.628v9.718H419.325z M352.455,38.365h55.628v72.134c0,3.548-2.902,6.435-6.47,6.435h-42.688
		c-3.567,0-6.47-2.887-6.47-6.435V38.365z M352.455,38.115v-3.643c0.104,0.207,0.222,0.401,0.371,0.566
		c0.222,0.245,0.496,0.439,0.816,0.578c0.319,0.138,0.685,0.208,1.083,0.208c0.319,0,0.618-0.049,0.889-0.146
		c0.272-0.099,0.514-0.243,0.716-0.431c0.201-0.186,0.366-0.414,0.49-0.679c0.123-0.266,0.2-0.563,0.229-0.885l0.012-0.136h-1.312
		l-0.014,0.109c-0.038,0.307-0.145,0.555-0.314,0.739c-0.165,0.179-0.393,0.266-0.695,0.266c-0.226,0-0.418-0.043-0.57-0.127
		c-0.156-0.086-0.28-0.198-0.377-0.341c-0.099-0.145-0.172-0.31-0.217-0.492c-0.047-0.189-0.07-0.384-0.07-0.58
		c0-0.205,0.023-0.408,0.07-0.604c0.046-0.189,0.118-0.36,0.217-0.506c0.097-0.144,0.224-0.259,0.377-0.343
		c0.153-0.084,0.346-0.127,0.57-0.127c0.12,0,0.237,0.02,0.347,0.059c0.11,0.04,0.21,0.095,0.296,0.164
		c0.087,0.07,0.16,0.152,0.217,0.244c0.058,0.091,0.093,0.188,0.108,0.297l0.017,0.107h1.312l-0.016-0.139
		c-0.033-0.302-0.119-0.575-0.253-0.813c-0.133-0.235-0.306-0.437-0.512-0.598c-0.202-0.158-0.437-0.281-0.696-0.365
		c-0.256-0.083-0.531-0.125-0.819-0.125c-0.398,0-0.764,0.072-1.084,0.213c-0.321,0.142-0.596,0.34-0.816,0.589
		c-0.149,0.167-0.267,0.364-0.37,0.574v-3.35h55.628v9.718H352.455z M283.754,38.365h55.627v72.09c0,3.572-2.903,6.479-6.472,6.479
		h-42.685c-3.568,0-6.471-2.906-6.471-6.479V38.365z M283.754,38.115v-6.456h0.778V30.49h-0.778v-2.093h55.627v5.141l-0.06,0.185
		l-1.03-3.233h-1.391l1.698,5.223h0.782v2.402H283.754z M272.511,11.585h-0.587l-5.525,14.264l-0.066,0.17h5.554l0.625-1.623v3.751
		h-34.868l-11.787,10.218h46.655v72.134c0,3.548-2.902,6.435-6.471,6.435h-42.686c-3.568,0-6.471-2.887-6.471-6.435V7.904
		c0-3.548,2.903-6.435,6.471-6.435h42.686c3.568,0,6.471,2.887,6.471,6.435V11.585z M339.381,11.585h-4.217l-14.767,14.219
		l-0.223,0.215h6.015l2.915-2.916h9.378l0.544,2.916h0.354v2.128h-55.627v-2.128h4.445l0.19-0.555l-0.112-0.043
		c-0.395-0.153-0.587-0.379-0.587-0.691c0-0.148,0.062-0.489,0.36-1.274l0.368-0.952c0.4-1.029,0.436-1.813,0.104-2.331
		c-0.274-0.427-0.831-0.773-1.657-1.033c1.302-0.281,2.354-0.718,3.137-1.302c0.886-0.662,1.476-1.348,1.754-2.043
		c0.221-0.584,0.247-1.115,0.079-1.578c-0.165-0.455-0.47-0.875-0.905-1.247c-0.528-0.447-1.254-0.789-2.157-1.017
		c-0.896-0.226-2.264-0.351-4.068-0.37h-0.95V7.859c0-3.523,2.902-6.39,6.471-6.39h42.685c3.568,0,6.472,2.867,6.472,6.39V11.585z
		 M339.381,25.769h-0.147l-0.544-2.916h-9.688l-2.915,2.916h-5.292l14.472-13.934h4.115V25.769z M339.631,11.835h1.597l3.605,13.934
		h-5.202V11.835z M282.034,25.913l0.017,0.106h1.453v2.128h-10.743v-4.4l1.267-3.289h5.497c1.56,0,2.573,0.146,3.013,0.432
		c0.405,0.263,0.456,0.822,0.153,1.662l-0.474,1.317c-0.156,0.428-0.242,0.852-0.254,1.265
		C281.963,25.332,281.987,25.593,282.034,25.913z M284.703,11.835c1.783,0.019,3.132,0.141,4.009,0.362
		c0.865,0.218,1.558,0.543,2.056,0.965c0.402,0.343,0.683,0.727,0.833,1.141c0.146,0.405,0.12,0.877-0.078,1.402
		c-0.26,0.649-0.821,1.3-1.671,1.934c-0.853,0.637-2.048,1.094-3.554,1.358l-0.592,0.104l0.584,0.141
		c1.05,0.253,1.73,0.612,2.021,1.067c0.287,0.447,0.244,1.155-0.125,2.105l-0.369,0.953c-0.254,0.668-0.377,1.114-0.377,1.363
		c0,0.388,0.214,0.683,0.636,0.877l-0.055,0.162h-4.268V17.89c0.026-0.005,0.057-0.009,0.082-0.015
		c1.22-0.278,2.005-0.841,2.337-1.674c0.171-0.45,0.182-0.838,0.029-1.153c-0.159-0.331-0.497-0.581-1.004-0.743
		c-0.343-0.109-0.836-0.179-1.444-0.218v-2.251H284.703z M283.754,14.336c0.578,0.038,1.046,0.105,1.368,0.207
		c0.438,0.14,0.727,0.346,0.854,0.613c0.121,0.251,0.108,0.573-0.037,0.954c-0.299,0.751-1.024,1.263-2.159,1.521
		c-0.008,0.002-0.018,0.003-0.026,0.005V14.336z M283.504,17.682c-0.634,0.115-1.471,0.177-2.521,0.177h-5.945l1.378-3.56h6.199
		c0.323,0,0.616,0.008,0.89,0.021V17.682z M283.504,14.069c-0.275-0.013-0.568-0.02-0.89-0.02h-6.371l-1.571,4.06h6.311
		c1.04,0,1.878-0.06,2.521-0.173v7.833h-1.237c-0.036-0.258-0.054-0.472-0.054-0.631c0.011-0.383,0.092-0.781,0.238-1.184
		l0.474-1.318c0.349-0.963,0.264-1.622-0.251-1.956c-0.487-0.318-1.518-0.473-3.149-0.473h-5.669l-1.095,2.843V11.835h10.743V14.069
		z M272.511,23.7l-0.797,2.069h-5.017l5.398-13.934h0.415V23.7z M226.526,38.115l11.211-9.718h34.774v2.284
		c-0.057,0.032-0.126,0.045-0.179,0.083c-0.19,0.134-0.347,0.305-0.467,0.509c-0.12,0.207-0.181,0.452-0.181,0.728
		c0,0.247,0.049,0.462,0.145,0.641c0.095,0.175,0.221,0.323,0.374,0.44c0.091,0.069,0.202,0.115,0.308,0.169v0.561h-0.992
		l-0.002,0.123c-0.005,0.327,0.057,0.614,0.183,0.854c0.125,0.24,0.296,0.439,0.51,0.593c0.093,0.068,0.196,0.125,0.302,0.177v2.557
		H226.526z M272.761,33.376c0.166,0.061,0.337,0.116,0.507,0.159c0.183,0.051,0.365,0.098,0.544,0.14
		c0.17,0.041,0.324,0.088,0.459,0.142c0.124,0.049,0.225,0.11,0.299,0.182c0.062,0.059,0.091,0.137,0.091,0.238
		c0,0.097-0.022,0.172-0.07,0.231c-0.053,0.066-0.121,0.119-0.201,0.157c-0.086,0.041-0.18,0.069-0.279,0.083
		c-0.262,0.037-0.478,0.028-0.687-0.025c-0.119-0.031-0.224-0.078-0.312-0.141c-0.085-0.061-0.151-0.139-0.204-0.239
		c-0.051-0.097-0.076-0.22-0.076-0.366v-0.125h-0.07V33.376z M272.511,35.27c-0.052-0.03-0.107-0.056-0.155-0.091
		c-0.182-0.131-0.328-0.301-0.436-0.506c-0.091-0.173-0.142-0.377-0.151-0.611h0.742V35.27z M272.761,34.507
		c0.06,0.088,0.119,0.178,0.205,0.239c0.113,0.081,0.246,0.142,0.395,0.18c0.239,0.062,0.49,0.073,0.784,0.03
		c0.126-0.018,0.244-0.053,0.352-0.105c0.114-0.054,0.212-0.13,0.289-0.226c0.083-0.104,0.125-0.234,0.125-0.388
		c0-0.169-0.056-0.31-0.167-0.417c-0.098-0.095-0.227-0.174-0.381-0.235c-0.146-0.058-0.312-0.109-0.494-0.152
		c-0.175-0.041-0.354-0.088-0.537-0.139c-0.181-0.045-0.359-0.101-0.532-0.166c-0.014-0.005-0.024-0.015-0.038-0.021v-1.149
		c0.007,0.097,0.021,0.188,0.062,0.255c0.05,0.082,0.14,0.152,0.274,0.215c0.116,0.054,0.276,0.108,0.476,0.16
		c0.177,0.047,0.403,0.104,0.678,0.175l0.09,0.022c0.09,0.018,0.217,0.051,0.378,0.098c0.151,0.044,0.307,0.118,0.461,0.218
		c0.149,0.098,0.279,0.23,0.387,0.393c0.105,0.157,0.158,0.365,0.158,0.617c0,0.209-0.041,0.405-0.122,0.582
		c-0.079,0.176-0.201,0.331-0.359,0.46c-0.162,0.13-0.367,0.234-0.609,0.308c-0.449,0.136-1.083,0.159-1.634,0.016
		c-0.084-0.022-0.161-0.054-0.239-0.085V34.507z M272.839,31.576c-0.052,0.078-0.071,0.18-0.078,0.29v-1.03
		c0.093-0.043,0.175-0.101,0.278-0.129c0.463-0.125,0.942-0.105,1.363-0.003c0.226,0.055,0.427,0.144,0.599,0.264
		c0.169,0.118,0.307,0.271,0.406,0.455c0.083,0.153,0.132,0.338,0.146,0.55h-0.823c-0.017-0.116-0.05-0.218-0.098-0.304
		c-0.063-0.116-0.149-0.208-0.256-0.276c-0.102-0.063-0.218-0.109-0.347-0.135c-0.209-0.041-0.452-0.055-0.69-0.007
		c-0.103,0.021-0.198,0.06-0.284,0.115S272.897,31.492,272.839,31.576z M272.511,32.969c-0.05-0.031-0.111-0.051-0.156-0.086
		c-0.125-0.096-0.228-0.217-0.306-0.36c-0.076-0.142-0.114-0.317-0.114-0.522c0-0.235,0.048-0.432,0.146-0.602
		c0.103-0.175,0.232-0.316,0.396-0.431c0.01-0.007,0.024-0.009,0.034-0.016V32.969z M272.761,35.656
		c0.059,0.021,0.115,0.047,0.177,0.063c0.268,0.07,0.548,0.105,0.833,0.105c0.35,0,0.665-0.042,0.936-0.124
		c0.274-0.083,0.508-0.203,0.694-0.353c0.189-0.154,0.334-0.339,0.43-0.551c0.096-0.209,0.145-0.44,0.145-0.685
		c0-0.302-0.067-0.557-0.199-0.755c-0.127-0.191-0.281-0.347-0.459-0.464c-0.175-0.113-0.353-0.197-0.527-0.249
		c-0.171-0.049-0.304-0.084-0.393-0.102l-0.083-0.021c-0.274-0.07-0.5-0.127-0.676-0.174c-0.186-0.048-0.332-0.097-0.435-0.145
		c-0.114-0.054-0.153-0.098-0.167-0.12c-0.024-0.04-0.037-0.097-0.037-0.171c0-0.083,0.016-0.146,0.048-0.195
		c0.037-0.055,0.085-0.102,0.143-0.138c0.061-0.039,0.128-0.065,0.2-0.081c0.205-0.043,0.416-0.028,0.59,0.007
		c0.1,0.02,0.188,0.055,0.264,0.102c0.069,0.044,0.127,0.106,0.17,0.185c0.045,0.082,0.071,0.188,0.079,0.316l0.007,0.118h1.308
		v-0.125c0-0.308-0.061-0.575-0.18-0.795c-0.119-0.219-0.282-0.4-0.483-0.54c-0.197-0.138-0.427-0.239-0.683-0.302
		c-0.463-0.112-0.985-0.131-1.486,0.005c-0.079,0.021-0.14,0.07-0.214,0.099v-2.168h10.743v2.093h-3.318v1.169h1.498v4.054h1.35
		v-4.054h0.471v6.456h-10.743V35.656z M283.504,31.409h-0.721v4.054h-0.85v-4.054h-1.498V30.74h3.068V31.409z M283.754,30.74h0.528
		v0.669h-0.528V30.74z M339.631,33.576l0.914-2.836h0.87l-1.575,4.723h-0.209V33.576z M339.381,35.463h-0.601l-1.536-4.723h0.863
		l1.087,3.41l0.041,0.087h0.146V35.463z M339.631,35.713h0.389l1.688-5.059l0.056-0.165h-1.399l-0.732,2.273v-4.366h12.574v4.093
		c-0.038,0.203-0.062,0.413-0.062,0.632c0,0.215,0.024,0.42,0.062,0.619v4.374h-12.574V35.713z M353.319,33.762
		c0.052,0.211,0.137,0.404,0.252,0.573c0.118,0.174,0.274,0.315,0.463,0.419c0.19,0.105,0.423,0.158,0.691,0.158
		c0.371,0,0.667-0.117,0.879-0.347c0.185-0.199,0.307-0.457,0.362-0.768h0.817c-0.033,0.24-0.097,0.463-0.19,0.665
		c-0.109,0.235-0.256,0.438-0.434,0.601c-0.178,0.165-0.39,0.292-0.63,0.379c-0.243,0.087-0.515,0.132-0.805,0.132
		c-0.364,0-0.695-0.063-0.983-0.188s-0.533-0.298-0.73-0.517c-0.197-0.216-0.352-0.478-0.458-0.776
		c-0.044-0.122-0.073-0.251-0.099-0.381v-1.194c0.026-0.133,0.055-0.265,0.099-0.389c0.107-0.303,0.262-0.569,0.459-0.79
		c0.196-0.222,0.442-0.399,0.73-0.526s0.618-0.191,0.982-0.191c0.262,0,0.512,0.038,0.742,0.113c0.231,0.075,0.44,0.184,0.619,0.324
		c0.181,0.141,0.331,0.317,0.448,0.524c0.097,0.172,0.165,0.366,0.202,0.579h-0.817c-0.026-0.102-0.067-0.197-0.123-0.286
		c-0.072-0.116-0.164-0.218-0.271-0.306c-0.108-0.087-0.232-0.156-0.369-0.205s-0.281-0.074-0.431-0.074
		c-0.268,0-0.5,0.053-0.691,0.158c-0.188,0.104-0.344,0.246-0.463,0.423c-0.115,0.172-0.2,0.37-0.252,0.588
		c-0.052,0.216-0.078,0.438-0.078,0.663C353.241,33.337,353.268,33.553,353.319,33.762z M352.455,21.641h1.283
		c-0.051,0.619,0.104,1.097,0.46,1.421c0.685,0.61,2.079,0.907,4.262,0.907c1.279,0,2.361-0.079,3.218-0.233
		c1.666-0.302,2.672-0.882,2.99-1.722c0.091-0.226,0.095-0.437,0.013-0.626c-0.11-0.256-0.367-0.459-0.786-0.624
		c-0.652-0.253-1.761-0.479-3.295-0.672l-2.615-0.336c-2.54-0.331-4.265-0.693-5.127-1.078c-0.147-0.065-0.276-0.135-0.402-0.206
		v-4.098c0.649-0.64,1.559-1.211,2.734-1.701c1.986-0.83,4.634-1.251,7.87-1.251c2.695,0,4.868,0.396,6.459,1.175
		c1.533,0.752,2.073,1.803,1.648,3.212h-4.946c0.171-0.843-0.312-1.453-1.438-1.813c-0.759-0.24-1.781-0.361-3.04-0.361
		c-1.4,0-2.598,0.157-3.559,0.468c-0.987,0.318-1.602,0.776-1.825,1.362c-0.096,0.243-0.098,0.466-0.006,0.663
		c0.124,0.269,0.409,0.478,0.869,0.637c0.465,0.169,1.531,0.369,3.168,0.593l4.231,0.587c1.827,0.253,3.166,0.595,3.98,1.017
		c1.232,0.639,1.604,1.535,1.136,2.74c-0.488,1.256-1.8,2.318-3.897,3.158c-2.119,0.847-4.851,1.276-8.118,1.276
		c-2.095,0-3.856-0.167-5.268-0.496V21.641z M352.205,25.572c-0.725-0.185-1.36-0.412-1.886-0.688
		c-1.523-0.801-2.021-1.863-1.517-3.243h3.402V25.572z M352.455,21.391v-2.639c0.099,0.052,0.191,0.107,0.301,0.155
		c0.884,0.395,2.632,0.764,5.196,1.097l2.616,0.336c1.514,0.19,2.603,0.411,3.235,0.657c0.349,0.136,0.566,0.301,0.647,0.49
		c0.056,0.128,0.051,0.27-0.017,0.437c-0.285,0.754-1.228,1.282-2.802,1.567c-0.841,0.152-1.909,0.229-3.173,0.229
		c-2.089,0-3.467-0.284-4.095-0.843c-0.318-0.29-0.44-0.743-0.364-1.345l0.018-0.141H352.455z M352.205,18.312
		c-0.891-0.613-1.128-1.448-0.704-2.544c0.153-0.396,0.394-0.77,0.704-1.125V18.312z M357.723,26.385c3.3,0,6.062-0.435,8.211-1.293
		c2.164-0.866,3.523-1.977,4.037-3.299c0.517-1.328,0.095-2.354-1.253-3.052c-0.84-0.435-2.206-0.786-4.061-1.043l-4.232-0.587
		c-1.619-0.221-2.668-0.417-3.118-0.581c-0.39-0.134-0.634-0.304-0.727-0.505c-0.062-0.135-0.059-0.288,0.013-0.468
		c0.195-0.512,0.757-0.921,1.668-1.214c0.938-0.303,2.108-0.456,3.482-0.456c1.233,0,2.23,0.118,2.964,0.35
		c1.057,0.338,1.46,0.883,1.234,1.665l-0.046,0.16h5.454l0.028-0.086c0.511-1.569-0.077-2.781-1.75-3.601
		c-1.625-0.797-3.835-1.201-6.568-1.201c-3.27,0-5.949,0.427-7.966,1.271c-1.105,0.461-1.981,0.994-2.639,1.591v-6.13
		c0-3.548,2.902-6.435,6.47-6.435h42.688c3.567,0,6.47,2.887,6.47,6.435v20.243h-55.628v-2.253
		C353.878,26.219,355.638,26.385,357.723,26.385z M408.333,28.397h10.742v9.718h-10.742V28.397z M474.953,28.147h-55.628V7.859
		c0-3.523,2.903-6.39,6.472-6.39h42.685c3.568,0,6.472,2.867,6.472,6.39V28.147z M475.203,28.397h10.742v9.718h-10.742V28.397z
		 M541.823,28.147h-55.628V7.859c0-3.523,2.903-6.39,6.472-6.39h42.685c3.568,0,6.472,2.867,6.472,6.39V28.147z M542.073,28.397
		h10.742v9.718h-10.742V28.397z M205.891-6.731h346.924v34.878h-10.742V7.859c0-3.662-3.016-6.64-6.722-6.64h-42.685
		c-3.706,0-6.722,2.979-6.722,6.64v20.288h-10.742V7.859c0-3.662-3.016-6.64-6.722-6.64h-42.685c-3.706,0-6.722,2.979-6.722,6.64
		v20.288h-10.742V7.904c0-3.686-3.015-6.685-6.72-6.685h-42.688c-3.705,0-6.72,2.999-6.72,6.685v6.364
		c-0.427,0.438-0.742,0.908-0.937,1.41c-0.492,1.269-0.175,2.255,0.937,2.94v2.772h-3.575l-0.03,0.08
		c-0.599,1.538-0.06,2.76,1.603,3.635c0.557,0.293,1.231,0.532,2.003,0.725v2.317h-12.574v-2.128h5.524l-3.71-14.34l-0.024-0.094
		h-1.79V7.859c0-3.662-3.016-6.64-6.722-6.64h-42.685c-3.706,0-6.721,2.979-6.721,6.64v3.726h-10.743V7.904
		c0-3.686-3.015-6.685-6.721-6.685h-42.686c-3.706,0-6.721,2.999-6.721,6.685v102.595c0,3.686,3.015,6.685,6.721,6.685h42.686
		c3.706,0,6.721-2.999,6.721-6.685V38.365h10.743v72.09c0,3.71,3.015,6.729,6.721,6.729h42.685c3.706,0,6.722-3.019,6.722-6.729
		v-72.09h12.574v72.134c0,3.686,3.015,6.685,6.72,6.685h42.688c3.705,0,6.72-2.999,6.72-6.685V38.365h10.742v72.09
		c0,3.71,3.016,6.729,6.722,6.729h42.685c3.706,0,6.722-3.019,6.722-6.729v-72.09h10.742v72.09c0,3.71,3.016,6.729,6.722,6.729
		h42.685c3.706,0,6.722-3.019,6.722-6.729v-72.09h10.742v84.946h-7.078v-2.733H212.969v1.931c-3.989,0.002-6.402,0.003-6.868,0.004
		l-0.21-0.161V-6.731z M197.275,63.929c0.425,0.099,0.723,0.473,0.723,0.91v51.487l-0.396-0.303h-1.471V65.581l-3.98-0.922v-1.917
		L197.275,63.929z M196.13,116.272h1.386l0.481,0.368v4.975c0,0.515-0.419,0.934-0.934,0.934s-0.934-0.419-0.934-0.934V116.272z
		 M195.88,116.022h-3.73V64.915l3.73,0.864V116.022z M191.901,64.601l-5.6-1.298c-0.501-0.116-0.815-0.619-0.699-1.121
		c0.099-0.426,0.472-0.723,0.909-0.723c0.071,0,0.142,0.008,0.212,0.024l5.179,1.2V64.601z M131.843,25.976
		c5.65-5.025,12.833-9.03,21.35-11.902c10.651-3.592,23.429-5.414,37.979-5.414l0.333,0c0.128,1.872,1.674,25.46-0.986,29.975
		c-0.021,0.045-2.141,4.497-4.668,4.497h-1.237h-0.494h-0.355h-63.38C120.677,41.943,122.921,33.912,131.843,25.976z M109.02,57.548
		c4.013-6.425,8.065-10.557,10.102-12.431L108.484,62.7L97.737,95.402C98.464,78.012,104.167,65.318,109.02,57.548z M120.146,44.21
		c-0.84,2.549-2.381,5.5-4.306,9.188c-4.812,9.219-12.084,23.15-14.588,44.445c-0.173,1.475-2.99,1.452-3.598,1.428
		c-0.002-1.012,0.023-2,0.055-2.983l11.001-33.484l11.051-18.262C119.909,44.413,120.043,44.297,120.146,44.21z M96.884,139.905
		v-25.647c0-0.453,0.188-0.863,0.489-1.159l-0.064,27.89C97.047,140.7,96.884,140.323,96.884,139.905z M97.619,112.9
		c0.259-0.171,0.57-0.272,0.904-0.272h0.136c0.904,0,1.639,0.731,1.639,1.63v25.647c0,0.898-0.735,1.629-1.639,1.629h-0.136
		c-0.362,0-0.694-0.121-0.966-0.32L97.619,112.9z M97.557,141.511c0.284,0.17,0.612,0.273,0.967,0.273h0.136
		c1.042,0,1.889-0.843,1.889-1.879v-25.647c0-1.036-0.848-1.88-1.889-1.88h-0.136c-0.329,0-0.634,0.092-0.903,0.239l0.029-13.097
		c0.077,0.003,0.185,0.006,0.318,0.006c1.004,0,3.359-0.161,3.534-1.654c2.499-21.25,9.758-35.156,14.562-44.359
		c2.032-3.894,3.638-6.969,4.45-9.631l0.115-0.377l-0.311,0.242c-0.005,0.004-0.064,0.051-0.145,0.118l0.292-0.483h63.188
		l0.035,0.04l0.061-0.003c0.06-0.003,0.118-0.011,0.176-0.019c0.065-0.009,0.13-0.018,0.197-0.018h0.494
		c3.745,0,7.286,3.613,7.286,7.434v11.612l-5.122-1.187c-0.088-0.021-0.179-0.031-0.269-0.031c-0.554,0-1.027,0.376-1.152,0.916
		c-0.147,0.636,0.25,1.273,0.886,1.42l5.657,1.311v51.166h-49.083c-6.587,0-11.725,1.289-15.27,3.832
		c-2.905,2.084-4.748,5.031-5.527,8.779l-11.501,0.016l0-27.956c-0.899-24.687,16.132-49.93,16.304-50.183l0.071-0.103l-0.789-0.54
		l-0.07,0.104c-0.174,0.254-17.381,25.742-16.471,50.74v28.895l12.297-0.017c-0.168,1.082-0.273,2.209-0.273,3.415
		c0,1.767,0.203,3.386,0.563,4.886h-7.195h-4.117c-1.771,0-3.211,1.434-3.211,3.195v0.238c0,1.762,1.44,3.194,3.211,3.194h4.117
		h7.464c0.125,0.007,0.249,0.011,0.369,0.011c0.055,0,0.104-0.009,0.158-0.011h0.04c0.028,0,0.055-0.008,0.083-0.008
		c0.82-0.041,1.504-0.259,2.022-0.627c0.714,0.841,1.526,1.604,2.456,2.271c0.42,0.301,0.866,0.582,1.33,0.848H97.545
		L97.557,141.511z M138.558,147.251c1.462,0,2.672,1.062,2.911,2.449c-4.717-0.131-8.601-0.944-11.624-2.449h8.261H138.558z
		 M129.388,147.001c-1.629-0.875-2.995-1.962-4.097-3.258c0.582-0.498,0.906-1.213,0.906-2.096v-0.324v-0.238
		c0-1.968-1.012-3.026-2.985-3.173c-0.076-0.005-0.149-0.023-0.226-0.023h-0.138c-0.038-0.001-0.07-0.007-0.109-0.007
		c-0.103,0-0.209,0.003-0.312,0.007h-0.029c-0.36-1.494-0.56-3.112-0.56-4.886c0-1.207,0.099-2.337,0.266-3.415l15.321-0.021h0.3
		l0.13-0.27c0.051-0.103,1.293-2.555,4.363-4.978c2.882-2.276,8.014-4.991,16.09-4.991h0.125v-0.956h-0.125
		c-8.371,0-13.71,2.84-16.715,5.223c-2.717,2.153-4.061,4.311-4.456,5.017l-14.86,0.021c1.711-8.199,8.589-12.361,20.541-12.361
		h49.083v8.861h-34.58c-0.049,0.002-4.923,0.262-9.73,3.093c-4.424,2.604-9.694,7.974-9.734,18.774H129.388z M122.948,144.268
		h-0.523h-7.222v-6.128h7.008c0.533,2.083,1.403,3.912,2.637,5.453c-0.492,0.4-1.109,0.65-1.789,0.667
		C123.022,144.262,122.987,144.266,122.948,144.268z M114.954,144.268h-4.117c-1.633,0-2.961-1.321-2.961-2.944v-0.238
		c0-1.624,1.328-2.945,2.961-2.945h4.117V144.268z M123.182,138.159c1.54,0.102,2.765,1.368,2.765,2.926v0.238
		c0,0.833-0.353,1.583-0.915,2.119c-1.198-1.5-2.055-3.27-2.577-5.303h0.397C122.968,138.142,123.073,138.152,123.182,138.159z
		 M126.171,50.216l0.376,0.257c-1.197,1.798-17.151,26.268-16.278,50.225l0,28.201l11.69-0.016
		c-0.028,0.147-0.039,0.307-0.064,0.456l-12.082,0.017v-28.649C108.935,76.597,124.969,52.02,126.171,50.216z M122.217,128.883
		l14.992-0.021h0.074l0.036-0.065c0.338-0.619,1.658-2.81,4.427-5.006c2.959-2.346,8.207-5.14,16.435-5.168v0.456
		c-8.076,0.028-13.221,2.756-16.12,5.046c-3.112,2.457-4.379,4.957-4.433,5.063l-0.062,0.129l-15.431,0.022
		C122.161,129.186,122.188,129.034,122.217,128.883z M141.519,150.196v0.238c0,1.624-1.328,2.945-2.961,2.945H97.096
		c-1.632,0-2.96-1.321-2.96-2.945v-0.238c0-1.624,1.328-2.945,2.96-2.945h0.197h32.062c3.128,1.661,7.198,2.564,12.138,2.701
		C141.501,150.034,141.519,150.113,141.519,150.196z M192.487,151.925c0,12.32-10.078,22.344-22.464,22.344
		s-22.464-10.023-22.464-22.344c0-0.654,0.034-1.3,0.09-1.939h7.718c-0.085,0.636-0.144,1.28-0.144,1.939
		c0,8.117,6.639,14.722,14.8,14.722s14.8-6.604,14.8-14.722c0-0.659-0.059-1.303-0.144-1.939h7.718
		C192.453,150.625,192.487,151.271,192.487,151.925z M184.572,151.925c0,7.979-6.527,14.472-14.55,14.472s-14.55-6.492-14.55-14.472
		c0-0.659,0.06-1.303,0.146-1.939h2.389v5.467h2.082v-5.467h5.594c-0.269,0.594-0.427,1.247-0.427,1.939
		c0,2.614,2.138,4.741,4.765,4.741s4.765-2.127,4.765-4.741c0-0.692-0.158-1.346-0.427-1.939h4.716v5.467h2.082v-5.467h3.268
		C184.512,150.621,184.572,151.266,184.572,151.925z M159.84,149.735h-1.582v-0.661h1.582V149.735z M159.84,149.985v5.217h-1.582
		v-5.217H159.84z M173.277,149.985c0.345,0.569,0.555,1.228,0.555,1.939c0,2.087-1.709,3.785-3.809,3.785s-3.809-1.698-3.809-3.785
		c0-0.711,0.21-1.37,0.555-1.939H173.277z M166.926,149.735c0.691-0.963,1.818-1.598,3.096-1.598s2.405,0.634,3.096,1.598H166.926z
		 M165.964,151.925c0,2.225,1.821,4.035,4.059,4.035s4.059-1.811,4.059-4.035c0-0.706-0.199-1.361-0.521-1.939h0.117
		c0.313,0.581,0.508,1.235,0.508,1.939c0,2.282-1.867,4.139-4.162,4.139s-4.162-1.856-4.162-4.139c0-0.704,0.194-1.358,0.508-1.939
		h0.117C166.163,150.564,165.964,151.218,165.964,151.925z M173.424,149.735c-0.724-1.109-1.975-1.848-3.401-1.848
		s-2.677,0.739-3.401,1.848h-0.117c0.737-1.167,2.033-1.95,3.518-1.95s2.781,0.783,3.518,1.95H173.424z M170.023,147.535
		c-1.628,0-3.037,0.892-3.801,2.2h-0.117c0.775-1.367,2.231-2.304,3.918-2.304c1.687,0,3.143,0.936,3.918,2.304h-0.116
		C173.059,148.427,171.65,147.535,170.023,147.535z M166.085,149.985c-0.294,0.587-0.474,1.24-0.474,1.939
		c0,2.42,1.979,4.389,4.412,4.389s4.412-1.969,4.412-4.389c0-0.699-0.18-1.352-0.474-1.939h0.116c0.286,0.59,0.46,1.242,0.46,1.939
		c0,2.477-2.025,4.491-4.515,4.491c-2.49,0-4.515-2.015-4.515-4.491c0-0.697,0.174-1.35,0.46-1.939H166.085z M180.908,149.735
		h-1.582v-0.661h1.582V149.735z M180.908,149.985v5.217h-1.582v-5.217H180.908z M181.158,149.735v-0.911h-2.082v0.911h-4.852
		c-0.798-1.51-2.371-2.554-4.201-2.554s-3.404,1.044-4.202,2.554h-5.731v-0.911h-2.082v0.911h-2.35
		c1.067-6.942,7.092-12.282,14.365-12.282s13.298,5.341,14.365,12.282H181.158z M170.023,137.203
		c-7.411,0-13.549,5.452-14.618,12.532h-7.738c1.11-11.297,10.711-20.155,22.355-20.155s21.245,8.858,22.355,20.155h-7.738
		C183.571,142.656,177.433,137.203,170.023,137.203z M192.628,149.735c-1.111-11.435-10.824-20.405-22.606-20.405
		s-21.495,8.97-22.606,20.405h-4.6c-0.378,0-0.73-0.02-1.098-0.029c-0.239-1.529-1.559-2.706-3.161-2.706h-0.448
		c0.042-10.675,5.236-15.983,9.599-18.555c4.754-2.802,9.575-3.061,9.618-3.062h34.824v-9.111h3.73v5.343
		c0,0.652,0.531,1.184,1.184,1.184s1.184-0.531,1.184-1.184v-4.784l7.394,5.645v6.552h121.832v6.378h118.958
		c-1.639,1.52-3.05,3.277-4.181,5.217H308.486v-4.556h-27.731v4.556h-28.146v-2.733h-34.143v11.846H192.628z M252.359,152.469
		h-33.643v-2.483h33.643V152.469z M252.609,149.735v-2.484h28.146v2.484H252.609z M308.236,152.469h-27.231v-2.483h27.231V152.469z
		 M308.486,149.735v-2.484h131.197c-0.173,0.813-0.301,1.642-0.383,2.484H308.486z M484.369,151.925
		c0,12.32-10.077,22.344-22.463,22.344c-12.387,0-22.465-10.023-22.465-22.344c0-0.654,0.034-1.3,0.09-1.939h7.72
		c-0.085,0.636-0.144,1.28-0.144,1.939c0,8.117,6.64,14.722,14.8,14.722c8.159,0,14.798-6.604,14.798-14.722
		s-6.639-14.722-14.798-14.722c-6.702,0-12.37,4.458-14.185,10.547v-12.344h29.295C481.531,139.496,484.369,145.387,484.369,151.925
		z M497.188,135.406h2.499v8.861h-1.414c-0.378,0-0.737,0.068-1.085,0.164V135.406z M522.587,135.156h-2.498v-0.661h2.498V135.156z
		 M519.839,135.156h-2.498v-0.661h2.498V135.156z M497.188,144.692c0.346-0.103,0.706-0.175,1.085-0.175h1.414h2.998h14.406h2.998
		h2.329c0.058,0,0.112,0.014,0.169,0.017v2.466h-25.399V144.692z M499.937,135.406h2.498v8.861h-2.498V135.406z M502.685,135.406
		h14.406v8.861h-14.406V135.406z M517.341,144.268v-8.861h2.498v8.861H517.341z M517.091,135.156h-14.406v-0.661h14.406V135.156z
		 M502.435,135.156h-2.498v-0.661h2.498V135.156z M499.687,135.156h-2.499v-0.661h2.499V135.156z M526.251,148.329v0.328
		c0,2.102-1.72,3.812-3.833,3.812h-24.146c-2.113,0-3.833-1.71-3.833-3.812v-0.328c0-1.633,1.044-3.018,2.498-3.56v2.482h25.899
		v-2.691C524.751,144.77,526.251,146.37,526.251,148.329z M522.587,144.285c-0.057-0.002-0.111-0.017-0.169-0.017h-2.329v-8.861
		h2.498V144.285z M522.837,135.156v-0.911h-2.748h-2.998h-14.406h-2.998h-2.749v0.911h-19.826
		c-4.029-3.619-9.362-5.826-15.205-5.826c-5.363,0-10.294,1.862-14.184,4.965v-5.267h85.504l2.113,6.128H522.837z M535.691,135.406
		h0.886v-6.378h16.238v11.623c-0.09-0.018-0.183-0.028-0.278-0.028h-13.85c-0.411,0-0.781,0.174-1.044,0.449L535.691,135.406z
		 M552.816,140.929v1.516h-14.698l-0.372-1.079c0.218-0.292,0.55-0.493,0.942-0.493h13.85
		C552.636,140.873,552.724,140.906,552.816,140.929z M553.732,151.281c0,0.655-0.536,1.188-1.194,1.188h-13.85
		c-0.658,0-1.194-0.532-1.194-1.188v-9.221c0-0.147,0.035-0.284,0.084-0.414l0.333,0.965l0.029,0.084h15.126v-1.686
		c0.39,0.195,0.666,0.587,0.666,1.051V151.281z"/>
	<path fill="#B7B9BC" d="M115.157,97.683l-0.011,0.151l0.151-0.019c7.961-0.997,17.377-2.367,26.622-4.144l-0.006,0.036l0.175-0.033
		c2.092-0.407,4.123-0.836,6.119-1.288c7.586-1.644,14.8-3.578,20.679-5.838c8.718-3.351,10.355-5.794,10.42-5.897l0.02-0.031V49.51
		h-9.134h-21.358h-12.211l-0.032,0.021c-9.798,6.61-15.104,19.354-17.83,28.881C115.81,88.725,115.163,97.595,115.157,97.683z
		 M179.076,49.76v30.783c-0.21,0.282-2.173,2.667-10.368,5.805c-1.438,0.551-2.974,1.077-4.556,1.59l6.001-38.178H179.076z
		 M169.9,49.76l-5.98,38.046c-5.239,1.701-10.365,3.112-15.77,4.337c-1.958,0.424-3.937,0.832-5.929,1.217l6.827-43.6H169.9z
		 M136.698,49.76h12.096l-6.834,43.65c-9.211,1.774-18.596,3.141-26.542,4.139c0.099-1.214,0.851-9.518,3.583-19.067
		C123.909,61.327,131.327,53.395,136.698,49.76z"/>
	<path fill="#B7B9BC" d="M166.252,141.784h7.578v-2.072h-7.578V141.784z M166.502,139.962h7.078v1.572h-7.078V139.962z"/>
	<path fill="#B7B9BC" d="M166.252,164.563h7.578v-2.072h-7.578V164.563z M166.502,162.741h7.078v1.572h-7.078V162.741z"/>
	<path fill="#B7B9BC" d="M461.907,156.313c2.432,0,4.41-1.969,4.41-4.389c0-2.421-1.979-4.39-4.41-4.39
		c-2.434,0-4.414,1.969-4.414,4.39C457.493,154.345,459.474,156.313,461.907,156.313z M461.907,147.785
		c2.294,0,4.16,1.857,4.16,4.14s-1.866,4.139-4.16,4.139c-2.296,0-4.164-1.856-4.164-4.139S459.611,147.785,461.907,147.785z"/>
	<path fill="#B7B9BC" d="M461.907,156.666c2.627,0,4.764-2.127,4.764-4.741c0-2.615-2.137-4.743-4.764-4.743
		c-2.628,0-4.767,2.128-4.767,4.743C457.141,154.539,459.279,156.666,461.907,156.666z M461.907,147.432
		c2.489,0,4.514,2.016,4.514,4.493c0,2.477-2.024,4.491-4.514,4.491c-2.49,0-4.517-2.015-4.517-4.491
		C457.391,149.447,459.417,147.432,461.907,147.432z"/>
	<path fill="#B7B9BC" d="M461.907,155.96c2.237,0,4.058-1.811,4.058-4.035c0-2.226-1.82-4.037-4.058-4.037
		c-2.239,0-4.062,1.812-4.062,4.037C457.846,154.149,459.668,155.96,461.907,155.96z M461.907,148.138
		c2.1,0,3.808,1.699,3.808,3.787c0,2.087-1.708,3.785-3.808,3.785c-2.102,0-3.812-1.698-3.812-3.785
		C458.096,149.837,459.806,148.138,461.907,148.138z"/>
	<path fill="#B7B9BC" d="M465.127,139.712h-6.662v2.072h6.662V139.712z M464.877,141.534h-6.162v-1.572h6.162V141.534z"/>
	<path fill="#B7B9BC" d="M458.465,164.563h6.662v-2.072h-6.662V164.563z M458.715,162.741h6.162v1.572h-6.162V162.741z"/>
	<path fill="#B7B9BC" d="M473.371,148.824h-2.082v6.628h2.082V148.824z M473.121,155.202h-1.582v-6.128h1.582V155.202z"/>
	<path fill="#B7B9BC" d="M452.303,148.824h-2.082v6.628h2.082V148.824z M452.053,155.202h-1.582v-6.128h1.582V155.202z"/>
	<path fill="#B7B9BC" d="M125.338,101.444h-8.609c-0.979,0-1.775,0.792-1.775,1.766v0.363c0,0.974,0.796,1.766,1.775,1.766h8.609
		c0.979,0,1.775-0.792,1.775-1.766v-0.363C127.113,102.236,126.317,101.444,125.338,101.444z M126.863,103.573
		c0,0.836-0.684,1.516-1.525,1.516h-8.609c-0.841,0-1.525-0.68-1.525-1.516v-0.363c0-0.836,0.684-1.516,1.525-1.516h8.609
		c0.841,0,1.525,0.68,1.525,1.516V103.573z"/>
	<path fill="#B7B9BC" d="M210.274-0.353h5.641c1.039,0,1.885-0.841,1.885-1.874v-0.146c0-1.034-0.846-1.875-1.885-1.875h-5.641
		c-1.039,0-1.885,0.841-1.885,1.875v0.146C208.389-1.194,209.235-0.353,210.274-0.353z M208.639-2.373
		c0-0.896,0.733-1.625,1.635-1.625h5.641c0.901,0,1.635,0.729,1.635,1.625v0.146c0,0.896-0.733,1.624-1.635,1.624h-5.641
		c-0.901,0-1.635-0.729-1.635-1.624V-2.373z"/>
	<path fill="#B7B9BC" d="M541.875-0.353h5.643c1.039,0,1.884-0.841,1.884-1.874v-0.146c0-1.034-0.845-1.875-1.884-1.875h-5.643
		c-1.039,0-1.884,0.841-1.884,1.875v0.146C539.991-1.194,540.836-0.353,541.875-0.353z M540.241-2.373
		c0-0.896,0.733-1.625,1.634-1.625h5.643c0.9,0,1.634,0.729,1.634,1.625v0.146c0,0.896-0.733,1.624-1.634,1.624h-5.643
		c-0.9,0-1.634-0.729-1.634-1.624V-2.373z"/>
	<path fill="#B7B9BC" d="M249.274,20.659h7.017l-1.145-5.963L249.274,20.659z M249.871,20.409l5.118-5.199l0.998,5.199H249.871z"/>
	<path fill="#B7B9BC" d="M259.536,11.585h-6.257l-14.767,14.219l-0.223,0.215h6.015l2.915-2.916h9.378l0.544,2.916h6.129
		l-3.71-14.34L259.536,11.585z M257.349,25.769l-0.544-2.916h-9.688l-2.915,2.916h-5.292l14.472-13.934h5.962l3.605,13.934H257.349z
		"/>
	<path fill="#B7B9BC" d="M306.114,22.523l-0.361-10.938h-8.072l-5.525,14.264l-0.066,0.17h5.307l3.734-9.67
		c0.118-0.281,0.27-0.673,0.449-1.165c0.068-0.186,0.13-0.355,0.185-0.509l0.249,11.222l0.003,0.122h5.432l9.036-11.324
		c-0.05,0.125-0.104,0.258-0.161,0.397c-0.205,0.497-0.365,0.883-0.483,1.163l-3.704,9.594l-0.066,0.17h5.307l5.525-14.264
		l0.066-0.17h-8.02L306.114,22.523z M322.602,11.835l-5.398,13.934h-4.77l3.637-9.42c0.117-0.276,0.277-0.663,0.482-1.161
		c0.198-0.48,0.35-0.869,0.451-1.156l0.244-0.696l-9.922,12.433h-5.066l-0.276-12.474l-0.228,0.655
		c-0.094,0.269-0.23,0.652-0.411,1.147c-0.179,0.488-0.328,0.876-0.446,1.158l-3.675,9.514h-4.77l5.398-13.934h7.658l0.375,11.367
		l9.181-11.367H322.602z"/>
	<path fill="#B7B9BC" d="M338.175,20.659l-1.144-5.963l-5.873,5.963H338.175z M337.872,20.409h-6.116l5.119-5.199L337.872,20.409z"
		/>
	<path fill="#B7B9BC" d="M239.395,30.49h-1.35v5.223h3.786v-1.17h-2.437V30.49z M241.581,34.793v0.67h-3.286V30.74h0.85v4.053
		H241.581z"/>
	<path fill="#B7B9BC" d="M249.919,31.871c-0.12-0.177-0.276-0.319-0.464-0.423c-0.191-0.104-0.424-0.158-0.69-0.158
		c-0.268,0-0.5,0.053-0.691,0.158c-0.188,0.104-0.345,0.247-0.463,0.423c-0.115,0.172-0.2,0.37-0.253,0.588
		c-0.051,0.213-0.076,0.436-0.076,0.663c0,0.218,0.025,0.433,0.077,0.64c0.052,0.211,0.137,0.404,0.252,0.573
		c0.117,0.173,0.273,0.314,0.463,0.419c0.19,0.105,0.423,0.158,0.691,0.158c0.268,0,0.5-0.053,0.69-0.158
		c0.188-0.104,0.344-0.245,0.464-0.419c0.114-0.169,0.199-0.361,0.252-0.572c0.052-0.207,0.077-0.421,0.077-0.64
		c0-0.227-0.025-0.45-0.077-0.664C250.118,32.241,250.033,32.043,249.919,31.871z M249.929,33.701
		c-0.046,0.183-0.119,0.349-0.217,0.493c-0.098,0.144-0.222,0.255-0.378,0.341c-0.152,0.084-0.345,0.127-0.569,0.127
		c-0.226,0-0.418-0.043-0.57-0.127c-0.155-0.086-0.282-0.201-0.377-0.341c-0.099-0.145-0.172-0.31-0.217-0.492
		c-0.046-0.187-0.069-0.382-0.069-0.58c0-0.207,0.023-0.411,0.069-0.604c0.046-0.189,0.118-0.36,0.217-0.506
		c0.097-0.143,0.223-0.258,0.377-0.343c0.153-0.084,0.346-0.127,0.57-0.127c0.224,0,0.416,0.043,0.569,0.127
		c0.153,0.084,0.28,0.2,0.377,0.343c0.099,0.147,0.171,0.318,0.217,0.506c0.047,0.194,0.07,0.398,0.07,0.605
		C249.998,33.32,249.975,33.515,249.929,33.701z"/>
	<path fill="#B7B9BC" d="M250.665,31.173c-0.221-0.249-0.494-0.447-0.813-0.589c-0.318-0.141-0.685-0.213-1.087-0.213
		c-0.398,0-0.764,0.072-1.084,0.213c-0.321,0.142-0.596,0.34-0.816,0.589c-0.219,0.247-0.39,0.541-0.508,0.874
		c-0.116,0.333-0.175,0.694-0.175,1.076c0,0.373,0.059,0.728,0.175,1.055c0.118,0.329,0.289,0.618,0.509,0.86
		c0.222,0.245,0.496,0.439,0.816,0.578c0.319,0.138,0.685,0.208,1.083,0.208c0.403,0,0.769-0.07,1.086-0.208
		c0.318-0.139,0.592-0.333,0.813-0.578c0.22-0.243,0.391-0.532,0.509-0.86c0.116-0.328,0.175-0.683,0.175-1.055
		c0-0.381-0.059-0.743-0.175-1.076C251.055,31.713,250.884,31.42,250.665,31.173z M250.937,34.093
		c-0.105,0.297-0.26,0.558-0.458,0.776c-0.197,0.219-0.442,0.392-0.728,0.517c-0.286,0.125-0.618,0.188-0.986,0.188
		c-0.364,0-0.695-0.063-0.983-0.188s-0.533-0.298-0.73-0.517c-0.198-0.218-0.353-0.479-0.458-0.776
		c-0.107-0.3-0.161-0.627-0.161-0.971c0-0.354,0.054-0.688,0.161-0.993c0.106-0.301,0.261-0.567,0.459-0.79
		c0.196-0.222,0.442-0.399,0.73-0.526s0.618-0.191,0.982-0.191c0.367,0,0.699,0.064,0.985,0.191s0.531,0.304,0.728,0.526
		c0.198,0.223,0.353,0.489,0.459,0.79c0.107,0.306,0.161,0.64,0.161,0.994C251.098,33.466,251.044,33.793,250.937,34.093z"/>
	<path fill="#B7B9BC" d="M258.373,33.839h1.089c-0.045,0.25-0.142,0.444-0.289,0.581c-0.177,0.163-0.425,0.242-0.759,0.242
		c-0.226,0-0.418-0.043-0.57-0.127c-0.155-0.086-0.282-0.201-0.377-0.341c-0.099-0.145-0.172-0.31-0.217-0.492
		c-0.046-0.187-0.069-0.382-0.069-0.58c0-0.207,0.023-0.411,0.069-0.604c0.046-0.189,0.118-0.36,0.217-0.506
		c0.097-0.143,0.223-0.258,0.377-0.343c0.153-0.084,0.346-0.127,0.57-0.127c0.237,0,0.44,0.062,0.604,0.185
		c0.163,0.121,0.271,0.303,0.331,0.555l0.023,0.096h1.286l-0.014-0.137c-0.028-0.3-0.112-0.57-0.247-0.802
		c-0.133-0.231-0.305-0.429-0.512-0.587c-0.204-0.157-0.437-0.277-0.689-0.357c-0.252-0.081-0.516-0.121-0.783-0.121
		c-0.398,0-0.764,0.072-1.084,0.213c-0.321,0.142-0.596,0.34-0.816,0.589c-0.219,0.247-0.39,0.541-0.508,0.873
		c-0.116,0.33-0.175,0.692-0.175,1.076c0,0.375,0.059,0.73,0.175,1.055c0.118,0.329,0.289,0.618,0.509,0.86
		c0.222,0.245,0.496,0.439,0.816,0.578c0.319,0.138,0.685,0.208,1.083,0.208c0.258,0,0.517-0.054,0.769-0.16
		c0.189-0.079,0.367-0.203,0.53-0.368l0.083,0.417h0.928v-2.939h-2.351V33.839z M258.623,33.024h1.851v2.439h-0.473l-0.146-0.732
		l-0.168,0.216c-0.181,0.232-0.383,0.396-0.602,0.488c-0.221,0.093-0.447,0.14-0.672,0.14c-0.364,0-0.695-0.063-0.983-0.188
		s-0.533-0.298-0.73-0.517c-0.198-0.218-0.353-0.479-0.458-0.776c-0.107-0.298-0.161-0.625-0.161-0.971
		c0-0.356,0.054-0.69,0.161-0.993c0.106-0.301,0.261-0.567,0.459-0.79c0.196-0.222,0.442-0.399,0.73-0.526s0.618-0.191,0.982-0.191
		c0.242,0,0.479,0.037,0.707,0.109c0.226,0.072,0.433,0.178,0.613,0.317c0.181,0.139,0.331,0.311,0.447,0.514
		c0.097,0.166,0.163,0.355,0.197,0.564h-0.812c-0.079-0.261-0.213-0.463-0.399-0.602c-0.208-0.155-0.462-0.234-0.754-0.234
		c-0.268,0-0.5,0.053-0.691,0.158c-0.188,0.104-0.345,0.247-0.463,0.423c-0.115,0.172-0.2,0.37-0.253,0.588
		c-0.051,0.213-0.076,0.436-0.076,0.663c0,0.218,0.025,0.433,0.077,0.64c0.052,0.211,0.137,0.404,0.252,0.573
		c0.117,0.173,0.273,0.314,0.463,0.419c0.19,0.105,0.423,0.158,0.691,0.158c0.395,0,0.707-0.104,0.929-0.308
		c0.22-0.204,0.35-0.499,0.386-0.877l0.014-0.137h-1.119V33.024z"/>
	<path fill="#B7B9BC" d="M265.565,35.713h1.35V30.49h-1.35V35.713z M265.815,30.74h0.85v4.723h-0.85V30.74z"/>
	<path fill="#B7B9BC" d="M289.058,35.713h1.35V30.49h-1.35V35.713z M289.308,30.74h0.85v4.723h-0.85V30.74z"/>
	<path fill="#B7B9BC" d="M298.701,33.657c-0.038,0.306-0.145,0.554-0.314,0.738c-0.166,0.179-0.394,0.267-0.696,0.267
		c-0.226,0-0.418-0.043-0.57-0.127c-0.155-0.086-0.282-0.201-0.377-0.341c-0.099-0.145-0.172-0.31-0.217-0.492
		c-0.046-0.187-0.069-0.382-0.069-0.58c0-0.207,0.023-0.411,0.069-0.604c0.046-0.189,0.118-0.36,0.217-0.506
		c0.097-0.143,0.223-0.258,0.377-0.343c0.153-0.084,0.346-0.127,0.57-0.127c0.122,0,0.235,0.02,0.347,0.059
		c0.11,0.039,0.21,0.095,0.297,0.164c0.085,0.069,0.158,0.151,0.216,0.244c0.057,0.091,0.093,0.188,0.11,0.298l0.016,0.106h1.311
		l-0.016-0.139c-0.034-0.304-0.119-0.578-0.253-0.812c-0.132-0.235-0.304-0.437-0.511-0.599c-0.204-0.158-0.438-0.281-0.697-0.365
		c-0.256-0.083-0.531-0.125-0.819-0.125c-0.398,0-0.764,0.072-1.084,0.213c-0.321,0.142-0.596,0.34-0.816,0.589
		c-0.219,0.247-0.39,0.541-0.508,0.874c-0.116,0.333-0.175,0.694-0.175,1.076c0,0.373,0.059,0.728,0.175,1.055
		c0.118,0.329,0.289,0.618,0.509,0.86c0.222,0.245,0.496,0.439,0.816,0.578c0.319,0.138,0.685,0.208,1.083,0.208
		c0.319,0,0.618-0.049,0.891-0.146c0.271-0.099,0.512-0.244,0.713-0.43c0.201-0.184,0.367-0.413,0.491-0.68
		c0.123-0.263,0.199-0.561,0.229-0.885l0.012-0.136h-1.311L298.701,33.657z M299.749,33.797c-0.033,0.242-0.097,0.465-0.19,0.665
		c-0.11,0.237-0.256,0.439-0.434,0.601c-0.178,0.165-0.39,0.292-0.629,0.379c-0.244,0.087-0.516,0.132-0.806,0.132
		c-0.364,0-0.695-0.063-0.983-0.188s-0.533-0.298-0.73-0.517c-0.198-0.218-0.353-0.479-0.458-0.776
		c-0.107-0.3-0.161-0.627-0.161-0.971c0-0.354,0.054-0.688,0.161-0.993c0.106-0.301,0.261-0.567,0.459-0.79
		c0.196-0.222,0.442-0.399,0.73-0.526s0.618-0.191,0.982-0.191c0.262,0,0.512,0.038,0.743,0.113c0.23,0.075,0.439,0.184,0.619,0.324
		c0.181,0.141,0.331,0.317,0.447,0.524c0.097,0.17,0.165,0.364,0.202,0.579h-0.817c-0.026-0.102-0.067-0.198-0.123-0.286
		c-0.072-0.117-0.164-0.22-0.271-0.306c-0.108-0.087-0.233-0.156-0.369-0.205c-0.137-0.049-0.281-0.074-0.431-0.074
		c-0.268,0-0.5,0.053-0.691,0.158c-0.188,0.104-0.345,0.247-0.463,0.423c-0.115,0.172-0.2,0.37-0.252,0.588
		c-0.052,0.213-0.077,0.436-0.077,0.663c0,0.218,0.025,0.433,0.077,0.64c0.052,0.211,0.137,0.404,0.252,0.573
		c0.117,0.173,0.273,0.314,0.463,0.419c0.19,0.105,0.423,0.158,0.691,0.158c0.371,0,0.667-0.117,0.88-0.347
		c0.185-0.2,0.307-0.458,0.362-0.768H299.749z"/>
	<path fill="#B7B9BC" d="M314.348,32.892c-0.173-0.113-0.351-0.197-0.527-0.249c-0.17-0.049-0.303-0.084-0.392-0.102
		c-0.313-0.08-0.566-0.144-0.76-0.195c-0.183-0.048-0.329-0.097-0.435-0.145c-0.113-0.053-0.152-0.098-0.167-0.121
		c-0.024-0.039-0.037-0.096-0.037-0.17c0-0.081,0.017-0.146,0.049-0.195c0.037-0.055,0.085-0.102,0.143-0.138
		c0.061-0.039,0.128-0.066,0.199-0.081c0.205-0.043,0.416-0.028,0.59,0.007c0.1,0.02,0.188,0.055,0.264,0.102
		c0.071,0.044,0.127,0.105,0.171,0.185s0.07,0.187,0.079,0.317l0.008,0.117h1.307v-0.125c0-0.307-0.061-0.574-0.18-0.794
		c-0.118-0.218-0.281-0.4-0.483-0.541c-0.197-0.138-0.427-0.239-0.683-0.302c-0.465-0.112-0.985-0.13-1.486,0.005
		c-0.238,0.063-0.454,0.164-0.643,0.297c-0.191,0.135-0.349,0.307-0.466,0.509c-0.121,0.206-0.183,0.452-0.183,0.729
		c0,0.248,0.049,0.463,0.146,0.641c0.096,0.177,0.222,0.325,0.373,0.44c0.147,0.113,0.318,0.207,0.508,0.279
		c0.186,0.069,0.374,0.128,0.558,0.174c0.183,0.051,0.364,0.098,0.543,0.14c0.173,0.041,0.327,0.088,0.459,0.142
		c0.125,0.049,0.226,0.11,0.299,0.182c0.062,0.06,0.092,0.138,0.092,0.238c0,0.096-0.023,0.172-0.071,0.231
		c-0.054,0.067-0.12,0.119-0.201,0.157c-0.087,0.042-0.178,0.069-0.278,0.083c-0.268,0.037-0.479,0.029-0.687-0.025
		c-0.12-0.031-0.225-0.078-0.312-0.141c-0.087-0.062-0.153-0.14-0.205-0.239c-0.051-0.097-0.076-0.22-0.076-0.366v-0.125h-1.312
		l-0.002,0.123c-0.005,0.325,0.056,0.612,0.183,0.854c0.126,0.241,0.298,0.44,0.51,0.593c0.211,0.153,0.456,0.267,0.729,0.337
		c0.268,0.07,0.548,0.105,0.833,0.105c0.35,0,0.665-0.042,0.937-0.124c0.273-0.083,0.506-0.202,0.692-0.353
		c0.191-0.154,0.336-0.339,0.431-0.551c0.097-0.211,0.146-0.441,0.146-0.685c0-0.302-0.067-0.557-0.199-0.756
		C314.68,33.164,314.526,33.008,314.348,32.892z M314.634,34.693c-0.08,0.178-0.197,0.328-0.359,0.459
		c-0.162,0.13-0.367,0.234-0.608,0.308c-0.449,0.136-1.084,0.159-1.635,0.016c-0.242-0.062-0.459-0.163-0.645-0.298
		c-0.181-0.13-0.327-0.3-0.436-0.506c-0.091-0.174-0.142-0.379-0.151-0.611h0.818c0.013,0.135,0.046,0.254,0.099,0.357
		c0.069,0.132,0.163,0.243,0.28,0.327c0.112,0.081,0.246,0.142,0.396,0.18c0.238,0.062,0.483,0.075,0.784,0.03
		c0.125-0.018,0.242-0.053,0.35-0.104c0.114-0.054,0.212-0.13,0.29-0.227c0.084-0.104,0.126-0.235,0.126-0.388
		c0-0.169-0.057-0.309-0.168-0.417c-0.097-0.095-0.226-0.174-0.38-0.235c-0.143-0.057-0.309-0.108-0.494-0.152
		c-0.176-0.041-0.354-0.088-0.537-0.139c-0.178-0.043-0.357-0.1-0.532-0.166c-0.167-0.063-0.316-0.146-0.445-0.244
		c-0.125-0.095-0.226-0.213-0.305-0.36c-0.076-0.141-0.115-0.316-0.115-0.522c0-0.235,0.049-0.433,0.148-0.603
		c0.099-0.171,0.231-0.316,0.395-0.431c0.164-0.117,0.354-0.204,0.562-0.26c0.462-0.125,0.939-0.106,1.363-0.003
		c0.226,0.055,0.427,0.144,0.599,0.264c0.17,0.118,0.307,0.271,0.405,0.455c0.084,0.154,0.133,0.338,0.146,0.55h-0.823
		c-0.018-0.117-0.051-0.219-0.098-0.304c-0.063-0.116-0.15-0.209-0.257-0.276c-0.102-0.063-0.218-0.109-0.347-0.135
		c-0.209-0.041-0.449-0.056-0.69-0.007c-0.102,0.021-0.196,0.06-0.283,0.115c-0.086,0.055-0.158,0.125-0.216,0.209
		c-0.061,0.091-0.091,0.203-0.091,0.334c0,0.122,0.025,0.225,0.075,0.303c0.051,0.083,0.14,0.153,0.273,0.216
		c0.119,0.055,0.28,0.108,0.477,0.16c0.194,0.052,0.447,0.116,0.768,0.197c0.09,0.018,0.217,0.051,0.377,0.098
		c0.153,0.045,0.309,0.118,0.461,0.218c0.148,0.098,0.279,0.23,0.388,0.393c0.105,0.157,0.158,0.365,0.158,0.617
		C314.757,34.319,314.716,34.515,314.634,34.693z"/>
	<path fill="#B7B9BC" d="M320.958,33.575h2.423v-1.1h-2.423v-0.815h2.64V30.49h-3.988v5.223h4.045v-1.17h-2.696V33.575z
		 M323.404,34.793v0.67h-3.545V30.74h3.488v0.669h-2.64v1.315h2.423v0.6h-2.423v1.468H323.404z"/>
	<path fill="#B7B9BC" d="M330.777,31.339h-1.33v1.65h1.33c0.282,0,0.501-0.067,0.649-0.199c0.153-0.135,0.231-0.35,0.231-0.637
		c0-0.278-0.078-0.486-0.232-0.621C331.276,31.405,331.059,31.339,330.777,31.339z M331.261,32.604
		c-0.102,0.09-0.265,0.136-0.483,0.136h-1.08v-1.15h1.08c0.22,0,0.383,0.045,0.484,0.133c0.098,0.084,0.146,0.229,0.146,0.432
		C331.408,32.366,331.359,32.517,331.261,32.604z"/>
	<path fill="#B7B9BC" d="M332.785,35.303c-0.024-0.099-0.043-0.199-0.054-0.3c-0.011-0.108-0.019-0.215-0.023-0.32l-0.003-0.056
		c-0.004-0.084-0.007-0.159-0.011-0.226c-0.011-0.13-0.029-0.262-0.056-0.391c-0.027-0.135-0.072-0.263-0.134-0.379
		c-0.062-0.116-0.145-0.219-0.245-0.307c-0.04-0.034-0.084-0.065-0.131-0.092c0.185-0.111,0.328-0.252,0.427-0.422
		c0.134-0.233,0.202-0.51,0.202-0.822c0-0.205-0.037-0.4-0.111-0.581c-0.075-0.181-0.184-0.342-0.322-0.477
		c-0.14-0.136-0.309-0.245-0.503-0.323c-0.193-0.077-0.412-0.117-0.652-0.117h-2.821v5.223h1.35V33.77h0.975
		c0.24,0,0.41,0.048,0.507,0.144c0.102,0.101,0.17,0.27,0.202,0.5c0.027,0.19,0.048,0.392,0.062,0.617
		c0.015,0.23,0.055,0.433,0.119,0.602l0.031,0.08h1.431l-0.144-0.199C332.838,35.457,332.807,35.385,332.785,35.303z
		 M331.769,35.463c-0.039-0.129-0.064-0.279-0.075-0.448c-0.016-0.231-0.037-0.439-0.064-0.636c-0.042-0.29-0.131-0.5-0.274-0.642
		c-0.145-0.144-0.374-0.217-0.683-0.217h-1.225v1.943h-0.85V30.74h2.571c0.208,0,0.396,0.033,0.56,0.099
		c0.163,0.065,0.305,0.156,0.421,0.269c0.114,0.112,0.204,0.245,0.266,0.394c0.062,0.152,0.093,0.311,0.093,0.485
		c0,0.268-0.057,0.502-0.169,0.696c-0.108,0.188-0.292,0.334-0.544,0.434l-0.079,0.045v0.18l0.092,0.025
		c0.117,0.032,0.215,0.081,0.288,0.144c0.077,0.067,0.141,0.147,0.188,0.236c0.051,0.095,0.087,0.2,0.11,0.312
		c0.023,0.119,0.041,0.241,0.05,0.359c0.004,0.064,0.008,0.137,0.012,0.22l0.002,0.057c0.005,0.109,0.013,0.221,0.025,0.334
		c0.012,0.112,0.031,0.225,0.06,0.335c0.009,0.034,0.019,0.067,0.03,0.099H331.769z"/>
	<path fill="#B7B9BC" d="M346.092,35.713h1.35V30.49h-1.35V35.713z M346.342,30.74h0.85v4.723h-0.85V30.74z"/>
	<path fill="#B7B9BC" d="M363.099,34.543v-0.968h2.423v-1.1h-2.423v-0.815h2.641V30.49h-3.989v5.223h4.045v-1.17H363.099z
		 M365.545,35.463H362V30.74h3.489v0.669h-2.641v1.315h2.423v0.6h-2.423v1.468h2.696V35.463z"/>
</g>
</svg>
