<?xml version="1.0" encoding="utf-8"?>
<!-- Generator: Adobe Illustrator 17.0.0, SVG Export Plug-In . SVG Version: 6.00 Build 0)  -->
<!DOCTYPE svg PUBLIC "-//W3C//DTD SVG 1.1//EN" "http://www.w3.org/Graphics/SVG/1.1/DTD/svg11.dtd">
<svg version="1.1" id="Layer_1" xmlns="http://www.w3.org/2000/svg" xmlns:xlink="http://www.w3.org/1999/xlink" x="0px" y="0px"
	 width="1920px" height="1080px" viewBox="0 0 1920 1080" enable-background="new 0 0 1920 1080" xml:space="preserve">
<g>
	
		<linearGradient id="SVGID_1_" gradientUnits="userSpaceOnUse" x1="1203.8254" y1="53.5035" x2="-361.8254" y2="1513.4965" gradientTransform="matrix(-1 0 0 1 1381 -243.5)">
		<stop  offset="0" style="stop-color:#B60506"/>
		<stop  offset="1" style="stop-color:#620202"/>
	</linearGradient>
	<rect fill="url(#SVGID_1_)" width="1920" height="1080"/>
	
		<linearGradient id="SVGID_2_" gradientUnits="userSpaceOnUse" x1="1219.9401" y1="360.0875" x2="1022.1135" y2="804.4136" gradientTransform="matrix(-1 0 0 1 1381 -243.5)">
		<stop  offset="0" style="stop-color:#C00405"/>
		<stop  offset="0.1034" style="stop-color:#B50405"/>
		<stop  offset="0.4843" style="stop-color:#920203"/>
		<stop  offset="0.7968" style="stop-color:#7D0102"/>
		<stop  offset="1" style="stop-color:#750102"/>
	</linearGradient>
	<path fill="url(#SVGID_2_)" d="M0,720.7C129.52,493.2,304.51,243.36,539.18,0L422.92,0C312.59,153.35,173.7,314.47,0,468.66
		L0,720.7"/>
	
		<linearGradient id="SVGID_3_" gradientUnits="userSpaceOnUse" x1="1428.442" y1="398.6756" x2="1041.6737" y2="516.9227" gradientTransform="matrix(-1 0 0 1 1381 -243.5)">
		<stop  offset="0" style="stop-color:#6A0101"/>
		<stop  offset="0.5593" style="stop-color:#590000"/>
		<stop  offset="1" style="stop-color:#510000"/>
	</linearGradient>
	<path fill="url(#SVGID_3_)" d="M0,468.66C173.7,314.47,312.59,153.35,422.92,0L0,0L0,468.66"/>
	<path fill="#720102" d="M268.86,1080h71.35c5.99-28.37,12.34-56.95,19.09-85.8C327.98,1022.88,297.84,1051.51,268.86,1080"/>
	<path fill="#A70708" d="M759.18,974.2c5.97,36.19,12.47,71.44,19.43,105.8H1920V161.69
		c-484.35,121.46-878.21,319.23-1193.04,538.34C733.76,796.22,744.92,887.77,759.18,974.2z"/>
	
		<linearGradient id="SVGID_4_" gradientUnits="userSpaceOnUse" x1="977.6735" y1="1093.6959" x2="570.2172" y2="1218.2678" gradientTransform="matrix(-1 0 0 1 1381 -243.5)">
		<stop  offset="0" style="stop-color:#AB0404"/>
		<stop  offset="0.0187" style="stop-color:#A90404"/>
		<stop  offset="0.4356" style="stop-color:#860303"/>
		<stop  offset="0.7776" style="stop-color:#710202"/>
		<stop  offset="1" style="stop-color:#690202"/>
	</linearGradient>
	<path fill="url(#SVGID_4_)" d="M498.41,1080h280.2c-6.96-34.37-13.46-69.62-19.43-105.8c-14.25-86.42-25.42-177.98-32.22-274.16
		C589.72,795.56,467.48,895.13,359.3,994.2c-6.75,28.86-13.1,57.43-19.09,85.8H498.41L498.41,1080z"/>
	<path fill="#540001" d="M385.27,519.34c51.13-41,105.39-81.58,162.83-121.19C600.81,267.52,662.36,134.44,734,0l-87.35,0
		C534.91,176.74,449.82,351.92,385.27,519.34"/>
	
		<linearGradient id="SVGID_5_" gradientUnits="userSpaceOnUse" x1="1080.4478" y1="256.006" x2="1035.1967" y2="1119.4471" gradientTransform="matrix(-1 0 0 1 1381 -243.5)">
		<stop  offset="0" style="stop-color:#C00405"/>
		<stop  offset="0.2626" style="stop-color:#9D0304"/>
		<stop  offset="0.5757" style="stop-color:#7A0202"/>
		<stop  offset="0.8328" style="stop-color:#650101"/>
		<stop  offset="1" style="stop-color:#5D0101"/>
	</linearGradient>
	<path fill="url(#SVGID_5_)" d="M0,894.07c101.55-119.71,228.89-249.31,385.27-374.73C449.82,351.92,534.91,176.74,646.65,0
		L539.18,0C304.51,243.36,129.52,493.2,0,720.7L0,894.07"/>
	
		<linearGradient id="SVGID_6_" gradientUnits="userSpaceOnUse" x1="589.2745" y1="196.7203" x2="160.8077" y2="496.7359" gradientTransform="matrix(-1 0 0 1 1381 -243.5)">
		<stop  offset="0" style="stop-color:#C60708"/>
		<stop  offset="0.3244" style="stop-color:#B00809"/>
		<stop  offset="0.7333" style="stop-color:#9B0A0B"/>
		<stop  offset="1" style="stop-color:#930A0B"/>
	</linearGradient>
	<path fill="url(#SVGID_6_)" d="M726.38,284.86C918.85,172.45,1141.57,72.98,1397.51,0L758.97,0
		C743.19,97.77,732.58,192.76,726.38,284.86"/>
	
		<linearGradient id="SVGID_7_" gradientUnits="userSpaceOnUse" x1="778.2715" y1="399.9433" x2="642.4828" y2="513.8836" gradientTransform="matrix(-1 0 0 1 1381 -243.5)">
		<stop  offset="0" style="stop-color:#BD0405"/>
		<stop  offset="0.119" style="stop-color:#B70405"/>
		<stop  offset="0.6523" style="stop-color:#A20303"/>
		<stop  offset="1" style="stop-color:#9A0303"/>
	</linearGradient>
	<path fill="url(#SVGID_7_)" d="M548.1,398.15c56.31-38.83,115.68-76.74,178.27-113.29c6.21-92.1,16.81-187.09,32.6-284.86L734,0
		C662.36,134.43,600.82,267.52,548.1,398.15"/>
	
		<linearGradient id="SVGID_8_" gradientUnits="userSpaceOnUse" x1="1100.7831" y1="897.3148" x2="886.5384" y2="1064.701" gradientTransform="matrix(-1 0 0 1 1381 -243.5)">
		<stop  offset="0" style="stop-color:#8D0303"/>
		<stop  offset="0.1116" style="stop-color:#810303"/>
		<stop  offset="0.489" style="stop-color:#5E0101"/>
		<stop  offset="0.7987" style="stop-color:#490000"/>
		<stop  offset="1" style="stop-color:#410000"/>
	</linearGradient>
	<path fill="url(#SVGID_8_)" d="M230.58,1080h38.28c28.99-28.49,59.12-57.12,90.44-85.8c44.4-189.87,105.64-389.94,188.81-596.05
		c-57.44,39.61-111.71,80.19-162.83,121.19C307.53,720.99,259.55,911.43,230.58,1080"/>
	
		<linearGradient id="SVGID_9_" gradientUnits="userSpaceOnUse" x1="1242.8943" y1="824.465" x2="1120.3407" y2="1316.0004" gradientTransform="matrix(-1 0 0 1 1381 -243.5)">
		<stop  offset="0" style="stop-color:#9E0404"/>
		<stop  offset="0.1851" style="stop-color:#970404"/>
		<stop  offset="0.447" style="stop-color:#850303"/>
		<stop  offset="0.7531" style="stop-color:#670102"/>
		<stop  offset="1" style="stop-color:#490001"/>
	</linearGradient>
	<path fill="url(#SVGID_9_)" d="M0,1080h230.58c28.97-168.57,76.95-359.01,154.69-560.66C228.89,644.75,101.55,774.36,0,894.07
		L0,1080"/>
	
		<linearGradient id="SVGID_10_" gradientUnits="userSpaceOnUse" x1="194.2154" y1="300.3709" x2="23.1105" y2="667.3065" gradientTransform="matrix(-1 0 0 1 1381 -243.5)">
		<stop  offset="0" style="stop-color:#B70D0D"/>
		<stop  offset="1" style="stop-color:#73090B"/>
	</linearGradient>
	<path fill="url(#SVGID_10_)" d="M726.96,700.03C1041.79,480.92,1435.65,283.15,1920,161.69V0l-522.49,0
		c-255.95,72.98-478.66,172.45-671.14,284.86C716.52,431.08,717.75,569.84,726.96,700.03"/>
	
		<linearGradient id="SVGID_11_" gradientUnits="userSpaceOnUse" x1="955.7371" y1="773.3875" x2="709.4968" y2="1003.0103" gradientTransform="matrix(-1 0 0 1 1381 -243.5)">
		<stop  offset="0" style="stop-color:#B60506"/>
		<stop  offset="1" style="stop-color:#620202"/>
	</linearGradient>
	<path fill="url(#SVGID_11_)" d="M359.3,994.2c108.18-99.07,230.42-198.65,367.66-294.16c-9.21-130.19-10.44-268.95-0.58-415.18
		c-62.59,36.55-121.96,74.46-178.27,113.29C464.93,604.25,403.7,804.32,359.3,994.2"/>
</g>
</svg>
