<?xml version="1.0" encoding="utf-8"?>
<!-- Generator: Adobe Illustrator 17.0.0, SVG Export Plug-In . SVG Version: 6.00 Build 0)  -->
<!DOCTYPE svg PUBLIC "-//W3C//DTD SVG 1.1//EN" "http://www.w3.org/Graphics/SVG/1.1/DTD/svg11.dtd">
<svg version="1.1" id="Layer_1" xmlns="http://www.w3.org/2000/svg" xmlns:xlink="http://www.w3.org/1999/xlink" x="0px" y="0px"
	 width="30px" height="30px" viewBox="0 0 30 30" enable-background="new 0 0 30 30" xml:space="preserve">
<g>
	<path fill="#FFFFFF" d="M18.391,8.387c1.383-0.799,2.681-1.681,3.867-2.748c1.41,1.163,2.58,2.53,3.501,4.128
		c-1.454,1.166-2.995,2.18-4.608,3.107C20.377,11.279,19.463,9.795,18.391,8.387z"/>
	<path fill="#FFFFFF" d="M4.296,19.239c1.921-0.255,3.779-0.675,5.627-1.204c0.818,1.548,1.79,2.983,2.93,4.35
		c-0.401,0.109-0.757,0.222-1.12,0.302c-1.098,0.243-2.199,0.474-3.299,0.706c-0.174,0.037-0.351,0.061-0.527,0.083
		c-0.164,0.021-0.293-0.004-0.439-0.138c-1.118-1.024-2.07-2.186-2.849-3.498C4.507,19.651,4.411,19.453,4.296,19.239z"/>
	<path fill="#FFFFFF" d="M15.513,15.567c-0.11-0.345-0.231-0.701-0.336-1.061c-0.088-0.3-0.164-0.603-0.23-0.909
		c-0.025-0.117-0.077-0.155-0.183-0.146c-0.094,0.009-0.164-0.005-0.211-0.114c-0.364-0.842-0.736-1.681-1.1-2.508
		c1.531-0.731,3.057-1.459,4.599-2.196c1.041,1.359,1.96,2.843,2.738,4.458c-0.84,0.437-1.671,0.868-2.539,1.32
		c0-0.34,0-0.636,0-0.96c-0.176,0-0.327,0-0.478,0c-0.422,0-0.845,0.003-1.267-0.001c-0.115-0.001-0.165,0.037-0.194,0.158
		c-0.135,0.557-0.288,1.109-0.421,1.666C15.848,15.459,15.765,15.565,15.513,15.567z"/>
	<path fill="#FFFFFF" d="M7.591,7.193c0,0.214-0.002,0.423,0,0.631c0.005,0.571,0,1.142,0.021,1.712
		c0.014,0.379,0.058,0.757,0.102,1.134c0.052,0.441,0.112,0.88,0.182,1.318c0.027,0.169,0.033,0.262-0.182,0.301
		c-0.913,0.164-1.819,0.368-2.732,0.527c-0.607,0.106-1.223,0.163-1.835,0.238c-0.106,0.013-0.214,0.002-0.358,0.002
		c0.018-0.372,0.005-0.728,0.058-1.073c0.105-0.688,0.224-1.377,0.379-2.055c0.186-0.816,0.485-1.595,0.836-2.352
		C4.12,7.451,4.179,7.408,4.319,7.412c1.061,0.029,2.117-0.031,3.163-0.224C7.511,7.182,7.543,7.19,7.591,7.193z"/>
	<path fill="#FFFFFF" d="M17.384,20.771c-0.606,0.239-1.181,0.481-1.767,0.693c-0.707,0.256-1.423,0.484-2.134,0.73
		c-0.129,0.045-0.221,0.039-0.315-0.076c-0.727-0.895-1.421-1.815-2.026-2.802c-0.244-0.398-0.471-0.808-0.705-1.214
		c-0.032-0.055-0.057-0.113-0.093-0.185c0.122-0.041,0.228-0.096,0.337-0.104c0.058-0.005,0.147,0.057,0.179,0.114
		c0.061,0.111,0.129,0.155,0.256,0.153c0.473-0.008,0.946-0.003,1.452-0.003c-0.13-0.258-0.248-0.493-0.378-0.751
		c0.275-0.096,0.536-0.188,0.823-0.288c0,0.356,0,0.682,0,1.024c0.399,0,0.778,0,1.189,0c0-0.185,0-0.366,0-0.548
		c0-0.237,0.007-0.474-0.003-0.71c-0.007-0.151,0.026-0.248,0.187-0.279c0.086-0.016,0.166-0.063,0.274-0.107
		c0.081,0.307,0.16,0.605,0.237,0.905c0.052,0.202,0.103,0.404,0.149,0.608c0.024,0.106,0.076,0.15,0.185,0.148
		c0.32-0.006,0.639-0.002,0.963-0.002C16.59,18.968,16.982,19.859,17.384,20.771z"/>
	<path fill="#FFFFFF" d="M18.128,8.05c-1.091-1.375-2.297-2.599-3.63-3.721c0.253-0.188,0.508-0.357,0.74-0.554
		c0.438-0.37,0.861-0.758,1.296-1.13c0.057-0.049,0.164-0.092,0.224-0.07c1.846,0.66,3.574,1.552,5.132,2.775
		c0.005,0.004,0.008,0.01,0.022,0.03C20.759,6.417,19.482,7.272,18.128,8.05z"/>
	<path fill="#FFFFFF" d="M13.264,10.406c-0.653-1.48-1.291-2.926-1.93-4.374c0.476-0.231,0.95-0.45,1.413-0.691
		c0.42-0.219,0.83-0.457,1.239-0.698c0.098-0.058,0.152-0.066,0.247,0.013c0.996,0.835,1.927,1.74,2.789,2.719
		c0.247,0.281,0.481,0.574,0.737,0.881C16.293,9.066,14.796,9.756,13.264,10.406z"/>
	<path fill="#FFFFFF" d="M8.337,12.119c-0.053-0.316-0.115-0.621-0.153-0.929c-0.142-1.138-0.219-2.281-0.196-3.43
		c0.004-0.196,0.022-0.393,0.044-0.588C8.036,7.134,8.082,7.077,8.118,7.07c0.959-0.203,1.888-0.507,2.824-0.883
		c0.118,0.263,0.236,0.521,0.35,0.78c0.503,1.137,1.003,2.275,1.511,3.409c0.065,0.146,0.056,0.21-0.1,0.272
		c-1.38,0.551-2.779,1.043-4.21,1.437C8.451,12.097,8.408,12.104,8.337,12.119z"/>
	<path fill="#FFFFFF" d="M22.622,18.771c0.035,0.235,0.089,0.483,0.106,0.735c0.048,0.686,0.11,1.374,0.112,2.061
		c0.001,0.615-0.065,1.23-0.115,1.844c-0.007,0.082-0.07,0.196-0.137,0.229c-0.923,0.443-1.851,0.874-2.778,1.307
		c-0.028,0.013-0.057,0.021-0.108,0.04c-0.588-1.332-1.172-2.656-1.751-3.967C19.51,20.269,21.059,19.524,22.622,18.771z"/>
	<path fill="#FFFFFF" d="M8.12,23.877c0.299-0.055,0.561-0.097,0.82-0.151c0.851-0.177,1.704-0.348,2.551-0.541
		c0.495-0.113,0.983-0.257,1.471-0.399c0.148-0.043,0.241-0.004,0.345,0.105c0.646,0.673,1.287,1.351,1.953,2.003
		c0.391,0.384,0.823,0.724,1.237,1.082c0.034,0.03,0.074,0.052,0.112,0.077c-0.006,0.018-0.011,0.035-0.017,0.053
		c-0.345,0.098-0.688,0.209-1.037,0.291c-0.68,0.161-1.363,0.307-2.045,0.459c-0.157,0.035-0.303,0.037-0.46-0.03
		c-1.702-0.726-3.3-1.637-4.764-2.789C8.236,23.997,8.193,23.948,8.12,23.877z"/>
	<path fill="#FFFFFF" d="M19.712,29.186c-1.729,0.631-3.509,0.878-5.325,0.799c-2.55-0.11-4.94-0.815-7.136-2.199
		c0.583,0,1.168,0.024,1.75-0.006c0.814-0.041,1.627-0.108,2.438-0.19c0.549-0.055,1.093-0.158,1.641-0.231
		c0.084-0.011,0.18,0.008,0.26,0.041c1.754,0.713,3.567,1.213,5.411,1.606C19.068,29.075,19.391,29.127,19.712,29.186z"/>
	<path fill="#FFFFFF" d="M3.244,24.289c0.697-0.032,1.367-0.053,2.037-0.097c0.483-0.032,0.963-0.093,1.445-0.144
		c0.234-0.025,0.466-0.064,0.7-0.083c0.061-0.005,0.139,0.025,0.188,0.066c0.872,0.729,1.793,1.385,2.78,1.937
		c0.653,0.365,1.32,0.702,2.006,1.065c-0.129,0.026-0.249,0.059-0.372,0.073c-0.538,0.058-1.075,0.132-1.615,0.16
		c-1.052,0.055-2.106,0.088-3.159,0.121c-0.242,0.007-0.493,0.01-0.724-0.051c-0.175-0.046-0.33-0.188-0.483-0.303
		c-0.983-0.739-1.875-1.58-2.662-2.536C3.336,24.438,3.298,24.37,3.244,24.289z"/>
	<path fill="#FFFFFF" d="M21.349,13.251c1.605-0.928,3.15-1.937,4.619-3.11c0.579,1.077,0.994,2.204,1.262,3.431
		c-0.09-0.025-0.157-0.045-0.226-0.064c-0.662-0.179-1.324-0.179-1.976,0.03c-0.578,0.185-0.923,0.677-0.909,1.262
		c0.011,0.476,0.272,0.803,0.663,1.003c0.287,0.147,0.605,0.23,0.909,0.34c0.034,0.012,0.069,0.022,0.151,0.048
		c-0.174,0.123-0.306,0.263-0.464,0.313c-0.146,0.046-0.322-0.014-0.484-0.009c-0.311,0.009-0.622,0.032-0.975,0.051
		c0.073,0.267,0.141,0.515,0.217,0.793c-0.159,0.1-0.341,0.213-0.544,0.34c-0.165-0.436-0.32-0.849-0.476-1.262
		c-0.353-0.932-0.709-1.863-1.054-2.798c-0.051-0.138-0.116-0.185-0.249-0.17c-0.076,0.009-0.154-0.006-0.23,0.003
		C21.448,13.47,21.382,13.406,21.349,13.251z"/>
	<path fill="#FFFFFF" d="M0.691,19.459c0.168,0,0.322,0.008,0.474-0.001c0.834-0.049,1.667-0.101,2.5-0.154
		c0.111-0.007,0.198-0.004,0.264,0.126c0.767,1.499,1.778,2.806,2.981,3.96c0.042,0.04,0.081,0.084,0.12,0.127
		c0.013,0.014,0.021,0.032,0.043,0.065c-0.252,0.033-0.492,0.081-0.734,0.094c-1.07,0.059-2.14,0.106-3.21,0.164
		c-0.178,0.01-0.289-0.048-0.395-0.2c-0.879-1.259-1.563-2.618-2.032-4.091C0.696,19.531,0.697,19.511,0.691,19.459z"/>
	<path fill="#FFFFFF" d="M27.408,17.893c-0.123,1.048-0.364,2.059-0.716,3.043c-0.025,0.07-0.069,0.144-0.125,0.187
		c-1.05,0.812-2.163,1.522-3.318,2.166c-0.02,0.011-0.043,0.019-0.088,0.038c0.016-0.261,0.041-0.5,0.042-0.739
		c0.005-0.761,0.025-1.523-0.007-2.283c-0.024-0.566-0.121-1.129-0.178-1.695c-0.005-0.048,0.04-0.124,0.083-0.151
		c0.41-0.253,0.823-0.499,1.239-0.741c0.037-0.021,0.117-0.015,0.147,0.012c0.253,0.237,0.57,0.326,0.888,0.375
		c0.5,0.077,1.006,0.09,1.503-0.035C27.055,18.027,27.224,17.956,27.408,17.893z"/>
	<path fill="#FFFFFF" d="M24.016,3.024c-0.265,0.343-0.513,0.685-0.782,1.006c-0.25,0.298-0.529,0.57-0.787,0.861
		c-0.131,0.148-0.226,0.18-0.407,0.04c-1.445-1.115-3.031-1.966-4.724-2.61c-0.116-0.044-0.232-0.09-0.304-0.118
		c0.361-0.592,0.719-1.184,1.087-1.769c0.031-0.049,0.143-0.082,0.205-0.068c0.958,0.217,1.889,0.523,2.79,0.923
		c0.986,0.438,1.912,0.982,2.787,1.622C23.917,2.939,23.95,2.969,24.016,3.024z"/>
	<path fill="#FFFFFF" d="M24.378,3.297c1.499,1.191,2.729,2.652,3.718,4.387c-0.658,0.606-1.315,1.212-1.993,1.836
		c-0.946-1.614-2.115-2.993-3.494-4.141C23.203,4.679,23.785,3.994,24.378,3.297z"/>
	<path fill="#FFFFFF" d="M17.763,20.586c-0.457-1.028-0.908-2.038-1.35-3.052c-0.04-0.092-0.045-0.219-0.022-0.319
		c0.121-0.507,0.264-1.008,0.382-1.516c0.035-0.152,0.106-0.226,0.266-0.259c0,0.87,0,1.734,0,2.617c0.406,0,0.791,0,1.203,0
		c0-0.079,0-0.156,0-0.232c0-0.901,0.004-1.803-0.003-2.704c-0.002-0.178,0.04-0.277,0.211-0.357
		c0.554-0.261,1.097-0.547,1.644-0.823c0.039-0.02,0.081-0.033,0.176-0.072c-0.537,1.419-1.058,2.796-1.591,4.207
		c0.401,0,0.769,0,1.137,0c0.334,0,0.334,0,0.43-0.332c0.121-0.417,0.121-0.417,0.544-0.417c0.359,0,0.717,0.003,1.076-0.002
		c0.098-0.001,0.152,0.026,0.176,0.13c0.031,0.133,0.079,0.261,0.115,0.393c0.038,0.139,0.077,0.265,0.264,0.235
		c0.03-0.005,0.101,0.07,0.1,0.107c-0.001,0.05-0.041,0.122-0.084,0.145c-0.434,0.237-0.864,0.482-1.309,0.694
		c-1.085,0.518-2.178,1.02-3.268,1.528C17.834,20.57,17.802,20.575,17.763,20.586z"/>
	<path fill="#FFFFFF" d="M17.568,21.183c0.579,1.312,1.165,2.637,1.761,3.988c-0.708,0.249-1.396,0.498-2.09,0.729
		c-0.075,0.025-0.2-0.026-0.27-0.083c-1.11-0.899-2.144-1.884-3.125-2.93c-0.078-0.083-0.145-0.178-0.21-0.259
		C14.943,22.147,16.239,21.671,17.568,21.183z"/>
	<path fill="#FFFFFF" d="M2.482,18.077c0.245,0,0.462,0.004,0.678-0.002c0.1-0.002,0.161,0.023,0.201,0.129
		c0.085,0.224,0.185,0.442,0.287,0.679c-0.307,0.033-0.595,0.082-0.884,0.093c-0.69,0.024-1.381,0.027-2.072,0.047
		c-0.124,0.004-0.173-0.051-0.193-0.16c-0.13-0.698-0.298-1.391-0.378-2.095c-0.085-0.753-0.098-1.517-0.12-2.276
		c-0.009-0.311,0.042-0.624,0.066-0.934c0.774,0,1.526,0,2.291,0c0.017,0.162,0.043,0.329,0.05,0.498
		c0.041,0.906,0.204,1.789,0.448,2.658c0.043,0.153,0.041,0.285-0.019,0.432C2.716,17.438,2.61,17.738,2.482,18.077z"/>
	<path fill="#FFFFFF" d="M3.16,16.25c-0.22-0.922-0.355-1.81-0.363-2.746c1.761-0.132,3.487-0.416,5.209-0.852
		c0.058,0.246,0.112,0.472,0.162,0.699c0.006,0.026-0.012,0.083-0.023,0.084c-0.19,0.019-0.123,0.169-0.123,0.269
		C8.019,15.067,8.02,16.429,8.02,17.79c0,0.098,0,0.196,0,0.318c-0.618,0.133-1.229,0.277-1.845,0.394
		c-0.618,0.118-1.241,0.208-1.862,0.312C4.168,18.839,4.059,18.821,4,18.653c-0.066-0.189-0.155-0.37-0.206-0.488
		c0.089-0.113,0.148-0.186,0.206-0.26c0.008-0.01,0.014-0.022,0.018-0.035c0.061-0.177,0.074-0.424,0.196-0.512
		c0.126-0.091,0.357-0.029,0.542-0.03c0.294-0.002,0.589,0.005,0.883-0.003c0.12-0.003,0.184,0.028,0.217,0.157
		c0.05,0.195,0.07,0.463,0.2,0.554c0.141,0.1,0.394,0.037,0.598,0.04c0.281,0.003,0.562,0.001,0.877,0.001
		c-0.052-0.15-0.092-0.276-0.139-0.4c-0.51-1.353-1.022-2.706-1.528-4.06c-0.046-0.123-0.104-0.17-0.236-0.167
		c-0.416,0.01-0.832,0.007-1.248,0.001c-0.114-0.002-0.166,0.041-0.207,0.15c-0.306,0.825-0.619,1.648-0.931,2.471
		C3.224,16.119,3.2,16.164,3.16,16.25z"/>
	<path fill="#FFFFFF" d="M8.615,13.453c-0.068-0.311-0.131-0.596-0.197-0.9c0.31-0.091,0.612-0.166,0.904-0.268
		c1.174-0.409,2.347-0.822,3.515-1.247c0.166-0.061,0.238-0.051,0.312,0.12c0.305,0.712,0.622,1.418,0.934,2.127
		c0.02,0.046,0.03,0.096,0.051,0.164c-0.374,0-0.73,0-1.12,0c0,0.091,0,0.166,0,0.241c0,0.901-0.004,1.802,0.002,2.702
		c0.001,0.14-0.035,0.214-0.171,0.255c-0.244,0.073-0.485,0.158-0.724,0.247c-0.095,0.036-0.149,0.026-0.202-0.069
		c-0.186-0.332-0.392-0.647-0.819-0.775c0.386-0.107,0.69-0.258,0.893-0.577c0.463-0.727,0.143-1.851-0.822-1.941
		c-0.513-0.048-1.03-0.06-1.546-0.077C9.295,13.444,8.963,13.453,8.615,13.453z"/>
	<path fill="#FFFFFF" d="M26.314,9.891c0.66-0.603,1.317-1.203,1.998-1.825c0.155,0.335,0.317,0.667,0.464,1.005
		c0.435,1,0.756,2.037,0.949,3.115c0.011,0.063,0.008,0.149-0.025,0.198c-0.514,0.738-1.099,1.412-1.742,2.029
		c-0.277-0.386-0.297-0.853-0.404-1.29c-0.272-1.108-0.669-2.164-1.21-3.162C26.331,9.939,26.323,9.914,26.314,9.891z"/>
	<path fill="#FFFFFF" d="M3.688,7.386c-0.827,1.811-1.284,3.698-1.319,5.718c-0.756,0-1.499,0-2.292,0
		c0.156-0.714,0.286-1.432,0.472-2.134C0.892,9.675,1.43,8.463,2.11,7.317c0.056-0.095,0.107-0.149,0.223-0.132
		c0.39,0.056,0.782,0.104,1.173,0.157C3.561,7.349,3.615,7.368,3.688,7.386z"/>
	<path fill="#FFFFFF" d="M29.855,12.925c0.037,0.318,0.079,0.588,0.097,0.859c0.057,0.885,0.082,1.77-0.035,2.652
		c-0.07,0.523-0.123,1.051-0.243,1.562c-0.05,0.215-0.231,0.415-0.391,0.583c-0.555,0.579-1.126,1.142-1.694,1.709
		c-0.086,0.086-0.187,0.155-0.316,0.26c0.087-0.334,0.182-0.625,0.238-0.924c0.123-0.666,0.224-1.336,0.341-2.003
		c0.02-0.113,0.065-0.224,0.116-0.327c0.236-0.47,0.232-0.922,0.013-1.411c-0.104-0.233-0.067-0.535-0.086-0.806
		c-0.002-0.029,0.037-0.067,0.064-0.092c0.656-0.597,1.257-1.248,1.792-1.961C29.77,13.001,29.796,12.982,29.855,12.925z"/>
	<path fill="#FFFFFF" d="M8.475,1.761c-0.441,1.626-0.733,3.275-0.85,4.968C6.557,6.943,5.481,7.015,4.36,6.969
		C5.4,4.943,6.809,3.251,8.475,1.761z"/>
	<path fill="#FFFFFF" d="M29.441,19.081c-1.152,3.819-3.391,6.69-6.681,8.709c0.196-0.205,0.396-0.408,0.589-0.616
		c1.546-1.665,2.769-3.545,3.596-5.691c0.054-0.14,0.184-0.262,0.304-0.359c0.747-0.608,1.446-1.269,2.103-1.977
		C29.366,19.134,29.383,19.125,29.441,19.081z"/>
	<path fill="#FFFFFF" d="M10.141,0.801c2.508-0.83,5.01-1.02,7.617-0.547c-0.272,0.421-0.522,0.82-0.785,1.212
		c-0.108,0.161-0.231,0.315-0.368,0.45c-0.054,0.053-0.176,0.085-0.247,0.062c-1.097-0.363-2.215-0.634-3.35-0.83
		c-0.645-0.111-1.299-0.171-1.949-0.25C10.772,0.864,10.482,0.837,10.141,0.801z"/>
	<path fill="#FFFFFF" d="M11.17,5.661c-0.656-1.486-1.292-2.927-1.928-4.368c0.013-0.012,0.026-0.025,0.039-0.037
		c1.569,0.886,3.069,1.881,4.523,3.047C12.915,4.762,12.049,5.208,11.17,5.661z"/>
	<path fill="#FFFFFF" d="M8.051,6.644c0.117-1.708,0.424-3.327,0.904-4.967c0.615,1.393,1.209,2.739,1.816,4.112
		C9.892,6.16,9.006,6.437,8.051,6.644z"/>
	<path fill="#FFFFFF" d="M22.159,27.713c0.116-0.378,0.253-0.75,0.344-1.134c0.194-0.823,0.367-1.652,0.54-2.48
		c0.034-0.161,0.095-0.26,0.244-0.351c0.967-0.59,1.923-1.198,2.883-1.8c0.046-0.029,0.092-0.058,0.185-0.116
		C25.36,24.139,23.961,26.074,22.159,27.713z"/>
	<path fill="#FFFFFF" d="M16.197,2.431c-0.487,0.399-0.973,0.8-1.463,1.196c-0.12,0.097-0.257,0.171-0.373,0.272
		c-0.144,0.127-0.255,0.117-0.405-0.006c-1.163-0.952-2.408-1.782-3.688-2.556c-0.02-0.012-0.037-0.03-0.05-0.067
		c2.03,0.108,4.014,0.469,5.952,1.096C16.179,2.388,16.188,2.409,16.197,2.431z"/>
	<path fill="#FFFFFF" d="M21.294,28.59c-0.469-1.061-0.938-2.123-1.407-3.186c0.919-0.427,1.815-0.844,2.74-1.274
		c-0.246,1.554-0.669,3.035-1.263,4.464C21.341,28.592,21.318,28.591,21.294,28.59z"/>
	<path fill="#FFFFFF" d="M20.503,28.843c-3.049-0.426-5.39-1.205-6.483-1.641c0.135-0.035,0.231-0.06,0.328-0.084
		c0.105-0.025,0.211-0.046,0.315-0.074c0.744-0.195,1.488-0.394,2.233-0.583c0.075-0.019,0.183-0.009,0.244,0.034
		c1.099,0.769,2.194,1.546,3.29,2.32C20.452,28.829,20.479,28.834,20.503,28.843z"/>
	<path fill="#FFFFFF" d="M7.577,2.015C7.261,2.339,6.936,2.654,6.63,2.989c-0.858,0.938-1.61,1.96-2.251,3.068
		C4.233,6.308,4.105,6.571,3.957,6.822C3.926,6.876,3.844,6.938,3.79,6.933C3.353,6.898,2.918,6.849,2.436,6.799
		c1.357-2.05,3.058-3.633,5.112-4.822C7.558,1.989,7.568,2.002,7.577,2.015z"/>
	<path fill="#FFFFFF" d="M20.749,28.552c-1.071-0.748-2.142-1.495-3.249-2.268c0.703-0.257,1.345-0.492,1.998-0.731
		c0.434,0.985,0.868,1.968,1.302,2.952C20.783,28.521,20.766,28.537,20.749,28.552z"/>
	<path fill="#FFFFFF" d="M9.456,15.38c0-0.36,0-0.653,0-0.99c0.34,0.019,0.67,0.019,0.995,0.063
		c0.223,0.031,0.305,0.187,0.295,0.433c-0.008,0.214-0.103,0.348-0.312,0.38C10.117,15.314,9.796,15.341,9.456,15.38z"/>
	<path fill="#FFFFFF" d="M27.411,14.801c-0.027,0.23-0.313,0.445-0.497,0.396c-0.411-0.11-0.823-0.212-1.233-0.326
		c-0.131-0.036-0.221-0.12-0.218-0.282c0.003-0.156,0.089-0.237,0.213-0.292c0.046-0.02,0.095-0.041,0.144-0.046
		c0.336-0.033,0.703,0.07,0.802,0.465c0.013,0.053,0.117,0.114,0.18,0.116C27.004,14.837,27.206,14.814,27.411,14.801z"/>
	<path fill="#FFFFFF" d="M20.692,16.303c0.163-0.53,0.321-1.042,0.479-1.555c0.014-0.001,0.027-0.002,0.041-0.004
		c0.158,0.513,0.316,1.027,0.48,1.558C21.357,16.303,21.036,16.303,20.692,16.303z"/>
	<path fill="#FFFFFF" d="M5.017,14.751c0.156,0.508,0.311,1.016,0.475,1.548c-0.331,0-0.645,0-0.993,0
		c0.159-0.522,0.314-1.032,0.47-1.542C4.985,14.754,5.001,14.752,5.017,14.751z"/>
	<path fill="#FFFFFF" d="M25.508,16.957c0.261-0.193,0.522-0.389,0.788-0.576c0.037-0.026,0.11-0.027,0.156-0.009
		c0.335,0.128,0.389,0.498,0.116,0.743C26.346,17.314,25.672,17.297,25.508,16.957z"/>
	<path fill="#FFFFFF" d="M10.581,17.388c-0.141,0.046-0.253,0.09-0.368,0.115c-0.035,0.008-0.102-0.024-0.118-0.057
		c-0.192-0.396-0.376-0.796-0.57-1.21c0.229-0.036,0.398,0.023,0.502,0.188C10.218,16.731,10.389,17.051,10.581,17.388z"/>
	<path fill="#FFFFFF" d="M14.561,16.002c-0.126,0.046-0.23,0.084-0.35,0.128c0-0.462,0-0.899,0-1.336
		c0.01-0.003,0.02-0.006,0.03-0.008C14.346,15.183,14.45,15.58,14.561,16.002z"/>
	<path fill="#FFFFFF" d="M9.724,17.646c-0.1,0.028-0.175,0.049-0.266,0.074c0-0.2,0-0.379,0-0.61
		C9.554,17.304,9.631,17.459,9.724,17.646z"/>
</g>
</svg>
