<?xml version="1.0" encoding="utf-8"?>
<!-- Generator: Adobe Illustrator 17.0.0, SVG Export Plug-In . SVG Version: 6.00 Build 0)  -->
<!DOCTYPE svg PUBLIC "-//W3C//DTD SVG 1.1//EN" "http://www.w3.org/Graphics/SVG/1.1/DTD/svg11.dtd">
<svg version="1.1" id="Layer_1" xmlns="http://www.w3.org/2000/svg" xmlns:xlink="http://www.w3.org/1999/xlink" x="0px" y="0px"
	 width="30px" height="30px" viewBox="20 20 30 30" enable-background="new 20 20 30 30" xml:space="preserve">
<g>
	<circle fill="#FFFFFF" cx="35" cy="35" r="15"/>
	<g>
		<path fill="#C1272D" d="M38.06,28.82c1.27-0.75,2.46-1.57,3.55-2.56c1.29,1.08,2.37,2.36,3.21,3.85c-1.34,1.09-2.75,2.03-4.23,2.9
			C39.89,31.51,39.05,30.13,38.06,28.82z"/>
		<path fill="#C1272D" d="M25.12,38.93c1.77-0.24,3.47-0.63,5.17-1.12c0.75,1.44,1.65,2.78,2.69,4.06c-0.37,0.1-0.69,0.21-1.03,0.28
			c-1.01,0.23-2.02,0.44-3.03,0.66c-0.16,0.03-0.32,0.06-0.48,0.08c-0.15,0.02-0.27,0-0.4-0.13c-1.03-0.96-1.9-2.04-2.62-3.26
			C25.31,39.32,25.22,39.14,25.12,38.93z"/>
		<path fill="#C1272D" d="M35.42,35.51c-0.1-0.32-0.21-0.65-0.31-0.99c-0.08-0.28-0.15-0.56-0.21-0.85
			c-0.02-0.11-0.07-0.15-0.17-0.14c-0.09,0.01-0.15,0-0.19-0.11c-0.33-0.78-0.68-1.57-1.01-2.34c1.41-0.68,2.81-1.36,4.23-2.05
			c0.96,1.27,1.8,2.65,2.52,4.16c-0.77,0.41-1.53,0.81-2.33,1.23c0-0.32,0-0.59,0-0.9c-0.16,0-0.3,0-0.44,0c-0.39,0-0.78,0-1.17,0
			c-0.11,0-0.15,0.03-0.18,0.15c-0.12,0.52-0.27,1.03-0.39,1.56C35.72,35.41,35.65,35.51,35.42,35.51z"/>
		<path fill="#C1272D" d="M28.14,27.7c0,0.2,0,0.39,0,0.59c0,0.53,0,1.07,0.02,1.6c0.01,0.35,0.05,0.71,0.09,1.06
			c0.05,0.41,0.1,0.82,0.17,1.23c0.03,0.16,0.03,0.24-0.17,0.28c-0.84,0.15-1.67,0.34-2.51,0.49c-0.56,0.1-1.12,0.15-1.68,0.22
			c-0.1,0.01-0.2,0-0.33,0c0.02-0.35,0-0.68,0.05-1c0.1-0.64,0.21-1.29,0.35-1.92c0.17-0.76,0.45-1.49,0.77-2.19
			c0.05-0.12,0.11-0.16,0.24-0.15c0.97,0.03,1.95-0.03,2.91-0.21C28.07,27.69,28.1,27.7,28.14,27.7z"/>
		<path fill="#C1272D" d="M37.14,40.37c-0.56,0.22-1.08,0.45-1.62,0.65c-0.65,0.24-1.31,0.45-1.96,0.68
			c-0.12,0.04-0.2,0.04-0.29-0.07c-0.67-0.84-1.31-1.69-1.86-2.61c-0.22-0.37-0.43-0.75-0.65-1.13c-0.03-0.05-0.05-0.11-0.09-0.17
			c0.11-0.04,0.21-0.09,0.31-0.1c0.05,0,0.14,0.05,0.16,0.11c0.06,0.1,0.12,0.15,0.24,0.14c0.43-0.01,0.87,0,1.33,0
			c-0.12-0.24-0.23-0.46-0.35-0.7c0.25-0.09,0.49-0.18,0.75-0.27c0,0.33,0,0.63,0,0.96c0.36,0,0.72,0,1.09,0c0-0.17,0-0.34,0-0.51
			c0-0.22,0.01-0.44,0-0.66c0-0.14,0.03-0.23,0.17-0.26c0.08-0.02,0.15-0.06,0.25-0.1c0.07,0.29,0.15,0.57,0.22,0.84
			c0.05,0.19,0.09,0.38,0.14,0.57c0.02,0.1,0.07,0.14,0.17,0.14c0.29,0,0.59,0,0.88,0C36.41,38.69,36.77,39.51,37.14,40.37z"/>
		<path fill="#C1272D" d="M37.82,28.5c-1-1.28-2.11-2.43-3.33-3.47c0.23-0.18,0.47-0.33,0.68-0.52c0.4-0.34,0.79-0.71,1.19-1.05
			c0.05-0.05,0.15-0.09,0.21-0.06c1.7,0.62,3.28,1.45,4.71,2.59c0,0,0.01,0.01,0.02,0.03C40.24,26.98,39.06,27.77,37.82,28.5z"/>
		<path fill="#C1272D" d="M33.35,30.7c-0.6-1.38-1.19-2.73-1.77-4.08c0.44-0.21,0.87-0.42,1.3-0.64c0.39-0.21,0.76-0.43,1.14-0.65
			c0.09-0.06,0.14-0.06,0.23,0.01c0.91,0.78,1.77,1.62,2.56,2.54c0.23,0.26,0.44,0.54,0.68,0.82C36.14,29.45,34.76,30.09,33.35,30.7
			z"/>
		<path fill="#C1272D" d="M28.83,32.3c-0.05-0.3-0.11-0.58-0.14-0.87c-0.13-1.06-0.2-2.13-0.18-3.2c0-0.18,0.02-0.36,0.04-0.55
			c0-0.03,0.05-0.09,0.08-0.09c0.88-0.19,1.74-0.47,2.59-0.82c0.11,0.24,0.22,0.48,0.32,0.73c0.46,1.06,0.92,2.12,1.39,3.18
			c0.06,0.14,0.05,0.2-0.09,0.25c-1.27,0.51-2.55,0.97-3.87,1.34C28.93,32.27,28.89,32.28,28.83,32.3z"/>
		<path fill="#C1272D" d="M41.95,38.5c0.03,0.22,0.08,0.45,0.1,0.69c0.04,0.64,0.1,1.28,0.1,1.92c0,0.57-0.06,1.15-0.11,1.72
			c0,0.08-0.06,0.18-0.12,0.21c-0.85,0.41-1.7,0.81-2.55,1.22c-0.03,0.01-0.05,0.02-0.1,0.04c-0.54-1.24-1.08-2.48-1.61-3.7
			C39.09,39.9,40.51,39.2,41.95,38.5z"/>
		<path fill="#C1272D" d="M28.63,43.26c0.27-0.05,0.51-0.09,0.75-0.14c0.78-0.17,1.56-0.33,2.34-0.51c0.45-0.11,0.9-0.24,1.35-0.37
			c0.14-0.04,0.22,0,0.32,0.1c0.59,0.63,1.18,1.26,1.79,1.87c0.36,0.36,0.75,0.67,1.14,1.01c0.03,0.03,0.07,0.05,0.1,0.07
			c0,0.02-0.01,0.03-0.02,0.05c-0.32,0.09-0.63,0.19-0.95,0.27c-0.63,0.15-1.25,0.29-1.88,0.43c-0.15,0.03-0.28,0.03-0.42-0.03
			c-1.56-0.68-3.03-1.53-4.38-2.6C28.73,43.37,28.7,43.33,28.63,43.26z"/>
		<path fill="#C1272D" d="M39.28,48.21c-1.59,0.59-3.22,0.82-4.89,0.75c-2.34-0.1-4.54-0.76-6.55-2.05c0.54,0,1.07,0.02,1.61,0
			c0.75-0.04,1.5-0.1,2.24-0.18c0.51-0.05,1-0.15,1.51-0.21c0.08-0.01,0.17,0.01,0.24,0.04c1.61,0.66,3.27,1.13,4.97,1.5
			C38.69,48.11,38.98,48.16,39.28,48.21z"/>
		<path fill="#C1272D" d="M24.15,43.65c0.64-0.03,1.26-0.05,1.87-0.09c0.44-0.03,0.88-0.09,1.33-0.13c0.21-0.02,0.43-0.06,0.64-0.08
			c0.06,0,0.13,0.03,0.17,0.06c0.8,0.68,1.65,1.29,2.55,1.8c0.6,0.34,1.21,0.66,1.84,0.99c-0.12,0.03-0.23,0.06-0.34,0.07
			c-0.49,0.06-0.99,0.12-1.48,0.15c-0.97,0.05-1.93,0.08-2.9,0.11c-0.22,0.01-0.45,0.01-0.66-0.05c-0.16-0.04-0.3-0.18-0.44-0.28
			c-0.9-0.69-1.72-1.47-2.45-2.37C24.23,43.79,24.2,43.72,24.15,43.65z"/>
		<path fill="#C1272D" d="M40.78,33.35c1.47-0.87,2.89-1.8,4.24-2.9c0.53,1,0.91,2.06,1.16,3.2c-0.08-0.02-0.15-0.04-0.21-0.06
			c-0.61-0.17-1.22-0.17-1.82,0.03c-0.53,0.17-0.85,0.63-0.84,1.18c0.01,0.45,0.25,0.75,0.61,0.93c0.26,0.14,0.56,0.21,0.84,0.32
			c0.03,0.01,0.06,0.02,0.14,0.04c-0.16,0.12-0.28,0.24-0.43,0.29c-0.13,0.04-0.3-0.01-0.45-0.01c-0.29,0.01-0.57,0.03-0.9,0.05
			c0.07,0.25,0.13,0.48,0.2,0.74c-0.15,0.09-0.31,0.2-0.5,0.32c-0.15-0.41-0.3-0.79-0.44-1.18c-0.33-0.87-0.65-1.74-0.97-2.61
			c-0.05-0.13-0.11-0.17-0.23-0.16c-0.07,0.01-0.14,0-0.21,0C40.87,33.56,40.81,33.5,40.78,33.35z"/>
		<path fill="#C1272D" d="M21.8,39.14c0.15,0,0.3,0.01,0.44,0c0.77-0.05,1.53-0.09,2.3-0.14c0.1-0.01,0.18,0,0.24,0.12
			c0.7,1.4,1.63,2.62,2.74,3.69c0.04,0.04,0.07,0.08,0.11,0.12c0.01,0.01,0.02,0.03,0.04,0.06c-0.23,0.03-0.45,0.08-0.67,0.09
			c-0.98,0.06-1.97,0.1-2.95,0.15c-0.16,0.01-0.27-0.05-0.36-0.19c-0.81-1.17-1.44-2.44-1.87-3.81
			C21.81,39.21,21.81,39.19,21.8,39.14z"/>
		<path fill="#C1272D" d="M46.34,37.68c-0.11,0.98-0.33,1.92-0.66,2.84c-0.02,0.06-0.06,0.13-0.12,0.18
			c-0.96,0.76-1.99,1.42-3.05,2.02c-0.02,0.01-0.04,0.02-0.08,0.03c0.01-0.24,0.04-0.47,0.04-0.69c0-0.71,0.02-1.42-0.01-2.13
			c-0.02-0.53-0.11-1.05-0.16-1.58c0-0.04,0.04-0.12,0.08-0.14c0.38-0.24,0.75-0.47,1.14-0.69c0.03-0.02,0.11-0.01,0.13,0.01
			c0.23,0.22,0.52,0.3,0.81,0.35c0.46,0.07,0.93,0.09,1.38-0.03C46.02,37.81,46.18,37.74,46.34,37.68z"/>
		<path fill="#C1272D" d="M43.23,23.81c-0.24,0.32-0.47,0.64-0.72,0.94c-0.23,0.28-0.48,0.53-0.72,0.8
			c-0.12,0.14-0.21,0.17-0.37,0.04c-1.33-1.04-2.79-1.83-4.34-2.43c-0.11-0.04-0.21-0.09-0.28-0.11c0.33-0.55,0.66-1.11,1-1.65
			c0.03-0.05,0.13-0.08,0.19-0.06c0.88,0.2,1.74,0.49,2.56,0.86c0.9,0.41,1.76,0.92,2.56,1.51C43.14,23.73,43.17,23.76,43.23,23.81z
			"/>
		<path fill="#C1272D" d="M43.56,24.07c1.38,1.11,2.51,2.47,3.42,4.09c-0.6,0.57-1.21,1.13-1.83,1.71c-0.87-1.5-1.94-2.79-3.21-3.86
			C42.48,25.36,43.01,24.72,43.56,24.07z"/>
		<path fill="#C1272D" d="M37.49,40.19c-0.42-0.96-0.84-1.9-1.24-2.85c-0.04-0.09-0.04-0.21-0.02-0.3c0.11-0.47,0.24-0.94,0.35-1.41
			c0.03-0.14,0.1-0.21,0.24-0.24c0,0.81,0,1.62,0,2.44c0.37,0,0.73,0,1.11,0c0-0.07,0-0.15,0-0.22c0-0.84,0-1.68,0-2.52
			c0-0.17,0.04-0.26,0.19-0.33c0.51-0.24,1.01-0.51,1.51-0.77c0.03-0.02,0.07-0.03,0.16-0.07c-0.49,1.32-0.97,2.61-1.46,3.92
			c0.37,0,0.71,0,1.05,0c0.31,0,0.31,0,0.39-0.31c0.11-0.39,0.11-0.39,0.5-0.39c0.33,0,0.66,0,0.99,0c0.09,0,0.14,0.03,0.16,0.12
			c0.03,0.12,0.07,0.24,0.11,0.37c0.03,0.13,0.07,0.25,0.24,0.22c0.02,0,0.09,0.06,0.09,0.1c0,0.05-0.04,0.11-0.08,0.14
			c-0.4,0.22-0.79,0.45-1.2,0.65c-1,0.48-2,0.95-3,1.42C37.55,40.18,37.52,40.18,37.49,40.19z"/>
		<path fill="#C1272D" d="M37.31,40.75c0.53,1.23,1.07,2.46,1.62,3.72c-0.65,0.23-1.28,0.46-1.92,0.68
			c-0.07,0.02-0.18-0.03-0.25-0.08c-1.02-0.84-1.97-1.76-2.87-2.73c-0.07-0.08-0.13-0.17-0.19-0.24
			C34.9,41.65,36.08,41.21,37.31,40.75z"/>
		<path fill="#C1272D" d="M23.45,37.85c0.23,0,0.42,0,0.62,0c0.09,0,0.15,0.02,0.18,0.12c0.08,0.21,0.17,0.41,0.26,0.63
			c-0.28,0.03-0.54,0.08-0.81,0.09c-0.63,0.02-1.27,0.03-1.9,0.04c-0.12,0-0.16-0.05-0.18-0.15c-0.12-0.65-0.27-1.3-0.35-1.95
			c-0.08-0.7-0.09-1.41-0.11-2.12c-0.01-0.29,0.04-0.58,0.06-0.87c0.71,0,1.4,0,2.1,0c0.02,0.15,0.04,0.31,0.05,0.46
			c0.04,0.84,0.19,1.67,0.41,2.48c0.04,0.14,0.04,0.27-0.02,0.4C23.66,37.26,23.57,37.54,23.45,37.85z"/>
		<path fill="#C1272D" d="M24.07,36.15c-0.2-0.86-0.33-1.69-0.33-2.56c1.62-0.12,3.2-0.39,4.78-0.79c0.05,0.23,0.1,0.44,0.15,0.65
			c0,0.03-0.01,0.08-0.02,0.08c-0.18,0.02-0.11,0.16-0.11,0.25c0,1.27,0,2.54,0,3.81c0,0.09,0,0.18,0,0.3
			c-0.57,0.12-1.13,0.26-1.69,0.37c-0.57,0.11-1.14,0.19-1.71,0.29c-0.13,0.02-0.23,0-0.29-0.15c-0.06-0.18-0.14-0.34-0.19-0.45
			c0.08-0.11,0.14-0.18,0.19-0.24c0.01-0.01,0.01-0.02,0.02-0.03c0.06-0.17,0.07-0.39,0.18-0.48c0.12-0.09,0.33-0.03,0.5-0.03
			c0.27,0,0.54,0,0.81,0c0.11,0,0.17,0.03,0.2,0.15c0.05,0.18,0.06,0.43,0.18,0.52c0.13,0.09,0.36,0.03,0.55,0.04
			c0.26,0,0.51,0,0.81,0c-0.05-0.14-0.09-0.26-0.13-0.37c-0.47-1.26-0.94-2.52-1.4-3.78c-0.04-0.12-0.09-0.16-0.22-0.15
			c-0.38,0.01-0.76,0-1.14,0c-0.1,0-0.15,0.04-0.19,0.14c-0.28,0.77-0.57,1.54-0.85,2.31C24.13,36.03,24.11,36.07,24.07,36.15z"/>
		<path fill="#C1272D" d="M29.08,33.54c-0.06-0.29-0.12-0.56-0.18-0.84c0.28-0.09,0.56-0.15,0.83-0.25
			c1.08-0.38,2.16-0.77,3.23-1.16c0.15-0.06,0.22-0.05,0.29,0.11c0.28,0.66,0.57,1.32,0.86,1.98c0.02,0.04,0.03,0.09,0.05,0.15
			c-0.34,0-0.67,0-1.03,0c0,0.09,0,0.15,0,0.22c0,0.84,0,1.68,0,2.52c0,0.13-0.03,0.2-0.16,0.24c-0.22,0.07-0.45,0.15-0.66,0.23
			c-0.09,0.03-0.14,0.03-0.18-0.06c-0.17-0.31-0.36-0.6-0.75-0.72c0.36-0.1,0.63-0.24,0.82-0.54c0.42-0.68,0.13-1.73-0.75-1.81
			c-0.47-0.04-0.95-0.06-1.42-0.07C29.71,33.53,29.4,33.54,29.08,33.54z"/>
		<path fill="#C1272D" d="M45.34,30.22c0.61-0.56,1.21-1.12,1.83-1.7c0.14,0.31,0.29,0.62,0.43,0.94c0.4,0.93,0.69,1.9,0.87,2.91
			c0.01,0.06,0.01,0.14-0.02,0.18c-0.47,0.69-1.01,1.32-1.6,1.89c-0.25-0.36-0.27-0.8-0.37-1.2c-0.25-1.03-0.61-2.02-1.11-2.95
			C45.35,30.26,45.35,30.24,45.34,30.22z"/>
		<path fill="#C1272D" d="M24.56,27.88c-0.76,1.69-1.18,3.45-1.21,5.33c-0.69,0-1.38,0-2.1,0c0.14-0.66,0.26-1.34,0.43-1.99
			c0.32-1.21,0.81-2.34,1.44-3.41c0.05-0.09,0.1-0.14,0.21-0.12c0.36,0.05,0.72,0.1,1.08,0.15C24.44,27.85,24.49,27.86,24.56,27.88z
			"/>
		<path fill="#C1272D" d="M48.59,33.05c0.03,0.3,0.07,0.55,0.09,0.8c0.05,0.82,0.08,1.65-0.03,2.47c-0.06,0.49-0.11,0.98-0.22,1.46
			c-0.05,0.2-0.21,0.39-0.36,0.54c-0.51,0.54-1.03,1.07-1.56,1.59c-0.08,0.08-0.17,0.15-0.29,0.24c0.08-0.31,0.17-0.58,0.22-0.86
			c0.11-0.62,0.21-1.25,0.31-1.87c0.02-0.11,0.06-0.21,0.11-0.3c0.22-0.44,0.21-0.86,0.01-1.32c-0.09-0.22-0.06-0.5-0.08-0.75
			c0-0.03,0.03-0.06,0.06-0.09c0.6-0.56,1.15-1.17,1.65-1.83C48.51,33.12,48.54,33.1,48.59,33.05z"/>
		<path fill="#C1272D" d="M28.95,22.64c-0.4,1.52-0.67,3.06-0.78,4.63c-0.98,0.2-1.97,0.27-3,0.22
			C26.13,25.6,27.42,24.02,28.95,22.64z"/>
		<path fill="#C1272D" d="M48.21,38.79c-1.06,3.56-3.12,6.24-6.14,8.12c0.18-0.19,0.36-0.38,0.54-0.57c1.42-1.55,2.54-3.3,3.3-5.31
			c0.05-0.13,0.17-0.24,0.28-0.33c0.69-0.57,1.33-1.18,1.93-1.84C48.14,38.84,48.16,38.83,48.21,38.79z"/>
		<path fill="#C1272D" d="M30.48,21.74c2.31-0.78,4.6-0.95,7-0.51C37.23,21.62,37,22,36.76,22.36c-0.1,0.15-0.21,0.3-0.34,0.42
			c-0.05,0.05-0.16,0.08-0.23,0.06c-1.01-0.34-2.04-0.59-3.08-0.78c-0.59-0.1-1.19-0.16-1.79-0.23
			C31.07,21.8,30.8,21.77,30.48,21.74z"/>
		<path fill="#C1272D" d="M31.43,26.27c-0.6-1.38-1.19-2.73-1.77-4.07c0.01-0.01,0.03-0.02,0.03-0.03c1.44,0.83,2.82,1.75,4.15,2.84
			C33.03,25.43,32.24,25.85,31.43,26.27z"/>
		<path fill="#C1272D" d="M28.56,27.19c0.11-1.59,0.39-3.1,0.83-4.63c0.57,1.3,1.11,2.55,1.67,3.84
			C30.26,26.74,29.44,27,28.56,27.19z"/>
		<path fill="#C1272D" d="M41.52,46.84c0.11-0.35,0.23-0.7,0.32-1.06c0.18-0.77,0.34-1.54,0.5-2.31c0.03-0.15,0.09-0.24,0.22-0.33
			c0.89-0.55,1.77-1.12,2.65-1.68c0.04-0.03,0.09-0.06,0.17-0.11C44.46,43.51,43.18,45.31,41.52,46.84z"/>
		<path fill="#C1272D" d="M36.05,23.26c-0.45,0.37-0.9,0.75-1.34,1.11c-0.11,0.09-0.24,0.16-0.34,0.25c-0.13,0.12-0.24,0.11-0.37,0
			c-1.07-0.89-2.21-1.66-3.39-2.38c-0.02-0.01-0.03-0.03-0.05-0.06c1.86,0.1,3.69,0.44,5.47,1.02
			C36.03,23.22,36.04,23.24,36.05,23.26z"/>
		<path fill="#C1272D" d="M40.73,47.66c-0.43-0.99-0.86-1.98-1.29-2.97c0.84-0.4,1.67-0.79,2.52-1.19
			c-0.23,1.45-0.61,2.83-1.16,4.16C40.77,47.66,40.75,47.66,40.73,47.66z"/>
		<path fill="#C1272D" d="M40,47.89c-2.8-0.4-4.95-1.12-5.96-1.53c0.12-0.03,0.21-0.06,0.3-0.08c0.09-0.03,0.19-0.04,0.29-0.07
			c0.69-0.18,1.37-0.37,2.05-0.54c0.07-0.02,0.17-0.01,0.22,0.03c1.01,0.72,2.01,1.44,3.02,2.16C39.95,47.88,39.98,47.88,40,47.89z"
			/>
		<path fill="#C1272D" d="M28.13,22.87c-0.29,0.3-0.59,0.6-0.87,0.91c-0.79,0.87-1.48,1.83-2.07,2.86
			c-0.13,0.24-0.25,0.48-0.39,0.72c-0.03,0.05-0.1,0.11-0.15,0.1c-0.4-0.03-0.8-0.08-1.24-0.12c1.25-1.91,2.81-3.39,4.7-4.5
			C28.11,22.85,28.12,22.86,28.13,22.87z"/>
		<path fill="#C1272D" d="M40.23,47.62c-0.99-0.7-1.97-1.39-2.98-2.12c0.65-0.24,1.23-0.46,1.83-0.68c0.4,0.92,0.8,1.83,1.2,2.75
			C40.26,47.59,40.24,47.61,40.23,47.62z"/>
		<path fill="#C1272D" d="M29.86,35.34c0-0.33,0-0.61,0-0.92c0.31,0.02,0.62,0.02,0.91,0.06c0.21,0.03,0.28,0.18,0.27,0.4
			c-0.01,0.2-0.09,0.33-0.29,0.36C30.46,35.27,30.17,35.3,29.86,35.34z"/>
		<path fill="#C1272D" d="M46.35,34.8c-0.03,0.21-0.29,0.42-0.46,0.37c-0.38-0.1-0.75-0.2-1.13-0.3c-0.12-0.03-0.2-0.11-0.2-0.26
			c0-0.15,0.08-0.22,0.2-0.27c0.04-0.02,0.09-0.04,0.13-0.04c0.31-0.03,0.65,0.06,0.74,0.43c0.01,0.05,0.11,0.11,0.17,0.11
			C45.97,34.83,46.16,34.81,46.35,34.8z"/>
		<path fill="#C1272D" d="M40.18,36.2c0.15-0.49,0.3-0.97,0.44-1.45c0.01,0,0.03,0,0.04,0c0.15,0.48,0.29,0.96,0.44,1.45
			C40.79,36.2,40.49,36.2,40.18,36.2z"/>
		<path fill="#C1272D" d="M25.78,34.75c0.14,0.48,0.29,0.95,0.44,1.44c-0.3,0-0.59,0-0.91,0c0.15-0.49,0.29-0.96,0.43-1.44
			C25.75,34.76,25.76,34.75,25.78,34.75z"/>
		<path fill="#C1272D" d="M44.6,36.81c0.24-0.18,0.48-0.36,0.72-0.54c0.03-0.03,0.1-0.03,0.14-0.01c0.31,0.12,0.36,0.46,0.11,0.69
			C45.37,37.14,44.75,37.13,44.6,36.81z"/>
		<path fill="#C1272D" d="M30.89,37.21c-0.13,0.04-0.23,0.09-0.34,0.11c-0.03,0.01-0.09-0.02-0.11-0.05
			c-0.18-0.37-0.35-0.74-0.52-1.13c0.21-0.03,0.36,0.02,0.46,0.18C30.56,36.6,30.71,36.89,30.89,37.21z"/>
		<path fill="#C1272D" d="M34.55,35.92c-0.12,0.04-0.21,0.08-0.32,0.12c0-0.43,0-0.84,0-1.25c0.01,0,0.02,0,0.03-0.01
			C34.35,35.15,34.44,35.52,34.55,35.92z"/>
		<path fill="#C1272D" d="M30.1,37.45c-0.09,0.03-0.16,0.05-0.24,0.07c0-0.18,0-0.35,0-0.57C29.94,37.13,30.02,37.28,30.1,37.45z"/>
	</g>
</g>
</svg>
